<svg data-v-70b83f88="" version="1.0" xmlns="http://www.w3.org/2000/svg" xmlns:xlink="http://www.w3.org/1999/xlink" viewBox="0 0 340.000000 250.000000" preserveAspectRatio="xMidYMid meet" color-interpolation-filters="sRGB" style="margin: auto;"><rect data-v-70b83f88="" x="0" y="0" width="100%" height="100%" fill="#ffffff" fill-opacity="1" class="background"></rect><rect data-v-70b83f88="" x="0" y="0" width="100%" height="100%" fill="url(#watermark)" fill-opacity="1" class="watermarklayer"></rect><g data-v-70b83f88="" fill="#333333" class="basesvg" transform="translate(54.95000460743904,109.02499961853027)"><g data-gra="path-name" fill-rule="" class="tp-name"><g transform="scale(1)"><g><path d="M17.81 8.14C20.37 8.14 22.38 6.49 22.38 4.12 22.38 2.4 20.99 0.97 19.3 0.97 17.68 0.97 16.32 2.24 16.22 3.73 16.77 3.63 17.45 3.83 17.45 4.38 17.45 5.19 16.45 5.9 15.08 5.9 12.78 5.9 10.71 4.54 9.15 3.6 11.22 2.72 14.4 0.62 15.99 0.13 21.15-0.94 25.72-4.61 25.72-11.29 25.72-18.85 19.89-23.19 13.33-23.19 6.52-23.19 0.32-19.01 0.32-11.52 0.32-4.28 6.13 0.49 12.65 0.49L13.37 0.49C11.87 1.39 9.63 3.02 7.49 3.44L8.17 3.93C9.38 4.64 13.82 8.14 17.81 8.14ZM14.08-0.16C9.7-0.16 6.78-7.79 6.78-13.82 6.78-17.97 8.3-22.32 11.74-22.55 16.06-22.84 19.27-16.09 19.27-9.67 19.27-5.32 17.74-0.16 14.08-0.16ZM32.7 0C36.04 0 37.27-2.21 38.86-2.47 38.83-1.62 38.73-0.81 38.64-0.03 41.07-0.32 43.21-0.32 46-0.03L46-0.39C43.99-0.88 43.86-5.68 43.86-8.4 43.86-12.2 44.05-13.46 44.83-15.93 42.63-14.63 39.97-13.62 36.72-13.85L36.72-13.43C38.54-12.78 38.96-12.29 38.96-7.2 38.96-4.28 37.63-2.04 35.94-2.04 33.77-2.04 33.15-5.29 33.15-9.41 33.15-12.2 33.41-14.95 33.93-16.25 31.69-15.05 28.71-14.08 25.63-14.08L25.63-13.69C28.22-12.75 28.13-10.19 27.67-6.62 27.15-2.34 29.26 0 32.7 0ZM53.88 0.16C58.81 0.19 60.83-3.86 61.34-6.26L60.99-6.42C60.44-4.87 58.85-3.28 56.71-3.28 53.66-3.28 52.03-6 51.48-8.6L60.95-8.6C60.83-12.49 59.01-15.73 53.85-15.73 49.47-15.73 45.81-12.49 45.81-7.62 45.81-2.66 50.02 0.13 53.88 0.16ZM51.39-9.12C51.29-9.63 51.26-10.15 51.26-10.64 51.26-13.66 52.36-15.21 53.79-15.21 55.99-15.21 56.54-11.58 56.48-9.12ZM69.94 0.16C74.87 0.19 76.88-3.86 77.4-6.26L77.05-6.42C76.49-4.87 74.9-3.28 72.76-3.28 69.71-3.28 68.09-6 67.54-8.6L77.01-8.6C76.88-12.49 75.07-15.73 69.91-15.73 65.53-15.73 61.86-12.49 61.86-7.62 61.86-2.66 66.08 0.13 69.94 0.16ZM67.44-9.12C67.35-9.63 67.31-10.15 67.31-10.64 67.31-13.66 68.42-15.21 69.84-15.21 72.05-15.21 72.6-11.58 72.54-9.12ZM77.21 0C80.26-0.32 83.21-0.32 86.36 0L86.36-0.39C84.77-0.94 84.21-3.18 84.21-8.66 84.25-11.65 85.77-13.92 87.36-13.92 89.4-13.92 90.15-10.64 90.22-6.52 90.31-2.85 89.63-1.1 88.2-0.39L88.2 0C91.12-0.32 95.02-0.32 98.46 0L98.46-0.39C95.86-1.69 95.86-3.37 95.34-9.21 95.05-12.46 93.95-15.93 90.41-15.93 87.49-15.93 85.93-13.75 84.31-13.4 84.34-14.24 84.41-15.08 84.54-15.9 82.56-14.6 79.54-14.11 77.08-14.05L77.08-13.69C79.25-13.11 79.32-10.48 79.32-7.53 79.32-3.7 78.93-0.97 77.21-0.39ZM105.01 0.42C108.77 0.42 112.21-1.43 112.21-4.38 112.21-6.39 110.88-7.66 107.99-9.31 105.79-10.64 103.06-11.68 103.06-13.33 103.06-14.44 103.91-14.86 105.33-14.86 107.77-14.89 109.42-12.42 109.71-10.02L110-10.02 112.15-15.73C108.58-14.21 108.19-15.73 105.04-15.73 101.93-15.73 98.46-14.47 98.46-11.55 98.46-9.5 100.69-8.34 104.42-6 106.92-4.44 107.93-3.7 107.93-2.34 107.93-1.2 107.02-0.29 105.27-0.29 102.28-0.29 101.57-3.5 103.13-4.31 103.13-7.33 97.32-7.3 97.32-3.96 97.32-1.14 101.02 0.42 105.01 0.42ZM117.43 0C120.87-0.32 124.18-0.32 127.59 0L127.59-0.39C125.71-0.91 125.22-5.06 125.12-9.6L128.33-13.27C130.99-11.29 135.15-2.43 131.64-0.39L131.64 0C135.11-0.32 139.04-0.32 142.41 0L142.41-0.39C139.2-1.07 138.55-9.99 136.12-12.39 133.91-14.47 130.25-11.91 128.79-13.79L131.03-16.35C133.52-19.24 136.44-21.8 139.62-22.32L139.62-22.71C136.09-22.38 133.69-22.38 130.15-22.71L130.15-22.32C131.45-22.12 133.13-20.24 130.18-16.84L125.12-11.03 125.12-11.87C125.12-17.65 125.48-21.64 127.59-22.32L127.59-22.71C124.18-22.35 120.87-22.35 117.43-22.71L117.43-22.32C119.61-21.61 119.9-17.29 119.9-11.87 119.9-6.52 119.67-0.94 117.43-0.39ZM145.4-16.58C147.44-16.58 148.87-18.04 148.87-19.24 148.87-20.44 147.44-21.93 145.4-21.93 143.35-21.93 141.96-20.44 141.96-19.24 141.96-18.04 143.35-16.58 145.4-16.58ZM141.47 0C144.55-0.32 147.47-0.32 150.62 0L150.62-0.39C149-0.94 148.51-3.21 148.51-8.82 148.51-11.06 148.51-13.66 148.83-15.9 146.82-14.6 143.84-14.11 141.37-14.05L141.37-13.69C143.51-13.11 143.61-10.48 143.61-7.53 143.61-3.7 143.19-0.97 141.47-0.39ZM157.95 0.42C161.71 0.42 165.15-1.43 165.15-4.38 165.15-6.39 163.82-7.66 160.94-9.31 158.73-10.64 156-11.68 156-13.33 156-14.44 156.85-14.86 158.28-14.86 160.71-14.89 162.36-12.42 162.65-10.02L162.95-10.02 165.09-15.73C161.52-14.21 161.13-15.73 157.98-15.73 154.87-15.73 151.4-14.47 151.4-11.55 151.4-9.5 153.64-8.34 157.37-6 159.86-4.44 160.87-3.7 160.87-2.34 160.87-1.2 159.96-0.29 158.21-0.29 155.23-0.29 154.51-3.5 156.07-4.31 156.07-7.33 150.26-7.3 150.26-3.96 150.26-1.14 153.96 0.42 157.95 0.42ZM169.34-16.58C171.38-16.58 172.81-18.04 172.81-19.24 172.81-20.44 171.38-21.93 169.34-21.93 167.29-21.93 165.9-20.44 165.9-19.24 165.9-18.04 167.29-16.58 169.34-16.58ZM165.41 0C168.49-0.32 171.41-0.32 174.56 0L174.56-0.39C172.94-0.94 172.45-3.21 172.45-8.82 172.45-11.06 172.45-13.66 172.78-15.9 170.76-14.6 167.78-14.11 165.31-14.05L165.31-13.69C167.46-13.11 167.55-10.48 167.55-7.53 167.55-3.7 167.13-0.97 165.41-0.39ZM181.15 0C182.93-0.32 184.88-0.32 186.69 0 187.02-4.12 187.6-5.9 188.93-9.18 190.39-12.75 191.79-14.08 193.89-14.89L193.89-15.28C191.79-14.89 189.74-15.02 187.63-15.28 188.83-14.21 189.58-12.65 188.51-10.06L186.4-4.87 184.23-9.67C183.09-12.23 183.55-13.92 184.71-15.28 181.02-14.7 177.22-14.7 173.33-15.28L173.33-14.89C177.09-12.52 180.24-4.8 181.15 0ZM199.41 0C202.75 0 203.98-2.21 205.57-2.47 205.54-1.62 205.44-0.81 205.35-0.03 207.78-0.32 209.92-0.32 212.71-0.03L212.71-0.39C210.7-0.88 210.57-5.68 210.57-8.4 210.57-12.2 210.76-13.46 211.54-15.93 209.34-14.63 206.68-13.62 203.43-13.85L203.43-13.43C205.25-12.78 205.67-12.29 205.67-7.2 205.67-4.28 204.34-2.04 202.65-2.04 200.48-2.04 199.86-5.29 199.86-9.41 199.86-12.2 200.12-14.95 200.64-16.25 198.4-15.05 195.42-14.08 192.34-14.08L192.34-13.69C194.93-12.75 194.83-10.19 194.38-6.62 193.86-2.34 195.97 0 199.41 0ZM212.32 0C215.34-0.29 218.32-0.29 221.44 0L221.44-0.36C219.68-1.04 219.33-4.57 219.33-9.05 219.33-13.66 219.46-18.98 219.81-23.81 217.28-21.96 214.82-21.18 212.03-21.09L212.03-20.76C214.4-20.08 214.53-16.09 214.53-9.89 214.53-3.99 214.04-1.27 212.32-0.39ZM225.2-16.58C227.24-16.58 228.67-18.04 228.67-19.24 228.67-20.44 227.24-21.93 225.2-21.93 223.16-21.93 221.76-20.44 221.76-19.24 221.76-18.04 223.16-16.58 225.2-16.58ZM221.27 0C224.36-0.32 227.28-0.32 230.42 0L230.42-0.39C228.8-0.94 228.31-3.21 228.31-8.82 228.31-11.06 228.31-13.66 228.64-15.9 226.63-14.6 223.64-14.11 221.18-14.05L221.18-13.69C223.32-13.11 223.41-10.48 223.41-7.53 223.41-3.7 222.99-0.97 221.27-0.39Z" transform="translate(-0.320000022649765, 23.809999465942383)"></path></g><!----><!----><!----><!----><!----><!----><!----></g></g><!----></g><defs v-gra="od"></defs></svg>