<svg filter="url(#colors6327540562)" x="0" y="0" width="73.77735849056603" height="102.87003233531705" filtersec="colorsf6488178910" class="image-svg-svg primary" style="overflow: visible;"><svg xmlns="http://www.w3.org/2000/svg" xmlns:xlink="http://www.w3.org/1999/xlink" viewBox="0.0016040802001953125 -0.000156402587890625 34.54001235961914 48.15999984741211"><path transform="translate(-4.029035205668163 43.83984375)" d="M31.15-1.79L29.60-4.32C34.49-9.11 37.27-15.57 38.21-21.83C39.48-30.13 37.55-39.13 29.95-42.61C28.23-43.42 26.30-43.84 24.12-43.84C15.71-43.84 5.94-38.71 4.46-29.78C3.69-24.57 7.07-21.62 11.53-20.25C12.41-20.04 13.29-19.93 14.10-19.93C15.82-19.93 17.86-21.09 17.47-22.32C17.02-23.73 15.68-23.27 16.14-27.07C16.59-30.06 18.84-35.02 22.43-35.47C28.05-35.47 28.05-27.04 27.46-22.85L27.42-22.54C26.93-19.20 25.91-16.10 24.29-13.18L23.17-15.08C22.64-15.96 22.01-16.31 21.30-16.31C19.30-16.31 17.12-13.11 18.18-10.72L19.41-7.98C18.60-7.52 17.19-7.00 16.24-7.00C13.01-7.00 12.59-11.50 12.97-14.03C13.18-15.61 13.85-17.09 14.80-18.18C15.05-18.42 15.15-18.70 15.01-18.77C14.17-19.23 13.08-19.27 12.09-19.27C6.40-19.27 4.54-14.73 4.08-9.81C3.41-2.60 9.67 1.62 16.21 1.62C18.49 1.62 20.92 1.16 23.03 0.21L23.59 1.41C24.57 3.52 25.95 4.32 27.25 4.32C30.02 4.32 32.59 0.77 31.15-1.79Z"></path></svg></svg>