<svg xmlns="http://www.w3.org/2000/svg" x="0" y="0" filtersec="colorsb5964146713" class="image-svg-svg primary" style="overflow: visible;"><svg xmlns="http://www.w3.org/2000/svg" viewBox="-0.03024640865623951 -0.00176924467086792 115.79940032958984 115.46129608154297"><title>资源 27</title><path d="M57.76 64.3a17.74 17.74 0 0 1 12.1 4.9Q84.46 83 99.1 96.78c1.31 1.22 1.13 1.87 0 3a59.29 59.29 0 0 1-28.45 15.54c-1.45.34-2 .14-2.31-1.52-1.95-10.84-4.08-21.65-6-32.49-.31-1.69-.87-2.32-2.61-2a7.79 7.79 0 0 1-3.33 0c-2.26-.56-2.73.53-3.07 2.46-1.87 10.48-3.9 20.93-5.76 31.42-.34 1.88-.83 2.46-2.85 2a60 60 0 0 1-28-15.49c-1.34-1.29-1.15-2 .08-3.14C26.52 87.41 36.23 78.18 46 69a17.23 17.23 0 0 1 11.76-4.7z"></path><path d="M48.62 38.44c.07.93-.53 1.27-1.09 1.65a31.6 31.6 0 0 0-3.62 2.59c-1.18 1.11-2 1.1-3.17 0-7.81-7.48-15.68-14.87-23.51-22.29-2-1.92-2-2.11 0-4A60.32 60.32 0 0 1 31 6.5c1.27-.66 2.13-.75 2.85.76Q41 22.41 48.24 37.51c.16.34.28.69.38.93zM58 .05c2.85-.2 5.64.32 8.46.52 1.77.13 2.42.74 2 2.71-2.08 10.73-4 21.49-6 32.24-.26 1.42-.78 2.16-2.33 2a25 25 0 0 0-3.12-.07c-3.45 0-3.24.76-4-3.14-2-10.3-3.83-20.62-5.81-30.92C47 1.54 47.51.7 49.36.57c2.89-.2 5.76-.74 8.64-.52zM83.51 6a10.92 10.92 0 0 1 1.14.48 62 62 0 0 1 14.26 10.25c1.3 1.27 1.44 2.12 0 3.43q-12.08 11.3-24 22.72c-.93.88-1.65 1-2.68.13a39 39 0 0 0-4-2.89c-1.11-.71-1.2-1.43-.64-2.6 4.75-9.94 9.44-19.91 14.17-29.86.39-.66.6-1.61 1.75-1.66zM35.41 55.77l-19.36-2.45c-4.35-.56-8.7-1.09-13-1.67C-.11 51.24-.24 51 .29 48a63.27 63.27 0 0 1 5-15.23C6.05 31 7 30.44 8.86 31.47Q23 39.27 37.28 46.92c1.55.83 2 1.71 1.17 3.37a20.07 20.07 0 0 0-1.29 4c-.29 1.18-.89 1.71-1.75 1.48zM0 67.47c-.23-1.61.89-1.86 2.06-2q7.08-.94 14.16-1.84c6-.77 12-1.47 17.93-2.31 1.81-.26 2.89.08 3.13 2a9.44 9.44 0 0 0 .59 2.14c1.41 3.65 1.83 3.17-2.08 5.29Q22.37 78.08 9 85.46c-1.38.76-2.49 1.29-3.44-.62A59.37 59.37 0 0 1 0 67.47zM80.37 55.89c-1 .12-1.42-.38-1.66-1.35a45.25 45.25 0 0 0-1.52-4.66 1.77 1.77 0 0 1 .89-2.57q14.72-8 29.4-16c1.25-.68 2-.42 2.68.86a62.77 62.77 0 0 1 5.54 16.92c.29 1.63-.33 2.35-1.9 2.55Q102.39 53 91 54.52zM80.44 61.32l26.75 3.42c2.29.29 4.57.63 6.86.91 1.42.17 1.9.92 1.66 2.29a64.17 64.17 0 0 1-5.59 17.13c-.84 1.7-1.89 1.23-3.1.57q-11.76-6.42-23.54-12.8c-1.76-1-3.49-2-5.29-2.89a1.87 1.87 0 0 1-1-2.72 36.64 36.64 0 0 0 1.53-4.65c.28-1.18.9-1.39 1.72-1.26z"></path></svg></svg>