<svg data-v-70b83f88="" version="1.0" xmlns="http://www.w3.org/2000/svg" xmlns:xlink="http://www.w3.org/1999/xlink" viewBox="0 0 340.000000 250.000000" preserveAspectRatio="xMidYMid meet" color-interpolation-filters="sRGB" style="margin: auto;"><rect data-v-70b83f88="" x="0" y="0" width="100%" height="100%" fill="#feffff" fill-opacity="1" class="background"></rect><rect data-v-70b83f88="" x="0" y="0" width="100%" height="100%" fill="url(#watermark)" fill-opacity="1" class="watermarklayer"></rect><g data-v-70b83f88="" fill="#333" class="iconlinesvg-g iconlinesvg" transform="translate(83.4444876909256,100.43056869506836)"><g class="tp-name" transform="translate(0,0)"><g transform="translate(0, 0)"><g data-gra="path-name" fill="#333" transform="scale(1)"><path d="M20.49 0Q14.88 0 10.68-2.06Q6.48-4.13 4.20-7.97Q1.92-11.80 1.92-16.89L1.92-16.89Q1.92-22.03 4.25-25.99Q6.57-29.94 10.63-32.10Q14.68-34.26 19.72-34.26L19.72-34.26Q24.71-34.26 28.77-32.10Q32.82-29.94 35.15-25.99Q37.48-22.03 37.48-16.89L37.48-16.89Q37.48-13.44 35.94-10.29Q34.41-7.15 31.96-5.33L31.96-5.33L38.10-5.33L38.10 0L20.49 0ZM19.72-5.52Q25.05-5.52 28.19-8.49Q31.34-11.47 31.34-16.89L31.34-16.89Q31.34-20.44 29.80-23.13Q28.26-25.82 25.63-27.26Q22.99-28.70 19.72-28.70L19.72-28.70Q16.46-28.70 13.80-27.26Q11.13-25.82 9.60-23.13Q8.06-20.44 8.06-16.89L8.06-16.89Q8.06-11.42 11.21-8.47Q14.35-5.52 19.72-5.52L19.72-5.52Z" transform="translate(-1.9194881364969345, 34.26286323647028)"></path></g></g><g transform="translate(40, 3.239155284843582)"><g><g class="imagesvg"><g><rect fill="#333" fill-opacity="0" stroke-width="2" x="0" y="0" width="24.61608087243125" height="28.504360717969465" class="image-rect"></rect><svg filter="url(#colors7575588758)" x="0" y="0" width="24.61608087243125" height="28.504360717969465" filtersec="colorsf5399109224" class="image-svg-svg primary" style="overflow: visible;"><svg xmlns="http://www.w3.org/2000/svg" viewBox="0 0 114 132.0072784423828"><title>U</title><g id="f3963edf-8e57-4101-ab36-6c51f9b9ef27" data-name="圖層 2"><g id="c0b8e11a-6d1e-417f-a3a2-757126861e74" data-name="Layer 1"><path d="M57,0V117.08a41.48,41.48,0,0,1-29.49-12.41A40.69,40.69,0,0,1,15,74.9V0H0V74.9c0,15.82,5.7,29.3,16.84,40.43A55.08,55.08,0,0,0,57.22,132c15.74,0,29.06-5.56,40.2-16.7S114,90.72,114,74.9V0Z" fill="#1a1a1a"></path></g></g></svg></svg><defs><filter id="colors7575588758"><feColorMatrix type="matrix" values="0 0 0 0 0.19921875  0 0 0 0 0.19921875  0 0 0 0 0.19921875  0 0 0 1 0" class="icon-fecolormatrix"></feColorMatrix></filter><filter id="colorsf5399109224"><feColorMatrix type="matrix" values="0 0 0 0 0.99609375  0 0 0 0 0.99609375  0 0 0 0 0.99609375  0 0 0 1 0" class="icon-fecolormatrix"></feColorMatrix></filter><filter id="colorsb1517636091"><feColorMatrix type="matrix" values="0 0 0 0 0  0 0 0 0 0  0 0 0 0 0  0 0 0 1 0" class="icon-fecolormatrix"></feColorMatrix></filter></defs></g></g></g></g><g transform="translate(68, 0)"><g data-gra="path-name" fill="#333" transform="scale(1)"><path d="M15.84 0.72Q9.41 0.72 5.66-2.50Q1.92-5.71 1.92-11.47L1.92-11.47Q1.92-17.13 5.23-20.44Q8.54-23.75 14.68-23.75L14.68-23.75Q18.72-23.75 21.57-22.22Q24.43-20.68 25.87-18.02Q27.30-15.36 27.30-11.95L27.30-11.95L27.30-9.17L7.68-9.17Q8.30-4.03 16.60-4.03L16.60-4.03Q18.81-4.03 21.11-4.41Q23.42-4.80 25.15-5.47L25.15-5.47L25.15-0.82Q23.51-0.14 20.95 0.29Q18.38 0.72 15.84 0.72L15.84 0.72ZM7.68-13.29L21.59-13.29Q21.50-16.03 19.65-17.52Q17.80-19.00 14.59-19.00L14.59-19.00Q11.42-19.00 9.60-17.47Q7.77-15.93 7.68-13.29L7.68-13.29Z" transform="translate(-1.9194881364969343, 34.26286323647028)"></path></g></g><g transform="translate(97, 0)"><g data-gra="path-name" fill="#333" transform="scale(1)"><path d="M15.84 0.72Q9.41 0.72 5.66-2.50Q1.92-5.71 1.92-11.47L1.92-11.47Q1.92-17.13 5.23-20.44Q8.54-23.75 14.68-23.75L14.68-23.75Q18.72-23.75 21.57-22.22Q24.43-20.68 25.87-18.02Q27.30-15.36 27.30-11.95L27.30-11.95L27.30-9.17L7.68-9.17Q8.30-4.03 16.60-4.03L16.60-4.03Q18.81-4.03 21.11-4.41Q23.42-4.80 25.15-5.47L25.15-5.47L25.15-0.82Q23.51-0.14 20.95 0.29Q18.38 0.72 15.84 0.72L15.84 0.72ZM7.68-13.29L21.59-13.29Q21.50-16.03 19.65-17.52Q17.80-19.00 14.59-19.00L14.59-19.00Q11.42-19.00 9.60-17.47Q7.77-15.93 7.68-13.29L7.68-13.29Z" transform="translate(-1.9194881364969343, 34.26286323647028)"></path></g></g><g transform="translate(126, 0)"><g data-gra="path-name" fill="#333" transform="scale(1)"><path d="M2.88 0L2.88-23.03L8.73-23.03L8.73-19.91Q10.37-21.88 12.62-22.82Q14.88-23.75 17.37-23.75L17.37-23.75Q22.03-23.75 24.33-21.23Q26.63-18.72 26.63-14.54L26.63-14.54L26.63 0L20.59 0L20.59-13.96Q20.59-19.00 15.88-19.00L15.88-19.00Q13.82-19.00 12.00-18.02Q10.17-17.04 8.93-15.07L8.93-15.07L8.93 0L2.88 0Z" transform="translate(-2.8792322047454015, 34.26286323647028)"></path></g></g><g transform="translate(153, 0)"><g data-gra="path-name" fill="#333" transform="scale(1)"><path d="M11.85 0.72Q9.36 0.72 6.53 0.14Q3.70-0.43 2.11-1.44L2.11-1.44L2.11-6.57Q3.98-5.42 6.57-4.73Q9.17-4.03 11.47-4.03L11.47-4.03Q13.77-4.03 14.83-4.44Q15.88-4.85 15.88-5.95L15.88-5.95Q15.88-6.81 15.33-7.37Q14.78-7.92 13.56-8.37Q12.33-8.83 9.79-9.50L9.79-9.50Q6.91-10.32 5.25-11.18Q3.60-12.04 2.76-13.36Q1.92-14.68 1.92-16.80L1.92-16.80Q1.92-20.25 4.65-22.00Q7.39-23.75 12.04-23.75L12.04-23.75Q14.44-23.75 16.82-23.30Q19.19-22.84 20.54-22.03L20.54-22.03L20.54-17.08Q19.10-17.95 17.04-18.48Q14.97-19.00 12.81-19.00L12.81-19.00Q10.46-19.00 9.26-18.55Q8.06-18.09 8.06-16.80L8.06-16.80Q8.06-15.93 8.71-15.43Q9.36-14.92 10.41-14.56Q11.47-14.20 14.25-13.48L14.25-13.48Q17.23-12.67 18.91-11.71Q20.59-10.75 21.31-9.41Q22.03-8.06 22.03-6.05L22.03-6.05Q22.03-2.98 19.41-1.13Q16.80 0.72 11.85 0.72L11.85 0.72Z" transform="translate(-1.9194881364969345, 34.26286323647028)"></path></g></g></g><g data-gra="path-slogan" fill-rule="" class="tp-slogan" fill="#333" transform="translate(5,40.97999954223633)"><rect x="0" height="1" y="3.580000400543213" width="58.40500068664551"></rect><rect height="1" y="3.580000400543213" width="58.40500068664551" x="104.70499992370605"></rect><g transform="translate(61.40500068664551,0)"><g transform="scale(1)"><path d="M1.08-7.87L1.08 0L2.08 0L2.08-2.50L3.43-4.09L5.78 0L6.90 0L4.06-4.87L6.52-7.87L5.39-7.87L2.11-3.92L2.08-3.92L2.08-7.87ZM8.03-7.87L8.03 0L9.02 0L9.02-7.87ZM11.21-1.72L10.61-1.02C10.95-0.66 11.36-0.38 11.83-0.17C12.30 0.04 12.82 0.14 13.37 0.14C13.78 0.14 14.16 0.09 14.48-0.03C14.81-0.15 15.09-0.31 15.32-0.51C15.56-0.71 15.73-0.95 15.86-1.22C15.98-1.50 16.04-1.79 16.04-2.10C16.04-2.39 16.00-2.64 15.92-2.86C15.83-3.08 15.72-3.27 15.58-3.44C15.43-3.60 15.26-3.75 15.06-3.87C14.86-3.99 14.65-4.10 14.42-4.20L13.31-4.68C13.15-4.74 12.99-4.81 12.84-4.89C12.69-4.97 12.55-5.05 12.42-5.15C12.29-5.25 12.19-5.37 12.11-5.50C12.04-5.63 12.00-5.80 12.00-5.99C12.00-6.35 12.13-6.63 12.40-6.83C12.67-7.04 13.02-7.14 13.46-7.14C13.83-7.14 14.16-7.07 14.45-6.94C14.75-6.81 15.01-6.63 15.25-6.40L15.79-7.04C15.51-7.33 15.17-7.57 14.77-7.75C14.37-7.93 13.94-8.02 13.46-8.02C13.10-8.02 12.77-7.96 12.47-7.86C12.17-7.76 11.91-7.61 11.69-7.42C11.47-7.23 11.30-7.01 11.18-6.76C11.05-6.50 10.99-6.22 10.99-5.93C10.99-5.64 11.04-5.39 11.14-5.17C11.23-4.95 11.36-4.76 11.51-4.60C11.66-4.44 11.83-4.30 12.02-4.19C12.22-4.08 12.40-3.98 12.59-3.90L13.72-3.41C13.90-3.32 14.07-3.24 14.23-3.16C14.39-3.08 14.53-2.99 14.65-2.89C14.76-2.79 14.85-2.67 14.92-2.53C14.99-2.39 15.02-2.22 15.02-2.02C15.02-1.63 14.88-1.32 14.59-1.09C14.30-0.85 13.90-0.73 13.38-0.73C12.97-0.73 12.58-0.82 12.20-1.00C11.82-1.18 11.49-1.42 11.21-1.72ZM17.59-7.87L17.59 0L18.59 0L18.59-7.87ZM19.67-7.87L22.19 0L23.35 0L25.85-7.87L24.83-7.87L23.57-3.62C23.43-3.15 23.31-2.72 23.20-2.32C23.08-1.92 22.96-1.48 22.81-1.02L22.76-1.02C22.61-1.48 22.48-1.92 22.37-2.32C22.27-2.72 22.14-3.15 22.00-3.62L20.74-7.87ZM26.77-7.87L26.77-3.25C26.77-2.62 26.84-2.09 26.99-1.66C27.13-1.22 27.33-0.87 27.58-0.61C27.83-0.34 28.13-0.15 28.48-0.03C28.83 0.09 29.20 0.14 29.60 0.14C30.00 0.14 30.38 0.09 30.72-0.03C31.06-0.15 31.36-0.34 31.61-0.61C31.87-0.87 32.06-1.22 32.21-1.66C32.35-2.09 32.42-2.62 32.42-3.25L32.42-7.87L31.46-7.87L31.46-3.23C31.46-2.76 31.42-2.36 31.32-2.04C31.22-1.72 31.09-1.46 30.92-1.27C30.76-1.08 30.56-0.94 30.34-0.86C30.11-0.77 29.87-0.73 29.60-0.73C29.35-0.73 29.11-0.77 28.88-0.86C28.66-0.94 28.47-1.08 28.30-1.27C28.14-1.46 28.01-1.72 27.91-2.04C27.82-2.36 27.77-2.76 27.77-3.23L27.77-7.87ZM34.55-7.87L34.55 0L38.99 0L38.99-0.85L35.54-0.85L35.54-7.87ZM40.38-7.87L40.38 0L41.38 0L41.38-7.87Z" transform="translate(-1.08, 8.016)"></path></g></g></g></g><defs v-gra="od"></defs></svg>