<svg data-v-70b83f88="" version="1.0" xmlns="http://www.w3.org/2000/svg" xmlns:xlink="http://www.w3.org/1999/xlink" viewBox="0 0 340.000000 250.000000" preserveAspectRatio="xMidYMid meet" color-interpolation-filters="sRGB" style="margin: auto;"><rect data-v-70b83f88="" x="0" y="0" width="100%" height="100%" fill="#edeae2" fill-opacity="1" class="background"></rect><rect data-v-70b83f88="" x="0" y="0" width="100%" height="100%" fill="url(#watermark)" fill-opacity="1" class="watermarklayer"></rect><g data-v-70b83f88="" fill="#a04732" class="endsvg" transform="translate(109.51459503173828,96.38281631469727)"><!----><!----><!----><!----><g class="tp-name"><g><rect data-gra="graph-name-bg" stroke-width="2" class="i-icon-bg" x="0" y="0" width="120.97080993652344" height="57.23436737060547" fill-opacity="0"></rect><!----><!----></g><g transform="translate(0,0)"><g data-gra="path-name-bg" mask="url(#9337cb6b-bc07-43b6-a6d6-fb37809d9568)"><g><rect data-gra="graph-name-bg" stroke-width="2" class="i-icon-bg" x="0" y="0" width="120.9708023071289" height="30.119998931884766" fill="#a04732"></rect><!----><!----></g><g transform="translate(5,5)"><g data-gra="path-name" fill="#a04732"><g transform="scale(1)"><path d="M10.80-19.78C4.27-19.78 0.98-15.12 0.92-9.93C0.86-4.55 4.16 0.20 10.80 0.20C13.56 0.20 15.84-0.67 17.43-2.06L19.89 0.28L20.84-0.70L18.36-3.10C19.86-4.94 20.64-7.39 20.64-9.76C20.67-15.09 17.38-19.78 10.80-19.78ZM10.80-18.36C16.37-18.36 19.16-14.37 19.16-9.76C19.16-5.27 16.37-1.23 10.80-1.23C5.13-1.23 2.34-5.30 2.40-9.93C2.40-14.70 5.83-18.36 10.80-18.36ZM37.05-19.53L37.05-7.39C37.05 0.98 25.05 1.00 25.05-7.39L25.05-19.53L23.57-19.53L23.57-7.39C23.57 2.85 38.52 2.82 38.52-7.39L38.52-19.53ZM44.10-18.10L56.10-18.10L56.10-19.53L42.62-19.53L42.62 0L56.43 0L56.43-1.45L44.10-1.45L44.10-9.15L55.54-9.15L55.54-10.52L44.10-10.52ZM61.23-18.10L73.23-18.10L73.23-19.53L59.75-19.53L59.75 0L73.56 0L73.56-1.45L61.23-1.45L61.23-9.15L72.67-9.15L72.67-10.52L61.23-10.52ZM77.49-19.53L77.49 0L79.00 0L79.00-16.12L92.17 0L92.75 0L92.75-19.53L91.27-19.53L91.27-3.38L78.14-19.53ZM111.30-16.49C109.38-19.36 106.95-19.81 104.16-19.81C100.95-19.81 96.66-18.52 96.74-14.39C96.74-10.80 100.40-10.07 103.97-9.37C107.18-8.76 110.41-8.12 110.38-5.19C110.38-1.73 106.56-1.06 104.16-1.06C101.76-1.06 98.69-2.23 97.50-4.60L96.16-3.93C97.66-0.95 101.12 0.31 104.16 0.31C107.43 0.31 111.86-0.75 111.89-5.16C111.89-9.37 107.98-10.04 104.22-10.77C100.93-11.38 98.25-11.97 98.25-14.45C98.25-17.57 101.88-18.41 104.16-18.41C106.37-18.38 108.65-18.05 110.08-15.76Z" transform="translate(-0.9198605215281993, 20.196482716798062)"></path></g></g></g></g><g data-gra="path-name-1-bg" transform="translate(0, 35.119998931884766) scale(1.0681455630951437)"><g><rect data-gra="graph-name-bg" stroke-width="2" class="i-icon-bg" x="0" y="0" width="113.25" height="20.70351791381836" fill-opacity="0"></rect><!----><!----></g><g transform="translate(0,0)"><g data-gra="path-name-1" fill="#a04732"><g transform="scale(1)"><path d="M17.04-19.53L12.47-19.53L5.05-11.27L5.05-19.53L1.37-19.53L1.37 0L5.05 0L5.05-8.65L13.22 0L17.77 0L17.77-0.22L8.37-10.07L17.04-19.42ZM23.32 0L23.32-19.53L19.67-19.53L19.67 0ZM42.32-16.32C40.84-19.33 37.69-20.20 34.65-20.20C31.05-20.17 27.09-18.52 27.09-14.51C27.09-10.13 30.77-9.07 34.76-8.59C37.35-8.31 39.28-7.56 39.28-5.72C39.28-3.60 37.10-2.79 34.79-2.79C32.41-2.79 30.16-3.74 29.29-5.89L26.22-4.30C27.67-0.73 30.74 0.50 34.73 0.50C39.08 0.50 42.93-1.37 42.93-5.72C42.93-10.38 39.14-11.44 35.06-11.94C32.72-12.22 30.71-12.69 30.71-14.39C30.71-15.84 32.02-16.99 34.76-16.99C36.88-16.99 38.72-15.93 39.39-14.81ZM49.46 0L49.46-19.53L45.80-19.53L45.80 0ZM71.64-19.53L67.51-19.53L61.59-4.32L55.71-19.53L51.58-19.53L59.70 0.08L63.52 0.08ZM87.37-19.50L87.37-8.31C87.37-4.97 85.64-2.93 82.60-2.93C79.56-2.93 77.55-4.80 77.55-8.31L77.55-19.50L73.90-19.50L73.90-8.31C73.90-2.43 77.88 0.42 82.57 0.42C87.48 0.42 91.02-2.54 91.02-8.31L91.02-19.50ZM94.62-19.53L94.62 0L108.35 0L108.35-3.40L98.30-3.40L98.30-19.53ZM114.62 0L114.62-19.53L110.97-19.53L110.97 0Z" transform="translate(-1.3668890236506974, 20.196482716798062)"></path></g></g></g></g></g></g><!----><!----></g><mask id="9337cb6b-bc07-43b6-a6d6-fb37809d9568"><g fill="white"><rect data-gra="graph-name-bg" stroke-width="2" class="i-icon-bg" x="0" y="0" width="120.9708023071289" height="30.119998931884766"></rect></g><g transform="translate(5,5)" fill="black"><g data-gra="path-name"><g transform="scale(1)"><path d="M10.80-19.78C4.27-19.78 0.98-15.12 0.92-9.93C0.86-4.55 4.16 0.20 10.80 0.20C13.56 0.20 15.84-0.67 17.43-2.06L19.89 0.28L20.84-0.70L18.36-3.10C19.86-4.94 20.64-7.39 20.64-9.76C20.67-15.09 17.38-19.78 10.80-19.78ZM10.80-18.36C16.37-18.36 19.16-14.37 19.16-9.76C19.16-5.27 16.37-1.23 10.80-1.23C5.13-1.23 2.34-5.30 2.40-9.93C2.40-14.70 5.83-18.36 10.80-18.36ZM37.05-19.53L37.05-7.39C37.05 0.98 25.05 1.00 25.05-7.39L25.05-19.53L23.57-19.53L23.57-7.39C23.57 2.85 38.52 2.82 38.52-7.39L38.52-19.53ZM44.10-18.10L56.10-18.10L56.10-19.53L42.62-19.53L42.62 0L56.43 0L56.43-1.45L44.10-1.45L44.10-9.15L55.54-9.15L55.54-10.52L44.10-10.52ZM61.23-18.10L73.23-18.10L73.23-19.53L59.75-19.53L59.75 0L73.56 0L73.56-1.45L61.23-1.45L61.23-9.15L72.67-9.15L72.67-10.52L61.23-10.52ZM77.49-19.53L77.49 0L79.00 0L79.00-16.12L92.17 0L92.75 0L92.75-19.53L91.27-19.53L91.27-3.38L78.14-19.53ZM111.30-16.49C109.38-19.36 106.95-19.81 104.16-19.81C100.95-19.81 96.66-18.52 96.74-14.39C96.74-10.80 100.40-10.07 103.97-9.37C107.18-8.76 110.41-8.12 110.38-5.19C110.38-1.73 106.56-1.06 104.16-1.06C101.76-1.06 98.69-2.23 97.50-4.60L96.16-3.93C97.66-0.95 101.12 0.31 104.16 0.31C107.43 0.31 111.86-0.75 111.89-5.16C111.89-9.37 107.98-10.04 104.22-10.77C100.93-11.38 98.25-11.97 98.25-14.45C98.25-17.57 101.88-18.41 104.16-18.41C106.37-18.38 108.65-18.05 110.08-15.76Z" transform="translate(-0.9198605215281993, 20.196482716798062)"></path></g></g></g></mask><defs v-gra="od"></defs></svg>