<svg x="0" y="0" width="60" height="59.948444337869425" filtersec="colorsb4221032842" class="image-svg-svg primary" style="overflow: visible;"><svg xmlns="http://www.w3.org/2000/svg" viewBox="-0.004477844573557377 -6.30476160168314e-9 97.16532897949219 97.08152770996094"><title>资源 157</title><path d="M73.14 34.05l-8.93-2.37q-19.42-5.2-38.83-10.44a1.83 1.83 0 0 0-2.05.6Q12.53 32.69 1.69 43.5c-.44.44-.79 1-1.45 1.23-.36-.38-.21-.81-.21-1.2C0 29.6.06 15.67 0 1.75 0 .28.47 0 1.82 0Q20 .08 38.17 0a3 3 0 0 1 2.28 1.05L70.36 31a16.79 16.79 0 0 1 2.78 3.05z" fill="#e3444b"></path><path d="M34 24.19l-2 7.33q-5.37 20-10.75 39.91A2.25 2.25 0 0 0 22 74q11.1 11 22.09 22c.25.25.63.42.62.88-.36.31-.79.17-1.18.17H1.74C.27 97.11 0 96.65 0 95.29V59.07a3 3 0 0 1 .92-2.33Q16.83 40.91 32.67 25c.35-.35.72-.67 1.08-1zM63.09 73c.78-3 1.55-5.85 2.33-8.75q5.19-19.35 10.4-38.7a2 2 0 0 0-.56-2.19Q64.39 12.53 53.58 1.69c-.29-.3-.59-.59-.88-.9-.45-.48-.29-.72.3-.79h42.63c1.07 0 1.45.26 1.44 1.39q-.06 18.39 0 36.77a2.83 2.83 0 0 1-.93 2.19q-15.94 15.9-31.82 31.8c-.32.32-.57.76-1.23.85z" fill="#e3444b"></path><path d="M24.18 63.1l16.58 4.45c10.17 2.73 20.34 5.45 30.5 8.21A2.47 2.47 0 0 0 74 75q10.92-11 21.88-21.88c.27-.26.5-.8 1-.58s.18.67.18 1v42.21c0 1.08-.34 1.31-1.35 1.31H58.8a2.38 2.38 0 0 1-1.8-.7Q40.72 80.1 24.47 63.86a.71.71 0 0 1-.29-.76z" fill="#e3444b"></path><path d="M62.45 41.07c-.7 2.61-1.36 5.12-2 7.63-1.08 4.07-2.21 8.13-3.23 12.21-.32 1.27-.72 1.74-2.17 1.33-6.42-1.79-12.88-3.45-19.32-5.15-.84-.22-1.23-.6-1-1.59q2.76-10.05 5.42-20.12c.19-.72.57-.86 1.22-.69l20.26 5.45c.56.15.98.35.82.93z" fill="#52cdc6"></path></svg></svg>