<svg data-v-70b83f88="" version="1.0" xmlns="http://www.w3.org/2000/svg" xmlns:xlink="http://www.w3.org/1999/xlink" viewBox="0 0 340.000000 250.000000" preserveAspectRatio="xMidYMid meet" color-interpolation-filters="sRGB" style="margin: auto;"><rect data-v-70b83f88="" x="0" y="0" width="100%" height="100%" fill="#24059d" fill-opacity="1" class="background"></rect><rect data-v-70b83f88="" x="0" y="0" width="100%" height="100%" fill="url(#watermark)" fill-opacity="1" class="watermarklayer"></rect><g data-v-70b83f88="" fill="#ffdf6b" class="iconlinesvg-g iconlinesvg" transform="translate(50.09384155298304,65.98697662353516)"><g class="tp-name" transform="translate(0,0)"><g transform="translate(0, 0)"><g><g class="imagesvg"><g><rect fill="#ffdf6b" fill-opacity="0" stroke-width="2" x="0" y="0" width="73.77735849056603" height="102.87003233531705" class="image-rect"></rect><svg filter="url(#colors1674469130)" x="0" y="0" width="73.77735849056603" height="102.87003233531705" filtersec="colorsf3089639894" class="image-svg-svg primary" style="overflow: visible;"><svg xmlns="http://www.w3.org/2000/svg" xmlns:xlink="http://www.w3.org/1999/xlink" viewBox="0.0016040802001953125 -0.000156402587890625 34.54001235961914 48.15999984741211"><path transform="translate(-4.029035205668163 43.83984375)" d="M31.15-1.79L29.60-4.32C34.49-9.11 37.27-15.57 38.21-21.83C39.48-30.13 37.55-39.13 29.95-42.61C28.23-43.42 26.30-43.84 24.12-43.84C15.71-43.84 5.94-38.71 4.46-29.78C3.69-24.57 7.07-21.62 11.53-20.25C12.41-20.04 13.29-19.93 14.10-19.93C15.82-19.93 17.86-21.09 17.47-22.32C17.02-23.73 15.68-23.27 16.14-27.07C16.59-30.06 18.84-35.02 22.43-35.47C28.05-35.47 28.05-27.04 27.46-22.85L27.42-22.54C26.93-19.20 25.91-16.10 24.29-13.18L23.17-15.08C22.64-15.96 22.01-16.31 21.30-16.31C19.30-16.31 17.12-13.11 18.18-10.72L19.41-7.98C18.60-7.52 17.19-7.00 16.24-7.00C13.01-7.00 12.59-11.50 12.97-14.03C13.18-15.61 13.85-17.09 14.80-18.18C15.05-18.42 15.15-18.70 15.01-18.77C14.17-19.23 13.08-19.27 12.09-19.27C6.40-19.27 4.54-14.73 4.08-9.81C3.41-2.60 9.67 1.62 16.21 1.62C18.49 1.62 20.92 1.16 23.03 0.21L23.59 1.41C24.57 3.52 25.95 4.32 27.25 4.32C30.02 4.32 32.59 0.77 31.15-1.79Z"></path></svg></svg><defs><filter id="colors1674469130"><feColorMatrix type="matrix" values="0 0 0 0 0.99609375  0 0 0 0 0.4765625  0 0 0 0 0.796875  0 0 0 1 0" class="icon-fecolormatrix"></feColorMatrix></filter><filter id="colorsf3089639894"><feColorMatrix type="matrix" values="0 0 0 0 0.99609375  0 0 0 0 0.99609375  0 0 0 0 0.99609375  0 0 0 1 0" class="icon-fecolormatrix"></feColorMatrix></filter><filter id="colorsb9112436233"><feColorMatrix type="matrix" values="0 0 0 0 0  0 0 0 0 0  0 0 0 0 0  0 0 0 1 0" class="icon-fecolormatrix"></feColorMatrix></filter></defs></g></g></g></g><g transform="translate(77, 25.785016167658526)"><g data-gra="path-name" fill="#ffdf6b" transform="scale(1)"><path d="M13.14-30.72C13.14-30.72 10.50-18.24 12.54-13.26C14.58-8.28 20.10-10.44 21-13.98C22.26-19.32 21.78-30.72 21.78-30.72L31.44-31.74L32.34 0.48L22.44-0.30L22.62-4.80C22.62-4.80 15.72 2.82 7.14-1.02C-1.92-5.16 2.04-31.62 2.04-31.62Z" transform="translate(-1.17847045162257, 45.3)"></path></g></g><g transform="translate(112, 25.785016167658526)"><g data-gra="path-name" fill="#ffdf6b" transform="scale(1)"><path d="M31.62-17.46C31.62-17.46 28.38-35.76 12.18-30.96C-0.84-27.12 0.66-14.40 2.22-10.32C6.18 0.06 20.76 5.94 30.54-6.72L23.16-11.64C23.16-11.64 16.32-4.98 11.70-12.72ZM15-24.60C19.26-26.10 21.06-22.02 21.06-22.02L11.82-19.68C11.82-19.68 10.74-23.16 15-24.60Z" transform="translate(-1.2143908542148767, 45.3)"></path></g></g><g transform="translate(146, 25.785016167658526)"><g data-gra="path-name" fill="#ffdf6b" transform="scale(1)"><path d="M31.62-17.46C31.62-17.46 28.38-35.76 12.18-30.96C-0.84-27.12 0.66-14.40 2.22-10.32C6.18 0.06 20.76 5.94 30.54-6.72L23.16-11.64C23.16-11.64 16.32-4.98 11.70-12.72ZM15-24.60C19.26-26.10 21.06-22.02 21.06-22.02L11.82-19.68C11.82-19.68 10.74-23.16 15-24.60Z" transform="translate(-1.2143908542148767, 45.3)"></path></g></g><g transform="translate(180, 25.785016167658526)"><g data-gra="path-name" fill="#ffdf6b" transform="scale(1)"><path d="M1.62-0.06L1.20-31.26L11.70-31.98L11.70-29.70C11.70-29.70 16.08-33.66 22.86-32.58C37.80-30.12 31.74-1.20 31.74-1.20L21-2.70C21-2.70 24.24-26.88 16.08-24.54C7.92-22.20 11.82-1.20 11.82-1.20Z" transform="translate(-1.2, 45.3)"></path></g></g><g transform="translate(215, 25.785016167658526)"><g data-gra="path-name" fill="#ffdf6b" transform="scale(1)"><path d="M21.12-31.20C21.12-31.20 8.34-35.04 2.94-27.30C-0.72-22.08 2.10-17.22 5.28-14.88C9.96-11.40 17.64-14.52 16.86-10.74C16.38-8.52 12.42-7.62 7.02-10.32L3.54-2.16C3.54-2.16 16.56 3.54 23.28-3.42C29.40-9.90 24.42-20.16 16.86-19.98C12.24-19.80 10.74-20.40 10.92-22.68C11.10-24.96 16.26-24.84 19.56-23.46Z" transform="translate(-1.2132656956822845, 45.3)"></path></g></g></g><g data-gra="path-slogan" fill-rule="" class="tp-slogan" fill="#ff7acc" transform="translate(5,109.87003326416016)"><rect x="0" height="1" y="3.580000400543213" width="74.25616073608398"></rect><rect height="1" y="3.580000400543213" width="74.25616073608398" x="155.55615615844727"></rect><g transform="translate(77.25616073608398,0)"><g transform="scale(1)"><path d="M1.08 0L1.08-7.87L2.08-7.87L2.08-3.92L2.11-3.92L5.39-7.87L6.52-7.87L4.06-4.87L6.90 0L5.78 0L3.43-4.09L2.08-2.50L2.08 0L1.08 0ZM13.03 0L13.03-7.87L14.02-7.87L14.02 0L13.03 0ZM20.61-1.02L21.21-1.72Q21.63-1.27 22.20-1.00Q22.77-0.73 23.38-0.73L23.38-0.73Q24.16-0.73 24.59-1.09Q25.02-1.44 25.02-2.02L25.02-2.02Q25.02-2.32 24.92-2.53Q24.82-2.74 24.65-2.89Q24.47-3.04 24.23-3.16Q23.99-3.28 23.72-3.41L23.72-3.41L22.59-3.90Q22.31-4.02 22.02-4.19Q21.74-4.36 21.51-4.60Q21.28-4.84 21.14-5.17Q20.99-5.50 20.99-5.93L20.99-5.93Q20.99-6.37 21.18-6.76Q21.36-7.14 21.69-7.42Q22.02-7.70 22.47-7.86Q22.92-8.02 23.46-8.02L23.46-8.02Q24.17-8.02 24.77-7.75Q25.37-7.48 25.79-7.04L25.79-7.04L25.25-6.40Q24.89-6.74 24.45-6.94Q24.02-7.14 23.46-7.14L23.46-7.14Q22.80-7.14 22.40-6.83Q22-6.53 22-5.99L22-5.99Q22-5.70 22.11-5.50Q22.23-5.30 22.42-5.15Q22.61-5.00 22.84-4.89Q23.07-4.78 23.31-4.68L23.31-4.68L24.42-4.20Q24.76-4.06 25.06-3.87Q25.36-3.68 25.58-3.44Q25.79-3.19 25.92-2.86Q26.04-2.53 26.04-2.10L26.04-2.10Q26.04-1.63 25.86-1.22Q25.67-0.82 25.32-0.51Q24.98-0.20 24.48-0.03Q23.99 0.14 23.37 0.14L23.37 0.14Q22.54 0.14 21.83-0.17Q21.12-0.48 20.61-1.02L20.61-1.02ZM32.59 0L32.59-7.87L33.59-7.87L33.59 0L32.59 0ZM42.19 0L39.67-7.87L40.74-7.87L42.00-3.62Q42.21-2.92 42.37-2.32Q42.54-1.72 42.76-1.02L42.76-1.02L42.81-1.02Q43.03-1.72 43.20-2.32Q43.36-2.92 43.57-3.62L43.57-3.62L44.83-7.87L45.85-7.87L43.35 0L42.19 0ZM51.77-3.25L51.77-7.87L52.77-7.87L52.77-3.23Q52.77-2.52 52.91-2.04Q53.06-1.56 53.30-1.27Q53.55-0.98 53.88-0.86Q54.22-0.73 54.60-0.73L54.60-0.73Q55-0.73 55.34-0.86Q55.67-0.98 55.92-1.27Q56.18-1.56 56.32-2.04Q56.46-2.52 56.46-3.23L56.46-3.23L56.46-7.87L57.42-7.87L57.42-3.25Q57.42-2.30 57.21-1.66Q56.99-1.01 56.61-0.61Q56.24-0.20 55.72-0.03Q55.20 0.14 54.60 0.14L54.60 0.14Q54.00 0.14 53.48-0.03Q52.96-0.20 52.58-0.61Q52.20-1.01 51.99-1.66Q51.77-2.30 51.77-3.25L51.77-3.25ZM64.55 0L64.55-7.87L65.54-7.87L65.54-0.85L68.99-0.85L68.99 0L64.55 0ZM75.38 0L75.38-7.87L76.38-7.87L76.38 0L75.38 0Z" transform="translate(-1.08, 8.016)"></path></g></g></g></g><defs v-gra="od"></defs></svg>