<svg data-v-70b83f88="" version="1.0" xmlns="http://www.w3.org/2000/svg" xmlns:xlink="http://www.w3.org/1999/xlink" viewBox="0 0 340.000000 250.000000" preserveAspectRatio="xMidYMid meet" color-interpolation-filters="sRGB" style="margin: auto;"><rect data-v-70b83f88="" x="0" y="0" width="100%" height="100%" fill="#ffffff" fill-opacity="1" class="background"></rect><rect data-v-70b83f88="" x="0" y="0" width="100%" height="100%" fill="url(#watermark)" fill-opacity="1" class="watermarklayer"></rect><g data-v-70b83f88="" class="iconmbgsvg" transform="translate(81.3545760512352,77.5860595703125)"><g fill="#000000" hollow-target="textNormalTran"><g opacity="0.55" transform="translate(32.395423889160156,0)"><g><rect fill="#000000" fill-opacity="0" stroke-width="2" x="0" y="0" width="112.5" height="94.82787686705552" class="image-rect"></rect><svg x="0" y="0" width="112.5" height="94.82787686705552" filtersec="colorsb3145447048" class="image-svg-svg primary" style="overflow: visible;"><svg xmlns="http://www.w3.org/2000/svg" viewBox="-0.023669390007853508 -0.000014185905456542969 163.51258850097656 137.82725524902344"><g fill-rule="evenodd"><path d="M67.27 119q-14.1-14.44-28.08-28.59-13.83-14-27.64-27.71C4.5 55.64.71 48 .09 40.82A21.43 21.43 0 0 1 6.73 23q6.81 10.69 13.86 21.81Q27.81 56.12 35.32 68c5.07 8 10.27 16.2 15.53 24.6 5.36 8.56 10.86 17.4 16.42 26.4z" fill="#aed812"></path><path d="M158.89 93.12q-6.28 7.35-13.38 15.69c-5.06 5.92-10.45 12.31-16.23 19.12-4.79 5.63-11.68 8.89-19.58 9.7-8.25.84-17.39-1-26-5.58 8.25-4.3 16-8.33 23.41-12.18L127 109.55q9-4.65 17.07-8.81c5.16-2.66 10.13-5.22 14.83-7.62z" fill="#30c2ef"></path><path d="M111.13 17.1c6.29 6 12.64 12 19 18s12.77 12.28 19.17 18.46a50.67 50.67 0 0 1 11.21 15.54C163 74.52 164 80 163.24 84.62c-4.69-6.11-9.33-12.12-13.86-18.05S140.47 55 136.1 49.33s-8.55-11.08-12.75-16.49-8.21-10.57-12.22-15.74z" fill="#f7634b"></path><path d="M19.6 16.21l25-8.27 20.9-6.79c4.86-1.57 10.82-1.47 17-.08a59.32 59.32 0 0 1 17.9 7.5c-5.3.47-10.79 1-16.49 1.51-6 .54-12.16 1.13-18.64 1.74l-21.21 2c-7.77.74-15.89 1.54-24.46 2.39z" fill="#f9ab4e"></path><path d="M50.65 88.1c-4.24-8.23-8.35-16.29-12.4-24.1-3.94-7.63-7.84-15.1-11.63-22.4-5.7-11-1.56-20.43 8.35-24.15l7.28 32.39c2.65 12 5.47 24.76 8.4 38.28z" fill="#aed812"></path><path d="M139.45 99.94L121 106.45c-6.7 2.38-13.81 4.91-21.26 7.54-12.35 4.4-28.37-.46-39.22-11.21 15.54-.58 30-1.16 43.47-1.63 12.6-.45 24.42-.83 35.51-1.21z" fill="#30c2ef"></path><path d="M123.25 35.8c3.67 5.43 7.42 11 11.2 16.59s7.79 11.55 11.75 17.48c6.36 9.47 7.06 19.38 2.11 25.13-4.62-11-9.09-21.58-13.32-31.61-4.05-9.6-8-18.79-11.74-27.59z" fill="#f7634b"></path><path d="M48.27 15.65l21.36-.48c6.51-.15 12.83-.3 18.87-.41 9-.18 19.68 4.72 27.21 11.7q-14.65-2.34-31-5-17.16-2.78-36.47-5.81z" fill="#f9ab4e"></path><path d="M69.35 33.4c6.36-3.06 14.15-3 22-.74a53 53 0 0 1 21.78 12.57c6.4 6.11 10.41 13.1 11.7 19.55 1.39 6.73 0 13-5.06 17.45s-13.27 6.06-22 4.49a51.74 51.74 0 0 1-26.47-14c-7.68-7.55-11.57-15.92-11.71-23.26a16.84 16.84 0 0 1 9.77-16zm20.05 7.18c10.84 1.6 21.08 9.72 24.24 19.09S111.27 76.81 99.75 76s-24.12-10.6-26.6-20.8S78.58 39 89.4 40.58z" fill="#f7cf0b"></path></g></svg></svg><!----></g></g><g transform="translate(0,37.87394046783447)"><g data-gra="path-name" fill-rule="" class="tp-name"><g transform="scale(1)"><g><path d="M10.27-18.81C4.06-18.81 0.93-14.38 0.88-9.44 0.82-4.32 3.95 0.19 10.27 0.19 12.89 0.19 15.07-0.64 16.58-1.96L18.92 0.27 19.82-0.66 17.46-2.94C18.89-4.7 19.63-7.03 19.63-9.29 19.66-14.35 16.53-18.81 10.27-18.81ZM10.27-17.46C15.57-17.46 18.23-13.66 18.23-9.29 18.23-5.01 15.57-1.17 10.27-1.17 4.88-1.17 2.23-5.04 2.28-9.44 2.28-13.98 5.54-17.46 10.27-17.46ZM34.01 0L34.01-13.13 32.71-13.13 32.71-5.84C32.71-3.13 30.83-1.09 28.12-1.06 25.28-1.03 23.45-2.63 23.45-5.6L23.45-13.13 22.15-13.13 22.15-5.57C22.15-1.94 24.57 0.21 28.07 0.21 29.9 0.19 31.73-0.56 32.74-2.36L32.74 0ZM43.35 0.19C45.44 0.19 47.73-0.66 49-2.33L48.07-3.08C47.09-1.78 45.07-1.09 43.35-1.09 40.64-1.09 38.28-2.87 38.02-5.94L49.82-5.94C50.33-11.06 47.04-13.32 43.35-13.32 39.66-13.32 36.69-10.48 36.69-6.55 36.69-2.39 39.66 0.19 43.35 0.19ZM38.02-7.08C38.31-10.29 40.64-12.12 43.35-12.12 46.51-12.12 48.63-10.32 48.65-7.08ZM59.11 0.19C61.2 0.19 63.48-0.66 64.76-2.33L63.83-3.08C62.85-1.78 60.83-1.09 59.11-1.09 56.4-1.09 54.04-2.87 53.77-5.94L65.58-5.94C66.08-11.06 62.79-13.32 59.11-13.32 55.42-13.32 52.45-10.48 52.45-6.55 52.45-2.39 55.42 0.19 59.11 0.19ZM53.77-7.08C54.07-10.29 56.4-12.12 59.11-12.12 62.26-12.12 64.39-10.32 64.41-7.08ZM68.95-13.11L68.95 0 70.25 0 70.25-7.3C70.25-10 72.13-12.04 74.84-12.07 77.68-12.1 79.51-10.51 79.51-7.53L79.51 0 80.81 0 80.81-7.56C80.81-11.2 78.39-13.34 74.89-13.34 73.06-13.32 71.23-12.57 70.22-10.77L70.22-13.11ZM93.99-11.57C92.69-12.79 91.02-13.32 89.11-13.32 86.46-13.34 83.89-12.23 83.91-9.66 83.94-7.03 86.46-6.55 89.01-6.13 91.15-5.78 93.33-5.41 93.28-3.53 93.2-1.46 90.78-1.03 89.19-1.03 87.44-1.03 85.48-1.7 84.39-3.26L83.43-2.41C84.57-0.66 86.86 0.21 89.16 0.21 91.47 0.21 94.47-0.56 94.55-3.45 94.68-6.5 91.47-6.9 89.14-7.3 87.49-7.59 85.21-7.93 85.16-9.68 85.11-11.35 87.07-12.12 89.11-12.1 90.57-12.1 91.87-11.89 93.2-10.72ZM118.03-0.11L107.84-9.68 117.18-18.44 117.18-18.57 115.45-18.57 106.43-10.11 106.43-18.57 105-18.57 105-0.03 106.43-0.03 106.43-9.15 116.22 0 118.03 0ZM120.97-13.16L120.97 0 119.67 0 119.67-13.16ZM119.3-17.38C119.3-16 121.4-16 121.4-17.38 121.4-18.76 119.3-18.76 119.3-17.38ZM134.48-11.57C133.18-12.79 131.5-13.32 129.59-13.32 126.94-13.34 124.37-12.23 124.39-9.66 124.42-7.03 126.94-6.55 129.49-6.13 131.64-5.78 133.81-5.41 133.76-3.53 133.68-1.46 131.27-1.03 129.67-1.03 127.92-1.03 125.96-1.7 124.87-3.26L123.92-2.41C125.06-0.66 127.34 0.21 129.65 0.21 131.96 0.21 134.95-0.56 135.03-3.45 135.17-6.5 131.96-6.9 129.62-7.3 127.98-7.59 125.69-7.93 125.64-9.68 125.59-11.35 127.55-12.12 129.59-12.1 131.05-12.1 132.35-11.89 133.68-10.72ZM139.22-13.16L139.22 0 137.92 0 137.92-13.16ZM137.55-17.38C137.55-16 139.65-16 139.65-17.38 139.65-18.76 137.55-18.76 137.55-17.38ZM147.18 0L148.62 0 154.11-13.11 152.68-13.11 147.9-1.51 143.12-13.11 141.69-13.11ZM168.09 0L168.09-13.13 166.79-13.13 166.79-5.84C166.79-3.13 164.9-1.09 162.2-1.06 159.36-1.03 157.53-2.63 157.53-5.6L157.53-13.13 156.23-13.13 156.23-5.57C156.23-1.94 158.64 0.21 162.15 0.21 163.98 0.19 165.81-0.56 166.82-2.36L166.82 0ZM171.51-18.57L171.51 0 172.81 0 172.81-18.57ZM177.75-13.16L177.75 0 176.45 0 176.45-13.16ZM176.07-17.38C176.07-16 178.17-16 178.17-17.38 178.17-18.76 176.07-18.76 176.07-17.38Z" transform="translate(-0.8791536092758179, 18.809999465942383)"></path></g><!----><!----><!----><!----><!----><!----><!----></g></g><!----></g></g></g><defs v-gra="od"></defs></svg>