<svg data-v-70b83f88="" version="1.0" xmlns="http://www.w3.org/2000/svg" xmlns:xlink="http://www.w3.org/1999/xlink" viewBox="0 0 340.000000 250.000000" preserveAspectRatio="xMidYMid meet" color-interpolation-filters="sRGB" style="margin: auto;"><rect data-v-70b83f88="" x="0" y="0" width="100%" height="100%" fill="#ffffff" fill-opacity="1" class="background"></rect><rect data-v-70b83f88="" x="0" y="0" width="100%" height="100%" fill="url(#watermark)" fill-opacity="1" class="watermarklayer"></rect><g data-v-70b83f88="" class="iconmbgsvg" transform="translate(67.58499908447266,62.18404769897461)"><g fill="#333" hollow-target="text"><g transform="translate(39.41499710083008,0)" mask="url(#4132af07-d6c9-4d3a-b327-864990684ea0)"><g><rect fill="#333" fill-opacity="0" stroke-width="2" x="0" y="0" width="125.99999999999997" height="125.63189853728572" class="image-rect"></rect><svg x="0" y="0" width="125.99999999999997" height="125.63189853728572" filtersec="colorsb4195873206" class="image-svg-svg primary" style="overflow: visible;"><svg xmlns="http://www.w3.org/2000/svg" viewBox="-0.03024640865623951 -0.00176924467086792 115.79940032958984 115.46129608154297"><title>资源 27</title><path d="M57.76 64.3a17.74 17.74 0 0 1 12.1 4.9Q84.46 83 99.1 96.78c1.31 1.22 1.13 1.87 0 3a59.29 59.29 0 0 1-28.45 15.54c-1.45.34-2 .14-2.31-1.52-1.95-10.84-4.08-21.65-6-32.49-.31-1.69-.87-2.32-2.61-2a7.79 7.79 0 0 1-3.33 0c-2.26-.56-2.73.53-3.07 2.46-1.87 10.48-3.9 20.93-5.76 31.42-.34 1.88-.83 2.46-2.85 2a60 60 0 0 1-28-15.49c-1.34-1.29-1.15-2 .08-3.14C26.52 87.41 36.23 78.18 46 69a17.23 17.23 0 0 1 11.76-4.7z" fill="#333333"></path><path d="M48.62 38.44c.07.93-.53 1.27-1.09 1.65a31.6 31.6 0 0 0-3.62 2.59c-1.18 1.11-2 1.1-3.17 0-7.81-7.48-15.68-14.87-23.51-22.29-2-1.92-2-2.11 0-4A60.32 60.32 0 0 1 31 6.5c1.27-.66 2.13-.75 2.85.76Q41 22.41 48.24 37.51c.16.34.28.69.38.93zM58 .05c2.85-.2 5.64.32 8.46.52 1.77.13 2.42.74 2 2.71-2.08 10.73-4 21.49-6 32.24-.26 1.42-.78 2.16-2.33 2a25 25 0 0 0-3.12-.07c-3.45 0-3.24.76-4-3.14-2-10.3-3.83-20.62-5.81-30.92C47 1.54 47.51.7 49.36.57c2.89-.2 5.76-.74 8.64-.52zM83.51 6a10.92 10.92 0 0 1 1.14.48 62 62 0 0 1 14.26 10.25c1.3 1.27 1.44 2.12 0 3.43q-12.08 11.3-24 22.72c-.93.88-1.65 1-2.68.13a39 39 0 0 0-4-2.89c-1.11-.71-1.2-1.43-.64-2.6 4.75-9.94 9.44-19.91 14.17-29.86.39-.66.6-1.61 1.75-1.66zM35.41 55.77l-19.36-2.45c-4.35-.56-8.7-1.09-13-1.67C-.11 51.24-.24 51 .29 48a63.27 63.27 0 0 1 5-15.23C6.05 31 7 30.44 8.86 31.47Q23 39.27 37.28 46.92c1.55.83 2 1.71 1.17 3.37a20.07 20.07 0 0 0-1.29 4c-.29 1.18-.89 1.71-1.75 1.48zM0 67.47c-.23-1.61.89-1.86 2.06-2q7.08-.94 14.16-1.84c6-.77 12-1.47 17.93-2.31 1.81-.26 2.89.08 3.13 2a9.44 9.44 0 0 0 .59 2.14c1.41 3.65 1.83 3.17-2.08 5.29Q22.37 78.08 9 85.46c-1.38.76-2.49 1.29-3.44-.62A59.37 59.37 0 0 1 0 67.47zM80.37 55.89c-1 .12-1.42-.38-1.66-1.35a45.25 45.25 0 0 0-1.52-4.66 1.77 1.77 0 0 1 .89-2.57q14.72-8 29.4-16c1.25-.68 2-.42 2.68.86a62.77 62.77 0 0 1 5.54 16.92c.29 1.63-.33 2.35-1.9 2.55Q102.39 53 91 54.52zM80.44 61.32l26.75 3.42c2.29.29 4.57.63 6.86.91 1.42.17 1.9.92 1.66 2.29a64.17 64.17 0 0 1-5.59 17.13c-.84 1.7-1.89 1.23-3.1.57q-11.76-6.42-23.54-12.8c-1.76-1-3.49-2-5.29-2.89a1.87 1.87 0 0 1-1-2.72 36.64 36.64 0 0 0 1.53-4.65c.28-1.18.9-1.39 1.72-1.26z" fill="#FF0000"></path></svg></svg><!----></g><rect v-gra="id" width="138.00000762939453" height="137.63190460205078" transform="translate(-6, -6)" style="pointer-events:none;" fill="url(#nOcTY1jRZDZr5x8gK6Dyw)"></rect></g><g transform="translate(0,43.33595275878906)"><g data-gra="path-name" fill-rule="" class="tp-name" transform="translate(0,0)"><g transform="scale(1)"><g><path d="M12.06-18.93L12.06-18.93Q14.58-18.93 16.15-18.28 17.72-17.64 18.63-16.29L18.63-16.29Q19.22-15.38 19.54-14.23 19.87-13.09 19.87-11.59L19.87-11.59Q19.87-10.3 19.63-9.01 19.4-7.72 18.97-6.53 18.55-5.34 17.94-4.3 17.34-3.26 16.61-2.47L16.61-2.47Q14.85-0.53 12.12 0L12.12 0Q12.88 0.76 13.88 1.25 14.88 1.73 15.93 1.97L15.93 1.97Q14.61 2.93 13.59 3.7L13.59 3.7Q13.15 4.02 12.72 4.33 12.3 4.64 11.97 4.89 11.65 5.14 11.43 5.27 11.21 5.4 11.21 5.4L11.21 5.4Q10.27 4.81 9.58 4.11 8.89 3.4 8.41 2.69 7.92 1.97 7.62 1.31 7.31 0.65 7.13 0.15L7.13 0.15Q5.4 0 4.27-0.53 3.14-1.06 2.41-2L2.41-2Q1.76-2.82 1.39-4.08 1.03-5.34 1.03-7.25L1.03-7.25Q1.03-10.51 2.19-13.07 3.35-15.64 5.49-17.14L5.49-17.14Q6.78-18.05 8.36-18.49 9.95-18.93 12.06-18.93ZM8.75-1.82L8.75-1.82Q9.42-1.82 10.02-2.42 10.62-3.02 11.14-4.04 11.65-5.05 12.08-6.34 12.5-7.63 12.79-9.01 13.09-10.39 13.25-11.75 13.41-13.12 13.41-14.23L13.41-14.23Q13.41-15.76 13.1-16.33 12.79-16.9 12.21-16.9L12.21-16.9Q11.53-16.9 10.92-16.32 10.3-15.73 9.76-14.75 9.21-13.76 8.79-12.49 8.36-11.21 8.06-9.86 7.75-8.51 7.59-7.19 7.42-5.87 7.42-4.75L7.42-4.75Q7.42-3.08 7.79-2.45 8.16-1.82 8.75-1.82ZM29.08-3.49L31.05-12.62 37.03-12.62 34.33 0 29.58 0 29.05-1.88 28.88-1.88Q28.11-0.97 26.81-0.37 25.5 0.23 24.18 0.23L24.18 0.23Q22.42 0.23 21.42-0.66 20.42-1.56 20.42-2.99L20.42-2.99Q20.42-3.73 20.67-4.83 20.92-5.93 21.13-6.9L21.13-6.9 22.36-12.62 28.32-12.62 26.85-5.75Q26.79-5.52 26.73-5.19 26.68-4.87 26.62-4.56 26.56-4.26 26.51-3.98 26.47-3.7 26.47-3.52L26.47-3.52Q26.47-3.08 26.66-2.77 26.85-2.47 27.35-2.47L27.35-2.47Q27.88-2.47 28.35-2.82 28.82-3.17 29.08-3.49L29.08-3.49ZM51.91-5.9L43.67-5.9Q43.55-5.25 43.51-4.67 43.46-4.08 43.46-3.61L43.46-3.61Q43.46-3.35 43.49-3.02 43.52-2.7 43.62-2.42 43.73-2.14 43.92-1.95 44.11-1.76 44.46-1.76L44.46-1.76Q44.72-1.76 45.06-1.94 45.4-2.11 45.74-2.44 46.07-2.76 46.38-3.23 46.69-3.7 46.87-4.28L46.87-4.28 51.68-4.28 50.91-1.14Q50.33-0.76 49.56-0.5 48.8-0.23 47.95-0.07 47.1 0.09 46.22 0.16 45.34 0.23 44.55 0.23L44.55 0.23Q43.08 0.23 41.82-0.03 40.56-0.29 39.62-0.94 38.68-1.58 38.13-2.66 37.59-3.73 37.59-5.31L37.59-5.31Q37.59-6.75 38.05-8.13 38.5-9.51 39.57-10.58 40.64-11.65 42.45-12.3 44.25-12.94 46.95-12.94L46.95-12.94Q49.89-12.94 51.37-12.03 52.85-11.12 52.85-9.19L52.85-9.19Q52.85-8.39 52.62-7.47 52.38-6.54 51.91-5.9L51.91-5.9ZM47.57-9.39L47.57-9.39Q47.57-10.3 47.28-10.62 46.98-10.95 46.57-10.95L46.57-10.95Q46.1-10.95 45.71-10.64 45.31-10.33 44.99-9.82 44.66-9.3 44.4-8.64 44.14-7.98 43.96-7.25L43.96-7.25 47.31-7.25Q47.36-7.6 47.42-7.98L47.42-7.98Q47.48-8.3 47.53-8.69 47.57-9.07 47.57-9.39ZM67.96-5.9L59.72-5.9Q59.6-5.25 59.56-4.67 59.51-4.08 59.51-3.61L59.51-3.61Q59.51-3.35 59.54-3.02 59.57-2.7 59.67-2.42 59.78-2.14 59.97-1.95 60.16-1.76 60.51-1.76L60.51-1.76Q60.78-1.76 61.11-1.94 61.45-2.11 61.79-2.44 62.12-2.76 62.43-3.23 62.74-3.7 62.92-4.28L62.92-4.28 67.73-4.28 66.97-1.14Q66.38-0.76 65.62-0.5 64.85-0.23 64-0.07 63.15 0.09 62.27 0.16 61.39 0.23 60.6 0.23L60.6 0.23Q59.13 0.23 57.87-0.03 56.61-0.29 55.67-0.94 54.73-1.58 54.19-2.66 53.64-3.73 53.64-5.31L53.64-5.31Q53.64-6.75 54.1-8.13 54.55-9.51 55.62-10.58 56.7-11.65 58.5-12.3 60.31-12.94 63.01-12.94L63.01-12.94Q65.94-12.94 67.42-12.03 68.9-11.12 68.9-9.19L68.9-9.19Q68.9-8.39 68.67-7.47 68.43-6.54 67.96-5.9L67.96-5.9ZM63.62-9.39L63.62-9.39Q63.62-10.3 63.33-10.62 63.03-10.95 62.62-10.95L62.62-10.95Q62.15-10.95 61.76-10.64 61.36-10.33 61.04-9.82 60.72-9.3 60.45-8.64 60.19-7.98 60.01-7.25L60.01-7.25 63.36-7.25Q63.42-7.6 63.47-7.98L63.47-7.98Q63.53-8.3 63.58-8.69 63.62-9.07 63.62-9.39ZM77.06-10.74L77.24-10.74Q77.85-11.33 78.62-11.83L78.62-11.83Q79.29-12.24 80.2-12.59 81.11-12.94 82.23-12.94L82.23-12.94Q83.75-12.94 84.75-12.16 85.75-11.39 85.75-10.04L85.75-10.04Q85.75-9.65 85.66-9.11 85.57-8.57 85.45-7.98 85.34-7.4 85.21-6.79 85.07-6.19 84.99-5.72L84.99-5.72 83.75 0 77.8 0 79.41-7.66Q79.47-8.04 79.56-8.44 79.64-8.83 79.64-9.16L79.64-9.16Q79.64-9.6 79.42-9.87 79.2-10.15 78.76-10.15L78.76-10.15Q78.24-10.15 77.75-9.77 77.27-9.39 77-9.13L77-9.13 75.07 0 69.08 0 71.75-12.62 76.53-12.62 77.06-10.74ZM99.39-8.92L95.58-8.92Q95.61-9.07 95.64-9.21 95.67-9.36 95.67-9.54L95.67-9.54Q95.67-10.07 95.48-10.52 95.29-10.98 94.73-10.98L94.73-10.98Q94.23-10.98 93.73-10.55 93.23-10.12 93.23-9.42L93.23-9.42Q93.23-8.95 93.48-8.67 93.73-8.39 94.14-8.22 94.55-8.04 95.07-7.92 95.58-7.81 96.08-7.69L96.08-7.69Q96.78-7.51 97.41-7.26 98.04-7.01 98.54-6.6 99.04-6.19 99.34-5.59 99.63-4.99 99.63-4.11L99.63-4.11Q99.63-2.88 99.06-2.04 98.48-1.2 97.47-0.69 96.46-0.18 95.09 0.03 93.73 0.23 92.18 0.23L92.18 0.23Q89.8 0.23 88.24-0.12 86.69-0.47 86.07-0.79L86.07-0.79 86.69-3.73 90.65-3.73Q90.62-3.58 90.62-3.45 90.62-3.32 90.62-3.17L90.62-3.17Q90.62-2.49 90.93-2.1 91.24-1.7 92-1.7L92-1.7Q92.85-1.7 93.22-2.19 93.58-2.67 93.58-3.08L93.58-3.08Q93.58-3.49 93.28-3.8 92.97-4.11 92.5-4.33 92.03-4.55 91.46-4.71 90.88-4.87 90.36-5.02L90.36-5.02Q89.97-5.11 89.49-5.31 89.01-5.52 88.57-5.9 88.13-6.28 87.83-6.88 87.54-7.48 87.54-8.39L87.54-8.39Q87.54-9.68 88.17-10.55 88.8-11.42 89.81-11.94 90.83-12.47 92.1-12.71 93.38-12.94 94.67-12.94L94.67-12.94Q96.28-12.94 97.72-12.65 99.16-12.35 100.07-11.89L100.07-11.89 99.39-8.92ZM116.8-18.63L115.06-10.54 122.31-18.66 125.63-18.66 119.06-11.53 123.52 0 117.12 0 114.54-8.19 112.81 0 106.47 0 110.43-18.63 116.8-18.63ZM132.7-12.62L129.97 0 124.02 0 126.69-12.62 132.7-12.62ZM133.46-16.46L133.46-16.46Q133.46-15.79 133.19-15.29 132.91-14.79 132.45-14.44 132-14.09 131.41-13.91 130.82-13.73 130.21-13.73L130.21-13.73Q129.03-13.73 128.24-14.29 127.45-14.85 127.45-16.05L127.45-16.05Q127.45-16.7 127.71-17.21 127.98-17.72 128.43-18.06 128.89-18.4 129.49-18.58 130.09-18.75 130.74-18.75L130.74-18.75Q131.88-18.75 132.67-18.19 133.46-17.64 133.46-16.46ZM145.73-8.92L141.92-8.92Q141.95-9.07 141.97-9.21 142-9.36 142-9.54L142-9.54Q142-10.07 141.81-10.52 141.62-10.98 141.07-10.98L141.07-10.98Q140.57-10.98 140.07-10.55 139.57-10.12 139.57-9.42L139.57-9.42Q139.57-8.95 139.82-8.67 140.07-8.39 140.48-8.22 140.89-8.04 141.4-7.92 141.92-7.81 142.41-7.69L142.41-7.69Q143.12-7.51 143.75-7.26 144.38-7.01 144.88-6.6 145.38-6.19 145.67-5.59 145.97-4.99 145.97-4.11L145.97-4.11Q145.97-2.88 145.39-2.04 144.82-1.2 143.81-0.69 142.8-0.18 141.43 0.03 140.07 0.23 138.51 0.23L138.51 0.23Q136.13 0.23 134.58-0.12 133.02-0.47 132.41-0.79L132.41-0.79 133.02-3.73 136.99-3.73Q136.96-3.58 136.96-3.45 136.96-3.32 136.96-3.17L136.96-3.17Q136.96-2.49 137.26-2.1 137.57-1.7 138.34-1.7L138.34-1.7Q139.19-1.7 139.55-2.19 139.92-2.67 139.92-3.08L139.92-3.08Q139.92-3.49 139.61-3.8 139.3-4.11 138.83-4.33 138.37-4.55 137.79-4.71 137.22-4.87 136.69-5.02L136.69-5.02Q136.31-5.11 135.83-5.31 135.34-5.52 134.9-5.9 134.46-6.28 134.17-6.88 133.88-7.48 133.88-8.39L133.88-8.39Q133.88-9.68 134.51-10.55 135.14-11.42 136.15-11.94 137.16-12.47 138.44-12.71 139.72-12.94 141.01-12.94L141.01-12.94Q142.62-12.94 144.06-12.65 145.5-12.35 146.41-11.89L146.41-11.89 145.73-8.92ZM155.59-12.62L152.86 0 146.9 0 149.58-12.62 155.59-12.62ZM156.35-16.46L156.35-16.46Q156.35-15.79 156.08-15.29 155.8-14.79 155.34-14.44 154.89-14.09 154.3-13.91 153.71-13.73 153.1-13.73L153.1-13.73Q151.92-13.73 151.13-14.29 150.34-14.85 150.34-16.05L150.34-16.05Q150.34-16.7 150.6-17.21 150.87-17.72 151.32-18.06 151.78-18.4 152.38-18.58 152.98-18.75 153.63-18.75L153.63-18.75Q154.77-18.75 155.56-18.19 156.35-17.64 156.35-16.46ZM158.91 0L156.88-12.62 163.1-12.62 164.31-3.99 168.59-12.62 171.7-12.62 165.04 0 158.91 0ZM179.92-3.49L181.89-12.62 187.87-12.62 185.17 0 180.42 0 179.89-1.88 179.71-1.88Q178.95-0.97 177.64-0.37 176.34 0.23 175.02 0.23L175.02 0.23Q173.26 0.23 172.26-0.66 171.26-1.56 171.26-2.99L171.26-2.99Q171.26-3.73 171.51-4.83 171.76-5.93 171.97-6.9L171.97-6.9 173.2-12.62 179.16-12.62 177.69-5.75Q177.63-5.52 177.57-5.19 177.51-4.87 177.45-4.56 177.4-4.26 177.35-3.98 177.31-3.7 177.31-3.52L177.31-3.52Q177.31-3.08 177.5-2.77 177.69-2.47 178.19-2.47L178.19-2.47Q178.72-2.47 179.19-2.82 179.65-3.17 179.92-3.49L179.92-3.49ZM198-19.72L193.8 0 187.81 0 191.98-19.72 198-19.72ZM205.1-12.62L202.37 0 196.41 0 199.08-12.62 205.1-12.62ZM205.86-16.46L205.86-16.46Q205.86-15.79 205.58-15.29 205.3-14.79 204.85-14.44 204.39-14.09 203.81-13.91 203.22-13.73 202.6-13.73L202.6-13.73Q201.43-13.73 200.64-14.29 199.84-14.85 199.84-16.05L199.84-16.05Q199.84-16.7 200.11-17.21 200.37-17.72 200.83-18.06 201.28-18.4 201.88-18.58 202.49-18.75 203.13-18.75L203.13-18.75Q204.28-18.75 205.07-18.19 205.86-17.64 205.86-16.46Z" transform="translate(-1.0299999713897705, 19.719999313354492)"></path></g><!----><!----><!----><!----><!----><!----><!----></g></g><g data-gra="path-slogan" fill-rule="" class="tp-slogan" fill="#333" transform="translate(78.10499954223633,30.119998931884766)"><!----><!----><g transform="scale(1, 1)"><g transform="scale(1)"><path d="M6.72-5.41L4.73-5.41Q4.76-5.59 4.76-5.90L4.76-5.90Q4.76-6.08 4.74-6.26Q4.72-6.43 4.66-6.57Q4.60-6.71 4.48-6.79Q4.36-6.86 4.16-6.86L4.16-6.86Q3.95-6.86 3.77-6.77Q3.59-6.67 3.45-6.52Q3.31-6.37 3.23-6.17Q3.16-5.98 3.16-5.76L3.16-5.76Q3.16-5.45 3.32-5.28Q3.48-5.11 3.74-5.00Q4.01-4.90 4.34-4.82Q4.68-4.75 5.04-4.66L5.04-4.66Q5.34-4.57 5.64-4.44Q5.94-4.31 6.17-4.09Q6.41-3.86 6.55-3.51Q6.70-3.16 6.70-2.63L6.70-2.63Q6.70-1.87 6.40-1.36Q6.10-0.84 5.57-0.52Q5.04-0.19 4.31-0.05Q3.59 0.10 2.74 0.10L2.74 0.10Q1.87 0.10 1.33-0.02Q0.78-0.13 0.47-0.26L0.47-0.26Q0.10-0.42-0.08-0.62L-0.08-0.62L0.32-2.27L2.44-2.27Q2.42-2.16 2.41-1.97Q2.40-1.79 2.40-1.68L2.40-1.68Q2.40-1.54 2.44-1.38Q2.47-1.22 2.55-1.09Q2.63-0.96 2.77-0.88Q2.92-0.79 3.13-0.79L3.13-0.79Q3.37-0.79 3.56-0.90Q3.74-1.01 3.87-1.17Q4.00-1.33 4.06-1.53Q4.13-1.73 4.13-1.92L4.13-1.92Q4.13-2.18 4.00-2.36Q3.88-2.54 3.66-2.67Q3.44-2.80 3.16-2.89Q2.88-2.98 2.58-3.07L2.58-3.07Q2.29-3.16 1.97-3.28Q1.66-3.40 1.39-3.61Q1.13-3.83 0.95-4.16Q0.78-4.49 0.78-5.00L0.78-5.00Q0.78-5.77 1.17-6.29Q1.56-6.82 2.15-7.14Q2.75-7.46 3.46-7.60Q4.16-7.74 4.80-7.74L4.80-7.74Q5.64-7.74 6.25-7.54Q6.85-7.34 7.16-7.08L7.16-7.08L6.72-5.41ZM8.04 0L9.66-7.62L12.27-7.62L10.85-1.01L13.29-1.01L13.08 0L8.04 0ZM19.28-7.74L19.28-7.74Q20.31-7.74 20.95-7.48Q21.60-7.21 21.97-6.66L21.97-6.66Q22.21-6.29 22.34-5.82Q22.47-5.35 22.47-4.74L22.47-4.74Q22.47-4.21 22.38-3.68Q22.28-3.16 22.11-2.67Q21.93-2.18 21.69-1.76Q21.44-1.33 21.14-1.01L21.14-1.01Q20.58-0.40 19.84-0.15Q19.10 0.10 18.02 0.10L18.02 0.10Q16.98 0.10 16.34-0.12Q15.70-0.34 15.33-0.82L15.33-0.82Q15.07-1.15 14.92-1.67Q14.77-2.18 14.77-2.96L14.77-2.96Q14.77-4.30 15.24-5.35Q15.72-6.40 16.59-7.01L16.59-7.01Q17.12-7.38 17.77-7.56Q18.42-7.74 19.28-7.74ZM17.92-0.74L17.92-0.74Q18.20-0.74 18.45-0.99Q18.69-1.24 18.90-1.65Q19.11-2.06 19.29-2.59Q19.46-3.12 19.58-3.68Q19.70-4.25 19.77-4.81Q19.83-5.36 19.83-5.82L19.83-5.82Q19.83-6.44 19.71-6.68Q19.58-6.91 19.34-6.91L19.34-6.91Q19.06-6.91 18.81-6.67Q18.56-6.43 18.34-6.03Q18.12-5.63 17.94-5.11Q17.77-4.58 17.64-4.03Q17.52-3.48 17.45-2.94Q17.38-2.40 17.38-1.94L17.38-1.94Q17.38-1.26 17.53-1.00Q17.68-0.74 17.92-0.74ZM27.65-2.68L27.83-3.48L30.94-3.48L30.24 0L28.82 0L28.60-0.77L28.55-0.77Q28.24-0.41 27.81-0.16Q27.38 0.10 26.70 0.10L26.70 0.10Q26.17 0.10 25.69-0.08Q25.20-0.25 24.82-0.63Q24.44-1.01 24.22-1.62Q23.99-2.23 23.99-3.10L23.99-3.10Q23.99-4.03 24.28-4.87Q24.56-5.71 25.14-6.35Q25.72-7.00 26.58-7.37Q27.44-7.74 28.60-7.74L28.60-7.74Q29.48-7.74 30.14-7.54Q30.80-7.33 31.39-7.08L31.39-7.08L30.94-4.75L28.91-4.75Q28.92-4.88 28.94-5.06Q28.97-5.24 28.98-5.44Q28.99-5.64 29.00-5.83Q29.02-6.02 29.02-6.17L29.02-6.17Q29.02-6.26 29.00-6.39Q28.99-6.52 28.94-6.64Q28.90-6.76 28.80-6.83Q28.70-6.91 28.52-6.91L28.52-6.91Q28.21-6.91 27.95-6.65Q27.70-6.40 27.49-5.97Q27.29-5.54 27.14-5.00Q26.99-4.46 26.89-3.91Q26.78-3.35 26.73-2.81Q26.68-2.28 26.68-1.88L26.68-1.88Q26.68-1.76 26.69-1.58Q26.70-1.40 26.77-1.23Q26.83-1.06 26.96-0.93Q27.08-0.80 27.32-0.80L27.32-0.80Q27.72-0.80 28.09-1.24Q28.46-1.67 28.66-2.68L28.66-2.68L27.65-2.68ZM38.09-7.62L38.92 0L36.11 0L35.94-1.91L33.72-1.91L32.87 0L31.71 0L35.25-7.62L38.09-7.62ZM35.58-6.05L34.12-2.78L35.86-2.78L35.58-6.05ZM48.54-7.62L46.89 0L44.08 0L42.75-5.51L41.58 0L40.50 0L42.12-7.62L44.98-7.62L46.24-2.04L47.43-7.62L48.54-7.62Z" transform="translate(0.084, 7.74)"></path></g></g></g></g></g></g><mask id="fa71bc7d-9522-4a3c-b0e4-e51dfc47c1ca"><g fill="white"><g><rect fill-opacity="1" stroke-width="2" x="0" y="0" width="125.99999999999997" height="125.63189853728572" class="image-rect"></rect><svg x="0" y="0" width="125.99999999999997" height="125.63189853728572" filtersec="colorsb4195873206" class="image-svg-svg primary" style="overflow: visible;"><svg xmlns="http://www.w3.org/2000/svg" viewBox="-0.03024640865623951 -0.00176924467086792 115.79940032958984 115.46129608154297"><title>资源 27</title><path d="M57.76 64.3a17.74 17.74 0 0 1 12.1 4.9Q84.46 83 99.1 96.78c1.31 1.22 1.13 1.87 0 3a59.29 59.29 0 0 1-28.45 15.54c-1.45.34-2 .14-2.31-1.52-1.95-10.84-4.08-21.65-6-32.49-.31-1.69-.87-2.32-2.61-2a7.79 7.79 0 0 1-3.33 0c-2.26-.56-2.73.53-3.07 2.46-1.87 10.48-3.9 20.93-5.76 31.42-.34 1.88-.83 2.46-2.85 2a60 60 0 0 1-28-15.49c-1.34-1.29-1.15-2 .08-3.14C26.52 87.41 36.23 78.18 46 69a17.23 17.23 0 0 1 11.76-4.7z"></path><path d="M48.62 38.44c.07.93-.53 1.27-1.09 1.65a31.6 31.6 0 0 0-3.62 2.59c-1.18 1.11-2 1.1-3.17 0-7.81-7.48-15.68-14.87-23.51-22.29-2-1.92-2-2.11 0-4A60.32 60.32 0 0 1 31 6.5c1.27-.66 2.13-.75 2.85.76Q41 22.41 48.24 37.51c.16.34.28.69.38.93zM58 .05c2.85-.2 5.64.32 8.46.52 1.77.13 2.42.74 2 2.71-2.08 10.73-4 21.49-6 32.24-.26 1.42-.78 2.16-2.33 2a25 25 0 0 0-3.12-.07c-3.45 0-3.24.76-4-3.14-2-10.3-3.83-20.62-5.81-30.92C47 1.54 47.51.7 49.36.57c2.89-.2 5.76-.74 8.64-.52zM83.51 6a10.92 10.92 0 0 1 1.14.48 62 62 0 0 1 14.26 10.25c1.3 1.27 1.44 2.12 0 3.43q-12.08 11.3-24 22.72c-.93.88-1.65 1-2.68.13a39 39 0 0 0-4-2.89c-1.11-.71-1.2-1.43-.64-2.6 4.75-9.94 9.44-19.91 14.17-29.86.39-.66.6-1.61 1.75-1.66zM35.41 55.77l-19.36-2.45c-4.35-.56-8.7-1.09-13-1.67C-.11 51.24-.24 51 .29 48a63.27 63.27 0 0 1 5-15.23C6.05 31 7 30.44 8.86 31.47Q23 39.27 37.28 46.92c1.55.83 2 1.71 1.17 3.37a20.07 20.07 0 0 0-1.29 4c-.29 1.18-.89 1.71-1.75 1.48zM0 67.47c-.23-1.61.89-1.86 2.06-2q7.08-.94 14.16-1.84c6-.77 12-1.47 17.93-2.31 1.81-.26 2.89.08 3.13 2a9.44 9.44 0 0 0 .59 2.14c1.41 3.65 1.83 3.17-2.08 5.29Q22.37 78.08 9 85.46c-1.38.76-2.49 1.29-3.44-.62A59.37 59.37 0 0 1 0 67.47zM80.37 55.89c-1 .12-1.42-.38-1.66-1.35a45.25 45.25 0 0 0-1.52-4.66 1.77 1.77 0 0 1 .89-2.57q14.72-8 29.4-16c1.25-.68 2-.42 2.68.86a62.77 62.77 0 0 1 5.54 16.92c.29 1.63-.33 2.35-1.9 2.55Q102.39 53 91 54.52zM80.44 61.32l26.75 3.42c2.29.29 4.57.63 6.86.91 1.42.17 1.9.92 1.66 2.29a64.17 64.17 0 0 1-5.59 17.13c-.84 1.7-1.89 1.23-3.1.57q-11.76-6.42-23.54-12.8c-1.76-1-3.49-2-5.29-2.89a1.87 1.87 0 0 1-1-2.72 36.64 36.64 0 0 0 1.53-4.65c.28-1.18.9-1.39 1.72-1.26z"></path></svg></svg></g></g><g transform="translate(-39.41499710083008,43.33595275878906)" fill="black" stroke="black" stroke-width="6" stroke-linejoin="round"><g data-gra="path-name" fill-rule="" class="tp-name" transform="translate(0,0)"><g transform="scale(1)"><g><path d="M12.06-18.93L12.06-18.93Q14.58-18.93 16.15-18.28 17.72-17.64 18.63-16.29L18.63-16.29Q19.22-15.38 19.54-14.23 19.87-13.09 19.87-11.59L19.87-11.59Q19.87-10.3 19.63-9.01 19.4-7.72 18.97-6.53 18.55-5.34 17.94-4.3 17.34-3.26 16.61-2.47L16.61-2.47Q14.85-0.53 12.12 0L12.12 0Q12.88 0.76 13.88 1.25 14.88 1.73 15.93 1.97L15.93 1.97Q14.61 2.93 13.59 3.7L13.59 3.7Q13.15 4.02 12.72 4.33 12.3 4.64 11.97 4.89 11.65 5.14 11.43 5.27 11.21 5.4 11.21 5.4L11.21 5.4Q10.27 4.81 9.58 4.11 8.89 3.4 8.41 2.69 7.92 1.97 7.62 1.31 7.31 0.65 7.13 0.15L7.13 0.15Q5.4 0 4.27-0.53 3.14-1.06 2.41-2L2.41-2Q1.76-2.82 1.39-4.08 1.03-5.34 1.03-7.25L1.03-7.25Q1.03-10.51 2.19-13.07 3.35-15.64 5.49-17.14L5.49-17.14Q6.78-18.05 8.36-18.49 9.95-18.93 12.06-18.93ZM8.75-1.82L8.75-1.82Q9.42-1.82 10.02-2.42 10.62-3.02 11.14-4.04 11.65-5.05 12.08-6.34 12.5-7.63 12.79-9.01 13.09-10.39 13.25-11.75 13.41-13.12 13.41-14.23L13.41-14.23Q13.41-15.76 13.1-16.33 12.79-16.9 12.21-16.9L12.21-16.9Q11.53-16.9 10.92-16.32 10.3-15.73 9.76-14.75 9.21-13.76 8.79-12.49 8.36-11.21 8.06-9.86 7.75-8.51 7.59-7.19 7.42-5.87 7.42-4.75L7.42-4.75Q7.42-3.08 7.79-2.45 8.16-1.82 8.75-1.82ZM29.08-3.49L31.05-12.62 37.03-12.62 34.33 0 29.58 0 29.05-1.88 28.88-1.88Q28.11-0.97 26.81-0.37 25.5 0.23 24.18 0.23L24.18 0.23Q22.42 0.23 21.42-0.66 20.42-1.56 20.42-2.99L20.42-2.99Q20.42-3.73 20.67-4.83 20.92-5.93 21.13-6.9L21.13-6.9 22.36-12.62 28.32-12.62 26.85-5.75Q26.79-5.52 26.73-5.19 26.68-4.87 26.62-4.56 26.56-4.26 26.51-3.98 26.47-3.7 26.47-3.52L26.47-3.52Q26.47-3.08 26.66-2.77 26.85-2.47 27.35-2.47L27.35-2.47Q27.88-2.47 28.35-2.82 28.82-3.17 29.08-3.49L29.08-3.49ZM51.91-5.9L43.67-5.9Q43.55-5.25 43.51-4.67 43.46-4.08 43.46-3.61L43.46-3.61Q43.46-3.35 43.49-3.02 43.52-2.7 43.62-2.42 43.73-2.14 43.92-1.95 44.11-1.76 44.46-1.76L44.46-1.76Q44.72-1.76 45.06-1.94 45.4-2.11 45.74-2.44 46.07-2.76 46.38-3.23 46.69-3.7 46.87-4.28L46.87-4.28 51.68-4.28 50.91-1.14Q50.33-0.76 49.56-0.5 48.8-0.23 47.95-0.07 47.1 0.09 46.22 0.16 45.34 0.23 44.55 0.23L44.55 0.23Q43.08 0.23 41.82-0.03 40.56-0.29 39.62-0.94 38.68-1.58 38.13-2.66 37.59-3.73 37.59-5.31L37.59-5.31Q37.59-6.75 38.05-8.13 38.5-9.51 39.57-10.58 40.64-11.65 42.45-12.3 44.25-12.94 46.95-12.94L46.95-12.94Q49.89-12.94 51.37-12.03 52.85-11.12 52.85-9.19L52.85-9.19Q52.85-8.39 52.62-7.47 52.38-6.54 51.91-5.9L51.91-5.9ZM47.57-9.39L47.57-9.39Q47.57-10.3 47.28-10.62 46.98-10.95 46.57-10.95L46.57-10.95Q46.1-10.95 45.71-10.64 45.31-10.33 44.99-9.82 44.66-9.3 44.4-8.64 44.14-7.98 43.96-7.25L43.96-7.25 47.31-7.25Q47.36-7.6 47.42-7.98L47.42-7.98Q47.48-8.3 47.53-8.69 47.57-9.07 47.57-9.39ZM67.96-5.9L59.72-5.9Q59.6-5.25 59.56-4.67 59.51-4.08 59.51-3.61L59.51-3.61Q59.51-3.35 59.54-3.02 59.57-2.7 59.67-2.42 59.78-2.14 59.97-1.95 60.16-1.76 60.51-1.76L60.51-1.76Q60.78-1.76 61.11-1.94 61.45-2.11 61.79-2.44 62.12-2.76 62.43-3.23 62.74-3.7 62.92-4.28L62.92-4.28 67.73-4.28 66.97-1.14Q66.38-0.76 65.62-0.5 64.85-0.23 64-0.07 63.15 0.09 62.27 0.16 61.39 0.23 60.6 0.23L60.6 0.23Q59.13 0.23 57.87-0.03 56.61-0.29 55.67-0.94 54.73-1.58 54.19-2.66 53.64-3.73 53.64-5.31L53.64-5.31Q53.64-6.75 54.1-8.13 54.55-9.51 55.62-10.58 56.7-11.65 58.5-12.3 60.31-12.94 63.01-12.94L63.01-12.94Q65.94-12.94 67.42-12.03 68.9-11.12 68.9-9.19L68.9-9.19Q68.9-8.39 68.67-7.47 68.43-6.54 67.96-5.9L67.96-5.9ZM63.62-9.39L63.62-9.39Q63.62-10.3 63.33-10.62 63.03-10.95 62.62-10.95L62.62-10.95Q62.15-10.95 61.76-10.64 61.36-10.33 61.04-9.82 60.72-9.3 60.45-8.64 60.19-7.98 60.01-7.25L60.01-7.25 63.36-7.25Q63.42-7.6 63.47-7.98L63.47-7.98Q63.53-8.3 63.58-8.69 63.62-9.07 63.62-9.39ZM77.06-10.74L77.24-10.74Q77.85-11.33 78.62-11.83L78.62-11.83Q79.29-12.24 80.2-12.59 81.11-12.94 82.23-12.94L82.23-12.94Q83.75-12.94 84.75-12.16 85.75-11.39 85.75-10.04L85.75-10.04Q85.75-9.65 85.66-9.11 85.57-8.57 85.45-7.98 85.34-7.4 85.21-6.79 85.07-6.19 84.99-5.72L84.99-5.72 83.75 0 77.8 0 79.41-7.66Q79.47-8.04 79.56-8.44 79.64-8.83 79.64-9.16L79.64-9.16Q79.64-9.6 79.42-9.87 79.2-10.15 78.76-10.15L78.76-10.15Q78.24-10.15 77.75-9.77 77.27-9.39 77-9.13L77-9.13 75.07 0 69.08 0 71.75-12.62 76.53-12.62 77.06-10.74ZM99.39-8.92L95.58-8.92Q95.61-9.07 95.64-9.21 95.67-9.36 95.67-9.54L95.67-9.54Q95.67-10.07 95.48-10.52 95.29-10.98 94.73-10.98L94.73-10.98Q94.23-10.98 93.73-10.55 93.23-10.12 93.23-9.42L93.23-9.42Q93.23-8.95 93.48-8.67 93.73-8.39 94.14-8.22 94.55-8.04 95.07-7.92 95.58-7.81 96.08-7.69L96.08-7.69Q96.78-7.51 97.41-7.26 98.04-7.01 98.54-6.6 99.04-6.19 99.34-5.59 99.63-4.99 99.63-4.11L99.63-4.11Q99.63-2.88 99.06-2.04 98.48-1.2 97.47-0.69 96.46-0.18 95.09 0.03 93.73 0.23 92.18 0.23L92.18 0.23Q89.8 0.23 88.24-0.12 86.69-0.47 86.07-0.79L86.07-0.79 86.69-3.73 90.65-3.73Q90.62-3.58 90.62-3.45 90.62-3.32 90.62-3.17L90.62-3.17Q90.62-2.49 90.93-2.1 91.24-1.7 92-1.7L92-1.7Q92.85-1.7 93.22-2.19 93.58-2.67 93.58-3.08L93.58-3.08Q93.58-3.49 93.28-3.8 92.97-4.11 92.5-4.33 92.03-4.55 91.46-4.71 90.88-4.87 90.36-5.02L90.36-5.02Q89.97-5.11 89.49-5.31 89.01-5.52 88.57-5.9 88.13-6.28 87.83-6.88 87.54-7.48 87.54-8.39L87.54-8.39Q87.54-9.68 88.17-10.55 88.8-11.42 89.81-11.94 90.83-12.47 92.1-12.71 93.38-12.94 94.67-12.94L94.67-12.94Q96.28-12.94 97.72-12.65 99.16-12.35 100.07-11.89L100.07-11.89 99.39-8.92ZM116.8-18.63L115.06-10.54 122.31-18.66 125.63-18.66 119.06-11.53 123.52 0 117.12 0 114.54-8.19 112.81 0 106.47 0 110.43-18.63 116.8-18.63ZM132.7-12.62L129.97 0 124.02 0 126.69-12.62 132.7-12.62ZM133.46-16.46L133.46-16.46Q133.46-15.79 133.19-15.29 132.91-14.79 132.45-14.44 132-14.09 131.41-13.91 130.82-13.73 130.21-13.73L130.21-13.73Q129.03-13.73 128.24-14.29 127.45-14.85 127.45-16.05L127.45-16.05Q127.45-16.7 127.71-17.21 127.98-17.72 128.43-18.06 128.89-18.4 129.49-18.58 130.09-18.75 130.74-18.75L130.74-18.75Q131.88-18.75 132.67-18.19 133.46-17.64 133.46-16.46ZM145.73-8.92L141.92-8.92Q141.95-9.07 141.97-9.21 142-9.36 142-9.54L142-9.54Q142-10.07 141.81-10.52 141.62-10.98 141.07-10.98L141.07-10.98Q140.57-10.98 140.07-10.55 139.57-10.12 139.57-9.42L139.57-9.42Q139.57-8.95 139.82-8.67 140.07-8.39 140.48-8.22 140.89-8.04 141.4-7.92 141.92-7.81 142.41-7.69L142.41-7.69Q143.12-7.51 143.75-7.26 144.38-7.01 144.88-6.6 145.38-6.19 145.67-5.59 145.97-4.99 145.97-4.11L145.97-4.11Q145.97-2.88 145.39-2.04 144.82-1.2 143.81-0.69 142.8-0.18 141.43 0.03 140.07 0.23 138.51 0.23L138.51 0.23Q136.13 0.23 134.58-0.12 133.02-0.47 132.41-0.79L132.41-0.79 133.02-3.73 136.99-3.73Q136.96-3.58 136.96-3.45 136.96-3.32 136.96-3.17L136.96-3.17Q136.96-2.49 137.26-2.1 137.57-1.7 138.34-1.7L138.34-1.7Q139.19-1.7 139.55-2.19 139.92-2.67 139.92-3.08L139.92-3.08Q139.92-3.49 139.61-3.8 139.3-4.11 138.83-4.33 138.37-4.55 137.79-4.71 137.22-4.87 136.69-5.02L136.69-5.02Q136.31-5.11 135.83-5.31 135.34-5.52 134.9-5.9 134.46-6.28 134.17-6.88 133.88-7.48 133.88-8.39L133.88-8.39Q133.88-9.68 134.51-10.55 135.14-11.42 136.15-11.94 137.16-12.47 138.44-12.71 139.72-12.94 141.01-12.94L141.01-12.94Q142.62-12.94 144.06-12.65 145.5-12.35 146.41-11.89L146.41-11.89 145.73-8.92ZM155.59-12.62L152.86 0 146.9 0 149.58-12.62 155.59-12.62ZM156.35-16.46L156.35-16.46Q156.35-15.79 156.08-15.29 155.8-14.79 155.34-14.44 154.89-14.09 154.3-13.91 153.71-13.73 153.1-13.73L153.1-13.73Q151.92-13.73 151.13-14.29 150.34-14.85 150.34-16.05L150.34-16.05Q150.34-16.7 150.6-17.21 150.87-17.72 151.32-18.06 151.78-18.4 152.38-18.58 152.98-18.75 153.63-18.75L153.63-18.75Q154.77-18.75 155.56-18.19 156.35-17.64 156.35-16.46ZM158.91 0L156.88-12.62 163.1-12.62 164.31-3.99 168.59-12.62 171.7-12.62 165.04 0 158.91 0ZM179.92-3.49L181.89-12.62 187.87-12.62 185.17 0 180.42 0 179.89-1.88 179.71-1.88Q178.95-0.97 177.64-0.37 176.34 0.23 175.02 0.23L175.02 0.23Q173.26 0.23 172.26-0.66 171.26-1.56 171.26-2.99L171.26-2.99Q171.26-3.73 171.51-4.83 171.76-5.93 171.97-6.9L171.97-6.9 173.2-12.62 179.16-12.62 177.69-5.75Q177.63-5.52 177.57-5.19 177.51-4.87 177.45-4.56 177.4-4.26 177.35-3.98 177.31-3.7 177.31-3.52L177.31-3.52Q177.31-3.08 177.5-2.77 177.69-2.47 178.19-2.47L178.19-2.47Q178.72-2.47 179.19-2.82 179.65-3.17 179.92-3.49L179.92-3.49ZM198-19.72L193.8 0 187.81 0 191.98-19.72 198-19.72ZM205.1-12.62L202.37 0 196.41 0 199.08-12.62 205.1-12.62ZM205.86-16.46L205.86-16.46Q205.86-15.79 205.58-15.29 205.3-14.79 204.85-14.44 204.39-14.09 203.81-13.91 203.22-13.73 202.6-13.73L202.6-13.73Q201.43-13.73 200.64-14.29 199.84-14.85 199.84-16.05L199.84-16.05Q199.84-16.7 200.11-17.21 200.37-17.72 200.83-18.06 201.28-18.4 201.88-18.58 202.49-18.75 203.13-18.75L203.13-18.75Q204.28-18.75 205.07-18.19 205.86-17.64 205.86-16.46Z" transform="translate(-1.0299999713897705, 19.719999313354492)"></path></g></g></g><g data-gra="path-slogan" fill-rule="" class="tp-slogan" transform="translate(78.10499954223633,30.119998931884766)" fill="white"><g transform="scale(1, 1)"><g transform="scale(1)"><path d="M6.72-5.41L4.73-5.41Q4.76-5.59 4.76-5.90L4.76-5.90Q4.76-6.08 4.74-6.26Q4.72-6.43 4.66-6.57Q4.60-6.71 4.48-6.79Q4.36-6.86 4.16-6.86L4.16-6.86Q3.95-6.86 3.77-6.77Q3.59-6.67 3.45-6.52Q3.31-6.37 3.23-6.17Q3.16-5.98 3.16-5.76L3.16-5.76Q3.16-5.45 3.32-5.28Q3.48-5.11 3.74-5.00Q4.01-4.90 4.34-4.82Q4.68-4.75 5.04-4.66L5.04-4.66Q5.34-4.57 5.64-4.44Q5.94-4.31 6.17-4.09Q6.41-3.86 6.55-3.51Q6.70-3.16 6.70-2.63L6.70-2.63Q6.70-1.87 6.40-1.36Q6.10-0.84 5.57-0.52Q5.04-0.19 4.31-0.05Q3.59 0.10 2.74 0.10L2.74 0.10Q1.87 0.10 1.33-0.02Q0.78-0.13 0.47-0.26L0.47-0.26Q0.10-0.42-0.08-0.62L-0.08-0.62L0.32-2.27L2.44-2.27Q2.42-2.16 2.41-1.97Q2.40-1.79 2.40-1.68L2.40-1.68Q2.40-1.54 2.44-1.38Q2.47-1.22 2.55-1.09Q2.63-0.96 2.77-0.88Q2.92-0.79 3.13-0.79L3.13-0.79Q3.37-0.79 3.56-0.90Q3.74-1.01 3.87-1.17Q4.00-1.33 4.06-1.53Q4.13-1.73 4.13-1.92L4.13-1.92Q4.13-2.18 4.00-2.36Q3.88-2.54 3.66-2.67Q3.44-2.80 3.16-2.89Q2.88-2.98 2.58-3.07L2.58-3.07Q2.29-3.16 1.97-3.28Q1.66-3.40 1.39-3.61Q1.13-3.83 0.95-4.16Q0.78-4.49 0.78-5.00L0.78-5.00Q0.78-5.77 1.17-6.29Q1.56-6.82 2.15-7.14Q2.75-7.46 3.46-7.60Q4.16-7.74 4.80-7.74L4.80-7.74Q5.64-7.74 6.25-7.54Q6.85-7.34 7.16-7.08L7.16-7.08L6.72-5.41ZM8.04 0L9.66-7.62L12.27-7.62L10.85-1.01L13.29-1.01L13.08 0L8.04 0ZM19.28-7.74L19.28-7.74Q20.31-7.74 20.95-7.48Q21.60-7.21 21.97-6.66L21.97-6.66Q22.21-6.29 22.34-5.82Q22.47-5.35 22.47-4.74L22.47-4.74Q22.47-4.21 22.38-3.68Q22.28-3.16 22.11-2.67Q21.93-2.18 21.69-1.76Q21.44-1.33 21.14-1.01L21.14-1.01Q20.58-0.40 19.84-0.15Q19.10 0.10 18.02 0.10L18.02 0.10Q16.98 0.10 16.34-0.12Q15.70-0.34 15.33-0.82L15.33-0.82Q15.07-1.15 14.92-1.67Q14.77-2.18 14.77-2.96L14.77-2.96Q14.77-4.30 15.24-5.35Q15.72-6.40 16.59-7.01L16.59-7.01Q17.12-7.38 17.77-7.56Q18.42-7.74 19.28-7.74ZM17.92-0.74L17.92-0.74Q18.20-0.74 18.45-0.99Q18.69-1.24 18.90-1.65Q19.11-2.06 19.29-2.59Q19.46-3.12 19.58-3.68Q19.70-4.25 19.77-4.81Q19.83-5.36 19.83-5.82L19.83-5.82Q19.83-6.44 19.71-6.68Q19.58-6.91 19.34-6.91L19.34-6.91Q19.06-6.91 18.81-6.67Q18.56-6.43 18.34-6.03Q18.12-5.63 17.94-5.11Q17.77-4.58 17.64-4.03Q17.52-3.48 17.45-2.94Q17.38-2.40 17.38-1.94L17.38-1.94Q17.38-1.26 17.53-1.00Q17.68-0.74 17.92-0.74ZM27.65-2.68L27.83-3.48L30.94-3.48L30.24 0L28.82 0L28.60-0.77L28.55-0.77Q28.24-0.41 27.81-0.16Q27.38 0.10 26.70 0.10L26.70 0.10Q26.17 0.10 25.69-0.08Q25.20-0.25 24.82-0.63Q24.44-1.01 24.22-1.62Q23.99-2.23 23.99-3.10L23.99-3.10Q23.99-4.03 24.28-4.87Q24.56-5.71 25.14-6.35Q25.72-7.00 26.58-7.37Q27.44-7.74 28.60-7.74L28.60-7.74Q29.48-7.74 30.14-7.54Q30.80-7.33 31.39-7.08L31.39-7.08L30.94-4.75L28.91-4.75Q28.92-4.88 28.94-5.06Q28.97-5.24 28.98-5.44Q28.99-5.64 29.00-5.83Q29.02-6.02 29.02-6.17L29.02-6.17Q29.02-6.26 29.00-6.39Q28.99-6.52 28.94-6.64Q28.90-6.76 28.80-6.83Q28.70-6.91 28.52-6.91L28.52-6.91Q28.21-6.91 27.95-6.65Q27.70-6.40 27.49-5.97Q27.29-5.54 27.14-5.00Q26.99-4.46 26.89-3.91Q26.78-3.35 26.73-2.81Q26.68-2.28 26.68-1.88L26.68-1.88Q26.68-1.76 26.69-1.58Q26.70-1.40 26.77-1.23Q26.83-1.06 26.96-0.93Q27.08-0.80 27.32-0.80L27.32-0.80Q27.72-0.80 28.09-1.24Q28.46-1.67 28.66-2.68L28.66-2.68L27.65-2.68ZM38.09-7.62L38.92 0L36.11 0L35.94-1.91L33.72-1.91L32.87 0L31.71 0L35.25-7.62L38.09-7.62ZM35.58-6.05L34.12-2.78L35.86-2.78L35.58-6.05ZM48.54-7.62L46.89 0L44.08 0L42.75-5.51L41.58 0L40.50 0L42.12-7.62L44.98-7.62L46.24-2.04L47.43-7.62L48.54-7.62Z" transform="translate(0.084, 7.74)"></path></g></g></g></g></mask><defs v-gra="od"></defs><defs v-gra="id"><filter id="3c9e401f-ad41-4a9a-9817-bf94df20e69d" filterUnits="userSpaceOnUse"><feColorMatrix type="matrix" values="0 0 0 0 0.99609375  0 0 0 0 0.99609375  0 0 0 0 0.99609375  0 0 0 1 0"></feColorMatrix></filter><linearGradient x1="0" y1="1" x2="0" y2="0" id="nOcTY1jRZDZr5x8gK6Dyw"><stop offset="0%" stop-color="#ff0000"></stop><stop offset="50%" stop-color="#ffff00"></stop><stop offset="100%" stop-color="#00c5ff"></stop></linearGradient><filter id="42443b3f1de60f6b6fd3b6a9844b4764" filterUnits="userSpaceOnUse"><feColorMatrix type="matrix" values="0 0 0 0 0.99609375  0 0 0 0 0.99609375  0 0 0 0 0.99609375  0 0 0 1 0"></feColorMatrix></filter></defs><mask v-gra="im" id="4132af07-d6c9-4d3a-b327-864990684ea0"><g mask="url(#fa71bc7d-9522-4a3c-b0e4-e51dfc47c1ca)" filter="url(#3c9e401f-ad41-4a9a-9817-bf94df20e69d)"><g><rect fill="#333" fill-opacity="0" stroke-width="2" x="0" y="0" width="125.99999999999997" height="125.63189853728572" class="image-rect"></rect><svg x="0" y="0" width="125.99999999999997" height="125.63189853728572" filtersec="colorsb4195873206" class="image-svg-svg primary" style="overflow: visible;"><svg xmlns="http://www.w3.org/2000/svg" viewBox="-0.03024640865623951 -0.00176924467086792 115.79940032958984 115.46129608154297"><title>资源 27</title><path d="M57.76 64.3a17.74 17.74 0 0 1 12.1 4.9Q84.46 83 99.1 96.78c1.31 1.22 1.13 1.87 0 3a59.29 59.29 0 0 1-28.45 15.54c-1.45.34-2 .14-2.31-1.52-1.95-10.84-4.08-21.65-6-32.49-.31-1.69-.87-2.32-2.61-2a7.79 7.79 0 0 1-3.33 0c-2.26-.56-2.73.53-3.07 2.46-1.87 10.48-3.9 20.93-5.76 31.42-.34 1.88-.83 2.46-2.85 2a60 60 0 0 1-28-15.49c-1.34-1.29-1.15-2 .08-3.14C26.52 87.41 36.23 78.18 46 69a17.23 17.23 0 0 1 11.76-4.7z" fill="#333333"></path><path d="M48.62 38.44c.07.93-.53 1.27-1.09 1.65a31.6 31.6 0 0 0-3.62 2.59c-1.18 1.11-2 1.1-3.17 0-7.81-7.48-15.68-14.87-23.51-22.29-2-1.92-2-2.11 0-4A60.32 60.32 0 0 1 31 6.5c1.27-.66 2.13-.75 2.85.76Q41 22.41 48.24 37.51c.16.34.28.69.38.93zM58 .05c2.85-.2 5.64.32 8.46.52 1.77.13 2.42.74 2 2.71-2.08 10.73-4 21.49-6 32.24-.26 1.42-.78 2.16-2.33 2a25 25 0 0 0-3.12-.07c-3.45 0-3.24.76-4-3.14-2-10.3-3.83-20.62-5.81-30.92C47 1.54 47.51.7 49.36.57c2.89-.2 5.76-.74 8.64-.52zM83.51 6a10.92 10.92 0 0 1 1.14.48 62 62 0 0 1 14.26 10.25c1.3 1.27 1.44 2.12 0 3.43q-12.08 11.3-24 22.72c-.93.88-1.65 1-2.68.13a39 39 0 0 0-4-2.89c-1.11-.71-1.2-1.43-.64-2.6 4.75-9.94 9.44-19.91 14.17-29.86.39-.66.6-1.61 1.75-1.66zM35.41 55.77l-19.36-2.45c-4.35-.56-8.7-1.09-13-1.67C-.11 51.24-.24 51 .29 48a63.27 63.27 0 0 1 5-15.23C6.05 31 7 30.44 8.86 31.47Q23 39.27 37.28 46.92c1.55.83 2 1.71 1.17 3.37a20.07 20.07 0 0 0-1.29 4c-.29 1.18-.89 1.71-1.75 1.48zM0 67.47c-.23-1.61.89-1.86 2.06-2q7.08-.94 14.16-1.84c6-.77 12-1.47 17.93-2.31 1.81-.26 2.89.08 3.13 2a9.44 9.44 0 0 0 .59 2.14c1.41 3.65 1.83 3.17-2.08 5.29Q22.37 78.08 9 85.46c-1.38.76-2.49 1.29-3.44-.62A59.37 59.37 0 0 1 0 67.47zM80.37 55.89c-1 .12-1.42-.38-1.66-1.35a45.25 45.25 0 0 0-1.52-4.66 1.77 1.77 0 0 1 .89-2.57q14.72-8 29.4-16c1.25-.68 2-.42 2.68.86a62.77 62.77 0 0 1 5.54 16.92c.29 1.63-.33 2.35-1.9 2.55Q102.39 53 91 54.52zM80.44 61.32l26.75 3.42c2.29.29 4.57.63 6.86.91 1.42.17 1.9.92 1.66 2.29a64.17 64.17 0 0 1-5.59 17.13c-.84 1.7-1.89 1.23-3.1.57q-11.76-6.42-23.54-12.8c-1.76-1-3.49-2-5.29-2.89a1.87 1.87 0 0 1-1-2.72 36.64 36.64 0 0 0 1.53-4.65c.28-1.18.9-1.39 1.72-1.26z" fill="#FF0000"></path></svg></svg><!----></g></g></mask></svg>