<svg xmlns="http://www.w3.org/2000/svg" x="0" y="0" filtersec="colorsb9251325052" class="image-svg-svg primary" style="overflow: visible;"><svg xmlns="http://www.w3.org/2000/svg" viewBox="-0.023669390007853508 -0.000014185905456542969 163.51258850097656 137.82725524902344"><g fill-rule="evenodd"><path d="M67.27 119q-14.1-14.44-28.08-28.59-13.83-14-27.64-27.71C4.5 55.64.71 48 .09 40.82A21.43 21.43 0 0 1 6.73 23q6.81 10.69 13.86 21.81Q27.81 56.12 35.32 68c5.07 8 10.27 16.2 15.53 24.6 5.36 8.56 10.86 17.4 16.42 26.4z" fill="#aed812"></path><path d="M158.89 93.12q-6.28 7.35-13.38 15.69c-5.06 5.92-10.45 12.31-16.23 19.12-4.79 5.63-11.68 8.89-19.58 9.7-8.25.84-17.39-1-26-5.58 8.25-4.3 16-8.33 23.41-12.18L127 109.55q9-4.65 17.07-8.81c5.16-2.66 10.13-5.22 14.83-7.62z" fill="#30c2ef"></path><path d="M111.13 17.1c6.29 6 12.64 12 19 18s12.77 12.28 19.17 18.46a50.67 50.67 0 0 1 11.21 15.54C163 74.52 164 80 163.24 84.62c-4.69-6.11-9.33-12.12-13.86-18.05S140.47 55 136.1 49.33s-8.55-11.08-12.75-16.49-8.21-10.57-12.22-15.74z" fill="#f7634b"></path><path d="M19.6 16.21l25-8.27 20.9-6.79c4.86-1.57 10.82-1.47 17-.08a59.32 59.32 0 0 1 17.9 7.5c-5.3.47-10.79 1-16.49 1.51-6 .54-12.16 1.13-18.64 1.74l-21.21 2c-7.77.74-15.89 1.54-24.46 2.39z" fill="#f9ab4e"></path><path d="M50.65 88.1c-4.24-8.23-8.35-16.29-12.4-24.1-3.94-7.63-7.84-15.1-11.63-22.4-5.7-11-1.56-20.43 8.35-24.15l7.28 32.39c2.65 12 5.47 24.76 8.4 38.28z" fill="#aed812"></path><path d="M139.45 99.94L121 106.45c-6.7 2.38-13.81 4.91-21.26 7.54-12.35 4.4-28.37-.46-39.22-11.21 15.54-.58 30-1.16 43.47-1.63 12.6-.45 24.42-.83 35.51-1.21z" fill="#30c2ef"></path><path d="M123.25 35.8c3.67 5.43 7.42 11 11.2 16.59s7.79 11.55 11.75 17.48c6.36 9.47 7.06 19.38 2.11 25.13-4.62-11-9.09-21.58-13.32-31.61-4.05-9.6-8-18.79-11.74-27.59z" fill="#f7634b"></path><path d="M48.27 15.65l21.36-.48c6.51-.15 12.83-.3 18.87-.41 9-.18 19.68 4.72 27.21 11.7q-14.65-2.34-31-5-17.16-2.78-36.47-5.81z" fill="#f9ab4e"></path><path d="M69.35 33.4c6.36-3.06 14.15-3 22-.74a53 53 0 0 1 21.78 12.57c6.4 6.11 10.41 13.1 11.7 19.55 1.39 6.73 0 13-5.06 17.45s-13.27 6.06-22 4.49a51.74 51.74 0 0 1-26.47-14c-7.68-7.55-11.57-15.92-11.71-23.26a16.84 16.84 0 0 1 9.77-16zm20.05 7.18c10.84 1.6 21.08 9.72 24.24 19.09S111.27 76.81 99.75 76s-24.12-10.6-26.6-20.8S78.58 39 89.4 40.58z" fill="#f7cf0b"></path></g></svg></svg>