<svg data-v-70b83f88="" version="1.0" xmlns="http://www.w3.org/2000/svg" xmlns:xlink="http://www.w3.org/1999/xlink" viewBox="0 0 340.000000 250.000000" preserveAspectRatio="xMidYMid meet" color-interpolation-filters="sRGB" style="margin: auto;"><rect data-v-70b83f88="" x="0" y="0" width="100%" height="100%" fill="#fff" fill-opacity="1" class="background"></rect><rect data-v-70b83f88="" x="0" y="0" width="100%" height="100%" fill="url(#watermark)" fill-opacity="1" class="watermarklayer"></rect><g data-v-70b83f88="" fill="#00537c" class="iconblsvg-g iconsvg" transform="translate(62.201568603515625,110.64229583740234)"><g class="tp-name"><g data-gra="path-name" transform="translate(0, 1.9976637086138105)"><g transform="scale(1)"><path d="M19.02 0.74L19.02 0.74Q19.57 0.74 20.04 1.2 20.51 1.66 20.51 2.26L20.51 2.26Q20.51 2.87 19.98 3.41 19.44 3.95 18.59 4.37 17.75 4.79 16.85 5.02 15.94 5.26 15.2 5.26L15.2 5.26Q13.57 5.26 12.6 4.96 11.62 4.66 10.99 4.27 10.36 3.89 9.81 3.59 9.26 3.29 8.47 3.29L8.47 3.29Q7.97 3.29 7.67 3.46 7.36 3.63 7.01 3.8 6.65 3.97 6.02 3.97L6.02 3.97Q5.37 3.97 4.92 3.47 4.47 2.97 4.47 2.39L4.47 2.39Q4.47 1.37 5.39 1.03L5.39 1.03 10.84-1 13.2-0.42 8.1 1.47 9.6 0.6Q10.52 0.6 11.22 0.88 11.91 1.16 12.55 1.5 13.18 1.84 13.85 2.12 14.52 2.39 15.39 2.39L15.39 2.39Q16.1 2.39 16.58 2.16 17.07 1.92 17.44 1.63L17.44 1.63Q17.88 1.29 18.24 1.01 18.59 0.74 19.02 0.74ZM18.91-9.21L18.91-9.21Q18.91-7.23 18.25-5.52 17.59-3.81 16.4-2.51 15.2-1.21 13.56-0.47 11.91 0.26 9.97 0.26L9.97 0.26Q8.02 0.26 6.39-0.47 4.76-1.21 3.56-2.51 2.37-3.81 1.71-5.52 1.05-7.23 1.05-9.21L1.05-9.21Q1.05-11.18 1.71-12.89 2.37-14.6 3.56-15.9 4.76-17.2 6.39-17.94 8.02-18.67 9.97-18.67L9.97-18.67Q11.91-18.67 13.56-17.94 15.2-17.2 16.4-15.9 17.59-14.6 18.25-12.89 18.91-11.18 18.91-9.21ZM15.49-9.21L15.49-9.21Q15.49-10.97 14.78-12.4 14.07-13.83 12.83-14.68 11.6-15.52 9.97-15.52L9.97-15.52Q8.34-15.52 7.1-14.68 5.86-13.83 5.17-12.41 4.47-10.99 4.47-9.21L4.47-9.21Q4.47-7.44 5.17-6.01 5.86-4.58 7.1-3.73 8.34-2.89 9.97-2.89L9.97-2.89Q11.6-2.89 12.83-3.73 14.07-4.58 14.78-6.01 15.49-7.44 15.49-9.21ZM32.01-14.07L32.01-14.07Q32.69-14.07 33.14-13.61 33.59-13.15 33.59-12.47L33.59-12.47 33.59-5.79Q33.59-3 32.03-1.37 30.48 0.26 27.56 0.26L27.56 0.26Q24.64 0.26 23.1-1.37 21.57-3 21.57-5.79L21.57-5.79 21.57-12.47Q21.57-13.15 22.01-13.61 22.46-14.07 23.14-14.07L23.14-14.07Q23.83-14.07 24.28-13.61 24.72-13.15 24.72-12.47L24.72-12.47 24.72-5.79Q24.72-4.18 25.43-3.41 26.14-2.63 27.56-2.63L27.56-2.63Q29.01-2.63 29.72-3.41 30.43-4.18 30.43-5.79L30.43-5.79 30.43-12.47Q30.43-13.15 30.88-13.61 31.32-14.07 32.01-14.07ZM43.5 0.26L43.5 0.26Q41.27 0.26 39.62-0.67 37.98-1.6 37.1-3.21 36.22-4.81 36.22-6.84L36.22-6.84Q36.22-9.21 37.18-10.88 38.14-12.55 39.69-13.44 41.24-14.33 42.97-14.33L42.97-14.33Q44.32-14.33 45.51-13.78 46.71-13.23 47.63-12.27 48.55-11.31 49.09-10.05 49.63-8.78 49.63-7.36L49.63-7.36Q49.6-6.73 49.13-6.34 48.66-5.94 48.02-5.94L48.02-5.94 37.98-5.94 37.19-8.57 46.84-8.57 46.26-8.05 46.26-8.76Q46.21-9.52 45.72-10.13 45.24-10.73 44.51-11.09 43.79-11.44 42.97-11.44L42.97-11.44Q42.19-11.44 41.5-11.23 40.82-11.02 40.32-10.52 39.82-10.02 39.53-9.18 39.24-8.34 39.24-7.05L39.24-7.05Q39.24-5.63 39.83-4.64 40.42-3.66 41.36-3.14 42.29-2.63 43.34-2.63L43.34-2.63Q44.32-2.63 44.89-2.79 45.47-2.95 45.83-3.17 46.18-3.39 46.47-3.55L46.47-3.55Q46.95-3.79 47.37-3.79L47.37-3.79Q47.95-3.79 48.33-3.39 48.71-3 48.71-2.47L48.71-2.47Q48.71-1.76 47.97-1.18L47.97-1.18Q47.29-0.6 46.05-0.17 44.82 0.26 43.5 0.26ZM58.76 0.26L58.76 0.26Q56.52 0.26 54.88-0.67 53.23-1.6 52.35-3.21 51.47-4.81 51.47-6.84L51.47-6.84Q51.47-9.21 52.43-10.88 53.39-12.55 54.94-13.44 56.49-14.33 58.23-14.33L58.23-14.33Q59.57-14.33 60.77-13.78 61.96-13.23 62.88-12.27 63.8-11.31 64.34-10.05 64.88-8.78 64.88-7.36L64.88-7.36Q64.86-6.73 64.38-6.34 63.91-5.94 63.28-5.94L63.28-5.94 53.23-5.94 52.44-8.57 62.1-8.57 61.52-8.05 61.52-8.76Q61.46-9.52 60.98-10.13 60.49-10.73 59.77-11.09 59.04-11.44 58.23-11.44L58.23-11.44Q57.44-11.44 56.76-11.23 56.07-11.02 55.57-10.52 55.07-10.02 54.78-9.18 54.49-8.34 54.49-7.05L54.49-7.05Q54.49-5.63 55.09-4.64 55.68-3.66 56.61-3.14 57.55-2.63 58.6-2.63L58.6-2.63Q59.57-2.63 60.15-2.79 60.73-2.95 61.08-3.17 61.44-3.39 61.73-3.55L61.73-3.55Q62.2-3.79 62.62-3.79L62.62-3.79Q63.2-3.79 63.58-3.39 63.96-3 63.96-2.47L63.96-2.47Q63.96-1.76 63.23-1.18L63.23-1.18Q62.54-0.6 61.31-0.17 60.07 0.26 58.76 0.26ZM75.04-14.33L75.04-14.33Q76.98-14.33 77.99-13.52 79.01-12.7 79.39-11.35 79.77-9.99 79.77-8.34L79.77-8.34 79.77-1.6Q79.77-0.92 79.32-0.46 78.87 0 78.19 0L78.19 0Q77.51 0 77.06-0.46 76.61-0.92 76.61-1.6L76.61-1.6 76.61-8.34Q76.61-9.21 76.39-9.9 76.17-10.6 75.59-11.02 75.01-11.44 73.93-11.44L73.93-11.44Q72.88-11.44 72.16-11.02 71.43-10.6 71.05-9.9 70.67-9.21 70.67-8.34L70.67-8.34 70.67-1.6Q70.67-0.92 70.22-0.46 69.77 0 69.09 0L69.09 0Q68.41 0 67.96-0.46 67.51-0.92 67.51-1.6L67.51-1.6 67.51-12.47Q67.51-13.15 67.96-13.61 68.41-14.07 69.09-14.07L69.09-14.07Q69.77-14.07 70.22-13.61 70.67-13.15 70.67-12.47L70.67-12.47 70.67-11.34 70.27-11.41Q70.51-11.86 70.96-12.37 71.41-12.89 72.01-13.33 72.62-13.78 73.38-14.06 74.14-14.33 75.04-14.33ZM82.37-2.18L82.37-2.18Q82.11-2.55 82.14-3.13 82.16-3.71 82.82-4.13L82.82-4.13Q83.24-4.39 83.71-4.35 84.19-4.31 84.63-3.87L84.63-3.87Q85.4-3.1 86.24-2.68 87.08-2.26 88.34-2.26L88.34-2.26Q88.74-2.29 89.21-2.38 89.68-2.47 90.04-2.8 90.39-3.13 90.39-3.81L90.39-3.81Q90.39-4.39 90-4.73 89.61-5.08 88.96-5.31 88.32-5.55 87.53-5.76L87.53-5.76Q86.71-6 85.86-6.29 85-6.58 84.29-7.04 83.58-7.5 83.14-8.26 82.69-9.02 82.69-10.18L82.69-10.18Q82.69-11.49 83.42-12.41 84.16-13.33 85.33-13.83 86.5-14.33 87.79-14.33L87.79-14.33Q88.61-14.33 89.5-14.14 90.39-13.94 91.21-13.51 92.03-13.07 92.58-12.36L92.58-12.36Q92.87-11.97 92.92-11.41 92.97-10.86 92.42-10.41L92.42-10.41Q92.03-10.1 91.5-10.14 90.97-10.18 90.63-10.49L90.63-10.49Q90.18-11.07 89.43-11.41 88.68-11.76 87.71-11.76L87.71-11.76Q87.32-11.76 86.86-11.66 86.4-11.57 86.05-11.27 85.71-10.97 85.71-10.31L85.71-10.31Q85.71-9.7 86.11-9.35 86.5-8.99 87.17-8.77 87.84-8.55 88.61-8.34L88.61-8.34Q89.4-8.13 90.21-7.84 91.03-7.55 91.71-7.07 92.39-6.6 92.81-5.85 93.23-5.1 93.23-3.95L93.23-3.95Q93.23-2.6 92.45-1.66 91.66-0.71 90.47-0.22 89.29 0.26 88.05 0.26L88.05 0.26Q86.5 0.26 84.95-0.28 83.4-0.82 82.37-2.18Z" transform="translate(-1.0499999523162842, 19.459999084472656)"></path></g></g><g transform="translate(95.18000030517578, 0)"><g><g class="imagesvg"><g><rect fill="#00537c" fill-opacity="0" stroke-width="2" x="0" y="0" width="34.98685111344174" height="28.715406363625853" class="image-rect"></rect><svg x="0" y="0" width="34.98685111344174" height="28.715406363625853" filtersec="colorsb5988317412" class="image-svg-svg primary" style="overflow: visible;"><svg xmlns="http://www.w3.org/2000/svg" viewBox="0 0 135.05999755859375 110.85000610351562"><g><path d="M44.15 14.71l44.14 18.65V51L44.15 37.52l-.44-.13L0 62.1V49.54zm0 30.88L0 70.55v8.9l43.86-15.32.29.05.68.13 43.47 8.18V58.66L44.58 45.34zm0 26.23L0 87.24v9.47l44-5.83h.37L88.29 94V80l-43.86-8.28zm0 26.47L0 104.13v6.72h88.29v-9.44l-44-3.14zm54.45-36.5v12.64l36.46 6.86V72.9zm0 49.06h36.46v-6.11l-36.46-2.6zm0-16.08l36.46 2.6v-8.6l-36.47-6.86zm22.07-34.15V25L76.52 0 57.16 13.82 76.52 22l17.66 7.46v23.46z" fill="#00537c"></path></g></svg></svg><!----></g></g></g></g><g data-gra="path-name-1" fill="#00537c" transform="translate(133.16685104370117, 1.9976637086138105)"><g transform="scale(1)"><path d="M14.65 0L14.65 0Q13.91 0 13.47-0.6L13.47-0.6 7.39-8.6 9.78-11.05 16.07-2.74Q16.44-2.24 16.44-1.66L16.44-1.66Q16.44-0.92 15.89-0.46 15.33 0 14.65 0ZM14.96-18.54L14.96-18.54Q15.6-18.54 16-18.03 16.41-17.52 16.41-16.99L16.41-16.99Q16.41-16.44 15.94-15.96L15.94-15.96 4.92-5.42 4.79-9.18 13.68-17.94Q14.28-18.54 14.96-18.54ZM3.6 0L3.6 0Q2.87 0 2.42-0.46 1.97-0.92 1.97-1.6L1.97-1.6 1.97-16.81Q1.97-17.49 2.45-17.95 2.92-18.41 3.66-18.41L3.66-18.41Q4.39-18.41 4.83-17.95 5.26-17.49 5.26-16.81L5.26-16.81 5.26-1.6Q5.26-0.92 4.81-0.46 4.37 0 3.6 0ZM21.91-12.47L21.91-1.6Q21.91-0.92 21.46-0.46 21.01 0 20.33 0L20.33 0Q19.65 0 19.2-0.46 18.75-0.92 18.75-1.6L18.75-1.6 18.75-12.47Q18.75-13.15 19.2-13.61 19.65-14.07 20.33-14.07L20.33-14.07Q21.01-14.07 21.46-13.61 21.91-13.15 21.91-12.47L21.91-12.47ZM20.3-15.78L20.3-15.78Q19.41-15.78 19.04-16.07 18.67-16.36 18.67-17.1L18.67-17.1 18.67-17.59Q18.67-18.36 19.08-18.63 19.49-18.91 20.33-18.91L20.33-18.91Q21.25-18.91 21.62-18.62 21.99-18.33 21.99-17.59L21.99-17.59 21.99-17.1Q21.99-16.33 21.59-16.06 21.2-15.78 20.3-15.78ZM24.33-2.18L24.33-2.18Q24.06-2.55 24.09-3.13 24.12-3.71 24.77-4.13L24.77-4.13Q25.2-4.39 25.67-4.35 26.14-4.31 26.59-3.87L26.59-3.87Q27.35-3.1 28.19-2.68 29.04-2.26 30.3-2.26L30.3-2.26Q30.69-2.29 31.17-2.38 31.64-2.47 31.99-2.8 32.35-3.13 32.35-3.81L32.35-3.81Q32.35-4.39 31.95-4.73 31.56-5.08 30.92-5.31 30.27-5.55 29.48-5.76L29.48-5.76Q28.67-6 27.81-6.29 26.96-6.58 26.25-7.04 25.54-7.5 25.09-8.26 24.64-9.02 24.64-10.18L24.64-10.18Q24.64-11.49 25.38-12.41 26.12-13.33 27.29-13.83 28.46-14.33 29.75-14.33L29.75-14.33Q30.56-14.33 31.46-14.14 32.35-13.94 33.16-13.51 33.98-13.07 34.53-12.36L34.53-12.36Q34.82-11.97 34.87-11.41 34.93-10.86 34.37-10.41L34.37-10.41Q33.98-10.1 33.45-10.14 32.93-10.18 32.59-10.49L32.59-10.49Q32.14-11.07 31.39-11.41 30.64-11.76 29.67-11.76L29.67-11.76Q29.27-11.76 28.81-11.66 28.35-11.57 28.01-11.27 27.67-10.97 27.67-10.31L27.67-10.31Q27.67-9.7 28.06-9.35 28.46-8.99 29.13-8.77 29.8-8.55 30.56-8.34L30.56-8.34Q31.35-8.13 32.17-7.84 32.98-7.55 33.66-7.07 34.35-6.6 34.77-5.85 35.19-5.1 35.19-3.95L35.19-3.95Q35.19-2.6 34.4-1.66 33.61-0.71 32.43-0.22 31.24 0.26 30.01 0.26L30.01 0.26Q28.46 0.26 26.91-0.28 25.35-0.82 24.33-2.18ZM40.79-12.47L40.79-1.6Q40.79-0.92 40.34-0.46 39.9 0 39.21 0L39.21 0Q38.53 0 38.08-0.46 37.64-0.92 37.64-1.6L37.64-1.6 37.64-12.47Q37.64-13.15 38.08-13.61 38.53-14.07 39.21-14.07L39.21-14.07Q39.9-14.07 40.34-13.61 40.79-13.15 40.79-12.47L40.79-12.47ZM39.19-15.78L39.19-15.78Q38.29-15.78 37.93-16.07 37.56-16.36 37.56-17.1L37.56-17.1 37.56-17.59Q37.56-18.36 37.96-18.63 38.37-18.91 39.21-18.91L39.21-18.91Q40.13-18.91 40.5-18.62 40.87-18.33 40.87-17.59L40.87-17.59 40.87-17.1Q40.87-16.33 40.48-16.06 40.08-15.78 39.19-15.78ZM44.66-14.07L44.66-14.07Q45.16-14.07 45.58-13.82 46-13.57 46.21-13.07L46.21-13.07 50.08-4.23 49.5-3.97 53.44-13.05Q53.89-14.1 54.84-14.04L54.84-14.04Q55.49-14.04 55.9-13.64 56.31-13.23 56.31-12.62L56.31-12.62Q56.31-12.44 56.24-12.23 56.18-12.02 56.1-11.84L56.1-11.84 51.18-1Q50.76-0.05 49.84 0L49.84 0Q49.34 0.08 48.88-0.18 48.42-0.45 48.18-1L48.18-1 43.29-11.84Q43.24-11.97 43.17-12.18 43.11-12.39 43.11-12.68L43.11-12.68Q43.11-13.15 43.53-13.61 43.95-14.07 44.66-14.07ZM69.25-14.07L69.25-14.07Q69.93-14.07 70.38-13.61 70.83-13.15 70.83-12.47L70.83-12.47 70.83-5.79Q70.83-3 69.28-1.37 67.72 0.26 64.8 0.26L64.8 0.26Q61.88 0.26 60.35-1.37 58.81-3 58.81-5.79L58.81-5.79 58.81-12.47Q58.81-13.15 59.25-13.61 59.7-14.07 60.39-14.07L60.39-14.07Q61.07-14.07 61.52-13.61 61.96-13.15 61.96-12.47L61.96-12.47 61.96-5.79Q61.96-4.18 62.67-3.41 63.38-2.63 64.8-2.63L64.8-2.63Q66.25-2.63 66.96-3.41 67.67-4.18 67.67-5.79L67.67-5.79 67.67-12.47Q67.67-13.15 68.12-13.61 68.57-14.07 69.25-14.07ZM77.67-17.86L77.67-1.6Q77.67-0.92 77.2-0.46 76.74 0 76.06 0L76.06 0Q75.4 0 74.96-0.46 74.51-0.92 74.51-1.6L74.51-1.6 74.51-17.86Q74.51-18.54 74.97-19 75.43-19.46 76.11-19.46L76.11-19.46Q76.8-19.46 77.23-19 77.67-18.54 77.67-17.86L77.67-17.86ZM84.32-12.47L84.32-1.6Q84.32-0.92 83.87-0.46 83.42 0 82.74 0L82.74 0Q82.06 0 81.61-0.46 81.16-0.92 81.16-1.6L81.16-1.6 81.16-12.47Q81.16-13.15 81.61-13.61 82.06-14.07 82.74-14.07L82.74-14.07Q83.42-14.07 83.87-13.61 84.32-13.15 84.32-12.47L84.32-12.47ZM82.71-15.78L82.71-15.78Q81.82-15.78 81.45-16.07 81.08-16.36 81.08-17.1L81.08-17.1 81.08-17.59Q81.08-18.36 81.49-18.63 81.9-18.91 82.74-18.91L82.74-18.91Q83.66-18.91 84.03-18.62 84.4-18.33 84.4-17.59L84.4-17.59 84.4-17.1Q84.4-16.33 84-16.06 83.61-15.78 82.71-15.78Z" transform="translate(-1.9700000286102295, 19.459999084472656)"></path></g></g></g><!----></g><defs v-gra="od"></defs></svg>