<svg x="0" y="0" width="34.98685111344174" height="28.715406363625853" filtersec="colorsb5988317412" class="image-svg-svg primary" style="overflow: visible;"><svg xmlns="http://www.w3.org/2000/svg" viewBox="0 0 135.05999755859375 110.85000610351562"><g><path d="M44.15 14.71l44.14 18.65V51L44.15 37.52l-.44-.13L0 62.1V49.54zm0 30.88L0 70.55v8.9l43.86-15.32.29.05.68.13 43.47 8.18V58.66L44.58 45.34zm0 26.23L0 87.24v9.47l44-5.83h.37L88.29 94V80l-43.86-8.28zm0 26.47L0 104.13v6.72h88.29v-9.44l-44-3.14zm54.45-36.5v12.64l36.46 6.86V72.9zm0 49.06h36.46v-6.11l-36.46-2.6zm0-16.08l36.46 2.6v-8.6l-36.47-6.86zm22.07-34.15V25L76.52 0 57.16 13.82 76.52 22l17.66 7.46v23.46z" fill="#00537c"></path></g></svg></svg>