<svg viewBox="0 0 60 60" x="0" y="0" width="69.99535039464921" height="69.99535039464921" class="image-svg-svg bn" style="overflow: visible;"><g hollow-target=""><g><svg fill="#000000" xmlns="http://www.w3.org/2000/svg" xmlns:xlink="http://www.w3.org/1999/xlink" xml:space="preserve" version="1.1" style="shape-rendering: geometricprecision; text-rendering: geometricprecision; overflow: visible;" viewBox="0 0 204 204" x="0" y="0" fill-rule="evenodd" clip-rule="evenodd" width="60" height="60" filtersec="colorsb1913144193" filter="url(#mbheyFXVk_ctbPApwn4tt)"><g transform="scale(1, 1) skewX(0)"><defs><filter id="mbheyFXVk_ctbPApwn4tt"><feColorMatrix type="matrix" values="0 0 0 0 0.09765625  0 0 0 0 0.1015625  0 0 0 0 0.109375  0 0 0 1 0"></feColorMatrix></filter></defs><g><path class="fil0" d="M102 0c56,0 102,46 102,102 0,56 -46,102 -102,102 -56,0 -102,-46 -102,-102 0,-56 46,-102 102,-102zm0 17c-47,0 -85,38 -85,85 0,47 38,86 85,86 47,0 86,-39 86,-86 0,-47 -39,-85 -86,-85z"></path></g></g></svg></g><g><svg xmlns="http://www.w3.org/2000/svg" viewBox="0 0 43.040000915527344 50.209999084472656" width="39" height="39" x="10.5" y="10.5" class="image-svg-icon"><title>F</title><g id="51777cf9-5889-4329-a334-547a8256d3b5" data-name="圖層 2"><g id="6386fc5e-7922-45e0-b9dd-af4415f20a70" data-name="栝鍣 1"><polygon points="21.52 25.11 14.35 25.11 14.35 50.21 21.52 50.21 21.52 35.86 43.04 35.86 43.04 28.69 21.52 28.69 21.52 25.11" fill="#191a1c"></polygon><polygon points="0 0 0 10.62 7.17 10.62 7.17 7.17 43.04 7.17 43.04 0 0 0" fill="#191a1c"></polygon><polygon points="43.04 14.35 0 14.35 0 50.21 7.17 50.21 7.17 21.52 35.86 21.52 43.04 21.52 43.04 14.35" fill="#191a1c"></polygon></g></g></svg></g></g></svg>