<svg data-v-70b83f88="" version="1.0" xmlns="http://www.w3.org/2000/svg" xmlns:xlink="http://www.w3.org/1999/xlink" viewBox="0 0 340.000000 250.000000" preserveAspectRatio="xMidYMid meet" color-interpolation-filters="sRGB" style="margin: auto;"><rect data-v-70b83f88="" x="0" y="0" width="100%" height="100%" fill="#fff" fill-opacity="1" class="background"></rect><rect data-v-70b83f88="" x="0" y="0" width="100%" height="100%" fill="url(#watermark)" fill-opacity="1" class="watermarklayer"></rect><g data-v-70b83f88="" fill="#333" class="icon-text-wrapper icon-svg-group iconsvg" transform="translate(81.36000061035156,83.35077667236328)"><g class="iconsvg-imagesvg" transform="translate(58.639997482299805,0)"><g><rect fill="#333" fill-opacity="0" stroke-width="2" x="0" y="0" width="60" height="59.948444337869425" class="image-rect"></rect><svg x="0" y="0" width="60" height="59.948444337869425" filtersec="colorsb4221032842" class="image-svg-svg primary" style="overflow: visible;"><svg xmlns="http://www.w3.org/2000/svg" viewBox="-0.004477844573557377 -6.30476160168314e-9 97.16532897949219 97.08152770996094"><title>资源 157</title><path d="M73.14 34.05l-8.93-2.37q-19.42-5.2-38.83-10.44a1.83 1.83 0 0 0-2.05.6Q12.53 32.69 1.69 43.5c-.44.44-.79 1-1.45 1.23-.36-.38-.21-.81-.21-1.2C0 29.6.06 15.67 0 1.75 0 .28.47 0 1.82 0Q20 .08 38.17 0a3 3 0 0 1 2.28 1.05L70.36 31a16.79 16.79 0 0 1 2.78 3.05z" fill="#e3444b"></path><path d="M34 24.19l-2 7.33q-5.37 20-10.75 39.91A2.25 2.25 0 0 0 22 74q11.1 11 22.09 22c.25.25.63.42.62.88-.36.31-.79.17-1.18.17H1.74C.27 97.11 0 96.65 0 95.29V59.07a3 3 0 0 1 .92-2.33Q16.83 40.91 32.67 25c.35-.35.72-.67 1.08-1zM63.09 73c.78-3 1.55-5.85 2.33-8.75q5.19-19.35 10.4-38.7a2 2 0 0 0-.56-2.19Q64.39 12.53 53.58 1.69c-.29-.3-.59-.59-.88-.9-.45-.48-.29-.72.3-.79h42.63c1.07 0 1.45.26 1.44 1.39q-.06 18.39 0 36.77a2.83 2.83 0 0 1-.93 2.19q-15.94 15.9-31.82 31.8c-.32.32-.57.76-1.23.85z" fill="#e3444b"></path><path d="M24.18 63.1l16.58 4.45c10.17 2.73 20.34 5.45 30.5 8.21A2.47 2.47 0 0 0 74 75q10.92-11 21.88-21.88c.27-.26.5-.8 1-.58s.18.67.18 1v42.21c0 1.08-.34 1.31-1.35 1.31H58.8a2.38 2.38 0 0 1-1.8-.7Q40.72 80.1 24.47 63.86a.71.71 0 0 1-.29-.76z" fill="#e3444b"></path><path d="M62.45 41.07c-.7 2.61-1.36 5.12-2 7.63-1.08 4.07-2.21 8.13-3.23 12.21-.32 1.27-.72 1.74-2.17 1.33-6.42-1.79-12.88-3.45-19.32-5.15-.84-.22-1.23-.6-1-1.59q2.76-10.05 5.42-20.12c.19-.72.57-.86 1.22-.69l20.26 5.45c.56.15.98.35.82.93z" fill="#52cdc6"></path></svg></svg><!----></g></g><g transform="translate(0,66.94844436645508)"><g data-gra="path-name" fill-rule="" class="tp-name iconsvg-namesvg"><g transform="scale(1)"><g><path d="M13.89-15.29L3.7-15.29C2.29-15.29 1.15-14.15 1.15-12.74L1.15-2.55C1.15-1.14 2.29 0 3.7 0L18.43 0 18.43-1.72 16.35-1.72C16.41-2.14 16.44-2.42 16.44-2.55L16.44-12.74C16.44-14.15 15.29-15.29 13.89-15.29ZM2.87-2.55L2.87-12.74C2.87-13.19 3.25-13.57 3.7-13.57L13.89-13.57C14.34-13.57 14.72-13.19 14.72-12.74L14.72-2.55C14.72-2.1 14.34-1.72 13.89-1.72L3.7-1.72C3.25-1.72 2.87-2.1 2.87-2.55ZM29.86-1.74L22.47-1.74C22.02-1.74 21.64-2.12 21.64-2.57L21.64-12.32 19.9-12.32 19.9-2.57C19.9-1.17 21.06 0 22.47 0L29.86 0C31.28 0 32.45-1.15 32.45-2.57L32.45-12.32 30.71-12.32 30.71-2.57C30.71-2.12 30.31-1.74 29.86-1.74ZM34.3-9.75L34.3-2.57C34.3-1.17 35.46 0 36.87 0L46.85 0 46.85-1.74 36.87-1.74C36.42-1.74 36.04-2.12 36.04-2.57L36.04-5.29 46.85-5.29 46.85-9.75C46.85-11.16 45.68-12.32 44.26-12.32L36.87-12.32C35.46-12.32 34.3-11.15 34.3-9.75ZM36.87-10.58L44.26-10.58C44.71-10.58 45.08-10.2 45.08-9.75L45.08-7.03 36.04-7.03 36.04-9.75C36.04-10.2 36.42-10.58 36.87-10.58ZM48.67-9.75L48.67-2.57C48.67-1.17 49.84 0 51.24 0L61.22 0 61.22-1.74 51.24-1.74C50.79-1.74 50.42-2.12 50.42-2.57L50.42-5.29 61.22-5.29 61.22-9.75C61.22-11.16 60.06-12.32 58.63-12.32L51.24-12.32C49.84-12.32 48.67-11.15 48.67-9.75ZM51.24-10.58L58.63-10.58C59.08-10.58 59.46-10.2 59.46-9.75L59.46-7.03 50.42-7.03 50.42-9.75C50.42-10.2 50.79-10.58 51.24-10.58ZM66.02-10.58L73.41-10.58C73.86-10.58 74.24-10.2 74.24-9.75L74.24 0 75.98 0 75.98-9.75C75.98-11.15 74.82-12.32 73.41-12.32L63.43-12.32 63.43 0 65.17 0 65.17-9.75C65.17-10.2 65.58-10.58 66.02-10.58ZM88.05-12.32L80.66-12.32C79.25-12.32 78.09-11.15 78.09-9.75L78.09-7.86C78.09-6.45 79.25-5.29 80.66-5.29L88.05-5.29C88.5-5.29 88.87-4.91 88.87-4.46L88.87-2.57C88.87-2.12 88.5-1.74 88.05-1.74L80.66-1.74C80.21-1.74 79.83-2.12 79.83-2.57L79.83-2.74 78.09-2.74 78.09-2.57C78.09-1.17 79.25 0 80.66 0L88.05 0C89.47 0 90.64-1.15 90.64-2.57L90.64-4.46C90.64-5.88 89.47-7.03 88.05-7.03L80.66-7.03C80.21-7.03 79.83-7.41 79.83-7.86L79.83-9.75C79.83-10.2 80.21-10.58 80.66-10.58L88.05-10.58C88.5-10.58 88.87-10.2 88.87-9.75L88.87-9.58 90.64-9.58 90.64-9.75C90.64-11.16 89.47-12.32 88.05-12.32ZM100.36-6.77L105.29-6.77 110.98 0 113.21 0 106.8-7.65 113.19-15.29 110.98-15.29 105.29-8.52 100.36-8.52 100.36-15.29 98.62-15.29 98.62 0 100.36 0ZM115.44 0L117.18 0 117.18-12.32 115.44-12.32ZM115.44-16.35L115.44-14.61 117.18-14.61 117.18-16.35ZM129.73-12.32L122.34-12.32C120.94-12.32 119.77-11.15 119.77-9.75L119.77-7.86C119.77-6.45 120.94-5.29 122.34-5.29L129.73-5.29C130.18-5.29 130.56-4.91 130.56-4.46L130.56-2.57C130.56-2.12 130.18-1.74 129.73-1.74L122.34-1.74C121.89-1.74 121.51-2.12 121.51-2.57L121.51-2.74 119.77-2.74 119.77-2.57C119.77-1.17 120.94 0 122.34 0L129.73 0C131.15 0 132.32-1.15 132.32-2.57L132.32-4.46C132.32-5.88 131.16-7.03 129.73-7.03L122.34-7.03C121.89-7.03 121.51-7.41 121.51-7.86L121.51-9.75C121.51-10.2 121.89-10.58 122.34-10.58L129.73-10.58C130.18-10.58 130.56-10.2 130.56-9.75L130.56-9.58 132.32-9.58 132.32-9.75C132.32-11.16 131.16-12.32 129.73-12.32ZM134.43 0L136.17 0 136.17-12.32 134.43-12.32ZM134.43-16.35L134.43-14.61 136.17-14.61 136.17-16.35ZM151.67-12.32L145.89-1.7 140.12-12.32 138.08-12.32 144.87 0 146.89 0 153.71-12.32ZM165.5-1.74L158.11-1.74C157.66-1.74 157.28-2.12 157.28-2.57L157.28-12.32 155.54-12.32 155.54-2.57C155.54-1.17 156.7 0 158.11 0L165.5 0C166.92 0 168.09-1.15 168.09-2.57L168.09-12.32 166.34-12.32 166.34-2.57C166.34-2.12 165.94-1.74 165.5-1.74ZM172.84 0L174.92 0 174.92-1.74 172.84-1.74C172.39-1.74 172.02-2.12 172.02-2.57L172.02-16.35 170.27-16.35 170.27-2.57C170.27-1.17 171.44 0 172.84 0ZM176.69 0L178.43 0 178.43-12.32 176.69-12.32ZM176.69-16.35L176.69-14.61 178.43-14.61 178.43-16.35Z" transform="translate(-1.149999976158142, 16.350000381469727)"></path></g><!----><!----><!----><!----><!----><!----><!----></g></g><!----></g></g><defs v-gra="od"></defs></svg>