<svg data-v-70b83f88="" version="1.0" xmlns="http://www.w3.org/2000/svg" xmlns:xlink="http://www.w3.org/1999/xlink" viewBox="0 0 340.000000 250.000000" preserveAspectRatio="xMidYMid meet" color-interpolation-filters="sRGB" style="margin: auto;"><rect data-v-70b83f88="" x="0" y="0" width="100%" height="100%" fill="#fff" fill-opacity="1" class="background"></rect><rect data-v-70b83f88="" x="0" y="0" width="100%" height="100%" fill="url(#watermark)" fill-opacity="1" class="watermarklayer"></rect><g data-v-70b83f88="" fill="#1d76bb" class="icon-text-wrapper icon-svg-group iconsvg" transform="translate(73.29994201660156,90.35796737670898)"><g class="iconsvg-imagesvg" transform="translate(0,0)"><g><rect fill="#1d76bb" fill-opacity="0" stroke-width="2" x="0" y="0" width="59.99999999999999" height="69.28406466512702" class="image-rect"></rect><svg x="0" y="0" width="59.99999999999999" height="69.28406466512702" filtersec="colorsb1003147519" class="image-svg-svg primary" style="overflow: visible;"><svg xmlns="http://www.w3.org/2000/svg" viewBox="0 0 167.1300048828125 192.989990234375"><g><g><path fill="#808184" d="M109.57 177.97l57.56-33.23-57.56-28.96v62.19z"></path><path fill="#bbbcbe" d="M109.57 15.01v100.77l57.56 28.96V48.25l-57.56-33.24z"></path><path fill="#1d76bb" d="M31.14 162.72v-33.64L0 144.74l31.14 17.98z"></path><path fill="#26aae1" d="M0 48.25v96.49l31.14-15.66V30.27L0 48.25zM39.22 25.61v99.4l31.13-15.66V7.63L39.22 25.61z"></path><path fill="#1d76bb" d="M39.22 167.38l31.13 17.83v-75.86l-31.13 15.66v42.37zM83.56 102.7l-5.13 2.59v84.73l5.13 2.97 26.01-15.02v-62.19L83.56 102.7z"></path><path fill="#26aae1" d="M109.57 115.78V15.01L83.56 0l-5.13 2.96v102.33l5.13-2.59 26.01 13.08z"></path></g></g></svg></svg><!----></g></g><g transform="translate(67.00000381469727,5.698604583740234)"><g data-gra="path-name" fill-rule="" class="tp-name iconsvg-namesvg"><g transform="scale(1)"><g><path d="M2.36-7.87L2.36-19.41Q2.36-21.29 2.91-22.61 3.45-23.93 4.29-24.81 5.13-25.69 6.15-26.18 7.17-26.68 8.13-26.92 9.09-27.16 9.86-27.22 10.64-27.28 11-27.28L11-27.28 11.66-27.28Q12.03-27.28 12.8-27.22 13.56-27.16 14.52-26.92 15.48-26.68 16.49-26.18 17.49-25.69 18.33-24.81 19.16-23.93 19.69-22.61 20.23-21.29 20.23-19.41L20.23-19.41 20.23-7.87Q20.23-6.41 19.89-5.27 19.55-4.13 18.99-3.22L18.99-3.22 20.92-1.47Q21.2-1.2 21.39-0.9 21.58-0.6 21.58 0.08L21.58 0.08Q21.58 0.37 21.45 0.77 21.31 1.16 20.92 1.55L20.92 1.55Q20.54 1.9 20.16 2.01 19.78 2.13 19.45 2.13L19.45 2.13Q18.77 2.13 18.42 1.95 18.08 1.76 17.86 1.55L17.86 1.55 15.69-0.5Q14.96-0.25 14.33-0.12 13.7 0.02 13.18 0.08 12.67 0.14 12.28 0.15 11.9 0.15 11.66 0.15L11.66 0.15 11 0.15Q10.64 0.15 9.86 0.1 9.09 0.04 8.13-0.21 7.17-0.46 6.15-0.98 5.13-1.49 4.29-2.38 3.45-3.27 2.91-4.61 2.36-5.95 2.36-7.87L2.36-7.87ZM8.8-19.76L8.8-7.13Q8.83-6.41 9.13-5.87L9.13-5.87Q9.38-5.39 9.89-5 10.4-4.61 11.35-4.61L11.35-4.61Q12.28-4.61 12.79-5 13.29-5.39 13.54-5.87L13.54-5.87Q13.81-6.41 13.87-7.13L13.87-7.13 13.87-19.76Q13.81-20.46 13.54-21L13.54-21Q13.29-21.47 12.79-21.85 12.28-22.24 11.35-22.24L11.35-22.24Q10.4-22.24 9.89-21.85 9.38-21.47 9.13-21L9.13-21Q8.83-20.46 8.8-19.76L8.8-19.76ZM25.15-7.94L25.15-22.71Q25.15-23.54 25.23-24.33 25.32-25.13 25.64-25.75 25.96-26.37 26.6-26.75 27.24-27.12 28.36-27.12L28.36-27.12Q29.49-27.12 30.14-26.75 30.79-26.37 31.11-25.75 31.42-25.13 31.5-24.33 31.58-23.54 31.58-22.71L31.58-22.71 31.58-7.44Q31.64-6.59 31.93-5.93L31.93-5.93Q32.04-5.64 32.24-5.37 32.43-5.1 32.69-4.88 32.96-4.67 33.31-4.54 33.67-4.42 34.14-4.42L34.14-4.42Q34.6-4.42 34.97-4.54 35.34-4.67 35.6-4.88 35.86-5.1 36.06-5.37 36.25-5.64 36.37-5.93L36.37-5.93Q36.66-6.59 36.69-7.44L36.69-7.44 36.69-22.71Q36.69-23.54 36.77-24.33 36.85-25.13 37.17-25.75 37.49-26.37 38.13-26.75 38.77-27.12 39.91-27.12L39.91-27.12Q41.03-27.12 41.67-26.75 42.31-26.37 42.63-25.75 42.95-25.13 43.04-24.33 43.13-23.54 43.13-22.71L43.13-22.71 43.13-7.94Q43.13-5.93 42.48-4.42 41.83-2.91 40.64-1.89 39.45-0.87 37.79-0.36 36.13 0.15 34.14 0.15L34.14 0.15Q32.12 0.15 30.48-0.38 28.83-0.91 27.64-1.94 26.45-2.96 25.8-4.48 25.15-5.99 25.15-7.94L25.15-7.94ZM51.42-27.12L59.01-27.12Q59.79-27.12 60.58-27.07 61.38-27.01 62.02-26.74 62.66-26.46 63.06-25.91 63.47-25.36 63.47-24.37L63.47-24.37Q63.47-23.38 63.06-22.83 62.66-22.28 62.02-22.01 61.38-21.74 60.58-21.68 59.79-21.62 59.01-21.62L59.01-21.62 54.4-21.62 54.4-16.35 56.84-16.35Q57.62-16.35 58.4-16.3 59.19-16.25 59.8-15.99 60.41-15.73 60.8-15.2 61.18-14.67 61.18-13.72L61.18-13.72Q61.18-12.75 60.8-12.23 60.41-11.7 59.8-11.44 59.19-11.18 58.4-11.13 57.62-11.08 56.84-11.08L56.84-11.08 54.4-11.08 54.4-5.5 59.01-5.5Q59.79-5.5 60.58-5.44 61.38-5.39 62.02-5.12 62.66-4.86 63.06-4.31 63.47-3.76 63.47-2.79L63.47-2.79Q63.47-1.78 63.05-1.22 62.64-0.66 62-0.39 61.36-0.12 60.56-0.06 59.77 0 59.01 0L59.01 0 51.42 0Q50.33 0 49.74-0.39 49.15-0.77 48.88-1.4 48.61-2.03 48.56-2.83 48.51-3.62 48.51-4.46L48.51-4.46 48.51-22.67Q48.51-23.5 48.56-24.3 48.61-25.09 48.88-25.72 49.15-26.35 49.74-26.74 50.33-27.12 51.42-27.12L51.42-27.12ZM70.52-27.12L78.12-27.12Q78.89-27.12 79.69-27.07 80.48-27.01 81.12-26.74 81.76-26.46 82.17-25.91 82.57-25.36 82.57-24.37L82.57-24.37Q82.57-23.38 82.17-22.83 81.76-22.28 81.12-22.01 80.48-21.74 79.69-21.68 78.89-21.62 78.12-21.62L78.12-21.62 73.51-21.62 73.51-16.35 75.95-16.35Q76.72-16.35 77.51-16.3 78.29-16.25 78.9-15.99 79.51-15.73 79.9-15.2 80.29-14.67 80.29-13.72L80.29-13.72Q80.29-12.75 79.9-12.23 79.51-11.7 78.9-11.44 78.29-11.18 77.51-11.13 76.72-11.08 75.95-11.08L75.95-11.08 73.51-11.08 73.51-5.5 78.12-5.5Q78.89-5.5 79.69-5.44 80.48-5.39 81.12-5.12 81.76-4.86 82.17-4.31 82.57-3.76 82.57-2.79L82.57-2.79Q82.57-1.78 82.16-1.22 81.74-0.66 81.1-0.39 80.46-0.12 79.67-0.06 78.87 0 78.12 0L78.12 0 70.52 0Q69.44 0 68.85-0.39 68.25-0.77 67.98-1.4 67.71-2.03 67.66-2.83 67.62-3.62 67.62-4.46L67.62-4.46 67.62-22.67Q67.62-23.5 67.66-24.3 67.71-25.09 67.98-25.72 68.25-26.35 68.85-26.74 69.44-27.12 70.52-27.12L70.52-27.12ZM95.59-24.72L101.75-8.02 102.22-8.02 102.22-24.1Q102.22-24.72 102.3-25.27 102.37-25.83 102.63-26.23 102.9-26.64 103.41-26.88 103.92-27.12 104.81-27.12L104.81-27.12Q105.8-27.12 106.37-26.88 106.94-26.64 107.24-26.23 107.53-25.83 107.6-25.27 107.68-24.72 107.68-24.1L107.68-24.1 107.68-4.46Q107.68-3.6 107.63-2.81 107.58-2.01 107.32-1.39 107.06-0.76 106.47-0.38 105.88 0 104.81 0L104.81 0 102.26 0Q101.35 0 100.74-0.36 100.13-0.72 99.72-1.23 99.31-1.74 99.07-2.31 98.83-2.87 98.69-3.25L98.69-3.25 92.84-19.1 92.38-19.1 92.38-3.02Q92.38-2.4 92.3-1.85 92.22-1.3 91.96-0.89 91.7-0.48 91.18-0.24 90.67 0 89.78 0L89.78 0Q88.77 0 88.19-0.24 87.61-0.48 87.32-0.89 87.03-1.3 86.95-1.85 86.87-2.4 86.87-3.02L86.87-3.02 86.87-22.67Q86.87-23.5 86.92-24.3 86.97-25.11 87.24-25.74 87.51-26.37 88.1-26.75 88.69-27.12 89.78-27.12L89.78-27.12 92.34-27.12Q93.31-27.12 93.92-26.75 94.53-26.37 94.91-25.92L94.91-25.92Q95.34-25.4 95.59-24.72L95.59-24.72ZM118.07-20.3L118.07-20.3Q118.08-19.49 118.54-18.84 119-18.19 119.74-17.61 120.49-17.03 121.44-16.48 122.39-15.93 123.38-15.32 124.38-14.7 125.33-13.99 126.28-13.27 127.04-12.36 127.79-11.45 128.26-10.31 128.72-9.16 128.76-7.71L128.76-7.71 128.76-7.56Q128.76-5.97 128.37-4.79 127.99-3.6 127.35-2.75 126.71-1.9 125.85-1.35 125-0.79 124.06-0.46 123.12-0.14 122.16 0 121.2 0.14 120.35 0.15L120.35 0.15 120.16 0.15Q118.51 0.15 117.27-0.17 116.03-0.5 115.14-1.06 114.25-1.61 113.66-2.32 113.07-3.04 112.72-3.81 112.37-4.57 112.21-5.33 112.06-6.08 112.06-6.74L112.06-6.74Q112.06-7.42 112.29-7.92 112.52-8.43 112.9-8.75 113.28-9.07 113.77-9.22 114.27-9.38 114.81-9.38L114.81-9.38Q115.31-9.38 115.85-9.22 116.38-9.07 116.82-8.75 117.25-8.43 117.53-7.93 117.81-7.44 117.83-6.78L117.83-6.78Q117.87-5.33 118.49-4.8 119.11-4.26 120.27-4.26L120.27-4.26Q120.86-4.28 121.35-4.41 121.84-4.53 122.19-4.85 122.54-5.17 122.74-5.71 122.95-6.24 122.95-7.05L122.95-7.05Q122.95-8.06 122.49-8.87 122.04-9.69 121.3-10.38 120.56-11.08 119.62-11.71 118.67-12.34 117.68-12.97 116.69-13.6 115.75-14.29 114.81-14.98 114.06-15.79 113.3-16.6 112.84-17.59 112.39-18.58 112.37-19.84L112.37-19.84 112.37-20.15Q112.39-22.22 112.92-23.6 113.45-24.97 114.49-25.79 115.53-26.6 117.04-26.94 118.55-27.28 120.51-27.28L120.51-27.28 121.01-27.28Q122.79-27.28 124.03-26.89 125.27-26.5 126.1-25.9 126.92-25.3 127.39-24.55 127.87-23.79 128.1-23.06 128.33-22.32 128.39-21.68 128.45-21.04 128.45-20.65L128.45-20.65Q128.45-20.07 128.23-19.6 128-19.12 127.63-18.79 127.25-18.46 126.74-18.28 126.22-18.1 125.62-18.1L125.62-18.1Q125.16-18.1 124.69-18.28 124.23-18.46 123.86-18.75 123.49-19.04 123.26-19.42 123.03-19.8 123.03-20.19L123.03-20.19Q123.03-21.78 122.45-22.4 121.88-23.02 120.78-23.02L120.78-23.02Q120.25-23.02 119.76-22.96 119.27-22.9 118.89-22.64 118.51-22.38 118.29-21.83 118.07-21.29 118.07-20.3Z" transform="translate(-2.3600001335144043, 27.280000686645508)"></path></g><!----><!----><!----><!----><!----><!----><g data-gra="path-name-1" fill="#1d76bb" transform="translate(0,32.40999984741211)"><g transform="scale(1.01461)"><path d="M2.48-4.08L2.48-20.79Q2.48-21.55 2.55-22.28 2.62-23 2.89-23.57 3.16-24.14 3.69-24.48 4.22-24.83 5.14-24.83L5.14-24.83Q6.08-24.83 6.63-24.48 7.18-24.14 7.46-23.57 7.73-23 7.8-22.28 7.87-21.55 7.87-20.79L7.87-20.79 7.87-14.4 9.9-14.4Q10.48-15.93 11.07-17.4L11.07-17.4Q11.32-18.02 11.58-18.68 11.85-19.35 12.1-19.99 12.36-20.63 12.6-21.22 12.84-21.81 13.05-22.28L13.05-22.28Q13.27-22.77 13.51-23.23 13.74-23.69 14.06-24.05 14.38-24.4 14.78-24.62 15.18-24.83 15.71-24.83L15.71-24.83Q16.23-24.83 16.72-24.67 17.22-24.51 17.61-24.19 18-23.87 18.24-23.41 18.48-22.95 18.48-22.35L18.48-22.35Q18.48-21.89 18.33-21.26 18.18-20.63 17.91-20.01L17.91-20.01 14.72-12.45Q15.64-12.11 16.35-11.35L16.35-11.35Q16.65-11.03 16.95-10.58 17.24-10.13 17.47-9.52 17.7-8.92 17.84-8.15 17.98-7.38 17.98-6.42L17.98-6.42 17.98-3.9Q17.98-3.71 18.13-3.58 18.27-3.46 18.41-3.3L18.41-3.3Q18.76-2.89 18.82-2.59 18.87-2.29 18.87-2.09L18.87-2.09Q18.87-1.45 18.63-1.03 18.39-0.6 17.99-0.34 17.59-0.07 17.07 0.04 16.55 0.14 16 0.14L16 0.14Q15.41 0.14 14.81-0.04 14.21-0.21 13.71-0.58 13.21-0.94 12.9-1.49 12.59-2.04 12.59-2.77L12.59-2.77 12.59-6.42Q12.59-7.18 12.49-7.85 12.38-8.51 12.08-9 11.78-9.49 11.24-9.76 10.71-10.04 9.86-10.04L9.86-10.04 7.87-10.04 7.87-4.08Q7.87-3.3 7.8-2.57 7.73-1.84 7.46-1.27 7.18-0.69 6.63-0.35 6.08 0 5.14 0L5.14 0Q4.22 0 3.69-0.35 3.16-0.69 2.89-1.27 2.62-1.84 2.55-2.57 2.48-3.3 2.48-4.08L2.48-4.08ZM23.23-4.08L23.23-20.75Q23.23-21.51 23.31-22.24 23.39-22.97 23.69-23.54 23.98-24.12 24.56-24.47 25.15-24.83 26.18-24.83L26.18-24.83Q27.21-24.83 27.79-24.47 28.38-24.12 28.67-23.54 28.96-22.97 29.04-22.24 29.12-21.51 29.12-20.75L29.12-20.75 29.12-4.08Q29.12-3.3 29.05-2.57 28.98-1.84 28.69-1.27 28.39-0.69 27.8-0.35 27.21 0 26.18 0L26.18 0Q25.15 0 24.56-0.35 23.98-0.69 23.69-1.27 23.39-1.84 23.31-2.57 23.23-3.3 23.23-4.08L23.23-4.08ZM39.12-18.59L39.12-18.59Q39.14-17.84 39.56-17.25 39.98-16.65 40.66-16.12 41.34-15.59 42.21-15.08 43.08-14.58 43.99-14.02 44.91-13.46 45.77-12.8 46.64-12.15 47.34-11.32 48.03-10.48 48.45-9.44 48.88-8.39 48.91-7.06L48.91-7.06 48.91-6.92Q48.91-5.46 48.56-4.38 48.2-3.3 47.62-2.52 47.03-1.74 46.25-1.23 45.47-0.73 44.61-0.43 43.75-0.12 42.88 0 42 0.12 41.22 0.14L41.22 0.14 41.04 0.14Q39.53 0.14 38.4-0.16 37.26-0.46 36.45-0.97 35.63-1.47 35.09-2.13 34.55-2.78 34.23-3.48 33.91-4.19 33.77-4.88 33.63-5.57 33.63-6.17L33.63-6.17Q33.63-6.79 33.84-7.25 34.05-7.71 34.4-8.01 34.74-8.3 35.2-8.44 35.65-8.58 36.14-8.58L36.14-8.58Q36.61-8.58 37.09-8.44 37.58-8.3 37.98-8.01 38.38-7.71 38.64-7.26 38.89-6.81 38.91-6.21L38.91-6.21Q38.95-4.88 39.51-4.39 40.08-3.9 41.15-3.9L41.15-3.9Q41.68-3.92 42.13-4.03 42.58-4.15 42.9-4.44 43.22-4.74 43.41-5.22 43.59-5.71 43.59-6.46L43.59-6.46Q43.59-7.38 43.18-8.12 42.76-8.87 42.09-9.51 41.41-10.14 40.54-10.72 39.67-11.3 38.77-11.87 37.86-12.45 37-13.08 36.14-13.71 35.45-14.45 34.76-15.2 34.34-16.1 33.93-17.01 33.91-18.16L33.91-18.16 33.91-18.44Q33.93-20.34 34.42-21.6 34.9-22.86 35.85-23.61 36.8-24.35 38.18-24.66 39.57-24.97 41.36-24.97L41.36-24.97 41.82-24.97Q43.45-24.97 44.59-24.62 45.72-24.26 46.48-23.71 47.23-23.16 47.66-22.47 48.1-21.78 48.31-21.11 48.52-20.43 48.58-19.85 48.63-19.26 48.63-18.91L48.63-18.91Q48.63-18.37 48.43-17.94 48.22-17.5 47.88-17.2 47.53-16.9 47.06-16.73 46.59-16.56 46.04-16.56L46.04-16.56Q45.62-16.56 45.19-16.73 44.76-16.9 44.43-17.17 44.09-17.43 43.88-17.78 43.66-18.13 43.66-18.48L43.66-18.48Q43.66-19.93 43.14-20.5 42.62-21.07 41.61-21.07L41.61-21.07Q41.13-21.07 40.68-21.02 40.22-20.96 39.88-20.72 39.53-20.48 39.33-19.99 39.12-19.49 39.12-18.59ZM53.03-4.08L53.03-20.75Q53.03-21.51 53.11-22.24 53.19-22.97 53.48-23.54 53.77-24.12 54.36-24.47 54.94-24.83 55.97-24.83L55.97-24.83Q57-24.83 57.59-24.47 58.17-24.12 58.46-23.54 58.76-22.97 58.84-22.24 58.92-21.51 58.92-20.75L58.92-20.75 58.92-4.08Q58.92-3.3 58.85-2.57 58.77-1.84 58.48-1.27 58.19-0.69 57.6-0.35 57 0 55.97 0L55.97 0Q54.94 0 54.36-0.35 53.77-0.69 53.48-1.27 53.19-1.84 53.11-2.57 53.03-3.3 53.03-4.08L53.03-4.08ZM76.83-24.83L76.83-24.83Q77.34-24.83 77.82-24.65 78.3-24.47 78.67-24.17 79.03-23.87 79.24-23.45 79.45-23.04 79.45-22.56L79.45-22.56Q79.45-22.33 79.43-22.12 79.4-21.92 79.37-21.76L79.37-21.76Q79.31-21.57 79.28-21.42L79.28-21.42Q78.07-16.69 76.76-11.77 75.45-6.85 74.24-2.13L74.24-2.13Q73.97-1.53 73.53-1.06L73.53-1.06Q73.16-0.66 72.56-0.33 71.97 0 71.08 0L71.08 0 70.52 0Q69.63 0 69.03-0.33 68.42-0.66 68.05-1.06L68.05-1.06Q67.61-1.53 67.36-2.13L67.36-2.13 62.32-21.42Q62.27-21.57 62.23-21.76L62.23-21.76Q62.14-22.12 62.14-22.56L62.14-22.56Q62.14-23.04 62.35-23.45 62.55-23.87 62.91-24.17 63.26-24.47 63.74-24.65 64.22-24.83 64.77-24.83L64.77-24.83Q65.62-24.83 66.14-24.46 66.67-24.08 66.97-23.62L66.97-23.62Q67.31-23.09 67.47-22.42L67.47-22.42Q67.68-21.57 67.93-20.49 68.17-19.42 68.42-18.27 68.67-17.11 68.93-15.92 69.19-14.72 69.42-13.6L69.42-13.6Q69.97-10.98 70.52-8.23L70.52-8.23 71.08-8.23Q71.69-10.98 72.25-13.6L72.25-13.6Q72.48-14.72 72.74-15.92 73-17.11 73.25-18.27 73.5-19.42 73.73-20.49 73.96-21.57 74.13-22.42L74.13-22.42Q74.31-23.09 74.65-23.62L74.65-23.62Q74.95-24.08 75.46-24.46 75.98-24.83 76.83-24.83ZM82.11-7.27L82.11-20.79Q82.11-21.55 82.19-22.28 82.27-23 82.57-23.57 82.86-24.14 83.44-24.48 84.03-24.83 85.06-24.83L85.06-24.83Q86.09-24.83 86.68-24.48 87.28-24.14 87.57-23.57 87.86-23 87.93-22.28 88-21.55 88-20.79L88-20.79 88-6.81Q88.06-6.03 88.32-5.43L88.32-5.43Q88.43-5.16 88.61-4.91 88.78-4.66 89.02-4.47 89.26-4.27 89.59-4.16 89.92-4.04 90.34-4.04L90.34-4.04Q90.77-4.04 91.11-4.16 91.44-4.27 91.68-4.47 91.92-4.66 92.1-4.91 92.28-5.16 92.38-5.43L92.38-5.43Q92.65-6.03 92.68-6.81L92.68-6.81 92.68-20.79Q92.68-21.55 92.76-22.28 92.83-23 93.12-23.57 93.41-24.14 94-24.48 94.58-24.83 95.63-24.83L95.63-24.83Q96.66-24.83 97.24-24.48 97.83-24.14 98.12-23.57 98.41-23 98.49-22.28 98.57-21.55 98.57-20.79L98.57-20.79 98.57-7.27Q98.57-5.43 97.98-4.04 97.38-2.66 96.29-1.73 95.2-0.8 93.69-0.33 92.17 0.14 90.34 0.14L90.34 0.14Q88.5 0.14 86.99-0.35 85.48-0.83 84.39-1.77 83.3-2.71 82.71-4.1 82.11-5.48 82.11-7.27L82.11-7.27ZM104.18-2.62L104.18-20.75Q104.18-21.51 104.25-22.24 104.32-22.97 104.59-23.54 104.87-24.12 105.4-24.47 105.93-24.83 106.87-24.83L106.87-24.83Q107.88-24.83 108.45-24.47 109.02-24.12 109.29-23.54 109.55-22.97 109.61-22.24 109.68-21.51 109.68-20.75L109.68-20.75 109.68-5.21 113.15-5.21Q113.88-5.21 114.59-5.14 115.3-5.07 115.86-4.81 116.41-4.54 116.75-4.03 117.09-3.51 117.09-2.62L117.09-2.62Q117.09-1.72 116.75-1.2 116.41-0.67 115.86-0.41 115.3-0.14 114.59-0.07 113.88 0 113.15 0L113.15 0 108.11 0Q107.17 0 106.45-0.07 105.72-0.14 105.21-0.41 104.71-0.67 104.44-1.2 104.18-1.72 104.18-2.62L104.18-2.62ZM121.17-4.08L121.17-20.75Q121.17-21.51 121.25-22.24 121.33-22.97 121.62-23.54 121.91-24.12 122.5-24.47 123.08-24.83 124.11-24.83L124.11-24.83Q125.14-24.83 125.73-24.47 126.31-24.12 126.6-23.54 126.9-22.97 126.98-22.24 127.06-21.51 127.06-20.75L127.06-20.75 127.06-4.08Q127.06-3.3 126.98-2.57 126.91-1.84 126.62-1.27 126.33-0.69 125.73-0.35 125.14 0 124.11 0L124.11 0Q123.08 0 122.5-0.35 121.91-0.69 121.62-1.27 121.33-1.84 121.25-2.57 121.17-3.3 121.17-4.08L121.17-4.08Z" transform="translate(-2.4800000190734863, 24.969999313354492)"></path></g></g></g></g><!----></g></g><defs v-gra="od"></defs></svg>