<svg xmlns="http://www.w3.org/2000/svg" x="0" y="0" filtersec="colorsb1003147519" class="image-svg-svg primary" style="overflow: visible;"><svg xmlns="http://www.w3.org/2000/svg" viewBox="0 0 167.1300048828125 192.989990234375"><g><g><path fill="#808184" d="M109.57 177.97l57.56-33.23-57.56-28.96v62.19z"></path><path fill="#bbbcbe" d="M109.57 15.01v100.77l57.56 28.96V48.25l-57.56-33.24z"></path><path fill="#1d76bb" d="M31.14 162.72v-33.64L0 144.74l31.14 17.98z"></path><path fill="#26aae1" d="M0 48.25v96.49l31.14-15.66V30.27L0 48.25zM39.22 25.61v99.4l31.13-15.66V7.63L39.22 25.61z"></path><path fill="#1d76bb" d="M39.22 167.38l31.13 17.83v-75.86l-31.13 15.66v42.37zM83.56 102.7l-5.13 2.59v84.73l5.13 2.97 26.01-15.02v-62.19L83.56 102.7z"></path><path fill="#26aae1" d="M109.57 115.78V15.01L83.56 0l-5.13 2.96v102.33l5.13-2.59 26.01 13.08z"></path></g></g></svg></svg>