<svg data-v-70b83f88="" version="1.0" xmlns="http://www.w3.org/2000/svg" xmlns:xlink="http://www.w3.org/1999/xlink" viewBox="0 0 340.000000 250.000000" preserveAspectRatio="xMidYMid meet" color-interpolation-filters="sRGB" style="margin: auto;"><rect data-v-70b83f88="" x="0" y="0" width="100%" height="100%" fill="#040e29" fill-opacity="1" class="background"></rect><rect data-v-70b83f88="" x="0" y="0" width="100%" height="100%" fill="url(#watermark)" fill-opacity="1" class="watermarklayer"></rect><g data-v-70b83f88="" fill="#ffffff" class="icon-text-wrapper icon-svg-group iconsvg" transform="translate(81.58499908447266,73.77232360839844)"><g fill="#191a1c" class="iconsvg-imagesvg icon_container" transform="translate(53.41732406616211,0)" mask="url(#4157ceb4-72c9-4d03-a882-28d83e1e85ef)"><rect fill="#ffffff" fill-opacity="0" stroke-width="2" x="0" y="0" width="69.99535039464921" height="69.99535039464921" class="image-rect"></rect><svg viewBox="0 0 60 60" x="0" y="0" width="69.99535039464921" height="69.99535039464921" class="image-svg-svg bn" style="overflow: visible;"><g hollow-target=""><g><svg fill="#000000" xmlns="http://www.w3.org/2000/svg" xmlns:xlink="http://www.w3.org/1999/xlink" xml:space="preserve" version="1.1" style="shape-rendering: geometricprecision; text-rendering: geometricprecision; overflow: visible;" viewBox="0 0 204 204" x="0" y="0" fill-rule="evenodd" clip-rule="evenodd" width="60" height="60" filtersec="colorsb1913144193" filter="url(#mbheyFXVk_ctbPApwn4tt)"><g transform="scale(1, 1) skewX(0)"><defs><filter id="mbheyFXVk_ctbPApwn4tt"><feColorMatrix type="matrix" values="0 0 0 0 0.09765625  0 0 0 0 0.1015625  0 0 0 0 0.109375  0 0 0 1 0"></feColorMatrix></filter></defs><g><path class="fil0" d="M102 0c56,0 102,46 102,102 0,56 -46,102 -102,102 -56,0 -102,-46 -102,-102 0,-56 46,-102 102,-102zm0 17c-47,0 -85,38 -85,85 0,47 38,86 85,86 47,0 86,-39 86,-86 0,-47 -39,-85 -86,-85z"></path></g></g></svg></g><g><svg xmlns="http://www.w3.org/2000/svg" viewBox="0 0 43.040000915527344 50.209999084472656" width="39" height="39" x="10.5" y="10.5" class="image-svg-icon"><title>F</title><g id="51777cf9-5889-4329-a334-547a8256d3b5" data-name="圖層 2"><g id="6386fc5e-7922-45e0-b9dd-af4415f20a70" data-name="栝鍣 1"><polygon points="21.52 25.11 14.35 25.11 14.35 50.21 21.52 50.21 21.52 35.86 43.04 35.86 43.04 28.69 21.52 28.69 21.52 25.11" fill="#191a1c"></polygon><polygon points="0 0 0 10.62 7.17 10.62 7.17 7.17 43.04 7.17 43.04 0 0 0" fill="#191a1c"></polygon><polygon points="43.04 14.35 0 14.35 0 50.21 7.17 50.21 7.17 21.52 35.86 21.52 43.04 21.52 43.04 14.35" fill="#191a1c"></polygon></g></g></svg></g></g></svg><!----><rect v-gra="id" width="81.99535369873047" height="81.99535369873047" transform="translate(-6, -6)" style="pointer-events:none;" fill="url(#NtcWIZsxV_oSLI-jA7e4l)"></rect></g><g transform="translate(0,76.99535369873047)"><g data-gra="path-name" fill-rule="" class="tp-name iconsvg-namesvg"><g transform="scale(1)"><g><path d="M16.17-12.18L16.17-8.72Q16.17-3.6 13.41-1.28L13.41-1.28 16.26 1.28 13.64 3.69 9.84 0.21 8.75 0.28Q5.25 0.28 3.27-2.09 1.29-4.47 1.28-8.66L1.28-8.66 1.28-11.89Q1.28-16.15 3.25-18.53 5.22-20.92 8.72-20.92L8.72-20.92Q12.13-20.92 14.12-18.63 16.1-16.33 16.17-12.18L16.17-12.18ZM11.99-8.62L11.99-11.92Q11.99-14.74 11.18-16.09 10.38-17.44 8.72-17.44 7.06-17.44 6.27-16.13 5.47-14.81 5.44-12.13L5.44-12.13 5.44-8.72Q5.44-5.88 6.26-4.54 7.07-3.19 8.75-3.19L8.75-3.19Q10.38-3.19 11.18-4.53 11.98-5.87 11.99-8.62L11.99-8.62ZM26.64 0L26.52-1.4Q25.28 0.28 23.18 0.28L23.18 0.28Q21.07 0.28 19.97-1.17 18.88-2.62 18.88-5.4L18.88-5.4 18.88-15.34 22.89-15.34 22.89-5.3Q22.92-3.06 24.38-3.06L24.38-3.06Q25.76-3.06 26.37-4.25L26.37-4.25 26.37-15.34 30.41-15.34 30.41 0 26.64 0ZM39.47 0.28L39.47 0.28Q36.38 0.28 34.65-1.56 32.92-3.4 32.92-6.83L32.92-6.83 32.92-8.05Q32.92-11.68 34.5-13.65 36.09-15.62 39.05-15.62L39.05-15.62Q41.95-15.62 43.41-13.77 44.87-11.92 44.9-8.29L44.9-8.29 44.9-6.32 36.91-6.32Q37-4.62 37.67-3.83 38.33-3.05 39.72-3.05L39.72-3.05Q41.73-3.05 43.08-4.42L43.08-4.42 44.65-2Q43.92-0.98 42.51-0.35 41.11 0.28 39.47 0.28ZM36.94-9.13L36.94-9.13 40.95-9.13 40.95-9.5Q40.93-10.87 40.5-11.58 40.08-12.29 39.03-12.29 37.98-12.29 37.5-11.54 37.03-10.79 36.94-9.13ZM53.36 0.28L53.36 0.28Q50.27 0.28 48.54-1.56 46.81-3.4 46.81-6.83L46.81-6.83 46.81-8.05Q46.81-11.68 48.4-13.65 49.98-15.62 52.95-15.62L52.95-15.62Q55.84-15.62 57.3-13.77 58.76-11.92 58.79-8.29L58.79-8.29 58.79-6.32 50.81-6.32Q50.89-4.62 51.56-3.83 52.22-3.05 53.61-3.05L53.61-3.05Q55.63-3.05 56.97-4.42L56.97-4.42 58.55-2Q57.81-0.98 56.41-0.35 55 0.28 53.36 0.28ZM50.83-9.13L50.83-9.13 54.85-9.13 54.85-9.5Q54.82-10.87 54.39-11.58 53.97-12.29 52.92-12.29 51.87-12.29 51.39-11.54 50.92-10.79 50.83-9.13ZM60.96-15.34L64.73-15.34 64.84-13.82Q66.2-15.62 68.4-15.62L68.4-15.62Q72.35-15.62 72.47-10.08L72.47-10.08 72.47 0 68.44 0 68.44-9.78Q68.44-11.09 68.05-11.67 67.66-12.26 66.68-12.26L66.68-12.26Q65.59-12.26 64.98-11.14L64.98-11.14 64.98 0 60.96 0 60.96-15.34ZM82.14-4.11L82.14-4.11Q82.14-4.62 81.65-5.05 81.16-5.49 79.47-6.22L79.47-6.22Q76.99-7.23 76.06-8.31 75.13-9.38 75.13-10.99L75.13-10.99Q75.13-13 76.59-14.31 78.04-15.62 80.43-15.62L80.43-15.62Q82.96-15.62 84.47-14.32 85.99-13.01 85.99-10.82L85.99-10.82 81.98-10.82Q81.98-12.69 80.42-12.69L80.42-12.69Q79.78-12.69 79.37-12.29 78.96-11.89 78.96-11.18L78.96-11.18Q78.96-10.67 79.41-10.28 79.87-9.89 81.55-9.17L81.55-9.17Q84.01-8.26 85.02-7.15 86.03-6.04 86.03-4.27L86.03-4.27Q86.03-2.21 84.49-0.96 82.94 0.28 80.43 0.28L80.43 0.28Q78.75 0.28 77.46-0.38 76.17-1.03 75.44-2.21 74.71-3.39 74.71-4.75L74.71-4.75 78.52-4.75Q78.55-3.7 79.01-3.18 79.47-2.65 80.52-2.65L80.52-2.65Q82.14-2.65 82.14-4.11ZM105 0L101.23-7.97 99.59-5.9 99.59 0 95.42 0 95.42-20.64 99.59-20.64 99.59-11.64 100.9-13.86 104.75-20.64 109.85-20.64 103.94-11.57 109.95 0 105 0ZM115.49-15.34L115.49 0 111.47 0 111.47-15.34 115.49-15.34ZM111.28-19.31L111.28-19.31Q111.28-20.24 111.88-20.84 112.47-21.43 113.46-21.43 114.46-21.43 115.05-20.84 115.65-20.24 115.65-19.31L115.65-19.31Q115.65-18.39 115.06-17.78 114.47-17.17 113.46-17.17 112.46-17.17 111.87-17.78 111.28-18.39 111.28-19.31ZM125.39-4.11L125.39-4.11Q125.39-4.62 124.9-5.05 124.41-5.49 122.72-6.22L122.72-6.22Q120.24-7.23 119.31-8.31 118.38-9.38 118.38-10.99L118.38-10.99Q118.38-13 119.84-14.31 121.29-15.62 123.68-15.62L123.68-15.62Q126.21-15.62 127.72-14.32 129.24-13.01 129.24-10.82L129.24-10.82 125.23-10.82Q125.23-12.69 123.67-12.69L123.67-12.69Q123.03-12.69 122.62-12.29 122.21-11.89 122.21-11.18L122.21-11.18Q122.21-10.67 122.66-10.28 123.12-9.89 124.8-9.17L124.8-9.17Q127.26-8.26 128.27-7.15 129.28-6.04 129.28-4.27L129.28-4.27Q129.28-2.21 127.74-0.96 126.19 0.28 123.68 0.28L123.68 0.28Q122 0.28 120.71-0.38 119.42-1.03 118.69-2.21 117.96-3.39 117.96-4.75L117.96-4.75 121.77-4.75Q121.8-3.7 122.26-3.18 122.72-2.65 123.77-2.65L123.77-2.65Q125.39-2.65 125.39-4.11ZM135.99-15.34L135.99 0 131.96 0 131.96-15.34 135.99-15.34ZM131.78-19.31L131.78-19.31Q131.78-20.24 132.37-20.84 132.97-21.43 133.96-21.43 134.95-21.43 135.55-20.84 136.15-20.24 136.15-19.31L136.15-19.31Q136.15-18.39 135.56-17.78 134.97-17.17 133.96-17.17 132.96-17.17 132.37-17.78 131.78-18.39 131.78-19.31ZM142.18-15.34L144.13-5.67 146.07-15.34 150.25-15.34 146.04 0 142.21 0 137.99-15.34 142.18-15.34ZM159.79 0L159.68-1.4Q158.43 0.28 156.33 0.28L156.33 0.28Q154.22 0.28 153.13-1.17 152.04-2.62 152.04-5.4L152.04-5.4 152.04-15.34 156.05-15.34 156.05-5.3Q156.08-3.06 157.54-3.06L157.54-3.06Q158.91-3.06 159.52-4.25L159.52-4.25 159.52-15.34 163.56-15.34 163.56 0 159.79 0ZM170.64-21.77L170.64 0 166.61 0 166.61-21.77 170.64-21.77ZM177.95-15.34L177.95 0 173.92 0 173.92-15.34 177.95-15.34ZM173.74-19.31L173.74-19.31Q173.74-20.24 174.34-20.84 174.93-21.43 175.92-21.43 176.92-21.43 177.51-20.84 178.11-20.24 178.11-19.31L178.11-19.31Q178.11-18.39 177.52-17.78 176.93-17.17 175.92-17.17 174.92-17.17 174.33-17.78 173.74-18.39 173.74-19.31Z" transform="translate(-1.2799999713897705, 21.770000457763672)"></path></g><!----><!----><!----><!----><!----><!----><!----></g></g><!----></g></g><defs v-gra="od"></defs><defs v-gra="id"><filter id="013687f2-bb8e-4f97-8b7d-091101da253e" filterUnits="userSpaceOnUse"><feColorMatrix type="matrix" values="0 0 0 0 0.99609375  0 0 0 0 0.99609375  0 0 0 0 0.99609375  0 0 0 1 0"></feColorMatrix></filter><linearGradient x1="0" y1="1" x2="0" y2="0" id="NtcWIZsxV_oSLI-jA7e4l"><stop offset="0%" stop-color="#4481eb"></stop><stop offset="100%" stop-color="#05befe"></stop></linearGradient><filter id="42443b3f1de60f6b6fd3b6a9844b4764" filterUnits="userSpaceOnUse"><feColorMatrix type="matrix" values="0 0 0 0 0.99609375  0 0 0 0 0.99609375  0 0 0 0 0.99609375  0 0 0 1 0"></feColorMatrix></filter></defs><mask v-gra="im" id="4157ceb4-72c9-4d03-a882-28d83e1e85ef"><g fill="#191a1c" class="iconsvg-imagesvg icon_container" filter="url(#013687f2-bb8e-4f97-8b7d-091101da253e)"><rect fill="#ffffff" fill-opacity="0" stroke-width="2" x="0" y="0" width="69.99535039464921" height="69.99535039464921" class="image-rect"></rect><svg viewBox="0 0 60 60" x="0" y="0" width="69.99535039464921" height="69.99535039464921" class="image-svg-svg bn" style="overflow: visible;"><g hollow-target=""><g><svg fill="#000000" xmlns="http://www.w3.org/2000/svg" xmlns:xlink="http://www.w3.org/1999/xlink" xml:space="preserve" version="1.1" style="shape-rendering: geometricprecision; text-rendering: geometricprecision; overflow: visible;" viewBox="0 0 204 204" x="0" y="0" fill-rule="evenodd" clip-rule="evenodd" width="60" height="60" filtersec="colorsb1913144193"><g transform="scale(1, 1) skewX(0)"><defs><filter id="mbheyFXVk_ctbPApwn4tt"><feColorMatrix type="matrix" values="0 0 0 0 0.09765625  0 0 0 0 0.1015625  0 0 0 0 0.109375  0 0 0 1 0"></feColorMatrix></filter></defs><g><path class="fil0" d="M102 0c56,0 102,46 102,102 0,56 -46,102 -102,102 -56,0 -102,-46 -102,-102 0,-56 46,-102 102,-102zm0 17c-47,0 -85,38 -85,85 0,47 38,86 85,86 47,0 86,-39 86,-86 0,-47 -39,-85 -86,-85z"></path></g></g></svg></g><g><svg xmlns="http://www.w3.org/2000/svg" viewBox="0 0 43.040000915527344 50.209999084472656" width="39" height="39" x="10.5" y="10.5" class="image-svg-icon"><title>F</title><g id="51777cf9-5889-4329-a334-547a8256d3b5" data-name="圖層 2"><g id="6386fc5e-7922-45e0-b9dd-af4415f20a70" data-name="栝鍣 1"><polygon points="21.52 25.11 14.35 25.11 14.35 50.21 21.52 50.21 21.52 35.86 43.04 35.86 43.04 28.69 21.52 28.69 21.52 25.11" fill="#191a1c"></polygon><polygon points="0 0 0 10.62 7.17 10.62 7.17 7.17 43.04 7.17 43.04 0 0 0" fill="#191a1c"></polygon><polygon points="43.04 14.35 0 14.35 0 50.21 7.17 50.21 7.17 21.52 35.86 21.52 43.04 21.52 43.04 14.35" fill="#191a1c"></polygon></g></g></svg></g></g></svg><!----></g></mask></svg>