<svg data-v-70b83f88="" version="1.0" xmlns="http://www.w3.org/2000/svg" xmlns:xlink="http://www.w3.org/1999/xlink" viewBox="0 0 340.000000 250.000000" preserveAspectRatio="xMidYMid meet" color-interpolation-filters="sRGB" style="margin: auto;"><rect data-v-70b83f88="" x="0" y="0" width="100%" height="100%" fill="#feffff" fill-opacity="1" class="background"></rect><rect data-v-70b83f88="" x="0" y="0" width="100%" height="100%" fill="url(#watermark)" fill-opacity="1" class="watermarklayer"></rect><g data-v-70b83f88="" fill="#1A1A1A" class="iconlinesvg-g iconlinesvg" transform="translate(87.39349365234375,90.46150207519531)"><g class="tp-name" transform="translate(0,0)"><g transform="translate(0, 0)"><g><g class="imagesvg"><g><rect fill="#1A1A1A" fill-opacity="0" stroke-width="2" x="0" y="0" width="29.309684507926548" height="54.92098957769136" class="image-rect"></rect><svg x="0" y="0" width="29.309684507926548" height="54.92098957769136" filtersec="colorsb4627274516" class="image-svg-svg primary" style="overflow: visible;"><svg xmlns="http://www.w3.org/2000/svg" viewBox="0 0 34 63.71000289916992"><title>q10</title><g data-name="图层 2"><g data-name="Layer 1"><path d="M13.61 53.62A32.34 32.34 0 0 1 0 49.67v2.83A10.53 10.53 0 0 0 10.5 63H21a33 33 0 0 0 3.91-.85c4.55-.8 9.09 1.56 9.09 1.56-.84-1-2.86-4.09-3.72-5.18-4.48-5.69-10.15-4.42-16.67-4.91z" fill="#1a1a1a"></path><path d="M10.5 47.25V10.5H21v37.42c1.38.06 2.66.15 3.76.31a13.12 13.12 0 0 1 6.74 3.11V10.5A10.53 10.53 0 0 0 21 0H10.5A10.53 10.53 0 0 0 0 10.5v31.66c2.15 3.16 6.14 4.48 10.5 5.09z" fill="#00a99d"></path></g></g></svg></svg><!----></g></g></g></g><g transform="translate(33, 4.583399816778634)"><g data-gra="path-name" fill="#1A1A1A" transform="scale(1)"><path d="M23.23-26.90L23.23-26.90Q24.54-26.90 25.39-26.02Q26.25-25.14 26.25-23.83L26.25-23.83L26.25-11.06Q26.25-5.73 23.28-2.61Q20.31 0.50 14.73 0.50L14.73 0.50Q9.15 0.50 6.21-2.61Q3.27-5.73 3.27-11.06L3.27-11.06L3.27-23.83Q3.27-25.14 4.12-26.02Q4.98-26.90 6.28-26.90L6.28-26.90Q7.59-26.90 8.45-26.02Q9.30-25.14 9.30-23.83L9.30-23.83L9.30-11.06Q9.30-7.99 10.66-6.51Q12.02-5.03 14.73-5.03L14.73-5.03Q17.50-5.03 18.85-6.51Q20.21-7.99 20.21-11.06L20.21-11.06L20.21-23.83Q20.21-25.14 21.07-26.02Q21.92-26.90 23.23-26.90Z" transform="translate(-3.268156424581006, 35.69832402234638)"></path></g></g><g transform="translate(59, 4.583399816778634)"><g data-gra="path-name" fill="#1A1A1A" transform="scale(1)"><path d="M15.69 0.50L15.69 0.50Q11.41 0.50 8.27-1.28Q5.13-3.07 3.44-6.13Q1.76-9.20 1.76-13.07L1.76-13.07Q1.76-17.60 3.59-20.79Q5.43-23.98 8.40-25.69Q11.36-27.40 14.68-27.40L14.68-27.40Q17.25-27.40 19.53-26.35Q21.82-25.29 23.58-23.46Q25.34-21.62 26.37-19.21Q27.40-16.79 27.40-14.08L27.40-14.08Q27.35-12.87 26.45-12.12Q25.54-11.36 24.34-11.36L24.34-11.36L5.13-11.36L3.62-16.39L22.07-16.39L20.97-15.39L20.97-16.74Q20.87-18.20 19.94-19.36Q19.01-20.51 17.62-21.19Q16.24-21.87 14.68-21.87L14.68-21.87Q13.17-21.87 11.87-21.47Q10.56-21.07 9.60-20.11Q8.65-19.16 8.09-17.55Q7.54-15.94 7.54-13.47L7.54-13.47Q7.54-10.76 8.67-8.87Q9.80-6.99 11.59-6.01Q13.37-5.03 15.39-5.03L15.39-5.03Q17.25-5.03 18.35-5.33Q19.46-5.63 20.14-6.06Q20.82-6.49 21.37-6.79L21.37-6.79Q22.27-7.24 23.08-7.24L23.08-7.24Q24.18-7.24 24.91-6.49Q25.64-5.73 25.64-4.73L25.64-4.73Q25.64-3.37 24.23-2.26L24.23-2.26Q22.93-1.16 20.56-0.33Q18.20 0.50 15.69 0.50Z" transform="translate(-1.7597765363128495, 35.69832402234638)"></path></g></g><g transform="translate(88, 4.583399816778634)"><g data-gra="path-name" fill="#1A1A1A" transform="scale(1)"><path d="M15.69 0.50L15.69 0.50Q11.41 0.50 8.27-1.28Q5.13-3.07 3.44-6.13Q1.76-9.20 1.76-13.07L1.76-13.07Q1.76-17.60 3.59-20.79Q5.43-23.98 8.40-25.69Q11.36-27.40 14.68-27.40L14.68-27.40Q17.25-27.40 19.53-26.35Q21.82-25.29 23.58-23.46Q25.34-21.62 26.37-19.21Q27.40-16.79 27.40-14.08L27.40-14.08Q27.35-12.87 26.45-12.12Q25.54-11.36 24.34-11.36L24.34-11.36L5.13-11.36L3.62-16.39L22.07-16.39L20.97-15.39L20.97-16.74Q20.87-18.20 19.94-19.36Q19.01-20.51 17.62-21.19Q16.24-21.87 14.68-21.87L14.68-21.87Q13.17-21.87 11.87-21.47Q10.56-21.07 9.60-20.11Q8.65-19.16 8.09-17.55Q7.54-15.94 7.54-13.47L7.54-13.47Q7.54-10.76 8.67-8.87Q9.80-6.99 11.59-6.01Q13.37-5.03 15.39-5.03L15.39-5.03Q17.25-5.03 18.35-5.33Q19.46-5.63 20.14-6.06Q20.82-6.49 21.37-6.79L21.37-6.79Q22.27-7.24 23.08-7.24L23.08-7.24Q24.18-7.24 24.91-6.49Q25.64-5.73 25.64-4.73L25.64-4.73Q25.64-3.37 24.23-2.26L24.23-2.26Q22.93-1.16 20.56-0.33Q18.20 0.50 15.69 0.50Z" transform="translate(-1.7597765363128495, 35.69832402234638)"></path></g></g><g transform="translate(117, 4.583399816778634)"><g data-gra="path-name" fill="#1A1A1A" transform="scale(1)"><path d="M17.65-27.40L17.65-27.40Q21.37-27.40 23.30-25.84Q25.24-24.28 25.97-21.70Q26.70-19.11 26.70-15.94L26.70-15.94L26.70-3.07Q26.70-1.76 25.84-0.88Q24.99 0 23.68 0L23.68 0Q22.37 0 21.52-0.88Q20.66-1.76 20.66-3.07L20.66-3.07L20.66-15.94Q20.66-17.60 20.24-18.93Q19.81-20.26 18.70-21.07Q17.60-21.87 15.54-21.87L15.54-21.87Q13.53-21.87 12.14-21.07Q10.76-20.26 10.03-18.93Q9.30-17.60 9.30-15.94L9.30-15.94L9.30-3.07Q9.30-1.76 8.45-0.88Q7.59 0 6.28 0L6.28 0Q4.98 0 4.12-0.88Q3.27-1.76 3.27-3.07L3.27-3.07L3.27-23.83Q3.27-25.14 4.12-26.02Q4.98-26.90 6.28-26.90L6.28-26.90Q7.59-26.90 8.45-26.02Q9.30-25.14 9.30-23.83L9.30-23.83L9.30-21.67L8.55-21.82Q9-22.68 9.85-23.66Q10.71-24.64 11.87-25.49Q13.02-26.35 14.48-26.87Q15.94-27.40 17.65-27.40Z" transform="translate(-3.2681564245810057, 35.69832402234638)"></path></g></g><g transform="translate(144, 4.583399816778634)"><g data-gra="path-name" fill="#1A1A1A" transform="scale(1)"><path d="M1.71-4.17L1.71-4.17Q1.21-4.88 1.26-5.98Q1.31-7.09 2.56-7.89L2.56-7.89Q3.37-8.40 4.27-8.32Q5.18-8.25 6.03-7.39L6.03-7.39Q7.49-5.93 9.10-5.13Q10.71-4.32 13.12-4.32L13.12-4.32Q13.88-4.37 14.78-4.55Q15.69-4.73 16.37-5.35Q17.04-5.98 17.04-7.29L17.04-7.29Q17.04-8.40 16.29-9.05Q15.54-9.70 14.30-10.16Q13.07-10.61 11.56-11.01L11.56-11.01Q10.01-11.46 8.37-12.02Q6.74-12.57 5.38-13.45Q4.02-14.33 3.17-15.79Q2.31-17.25 2.31-19.46L2.31-19.46Q2.31-21.97 3.72-23.73Q5.13-25.49 7.37-26.45Q9.60-27.40 12.07-27.40L12.07-27.40Q13.63-27.40 15.34-27.03Q17.04-26.65 18.60-25.82Q20.16-24.99 21.22-23.63L21.22-23.63Q21.77-22.88 21.87-21.82Q21.97-20.77 20.92-19.91L20.92-19.91Q20.16-19.31 19.16-19.38Q18.15-19.46 17.50-20.06L17.50-20.06Q16.64-21.17 15.21-21.82Q13.78-22.47 11.92-22.47L11.92-22.47Q11.16-22.47 10.28-22.30Q9.40-22.12 8.75-21.54Q8.09-20.97 8.09-19.71L8.09-19.71Q8.09-18.55 8.85-17.87Q9.60-17.20 10.89-16.77Q12.17-16.34 13.63-15.94L13.63-15.94Q15.13-15.54 16.69-14.98Q18.25-14.43 19.56-13.53Q20.87-12.62 21.67-11.19Q22.47-9.75 22.47-7.54L22.47-7.54Q22.47-4.98 20.97-3.17Q19.46-1.36 17.20-0.43Q14.93 0.50 12.57 0.50L12.57 0.50Q9.60 0.50 6.64-0.53Q3.67-1.56 1.71-4.17Z" transform="translate(-1.2569832402234637, 35.69832402234638)"></path></g></g></g><g data-gra="path-slogan" fill-rule="" class="tp-slogan" fill="#1A1A1A" transform="translate(5,60.920989990234375)"><rect x="0" height="1" y="3.580000400543213" width="54.45650672912598"></rect><rect height="1" y="3.580000400543213" width="54.45650672912598" x="100.75650596618652"></rect><g transform="translate(57.45650672912598,0)"><g transform="scale(1)"><path d="M1.08-7.87L1.08 0L2.08 0L2.08-2.50L3.43-4.09L5.78 0L6.90 0L4.06-4.87L6.52-7.87L5.39-7.87L2.11-3.92L2.08-3.92L2.08-7.87ZM8.03-7.87L8.03 0L9.02 0L9.02-7.87ZM11.21-1.72L10.61-1.02C10.95-0.66 11.36-0.38 11.83-0.17C12.30 0.04 12.82 0.14 13.37 0.14C13.78 0.14 14.16 0.09 14.48-0.03C14.81-0.15 15.09-0.31 15.32-0.51C15.56-0.71 15.73-0.95 15.86-1.22C15.98-1.50 16.04-1.79 16.04-2.10C16.04-2.39 16.00-2.64 15.92-2.86C15.83-3.08 15.72-3.27 15.58-3.44C15.43-3.60 15.26-3.75 15.06-3.87C14.86-3.99 14.65-4.10 14.42-4.20L13.31-4.68C13.15-4.74 12.99-4.81 12.84-4.89C12.69-4.97 12.55-5.05 12.42-5.15C12.29-5.25 12.19-5.37 12.11-5.50C12.04-5.63 12.00-5.80 12.00-5.99C12.00-6.35 12.13-6.63 12.40-6.83C12.67-7.04 13.02-7.14 13.46-7.14C13.83-7.14 14.16-7.07 14.45-6.94C14.75-6.81 15.01-6.63 15.25-6.40L15.79-7.04C15.51-7.33 15.17-7.57 14.77-7.75C14.37-7.93 13.94-8.02 13.46-8.02C13.10-8.02 12.77-7.96 12.47-7.86C12.17-7.76 11.91-7.61 11.69-7.42C11.47-7.23 11.30-7.01 11.18-6.76C11.05-6.50 10.99-6.22 10.99-5.93C10.99-5.64 11.04-5.39 11.14-5.17C11.23-4.95 11.36-4.76 11.51-4.60C11.66-4.44 11.83-4.30 12.02-4.19C12.22-4.08 12.40-3.98 12.59-3.90L13.72-3.41C13.90-3.32 14.07-3.24 14.23-3.16C14.39-3.08 14.53-2.99 14.65-2.89C14.76-2.79 14.85-2.67 14.92-2.53C14.99-2.39 15.02-2.22 15.02-2.02C15.02-1.63 14.88-1.32 14.59-1.09C14.30-0.85 13.90-0.73 13.38-0.73C12.97-0.73 12.58-0.82 12.20-1.00C11.82-1.18 11.49-1.42 11.21-1.72ZM17.59-7.87L17.59 0L18.59 0L18.59-7.87ZM19.67-7.87L22.19 0L23.35 0L25.85-7.87L24.83-7.87L23.57-3.62C23.43-3.15 23.31-2.72 23.20-2.32C23.08-1.92 22.96-1.48 22.81-1.02L22.76-1.02C22.61-1.48 22.48-1.92 22.37-2.32C22.27-2.72 22.14-3.15 22.00-3.62L20.74-7.87ZM26.77-7.87L26.77-3.25C26.77-2.62 26.84-2.09 26.99-1.66C27.13-1.22 27.33-0.87 27.58-0.61C27.83-0.34 28.13-0.15 28.48-0.03C28.83 0.09 29.20 0.14 29.60 0.14C30.00 0.14 30.38 0.09 30.72-0.03C31.06-0.15 31.36-0.34 31.61-0.61C31.87-0.87 32.06-1.22 32.21-1.66C32.35-2.09 32.42-2.62 32.42-3.25L32.42-7.87L31.46-7.87L31.46-3.23C31.46-2.76 31.42-2.36 31.32-2.04C31.22-1.72 31.09-1.46 30.92-1.27C30.76-1.08 30.56-0.94 30.34-0.86C30.11-0.77 29.87-0.73 29.60-0.73C29.35-0.73 29.11-0.77 28.88-0.86C28.66-0.94 28.47-1.08 28.30-1.27C28.14-1.46 28.01-1.72 27.91-2.04C27.82-2.36 27.77-2.76 27.77-3.23L27.77-7.87ZM34.55-7.87L34.55 0L38.99 0L38.99-0.85L35.54-0.85L35.54-7.87ZM40.38-7.87L40.38 0L41.38 0L41.38-7.87Z" transform="translate(-1.08, 8.016)"></path></g></g></g></g><defs v-gra="od"></defs></svg>