<svg data-v-70b83f88="" version="1.0" xmlns="http://www.w3.org/2000/svg" xmlns:xlink="http://www.w3.org/1999/xlink" viewBox="0 0 340.000000 250.000000" preserveAspectRatio="xMidYMid meet" color-interpolation-filters="sRGB" style="margin: auto;"><rect data-v-70b83f88="" x="0" y="0" width="100%" height="100%" fill="#6441a5" fill-opacity="1" class="background"></rect><rect data-v-70b83f88="" x="0" y="0" width="100%" height="100%" fill="url(#watermark)" fill-opacity="1" class="watermarklayer"></rect><g data-v-70b83f88="" fill="#feffff" class="iconbordersvg" transform="translate(58.394996643066406,100.06155014038086)"><g data-gra="graph-icon-name"><g><rect data-gra="graph-name-bg" stroke-width="2" class="i-icon-bg" x="0" y="0" width="223.2100067138672" height="49.87689971923828" fill-opacity="0" stroke="rgb(254, 255, 255)"></rect><!----><!----></g><g transform="translate(0,0)"><g hollow-target="black" data-gra="graph-icon" transform="translate(167.2100067138672,0)" mask="url(#898302ab-0f15-4777-8113-c783dbea238f)"><g><rect data-gra="graph-name-bg" stroke-width="2" class="i-icon-bg" x="0" y="0" width="56" height="49.87690353393555" fill-opacity="1"></rect><!----><!----></g><g transform="translate(5,5)"><g class="iconsvg-imagesvg"><g><!----><svg filter="url(#colors3732398605)" x="0" y="0" width="46" height="39.87690173811278" filtersec="colorsb5750185900" class="image-svg-svg primary" style="overflow: visible;"><svg xmlns="http://www.w3.org/2000/svg" viewBox="1.5 2 122.7 106.9"><path d="M24 106.9l23.8-41.1L63 39.6l15 26.2h20.5m-50.8 0h50.8m11.9 20.5H35.9m57.3-29.8L62.9 4 32.6 56.5 3.5 106.9l118.7-.1-29-50.3zM68 65.8l-23.8 41.1" fill="none" stroke="#202121" stroke-width="4" stroke-miterlimit="10"></path></svg></svg><defs><filter id="colors3732398605"><feColorMatrix type="matrix" values="0 0 0 0 0.9921875  0 0 0 0 0.99609375  0 0 0 0 0.99609375  0 0 0 1 0" class="icon-fecolormatrix"></feColorMatrix></filter><filter id="colorsf2802911641"><feColorMatrix type="matrix" values="0 0 0 0 0.99609375  0 0 0 0 0.99609375  0 0 0 0 0.99609375  0 0 0 1 0" class="icon-fecolormatrix"></feColorMatrix></filter><filter id="colorsb5750185900"><feColorMatrix type="matrix" values="0 0 0 0 0  0 0 0 0 0  0 0 0 0 0  0 0 0 1 0" class="icon-fecolormatrix"></feColorMatrix></filter></defs></g></g></g></g><g data-gra="graph-name" transform="translate(0,0)"><g><rect data-gra="graph-name-bg" stroke-width="2" class="i-icon-bg" x="0" y="0" width="167.2100067138672" height="49.87690353393555" fill-opacity="0"></rect><!----><!----></g><g transform="translate(5,9.993451118469238)"><g data-gra="path-name" fill-rule="" class="tp-name"><g transform="scale(1)"><g><path d="M9.27 4.61C10.28 4.61 10.96 4.45 11.73 4.09L11.73 2.24C11.62 2.24 11.51 2.26 11.37 2.26L10.99 2.26C10.61 2.26 10.26 2.24 9.96 2.18 8.97 2.02 8.62 1.39 8.62 0.22L8.62 0C9.79-0.27 10.69-0.95 11.37-1.91 12.27-3.22 12.71-5.02 12.71-7.39L12.71-15.47C12.71-19.86 11.4-22.94 7.12-22.94 2.84-22.94 1.45-19.86 1.45-15.47L1.45-7.39C1.45-6.03 1.58-4.88 1.83-3.98 2.43-1.85 3.55-0.35 5.7 0.05L5.7 0.95C5.7 3.35 6.93 4.61 9.27 4.61ZM5.07-6.06L5.07-16.42C5.07-18.38 5.24-20.24 7.12-20.24 7.88-20.24 8.32-19.97 8.62-19.42 9.03-18.68 9.11-17.67 9.11-16.42L9.11-6.06C9.11-4.15 8.95-2.4 7.12-2.4 5.26-2.4 5.07-4.12 5.07-6.06ZM19.28 0.22C21.19 0.22 22.26-0.74 23.05-1.96L23.08-1.96 23.4 0 25.97 0 25.97-18.33 22.61-18.33 22.61-3.46C22.2-2.92 21.6-2.4 20.76-2.4 19.58-2.4 19.28-3.22 19.28-4.56L19.28-18.33 15.9-18.33 15.9-4.28C15.9-1.64 16.86 0.22 19.28 0.22ZM38.73-4.8L38.73-5.51 35.92-5.51 35.92-4.94C35.92-3.63 35.59-2.4 34.34-2.4 33.49-2.4 33.06-2.73 32.79-3.33 32.4-4.17 32.38-5.35 32.38-6.68L32.38-8.54 38.46-8.54C38.73-9.82 38.9-11.26 38.9-12.82 38.9-16.26 37.59-18.55 34.29-18.55 33.44-18.55 32.7-18.44 32.05-18.14 31.12-17.73 30.41-17.05 29.92-16.07 29.27-14.76 28.99-13.07 28.99-10.96L28.99-7.5C28.99-6.14 29.1-4.99 29.32-4.01 29.84-1.58 31.07 0.19 33.9 0.19 37.18 0.19 38.73-1.45 38.73-4.8ZM35.76-10.8L32.38-10.8 32.38-11.92C32.38-12.71 32.4-13.37 32.49-13.91 32.65-15.06 32.92-16.09 34.12-16.09 34.69-16.09 35.1-15.85 35.38-15.3 35.65-14.76 35.81-13.88 35.81-12.68L35.81-12.22C35.81-11.76 35.79-11.21 35.76-10.8ZM51.01-4.8L51.01-5.51 48.2-5.51 48.2-4.94C48.2-3.63 47.87-2.4 46.61-2.4 45.77-2.4 45.33-2.73 45.06-3.33 44.68-4.17 44.65-5.35 44.65-6.68L44.65-8.54 50.73-8.54C51.01-9.82 51.17-11.26 51.17-12.82 51.17-16.26 49.86-18.55 46.56-18.55 45.71-18.55 44.98-18.44 44.32-18.14 43.4-17.73 42.69-17.05 42.2-16.07 41.54-14.76 41.27-13.07 41.27-10.96L41.27-7.5C41.27-6.14 41.38-4.99 41.6-4.01 42.11-1.58 43.34 0.19 46.18 0.19 49.45 0.19 51.01-1.45 51.01-4.8ZM48.03-10.8L44.65-10.8 44.65-11.92C44.65-12.71 44.68-13.37 44.76-13.91 44.92-15.06 45.2-16.09 46.4-16.09 46.97-16.09 47.38-15.85 47.65-15.3 47.92-14.76 48.09-13.88 48.09-12.68L48.09-12.22C48.09-11.76 48.06-11.21 48.03-10.8ZM59.27-16.09C60.44-16.09 60.74-15.27 60.74-13.94L60.74 0 64.13 0 64.13-14.05C64.13-16.67 63.2-18.55 60.77-18.55 58.86-18.55 57.72-17.59 56.92-16.37L56.92-16.39 56.62-18.33 54.01-18.33 54.01 0 57.39 0 57.39-14.84C57.77-15.44 58.42-16.09 59.27-16.09ZM71.33 0.19C72.06 0.19 72.74 0.08 73.32-0.11 74.93-0.68 75.99-1.96 75.99-4.09 75.99-4.64 75.91-5.13 75.74-5.62 75.31-6.93 74.52-8.05 73.75-8.97L71.05-12.14C70.73-12.57 70.45-12.96 70.26-13.31 70.07-13.67 69.94-14.07 69.94-14.51 69.94-15.49 70.48-16.09 71.49-16.09 73.13-16.09 73.1-14.18 73.13-12.49L75.44-12.49C75.61-13.09 75.77-13.97 75.77-14.76 75.77-17.35 74.05-18.55 71.44-18.55 70.84-18.55 70.26-18.47 69.72-18.3 68.08-17.78 66.93-16.5 66.93-14.37 66.93-13.83 66.99-13.34 67.13-12.85 67.56-11.29 68.49-10.12 69.39-8.97L71.84-6.08C72.04-5.86 72.2-5.65 72.34-5.46 72.66-5.02 72.99-4.53 72.99-3.82 72.99-2.97 72.44-2.4 71.54-2.4 69.69-2.4 69.58-3.98 69.58-5.89L67.21-5.89C67.04-5.4 66.88-4.56 66.88-3.85 66.88-1.06 68.57 0.19 71.33 0.19ZM84.64-22.75L84.64 0 88.1 0 88.1-10.83 88.21-10.83 92.38 0 96.07 0 91.18-12.08 95.57-22.75 92.14-22.75 88.21-12.82 88.1-12.82 88.1-22.75ZM101.66-23.16C101.66-24.6 101-25.28 99.61-25.28 98.22-25.28 97.59-24.58 97.59-23.16 97.59-21.79 98.27-20.98 99.58-20.98 100.95-20.98 101.66-21.79 101.66-23.16ZM97.84-18.33L97.84 0 101.22 0 101.22-18.33ZM108.45 0.19C109.19 0.19 109.87 0.08 110.44-0.11 112.05-0.68 113.11-1.96 113.11-4.09 113.11-4.64 113.03-5.13 112.87-5.62 112.43-6.93 111.64-8.05 110.88-8.97L108.18-12.14C107.85-12.57 107.58-12.96 107.38-13.31 107.19-13.67 107.06-14.07 107.06-14.51 107.06-15.49 107.6-16.09 108.61-16.09 110.25-16.09 110.22-14.18 110.25-12.49L112.57-12.49C112.73-13.09 112.89-13.97 112.89-14.76 112.89-17.35 111.18-18.55 108.56-18.55 107.96-18.55 107.38-18.47 106.84-18.3 105.2-17.78 104.06-16.5 104.06-14.37 104.06-13.83 104.11-13.34 104.25-12.85 104.68-11.29 105.61-10.12 106.51-8.97L108.97-6.08C109.16-5.86 109.32-5.65 109.46-5.46 109.79-5.02 110.11-4.53 110.11-3.82 110.11-2.97 109.57-2.4 108.67-2.4 106.81-2.4 106.7-3.98 106.7-5.89L104.33-5.89C104.17-5.4 104-4.56 104-3.85 104-1.06 105.69 0.19 108.45 0.19ZM119.6-23.16C119.6-24.6 118.95-25.28 117.56-25.28 116.17-25.28 115.54-24.58 115.54-23.16 115.54-21.79 116.22-20.98 117.53-20.98 118.9-20.98 119.6-21.79 119.6-23.16ZM115.79-18.33L115.79 0 119.17 0 119.17-18.33ZM121.16-18.33L125.28 0 128.17 0 132.34-18.33 129.1-18.33 127.32-8.59 126.83-4.69 126.72-4.69 126.29-8.59 124.51-18.33ZM137.69 0.22C139.6 0.22 140.66-0.74 141.45-1.96L141.48-1.96 141.81 0 144.37 0 144.37-18.33 141.02-18.33 141.02-3.46C140.61-2.92 140.01-2.4 139.16-2.4 137.99-2.4 137.69-3.22 137.69-4.56L137.69-18.33 134.31-18.33 134.31-4.28C134.31-1.64 135.26 0.22 137.69 0.22ZM147.92-24.22L147.92 0 151.3 0 151.3-24.22ZM158.66-23.16C158.66-24.6 158.01-25.28 156.62-25.28 155.23-25.28 154.6-24.58 154.6-23.16 154.6-21.79 155.28-20.98 156.59-20.98 157.95-20.98 158.66-21.79 158.66-23.16ZM154.84-18.33L154.84 0 158.23 0 158.23-18.33Z" transform="translate(-1.4500000476837158, 25.280000686645508)"></path></g><!----><!----><!----><!----><!----><!----><!----></g></g><!----></g></g></g></g></g><mask id="898302ab-0f15-4777-8113-c783dbea238f"><g fill="white"><rect data-gra="graph-name-bg" stroke-width="2" class="i-icon-bg" x="0" y="0" width="56" height="49.87690353393555" fill-opacity="1"></rect></g><g transform="translate(5,5)" fill="black"><g class="iconsvg-imagesvg"><g><svg x="0" y="0" width="46" height="39.87690173811278" class="image-svg-svg primary" style="overflow: visible;" filter="url(#colorsb5750185900)"><svg xmlns="http://www.w3.org/2000/svg" viewBox="1.5 2 122.7 106.9"><path d="M24 106.9l23.8-41.1L63 39.6l15 26.2h20.5m-50.8 0h50.8m11.9 20.5H35.9m57.3-29.8L62.9 4 32.6 56.5 3.5 106.9l118.7-.1-29-50.3zM68 65.8l-23.8 41.1" fill="none" stroke="#202121" stroke-width="4" stroke-miterlimit="10"></path></svg></svg><defs></defs></g></g></g></mask><defs v-gra="od"></defs></svg>