<svg data-v-70b83f88="" version="1.0" xmlns="http://www.w3.org/2000/svg" xmlns:xlink="http://www.w3.org/1999/xlink" viewBox="0 0 340.000000 250.000000" preserveAspectRatio="xMidYMid meet" color-interpolation-filters="sRGB" style="margin: auto;"><rect data-v-70b83f88="" x="0" y="0" width="100%" height="100%" fill="#fff" fill-opacity="1" class="background"></rect><rect data-v-70b83f88="" x="0" y="0" width="100%" height="100%" fill="url(#watermark)" fill-opacity="1" class="watermarklayer"></rect><g data-v-70b83f88="" fill="#333" class="icon-text-wrapper icon-svg-group iconsvg" transform="translate(72.77488708496094,94.40478706359863)"><g class="iconsvg-imagesvg" transform="translate(0,0.6063060760498047)"><g><rect fill="#333" fill-opacity="0" stroke-width="2" x="0" y="0" width="60" height="59.977808210961946" class="image-rect"></rect><svg x="0" y="0" width="60" height="59.977808210961946" filtersec="colorsb3926119985" class="image-svg-svg primary" style="overflow: visible;"><svg xmlns="http://www.w3.org/2000/svg" viewBox="-0.0026958584785461426 -0.0010652542114257812 111.48871612548828 111.44795989990234"><title>资源 48</title><path d="M84 103.54c-25.72 16.33-65.91 7.36-79.92-26.86.75-.27 1.48-.59 2.23-.81l44.83-13c4.33-1.26 6.18-.61 8.64 3.19C67.82 78.49 75.84 90.94 84 103.54z" fill="#ffa217"></path><path d="M.46 64.43C-1.77 43.86 4 26.9 19.09 13.73 34.43.33 52.29-2.82 72.46 2.36z" fill="#a421ba"></path><path d="M81.51 6.18c16.32 9.13 26.57 22.82 29.32 41.47 2.68 18.18-2.89 33.93-16 47.9-4.74-30.14-9.36-59.58-14-89z" fill="#ff0069"></path></svg></svg><!----></g></g><g transform="translate(67.00000381469727,0)"><g data-gra="path-name" fill-rule="" class="tp-name iconsvg-namesvg"><g transform="scale(1)"><g><path d="M19.83 4.29C19.83 3.6 16.89 1.27 15.39-0.22 22.16-2.44 23.58-10.15 23.58-15.21 23.58-22.2 20.93-26.24 14.01-26.24 4.59-26.24 1.46-18.71 1.46-11.14 1.46-5.24 3.35-0.44 9.57 0.25 10.81 4.08 12.19 7.06 15.36 7.06 17.98 7.06 19.83 5.02 19.83 4.29ZM13.25-20.6C15.83-20.6 16.81-18.49 16.81-14.99 16.81-11.83 16.01-5.31 11.9-5.31 9.57-5.31 8.23-7.39 8.23-11.57 8.23-14.59 8.92-20.6 13.25-20.6ZM46.77-11.86C47.13-15.5 47.39-21.98 47.39-23.22 47.39-24.57 47.09-25.84 43.82-25.84L41.82-25.84C41.34-25.84 41.23-25.69 41.23-24.71 41.23-23.47 40.76-17.43 40.36-12.48 40.22-10.48 39.67-5.31 36.32-5.31 33.74-5.31 33.7-8.33 33.7-9.97 33.7-11.25 34.47-21.62 34.47-22.09 34.47-24.57 33.7-25.84 30.72-25.84L28.72-25.84C28.31-25.84 28.13-25.66 28.1-24.75 27.95-22.09 26.9-11.5 26.9-8.26 26.9-3.49 29.33 0.36 35.67 0.36 44.95 0.36 46.33-7.5 46.77-11.86ZM62.82 0C65 0 65.47-0.98 65.58-2.44L65.73-4.59C65.73-4.91 65.44-5.1 65.15-5.1L57.14-5.1 57.54-10.52 60.71-10.52C62.89-10.52 63.36-11.5 63.47-12.96L63.62-15.1C63.62-15.47 63.33-15.61 63.03-15.61L57.87-15.61 58.23-20.74 63.25-20.74C65.44-20.74 65.91-21.73 66.02-23.18L66.16-25.33C66.16-25.69 65.87-25.84 65.58-25.84L52.77-25.84C52.37-25.84 52.19-25.69 52.19-25.29 52.19-22.82 50.66-6.04 50.66-3.09 50.66-1.13 51.75 0 54.45 0ZM81.05 0C83.23 0 83.71-0.98 83.82-2.44L83.96-4.59C83.96-4.91 83.67-5.1 83.38-5.1L75.37-5.1 75.77-10.52 78.94-10.52C81.12-10.52 81.6-11.5 81.7-12.96L81.85-15.1C81.85-15.47 81.56-15.61 81.27-15.61L76.1-15.61 76.46-20.74 81.49-20.74C83.67-20.74 84.14-21.73 84.25-23.18L84.4-25.33C84.4-25.69 84.11-25.84 83.82-25.84L71.01-25.84C70.6-25.84 70.42-25.69 70.42-25.29 70.42-22.82 68.89-6.04 68.89-3.09 68.89-1.13 69.99 0 72.68 0ZM106.42 0C106.74 0 107.07-0.18 107.07-0.58 107.22-1.64 108.56-18.74 108.56-22.31 108.56-24.53 108.05-25.84 104.89-25.84L102.89-25.84C102.45-25.84 102.27-25.69 102.27-25.51 102.27-21.22 102.38-14.63 102.38-8.88 100.88-12.26 100.27-13.5 96.7-22.49 96.01-24.24 95.39-25.84 92.15-25.84L89.24-25.84C88.8-25.84 88.66-25.69 88.66-25.29 88.58-22.96 88.44-21.07 87.86-13.72 87.49-9.06 87.13-4.44 87.13-3.24 87.13-1.13 88.18 0 90.91 0L92.91 0C93.35 0 93.5-0.22 93.5-0.55 93.42-5.75 93.28-10.99 93.24-16.2 95.5-11.39 97.65-6.7 100.16-1.53 100.59-0.66 101.47 0 103.43 0ZM122.18-26.2C117.52-26.2 112.31-23.87 112.31-17.58 112.31-9.1 121.74-10.85 121.74-7.17 121.74-5.79 120.39-5.31 119.01-5.31 115.59-5.31 114.06-8.15 112.71-8.15 111.77-8.15 111.44-6.84 111.44-3.64 111.44-2.07 115.11 0.36 119.96 0.36 125.6 0.36 128.36-2.98 128.36-7.28 128.36-15.5 118.21-14.16 118.21-18.12 118.21-19.62 119.66-20.67 121.19-20.67 123.41-20.67 123.52-18.27 123.52-17.29 123.52-16.78 123.67-16.63 124.54-16.63 127.34-16.63 128.91-18.12 128.91-20.82 128.91-24.02 126.69-26.2 122.18-26.2Z" transform="translate(-1.4600000381469727, 26.239999771118164)"></path></g><!----><!----><!----><!----><!----><!----><g data-gra="path-name-1" fill="#333" transform="translate(0,36.29999923706055)"><g transform="scale(1.00608)"><path d="M20.27-2.2C20.27-2.44 15.86-9.01 13.49-12.88 17.86-16.23 20.3-18.98 20.3-20.3 20.3-21.55 18.16-24.4 16.98-24.4 16.33-24.4 15.62-23.52 15.32-23.11 12.27-19.01 10.17-16.27 8.64-14.4 8.85-17.28 8.98-19.79 8.98-20.84 8.98-22.91 8.44-24.06 5.56-24.06L3.69-24.06C3.32-24.06 3.15-23.93 3.15-23.55 3.12-22.3 3.08-21.42 2.41-12.78 2.07-8.44 1.73-4.27 1.73-3.02 1.73-1.05 2.71 0 5.25 0L7.12 0C7.52 0 7.63-0.14 7.66-0.51L8.3-9.25 9.59-10.1C11.39-4.13 12.88 0.34 16.23 0.34 18.37 0.34 20.27-1.49 20.27-2.2ZM28.23 0C28.64 0 28.74-0.14 28.77-0.51 28.87-1.56 30.16-19.62 30.16-20.57 30.16-22.88 29.45-24.06 26.67-24.06L24.81-24.06C24.43-24.06 24.26-23.93 24.26-23.55 24.26-21.25 22.84-5.63 22.84-2.88 22.84-1.05 23.86 0 26.37 0ZM42.8-24.4C38.46-24.4 33.62-22.23 33.62-16.37 33.62-8.47 42.4-10.1 42.4-6.68 42.4-5.39 41.14-4.95 39.85-4.95 36.67-4.95 35.25-7.59 33.99-7.59 33.11-7.59 32.81-6.37 32.81-3.39 32.81-1.93 36.23 0.34 40.74 0.34 45.99 0.34 48.56-2.78 48.56-6.78 48.56-14.44 39.11-13.18 39.11-16.88 39.11-18.27 40.46-19.25 41.89-19.25 43.95-19.25 44.06-17.01 44.06-16.1 44.06-15.62 44.19-15.49 45.01-15.49 47.61-15.49 49.07-16.88 49.07-19.38 49.07-22.37 47-24.4 42.8-24.4ZM57.21 0C57.61 0 57.71-0.14 57.75-0.51 57.85-1.56 59.14-19.62 59.14-20.57 59.14-22.88 58.43-24.06 55.65-24.06L53.78-24.06C53.41-24.06 53.24-23.93 53.24-23.55 53.24-21.25 51.82-5.63 51.82-2.88 51.82-1.05 52.83 0 55.34 0ZM71.13-5.05C69.17-17.08 68.93-18.98 68.69-20.5 68.39-22.6 67.58-24.13 63.95-24.13 62.25-24.13 61.58-23.89 61.58-23.38 61.58-22.57 62.97-16.64 66.02-3.83 66.49-1.9 67.1 0 69.37 0L72.93 0C73.57 0 73.98-0.17 74.25-0.64 75.68-3.08 81.74-18.4 81.74-21.59 81.74-23.99 78.18-24.1 77.3-24.1 76.29-24.1 76.12-23.93 75.91-23.08 73.61-13.66 73.03-11.39 71.13-5.05ZM102.28-11.05C102.62-14.44 102.85-20.47 102.85-21.62 102.85-22.88 102.58-24.06 99.53-24.06L97.67-24.06C97.23-24.06 97.13-23.93 97.13-23.01 97.13-21.86 96.69-16.23 96.31-11.62 96.18-9.76 95.67-4.95 92.55-4.95 90.15-4.95 90.11-7.76 90.11-9.29 90.11-10.47 90.82-20.13 90.82-20.57 90.82-22.88 90.11-24.06 87.33-24.06L85.47-24.06C85.1-24.06 84.93-23.89 84.89-23.04 84.76-20.57 83.77-10.71 83.77-7.69 83.77-3.25 86.05 0.34 91.94 0.34 100.58 0.34 101.87-6.98 102.28-11.05ZM115.87 0C117.9 0 118.34-0.92 118.44-2.27L118.58-4.27C118.58-4.58 118.31-4.74 118.04-4.74L111.94-4.74 113.06-20.57C113.06-20.77 113.09-20.98 113.09-21.18 113.09-23.08 112.24-24.06 109.73-24.06L107.87-24.06C107.5-24.06 107.33-23.93 107.33-23.55 107.33-21.25 105.9-5.63 105.9-2.88 105.9-1.05 106.92 0 109.43 0ZM126.48 0C126.88 0 126.98-0.14 127.02-0.51 127.12-1.56 128.41-19.62 128.41-20.57 128.41-22.88 127.7-24.06 124.92-24.06L123.05-24.06C122.68-24.06 122.51-23.93 122.51-23.55 122.51-21.25 121.09-5.63 121.09-2.88 121.09-1.05 122.1 0 124.61 0Z" transform="translate(-1.7300000190734863, 24.399999618530273)"></path></g></g></g></g><!----></g></g><defs v-gra="od"></defs></svg>