<svg x="0" y="0" width="60" height="59.977808210961946" filtersec="colorsb3926119985" class="image-svg-svg primary" style="overflow: visible;"><svg xmlns="http://www.w3.org/2000/svg" viewBox="-0.0026958584785461426 -0.0010652542114257812 111.48871612548828 111.44795989990234"><title>资源 48</title><path d="M84 103.54c-25.72 16.33-65.91 7.36-79.92-26.86.75-.27 1.48-.59 2.23-.81l44.83-13c4.33-1.26 6.18-.61 8.64 3.19C67.82 78.49 75.84 90.94 84 103.54z" fill="#ffa217"></path><path d="M.46 64.43C-1.77 43.86 4 26.9 19.09 13.73 34.43.33 52.29-2.82 72.46 2.36z" fill="#a421ba"></path><path d="M81.51 6.18c16.32 9.13 26.57 22.82 29.32 41.47 2.68 18.18-2.89 33.93-16 47.9-4.74-30.14-9.36-59.58-14-89z" fill="#ff0069"></path></svg></svg>