<svg data-v-70b83f88="" version="1.0" xmlns="http://www.w3.org/2000/svg" xmlns:xlink="http://www.w3.org/1999/xlink" viewBox="0 0 340.000000 250.000000" preserveAspectRatio="xMidYMid meet" color-interpolation-filters="sRGB" style="margin: auto;"><rect data-v-70b83f88="" x="0" y="0" width="100%" height="100%" fill="#fff" fill-opacity="1" class="background"></rect><rect data-v-70b83f88="" x="0" y="0" width="100%" height="100%" fill="url(#watermark)" fill-opacity="1" class="watermarklayer"></rect><g data-v-70b83f88="" fill="#1A1A1A" class="icon-text-wrapper icon-svg-group iconsvg" transform="translate(81.3699951171875,50.01048278808594)"><g class="iconsvg-imagesvg" transform="translate(58.63000297546387,0)"><g><rect fill="#1A1A1A" fill-opacity="0" stroke-width="2" x="0" y="0" width="60" height="112.42902917533307" class="image-rect"></rect><svg x="0" y="0" width="60" height="112.42902917533307" filtersec="colorsb123534542" class="image-svg-svg primary" style="overflow: visible;"><svg xmlns="http://www.w3.org/2000/svg" viewBox="0 0 34 63.71000289916992"><title>q10</title><g data-name="图层 2"><g data-name="Layer 1"><path d="M13.61 53.62A32.34 32.34 0 0 1 0 49.67v2.83A10.53 10.53 0 0 0 10.5 63H21a33 33 0 0 0 3.91-.85c4.55-.8 9.09 1.56 9.09 1.56-.84-1-2.86-4.09-3.72-5.18-4.48-5.69-10.15-4.42-16.67-4.91z" fill="#1a1a1a"></path><path d="M10.5 47.25V10.5H21v37.42c1.38.06 2.66.15 3.76.31a13.12 13.12 0 0 1 6.74 3.11V10.5A10.53 10.53 0 0 0 21 0H10.5A10.53 10.53 0 0 0 0 10.5v31.66c2.15 3.16 6.14 4.48 10.5 5.09z" fill="#00a99d"></path></g></g></svg></svg><!----></g></g><g transform="translate(0,119.42903137207031)"><g data-gra="path-name" fill-rule="" class="tp-name iconsvg-namesvg"><g transform="scale(1)"><g><path d="M14.28 3.84L14.28 3.84 14.61 5.35Q14.28 5.38 13.67 5.38L13.67 5.38Q11.33 5.38 10.03 4.06 8.73 2.74 8.19 0.23L8.19 0.23Q1.37-0.94 1.37-9.76L1.37-9.76Q1.37-16.78 2.88-21.03L2.88-21.03Q4.38-25.17 8.59-25.17L8.59-25.17Q16.72-23.94 16.72-12.37L16.72-12.37Q16.72-11 16.7-10.16 16.68-9.33 16.57-7.82 16.45-6.32 16.25-5.35 16.05-4.38 15.63-3.19 15.21-2.01 14.63-1.3 14.04-0.6 13.12-0.1 12.2 0.4 11.03 0.4L11.03 0.4Q11 0.57 11 0.87L11 0.87Q11 2.11 12.14 2.98 13.27 3.84 14.28 3.84ZM14.18-10.93L14.18-10.93Q14.18-12.24 14.08-13.54 13.97-14.84 13.61-16.52 13.24-18.19 12.64-19.44 12.04-20.69 10.95-21.56 9.86-22.43 8.42-22.43L8.42-22.43Q7.42-22.43 6.65-22 5.88-21.56 5.43-20.69 4.98-19.83 4.71-19.01 4.45-18.19 4.33-16.85 4.21-15.51 4.2-14.78 4.18-14.04 4.18-12.77L4.18-12.77Q4.18-11.17 4.23-10.01 4.28-8.86 4.55-7.22 4.81-5.58 5.28-4.53 5.75-3.48 6.69-2.67 7.62-1.87 8.93-1.81L8.93-1.81Q10.87-1.81 12.09-3.18 13.31-4.55 13.74-6.49 14.18-8.42 14.18-10.93ZM29.35-16.78L29.35-16.78 30.96-16.48 30.96-16.15Q30.96-13.87 31.24-8.46 31.53-3.04 31.76-0.1L31.76-0.1Q31.09 0.17 30.49 0.17L30.49 0.17Q29.96 0.17 29.29 0L29.29 0 29.02-0.87Q26.88 0.33 24.94 0.33L24.94 0.33Q23.5 0.33 22.45-0.33 21.4-1 20.83-1.99 20.26-2.98 19.93-4.43 19.59-5.88 19.51-7.07 19.42-8.26 19.42-9.73L19.42-9.73Q19.42-14.01 19.96-17.59L19.96-17.59 21.46-17.25Q21.7-16.15 21.7-14.84L21.7-14.84Q21.7-14.11 21.61-12.3 21.53-10.5 21.53-9.56L21.53-9.56Q21.53-7.92 21.68-6.74 21.83-5.55 22.25-4.43 22.67-3.31 23.54-2.71 24.41-2.11 25.71-2.11L25.71-2.11Q27.18-2.11 28.89-2.77L28.89-2.77Q28.95-4.01 29.02-9.11 29.09-14.21 29.35-16.78ZM47.94-3.24L47.94-3.24 48.28-1.77Q46.81-1.24 43.91-0.59 41.02 0.07 39.62 0.07L39.62 0.07Q38.18 0.07 37.11-0.89 36.04-1.84 35.51-3.33 34.97-4.81 34.72-6.27 34.47-7.72 34.47-9.13L34.47-9.13Q34.47-17.49 42.02-17.49L42.02-17.49Q43.83-17.49 45.2-16.33 46.57-15.18 46.57-13.34L46.57-13.34Q46.57-12.34 46.02-11.57 45.47-10.8 44.68-10.35 43.9-9.9 42.68-9.53 41.46-9.16 40.52-8.99 39.58-8.83 38.28-8.63 36.98-8.42 36.47-8.32L36.47-8.32Q36.51-7.36 36.59-6.62 36.68-5.88 36.93-5.03 37.18-4.18 37.59-3.63 38.01-3.08 38.75-2.71 39.48-2.34 40.49-2.34L40.49-2.34Q41.69-2.34 43.43-2.56 45.17-2.77 46.52-3.01 47.88-3.24 47.94-3.24ZM36.61-10.4L36.61-10.4Q41.16-11.7 44.06-13.14L44.06-13.14Q43.83-14.24 43.43-14.74 43.03-15.25 42.23-15.25L42.23-15.25Q40.19-15.25 38.53-13.84 36.88-12.44 36.61-10.4ZM63.09-3.24L63.09-3.24 63.42-1.77Q61.95-1.24 59.06-0.59 56.17 0.07 54.76 0.07L54.76 0.07Q53.32 0.07 52.25-0.89 51.18-1.84 50.65-3.33 50.12-4.81 49.86-6.27 49.61-7.72 49.61-9.13L49.61-9.13Q49.61-17.49 57.17-17.49L57.17-17.49Q58.97-17.49 60.35-16.33 61.72-15.18 61.72-13.34L61.72-13.34Q61.72-12.34 61.16-11.57 60.61-10.8 59.83-10.35 59.04-9.9 57.82-9.53 56.6-9.16 55.66-8.99 54.73-8.83 53.42-8.63 52.12-8.42 51.62-8.32L51.62-8.32Q51.65-7.36 51.74-6.62 51.82-5.88 52.07-5.03 52.32-4.18 52.74-3.63 53.16-3.08 53.89-2.71 54.63-2.34 55.63-2.34L55.63-2.34Q56.84-2.34 58.57-2.56 60.31-2.77 61.67-3.01 63.02-3.24 63.09-3.24ZM51.75-10.4L51.75-10.4Q56.3-11.7 59.21-13.14L59.21-13.14Q58.97-14.24 58.57-14.74 58.17-15.25 57.37-15.25L57.37-15.25Q55.33-15.25 53.68-13.84 52.02-12.44 51.75-10.4ZM67.03-13.37L67.03-13.37 67.17-0.13Q66.66 0.13 65.96 0.13L65.96 0.13Q65.43 0.13 64.76-0.03L64.76-0.03Q64.86-2.14 64.89-8.32 64.93-14.51 65.16-17.49L65.16-17.49 66.66-17.15 66.76-15.28Q68.54-17.15 70.84-17.15L70.84-17.15Q72.01-17.15 72.72-16.98 73.42-16.82 74.07-16.16 74.72-15.51 75.06-14.44 75.39-13.37 75.66-11.38 75.92-9.39 76.04-6.74 76.16-4.08 76.19-0.03L76.19-0.03Q75.99 0.03 75.42 0.03L75.42 0.03Q74.22 0.03 73.55-0.27L73.55-0.27Q73.42-0.8 73.42-2.04L73.42-2.04Q73.42-2.67 73.47-4.43 73.52-6.18 73.52-7.15L73.52-7.15Q73.52-8.76 73.4-9.96 73.28-11.17 72.97-12.34 72.65-13.51 72-14.14 71.34-14.78 70.38-14.78L70.38-14.78Q69.27-14.78 68.65-14.61 68.03-14.44 67.78-14.21 67.53-13.97 67.03-13.37ZM89.2-16.11L89.2-16.11 88.86-14.78Q85.62-16.11 83.82-16.11L83.82-16.11Q82.21-16.11 81.56-15.63 80.91-15.14 80.91-13.57L80.91-13.57Q80.91-12.3 81.83-11.47 82.75-10.63 84.05-10.15 85.35-9.66 86.67-9.11 87.99-8.56 88.91-7.49 89.83-6.42 89.83-4.85L89.83-4.85Q89.83-2.71 88.26-1.1 86.69 0.5 84.18 0.53L84.18 0.53Q82.34 0.53 80.74-0.23 79.13-1 78.2-2.17L78.2-2.17 79.17-3.18Q79.57-3.01 80.35-2.64 81.14-2.27 81.47-2.16 81.81-2.04 82.46-1.91 83.11-1.77 83.85-1.77L83.85-1.77Q85.42-1.77 86.42-2.47 87.43-3.18 87.43-4.45L87.43-4.45Q87.43-5.28 86.96-5.87 86.49-6.45 85.72-6.82 84.95-7.19 84.03-7.52 83.11-7.86 82.19-8.27 81.27-8.69 80.51-9.28 79.74-9.86 79.27-10.87 78.8-11.87 78.8-13.24L78.8-13.24Q78.8-15.25 79.89-16.6 80.97-17.95 82.95-17.95L82.95-17.95Q83.71-17.95 84.68-17.72 85.65-17.49 86.22-17.28 86.79-17.08 87.91-16.63 89.03-16.18 89.2-16.11ZM115.44 0.23L115.44 0.23 112.5 0.23Q111.4-0.8 110.16-2.14 108.92-3.48 108.14-4.41 107.35-5.35 105.96-7.07 104.58-8.79 104.01-9.49L104.01-9.49 104.44-0.47Q104.14 0.53 103.27 0.53L103.27 0.53Q102.67 0.53 102.12 0.05 101.57-0.43 101.43-1.14L101.43-1.14Q101.53-3.81 101.6-12.24 101.67-20.66 101.9-24.67L101.9-24.67 103.41-24.34Q103.51-22.67 103.64-18.54 103.77-14.41 103.84-13.04L103.84-13.04Q104.41-13.74 105.96-15.63 107.52-17.52 108.1-18.2 108.69-18.89 109.81-20.19 110.93-21.5 111.86-22.47 112.8-23.44 113.87-24.44L113.87-24.44 114.87-22.8Q113.67-20.79 105.55-11.43L105.55-11.43Q106.72-10.2 110.38-5.68 114.04-1.17 115.44 0.23ZM117.51-17.18L117.51-17.18 119.05-16.85Q119.32-14.11 119.52-8.24 119.72-2.37 119.79-0.97L119.79-0.97Q119.49 0.07 118.62 0.07L118.62 0.07Q118.02 0.07 117.46-0.42 116.91-0.9 116.78-1.6L116.78-1.6Q116.85-2.98 117.05-8.74 117.25-14.51 117.51-17.18ZM117.98-23.17L117.98-23.17Q118.89-23.17 119.49-22.38 120.09-21.6 120.09-20.59L120.09-20.59Q120.09-19.86 119.74-19.41 119.39-18.96 118.79-18.96L118.79-18.96Q117.85-18.96 117.31-19.73 116.78-20.49 116.78-21.53L116.78-21.53Q116.78-22.27 117.1-22.72 117.41-23.17 117.98-23.17ZM133.13-16.11L133.13-16.11 132.79-14.78Q129.55-16.11 127.75-16.11L127.75-16.11Q126.14-16.11 125.49-15.63 124.84-15.14 124.84-13.57L124.84-13.57Q124.84-12.3 125.76-11.47 126.68-10.63 127.98-10.15 129.28-9.66 130.6-9.11 131.92-8.56 132.84-7.49 133.76-6.42 133.76-4.85L133.76-4.85Q133.76-2.71 132.19-1.1 130.62 0.5 128.11 0.53L128.11 0.53Q126.27 0.53 124.67-0.23 123.06-1 122.13-2.17L122.13-2.17 123.1-3.18Q123.5-3.01 124.28-2.64 125.07-2.27 125.4-2.16 125.74-2.04 126.39-1.91 127.04-1.77 127.78-1.77L127.78-1.77Q129.35-1.77 130.35-2.47 131.36-3.18 131.36-4.45L131.36-4.45Q131.36-5.28 130.89-5.87 130.42-6.45 129.65-6.82 128.88-7.19 127.96-7.52 127.04-7.86 126.12-8.27 125.2-8.69 124.44-9.28 123.67-9.86 123.2-10.87 122.73-11.87 122.73-13.24L122.73-13.24Q122.73-15.25 123.82-16.6 124.9-17.95 126.88-17.95L126.88-17.95Q127.64-17.95 128.61-17.72 129.58-17.49 130.15-17.28 130.72-17.08 131.84-16.63 132.96-16.18 133.13-16.11ZM136.54-17.18L136.54-17.18 138.08-16.85Q138.34-14.11 138.54-8.24 138.74-2.37 138.81-0.97L138.81-0.97Q138.51 0.07 137.64 0.07L137.64 0.07Q137.04 0.07 136.49-0.42 135.94-0.9 135.8-1.6L135.8-1.6Q135.87-2.98 136.07-8.74 136.27-14.51 136.54-17.18ZM137.01-23.17L137.01-23.17Q137.91-23.17 138.51-22.38 139.11-21.6 139.11-20.59L139.11-20.59Q139.11-19.86 138.76-19.41 138.41-18.96 137.81-18.96L137.81-18.96Q136.87-18.96 136.34-19.73 135.8-20.49 135.8-21.53L135.8-21.53Q135.8-22.27 136.12-22.72 136.44-23.17 137.01-23.17ZM150.95-17.18L150.95-17.18 153.19-16.88Q152.55-14.24 151.18-8.84 149.81-3.44 149.04-0.07L149.04-0.07Q147.74 0.17 146.77 0.17L146.77 0.17Q145.97 0.17 145.26 0.03L145.26 0.03Q144.76-1.71 143.68-5.47 142.59-9.23 141.84-12 141.08-14.78 140.48-17.32L140.48-17.32 142.69-17.15 147.04-3.24Q147.57-4.85 148.17-6.85 148.77-8.86 149.14-10.28 149.51-11.7 150.11-13.99 150.71-16.28 150.95-17.18ZM164.45-16.78L164.45-16.78 166.06-16.48 166.06-16.15Q166.06-13.87 166.34-8.46 166.63-3.04 166.86-0.1L166.86-0.1Q166.19 0.17 165.59 0.17L165.59 0.17Q165.06 0.17 164.39 0L164.39 0 164.12-0.87Q161.98 0.33 160.04 0.33L160.04 0.33Q158.6 0.33 157.55-0.33 156.5-1 155.93-1.99 155.36-2.98 155.03-4.43 154.69-5.88 154.61-7.07 154.52-8.26 154.52-9.73L154.52-9.73Q154.52-14.01 155.06-17.59L155.06-17.59 156.56-17.25Q156.8-16.15 156.8-14.84L156.8-14.84Q156.8-14.11 156.71-12.3 156.63-10.5 156.63-9.56L156.63-9.56Q156.63-7.92 156.78-6.74 156.93-5.55 157.35-4.43 157.77-3.31 158.64-2.71 159.51-2.11 160.81-2.11L160.81-2.11Q162.28-2.11 163.99-2.77L163.99-2.77Q164.05-4.01 164.12-9.11 164.19-14.21 164.45-16.78ZM169.57-1.6L170.3-22.93 171.84-22.6 172.58-0.97Q172.28 0.07 171.41 0.07L171.41 0.07Q170.81 0.07 170.25-0.42 169.7-0.9 169.57-1.6L169.57-1.6ZM176.05-17.18L176.05-17.18 177.59-16.85Q177.86-14.11 178.06-8.24 178.26-2.37 178.33-0.97L178.33-0.97Q178.03 0.07 177.16 0.07L177.16 0.07Q176.56 0.07 176-0.42 175.45-0.9 175.32-1.6L175.32-1.6Q175.39-2.98 175.59-8.74 175.79-14.51 176.05-17.18ZM176.52-23.17L176.52-23.17Q177.43-23.17 178.03-22.38 178.63-21.6 178.63-20.59L178.63-20.59Q178.63-19.86 178.28-19.41 177.93-18.96 177.33-18.96L177.33-18.96Q176.39-18.96 175.85-19.73 175.32-20.49 175.32-21.53L175.32-21.53Q175.32-22.27 175.64-22.72 175.95-23.17 176.52-23.17Z" transform="translate(-1.3700000047683716, 25.170000076293945)"></path></g><!----><!----><!----><!----><!----><!----><!----></g></g><!----></g></g><defs v-gra="od"></defs></svg>