<svg data-v-70b83f88="" version="1.0" xmlns="http://www.w3.org/2000/svg" xmlns:xlink="http://www.w3.org/1999/xlink" viewBox="0 0 340.000000 250.000000" preserveAspectRatio="xMidYMid meet" color-interpolation-filters="sRGB" style="margin: auto;"><rect data-v-70b83f88="" x="0" y="0" width="100%" height="100%" fill="#aadd22" fill-opacity="1" class="background"></rect><rect data-v-70b83f88="" x="0" y="0" width="100%" height="100%" fill="url(#watermark)" fill-opacity="1" class="watermarklayer"></rect><g data-v-70b83f88="" fill="#feffff" class="iconbordersvg" transform="translate(55.09076690673828,106.16050338745117)"><g data-gra="graph-icon-name"><g><rect data-gra="graph-name-bg" stroke-width="0" class="i-icon-bg" x="0" y="0" width="229.81845092773438" height="37.678993225097656" fill-opacity="0" stroke="rgb(254, 255, 255)"></rect><!----><!----></g><g transform="translate(0,0)"><g hollow-target="black" data-gra="graph-icon" transform="translate(0,0)" mask="url(#975bf540-c54d-45bc-92b8-82829dbcefe1)"><g><rect data-gra="graph-name-bg" stroke-width="2" class="i-icon-bg" fill="#feffff" x="0" y="0" width="56" height="37.67899513244629" fill-opacity="1"></rect><!----><!----></g><g transform="translate(5,5)"><g class="iconsvg-imagesvg"><g><!----><svg filter="url(#colors2291631246)" x="0" y="0" width="46" height="27.678995854167795" filtersec="colorsb6349110609" class="image-svg-svg primary" style="overflow: visible;"><svg xmlns="http://www.w3.org/2000/svg" viewBox="-2 0 85.6 53.1"><path d="M81.6 18.5H31.4L14.9 2l50.3.1-49 49h50.2L50.1 34.8H0" fill="none" stroke="#333" stroke-width="4" stroke-miterlimit="10"></path></svg></svg><defs><filter id="colors2291631246"><feColorMatrix type="matrix" values="0 0 0 0 0.9921875  0 0 0 0 0.99609375  0 0 0 0 0.99609375  0 0 0 1 0" class="icon-fecolormatrix"></feColorMatrix></filter><filter id="colorsf5993651251"><feColorMatrix type="matrix" values="0 0 0 0 0.99609375  0 0 0 0 0.99609375  0 0 0 0 0.99609375  0 0 0 1 0" class="icon-fecolormatrix"></feColorMatrix></filter><filter id="colorsb6349110609"><feColorMatrix type="matrix" values="0 0 0 0 0  0 0 0 0 0  0 0 0 0 0  0 0 0 1 0" class="icon-fecolormatrix"></feColorMatrix></filter></defs></g></g></g></g><g data-gra="graph-name" transform="translate(58,0)" mask="url(#f3a23a96-8476-4874-93a1-03ade2147cba)"><g><rect data-gra="graph-name-bg" stroke-width="2" class="i-icon-bg" x="0" y="0" width="171.81845092773438" height="37.67899513244629" fill-opacity="1"></rect><!----><!----></g><g transform="translate(5,8.194497108459473)"><g data-gra="path-name" fill-rule="" class="tp-name"><g transform="scale(1)"><g><path d="M18.25-9.67C18.25-15.51 12.28-17.8 9.31-17.8 5.21-17.8 0.47-14.78 0.47-9.31 0.47-3.09 4.6 0 9.31 0 10.23 0 11.13-0.14 12-0.42L13.86 2.36 17.75-0.52 15.89-3.02C17.35-4.67 18.25-6.96 18.25-9.67ZM9.17-4.62C6.77-4.62 4.83-6.6 4.83-9.12 4.83-11.93 7.47-13.3 9.27-13.3 11.03-13.3 13.68-11.81 13.68-9.12 13.68-6.46 11.6-4.62 9.17-4.62ZM24.12-12.07C24.12-12.07 23.08-7.17 23.88-5.21 24.69-3.25 26.86-4.1 27.21-5.49 27.7-7.59 27.52-12.07 27.52-12.07L31.31-12.47 31.67 0.19 27.77-0.12 27.85-1.89C27.85-1.89 25.13 1.11 21.76-0.4 18.2-2.03 19.76-12.43 19.76-12.43ZM44.09-6.86C44.09-6.86 42.82-14.05 36.45-12.17 31.34-10.66 31.92-5.66 32.54-4.06 34.09 0.02 39.82 2.33 43.67-2.64L40.77-4.57C40.77-4.57 38.08-1.96 36.26-5ZM37.56-9.67C39.23-10.26 39.94-8.65 39.94-8.65L36.31-7.73C36.31-7.73 35.89-9.1 37.56-9.67ZM56.75-6.86C56.75-6.86 55.48-14.05 49.11-12.17 44-10.66 44.59-5.66 45.2-4.06 46.76 0.02 52.48 2.33 56.33-2.64L53.43-4.57C53.43-4.57 50.74-1.96 48.92-5ZM50.22-9.67C51.9-10.26 52.6-8.65 52.6-8.65L48.97-7.73C48.97-7.73 48.55-9.1 50.22-9.67ZM58.1-0.02L57.93-12.28 62.06-12.57 62.06-11.67C62.06-11.67 63.78-13.23 66.44-12.8 72.31-11.84 69.93-0.47 69.93-0.47L65.71-1.06C65.71-1.06 66.98-10.56 63.78-9.64 60.57-8.72 62.1-0.47 62.1-0.47ZM78.94-12.26C78.94-12.26 73.92-13.77 71.79-10.73 70.36-8.68 71.46-6.77 72.71-5.85 74.55-4.48 77.57-5.71 77.26-4.22 77.08-3.35 75.52-2.99 73.4-4.06L72.03-0.85C72.03-0.85 77.15 1.39 79.79-1.34 82.19-3.89 80.24-7.92 77.26-7.85 75.45-7.78 74.86-8.02 74.93-8.91 75-9.81 77.03-9.76 78.33-9.22Z" transform="translate(-0.4700000286102295, 18.93000030517578)"></path></g><!----><!----><!----><!----><!----><!----><g data-gra="path-name-1" fill="#feffff" transform="translate(83.39691162109375,0)"><g transform="scale(1)"><path d="M5.4-18.3L0.12-18.04 0.12 0.17 5.73 0.19 5.61-4.93 6.34-5.87 11.84 0.99 16.2-3.37 10.16-9.9 14.74-14.36 10.96-18.65 5.42-13.16ZM0.83-0.54L0.83-17.38 4.69-17.54 4.72-11.46 10.92-17.61 13.75-14.41 9.17-9.95 15.21-3.37 11.88-0.05 6.34-7 4.9-5.16 5.02-0.52ZM19.12-18.93C16.95-18.93 16.36-17.07 16.29-16.15 16.25-15.23 16.95-13.23 18.74-13.04 21.22-12.8 22.38-14.67 22.33-16.15 22.3-17.68 20.91-18.93 19.12-18.93ZM19.12-18.23C20.58-18.23 21.6-17.31 21.62-16.13 21.67-14.9 20.8-13.56 18.82-13.75 17.52-13.89 16.95-15.37 17-16.1 17.07-16.93 17.47-18.23 19.12-18.23ZM22.07-12.5L16.53-12.83 16.91 0.14 21.86 0.21ZM17.61-0.57L17.24-12.07 21.36-11.84 21.15-0.5ZM30.67-12.19L30.42-12.59C30.42-12.59 25.16-14.17 22.89-10.94 21.31-8.7 22.59-6.53 23.88-5.56 25.96-4.03 28.48-5.23 28.29-4.29 28.18-3.7 26.71-3.37 24.62-4.55L23.08-0.99 23.27-0.52C23.27-0.52 28.62 1.82 31.43-1.11 34.07-3.89 31.92-8.28 28.65-8.21 26.95-8.13 26.62-8.3 26.67-8.89 26.71-9.41 28.86-9.36 29.97-8.7ZM29.45-9.69C28.06-10.11 26.05-10.04 25.96-8.94 25.87-7.78 26.76-7.43 28.67-7.5 31.31-7.57 33.08-3.89 30.91-1.58 28.84 0.57 25.02-0.61 23.88-1.04L24.97-3.58C27.11-2.62 28.74-3.02 29-4.15 29.4-6.11 25.84-5 24.31-6.13 23.15-6.98 22.19-8.7 23.46-10.52 25.13-12.92 28.81-12.26 29.9-12ZM34.73-18.93C32.56-18.93 31.97-17.07 31.9-16.15 31.85-15.23 32.56-13.23 34.35-13.04 36.83-12.8 37.98-14.67 37.94-16.15 37.91-17.68 36.52-18.93 34.73-18.93ZM34.73-18.23C36.19-18.23 37.21-17.31 37.23-16.13 37.28-14.9 36.4-13.56 34.42-13.75 33.13-13.89 32.56-15.37 32.61-16.1 32.68-16.93 33.08-18.23 34.73-18.23ZM37.68-12.5L32.14-12.83 32.51 0.14 37.47 0.21ZM33.22-0.57L32.84-12.07 36.97-11.84 36.76-0.5ZM44.52-7.14L42.75-13.56 37.84-12 42.11 0.47 46.8 0.05 50.6-11.39 45.88-13.13ZM38.74-11.53L42.28-12.66 44.56-4.22 46.4-12.19 49.7-10.96 46.28-0.61 42.58-0.28ZM55.83-12.43L51.47-12.78 51.09-12.47C51.09-12.47 49.49-1.82 53.31-0.07 55.88 1.08 58.1-0.24 59.16-1.06L59.09 0.21 63.71 0.57 63.35-12.87 59.16-12.43 58.85-12.05C58.85-12.05 59.04-7.62 58.54-5.56 58.26-4.46 56.54-3.8 55.9-5.35 55.15-7.19 56.16-12 56.16-12ZM55.38-11.74C55.15-10.54 54.54-6.79 55.24-5.07 56.21-2.71 58.83-3.75 59.25-5.4 59.68-7.21 59.61-10.68 59.56-11.77L62.65-12.07 63-0.19 59.84-0.45 59.89-1.86 59.27-2.12C59.27-2.12 56.73 0.68 53.59-0.73 50.65-2.07 51.52-10.28 51.75-12.05ZM69.08-16.48L64.67-16.95 64.27-16.62C64.27-16.62 62.95-3.58 65.64-0.83 68.38 1.98 72.64-0.35 72.64-0.35L72.83-0.73 71.79-5.09 71.25-5.33C71.25-5.33 70.29-4.72 69.58-5.4 68.59-6.39 69.39-16.1 69.39-16.1ZM68.66-15.82C68.52-14.03 67.98-5.97 69.11-4.88 69.81-4.17 70.69-4.34 71.21-4.53L72.08-0.85C71.18-0.45 68.16 0.73 66.16-1.32 63.94-3.58 64.77-14.12 64.96-16.2ZM75.33-18.93C73.16-18.93 72.57-17.07 72.5-16.15 72.46-15.23 73.16-13.23 74.95-13.04 77.43-12.8 78.59-14.67 78.54-16.15 78.51-17.68 77.12-18.93 75.33-18.93ZM75.33-18.23C76.79-18.23 77.81-17.31 77.83-16.13 77.88-14.9 77.01-13.56 75.03-13.75 73.73-13.89 73.16-15.37 73.21-16.1 73.28-16.93 73.68-18.23 75.33-18.23ZM78.28-12.5L72.74-12.83 73.12 0.14 78.07 0.21ZM73.82-0.57L73.45-12.07 77.57-11.84 77.36-0.5Z" transform="translate(-0.12000000476837158, 18.93000030517578)"></path></g></g></g></g><!----></g></g></g></g></g><mask id="975bf540-c54d-45bc-92b8-82829dbcefe1"><g fill="white"><rect data-gra="graph-name-bg" stroke-width="2" class="i-icon-bg" x="0" y="0" width="56" height="37.67899513244629" fill-opacity="1"></rect></g><g transform="translate(5,5)" fill="black"><g class="iconsvg-imagesvg"><g><svg x="0" y="0" width="46" height="27.678995854167795" class="image-svg-svg primary" style="overflow: visible;" filter="url(#colorsb6349110609)"><svg xmlns="http://www.w3.org/2000/svg" viewBox="-2 0 85.6 53.1"><path d="M81.6 18.5H31.4L14.9 2l50.3.1-49 49h50.2L50.1 34.8H0" fill="none" stroke="#333" stroke-width="4" stroke-miterlimit="10"></path></svg></svg><defs></defs></g></g></g></mask><mask id="f3a23a96-8476-4874-93a1-03ade2147cba"><g fill="white"><rect data-gra="graph-name-bg" stroke-width="2" class="i-icon-bg" x="0" y="0" width="171.81845092773438" height="37.67899513244629" fill-opacity="1"></rect></g><g transform="translate(5,8.194497108459473)" fill="black"><g data-gra="path-name" fill-rule="" class="tp-name"><g transform="scale(1)"><g><path d="M18.25-9.67C18.25-15.51 12.28-17.8 9.31-17.8 5.21-17.8 0.47-14.78 0.47-9.31 0.47-3.09 4.6 0 9.31 0 10.23 0 11.13-0.14 12-0.42L13.86 2.36 17.75-0.52 15.89-3.02C17.35-4.67 18.25-6.96 18.25-9.67ZM9.17-4.62C6.77-4.62 4.83-6.6 4.83-9.12 4.83-11.93 7.47-13.3 9.27-13.3 11.03-13.3 13.68-11.81 13.68-9.12 13.68-6.46 11.6-4.62 9.17-4.62ZM24.12-12.07C24.12-12.07 23.08-7.17 23.88-5.21 24.69-3.25 26.86-4.1 27.21-5.49 27.7-7.59 27.52-12.07 27.52-12.07L31.31-12.47 31.67 0.19 27.77-0.12 27.85-1.89C27.85-1.89 25.13 1.11 21.76-0.4 18.2-2.03 19.76-12.43 19.76-12.43ZM44.09-6.86C44.09-6.86 42.82-14.05 36.45-12.17 31.34-10.66 31.92-5.66 32.54-4.06 34.09 0.02 39.82 2.33 43.67-2.64L40.77-4.57C40.77-4.57 38.08-1.96 36.26-5ZM37.56-9.67C39.23-10.26 39.94-8.65 39.94-8.65L36.31-7.73C36.31-7.73 35.89-9.1 37.56-9.67ZM56.75-6.86C56.75-6.86 55.48-14.05 49.11-12.17 44-10.66 44.59-5.66 45.2-4.06 46.76 0.02 52.48 2.33 56.33-2.64L53.43-4.57C53.43-4.57 50.74-1.96 48.92-5ZM50.22-9.67C51.9-10.26 52.6-8.65 52.6-8.65L48.97-7.73C48.97-7.73 48.55-9.1 50.22-9.67ZM58.1-0.02L57.93-12.28 62.06-12.57 62.06-11.67C62.06-11.67 63.78-13.23 66.44-12.8 72.31-11.84 69.93-0.47 69.93-0.47L65.71-1.06C65.71-1.06 66.98-10.56 63.78-9.64 60.57-8.72 62.1-0.47 62.1-0.47ZM78.94-12.26C78.94-12.26 73.92-13.77 71.79-10.73 70.36-8.68 71.46-6.77 72.71-5.85 74.55-4.48 77.57-5.71 77.26-4.22 77.08-3.35 75.52-2.99 73.4-4.06L72.03-0.85C72.03-0.85 77.15 1.39 79.79-1.34 82.19-3.89 80.24-7.92 77.26-7.85 75.45-7.78 74.86-8.02 74.93-8.91 75-9.81 77.03-9.76 78.33-9.22Z" transform="translate(-0.4700000286102295, 18.93000030517578)"></path></g><g data-gra="path-name-1" transform="translate(83.39691162109375,0)"><g transform="scale(1)"><path d="M5.4-18.3L0.12-18.04 0.12 0.17 5.73 0.19 5.61-4.93 6.34-5.87 11.84 0.99 16.2-3.37 10.16-9.9 14.74-14.36 10.96-18.65 5.42-13.16ZM0.83-0.54L0.83-17.38 4.69-17.54 4.72-11.46 10.92-17.61 13.75-14.41 9.17-9.95 15.21-3.37 11.88-0.05 6.34-7 4.9-5.16 5.02-0.52ZM19.12-18.93C16.95-18.93 16.36-17.07 16.29-16.15 16.25-15.23 16.95-13.23 18.74-13.04 21.22-12.8 22.38-14.67 22.33-16.15 22.3-17.68 20.91-18.93 19.12-18.93ZM19.12-18.23C20.58-18.23 21.6-17.31 21.62-16.13 21.67-14.9 20.8-13.56 18.82-13.75 17.52-13.89 16.95-15.37 17-16.1 17.07-16.93 17.47-18.23 19.12-18.23ZM22.07-12.5L16.53-12.83 16.91 0.14 21.86 0.21ZM17.61-0.57L17.24-12.07 21.36-11.84 21.15-0.5ZM30.67-12.19L30.42-12.59C30.42-12.59 25.16-14.17 22.89-10.94 21.31-8.7 22.59-6.53 23.88-5.56 25.96-4.03 28.48-5.23 28.29-4.29 28.18-3.7 26.71-3.37 24.62-4.55L23.08-0.99 23.27-0.52C23.27-0.52 28.62 1.82 31.43-1.11 34.07-3.89 31.92-8.28 28.65-8.21 26.95-8.13 26.62-8.3 26.67-8.89 26.71-9.41 28.86-9.36 29.97-8.7ZM29.45-9.69C28.06-10.11 26.05-10.04 25.96-8.94 25.87-7.78 26.76-7.43 28.67-7.5 31.31-7.57 33.08-3.89 30.91-1.58 28.84 0.57 25.02-0.61 23.88-1.04L24.97-3.58C27.11-2.62 28.74-3.02 29-4.15 29.4-6.11 25.84-5 24.31-6.13 23.15-6.98 22.19-8.7 23.46-10.52 25.13-12.92 28.81-12.26 29.9-12ZM34.73-18.93C32.56-18.93 31.97-17.07 31.9-16.15 31.85-15.23 32.56-13.23 34.35-13.04 36.83-12.8 37.98-14.67 37.94-16.15 37.91-17.68 36.52-18.93 34.73-18.93ZM34.73-18.23C36.19-18.23 37.21-17.31 37.23-16.13 37.28-14.9 36.4-13.56 34.42-13.75 33.13-13.89 32.56-15.37 32.61-16.1 32.68-16.93 33.08-18.23 34.73-18.23ZM37.68-12.5L32.14-12.83 32.51 0.14 37.47 0.21ZM33.22-0.57L32.84-12.07 36.97-11.84 36.76-0.5ZM44.52-7.14L42.75-13.56 37.84-12 42.11 0.47 46.8 0.05 50.6-11.39 45.88-13.13ZM38.74-11.53L42.28-12.66 44.56-4.22 46.4-12.19 49.7-10.96 46.28-0.61 42.58-0.28ZM55.83-12.43L51.47-12.78 51.09-12.47C51.09-12.47 49.49-1.82 53.31-0.07 55.88 1.08 58.1-0.24 59.16-1.06L59.09 0.21 63.71 0.57 63.35-12.87 59.16-12.43 58.85-12.05C58.85-12.05 59.04-7.62 58.54-5.56 58.26-4.46 56.54-3.8 55.9-5.35 55.15-7.19 56.16-12 56.16-12ZM55.38-11.74C55.15-10.54 54.54-6.79 55.24-5.07 56.21-2.71 58.83-3.75 59.25-5.4 59.68-7.21 59.61-10.68 59.56-11.77L62.65-12.07 63-0.19 59.84-0.45 59.89-1.86 59.27-2.12C59.27-2.12 56.73 0.68 53.59-0.73 50.65-2.07 51.52-10.28 51.75-12.05ZM69.08-16.48L64.67-16.95 64.27-16.62C64.27-16.62 62.95-3.58 65.64-0.83 68.38 1.98 72.64-0.35 72.64-0.35L72.83-0.73 71.79-5.09 71.25-5.33C71.25-5.33 70.29-4.72 69.58-5.4 68.59-6.39 69.39-16.1 69.39-16.1ZM68.66-15.82C68.52-14.03 67.98-5.97 69.11-4.88 69.81-4.17 70.69-4.34 71.21-4.53L72.08-0.85C71.18-0.45 68.16 0.73 66.16-1.32 63.94-3.58 64.77-14.12 64.96-16.2ZM75.33-18.93C73.16-18.93 72.57-17.07 72.5-16.15 72.46-15.23 73.16-13.23 74.95-13.04 77.43-12.8 78.59-14.67 78.54-16.15 78.51-17.68 77.12-18.93 75.33-18.93ZM75.33-18.23C76.79-18.23 77.81-17.31 77.83-16.13 77.88-14.9 77.01-13.56 75.03-13.75 73.73-13.89 73.16-15.37 73.21-16.1 73.28-16.93 73.68-18.23 75.33-18.23ZM78.28-12.5L72.74-12.83 73.12 0.14 78.07 0.21ZM73.82-0.57L73.45-12.07 77.57-11.84 77.36-0.5Z" transform="translate(-0.12000000476837158, 18.93000030517578)"></path></g></g></g></g></g></mask><defs v-gra="od"></defs></svg>