<svg data-v-70b83f88="" version="1.0" xmlns="http://www.w3.org/2000/svg" xmlns:xlink="http://www.w3.org/1999/xlink" viewBox="0 0 340.000000 250.000000" preserveAspectRatio="xMidYMid meet" color-interpolation-filters="sRGB" style="margin: auto;"><rect data-v-70b83f88="" x="0" y="0" width="100%" height="100%" fill="#073763" fill-opacity="1" class="background"></rect><rect data-v-70b83f88="" x="0" y="0" width="100%" height="100%" fill="url(#watermark)" fill-opacity="1" class="watermarklayer"></rect><g data-v-70b83f88="" fill="#e69138" class="pmspacesvg" transform="translate(70.62994384765625,77.5021743774414)"><!----><polyline data-gra="graph-name" stroke="#e69138" stroke-width="20" fill-opacity="0" stroke-opacity="0.5" points="0,84.99565124511719 0,0 188.7401123046875,0"></polyline><!----><g mask="url(#d34643c0-5427-4709-85e8-7ee464a94408)"><g><rect data-gra="graph-name-bg" stroke-width="2" class="i-icon-bg" x="0" y="0" width="198.7401123046875" height="94.99565124511719"></rect><!----><!----></g><g transform="translate(10,10)"><g data-gra="path-name" fill-rule="" class="tp-name" fill="#073763"><g transform="scale(1)"><g><path d="M20.83-32.69L20.83-32.69Q25.19-32.69 27.9-31.57 30.61-30.46 32.18-28.12L32.18-28.12Q33.19-26.55 33.75-24.58 34.31-22.6 34.31-20.02L34.31-20.02Q34.31-17.79 33.9-15.56 33.5-13.33 32.76-11.28 32.03-9.22 30.99-7.42 29.95-5.62 28.68-4.26L28.68-4.26Q25.64-0.91 20.93 0L20.93 0Q22.25 1.32 23.97 2.15 25.69 2.99 27.52 3.4L27.52 3.4Q25.24 5.07 23.46 6.39L23.46 6.39Q22.7 6.94 21.97 7.47 21.23 8.01 20.68 8.44 20.12 8.87 19.74 9.1 19.36 9.32 19.36 9.32L19.36 9.32Q17.74 8.31 16.55 7.09 15.35 5.88 14.52 4.64 13.68 3.4 13.15 2.26 12.62 1.11 12.31 0.25L12.31 0.25Q9.32 0 7.37-0.91 5.42-1.82 4.16-3.45L4.16-3.45Q3.04-4.86 2.41-7.04 1.77-9.22 1.77-12.52L1.77-12.52Q1.77-18.14 3.78-22.58 5.78-27.01 9.48-29.59L9.48-29.59Q11.71-31.17 14.44-31.93 17.18-32.69 20.83-32.69ZM15.1-3.14L15.1-3.14Q16.27-3.14 17.31-4.18 18.34-5.22 19.23-6.97 20.12-8.72 20.85-10.95 21.59-13.18 22.09-15.56 22.6-17.94 22.88-20.3 23.16-22.65 23.16-24.58L23.16-24.58Q23.16-27.21 22.63-28.2 22.09-29.19 21.08-29.19L21.08-29.19Q19.92-29.19 18.85-28.18 17.79-27.16 16.85-25.46 15.91-23.77 15.18-21.56 14.44-19.36 13.91-17.03 13.38-14.7 13.1-12.42 12.82-10.14 12.82-8.21L12.82-8.21Q12.82-5.32 13.45-4.23 14.09-3.14 15.1-3.14ZM52.7-32.18L48.24-11.5Q47.99-10.39 47.84-9.58 47.69-8.77 47.69-8.06L47.69-8.06Q47.69-6.28 48.93-5.22 50.17-4.16 52.6-4.16L52.6-4.16Q54.37-4.16 55.52-4.76 56.66-5.37 57.39-6.39 58.12-7.4 58.56-8.72 58.99-10.03 59.29-11.5L59.29-11.5 63.6-32.18 68.21-32.18 63.8-11.4Q63.29-8.97 62.33-6.84 61.37-4.71 59.57-3.09 57.77-1.47 54.93-0.53 52.09 0.41 47.89 0.41L47.89 0.41Q42.06 0.41 39.27-1.49 36.49-3.4 36.49-7.35L36.49-7.35Q36.49-9.12 36.94-11.86 37.4-14.59 38.11-17.79L38.11-17.79 41.2-32.18 52.7-32.18ZM66.64 0L73.48-32.18 94.81-32.18 94-28.33 83.67-28.33 81.54-18.55 90.2-18.55 89.39-14.75 80.73-14.75 78.4-3.9 88.73-3.9 87.97 0 66.64 0ZM92.13 0L98.97-32.18 120.3-32.18 119.49-28.33 109.16-28.33 107.03-18.55 115.69-18.55 114.88-14.75 106.22-14.75 103.89-3.9 114.22-3.9 113.46 0 92.13 0ZM151.57-32.18L144.63 0 132.77 0 127.15-23.26 122.18 0 117.62 0 124.46-32.18 136.57-32.18 141.89-8.61 146.91-32.18 151.57-32.18ZM178.63-22.85L170.22-22.85Q170.37-23.61 170.37-24.93L170.37-24.93Q170.37-25.69 170.27-26.43 170.17-27.16 169.92-27.74 169.66-28.33 169.16-28.66 168.65-28.99 167.84-28.99L167.84-28.99Q166.93-28.99 166.17-28.58 165.41-28.18 164.82-27.54 164.24-26.91 163.91-26.07 163.58-25.24 163.58-24.32L163.58-24.32Q163.58-23.01 164.27-22.3 164.95-21.59 166.06-21.13 167.18-20.68 168.6-20.37 170.02-20.07 171.54-19.66L171.54-19.66Q172.8-19.31 174.07-18.75 175.34-18.19 176.33-17.26 177.31-16.32 177.92-14.82 178.53-13.33 178.53-11.1L178.53-11.1Q178.53-7.91 177.26-5.73 176-3.55 173.77-2.18 171.54-0.81 168.47-0.2 165.41 0.41 161.81 0.41L161.81 0.41Q158.16 0.41 155.85-0.08 153.55-0.56 152.23-1.11L152.23-1.11Q150.66-1.77 149.9-2.64L149.9-2.64 151.62-9.58 160.54-9.58Q160.49-9.12 160.44-8.34 160.39-7.55 160.39-7.09L160.39-7.09Q160.39-6.49 160.54-5.83 160.69-5.17 161.02-4.61 161.35-4.05 161.96-3.7 162.57-3.34 163.48-3.34L163.48-3.34Q164.49-3.34 165.28-3.8 166.06-4.26 166.6-4.94 167.13-5.62 167.41-6.46 167.69-7.3 167.69-8.11L167.69-8.11Q167.69-9.22 167.15-9.98 166.62-10.74 165.71-11.28 164.8-11.81 163.61-12.19 162.42-12.57 161.15-12.97L161.15-12.97Q159.93-13.33 158.59-13.83 157.25-14.34 156.13-15.25 155.02-16.17 154.28-17.56 153.55-18.95 153.55-21.13L153.55-21.13Q153.55-24.37 155.19-26.58 156.84-28.78 159.35-30.15 161.86-31.52 164.85-32.1 167.84-32.69 170.52-32.69L170.52-32.69Q174.07-32.69 176.63-31.85 179.19-31.01 180.51-29.9L180.51-29.9 178.63-22.85Z" transform="translate(-1.7699999809265137, 32.689998626708984)"></path></g><!----><!----><!----><!----><!----><!----><g data-gra="path-name-1" fill="#e69138" transform="translate(0,45.0099983215332)"><g transform="scale(0.98637)"><path d="M16.39-29.57L13.64-16.71 25.14-29.61 30.4-29.61 19.97-18.3 27.05 0 16.9 0 12.8-12.99 10.06 0 0 0 6.29-29.57 16.39-29.57ZM44.7-29.57L38.37 0 28.31 0 34.59-29.57 44.7-29.57ZM69.56-21L61.83-21Q61.97-21.7 61.97-22.91L61.97-22.91Q61.97-23.61 61.88-24.28 61.78-24.96 61.55-25.49 61.32-26.03 60.85-26.33 60.39-26.63 59.64-26.63L59.64-26.63Q58.8-26.63 58.11-26.26 57.41-25.89 56.87-25.31 56.34-24.72 56.03-23.95 55.73-23.19 55.73-22.35L55.73-22.35Q55.73-21.14 56.36-20.49 56.99-19.83 58.01-19.42 59.04-19 60.34-18.72 61.65-18.44 63.04-18.07L63.04-18.07Q64.21-17.74 65.37-17.23 66.53-16.71 67.44-15.85 68.35-14.99 68.91-13.62 69.47-12.25 69.47-10.2L69.47-10.2Q69.47-7.26 68.3-5.26 67.14-3.26 65.09-2 63.04-0.74 60.23-0.19 57.41 0.37 54.1 0.37L54.1 0.37Q50.75 0.37 48.63-0.07 46.51-0.51 45.3-1.02L45.3-1.02Q43.86-1.63 43.16-2.42L43.16-2.42 44.74-8.8 52.94-8.8Q52.89-8.38 52.85-7.66 52.8-6.94 52.8-6.52L52.8-6.52Q52.8-5.96 52.94-5.35 53.08-4.75 53.38-4.24 53.68-3.72 54.24-3.4 54.8-3.07 55.64-3.07L55.64-3.07Q56.57-3.07 57.29-3.49 58.01-3.91 58.5-4.54 58.99-5.17 59.25-5.94 59.5-6.7 59.5-7.45L59.5-7.45Q59.5-8.47 59.01-9.17 58.53-9.87 57.69-10.36 56.85-10.85 55.76-11.2 54.66-11.55 53.5-11.92L53.5-11.92Q52.38-12.25 51.15-12.71 49.91-13.18 48.89-14.01 47.86-14.85 47.19-16.13 46.51-17.41 46.51-19.42L46.51-19.42Q46.51-22.4 48.03-24.42 49.54-26.45 51.84-27.7 54.15-28.96 56.9-29.5 59.64-30.03 62.11-30.03L62.11-30.03Q65.37-30.03 67.72-29.26 70.07-28.49 71.28-27.47L71.28-27.47 69.56-21ZM87.21-29.57L80.87 0 70.82 0 77.1-29.57 87.21-29.57ZM91.54 0L89.81-29.57 100.43-29.57 102.01-9.54 111.7-29.57 116.31-29.57 102.52 0 91.54 0ZM129.58-29.57L125.48-10.57Q125.25-9.54 125.11-8.8 124.97-8.05 124.97-7.4L124.97-7.4Q124.97-5.77 126.11-4.8 127.25-3.82 129.48-3.82L129.48-3.82Q131.11-3.82 132.16-4.38 133.21-4.94 133.88-5.87 134.56-6.8 134.95-8.01 135.35-9.22 135.63-10.57L135.63-10.57 139.59-29.57 143.82-29.57 139.77-10.48Q139.31-8.24 138.42-6.29 137.54-4.33 135.88-2.84 134.23-1.35 131.62-0.49 129.02 0.37 125.15 0.37L125.15 0.37Q119.8 0.37 117.24-1.37 114.68-3.12 114.68-6.75L114.68-6.75Q114.68-8.38 115.1-10.89 115.51-13.41 116.17-16.34L116.17-16.34 119.01-29.57 129.58-29.57ZM142.38 0L148.67-29.57 158.77-29.57 153.27-3.91 162.73-3.91 161.93 0 142.38 0ZM181.21-29.57L174.88 0 164.82 0 171.11-29.57 181.21-29.57Z" transform="translate(0, 30.030000686645508)"></path></g></g></g></g><!----></g></g></g><mask id="d34643c0-5427-4709-85e8-7ee464a94408"><g fill="white"><rect data-gra="graph-name-bg" stroke-width="2" class="i-icon-bg" x="0" y="0" width="198.7401123046875" height="94.99565124511719"></rect></g><g transform="translate(10,10)" fill="black"><g data-gra="path-name" fill-rule="" class="tp-name"><g transform="scale(1)"><g><path d="M20.83-32.69L20.83-32.69Q25.19-32.69 27.9-31.57 30.61-30.46 32.18-28.12L32.18-28.12Q33.19-26.55 33.75-24.58 34.31-22.6 34.31-20.02L34.31-20.02Q34.31-17.79 33.9-15.56 33.5-13.33 32.76-11.28 32.03-9.22 30.99-7.42 29.95-5.62 28.68-4.26L28.68-4.26Q25.64-0.91 20.93 0L20.93 0Q22.25 1.32 23.97 2.15 25.69 2.99 27.52 3.4L27.52 3.4Q25.24 5.07 23.46 6.39L23.46 6.39Q22.7 6.94 21.97 7.47 21.23 8.01 20.68 8.44 20.12 8.87 19.74 9.1 19.36 9.32 19.36 9.32L19.36 9.32Q17.74 8.31 16.55 7.09 15.35 5.88 14.52 4.64 13.68 3.4 13.15 2.26 12.62 1.11 12.31 0.25L12.31 0.25Q9.32 0 7.37-0.91 5.42-1.82 4.16-3.45L4.16-3.45Q3.04-4.86 2.41-7.04 1.77-9.22 1.77-12.52L1.77-12.52Q1.77-18.14 3.78-22.58 5.78-27.01 9.48-29.59L9.48-29.59Q11.71-31.17 14.44-31.93 17.18-32.69 20.83-32.69ZM15.1-3.14L15.1-3.14Q16.27-3.14 17.31-4.18 18.34-5.22 19.23-6.97 20.12-8.72 20.85-10.95 21.59-13.18 22.09-15.56 22.6-17.94 22.88-20.3 23.16-22.65 23.16-24.58L23.16-24.58Q23.16-27.21 22.63-28.2 22.09-29.19 21.08-29.19L21.08-29.19Q19.92-29.19 18.85-28.18 17.79-27.16 16.85-25.46 15.91-23.77 15.18-21.56 14.44-19.36 13.91-17.03 13.38-14.7 13.1-12.42 12.82-10.14 12.82-8.21L12.82-8.21Q12.82-5.32 13.45-4.23 14.09-3.14 15.1-3.14ZM52.7-32.18L48.24-11.5Q47.99-10.39 47.84-9.58 47.69-8.77 47.69-8.06L47.69-8.06Q47.69-6.28 48.93-5.22 50.17-4.16 52.6-4.16L52.6-4.16Q54.37-4.16 55.52-4.76 56.66-5.37 57.39-6.39 58.12-7.4 58.56-8.72 58.99-10.03 59.29-11.5L59.29-11.5 63.6-32.18 68.21-32.18 63.8-11.4Q63.29-8.97 62.33-6.84 61.37-4.71 59.57-3.09 57.77-1.47 54.93-0.53 52.09 0.41 47.89 0.41L47.89 0.41Q42.06 0.41 39.27-1.49 36.49-3.4 36.49-7.35L36.49-7.35Q36.49-9.12 36.94-11.86 37.4-14.59 38.11-17.79L38.11-17.79 41.2-32.18 52.7-32.18ZM66.64 0L73.48-32.18 94.81-32.18 94-28.33 83.67-28.33 81.54-18.55 90.2-18.55 89.39-14.75 80.73-14.75 78.4-3.9 88.73-3.9 87.97 0 66.64 0ZM92.13 0L98.97-32.18 120.3-32.18 119.49-28.33 109.16-28.33 107.03-18.55 115.69-18.55 114.88-14.75 106.22-14.75 103.89-3.9 114.22-3.9 113.46 0 92.13 0ZM151.57-32.18L144.63 0 132.77 0 127.15-23.26 122.18 0 117.62 0 124.46-32.18 136.57-32.18 141.89-8.61 146.91-32.18 151.57-32.18ZM178.63-22.85L170.22-22.85Q170.37-23.61 170.37-24.93L170.37-24.93Q170.37-25.69 170.27-26.43 170.17-27.16 169.92-27.74 169.66-28.33 169.16-28.66 168.65-28.99 167.84-28.99L167.84-28.99Q166.93-28.99 166.17-28.58 165.41-28.18 164.82-27.54 164.24-26.91 163.91-26.07 163.58-25.24 163.58-24.32L163.58-24.32Q163.58-23.01 164.27-22.3 164.95-21.59 166.06-21.13 167.18-20.68 168.6-20.37 170.02-20.07 171.54-19.66L171.54-19.66Q172.8-19.31 174.07-18.75 175.34-18.19 176.33-17.26 177.31-16.32 177.92-14.82 178.53-13.33 178.53-11.1L178.53-11.1Q178.53-7.91 177.26-5.73 176-3.55 173.77-2.18 171.54-0.81 168.47-0.2 165.41 0.41 161.81 0.41L161.81 0.41Q158.16 0.41 155.85-0.08 153.55-0.56 152.23-1.11L152.23-1.11Q150.66-1.77 149.9-2.64L149.9-2.64 151.62-9.58 160.54-9.58Q160.49-9.12 160.44-8.34 160.39-7.55 160.39-7.09L160.39-7.09Q160.39-6.49 160.54-5.83 160.69-5.17 161.02-4.61 161.35-4.05 161.96-3.7 162.57-3.34 163.48-3.34L163.48-3.34Q164.49-3.34 165.28-3.8 166.06-4.26 166.6-4.94 167.13-5.62 167.41-6.46 167.69-7.3 167.69-8.11L167.69-8.11Q167.69-9.22 167.15-9.98 166.62-10.74 165.71-11.28 164.8-11.81 163.61-12.19 162.42-12.57 161.15-12.97L161.15-12.97Q159.93-13.33 158.59-13.83 157.25-14.34 156.13-15.25 155.02-16.17 154.28-17.56 153.55-18.95 153.55-21.13L153.55-21.13Q153.55-24.37 155.19-26.58 156.84-28.78 159.35-30.15 161.86-31.52 164.85-32.1 167.84-32.69 170.52-32.69L170.52-32.69Q174.07-32.69 176.63-31.85 179.19-31.01 180.51-29.9L180.51-29.9 178.63-22.85Z" transform="translate(-1.7699999809265137, 32.689998626708984)"></path></g><g data-gra="path-name-1" transform="translate(0,45.0099983215332)"><g transform="scale(0.98637)"><path d="M16.39-29.57L13.64-16.71 25.14-29.61 30.4-29.61 19.97-18.3 27.05 0 16.9 0 12.8-12.99 10.06 0 0 0 6.29-29.57 16.39-29.57ZM44.7-29.57L38.37 0 28.31 0 34.59-29.57 44.7-29.57ZM69.56-21L61.83-21Q61.97-21.7 61.97-22.91L61.97-22.91Q61.97-23.61 61.88-24.28 61.78-24.96 61.55-25.49 61.32-26.03 60.85-26.33 60.39-26.63 59.64-26.63L59.64-26.63Q58.8-26.63 58.11-26.26 57.41-25.89 56.87-25.31 56.34-24.72 56.03-23.95 55.73-23.19 55.73-22.35L55.73-22.35Q55.73-21.14 56.36-20.49 56.99-19.83 58.01-19.42 59.04-19 60.34-18.72 61.65-18.44 63.04-18.07L63.04-18.07Q64.21-17.74 65.37-17.23 66.53-16.71 67.44-15.85 68.35-14.99 68.91-13.62 69.47-12.25 69.47-10.2L69.47-10.2Q69.47-7.26 68.3-5.26 67.14-3.26 65.09-2 63.04-0.74 60.23-0.19 57.41 0.37 54.1 0.37L54.1 0.37Q50.75 0.37 48.63-0.07 46.51-0.51 45.3-1.02L45.3-1.02Q43.86-1.63 43.16-2.42L43.16-2.42 44.74-8.8 52.94-8.8Q52.89-8.38 52.85-7.66 52.8-6.94 52.8-6.52L52.8-6.52Q52.8-5.96 52.94-5.35 53.08-4.75 53.38-4.24 53.68-3.72 54.24-3.4 54.8-3.07 55.64-3.07L55.64-3.07Q56.57-3.07 57.29-3.49 58.01-3.91 58.5-4.54 58.99-5.17 59.25-5.94 59.5-6.7 59.5-7.45L59.5-7.45Q59.5-8.47 59.01-9.17 58.53-9.87 57.69-10.36 56.85-10.85 55.76-11.2 54.66-11.55 53.5-11.92L53.5-11.92Q52.38-12.25 51.15-12.71 49.91-13.18 48.89-14.01 47.86-14.85 47.19-16.13 46.51-17.41 46.51-19.42L46.51-19.42Q46.51-22.4 48.03-24.42 49.54-26.45 51.84-27.7 54.15-28.96 56.9-29.5 59.64-30.03 62.11-30.03L62.11-30.03Q65.37-30.03 67.72-29.26 70.07-28.49 71.28-27.47L71.28-27.47 69.56-21ZM87.21-29.57L80.87 0 70.82 0 77.1-29.57 87.21-29.57ZM91.54 0L89.81-29.57 100.43-29.57 102.01-9.54 111.7-29.57 116.31-29.57 102.52 0 91.54 0ZM129.58-29.57L125.48-10.57Q125.25-9.54 125.11-8.8 124.97-8.05 124.97-7.4L124.97-7.4Q124.97-5.77 126.11-4.8 127.25-3.82 129.48-3.82L129.48-3.82Q131.11-3.82 132.16-4.38 133.21-4.94 133.88-5.87 134.56-6.8 134.95-8.01 135.35-9.22 135.63-10.57L135.63-10.57 139.59-29.57 143.82-29.57 139.77-10.48Q139.31-8.24 138.42-6.29 137.54-4.33 135.88-2.84 134.23-1.35 131.62-0.49 129.02 0.37 125.15 0.37L125.15 0.37Q119.8 0.37 117.24-1.37 114.68-3.12 114.68-6.75L114.68-6.75Q114.68-8.38 115.1-10.89 115.51-13.41 116.17-16.34L116.17-16.34 119.01-29.57 129.58-29.57ZM142.38 0L148.67-29.57 158.77-29.57 153.27-3.91 162.73-3.91 161.93 0 142.38 0ZM181.21-29.57L174.88 0 164.82 0 171.11-29.57 181.21-29.57Z" transform="translate(0, 30.030000686645508)"></path></g></g></g></g></g></mask><defs v-gra="od"></defs></svg>