<svg data-v-70b83f88="" version="1.0" xmlns="http://www.w3.org/2000/svg" xmlns:xlink="http://www.w3.org/1999/xlink" viewBox="0 0 340.000000 250.000000" preserveAspectRatio="xMidYMid meet" color-interpolation-filters="sRGB" style="margin: auto;"><rect data-v-70b83f88="" x="0" y="0" width="100%" height="100%" fill="#feffff" fill-opacity="1" class="background"></rect><rect data-v-70b83f88="" x="0" y="0" width="100%" height="100%" fill="url(#watermark)" fill-opacity="1" class="watermarklayer"></rect><g data-v-70b83f88="" fill="#333" class="iconlinesvg-g iconlinesvg" transform="translate(77.67172527313232,95.85021018981934)"><g class="tp-name" transform="translate(0,0)"><g transform="translate(0, 0)"><g data-gra="path-name" fill="#333" transform="scale(1)"><path d="M6.55-20.03C4.86-11.26 6.45 0.73 18.88 0.73C21.67 0.73 24.09 0.16 26.19-0.81L28.69 4.58L33.68 1.17L31.19-4.27C35.43-8.45 37.64-14.49 38.52-19.09C40.47-29.11 37.01-39.56 26.14-39.56C15.03-39.56 8.40-29.45 6.55-20.03ZM13.68-19.59C14.67-24.63 18.81-33.09 25.47-33.09C31.89-33.09 32.41-25.02 31.34-19.59C30.85-17.12 29.97-13.66 28.17-10.82L25.62-16.47L20.65-13.06L23.54-6.61C22.42-6.11 21.15-5.83 19.69-5.83C12.95-5.83 12.54-13.71 13.68-19.59Z" transform="translate(-5.9933880846836525, 39.563583815028906)"></path></g></g><g transform="translate(37, 4.5390039686357575)"><g><g class="imagesvg"><g><rect fill="#333" fill-opacity="0" stroke-width="2" x="0" y="0" width="30.28058344337077" height="35.06361055983832" class="image-rect"></rect><svg filter="url(#colors9432515117)" x="0" y="0" width="30.28058344337077" height="35.06361055983832" filtersec="colorsf238395495" class="image-svg-svg primary" style="overflow: visible;"><svg xmlns="http://www.w3.org/2000/svg" viewBox="0 0 114 132.0072784423828"><title>U</title><g id="f3963edf-8e57-4101-ab36-6c51f9b9ef27" data-name="圖層 2"><g id="c0b8e11a-6d1e-417f-a3a2-757126861e74" data-name="Layer 1"><path d="M57,0V117.08a41.48,41.48,0,0,1-29.49-12.41A40.69,40.69,0,0,1,15,74.9V0H0V74.9c0,15.82,5.7,29.3,16.84,40.43A55.08,55.08,0,0,0,57.22,132c15.74,0,29.06-5.56,40.2-16.7S114,90.72,114,74.9V0Z" fill="#1a1a1a"></path></g></g></svg></svg><defs><filter id="colors9432515117"><feColorMatrix type="matrix" values="0 0 0 0 0.19921875  0 0 0 0 0.19921875  0 0 0 0 0.19921875  0 0 0 1 0" class="icon-fecolormatrix"></feColorMatrix></filter><filter id="colorsf238395495"><feColorMatrix type="matrix" values="0 0 0 0 0.99609375  0 0 0 0 0.99609375  0 0 0 0 0.99609375  0 0 0 1 0" class="icon-fecolormatrix"></feColorMatrix></filter><filter id="colorsb2892186331"><feColorMatrix type="matrix" values="0 0 0 0 0  0 0 0 0 0  0 0 0 0 0  0 0 0 1 0" class="icon-fecolormatrix"></feColorMatrix></filter></defs></g></g></g></g><g transform="translate(71, 0)"><g data-gra="path-name" fill="#333" transform="scale(1)"><path d="M29.29-12.43C29.68-13.89 29.78-14.15 29.86-14.57C31.14-21.28 29.68-28.85 20.78-28.85C12.12-28.85 6.45-22.19 4.71-13.32C3.43-6.87 5.41 0.73 14.31 0.73C20.29 0.73 23.98-0.88 27.94-5.98L23.75-8.95C20.89-5.49 18.39-4.97 15.66-4.97C11.73-4.97 10.14-7.73 11.00-12.43ZM12.17-16.96C13.34-20.29 15.95-23.07 19.33-23.07C22.97-23.07 24.24-20.50 23.90-16.96Z" transform="translate(-4.357214733021871, 39.563583815028906)"></path></g></g><g transform="translate(100, 0)"><g data-gra="path-name" fill="#333" transform="scale(1)"><path d="M29.29-12.43C29.68-13.89 29.78-14.15 29.86-14.57C31.14-21.28 29.68-28.85 20.78-28.85C12.12-28.85 6.45-22.19 4.71-13.32C3.43-6.87 5.41 0.73 14.31 0.73C20.29 0.73 23.98-0.88 27.94-5.98L23.75-8.95C20.89-5.49 18.39-4.97 15.66-4.97C11.73-4.97 10.14-7.73 11.00-12.43ZM12.17-16.96C13.34-20.29 15.95-23.07 19.33-23.07C22.97-23.07 24.24-20.50 23.90-16.96Z" transform="translate(-4.357214733021871, 39.563583815028906)"></path></g></g><g transform="translate(129, 0)"><g data-gra="path-name" fill="#333" transform="scale(1)"><path d="M8.95-28.43L3.43 0L10.04 0L13.50-17.82C15.22-20.29 17.77-22.81 20.47-22.81C23.80-22.81 24.45-20.39 23.83-17.19L20.47 0L27.05 0L30.41-17.17C31.63-23.49 30.62-29.42 23.10-28.90C20.08-28.69 17.48-27.44 14.51-24.50L15.03-28.43Z" transform="translate(-3.433526011560694, 39.563583815028906)"></path></g></g><g transform="translate(160, 0)"><g data-gra="path-name" fill="#333" transform="scale(1)"><path d="M2.81-5.85C4.76-1.22 8.69 0.70 13.37 0.70C18.91 0.70 24.16-2.16 25.28-7.93C27.08-17.22 12.20-16.31 13.11-20.68C13.50-22.58 15.58-23.25 17.35-23.25C19.48-23.25 21.46-21.90 22.84-20.05L27.47-22.86C25.99-26.61 21.75-28.90 17.95-28.90C12.43-28.90 8.09-26.45 7.00-20.84C5.23-11.78 19.87-12.67 18.94-8.19C18.47-5.90 15.61-5.07 13.63-5.07C10.74-5.07 8.82-6.82 7.78-8.92L2.81-5.85Z" transform="translate(-2.809248554913295, 39.563583815028906)"></path></g></g></g><g data-gra="path-slogan" fill-rule="" class="tp-slogan" fill="#333" transform="translate(72.18247413635254,50.13999938964844)"><!----><!----><g transform="scale(1, 1)"><g transform="scale(1)"><path d="M1.08-7.87L1.08 0L2.08 0L2.08-2.50L3.43-4.09L5.78 0L6.90 0L4.06-4.87L6.52-7.87L5.39-7.87L2.11-3.92L2.08-3.92L2.08-7.87ZM8.03-7.87L8.03 0L9.02 0L9.02-7.87ZM11.21-1.72L10.61-1.02C10.95-0.66 11.36-0.38 11.83-0.17C12.30 0.04 12.82 0.14 13.37 0.14C13.78 0.14 14.16 0.09 14.48-0.03C14.81-0.15 15.09-0.31 15.32-0.51C15.56-0.71 15.73-0.95 15.86-1.22C15.98-1.50 16.04-1.79 16.04-2.10C16.04-2.39 16.00-2.64 15.92-2.86C15.83-3.08 15.72-3.27 15.58-3.44C15.43-3.60 15.26-3.75 15.06-3.87C14.86-3.99 14.65-4.10 14.42-4.20L13.31-4.68C13.15-4.74 12.99-4.81 12.84-4.89C12.69-4.97 12.55-5.05 12.42-5.15C12.29-5.25 12.19-5.37 12.11-5.50C12.04-5.63 12.00-5.80 12.00-5.99C12.00-6.35 12.13-6.63 12.40-6.83C12.67-7.04 13.02-7.14 13.46-7.14C13.83-7.14 14.16-7.07 14.45-6.94C14.75-6.81 15.01-6.63 15.25-6.40L15.79-7.04C15.51-7.33 15.17-7.57 14.77-7.75C14.37-7.93 13.94-8.02 13.46-8.02C13.10-8.02 12.77-7.96 12.47-7.86C12.17-7.76 11.91-7.61 11.69-7.42C11.47-7.23 11.30-7.01 11.18-6.76C11.05-6.50 10.99-6.22 10.99-5.93C10.99-5.64 11.04-5.39 11.14-5.17C11.23-4.95 11.36-4.76 11.51-4.60C11.66-4.44 11.83-4.30 12.02-4.19C12.22-4.08 12.40-3.98 12.59-3.90L13.72-3.41C13.90-3.32 14.07-3.24 14.23-3.16C14.39-3.08 14.53-2.99 14.65-2.89C14.76-2.79 14.85-2.67 14.92-2.53C14.99-2.39 15.02-2.22 15.02-2.02C15.02-1.63 14.88-1.32 14.59-1.09C14.30-0.85 13.90-0.73 13.38-0.73C12.97-0.73 12.58-0.82 12.20-1.00C11.82-1.18 11.49-1.42 11.21-1.72ZM17.59-7.87L17.59 0L18.59 0L18.59-7.87ZM19.67-7.87L22.19 0L23.35 0L25.85-7.87L24.83-7.87L23.57-3.62C23.43-3.15 23.31-2.72 23.20-2.32C23.08-1.92 22.96-1.48 22.81-1.02L22.76-1.02C22.61-1.48 22.48-1.92 22.37-2.32C22.27-2.72 22.14-3.15 22.00-3.62L20.74-7.87ZM26.77-7.87L26.77-3.25C26.77-2.62 26.84-2.09 26.99-1.66C27.13-1.22 27.33-0.87 27.58-0.61C27.83-0.34 28.13-0.15 28.48-0.03C28.83 0.09 29.20 0.14 29.60 0.14C30.00 0.14 30.38 0.09 30.72-0.03C31.06-0.15 31.36-0.34 31.61-0.61C31.87-0.87 32.06-1.22 32.21-1.66C32.35-2.09 32.42-2.62 32.42-3.25L32.42-7.87L31.46-7.87L31.46-3.23C31.46-2.76 31.42-2.36 31.32-2.04C31.22-1.72 31.09-1.46 30.92-1.27C30.76-1.08 30.56-0.94 30.34-0.86C30.11-0.77 29.87-0.73 29.60-0.73C29.35-0.73 29.11-0.77 28.88-0.86C28.66-0.94 28.47-1.08 28.30-1.27C28.14-1.46 28.01-1.72 27.91-2.04C27.82-2.36 27.77-2.76 27.77-3.23L27.77-7.87ZM34.55-7.87L34.55 0L38.99 0L38.99-0.85L35.54-0.85L35.54-7.87ZM40.38-7.87L40.38 0L41.38 0L41.38-7.87Z" transform="translate(-1.08, 8.016)"></path></g></g></g></g><defs v-gra="od"></defs></svg>