<svg x="0" y="0" width="60" height="112.42902917533307" filtersec="colorsb123534542" class="image-svg-svg primary" style="overflow: visible;"><svg xmlns="http://www.w3.org/2000/svg" viewBox="0 0 34 63.71000289916992"><title>q10</title><g data-name="图层 2"><g data-name="Layer 1"><path d="M13.61 53.62A32.34 32.34 0 0 1 0 49.67v2.83A10.53 10.53 0 0 0 10.5 63H21a33 33 0 0 0 3.91-.85c4.55-.8 9.09 1.56 9.09 1.56-.84-1-2.86-4.09-3.72-5.18-4.48-5.69-10.15-4.42-16.67-4.91z" fill="#1a1a1a"></path><path d="M10.5 47.25V10.5H21v37.42c1.38.06 2.66.15 3.76.31a13.12 13.12 0 0 1 6.74 3.11V10.5A10.53 10.53 0 0 0 21 0H10.5A10.53 10.53 0 0 0 0 10.5v31.66c2.15 3.16 6.14 4.48 10.5 5.09z" fill="#00a99d"></path></g></g></svg></svg>