<svg data-v-70b83f88="" version="1.0" xmlns="http://www.w3.org/2000/svg" xmlns:xlink="http://www.w3.org/1999/xlink" viewBox="0 0 340.000000 250.000000" preserveAspectRatio="xMidYMid meet" color-interpolation-filters="sRGB" style="margin: auto;"><rect data-v-70b83f88="" x="0" y="0" width="100%" height="100%" fill="#ffffff" fill-opacity="1" class="background"></rect><rect data-v-70b83f88="" x="0" y="0" width="100%" height="100%" fill="url(#watermark)" fill-opacity="1" class="watermarklayer"></rect><g data-v-70b83f88="" fill="#0a0619" class="icon-text-wrapper icon-svg-group iconsvg" transform="translate(47.375,90.34115982055664)"><g class="iconsvg-imagesvg" transform="translate(0,0)" mask="url(#1f659754-e100-4e4c-86ae-8c701f1cc57b)"><g><rect fill="#0a0619" fill-opacity="0" stroke-width="2" x="0" y="0" width="60" height="69.31768294091823" class="image-rect"></rect><svg filter="url(#colors9070977550)" x="0" y="0" width="60" height="69.31768294091823" filtersec="colorsf8969679949" class="image-svg-svg primary" style="overflow: visible;"><svg xmlns="http://www.w3.org/2000/svg" viewBox="0 0.2999999999999998 89 102.2"><path d="M2 26.8L44.5 2.3 87 26.8v49.1l-42.5 24.5L2 75.9V26.8zm16.7 58.8l25.8 14.9 25.8-14.9V55.8L44.5 40.9 18.7 55.8v29.8zm0-38.7l25.8 14.9 25.8-14.9V17.2L44.5 2.3 18.7 17.2v29.7zM2 37.3l42.5 24.5L87 37.3m0 28.1L44.5 40.9 2 65.4" fill="none" stroke="#202121" stroke-width="4" stroke-miterlimit="10"></path></svg></svg><defs><filter id="colors9070977550"><feColorMatrix type="matrix" values="0 0 0 0 0.0390625  0 0 0 0 0.0234375  0 0 0 0 0.09765625  0 0 0 1 0" class="icon-fecolormatrix"></feColorMatrix></filter><filter id="colorsf8969679949"><feColorMatrix type="matrix" values="0 0 0 0 0.99609375  0 0 0 0 0.99609375  0 0 0 0 0.99609375  0 0 0 1 0" class="icon-fecolormatrix"></feColorMatrix></filter><filter id="colorsb9866964748"><feColorMatrix type="matrix" values="0 0 0 0 0  0 0 0 0 0  0 0 0 0 0  0 0 0 1 0" class="icon-fecolormatrix"></feColorMatrix></filter></defs></g><rect v-gra="id" width="72.00000381469727" height="81.31768035888672" transform="translate(-6, -6)" style="pointer-events:none;" fill="url(#fIaNp2OTIpBgqOoyI9kYY)"></rect></g><g transform="translate(67.00000381469727,23.41383934020996)"><g data-gra="path-name" fill-rule="" class="tp-name iconsvg-namesvg"><g transform="scale(1)"><g><path d="M19.73-9.23L19.73-9.23Q19.73-8.04 19.48-6.94 19.23-5.85 18.77-4.89 18.31-3.93 17.63-3.1 16.95-2.28 16.09-1.65L16.09-1.65 20.77 3.46 17.25 3.46Q16.49 3.46 15.87 3.27 15.24 3.09 14.76 2.53L14.76 2.53 12.47-0.04Q11.91 0.08 11.34 0.14 10.76 0.2 10.15 0.2L10.15 0.2Q8 0.2 6.23-0.52 4.46-1.24 3.2-2.51 1.94-3.79 1.25-5.51 0.56-7.23 0.56-9.23L0.56-9.23Q0.56-11.23 1.25-12.95 1.94-14.68 3.2-15.94 4.46-17.21 6.23-17.93 8-18.65 10.15-18.65L10.15-18.65Q12.31-18.65 14.07-17.92 15.84-17.19 17.09-15.93 18.35-14.66 19.04-12.94 19.73-11.22 19.73-9.23ZM15.35-9.23L15.35-9.23Q15.35-10.6 14.99-11.69 14.64-12.79 13.97-13.55 13.31-14.31 12.35-14.71 11.38-15.12 10.15-15.12L10.15-15.12Q8.91-15.12 7.95-14.71 6.98-14.31 6.31-13.55 5.65-12.79 5.29-11.69 4.94-10.6 4.94-9.23L4.94-9.23Q4.94-7.85 5.29-6.76 5.65-5.66 6.31-4.9 6.98-4.14 7.95-3.74 8.91-3.34 10.15-3.34L10.15-3.34Q11.38-3.34 12.35-3.74 13.31-4.14 13.97-4.9 14.64-5.66 14.99-6.76 15.35-7.85 15.35-9.23ZM21.53-13.13L25.45-13.13 25.45-4.8Q25.45-3.82 25.89-3.29 26.34-2.76 27.2-2.76L27.2-2.76Q27.84-2.76 28.41-3.03 28.97-3.29 29.5-3.77L29.5-3.77 29.5-13.13 33.43-13.13 33.43 0 31 0Q30.26 0 30.03-0.66L30.03-0.66 29.79-1.42Q29.41-1.05 29.01-0.75 28.6-0.46 28.14-0.25 27.68-0.04 27.15 0.08 26.62 0.2 25.98 0.2L25.98 0.2Q24.91 0.2 24.08-0.17 23.25-0.54 22.68-1.22 22.11-1.89 21.82-2.8 21.53-3.71 21.53-4.8L21.53-4.8 21.53-13.13ZM42.09-13.33L42.09-13.33Q43.39-13.33 44.47-12.93 45.56-12.52 46.34-11.75 47.11-10.98 47.55-9.86 47.99-8.74 47.99-7.32L47.99-7.32Q47.99-6.88 47.95-6.6 47.91-6.32 47.81-6.15 47.71-5.99 47.54-5.93 47.37-5.86 47.1-5.86L47.1-5.86 39.53-5.86Q39.72-4.22 40.53-3.48 41.34-2.73 42.62-2.73L42.62-2.73Q43.3-2.73 43.8-2.9 44.29-3.06 44.68-3.27 45.06-3.47 45.39-3.63 45.71-3.8 46.06-3.8L46.06-3.8Q46.53-3.8 46.77-3.46L46.77-3.46 47.91-2.05Q47.3-1.35 46.6-0.92 45.9-0.48 45.16-0.23 44.42 0.01 43.68 0.11 42.94 0.2 42.27 0.2L42.27 0.2Q40.88 0.2 39.68-0.25 38.47-0.7 37.56-1.58 36.66-2.47 36.13-3.79 35.6-5.1 35.6-6.85L35.6-6.85Q35.6-8.17 36.05-9.34 36.5-10.52 37.35-11.41 38.19-12.29 39.38-12.81 40.58-13.33 42.09-13.33ZM42.16-10.62L42.16-10.62Q41.04-10.62 40.4-9.98 39.77-9.34 39.57-8.14L39.57-8.14 44.47-8.14Q44.47-8.61 44.35-9.05 44.23-9.5 43.96-9.84 43.68-10.19 43.24-10.41 42.8-10.62 42.16-10.62ZM55.86-13.33L55.86-13.33Q57.17-13.33 58.25-12.93 59.33-12.52 60.11-11.75 60.89-10.98 61.33-9.86 61.76-8.74 61.76-7.32L61.76-7.32Q61.76-6.88 61.73-6.6 61.69-6.32 61.59-6.15 61.49-5.99 61.31-5.93 61.14-5.86 60.88-5.86L60.88-5.86 53.31-5.86Q53.5-4.22 54.31-3.48 55.12-2.73 56.4-2.73L56.4-2.73Q57.08-2.73 57.57-2.9 58.07-3.06 58.45-3.27 58.84-3.47 59.16-3.63 59.49-3.8 59.84-3.8L59.84-3.8Q60.31-3.8 60.55-3.46L60.55-3.46 61.69-2.05Q61.08-1.35 60.38-0.92 59.68-0.48 58.93-0.23 58.19 0.01 57.45 0.11 56.71 0.2 56.04 0.2L56.04 0.2Q54.66 0.2 53.45-0.25 52.24-0.7 51.34-1.58 50.43-2.47 49.91-3.79 49.38-5.1 49.38-6.85L49.38-6.85Q49.38-8.17 49.83-9.34 50.28-10.52 51.12-11.41 51.96-12.29 53.16-12.81 54.36-13.33 55.86-13.33ZM55.94-10.62L55.94-10.62Q54.81-10.62 54.18-9.98 53.55-9.34 53.34-8.14L53.34-8.14 58.24-8.14Q58.24-8.61 58.12-9.05 58-9.5 57.73-9.84 57.46-10.19 57.02-10.41 56.57-10.62 55.94-10.62ZM67.94 0L64.02 0 64.02-13.13 66.45-13.13Q66.82-13.13 67.06-12.97 67.31-12.8 67.41-12.47L67.41-12.47 67.64-11.71Q68.02-12.07 68.42-12.37 68.83-12.67 69.29-12.88 69.75-13.09 70.29-13.21 70.83-13.33 71.46-13.33L71.46-13.33Q72.54-13.33 73.37-12.96 74.2-12.59 74.77-11.92 75.34-11.26 75.63-10.34 75.92-9.42 75.92-8.34L75.92-8.34 75.92 0 71.99 0 71.99-8.34Q71.99-9.31 71.55-9.84 71.11-10.38 70.25-10.38L70.25-10.38Q69.6-10.38 69.03-10.1 68.46-9.83 67.94-9.36L67.94-9.36 67.94 0ZM87.62-11.64L86.73-10.26Q86.58-10.02 86.41-9.91 86.24-9.81 85.97-9.81L85.97-9.81Q85.69-9.81 85.42-9.93 85.14-10.05 84.81-10.19 84.49-10.33 84.09-10.45 83.68-10.57 83.16-10.57L83.16-10.57Q82.42-10.57 82.02-10.29 81.62-10 81.62-9.5L81.62-9.5Q81.62-9.13 81.88-8.89 82.14-8.65 82.57-8.46 83-8.28 83.54-8.12 84.09-7.95 84.66-7.75 85.23-7.55 85.77-7.27 86.32-7 86.75-6.6 87.18-6.2 87.44-5.63 87.7-5.06 87.7-4.27L87.7-4.27Q87.7-3.29 87.34-2.47 86.99-1.65 86.28-1.05 85.58-0.46 84.55-0.13 83.52 0.2 82.18 0.2L82.18 0.2Q81.5 0.2 80.83 0.08 80.16-0.05 79.54-0.27 78.91-0.48 78.38-0.78 77.84-1.08 77.46-1.42L77.46-1.42 78.38-2.86Q78.54-3.11 78.77-3.26 79-3.41 79.36-3.41L79.36-3.41Q79.71-3.41 79.98-3.25 80.25-3.1 80.57-2.92 80.88-2.75 81.31-2.6 81.73-2.44 82.38-2.44L82.38-2.44Q82.83-2.44 83.15-2.54 83.47-2.63 83.66-2.8 83.85-2.96 83.94-3.17 84.02-3.37 84.02-3.58L84.02-3.58Q84.02-3.98 83.76-4.23 83.49-4.48 83.06-4.67 82.63-4.85 82.08-5.01 81.53-5.17 80.96-5.37 80.39-5.57 79.84-5.86 79.29-6.14 78.86-6.58 78.43-7.01 78.16-7.65 77.9-8.28 77.9-9.18L77.9-9.18Q77.9-10.02 78.22-10.77 78.54-11.52 79.19-12.09 79.83-12.66 80.81-13 81.78-13.33 83.09-13.33L83.09-13.33Q83.8-13.33 84.46-13.21 85.13-13.08 85.71-12.85 86.29-12.62 86.77-12.31 87.25-12 87.62-11.64L87.62-11.64ZM99.02-18.45L99.02-10.98 99.7-10.98Q100.65-10.98 101.07-11.57L101.07-11.57 105.22-17.6Q105.56-18.09 106-18.27 106.44-18.45 107.07-18.45L107.07-18.45 110.79-18.45 105.32-10.99Q105.03-10.59 104.71-10.32 104.4-10.05 104.07-9.88L104.07-9.88Q104.55-9.7 104.95-9.39 105.35-9.08 105.68-8.56L105.68-8.56 111.25 0 107.42 0Q107.06 0 106.8-0.05 106.54-0.1 106.35-0.2 106.16-0.3 106.02-0.45 105.88-0.6 105.75-0.79L105.75-0.79 101.57-7.2Q101.34-7.56 101-7.7 100.65-7.85 100.05-7.85L100.05-7.85 99.02-7.85 99.02 0 94.74 0 94.74-18.45 99.02-18.45ZM112.94-13.13L116.87-13.13 116.87 0 112.94 0 112.94-13.13ZM117.32-16.73L117.32-16.73Q117.32-16.26 117.13-15.85 116.94-15.43 116.62-15.12 116.29-14.81 115.85-14.63 115.41-14.45 114.92-14.45L114.92-14.45Q114.44-14.45 114.02-14.63 113.6-14.81 113.28-15.12 112.96-15.43 112.77-15.85 112.59-16.26 112.59-16.73L112.59-16.73Q112.59-17.21 112.77-17.63 112.96-18.04 113.28-18.36 113.6-18.68 114.02-18.85 114.44-19.03 114.92-19.03L114.92-19.03Q115.41-19.03 115.85-18.85 116.29-18.68 116.62-18.36 116.94-18.04 117.13-17.63 117.32-17.21 117.32-16.73ZM128.95-11.64L128.06-10.26Q127.91-10.02 127.74-9.91 127.57-9.81 127.3-9.81L127.3-9.81Q127.02-9.81 126.74-9.93 126.47-10.05 126.14-10.19 125.82-10.33 125.42-10.45 125.01-10.57 124.49-10.57L124.49-10.57Q123.74-10.57 123.34-10.29 122.95-10 122.95-9.5L122.95-9.5Q122.95-9.13 123.21-8.89 123.47-8.65 123.9-8.46 124.33-8.28 124.87-8.12 125.42-7.95 125.98-7.75 126.55-7.55 127.1-7.27 127.64-7 128.07-6.6 128.5-6.2 128.76-5.63 129.02-5.06 129.02-4.27L129.02-4.27Q129.02-3.29 128.67-2.47 128.31-1.65 127.61-1.05 126.91-0.46 125.88-0.13 124.85 0.2 123.5 0.2L123.5 0.2Q122.83 0.2 122.16 0.08 121.49-0.05 120.86-0.27 120.24-0.48 119.7-0.78 119.17-1.08 118.79-1.42L118.79-1.42 119.7-2.86Q119.87-3.11 120.1-3.26 120.32-3.41 120.69-3.41L120.69-3.41Q121.03-3.41 121.31-3.25 121.58-3.1 121.9-2.92 122.21-2.75 122.64-2.6 123.06-2.44 123.71-2.44L123.71-2.44Q124.16-2.44 124.48-2.54 124.79-2.63 124.98-2.8 125.17-2.96 125.26-3.17 125.35-3.37 125.35-3.58L125.35-3.58Q125.35-3.98 125.09-4.23 124.82-4.48 124.39-4.67 123.96-4.85 123.41-5.01 122.86-5.17 122.29-5.37 121.72-5.57 121.17-5.86 120.62-6.14 120.19-6.58 119.76-7.01 119.49-7.65 119.22-8.28 119.22-9.18L119.22-9.18Q119.22-10.02 119.55-10.77 119.87-11.52 120.51-12.09 121.16-12.66 122.14-13 123.11-13.33 124.41-13.33L124.41-13.33Q125.12-13.33 125.79-13.21 126.45-13.08 127.04-12.85 127.62-12.62 128.1-12.31 128.58-12 128.95-11.64L128.95-11.64ZM131.3-13.13L135.23-13.13 135.23 0 131.3 0 131.3-13.13ZM135.68-16.73L135.68-16.73Q135.68-16.26 135.49-15.85 135.3-15.43 134.97-15.12 134.65-14.81 134.21-14.63 133.77-14.45 133.28-14.45L133.28-14.45Q132.8-14.45 132.38-14.63 131.96-14.81 131.64-15.12 131.32-15.43 131.13-15.85 130.95-16.26 130.95-16.73L130.95-16.73Q130.95-17.21 131.13-17.63 131.32-18.04 131.64-18.36 131.96-18.68 132.38-18.85 132.8-19.03 133.28-19.03L133.28-19.03Q133.77-19.03 134.21-18.85 134.65-18.68 134.97-18.36 135.3-18.04 135.49-17.63 135.68-17.21 135.68-16.73ZM150.75-13.13L145.66 0 142.09 0 137-13.13 140.27-13.13Q140.69-13.13 140.97-12.93 141.25-12.74 141.36-12.45L141.36-12.45 143.18-6.56Q143.39-5.84 143.59-5.15 143.79-4.47 143.93-3.79L143.93-3.79Q144.07-4.47 144.27-5.15 144.47-5.84 144.7-6.56L144.7-6.56 146.6-12.45Q146.7-12.74 146.98-12.93 147.26-13.13 147.64-13.13L147.64-13.13 150.75-13.13ZM152.14-13.13L156.07-13.13 156.07-4.8Q156.07-3.82 156.51-3.29 156.96-2.76 157.82-2.76L157.82-2.76Q158.46-2.76 159.03-3.03 159.59-3.29 160.12-3.77L160.12-3.77 160.12-13.13 164.05-13.13 164.05 0 161.62 0Q160.88 0 160.65-0.66L160.65-0.66 160.41-1.42Q160.03-1.05 159.63-0.75 159.22-0.46 158.76-0.25 158.3-0.04 157.77 0.08 157.23 0.2 156.6 0.2L156.6 0.2Q155.52 0.2 154.7-0.17 153.87-0.54 153.3-1.22 152.73-1.89 152.44-2.8 152.14-3.71 152.14-4.8L152.14-4.8 152.14-13.13ZM167.21-18.95L171.14-18.95 171.14 0 167.21 0 167.21-18.95ZM174.43-13.13L178.35-13.13 178.35 0 174.43 0 174.43-13.13ZM178.81-16.73L178.81-16.73Q178.81-16.26 178.62-15.85 178.43-15.43 178.1-15.12 177.77-14.81 177.33-14.63 176.9-14.45 176.4-14.45L176.4-14.45Q175.92-14.45 175.51-14.63 175.09-14.81 174.76-15.12 174.44-15.43 174.26-15.85 174.07-16.26 174.07-16.73L174.07-16.73Q174.07-17.21 174.26-17.63 174.44-18.04 174.76-18.36 175.09-18.68 175.51-18.85 175.92-19.03 176.4-19.03L176.4-19.03Q176.9-19.03 177.33-18.85 177.77-18.68 178.1-18.36 178.43-18.04 178.62-17.63 178.81-17.21 178.81-16.73Z" transform="translate(-0.5600000023841858, 19.030000686645508)"></path></g><!----><!----><!----><!----><!----><!----><!----></g></g><!----></g></g><defs v-gra="od"></defs><defs v-gra="id"><filter id="83f4f90a-f721-43ba-abf5-a55478b93dff" filterUnits="userSpaceOnUse"><feColorMatrix type="matrix" values="0 0 0 0 0.99609375  0 0 0 0 0.99609375  0 0 0 0 0.99609375  0 0 0 1 0"></feColorMatrix></filter><linearGradient x1="0" y1="1" x2="0" y2="0" id="fIaNp2OTIpBgqOoyI9kYY"><stop offset="0%" stop-color="#09f524"></stop><stop offset="50%" stop-color="#2ec0c6"></stop><stop offset="100%" stop-color="#06fff7"></stop></linearGradient><filter id="42443b3f1de60f6b6fd3b6a9844b4764" filterUnits="userSpaceOnUse"><feColorMatrix type="matrix" values="0 0 0 0 0.99609375  0 0 0 0 0.99609375  0 0 0 0 0.99609375  0 0 0 1 0"></feColorMatrix></filter></defs><mask v-gra="im" id="1f659754-e100-4e4c-86ae-8c701f1cc57b"><g class="iconsvg-imagesvg" filter="url(#83f4f90a-f721-43ba-abf5-a55478b93dff)"><g><rect fill="#0a0619" fill-opacity="0" stroke-width="2" x="0" y="0" width="60" height="69.31768294091823" class="image-rect"></rect><svg x="0" y="0" width="60" height="69.31768294091823" filtersec="colorsf8969679949" class="image-svg-svg primary" style="overflow: visible;"><svg xmlns="http://www.w3.org/2000/svg" viewBox="0 0.2999999999999998 89 102.2"><path d="M2 26.8L44.5 2.3 87 26.8v49.1l-42.5 24.5L2 75.9V26.8zm16.7 58.8l25.8 14.9 25.8-14.9V55.8L44.5 40.9 18.7 55.8v29.8zm0-38.7l25.8 14.9 25.8-14.9V17.2L44.5 2.3 18.7 17.2v29.7zM2 37.3l42.5 24.5L87 37.3m0 28.1L44.5 40.9 2 65.4" fill="none" stroke="#202121" stroke-width="4" stroke-miterlimit="10"></path></svg></svg><defs><filter id="colors9070977550"><feColorMatrix type="matrix" values="0 0 0 0 0.0390625  0 0 0 0 0.0234375  0 0 0 0 0.09765625  0 0 0 1 0" class="icon-fecolormatrix"></feColorMatrix></filter><filter id="colorsf8969679949"><feColorMatrix type="matrix" values="0 0 0 0 0.99609375  0 0 0 0 0.99609375  0 0 0 0 0.99609375  0 0 0 1 0" class="icon-fecolormatrix"></feColorMatrix></filter><filter id="colorsb9866964748"><feColorMatrix type="matrix" values="0 0 0 0 0  0 0 0 0 0  0 0 0 0 0  0 0 0 1 0" class="icon-fecolormatrix"></feColorMatrix></filter></defs></g></g></mask></svg>