<svg data-v-70b83f88="" version="1.0" xmlns="http://www.w3.org/2000/svg" xmlns:xlink="http://www.w3.org/1999/xlink" viewBox="0 0 340.000000 250.000000" preserveAspectRatio="xMidYMid meet" color-interpolation-filters="sRGB" style="margin: auto;"><rect data-v-70b83f88="" x="0" y="0" width="100%" height="100%" fill="#ffffff" fill-opacity="1" class="background"></rect><rect data-v-70b83f88="" x="0" y="0" width="100%" height="100%" fill="url(#watermark)" fill-opacity="1" class="watermarklayer"></rect><g data-v-70b83f88="" fill="#ff0844" class="basesvg" transform="translate(69.63719177246094,87.31466293334961)"><g fill-rule="" class="tp-name" transform="translate(0,0)"><g transform="scale(0.9199999999999999)"><g stroke="#333" stroke-width="2.5" stroke-linecap="round" stroke-linejoin="round" paint-order="stroke" data-gra-ignore-stroke="true" fill-opacity="1"><path d="M42.02-23.97Q42.02-23.97 42.02-23.97 42.51-23.88 43.01-23.805 42.57-20.37 41.63-17.79 40.7-15.149999999999999 39.22-13.485 39.22-13.485 39.22-13.485 38.06-12.149999999999999 36.22-11.040000000000001 34.38-9.885 32.11-9.33 32.11-9.33 32.11-9.33 29.09-8.565 26.21-8.985 23.32-9.405 20.35-10.395 17.38-11.415000000000001 14.08-12.315000000000001 14.08-12.315000000000001 14.08-12.315000000000001 13.7-12.375 13.34-12.48 12.98-12.57 12.76-12.51 12.76-12.51 12.76-12.51 11.71-11.58 10.48-10.815 9.24-10.035 8.14-9.75 8.14-9.75 8.14-9.75 7.04-9.465 6.3-9.75 5.55-10.02 5.55-11.145 5.55-11.145 5.55-11.145 5.55-13.274999999999999 8.58-13.98 8.58-13.98 8.58-13.98 10.51-14.415 12.76-13.875 12.76-13.875 12.76-13.875 14.79-15.09 16.25-16.32 17.71-17.549999999999997 19.28-18.66 20.84-19.740000000000002 23.1-20.384999999999998 23.1-20.384999999999998 23.1-20.384999999999998 23.13-19.830000000000002 23.16-19.259999999999998 21.39-18.705000000000002 20.16-17.865000000000002 18.92-17.009999999999998 17.66-16.005 16.39-14.985 14.69-13.950000000000001 14.69-13.950000000000001 14.69-13.950000000000001 18.59-14.46 21.95-14.82 25.3-15.165 28.16-15.674999999999999 31.02-16.155 33.33-17.009999999999998 33.33-17.009999999999998 33.33-17.009999999999998 36.74-18.12 38.72-19.725 40.7-21.299999999999997 42.02-23.97 42.02-23.97 42.02-23.97M21.84-71.4Q21.84-71.4 21.84-71.4 27.66-70.47 32.04-66.48 36.4-63.074999999999996 38.83-57.72 41.25-52.545 41.25-45.42 41.25-45.42 41.25-45.42 41.25-38.474999999999994 38.77-33.089999999999996 36.29-27.509999999999998 31.87-23.85 27.45-19.98 21.78-18.93 21.78-18.93 21.78-18.93 15.95-17.775 11.58-20.145 7.21-22.695 4.79-28.755000000000003 2.37-35.01 2.37-44.265 2.37-44.265 2.37-44.265 2.37-53.355000000000004 4.87-59.955 7.37-66.315 11.74-69.315 16.11-72.345 21.84-71.4 21.84-71.4 21.84-71.4M21.61-70.02Q21.61-70.02 21.61-70.02 18.54-70.515 16.25-67.41 13.97-64.38 12.73-58.59 11.49-52.665 11.49-44.745 11.49-44.745 11.49-44.745 11.49-36.660000000000004 12.9-30.839999999999996 14.3-25.14 16.69-22.38 19.09-19.71 22-20.25 22-20.25 22-20.25 25.08-20.79 27.36-24.255000000000003 29.64-27.615000000000002 30.88-33.03 32.11-38.400000000000006 32.11-45.165 32.11-45.165 32.11-45.165 32.11-52.215 30.72-57.480000000000004 29.32-62.835 26.92-66.03 24.53-69.57000000000001 21.61-70.02 21.61-70.02 21.61-70.02M80.25-63.239999999999995Q80.25-63.239999999999995 80.25-63.239999999999995 80.25-62.519999999999996 80.25-61.815 78.48-61.650000000000006 77.58-60.92999999999999 76.67-60.36 76.4-59.010000000000005 76.12-57.644999999999996 76.12-55.155 76.12-55.155 76.12-55.155 76.12-48.39 76.12-41.64 76.12-38.325 75.63-35.55 75.13-32.775000000000006 73.87-30.705 73.87-30.705 73.87-30.705 72.44-28.395 69.69-26.895 66.94-25.349999999999998 62.7-24.945 62.7-24.945 62.7-24.945 60.17-24.674999999999997 57.53-24.974999999999998 54.89-25.29 52.8-26.714999999999996 52.8-26.714999999999996 52.8-26.714999999999996 51.04-28.08 50.11-29.985 49.17-31.905 48.84-34.62 48.51-37.349999999999994 48.51-41.13 48.51-41.13 48.51-41.13 48.51-50.385000000000005 48.51-59.67 48.51-61.86 48.21-62.925000000000004 47.91-64.005 47.03-64.56 46.15-65.16 44.39-65.46000000000001 44.39-65.46000000000001 44.39-65.46000000000001 44.39-66.21000000000001 44.39-66.94500000000001 45.76-66.69 48.1-66.315 50.44-65.94 52.97-65.625 52.97-65.625 52.97-65.625 55.5-65.32499999999999 57.83-65.13 60.17-64.935 61.71-64.86 61.71-64.86 61.71-64.86 61.71-64.125 61.71-63.405 59.84-63.54 58.88-63.165 57.92-62.835 57.59-61.89 57.26-60.94500000000001 57.26-58.875 57.26-58.875 57.26-58.875 57.26-48.315 57.26-37.755 57.26-33.99 57.92-31.5 58.58-29.009999999999998 60.25-27.884999999999998 61.93-26.775000000000002 64.84-27.03 64.84-27.03 64.84-27.03 68.7-27.345 70.87-29.235 73.04-31.08 73.95-34.14 74.86-37.17 74.86-41.07 74.86-41.07 74.86-41.07 74.86-47.835 74.86-54.599999999999994 74.86-57.42 74.47-58.965 74.09-60.495 72.95-61.260000000000005 71.83-62.16 69.52-62.655 69.52-62.655 69.52-62.655 69.52-63.375 69.52-64.08 70.56-63.915 72.27-63.705 73.98-63.480000000000004 75.45-63.36 75.45-63.36 75.45-63.36 76.78-63.255 78.06-63.239999999999995 79.37-63.21 80.25-63.239999999999995 80.25-63.239999999999995 80.25-63.239999999999995M112.53-62.25Q112.53-62.25 112.53-62.25 112.31-59.474999999999994 112.23-57.525000000000006 112.15-55.574999999999996 112.15-54.525000000000006 112.15-54.525000000000006 112.15-54.525000000000006 112.15-53.565 112.2-52.71 112.26-51.855000000000004 112.31-51.285 112.31-51.285 112.31-51.285 111.68-51.285 111.05-51.285 110.5-54.75 109.34-56.760000000000005 108.19-58.800000000000004 106.34-59.625 104.5-60.66 102.03-60.69 102.03-60.69 102.03-60.69 100.9-60.72 99.77-60.735 98.12-60.78 97.32-60.465 96.53-60.165 96.25-59.474999999999994 95.98-58.785 95.98-57.239999999999995 95.98-57.239999999999995 95.98-57.239999999999995 95.98-44.745 95.98-32.25 95.98-30.75 96.25-30.045 96.53-29.325000000000003 97.32-29.099999999999998 98.12-28.875 99.77-28.905 99.77-28.905 99.77-28.905 101.12-28.92 102.47-28.950000000000003 104.94-28.964999999999996 106.84-29.910000000000004 108.74-30.839999999999996 110.08-33.075 111.43-35.31 112.15-39.105000000000004 112.15-39.105000000000004 112.15-39.105000000000004 112.78-39.105000000000004 113.41-39.105000000000004 113.25-37.589999999999996 113.25-35.115 113.25-35.115 113.25-35.115 113.25-34.019999999999996 113.3-32.025000000000006 113.36-30.03 113.63-27.869999999999997 113.63-27.869999999999997 113.63-27.869999999999997 110.83-27.990000000000002 107.31-28.02 103.79-28.02 101.04-27.974999999999998 101.04-27.974999999999998 101.04-27.974999999999998 99.17-27.945 96.09-27.869999999999997 93.01-27.78 89.54-27.630000000000003 86.08-27.464999999999996 83.11-27.21 83.11-27.21 83.11-27.21 83.11-27.72 83.11-28.214999999999996 84.87-28.395 85.75-28.724999999999998 86.63-29.055 86.93-29.955 87.23-30.855 87.23-32.61 87.23-32.61 87.23-32.61 87.23-44.79 87.23-56.955 87.23-58.769999999999996 86.93-59.64 86.63-60.510000000000005 85.72-60.974999999999994 84.81-61.485 83.11-61.635000000000005 83.11-61.635000000000005 83.11-61.635000000000005 83.11-62.34 83.11-63.045 86.08-62.80499999999999 89.54-62.565 93.01-62.34 96.09-62.235 99.17-62.144999999999996 101.04-62.099999999999994 101.04-62.099999999999994 101.04-62.099999999999994 103.57-62.07000000000001 106.78-62.05499999999999 110-62.099999999999994 112.53-62.25 112.53-62.25 112.53-62.25M94.33-45.33Q99.14-45.315 103.95-45.3 103.95-45.3 103.95-44.82 103.95-44.339999999999996 103.95-44.339999999999996 103.95-44.339999999999996 103.95-44.339999999999996 99.14-44.355000000000004 94.33-44.37 94.33-44.37 94.33-44.835 94.33-45.33 94.33-45.33 94.33-45.33 94.33-45.33 94.33-45.33 94.33-45.33M104.28-51.585Q104.91-51.585 105.55-51.57000000000001 105.33-48.855000000000004 105.35-47.445 105.38-46.019999999999996 105.38-44.805 105.38-44.805 105.38-44.805 105.38-43.635 105.44-42.195 105.49-40.769999999999996 105.71-38.07 105.71-38.07 105.71-38.07 105.08-38.07 104.45-38.055 104.17-39.735 103.43-41.160000000000004 102.69-42.585 101.31-43.47 99.94-44.355000000000004 97.74-44.355000000000004 97.74-44.355000000000004 97.74-44.355000000000004 97.74-44.82 97.74-45.315 99.94-45.3 101.26-46.349999999999994 102.58-47.400000000000006 103.29-48.855000000000004 104.01-50.295 104.28-51.585 104.28-51.585 104.28-51.585 104.28-51.585 104.28-51.585M147.4-63.974999999999994Q147.4-63.974999999999994 147.4-63.974999999999994 147.18-61.050000000000004 147.1-58.92 147.02-56.760000000000005 147.02-55.62 147.02-55.62 147.02-55.62 147.02-54.585 147.07-53.64 147.13-52.71 147.18-52.08 147.18-52.08 147.18-52.08 146.55-52.065 145.91-52.035 145.37-55.785 144.21-57.900000000000006 143.06-60.015 141.21-60.78 139.37-61.69500000000001 136.9-61.53 136.9-61.53 136.9-61.53 135.76-61.47 134.63-61.394999999999996 132.99-61.30499999999999 132.19-60.915 131.4-60.55499999999999 131.12-59.835 130.85-59.099999999999994 130.85-57.54 130.85-57.54 130.85-57.54 130.85-44.79 130.85-32.025000000000006 130.85-30.509999999999998 131.12-29.759999999999998 131.4-29.009999999999998 132.19-28.740000000000002 132.99-28.455 134.63-28.380000000000003 134.63-28.380000000000003 134.63-28.380000000000003 135.99-28.305 137.34-28.244999999999997 139.81-28.095 141.71-28.994999999999997 143.61-29.880000000000003 144.94-32.235 146.3-34.589999999999996 147.02-38.730000000000004 147.02-38.730000000000004 147.02-38.730000000000004 147.65-38.730000000000004 148.28-38.714999999999996 148.12-37.035000000000004 148.12-34.32 148.12-34.32 148.12-34.32 148.12-33.105000000000004 148.16-30.915 148.22-28.71 148.5-26.325000000000003 148.5-26.325000000000003 148.5-26.325000000000003 145.69-26.64 142.18-26.924999999999997 138.66-27.165 135.91-27.33 135.91-27.33 135.91-27.33 134.04-27.42 130.96-27.57 127.88-27.69 124.41-27.78 120.95-27.855 117.98-27.81 117.98-27.81 117.98-27.81 117.98-28.29 117.98-28.77 119.74-28.83 120.62-29.099999999999998 121.5-29.369999999999997 121.8-30.240000000000002 122.1-31.095 122.1-32.82 122.1-32.82 122.1-32.82 122.1-44.745 122.1-56.67 122.1-58.455 121.8-59.28 121.5-60.105000000000004 120.59-60.495 119.68-60.915 117.98-60.94500000000001 117.98-60.94500000000001 117.98-60.94500000000001 117.98-61.635000000000005 117.98-62.34 120.95-62.34 124.41-62.385000000000005 127.88-62.44500000000001 130.96-62.595 134.04-62.775000000000006 135.91-62.88 135.91-62.88 135.91-62.88 138.44-63.045 141.65-63.300000000000004 144.87-63.614999999999995 147.4-63.974999999999994 147.4-63.974999999999994 147.4-63.974999999999994M129.19-45.36Q134.01-45.39 138.82-45.435 138.82-45.435 138.82-44.925 138.82-44.43 138.82-44.43 138.82-44.43 138.82-44.43 134.01-44.400000000000006 129.19-44.385 129.19-44.385 129.19-44.865 129.19-45.36 129.19-45.36 129.19-45.36 129.19-45.36 129.19-45.36 129.19-45.36M139.15-52.095Q139.78-52.11 140.41-52.14 140.19-49.245 140.22-47.730000000000004 140.25-46.214999999999996 140.25-44.925 140.25-44.925 140.25-44.925 140.25-43.68 140.31-42.150000000000006 140.36-40.635 140.58-37.74 140.58-37.74 140.58-37.74 139.94-37.755 139.32-37.769999999999996 139.04-39.54 138.3-41.055 137.56-42.57 136.18-43.485 134.81-44.415 132.61-44.400000000000006 132.61-44.400000000000006 132.61-44.400000000000006 132.61-44.88 132.61-45.39 134.81-45.405 136.13-46.515 137.44-47.625 138.16-49.17 138.88-50.730000000000004 139.15-52.095 139.15-52.095 139.15-52.095 139.15-52.095 139.15-52.095M189.09-69.16499999999999Q189.09-69.16499999999999 189.09-69.16499999999999 189.09-68.4 189.09-67.62 187.33-67.035 186.45-66.015 185.57-65.07000000000001 185.27-63.255 184.97-61.455 184.97-58.245 184.97-58.245 184.97-58.245 184.97-40.005 184.97-21.765 184.31-21.93 183.62-22.035 182.93-22.155 182.16-22.215 182.16-22.215 182.16-22.215 170.22-40.214999999999996 158.29-55.665 158.29-45.06 158.29-34.47 158.29-31.44 158.62-29.775000000000002 158.94-28.125 160.08-27.33 161.21-26.52 163.63-25.98 163.63-25.98 163.63-25.98 163.63-25.410000000000004 163.63-24.839999999999996 162.58-25.08 160.88-25.29 159.16-25.5 157.69-25.650000000000002 157.69-25.650000000000002 157.69-25.650000000000002 156.41-25.785000000000004 155.1-25.875 153.78-25.964999999999996 152.9-25.950000000000003 152.9-25.950000000000003 152.9-25.950000000000003 152.9-26.474999999999998 152.9-27.015 154.66-27.134999999999998 155.54-27.705 156.41-28.29 156.72-29.775000000000002 157.03-31.244999999999997 157.03-33.885 157.03-33.885 157.03-33.885 157.03-46.214999999999996 157.03-58.545 157.03-60.585 156.72-61.5 156.41-62.42999999999999 155.51-62.775000000000006 154.61-63.150000000000006 152.9-63.045 152.9-63.045 152.9-63.045 152.9-63.765 152.9-64.485 153.78-64.5 155.1-64.56 156.41-64.62 157.69-64.755 157.69-64.755 157.69-64.755 159.01-64.905 160.22-65.115 161.43-65.32499999999999 162.41-65.52 162.41-65.52 162.41-65.52 173.06-52.005 183.7-37.08 183.7-47.22 183.7-57.36 183.7-60.92999999999999 183.37-62.80499999999999 183.04-64.66499999999999 181.91-65.34 180.79-66.09 178.37-66.07499999999999 178.37-66.07499999999999 178.37-66.07499999999999 178.37-66.82499999999999 178.37-67.57499999999999 179.41-67.65 181.12-67.83 182.82-67.995 184.31-68.205 184.31-68.205 184.31-68.205 185.63-68.4 186.92-68.685 188.21-68.94 189.09-69.16499999999999 189.09-69.16499999999999 189.09-69.16499999999999M206.31-72.96000000000001Q206.31-72.96000000000001 206.31-72.96000000000001 209.55-73.515 211.31-72.81 213.07-72.07499999999999 214.34-71.145 214.34-71.145 214.34-71.145 215-70.67999999999999 215.41-70.455 215.82-70.245 216.21-70.30499999999999 216.21-70.30499999999999 216.21-70.30499999999999 217.09-70.44 217.42-74.1 217.42-74.1 217.42-74.1 218.05-74.205 218.68-74.31 218.63-72.735 218.54-70.53 218.46-68.34 218.43-64.785 218.41-61.230000000000004 218.41-55.44 218.41-55.44 218.41-55.44 217.77-55.41 217.14-55.38 216.92-59.625 215.82-63.495 214.72-67.32000000000001 212.71-69.55499999999999 210.71-71.775 207.79-71.295 207.79-71.295 207.79-71.295 205.15-70.86 203.45-68.46000000000001 201.74-66.19500000000001 201.74-62.67 201.74-62.67 201.74-62.67 201.74-59.730000000000004 202.84-57.735 203.94-55.67999999999999 206.06-53.775000000000006 208.18-51.795 211.2-48.915 211.2-48.915 211.2-48.915 213.84-46.47 215.93-43.935 218.02-41.325 219.29-38.04 220.55-34.695 220.55-30.165 220.55-30.165 220.55-30.165 220.55-24.630000000000003 218.65-21.36 216.76-18.18 213.68-17.07 210.6-16.02 206.91-16.815 206.91-16.815 206.91-16.815 203.5-17.52 201.47-18.81 199.43-20.07 198.06-21.255 198.06-21.255 198.06-21.255 196.85-22.47 196.19-22.575000000000003 196.19-22.575000000000003 196.19-22.575000000000003 195.31-22.725 194.98-19.68 194.98-19.68 194.98-19.68 194.34-19.799999999999997 193.71-19.919999999999998 193.82-21.57 193.85-23.79 193.88-26.025000000000002 193.9-29.595 193.93-33.165 193.93-38.67 193.93-38.67 193.93-38.67 194.56-38.64 195.2-38.61 195.42-33.96 196.43-29.79 197.45-25.575000000000003 199.57-22.725 201.69-19.799999999999997 205.21-19.125 205.21-19.125 205.21-19.125 208.07-18.57 210.05-20.355 212.03-22.200000000000003 212.03-26.625 212.03-26.625 212.03-26.625 212.03-31.53 209.72-34.935 207.41-38.235 203.78-41.64 203.78-41.64 203.78-41.64 201.19-43.995 198.94-46.275000000000006 196.68-48.465 195.33-51.255 193.99-54 193.99-57.824999999999996 193.99-57.824999999999996 193.99-57.824999999999996 193.99-62.19 195.72-65.265 197.45-68.42999999999999 200.28-70.42500000000001 203.12-72.435 206.31-72.96000000000001 206.31-72.96000000000001 206.31-72.96000000000001" transform="translate(-2.369999885559082, 74.30999755859375)"></path></g></g></g><g data-gra="path-slogan" fill-rule="" class="tp-slogan" fill="#333333" transform="translate(69.95480918884277,66.23595428466797)"><!----><!----><g transform="scale(1, 1)"><g transform="scale(1.12)"><path d="M1.08 0L1.08-7.87L2.08-7.87L2.08-3.92L2.11-3.92L5.39-7.87L6.52-7.87L4.06-4.87L6.90 0L5.78 0L3.43-4.09L2.08-2.50L2.08 0L1.08 0ZM10.03 0L10.03-7.87L11.02-7.87L11.02 0L10.03 0ZM14.61-1.02L15.21-1.72Q15.63-1.27 16.20-1.00Q16.77-0.73 17.38-0.73L17.38-0.73Q18.16-0.73 18.59-1.09Q19.02-1.44 19.02-2.02L19.02-2.02Q19.02-2.32 18.92-2.53Q18.82-2.74 18.65-2.89Q18.47-3.04 18.23-3.16Q17.99-3.28 17.72-3.41L17.72-3.41L16.59-3.90Q16.31-4.02 16.02-4.19Q15.74-4.36 15.51-4.60Q15.28-4.84 15.14-5.17Q14.99-5.50 14.99-5.93L14.99-5.93Q14.99-6.37 15.18-6.76Q15.36-7.14 15.69-7.42Q16.02-7.70 16.47-7.86Q16.92-8.02 17.46-8.02L17.46-8.02Q18.17-8.02 18.77-7.75Q19.37-7.48 19.79-7.04L19.79-7.04L19.25-6.40Q18.89-6.74 18.45-6.94Q18.02-7.14 17.46-7.14L17.46-7.14Q16.80-7.14 16.40-6.83Q16-6.53 16-5.99L16-5.99Q16-5.70 16.11-5.50Q16.23-5.30 16.42-5.15Q16.61-5.00 16.84-4.89Q17.07-4.78 17.31-4.68L17.31-4.68L18.42-4.20Q18.76-4.06 19.06-3.87Q19.36-3.68 19.58-3.44Q19.79-3.19 19.92-2.86Q20.04-2.53 20.04-2.10L20.04-2.10Q20.04-1.63 19.86-1.22Q19.67-0.82 19.32-0.51Q18.98-0.20 18.48-0.03Q17.99 0.14 17.37 0.14L17.37 0.14Q16.54 0.14 15.83-0.17Q15.12-0.48 14.61-1.02L14.61-1.02ZM23.59 0L23.59-7.87L24.59-7.87L24.59 0L23.59 0ZM30.19 0L27.67-7.87L28.74-7.87L30.00-3.62Q30.21-2.92 30.37-2.32Q30.54-1.72 30.76-1.02L30.76-1.02L30.81-1.02Q31.03-1.72 31.20-2.32Q31.36-2.92 31.57-3.62L31.57-3.62L32.83-7.87L33.85-7.87L31.35 0L30.19 0ZM36.77-3.25L36.77-7.87L37.77-7.87L37.77-3.23Q37.77-2.52 37.91-2.04Q38.06-1.56 38.30-1.27Q38.55-0.98 38.88-0.86Q39.22-0.73 39.60-0.73L39.60-0.73Q40-0.73 40.34-0.86Q40.67-0.98 40.92-1.27Q41.18-1.56 41.32-2.04Q41.46-2.52 41.46-3.23L41.46-3.23L41.46-7.87L42.42-7.87L42.42-3.25Q42.42-2.30 42.21-1.66Q41.99-1.01 41.61-0.61Q41.24-0.20 40.72-0.03Q40.20 0.14 39.60 0.14L39.60 0.14Q39.00 0.14 38.48-0.03Q37.96-0.20 37.58-0.61Q37.20-1.01 36.99-1.66Q36.77-2.30 36.77-3.25L36.77-3.25ZM46.55 0L46.55-7.87L47.54-7.87L47.54-0.85L50.99-0.85L50.99 0L46.55 0ZM54.38 0L54.38-7.87L55.38-7.87L55.38 0L54.38 0Z" transform="translate(-1.08, 8.016)"></path></g></g></g></g><defs v-gra="od"></defs></svg>