<svg data-v-70b83f88="" version="1.0" xmlns="http://www.w3.org/2000/svg" xmlns:xlink="http://www.w3.org/1999/xlink" viewBox="0 0 340.000000 250.000000" preserveAspectRatio="xMidYMid meet" color-interpolation-filters="sRGB" style="margin: auto;"><rect data-v-70b83f88="" x="0" y="0" width="100%" height="100%" fill="#feffff" fill-opacity="1" class="background"></rect><rect data-v-70b83f88="" x="0" y="0" width="100%" height="100%" fill="url(#watermark)" fill-opacity="1" class="watermarklayer"></rect><g data-v-70b83f88="" fill="#333" class="iconlettersvg-g iconlettersvg" transform="translate(73.1146240234375,103.06220054626465)"><g><g class="tp-name" transform="translate(0,0)"><g transform="scale(1)"><g transform="translate(0, 0)"><g class="name-imagesvg"><g><rect fill="#333" fill-opacity="0" stroke-width="2" x="0" y="0" width="28.601018271890787" height="29.719602015764313" class="image-rect"></rect><svg x="0" y="0" width="28.601018271890787" height="29.719602015764313" filtersec="colorsb5235475647" class="image-svg-svg primary" style="overflow: visible;"><svg xmlns="http://www.w3.org/2000/svg" viewBox="0 0 135.26 140.55"><path fill="#8a6bbc" opacity=".8" d="M93.8 117.89l29.64-25.06 8.4-47.65-85.75 72.71H93.8z"></path><path fill="#ffa816" opacity=".8" d="M41.53 0L12.02 25.22 3.61 72.93 89.18 0H41.53z"></path><path fill="#ff4b4c" opacity=".8" d="M126.85 72.93l8.41-47.71L114.65 0H67l59.85 72.93z"></path><path fill="#9fd931" opacity=".8" d="M87.38 140.55L27.27 67.84l-.02.13L8.4 45.18 0 92.83l20.8 25.06h.06l18.81 22.66h47.71z"></path></svg></svg><!----></g></g></g><g transform="translate(28.601018271890787, 0)"><g class="name-imagesvg"><g><rect fill="#333" fill-opacity="0" stroke-width="2" x="0" y="0" width="32.58571749628402" height="29.719602015764313" class="image-rect"></rect><svg x="0" y="0" width="32.58571749628402" height="29.719602015764313" filtersec="colorsb1968309139" class="image-svg-svg primary" style="overflow: visible;"><svg xmlns="http://www.w3.org/2000/svg" viewBox="0 0 129.61 118.21"><path fill="#ffa816" opacity=".8" d="M0 91.49l21.93 26.72h47.49L8.44 43.61 0 91.49z"></path><path fill="#8a6bbc" opacity=".8" d="M129.61 0H94.29L80.5 78.24l-.08.07-7.04 39.9h8.02l32.29-27.52 8.47-48.06-.08.06L129.61 0z"></path><path fill="#ff4b4c" opacity=".8" d="M81.46 118.21l32.14-27.39 8.44-47.89-88.07 75.28h47.49z"></path><path fill="#9fd931" opacity=".8" d="M0 91.49l21.93 26.72h8.68L51.45 0H16.13L0 91.49z"></path></svg></svg><!----></g></g></g><g transform="translate(61.186735768174806, 0)"><g class="name-imagesvg"><g><rect fill="#333" fill-opacity="0" stroke-width="2" x="0" y="0" width="32.001071948177525" height="29.719602015764313" class="image-rect"></rect><svg x="0" y="0" width="32.001071948177525" height="29.719602015764313" filtersec="colorsb2686140845" class="image-svg-svg primary" style="overflow: visible;"><svg xmlns="http://www.w3.org/2000/svg" viewBox="0 0 126.94 117.89"><path fill="#ff4b4c" opacity=".8" d="M126.94 0H20.79l-5.25 29.75h106.15L126.94 0z"></path><path fill="#8a6bbc" opacity=".8" d="M113.01 88.14H5.25L0 117.89h107.77l5.24-29.75z"></path><path fill="#ffa816" opacity=".8" d="M101.15 44.29H12.98l-4.6 26.1h88.16l4.61-26.1z"></path><path fill="#9fd931" opacity=".8" d="M55.97 0H20.79L0 117.89h35.19L55.97 0z"></path></svg></svg><!----></g></g></g><g transform="translate(93.18780771635232, 0)"><g class="name-imagesvg"><g><rect fill="#333" fill-opacity="0" stroke-width="2" x="0" y="0" width="32.001071948177525" height="29.719602015764313" class="image-rect"></rect><svg x="0" y="0" width="32.001071948177525" height="29.719602015764313" filtersec="colorsb1045678252" class="image-svg-svg primary" style="overflow: visible;"><svg xmlns="http://www.w3.org/2000/svg" viewBox="0 0 126.94 117.89"><path fill="#ff4b4c" opacity=".8" d="M126.94 0H20.79l-5.25 29.75h106.15L126.94 0z"></path><path fill="#8a6bbc" opacity=".8" d="M113.01 88.14H5.25L0 117.89h107.77l5.24-29.75z"></path><path fill="#ffa816" opacity=".8" d="M101.15 44.29H12.98l-4.6 26.1h88.16l4.61-26.1z"></path><path fill="#9fd931" opacity=".8" d="M55.97 0H20.79L0 117.89h35.19L55.97 0z"></path></svg></svg><!----></g></g></g><g transform="translate(125.18887966452985, 0)"><g class="name-imagesvg"><g><rect fill="#333" fill-opacity="0" stroke-width="2" x="0" y="0" width="37.20433406236693" height="29.719602015764313" class="image-rect"></rect><svg x="0" y="0" width="37.20433406236693" height="29.719602015764313" filtersec="colorsb8769725656" class="image-svg-svg primary" style="overflow: visible;"><svg xmlns="http://www.w3.org/2000/svg" viewBox="0 0 147.58 117.89"><path fill="#9fd931" opacity=".8" d="M0 117.89h35.19L55.97 0H20.79L0 117.89z"></path><path fill="#ff4b4c" opacity=".8" d="M91.61 117.89h35.19L147.58 0H112.4L91.61 117.89z"></path><path fill="#8a6bbc" opacity=".8" d="M20.79 0l-1.81 10.23 73.6 107.66h34.22l1.8-10.23L55 0H20.79z"></path></svg></svg><!----></g></g></g><g transform="translate(162.3932137268968, 0)"><g class="name-imagesvg"><g><rect fill="#333" fill-opacity="0" stroke-width="2" x="0" y="0" width="31.37754072518349" height="29.719602015764313" class="image-rect"></rect><svg x="0" y="0" width="31.37754072518349" height="29.719602015764313" filtersec="colorsb5669073370" class="image-svg-svg primary" style="overflow: visible;"><svg xmlns="http://www.w3.org/2000/svg" viewBox="0 0 124.72 118.13"><path fill="#9fd931" opacity=".8" d="M124.72 0H39.28L14.05 21.57l-1.45 8.18h106.87L124.72 0z"></path><path fill="#00b8ce" opacity=".8" d="M110.71 99.3l1.92-10.92H5.25L0 118.13h88.44l22.27-18.83z"></path><path fill="#ff4b4c" opacity=".8" d="M110.72 99.23l6.65-37.72-13.93-17.04H55.8l49.03 59.75 5.89-4.99z"></path><path fill="#ffa816" opacity=".8" d="M23.98 13.02l-9.92 8.48-5.43 30.79 14.94 18.28H71.2L23.98 13.02z"></path></svg></svg><!----></g></g></g></g></g></g><g data-gra="path-slogan" fill-rule="" class="tp-slogan" fill="#333" transform="translate(76.73537635803223,35.71960258483887)"><!----><!----><g transform="scale(1, 1)"><g transform="scale(1)"><path d="M1.08-7.87L1.08 0L2.08 0L2.08-2.50L3.43-4.09L5.78 0L6.90 0L4.06-4.87L6.52-7.87L5.39-7.87L2.11-3.92L2.08-3.92L2.08-7.87ZM8.03-7.87L8.03 0L9.02 0L9.02-7.87ZM11.21-1.72L10.61-1.02C10.95-0.66 11.36-0.38 11.83-0.17C12.30 0.04 12.82 0.14 13.37 0.14C13.78 0.14 14.16 0.09 14.48-0.03C14.81-0.15 15.09-0.31 15.32-0.51C15.56-0.71 15.73-0.95 15.86-1.22C15.98-1.50 16.04-1.79 16.04-2.10C16.04-2.39 16.00-2.64 15.92-2.86C15.83-3.08 15.72-3.27 15.58-3.44C15.43-3.60 15.26-3.75 15.06-3.87C14.86-3.99 14.65-4.10 14.42-4.20L13.31-4.68C13.15-4.74 12.99-4.81 12.84-4.89C12.69-4.97 12.55-5.05 12.42-5.15C12.29-5.25 12.19-5.37 12.11-5.50C12.04-5.63 12.00-5.80 12.00-5.99C12.00-6.35 12.13-6.63 12.40-6.83C12.67-7.04 13.02-7.14 13.46-7.14C13.83-7.14 14.16-7.07 14.45-6.94C14.75-6.81 15.01-6.63 15.25-6.40L15.79-7.04C15.51-7.33 15.17-7.57 14.77-7.75C14.37-7.93 13.94-8.02 13.46-8.02C13.10-8.02 12.77-7.96 12.47-7.86C12.17-7.76 11.91-7.61 11.69-7.42C11.47-7.23 11.30-7.01 11.18-6.76C11.05-6.50 10.99-6.22 10.99-5.93C10.99-5.64 11.04-5.39 11.14-5.17C11.23-4.95 11.36-4.76 11.51-4.60C11.66-4.44 11.83-4.30 12.02-4.19C12.22-4.08 12.40-3.98 12.59-3.90L13.72-3.41C13.90-3.32 14.07-3.24 14.23-3.16C14.39-3.08 14.53-2.99 14.65-2.89C14.76-2.79 14.85-2.67 14.92-2.53C14.99-2.39 15.02-2.22 15.02-2.02C15.02-1.63 14.88-1.32 14.59-1.09C14.30-0.85 13.90-0.73 13.38-0.73C12.97-0.73 12.58-0.82 12.20-1.00C11.82-1.18 11.49-1.42 11.21-1.72ZM17.59-7.87L17.59 0L18.59 0L18.59-7.87ZM19.67-7.87L22.19 0L23.35 0L25.85-7.87L24.83-7.87L23.57-3.62C23.43-3.15 23.31-2.72 23.20-2.32C23.08-1.92 22.96-1.48 22.81-1.02L22.76-1.02C22.61-1.48 22.48-1.92 22.37-2.32C22.27-2.72 22.14-3.15 22.00-3.62L20.74-7.87ZM26.77-7.87L26.77-3.25C26.77-2.62 26.84-2.09 26.99-1.66C27.13-1.22 27.33-0.87 27.58-0.61C27.83-0.34 28.13-0.15 28.48-0.03C28.83 0.09 29.20 0.14 29.60 0.14C30.00 0.14 30.38 0.09 30.72-0.03C31.06-0.15 31.36-0.34 31.61-0.61C31.87-0.87 32.06-1.22 32.21-1.66C32.35-2.09 32.42-2.62 32.42-3.25L32.42-7.87L31.46-7.87L31.46-3.23C31.46-2.76 31.42-2.36 31.32-2.04C31.22-1.72 31.09-1.46 30.92-1.27C30.76-1.08 30.56-0.94 30.34-0.86C30.11-0.77 29.87-0.73 29.60-0.73C29.35-0.73 29.11-0.77 28.88-0.86C28.66-0.94 28.47-1.08 28.30-1.27C28.14-1.46 28.01-1.72 27.91-2.04C27.82-2.36 27.77-2.76 27.77-3.23L27.77-7.87ZM34.55-7.87L34.55 0L38.99 0L38.99-0.85L35.54-0.85L35.54-7.87ZM40.38-7.87L40.38 0L41.38 0L41.38-7.87Z" transform="translate(-1.08, 8.016)"></path></g></g></g></g><defs v-gra="od"></defs></svg>