<svg data-v-70b83f88="" version="1.0" xmlns="http://www.w3.org/2000/svg" xmlns:xlink="http://www.w3.org/1999/xlink" viewBox="0 0 340.000000 250.000000" preserveAspectRatio="xMidYMid meet" color-interpolation-filters="sRGB" style="margin: auto;"><rect data-v-70b83f88="" x="0" y="0" width="100%" height="100%" fill="#f7e7e7" fill-opacity="1" class="background"></rect><rect data-v-70b83f88="" x="0" y="0" width="100%" height="100%" fill="url(#watermark)" fill-opacity="1" class="watermarklayer"></rect><g data-v-70b83f88="" class="iconmbgsvg" transform="translate(83.3699951171875,55)"><g fill="#333333" hollow-target="textRect"><g transform="translate(16.6300048828125,0)" mask="url(#37a95e9d-1845-4f4d-a043-77acd6e33327)"><g><rect fill="#333333" fill-opacity="0" stroke-width="2" x="0" y="0" width="140" height="140" class="image-rect"></rect><svg filter="url(#colors3737440900)" x="0" y="0" width="140" height="140" filtersec="colorsf217668013" class="image-svg-svg primary" style="overflow: visible;"><svg fill="#000000" xmlns="http://www.w3.org/2000/svg" xmlns:xlink="http://www.w3.org/1999/xlink" version="1.1" x="0px" y="0px" viewBox="5 5 90 90" style="enable-background:new 0 0 100 100;" xml:space="preserve"><path d="M50,5C25.2,5,5,25.2,5,50s20.2,45,45,45s45-20.2,45-45S74.8,5,50,5z M87.7,34.4c0.7,1.6,1.3,3.3,1.7,5.1l-2,0.5  c-0.4-1.6-1-3.2-1.6-4.8L87.7,34.4z M82.4,25.2c1.1,1.4,2.1,2.9,3,4.4l-1.8,1c-0.8-1.5-1.8-2.9-2.8-4.2L82.4,25.2z M74.9,17.7  c1.4,1.1,2.8,2.3,4,3.5l-1.5,1.5c-1.2-1.2-2.5-2.3-3.8-3.3L74.9,17.7z M65.7,12.3c1.6,0.7,3.2,1.5,4.8,2.4l-1.1,1.8  c-1.5-0.8-3-1.6-4.5-2.3L65.7,12.3z M55.4,9.5c1.8,0.2,3.5,0.6,5.2,1l-0.5,2c-1.6-0.4-3.3-0.8-5-1L55.4,9.5z M10.6,39.4l2,0.5  c-0.4,1.6-0.8,3.3-1,5l-2.1-0.3C9.8,42.9,10.1,41.1,10.6,39.4z M9.2,50l2.1,0v0c0,1.7,0.1,3.4,0.3,5l-2.1,0.3  C9.3,53.6,9.2,51.8,9.2,50z M12.3,65.6c-0.7-1.6-1.3-3.3-1.7-5.1l2-0.5c0.4,1.6,1,3.2,1.6,4.8L12.3,65.6z M12.3,34.4  c0.7-1.6,1.5-3.2,2.4-4.8l1.8,1c-0.8,1.5-1.6,3-2.2,4.5L12.3,34.4z M17.6,74.8c-1.1-1.4-2.1-2.9-3-4.4l1.8-1  c0.8,1.5,1.8,2.9,2.8,4.2L17.6,74.8z M17.6,25.1c1.1-1.4,2.3-2.8,3.5-4l1.5,1.5c-1.2,1.2-2.3,2.5-3.3,3.8L17.6,25.1z M25.1,82.4  c-1.4-1.1-2.8-2.3-4-3.5l1.5-1.5c1.2,1.2,2.5,2.3,3.8,3.3L25.1,82.4z M25.2,17.6c1.4-1.1,2.9-2.1,4.4-3l1,1.8  c-1.5,0.8-2.9,1.8-4.2,2.8L25.2,17.6z M34.3,87.7c-1.6-0.7-3.2-1.5-4.8-2.4l1-1.8c1.5,0.8,3,1.6,4.5,2.2L34.3,87.7z M34.4,12.3  c1.6-0.7,3.3-1.3,5.1-1.7l0.5,2c-1.6,0.4-3.2,1-4.8,1.6L34.4,12.3z M44.6,90.5c-1.8-0.2-3.5-0.6-5.2-1l0.5-2c1.6,0.4,3.3,0.8,5,1  L44.6,90.5z M44.7,9.5c1.8-0.2,3.5-0.3,5.3-0.3h0.1v2.1H50c-1.7,0-3.4,0.1-5.1,0.3L44.7,9.5z M50,90.8l0-2.1h0c1.7,0,3.4-0.1,5-0.3  l0.3,2.1C53.5,90.7,51.8,90.8,50,90.8z M60.5,89.4l-0.5-2c1.6-0.4,3.2-1,4.8-1.6l0.8,1.9C63.9,88.4,62.2,89,60.5,89.4z M70.4,85.4  l-1-1.8c1.5-0.8,2.9-1.8,4.2-2.8l1.3,1.7C73.4,83.5,71.9,84.5,70.4,85.4z M78.8,78.9l-1.5-1.5c1.2-1.2,2.3-2.5,3.3-3.8l1.7,1.3  C81.3,76.3,80.1,77.6,78.8,78.9z M85.3,70.5l-1.8-1.1c0.8-1.5,1.6-3,2.2-4.5l1.9,0.8C87,67.3,86.2,68.9,85.3,70.5z M89.4,60.6  l-2-0.5c0.4-1.6,0.8-3.3,1-5l2.1,0.3C90.2,57.2,89.9,58.9,89.4,60.6z M88.7,50.1L88.7,50.1c0-1.7-0.1-3.4-0.3-5.1l2.1-0.3  c0.2,1.7,0.3,3.5,0.3,5.3v0.1H88.7z"></path></svg></svg><defs><filter id="colors3737440900"><feColorMatrix type="matrix" values="0 0 0 0 0.99609375  0 0 0 0 0.6015625  0 0 0 0 0.5703125  0 0 0 1 0" class="icon-fecolormatrix"></feColorMatrix></filter><filter id="colorsf217668013"><feColorMatrix type="matrix" values="0 0 0 0 0.99609375  0 0 0 0 0.99609375  0 0 0 0 0.99609375  0 0 0 1 0" class="icon-fecolormatrix"></feColorMatrix></filter><filter id="colorsb2541256077"><feColorMatrix type="matrix" values="0 0 0 0 0  0 0 0 0 0  0 0 0 0 0  0 0 0 1 0" class="icon-fecolormatrix"></feColorMatrix></filter></defs></g></g><g transform="translate(0,42.19099998474121)"><g data-gra="path-name" fill-rule="" class="tp-name" transform="translate(0,0)"><g transform="scale(1)"><g><path d="M29.74 7.45Q28.81 7.45 28.18 6.66L28.18 6.66 22.83 0.29Q21.61 0.49 19.89 0.49L19.89 0.49Q14.75 0.49 10.88-1.76 7.01-4.02 4.9-7.99 2.79-11.96 2.7-17.1L2.7-17.1Q2.79-22.25 4.9-26.21 7.01-30.18 10.88-32.44 14.75-34.69 19.89-34.69L19.89-34.69Q25.04-34.69 28.89-32.44 32.73-30.18 34.86-26.19 37-22.2 37.09-17.1L37.09-17.1Q37-11.37 34.32-7.08 31.65-2.79 26.95-0.83L26.95-0.83 31.26 3.92Q31.85 4.51 31.85 5.34L31.85 5.34Q31.9 6.17 31.26 6.81 30.63 7.45 29.74 7.45L29.74 7.45ZM19.89-3.68Q23.81-3.68 26.71-5.44 29.6-7.2 31.12-10.24 32.63-13.28 32.63-17.1L32.63-17.1Q32.63-20.92 31.12-23.96 29.6-27 26.71-28.76 23.81-30.53 19.89-30.53L19.89-30.53Q15.93-30.53 13.06-28.76 10.19-27 8.67-23.96 7.15-20.92 7.15-17.1L7.15-17.1Q7.15-13.28 8.67-10.24 10.19-7.2 13.06-5.44 15.93-3.68 19.89-3.68L19.89-3.68ZM51.79 0.49Q49.1 0.49 47.11-0.78 45.13-2.06 44.08-4.26 43.02-6.47 43.02-9.11L43.02-9.11 43.02-23.03Q43.02-23.96 43.68-24.6 44.34-25.23 45.28-25.23L45.28-25.23Q46.21-25.23 46.84-24.6 47.48-23.96 47.48-23.03L47.48-23.03 47.48-9.6Q47.48-3.63 52.87-3.63L52.87-3.63Q55.32-3.63 57.26-4.9 59.19-6.17 60.91-8.33L60.91-8.33 60.91-23.03Q60.91-23.96 61.57-24.6 62.23-25.23 63.16-25.23L63.16-25.23Q64.09-25.23 64.73-24.6 65.37-23.96 65.37-23.03L65.37-23.03 65.37-2.01Q65.37-1.08 64.73-0.42 64.09 0.24 63.16 0.24L63.16 0.24Q62.23 0.24 61.57-0.42 60.91-1.08 60.91-2.01L60.91-2.01 60.91-4.02Q59.05-1.96 56.89-0.73 54.73 0.49 51.79 0.49L51.79 0.49ZM84.28 0.49Q78.3 0.49 74.95-2.92 71.59-6.32 71.59-12.5L71.59-12.5Q71.59-15.97 72.86-18.91 74.14-21.85 76.78-23.67 79.43-25.48 83.3-25.48L83.3-25.48Q86.93-25.48 89.57-23.79 92.22-22.1 93.59-19.28 94.96-16.46 94.96-13.13L94.96-13.13Q94.96-12.2 94.35-11.56 93.74-10.93 92.71-10.93L92.71-10.93 76.1-10.93Q76.49-7.5 78.64-5.59 80.8-3.68 84.67-3.68L84.67-3.68Q86.73-3.68 88.27-4.07 89.82-4.46 91.29-5.19L91.29-5.19Q91.68-5.39 92.17-5.39L92.17-5.39Q92.95-5.39 93.54-4.85 94.13-4.31 94.13-3.48L94.13-3.48Q94.13-2.4 92.85-1.67L92.85-1.67Q90.94-0.59 89.08-0.05 87.22 0.49 84.28 0.49L84.28 0.49ZM76.1-14.55L90.55-14.55Q90.41-16.95 89.3-18.57 88.2-20.19 86.58-20.95 84.97-21.71 83.3-21.71L83.3-21.71Q81.63-21.71 80.02-20.95 78.4-20.19 77.32-18.57 76.24-16.95 76.1-14.55L76.1-14.55ZM112.01 0.49Q106.04 0.49 102.68-2.92 99.32-6.32 99.32-12.5L99.32-12.5Q99.32-15.97 100.6-18.91 101.87-21.85 104.52-23.67 107.16-25.48 111.03-25.48L111.03-25.48Q114.66-25.48 117.31-23.79 119.95-22.1 121.32-19.28 122.7-16.46 122.7-13.13L122.7-13.13Q122.7-12.2 122.08-11.56 121.47-10.93 120.44-10.93L120.44-10.93 103.83-10.93Q104.22-7.5 106.38-5.59 108.53-3.68 112.41-3.68L112.41-3.68Q114.46-3.68 116.01-4.07 117.55-4.46 119.02-5.19L119.02-5.19Q119.41-5.39 119.9-5.39L119.9-5.39Q120.69-5.39 121.28-4.85 121.86-4.31 121.86-3.48L121.86-3.48Q121.86-2.4 120.59-1.67L120.59-1.67Q118.68-0.59 116.82-0.05 114.95 0.49 112.01 0.49L112.01 0.49ZM103.83-14.55L118.29-14.55Q118.14-16.95 117.04-18.57 115.93-20.19 114.32-20.95 112.7-21.71 111.03-21.71L111.03-21.71Q109.37-21.71 107.75-20.95 106.13-20.19 105.06-18.57 103.98-16.95 103.83-14.55L103.83-14.55ZM130.78 0.24Q129.85 0.24 129.21-0.39 128.58-1.03 128.58-1.96L128.58-1.96 128.58-22.98Q128.58-23.91 129.21-24.57 129.85-25.23 130.78-25.23L130.78-25.23Q131.71-25.23 132.37-24.57 133.04-23.91 133.04-22.98L133.04-22.98 133.04-20.97Q134.9-23.03 137.05-24.26 139.21-25.48 142.15-25.48L142.15-25.48Q144.84-25.48 146.83-24.21 148.81-22.93 149.87-20.73 150.92-18.52 150.92-15.88L150.92-15.88 150.92-1.96Q150.92-1.03 150.26-0.39 149.6 0.24 148.67 0.24L148.67 0.24Q147.74 0.24 147.1-0.39 146.46-1.03 146.46-1.96L146.46-1.96 146.46-15.39Q146.46-21.36 141.07-21.36L141.07-21.36Q138.62-21.36 136.69-20.09 134.75-18.82 133.04-16.66L133.04-16.66 133.04-1.96Q133.04-1.03 132.37-0.39 131.71 0.24 130.78 0.24L130.78 0.24ZM166.5 0.49Q161.6 0.49 157.58-1.72L157.58-1.72Q156.75-2.3 156.75-3.33L156.75-3.33Q156.75-4.12 157.29-4.7 157.83-5.29 158.66-5.29L158.66-5.29Q159.1-5.29 159.54-5.1L159.54-5.1Q161.11-4.41 162.68-4.02 164.25-3.63 166.21-3.63L166.21-3.63Q171.65-3.63 171.65-7.11L171.65-7.11Q171.65-8.23 170.4-8.82 169.15-9.41 166.31-10.14L166.31-10.14Q163.42-10.83 161.53-11.56 159.64-12.3 158.29-13.79 156.95-15.29 156.95-17.74L156.95-17.74Q156.95-21.17 159.42-23.32 161.9-25.48 166.5-25.48L166.5-25.48Q170.28-25.48 173.61-24.26L173.61-24.26Q174.29-24.06 174.66-23.52 175.03-22.98 175.03-22.39L175.03-22.39Q175.03-21.61 174.46-21.02 173.9-20.43 173.07-20.43L173.07-20.43Q172.82-20.43 172.43-20.53L172.43-20.53Q169.59-21.41 166.85-21.41L166.85-21.41Q164.2-21.41 162.7-20.46 161.21-19.5 161.21-17.98L161.21-17.98Q161.21-16.51 162.58-15.83 163.95-15.14 166.85-14.5L166.85-14.5Q169.74-13.77 171.55-13.06 173.36-12.35 174.66-10.83 175.96-9.31 175.96-6.76L175.96-6.76Q175.96-3.63 173.48-1.57 171.01 0.49 166.5 0.49L166.5 0.49Z" transform="translate(-2.700000047683716, 34.689998626708984)"></path></g><!----><!----><!----><!----><!----><!----><!----></g></g><g data-gra="path-slogan" fill-rule="" class="tp-slogan" fill="#333333" transform="translate(61.16000556945801,49.13999938964844)"><!----><!----><g transform="scale(1, 1)"><g transform="scale(1)"><path d="M0.99 0L0.99-7.22L1.90-7.22L1.90-3.60L1.94-3.60L4.94-7.22L5.97-7.22L3.72-4.47L6.32 0L5.30 0L3.15-3.75L1.90-2.29L1.90 0L0.99 0ZM9.36 0L9.36-7.22L10.27-7.22L10.27 0L9.36 0ZM13.72-0.93L14.27-1.57Q14.66-1.17 15.18-0.92Q15.70-0.67 16.27-0.67L16.27-0.67Q16.98-0.67 17.38-1.00Q17.77-1.32 17.77-1.85L17.77-1.85Q17.77-2.12 17.68-2.32Q17.59-2.51 17.43-2.65Q17.27-2.78 17.05-2.89Q16.83-3.00 16.57-3.12L16.57-3.12L15.54-3.57Q15.29-3.68 15.02-3.84Q14.76-3.99 14.55-4.21Q14.34-4.43 14.21-4.74Q14.08-5.04 14.08-5.43L14.08-5.43Q14.08-5.84 14.25-6.19Q14.42-6.54 14.72-6.80Q15.02-7.06 15.43-7.20Q15.85-7.35 16.34-7.35L16.34-7.35Q16.99-7.35 17.54-7.10Q18.09-6.85 18.48-6.46L18.48-6.46L17.98-5.86Q17.65-6.18 17.25-6.36Q16.85-6.54 16.34-6.54L16.34-6.54Q15.74-6.54 15.37-6.26Q15-5.98 15-5.49L15-5.49Q15-5.22 15.10-5.04Q15.21-4.86 15.38-4.72Q15.56-4.59 15.77-4.48Q15.98-4.38 16.20-4.29L16.20-4.29L17.22-3.85Q17.53-3.72 17.80-3.55Q18.08-3.38 18.28-3.15Q18.48-2.93 18.59-2.62Q18.71-2.32 18.71-1.92L18.71-1.92Q18.71-1.50 18.54-1.12Q18.37-0.75 18.05-0.47Q17.73-0.19 17.28-0.03Q16.83 0.13 16.25 0.13L16.25 0.13Q15.50 0.13 14.85-0.15Q14.20-0.44 13.72-0.93L13.72-0.93ZM22.13 0L22.13-7.22L23.04-7.22L23.04 0L22.13 0ZM28.34 0L26.03-7.22L27.01-7.22L28.16-3.32Q28.36-2.67 28.51-2.12Q28.66-1.57 28.87-0.93L28.87-0.93L28.91-0.93Q29.11-1.57 29.26-2.12Q29.42-2.67 29.60-3.32L29.60-3.32L30.76-7.22L31.69-7.22L29.41 0L28.34 0ZM34.54-2.98L34.54-7.22L35.45-7.22L35.45-2.96Q35.45-2.31 35.59-1.87Q35.72-1.43 35.94-1.17Q36.17-0.90 36.48-0.79Q36.79-0.67 37.14-0.67L37.14-0.67Q37.50-0.67 37.81-0.79Q38.12-0.90 38.35-1.17Q38.58-1.43 38.71-1.87Q38.84-2.31 38.84-2.96L38.84-2.96L38.84-7.22L39.72-7.22L39.72-2.98Q39.72-2.11 39.52-1.52Q39.33-0.92 38.98-0.56Q38.63-0.19 38.16-0.03Q37.69 0.13 37.14 0.13L37.14 0.13Q36.59 0.13 36.11-0.03Q35.63-0.19 35.28-0.56Q34.94-0.92 34.74-1.52Q34.54-2.11 34.54-2.98L34.54-2.98ZM43.67 0L43.67-7.22L44.58-7.22L44.58-0.78L47.74-0.78L47.74 0L43.67 0ZM51.02 0L51.02-7.22L51.93-7.22L51.93 0L51.02 0Z" transform="translate(-0.99, 7.348)"></path></g></g></g></g></g></g><mask id="37a95e9d-1845-4f4d-a043-77acd6e33327"><g fill="white"><g><rect fill-opacity="1" stroke-width="2" x="0" y="0" width="140" height="140" class="image-rect"></rect><svg x="0" y="0" width="140" height="140" class="image-svg-svg primary" style="overflow: visible;" filter="url(#colorsf217668013)"><svg xmlns="http://www.w3.org/2000/svg" xmlns:xlink="http://www.w3.org/1999/xlink" version="1.1" x="0px" y="0px" viewBox="5 5 90 90" style="enable-background:new 0 0 100 100;" xml:space="preserve"><path d="M50,5C25.2,5,5,25.2,5,50s20.2,45,45,45s45-20.2,45-45S74.8,5,50,5z M87.7,34.4c0.7,1.6,1.3,3.3,1.7,5.1l-2,0.5  c-0.4-1.6-1-3.2-1.6-4.8L87.7,34.4z M82.4,25.2c1.1,1.4,2.1,2.9,3,4.4l-1.8,1c-0.8-1.5-1.8-2.9-2.8-4.2L82.4,25.2z M74.9,17.7  c1.4,1.1,2.8,2.3,4,3.5l-1.5,1.5c-1.2-1.2-2.5-2.3-3.8-3.3L74.9,17.7z M65.7,12.3c1.6,0.7,3.2,1.5,4.8,2.4l-1.1,1.8  c-1.5-0.8-3-1.6-4.5-2.3L65.7,12.3z M55.4,9.5c1.8,0.2,3.5,0.6,5.2,1l-0.5,2c-1.6-0.4-3.3-0.8-5-1L55.4,9.5z M10.6,39.4l2,0.5  c-0.4,1.6-0.8,3.3-1,5l-2.1-0.3C9.8,42.9,10.1,41.1,10.6,39.4z M9.2,50l2.1,0v0c0,1.7,0.1,3.4,0.3,5l-2.1,0.3  C9.3,53.6,9.2,51.8,9.2,50z M12.3,65.6c-0.7-1.6-1.3-3.3-1.7-5.1l2-0.5c0.4,1.6,1,3.2,1.6,4.8L12.3,65.6z M12.3,34.4  c0.7-1.6,1.5-3.2,2.4-4.8l1.8,1c-0.8,1.5-1.6,3-2.2,4.5L12.3,34.4z M17.6,74.8c-1.1-1.4-2.1-2.9-3-4.4l1.8-1  c0.8,1.5,1.8,2.9,2.8,4.2L17.6,74.8z M17.6,25.1c1.1-1.4,2.3-2.8,3.5-4l1.5,1.5c-1.2,1.2-2.3,2.5-3.3,3.8L17.6,25.1z M25.1,82.4  c-1.4-1.1-2.8-2.3-4-3.5l1.5-1.5c1.2,1.2,2.5,2.3,3.8,3.3L25.1,82.4z M25.2,17.6c1.4-1.1,2.9-2.1,4.4-3l1,1.8  c-1.5,0.8-2.9,1.8-4.2,2.8L25.2,17.6z M34.3,87.7c-1.6-0.7-3.2-1.5-4.8-2.4l1-1.8c1.5,0.8,3,1.6,4.5,2.2L34.3,87.7z M34.4,12.3  c1.6-0.7,3.3-1.3,5.1-1.7l0.5,2c-1.6,0.4-3.2,1-4.8,1.6L34.4,12.3z M44.6,90.5c-1.8-0.2-3.5-0.6-5.2-1l0.5-2c1.6,0.4,3.3,0.8,5,1  L44.6,90.5z M44.7,9.5c1.8-0.2,3.5-0.3,5.3-0.3h0.1v2.1H50c-1.7,0-3.4,0.1-5.1,0.3L44.7,9.5z M50,90.8l0-2.1h0c1.7,0,3.4-0.1,5-0.3  l0.3,2.1C53.5,90.7,51.8,90.8,50,90.8z M60.5,89.4l-0.5-2c1.6-0.4,3.2-1,4.8-1.6l0.8,1.9C63.9,88.4,62.2,89,60.5,89.4z M70.4,85.4  l-1-1.8c1.5-0.8,2.9-1.8,4.2-2.8l1.3,1.7C73.4,83.5,71.9,84.5,70.4,85.4z M78.8,78.9l-1.5-1.5c1.2-1.2,2.3-2.5,3.3-3.8l1.7,1.3  C81.3,76.3,80.1,77.6,78.8,78.9z M85.3,70.5l-1.8-1.1c0.8-1.5,1.6-3,2.2-4.5l1.9,0.8C87,67.3,86.2,68.9,85.3,70.5z M89.4,60.6  l-2-0.5c0.4-1.6,0.8-3.3,1-5l2.1,0.3C90.2,57.2,89.9,58.9,89.4,60.6z M88.7,50.1L88.7,50.1c0-1.7-0.1-3.4-0.3-5.1l2.1-0.3  c0.2,1.7,0.3,3.5,0.3,5.3v0.1H88.7z"></path></svg></svg><defs></defs></g></g><g transform="translate(-16.6300048828125,42.19099998474121)"><rect fill="black" fill-opacity="1" x="-3.5" y="-3.5" width="180.260009765625" height="49.13999938964844"></rect><rect fill="black" fill-opacity="1" x="-3.5" y="-3.5" transform="translate(61.16000556945801,49.13999938964844)" width="57.939998626708984" height="14.480000019073486"></rect></g><g transform="translate(-16.6300048828125,42.19099998474121)" fill="black"><g data-gra="path-name" fill-rule="" class="tp-name" transform="translate(0,0)"><g transform="scale(1)"><g><path d="M29.74 7.45Q28.81 7.45 28.18 6.66L28.18 6.66 22.83 0.29Q21.61 0.49 19.89 0.49L19.89 0.49Q14.75 0.49 10.88-1.76 7.01-4.02 4.9-7.99 2.79-11.96 2.7-17.1L2.7-17.1Q2.79-22.25 4.9-26.21 7.01-30.18 10.88-32.44 14.75-34.69 19.89-34.69L19.89-34.69Q25.04-34.69 28.89-32.44 32.73-30.18 34.86-26.19 37-22.2 37.09-17.1L37.09-17.1Q37-11.37 34.32-7.08 31.65-2.79 26.95-0.83L26.95-0.83 31.26 3.92Q31.85 4.51 31.85 5.34L31.85 5.34Q31.9 6.17 31.26 6.81 30.63 7.45 29.74 7.45L29.74 7.45ZM19.89-3.68Q23.81-3.68 26.71-5.44 29.6-7.2 31.12-10.24 32.63-13.28 32.63-17.1L32.63-17.1Q32.63-20.92 31.12-23.96 29.6-27 26.71-28.76 23.81-30.53 19.89-30.53L19.89-30.53Q15.93-30.53 13.06-28.76 10.19-27 8.67-23.96 7.15-20.92 7.15-17.1L7.15-17.1Q7.15-13.28 8.67-10.24 10.19-7.2 13.06-5.44 15.93-3.68 19.89-3.68L19.89-3.68ZM51.79 0.49Q49.1 0.49 47.11-0.78 45.13-2.06 44.08-4.26 43.02-6.47 43.02-9.11L43.02-9.11 43.02-23.03Q43.02-23.96 43.68-24.6 44.34-25.23 45.28-25.23L45.28-25.23Q46.21-25.23 46.84-24.6 47.48-23.96 47.48-23.03L47.48-23.03 47.48-9.6Q47.48-3.63 52.87-3.63L52.87-3.63Q55.32-3.63 57.26-4.9 59.19-6.17 60.91-8.33L60.91-8.33 60.91-23.03Q60.91-23.96 61.57-24.6 62.23-25.23 63.16-25.23L63.16-25.23Q64.09-25.23 64.73-24.6 65.37-23.96 65.37-23.03L65.37-23.03 65.37-2.01Q65.37-1.08 64.73-0.42 64.09 0.24 63.16 0.24L63.16 0.24Q62.23 0.24 61.57-0.42 60.91-1.08 60.91-2.01L60.91-2.01 60.91-4.02Q59.05-1.96 56.89-0.73 54.73 0.49 51.79 0.49L51.79 0.49ZM84.28 0.49Q78.3 0.49 74.95-2.92 71.59-6.32 71.59-12.5L71.59-12.5Q71.59-15.97 72.86-18.91 74.14-21.85 76.78-23.67 79.43-25.48 83.3-25.48L83.3-25.48Q86.93-25.48 89.57-23.79 92.22-22.1 93.59-19.28 94.96-16.46 94.96-13.13L94.96-13.13Q94.96-12.2 94.35-11.56 93.74-10.93 92.71-10.93L92.71-10.93 76.1-10.93Q76.49-7.5 78.64-5.59 80.8-3.68 84.67-3.68L84.67-3.68Q86.73-3.68 88.27-4.07 89.82-4.46 91.29-5.19L91.29-5.19Q91.68-5.39 92.17-5.39L92.17-5.39Q92.95-5.39 93.54-4.85 94.13-4.31 94.13-3.48L94.13-3.48Q94.13-2.4 92.85-1.67L92.85-1.67Q90.94-0.59 89.08-0.05 87.22 0.49 84.28 0.49L84.28 0.49ZM76.1-14.55L90.55-14.55Q90.41-16.95 89.3-18.57 88.2-20.19 86.58-20.95 84.97-21.71 83.3-21.71L83.3-21.71Q81.63-21.71 80.02-20.95 78.4-20.19 77.32-18.57 76.24-16.95 76.1-14.55L76.1-14.55ZM112.01 0.49Q106.04 0.49 102.68-2.92 99.32-6.32 99.32-12.5L99.32-12.5Q99.32-15.97 100.6-18.91 101.87-21.85 104.52-23.67 107.16-25.48 111.03-25.48L111.03-25.48Q114.66-25.48 117.31-23.79 119.95-22.1 121.32-19.28 122.7-16.46 122.7-13.13L122.7-13.13Q122.7-12.2 122.08-11.56 121.47-10.93 120.44-10.93L120.44-10.93 103.83-10.93Q104.22-7.5 106.38-5.59 108.53-3.68 112.41-3.68L112.41-3.68Q114.46-3.68 116.01-4.07 117.55-4.46 119.02-5.19L119.02-5.19Q119.41-5.39 119.9-5.39L119.9-5.39Q120.69-5.39 121.28-4.85 121.86-4.31 121.86-3.48L121.86-3.48Q121.86-2.4 120.59-1.67L120.59-1.67Q118.68-0.59 116.82-0.05 114.95 0.49 112.01 0.49L112.01 0.49ZM103.83-14.55L118.29-14.55Q118.14-16.95 117.04-18.57 115.93-20.19 114.32-20.95 112.7-21.71 111.03-21.71L111.03-21.71Q109.37-21.71 107.75-20.95 106.13-20.19 105.06-18.57 103.98-16.95 103.83-14.55L103.83-14.55ZM130.78 0.24Q129.85 0.24 129.21-0.39 128.58-1.03 128.58-1.96L128.58-1.96 128.58-22.98Q128.58-23.91 129.21-24.57 129.85-25.23 130.78-25.23L130.78-25.23Q131.71-25.23 132.37-24.57 133.04-23.91 133.04-22.98L133.04-22.98 133.04-20.97Q134.9-23.03 137.05-24.26 139.21-25.48 142.15-25.48L142.15-25.48Q144.84-25.48 146.83-24.21 148.81-22.93 149.87-20.73 150.92-18.52 150.92-15.88L150.92-15.88 150.92-1.96Q150.92-1.03 150.26-0.39 149.6 0.24 148.67 0.24L148.67 0.24Q147.74 0.24 147.1-0.39 146.46-1.03 146.46-1.96L146.46-1.96 146.46-15.39Q146.46-21.36 141.07-21.36L141.07-21.36Q138.62-21.36 136.69-20.09 134.75-18.82 133.04-16.66L133.04-16.66 133.04-1.96Q133.04-1.03 132.37-0.39 131.71 0.24 130.78 0.24L130.78 0.24ZM166.5 0.49Q161.6 0.49 157.58-1.72L157.58-1.72Q156.75-2.3 156.75-3.33L156.75-3.33Q156.75-4.12 157.29-4.7 157.83-5.29 158.66-5.29L158.66-5.29Q159.1-5.29 159.54-5.1L159.54-5.1Q161.11-4.41 162.68-4.02 164.25-3.63 166.21-3.63L166.21-3.63Q171.65-3.63 171.65-7.11L171.65-7.11Q171.65-8.23 170.4-8.82 169.15-9.41 166.31-10.14L166.31-10.14Q163.42-10.83 161.53-11.56 159.64-12.3 158.29-13.79 156.95-15.29 156.95-17.74L156.95-17.74Q156.95-21.17 159.42-23.32 161.9-25.48 166.5-25.48L166.5-25.48Q170.28-25.48 173.61-24.26L173.61-24.26Q174.29-24.06 174.66-23.52 175.03-22.98 175.03-22.39L175.03-22.39Q175.03-21.61 174.46-21.02 173.9-20.43 173.07-20.43L173.07-20.43Q172.82-20.43 172.43-20.53L172.43-20.53Q169.59-21.41 166.85-21.41L166.85-21.41Q164.2-21.41 162.7-20.46 161.21-19.5 161.21-17.98L161.21-17.98Q161.21-16.51 162.58-15.83 163.95-15.14 166.85-14.5L166.85-14.5Q169.74-13.77 171.55-13.06 173.36-12.35 174.66-10.83 175.96-9.31 175.96-6.76L175.96-6.76Q175.96-3.63 173.48-1.57 171.01 0.49 166.5 0.49L166.5 0.49Z" transform="translate(-2.700000047683716, 34.689998626708984)"></path></g></g></g><g data-gra="path-slogan" fill-rule="" class="tp-slogan" transform="translate(61.16000556945801,49.13999938964844)" fill="white"><g transform="scale(1, 1)"><g transform="scale(1)"><path d="M0.99 0L0.99-7.22L1.90-7.22L1.90-3.60L1.94-3.60L4.94-7.22L5.97-7.22L3.72-4.47L6.32 0L5.30 0L3.15-3.75L1.90-2.29L1.90 0L0.99 0ZM9.36 0L9.36-7.22L10.27-7.22L10.27 0L9.36 0ZM13.72-0.93L14.27-1.57Q14.66-1.17 15.18-0.92Q15.70-0.67 16.27-0.67L16.27-0.67Q16.98-0.67 17.38-1.00Q17.77-1.32 17.77-1.85L17.77-1.85Q17.77-2.12 17.68-2.32Q17.59-2.51 17.43-2.65Q17.27-2.78 17.05-2.89Q16.83-3.00 16.57-3.12L16.57-3.12L15.54-3.57Q15.29-3.68 15.02-3.84Q14.76-3.99 14.55-4.21Q14.34-4.43 14.21-4.74Q14.08-5.04 14.08-5.43L14.08-5.43Q14.08-5.84 14.25-6.19Q14.42-6.54 14.72-6.80Q15.02-7.06 15.43-7.20Q15.85-7.35 16.34-7.35L16.34-7.35Q16.99-7.35 17.54-7.10Q18.09-6.85 18.48-6.46L18.48-6.46L17.98-5.86Q17.65-6.18 17.25-6.36Q16.85-6.54 16.34-6.54L16.34-6.54Q15.74-6.54 15.37-6.26Q15-5.98 15-5.49L15-5.49Q15-5.22 15.10-5.04Q15.21-4.86 15.38-4.72Q15.56-4.59 15.77-4.48Q15.98-4.38 16.20-4.29L16.20-4.29L17.22-3.85Q17.53-3.72 17.80-3.55Q18.08-3.38 18.28-3.15Q18.48-2.93 18.59-2.62Q18.71-2.32 18.71-1.92L18.71-1.92Q18.71-1.50 18.54-1.12Q18.37-0.75 18.05-0.47Q17.73-0.19 17.28-0.03Q16.83 0.13 16.25 0.13L16.25 0.13Q15.50 0.13 14.85-0.15Q14.20-0.44 13.72-0.93L13.72-0.93ZM22.13 0L22.13-7.22L23.04-7.22L23.04 0L22.13 0ZM28.34 0L26.03-7.22L27.01-7.22L28.16-3.32Q28.36-2.67 28.51-2.12Q28.66-1.57 28.87-0.93L28.87-0.93L28.91-0.93Q29.11-1.57 29.26-2.12Q29.42-2.67 29.60-3.32L29.60-3.32L30.76-7.22L31.69-7.22L29.41 0L28.34 0ZM34.54-2.98L34.54-7.22L35.45-7.22L35.45-2.96Q35.45-2.31 35.59-1.87Q35.72-1.43 35.94-1.17Q36.17-0.90 36.48-0.79Q36.79-0.67 37.14-0.67L37.14-0.67Q37.50-0.67 37.81-0.79Q38.12-0.90 38.35-1.17Q38.58-1.43 38.71-1.87Q38.84-2.31 38.84-2.96L38.84-2.96L38.84-7.22L39.72-7.22L39.72-2.98Q39.72-2.11 39.52-1.52Q39.33-0.92 38.98-0.56Q38.63-0.19 38.16-0.03Q37.69 0.13 37.14 0.13L37.14 0.13Q36.59 0.13 36.11-0.03Q35.63-0.19 35.28-0.56Q34.94-0.92 34.74-1.52Q34.54-2.11 34.54-2.98L34.54-2.98ZM43.67 0L43.67-7.22L44.58-7.22L44.58-0.78L47.74-0.78L47.74 0L43.67 0ZM51.02 0L51.02-7.22L51.93-7.22L51.93 0L51.02 0Z" transform="translate(-0.99, 7.348)"></path></g></g></g></g></mask><defs v-gra="od"></defs></svg>