<svg data-v-70b83f88="" version="1.0" xmlns="http://www.w3.org/2000/svg" xmlns:xlink="http://www.w3.org/1999/xlink" viewBox="0 0 340.000000 250.000000" preserveAspectRatio="xMidYMid meet" color-interpolation-filters="sRGB" style="margin: auto;"><rect data-v-70b83f88="" x="0" y="0" width="100%" height="100%" fill="#ffffff" fill-opacity="1" class="background"></rect><rect data-v-70b83f88="" x="0" y="0" width="100%" height="100%" fill="url(#watermark)" fill-opacity="1" class="watermarklayer"></rect><g data-v-70b83f88="" fill="#26125b" class="basesvg" transform="translate(56.415000915527344,115.67999935150146)"><g data-gra="path-name" fill-rule="" class="tp-name"><g transform="scale(1)"><g><path d="M10.77 0.31C11.2 0.31 11.62 0.31 12.05 0.28L14.22 2.27 19.75 2.27 16.16-0.99C19.3-2.76 20.39-5.79 20.39-8.1 20.39-11.27 18.14-16.37 10.79-16.37 5.65-16.37 2.83-13.68 1.75-11.17 1.32-10.16 1.13-9.12 1.13-8.1 1.13-2.83 5.74 0.31 10.77 0.31ZM23.22-16.16L23.22-5.2C23.22-2.31 25.35 0.31 30.92 0.31 36.49 0.31 38.64-2.36 38.64-5.2L38.64-16.16 34.09-16.16 34.09-4.09C34.09-2.95 32.57-1.82 30.92-1.82 29.31-1.82 27.8-2.95 27.8-4.09L27.8-16.16ZM42.05-16.16L42.05 0 55.42 0 55.42-2.17 46.63-2.17 46.63-7.49 54-7.49 54-9.64 46.63-9.64 46.63-14.01 55.42-14.01 55.42-16.16ZM58.25-16.16L58.25 0 71.62 0 71.62-2.17 62.83-2.17 62.83-7.49 70.2-7.49 70.2-9.64 62.83-9.64 62.83-14.01 71.62-14.01 71.62-16.16ZM77.67 0L77.67-11.08 84.47 0 89.29 0 89.29-16.16 86.08-16.16 86.08-5.24 79.37-16.16 74.45-16.16 74.45 0ZM99.21 0.31C103.79 0.31 106.98-1.87 106.98-4.61 106.98-7.49 104.22-8.55 101.85-9.31 101.29-9.52 100.72-9.68 100.18-9.87 99.11-10.28 97.77-10.79 97.77-12.14 97.77-13.42 98.78-14.2 100.72-14.2 102.19-14.2 103.18-13.44 103.3-12.33L103.41-11.36 106.27-12.31 106.18-12.73C105.73-15.05 103.15-16.37 99.47-16.37 96.4-16.37 92.64-15.09 92.64-11.46 92.64-8.69 95.55-7.56 97.98-6.71 98.6-6.52 99.19-6.33 99.75-6.09 100.3-5.91 100.74-5.72 101.15-5.5 101.88-5.05 102.33-4.58 102.33-3.83 102.33-2.65 101.08-1.91 99.16-1.91 99.04-1.91 98.95-1.94 98.88-1.94 98.74-1.96 98.62-1.98 98.45-2.01 96.68-2.29 95.67-3.33 95.67-4.56L95.67-5.57 92.26-4.54 92.29-4.11C92.52-1.82 94.91 0.31 99.21 0.31ZM122.67 0L122.67-6.38 129.52 0 135.07 0 129.02-9 134.69-16.16 126.11-16.16 122.67-10.39 122.67-16.16 118.08-16.16 118.08 0ZM141.75-16.16L137.19-16.16 137.19 0 141.75 0ZM151.53 0.31C156.11 0.31 159.3-1.87 159.3-4.61 159.3-7.49 156.54-8.55 154.18-9.31 153.61-9.52 153.04-9.68 152.5-9.87 151.44-10.28 150.09-10.79 150.09-12.14 150.09-13.42 151.11-14.2 153.04-14.2 154.51-14.2 155.5-13.44 155.62-12.33L155.73-11.36 158.59-12.31 158.5-12.73C158.05-15.05 155.47-16.37 151.79-16.37 148.72-16.37 144.96-15.09 144.96-11.46 144.96-8.69 147.87-7.56 150.3-6.71 150.92-6.52 151.51-6.33 152.07-6.09 152.62-5.91 153.07-5.72 153.47-5.5 154.2-5.05 154.65-4.58 154.65-3.83 154.65-2.65 153.4-1.91 151.48-1.91 151.36-1.91 151.27-1.94 151.2-1.94 151.06-1.96 150.94-1.98 150.77-2.01 149-2.29 147.99-3.33 147.99-4.56L147.99-5.57 144.59-4.54 144.61-4.11C144.85-1.82 147.23 0.31 151.53 0.31ZM167.12-16.16L162.56-16.16 162.56 0 167.12 0ZM175.77 0L180.42 0 187.1-16.16 183.68-16.16 178.79-4.3 173.88-16.16 169.1-16.16ZM189.09-16.16L189.09-5.2C189.09-2.31 191.21 0.31 196.79 0.31 202.36 0.31 204.51-2.36 204.51-5.2L204.51-16.16 199.95-16.16 199.95-4.09C199.95-2.95 198.44-1.82 196.79-1.82 195.18-1.82 193.67-2.95 193.67-4.09L193.67-16.16ZM220.72 0L220.72-2.17 212.47-2.17 212.47-16.16 207.91-16.16 207.91 0ZM228.3-16.16L223.74-16.16 223.74 0 228.3 0Z" transform="translate(-1.1299999952316284, 16.3700008392334)"></path></g><!----><!----><!----><!----><!----><!----><!----></g></g><!----></g><defs v-gra="od"></defs></svg>