<svg xmlns="http://www.w3.org/2000/svg" x="0" y="0" filtersec="colorsb6980880127" class="image-svg-svg primary" style="overflow: visible;"><svg xmlns="http://www.w3.org/2000/svg" viewBox="0.033293042331933975 -0.03216155618429184 156.51116943359375 156.67233276367188"><path d="M71.61 57.07c-.12-2.12-.3-4-.3-5.78V2.01c0-1.5.61-1.91 1.9-1.95A91.29 91.29 0 0 1 91 1a78.21 78.21 0 0 1 65 86.39c-.42 3.49-1.14 6.91-1.85 10.34-.23 1.12-.7 1.27-1.66.69-2.52-1.5-5.08-2.93-7.63-4.39-.76-.44-1.25-.84-1-2a65.32 65.32 0 0 0 1.42-14.83 67.21 67.21 0 0 0-46.41-62.67 72.39 72.39 0 0 0-14.43-3c-1.16-.13-1.75.16-1.74 1.5v16c0 .46-.15 1.05.39 1.27s.85-.3 1.18-.6c2-1.81 3.9-3.61 5.8-5.46a1.86 1.86 0 0 1 2-.49 56.59 56.59 0 0 1 28.11 17.1 55.14 55.14 0 0 1 11.07 18.7 56.27 56.27 0 0 1 3.24 20c0 2.27-.34 4.53-.55 6.79-.1 1-.5 1.35-1.51.75-2.8-1.68-5.64-3.29-8.47-4.92a1.46 1.46 0 0 1-.84-1.5 42.51 42.51 0 0 0-2.79-18A44.18 44.18 0 0 0 109.65 46a46.18 46.18 0 0 0-14.27-9.39 2 2 0 0 0-2.51.48c-6.71 6.41-13.49 12.77-20.24 19.15-.24.23-.51.42-1.02.83z" fill="#8ec640"></path><path d="M100.27 83.35c5.77 3.31 11.4 6.53 17 9.77Q132.66 102 148 110.87c1 .57 1.06 1 .52 2a92.11 92.11 0 0 1-11.11 16.62 78 78 0 0 1-47.64 26.22 76 76 0 0 1-16.3.8A79 79 0 0 1 40 146.64a85.64 85.64 0 0 1-16.62-12.32c-.81-.75-.86-1.18.2-1.76 2.7-1.47 5.38-3 8-4.61 1.18-.72 1.68.24 2.28.76a67.35 67.35 0 0 0 36.28 16.23 64.85 64.85 0 0 0 21.22-.8 66.86 66.86 0 0 0 32.15-16.33 77.43 77.43 0 0 0 9.5-10.73c.78-1 .74-1.59-.49-2.27-4.63-2.58-9.19-5.29-13.79-7.93-.43-.25-.91-.76-1.39-.36s-.11 1 0 1.47c.63 2.58 1.23 5.17 1.9 7.73.24.92-.27 1.42-.8 2a55.88 55.88 0 0 1-16.5 11.66A58.21 58.21 0 0 1 86.33 134a53.57 53.57 0 0 1-14.58.24A55.84 55.84 0 0 1 44 123.09c-.27-.2-.51-.42-.78-.62-.69-.5-.71-.85.11-1.3 2.85-1.59 5.69-3.21 8.49-4.89a1.65 1.65 0 0 1 2 0 43.64 43.64 0 0 0 16.56 6.45 45 45 0 0 0 35.17-8.59 2.48 2.48 0 0 0 1-3c-1.71-6.9-3.3-13.82-4.94-20.74-.46-1.93-.95-3.87-1.43-5.8a2 2 0 0 1 .09-1.25z" fill="#47b3e3"></path><path d="M58.27 31.88v4.41a2.06 2.06 0 0 1-1.27 2.1 45.36 45.36 0 0 0-24 42.32c.06 1.23.33 2.45.35 3.68s.83 1.76 1.91 2.08q5.85 1.71 11.74 3.46 7 2.07 14 4.16c.42.13 1 .17 1.08.73s-.49.65-.85.86l-20.66 12q-12.49 7.23-25 14.42c-1.66 1-1.69.91-2.76-.75a78 78 0 0 1-8.69-17.85 80 80 0 0 1-4-21.43A83.21 83.21 0 0 1 .7 67.76a75.73 75.73 0 0 1 8.37-26.11 77.6 77.6 0 0 1 41.7-36.58c1.91-.7 3.84-1.36 5.79-1.95 1.37-.43 1.7-.14 1.71 1.29v8.41a1.49 1.49 0 0 1-1.16 1.66 70.11 70.11 0 0 0-17.36 8.71 67.12 67.12 0 0 0-22.59 27.05 67 67 0 0 0 .07 56.32c.48 1 .92 1.27 1.93.68 4.82-2.83 9.67-5.61 14.5-8.42.36-.2.92-.31.82-.85s-.6-.4-.95-.5c-2.63-.8-5.26-1.6-7.9-2.35a2 2 0 0 1-1.57-1.6A56.4 56.4 0 0 1 40.3 36.67a54.26 54.26 0 0 1 16.39-10.33c1.32-.53 1.56-.36 1.57 1.12s.01 2.94.01 4.42z" fill="#fdde19"></path></svg></svg>