<svg data-v-70b83f88="" version="1.0" xmlns="http://www.w3.org/2000/svg" xmlns:xlink="http://www.w3.org/1999/xlink" viewBox="0 0 340.000000 250.000000" preserveAspectRatio="xMidYMid meet" color-interpolation-filters="sRGB" style="margin: auto;"><rect data-v-70b83f88="" x="0" y="0" width="100%" height="100%" fill="#fff" fill-opacity="1" class="background"></rect><rect data-v-70b83f88="" x="0" y="0" width="100%" height="100%" fill="url(#watermark)" fill-opacity="1" class="watermarklayer"></rect><g data-v-70b83f88="" fill="#1A1A1A" class="icon-text-wrapper icon-svg-group iconsvg" transform="translate(81.36499786376953,65.9443359375)"><g class="iconsvg-imagesvg" transform="translate(58.635000228881836,0)"><g><rect fill="#1A1A1A" fill-opacity="0" stroke-width="2" x="0" y="0" width="60" height="83.78133072680305" class="image-rect"></rect><svg x="0" y="0" width="60" height="83.78133072680305" filtersec="colorsb9081640191" class="image-svg-svg primary" style="overflow: visible;"><svg xmlns="http://www.w3.org/2000/svg" viewBox="-4.76837158203125e-7 0 52.100006103515625 72.75"><title>q8</title><g data-name="图层 2"><g data-name="Layer 1"><path d="M49.52 18.29C48.54 7.63 37.31 2.38 26 2.38c-11.74.1-23.52 5.35-23.52 17.43v25.65h.83a52.85 52.85 0 0 0 46.21-27.17z" fill="#ed1c24"></path><path d="M3.31 50.38h-.83v1.82c0 11.39 11.68 17.53 23.52 17.53a32.39 32.39 0 0 0 17.23-5L37.14 57 39 55.66l5.84 7.63c3.76-3.07 4.75-7.33 4.75-11.09v-25A57.68 57.68 0 0 1 3.31 50.38z" fill="#f15a24"></path><path d="M52.1 23.53c-.78 1.24-1.6 2.45-2.48 3.62v25c0 3.76-1 8-4.75 11.09L39 55.66 37.14 57l6.14 7.72a32.39 32.39 0 0 1-17.23 5c-11.88 0-23.57-6.14-23.57-17.53v-1.83c-.83 0-1.66 0-2.48-.08v1.92c0 13.17 13 19.9 26 19.9a33.55 33.55 0 0 0 18.62-5.35l5.15 6 1.88-1.29-5.25-6.24c3.6-3.61 5.7-6.78 5.7-13.02zM26 2.38c11.26 0 22.49 5.26 23.48 15.91q1-1.76 1.82-3.6C48.43 4.93 37.21 0 26 0 13 0 0 6.64 0 19.81v25.56c.82.05 1.65.08 2.48.09V19.81C2.48 7.73 14.26 2.48 26 2.38z" fill="#1a1a1a"></path><path d="M49.52 18.29A52.85 52.85 0 0 1 3.31 45.48h-.83v4.9h.83a57.68 57.68 0 0 0 46.31-23.23v-7.34c0-.52-.05-1.02-.1-1.52zM2.48 45.46c-.83 0-1.66 0-2.48-.09v4.91c.82 0 1.65.07 2.48.08z" fill="#fff"></path></g></g></svg></svg><!----></g></g><g transform="translate(0,90.78132629394531)"><g data-gra="path-name" fill-rule="" class="tp-name iconsvg-namesvg"><g transform="scale(1)"><g><path d="M19.14 4.05C18.76 4.05 18.33 3.97 17.81 3.81 15.95 3.24 14.11 2.3 12.38 1.51 11.3 1 10.06 0.46 8.89 0.16 9.14 0.19 9.41 0.22 9.68 0.22 12.3 0.22 14.33-0.76 15.71-2.19 17.33-3.87 18.27-6.41 18.27-9.76 18.27-13.11 17.33-15.65 15.71-17.33 14.33-18.76 12.3-19.73 9.68-19.73 7.06-19.73 5.03-18.76 3.65-17.33 2.03-15.65 1.08-13.11 1.08-9.76 1.08-8.3 1.24-7.03 1.59-5.89 2.51-2.87 4.49-0.7 7.65 0 6.57 0.03 5.84 0.51 5.35 1.14 5.03 1.54 4.7 2.11 4.65 2.7L5.05 2.84C5.24 2.38 5.62 2.16 6.16 2.16 6.62 2.16 7.16 2.3 7.78 2.51 10.7 3.57 13.35 5.35 16.3 6.41 16.95 6.62 17.49 6.76 17.98 6.76 18.54 6.76 19.03 6.68 19.44 6.46 20.62 5.87 21.3 4.6 21.44 2.97L21.03 2.89C20.92 3.7 20.11 4.05 19.14 4.05ZM9.68-18.68C10.33-18.68 10.81-18.49 11.27-18.16 12.03-17.6 12.54-16.76 12.92-15.65 13.46-14.03 13.68-12.11 13.68-9.76 13.68-8.41 13.6-7.24 13.46-6.3 13.22-4.7 12.87-3.32 12.14-2.38 11.57-1.62 10.87-1.03 9.68-1.03 9.03-1.03 8.54-1.19 8.08-1.49 7.33-2 6.81-2.84 6.43-3.92 5.89-5.51 5.68-7.43 5.68-9.76 5.68-11.11 5.76-12.25 5.89-13.22 6.14-14.84 6.49-16.27 7.22-17.25 7.78-18.03 8.46-18.68 9.68-18.68ZM30.19-13.7C28.52-13.7 27.49-12.7 26.79-11.73L27.11-11.46C27.27-11.65 27.57-12 27.92-12 28.38-12 28.46-11.62 28.46-11.19L28.46-3.49C28.25-3.22 27.9-2.81 27.57-2.54 27.22-2.24 26.71-1.89 26.11-1.89 25.52-1.89 25.19-2.41 25.19-2.97L25.19-11.79C25.19-13.08 24.19-13.7 22.87-13.7 21.19-13.7 20.17-12.7 19.46-11.73L19.79-11.46C19.95-11.65 20.25-12 20.6-12 21.06-12 21.14-11.62 21.14-11.19L21.14-3.03C21.14-1.14 22.14 0.22 24.06 0.22 24.68 0.22 25.19 0.03 25.65-0.19 26.76-0.7 27.65-1.43 28.46-2.3L28.46-1.7C28.46-0.41 29.46 0.22 30.79 0.22 32.49 0.22 33.49-0.78 34.19-1.76L33.87-2.03C33.68-1.81 33.41-1.49 33.06-1.49 32.6-1.49 32.52-1.87 32.52-2.3L32.52-11.79C32.52-13.08 31.52-13.7 30.19-13.7ZM46.71-2.62L46.39-2.95C45.63-2.3 44.84-1.59 43.49-1.59 42.06-1.59 41.11-2.35 40.47-3.19 39.92-3.89 39.38-4.89 39.38-6.05L44.6-9.14C45.25-9.54 45.9-10.14 45.9-11.11 45.9-11.46 45.82-11.79 45.66-12.11 45.09-13.22 43.74-13.7 42.03-13.7 41.55-13.7 41.03-13.62 40.49-13.49 39.3-13.19 38.3-12.6 37.47-11.87 36.11-10.7 35.14-8.95 35.14-6.46 35.14-4.24 35.9-2.59 37.01-1.49 37.98-0.54 39.38 0.19 41.17 0.19 43.87 0.19 45.57-1.11 46.71-2.62ZM42.63-10.03C42.63-9.3 42.47-9 42.03-8.73L39.25-7.14C39.25-7.78 39.28-8.54 39.36-9.16 39.52-10.49 39.79-12.35 41.25-12.35 41.49-12.35 41.68-12.27 41.87-12.11 42.33-11.68 42.63-10.89 42.63-10.03ZM58.93-2.62L58.6-2.95C57.85-2.3 57.06-1.59 55.71-1.59 54.28-1.59 53.33-2.35 52.68-3.19 52.14-3.89 51.6-4.89 51.6-6.05L56.82-9.14C57.47-9.54 58.12-10.14 58.12-11.11 58.12-11.46 58.04-11.79 57.87-12.11 57.31-13.22 55.95-13.7 54.25-13.7 53.76-13.7 53.25-13.62 52.71-13.49 51.52-13.19 50.52-12.6 49.68-11.87 48.33-10.7 47.36-8.95 47.36-6.46 47.36-4.24 48.12-2.59 49.22-1.49 50.2-0.54 51.6 0.19 53.39 0.19 56.09 0.19 57.79-1.11 58.93-2.62ZM54.85-10.03C54.85-9.3 54.68-9 54.25-8.73L51.47-7.14C51.47-7.78 51.49-8.54 51.58-9.16 51.74-10.49 52.01-12.35 53.47-12.35 53.71-12.35 53.9-12.27 54.09-12.11 54.55-11.68 54.85-10.89 54.85-10.03ZM62.55-13.7C61.01-13.7 59.9-13.06 59.06-12.35L59.33-12.03C59.55-12.19 59.71-12.33 60.06-12.33 60.6-12.33 60.85-11.92 60.85-11.38L60.85-1.19C60.85-0.16 61.77 0.22 62.87 0.22 64.04 0.22 64.9-0.11 64.9-1.19L64.9-10C64.98-10.08 65.04-10.22 65.14-10.41 65.44-10.92 65.93-11.6 66.71-11.6 67.33-11.6 67.66-11.27 67.9-10.76 68.06-10.41 68.2-9.92 68.31-9.24 68.42-8.57 68.44-7.68 68.44-6.57 68.44-4.7 68.39-3.14 68.15-1.68 67.88-0.05 67.44 1.3 65.96 1.65L66.09 2.19C67.01 2.16 67.85 1.92 68.6 1.54 69.71 0.97 70.61 0.11 71.25-1.05 72.06-2.51 72.5-4.41 72.5-6.78 72.5-8.11 72.42-9.19 72.25-10.08 71.88-12.14 71.06-13.7 68.77-13.7 68.17-13.7 67.66-13.52 67.23-13.3 66.25-12.81 65.5-12.06 64.9-11.19 64.9-12.79 64.23-13.7 62.55-13.7ZM80.88-11.84C80.88-11.76 80.82-11.7 80.74-11.65 80.42-11.49 79.98-11.3 79.98-10.79 79.98-10.16 80.47-9.87 81.15-9.87 81.88-9.87 82.39-10.41 82.39-11.11 82.39-11.54 82.31-11.92 82.12-12.25 81.53-13.3 80.12-13.7 78.44-13.7 77.93-13.7 77.44-13.62 76.96-13.49 75.58-13.11 74.44-12.16 74.44-10.41 74.44-9.92 74.55-9.43 74.77-8.97 75.69-7.08 77.55-5.84 78.61-4.11 78.82-3.76 78.93-3.41 78.93-3.08 78.93-1.87 78.01-1.27 76.77-1.27 76.53-1.27 76.25-1.32 76.01-1.41 75.34-1.65 74.74-2.08 74.31-2.57L73.85-2.24C74.01-2.03 74.2-1.76 74.47-1.49 75.34-0.59 76.63 0.22 78.42 0.22 79.12 0.22 79.74 0.14 80.31-0.05 81.88-0.57 83.01-1.73 83.01-3.78 83.01-5.05 82.36-6 81.71-6.76 80.69-7.95 79.26-8.95 78.34-10.19 78.09-10.54 77.96-10.87 77.96-11.22 77.96-12.14 78.55-12.65 79.47-12.65 80.12-12.65 80.88-12.43 80.88-11.84ZM91.39-15.41C91.39-15.73 91.47-16.06 91.64-16.33 91.96-16.92 92.47-17.35 93.1-17.71 93.8-18.08 94.72-18.52 95.69-18.52 96.31-18.52 96.58-18.27 96.58-17.62L96.58-1.73C96.58-0.32 97.31 0.22 98.74 0.22 100.15 0.22 100.91-0.32 100.91-1.73L100.91-9.87 101.42-10.62C102.18-8.73 102.85-7.08 103.5-5.62 104.58-3.14 105.69-0.86 107.02 1.03 107.56 1.78 108.1 2.41 108.64 2.87 109.58 3.68 110.61 4.22 112.21 4.22 113.85 4.22 115.29 3.73 116.31 3.14L116.04 2.62C115.77 2.78 115.42 2.97 114.99 2.97 114.29 2.97 113.58 2.62 112.88 1.92 112.18 1.22 111.4 0.14 110.56-1.32 109.72-2.78 108.8-4.57 107.8-6.78 106.8-9 105.64-11.62 104.31-14.62 104.8-15.25 105.29-15.84 105.77-16.41 106.58-17.35 107.45-18.25 108.39-18.87 108.77-19.11 109.12-19.25 109.42-19.25 110.21-19.25 110.75-18.76 111.18-18.44 111.31-18.33 111.42-18.3 111.53-18.3 112.04-18.3 112.18-18.95 112.18-19.46 112.18-20.19 111.61-20.57 110.45-20.57 109.31-20.57 108.53-20.3 107.75-19.84 106.61-19.17 105.77-18.25 104.85-17.14 103.5-15.52 102.26-13.81 100.91-11.87L100.91-17.89C100.91-18.38 100.83-18.73 100.53-19.03 100.02-19.54 99.15-19.73 97.96-19.73 95.01-19.73 92.58-18.84 91.12-17.3 90.45-16.57 89.88-15.6 89.88-14.27 89.88-13.89 89.93-13.52 90.07-13.16 90.42-12.16 91.28-11.46 92.61-11.46 93.91-11.46 94.91-12.22 94.91-13.52 94.91-14.22 94.55-14.87 93.88-14.87 93.74-14.87 93.64-14.84 93.53-14.76 93.18-14.52 92.88-14.16 92.28-14.16 91.66-14.16 91.39-14.73 91.39-15.41ZM111.99-12.35L112.26-12.03C112.48-12.19 112.64-12.33 112.99-12.33 113.53-12.33 113.77-11.92 113.77-11.38L113.77-1.19C113.77-0.16 114.61 0.22 115.75 0.22 116.88 0.22 117.83-0.14 117.83-1.19L117.83-11.52C117.83-11.7 117.8-11.95 117.77-12.19 117.64-13.27 116.77-13.7 115.48-13.7 113.94-13.7 112.83-13.06 111.99-12.35ZM113.37-16.71C113.37-16.46 113.42-16.22 113.53-16 113.85-15.35 114.58-14.89 115.53-14.89 115.83-14.89 116.1-14.92 116.37-15.03 117.04-15.27 117.67-15.81 117.67-16.71 117.67-16.95 117.61-17.19 117.5-17.41 117.18-18.06 116.48-18.54 115.53-18.54 115.23-18.54 114.94-18.52 114.67-18.41 113.99-18.16 113.37-17.6 113.37-16.71ZM126.78-11.84C126.78-11.76 126.72-11.7 126.64-11.65 126.32-11.49 125.88-11.3 125.88-10.79 125.88-10.16 126.37-9.87 127.05-9.87 127.78-9.87 128.29-10.41 128.29-11.11 128.29-11.54 128.21-11.92 128.02-12.25 127.42-13.3 126.02-13.7 124.34-13.7 123.83-13.7 123.34-13.62 122.86-13.49 121.48-13.11 120.34-12.16 120.34-10.41 120.34-9.92 120.45-9.43 120.67-8.97 121.59-7.08 123.45-5.84 124.51-4.11 124.72-3.76 124.83-3.41 124.83-3.08 124.83-1.87 123.91-1.27 122.67-1.27 122.42-1.27 122.15-1.32 121.91-1.41 121.23-1.65 120.64-2.08 120.21-2.57L119.75-2.24C119.91-2.03 120.1-1.76 120.37-1.49 121.23-0.59 122.53 0.22 124.32 0.22 125.02 0.22 125.64 0.14 126.21-0.05 127.78-0.57 128.91-1.73 128.91-3.78 128.91-5.05 128.26-6 127.61-6.76 126.59-7.95 125.15-8.95 124.23-10.19 123.99-10.54 123.86-10.87 123.86-11.22 123.86-12.14 124.45-12.65 125.37-12.65 126.02-12.65 126.78-12.43 126.78-11.84ZM129.72-12.35L129.99-12.03C130.21-12.19 130.37-12.33 130.72-12.33 131.26-12.33 131.51-11.92 131.51-11.38L131.51-1.19C131.51-0.16 132.34 0.22 133.48 0.22 134.61 0.22 135.56-0.14 135.56-1.19L135.56-11.52C135.56-11.7 135.53-11.95 135.51-12.19 135.37-13.27 134.51-13.7 133.21-13.7 131.67-13.7 130.56-13.06 129.72-12.35ZM131.1-16.71C131.1-16.46 131.15-16.22 131.26-16 131.59-15.35 132.32-14.89 133.26-14.89 133.56-14.89 133.83-14.92 134.1-15.03 134.78-15.27 135.4-15.81 135.4-16.71 135.4-16.95 135.34-17.19 135.24-17.41 134.91-18.06 134.21-18.54 133.26-18.54 132.97-18.54 132.67-18.52 132.4-18.41 131.72-18.16 131.1-17.6 131.1-16.71ZM136.64-12.35L136.91-12.03C137.13-12.19 137.29-12.33 137.64-12.33 138.26-12.33 138.43-11.81 138.51-11.22 138.7-9.89 138.89-8.3 139.13-6.89 139.59-4.35 140.35-1.76 142.02-0.43 142.56 0 143.18 0.22 143.91 0.22 144.54 0.22 145.1 0.03 145.62-0.32 146.7-1.08 147.45-2.38 148-3.78 148.75-5.76 149.29-8.24 149.29-10.84 149.29-11.65 149.27-12.6 149.08-13.19 148.94-13.6 148.78-13.7 148.24-13.7 147.72-13.7 146.89-13.49 146.89-12.97 146.89-12.84 146.91-12.68 147-12.49 147.37-11.62 147.64-10.68 147.64-9.33 147.64-8.43 147.59-7.62 147.45-6.84 147.24-5.49 146.86-4.22 146.18-3.43 145.89-3.11 145.59-2.95 145.29-2.95 144.72-2.95 144.26-3.62 143.86-5 143.45-6.38 143.08-8.38 142.75-11.06 142.53-12.57 141.91-13.7 140.13-13.7 138.59-13.7 137.48-13.06 136.64-12.35ZM160.97-13.7C159.29-13.7 158.27-12.7 157.56-11.73L157.89-11.46C158.05-11.65 158.35-12 158.7-12 159.16-12 159.24-11.62 159.24-11.19L159.24-3.49C159.02-3.22 158.67-2.81 158.35-2.54 158-2.24 157.48-1.89 156.89-1.89 156.29-1.89 155.97-2.41 155.97-2.97L155.97-11.79C155.97-13.08 154.97-13.7 153.64-13.7 151.97-13.7 150.94-12.7 150.24-11.73L150.56-11.46C150.73-11.65 151.02-12 151.37-12 151.83-12 151.91-11.62 151.91-11.19L151.91-3.03C151.91-1.14 152.91 0.22 154.83 0.22 155.46 0.22 155.97 0.03 156.43-0.19 157.54-0.7 158.43-1.43 159.24-2.3L159.24-1.7C159.24-0.41 160.24 0.22 161.56 0.22 163.27 0.22 164.27-0.78 164.97-1.76L164.65-2.03C164.46-1.81 164.19-1.49 163.84-1.49 163.38-1.49 163.29-1.87 163.29-2.3L163.29-11.79C163.29-13.08 162.29-13.7 160.97-13.7ZM165-19.19L165.27-18.87C165.48-19.03 165.65-19.17 166-19.17 166.54-19.17 166.78-18.76 166.78-18.22L166.78-1.19C166.78-0.14 167.62 0.22 168.76 0.22 169.89 0.22 170.84-0.11 170.84-1.16L170.84-18.35C170.84-18.54 170.81-18.79 170.78-19.03 170.65-20.08 169.78-20.54 168.48-20.54 166.94-20.54 165.84-19.89 165-19.19ZM172.51-12.35L172.78-12.03C173-12.19 173.16-12.33 173.51-12.33 174.05-12.33 174.3-11.92 174.3-11.38L174.3-1.19C174.3-0.16 175.13 0.22 176.27 0.22 177.41 0.22 178.35-0.14 178.35-1.19L178.35-11.52C178.35-11.7 178.32-11.95 178.3-12.19 178.16-13.27 177.3-13.7 176-13.7 174.46-13.7 173.35-13.06 172.51-12.35ZM173.89-16.71C173.89-16.46 173.95-16.22 174.05-16 174.38-15.35 175.11-14.89 176.05-14.89 176.35-14.89 176.62-14.92 176.89-15.03 177.57-15.27 178.19-15.81 178.19-16.71 178.19-16.95 178.13-17.19 178.03-17.41 177.7-18.06 177-18.54 176.05-18.54 175.76-18.54 175.46-18.52 175.19-18.41 174.51-18.16 173.89-17.6 173.89-16.71Z" transform="translate(-1.0800000429153442, 20.56999969482422)"></path></g><!----><!----><!----><!----><!----><!----><!----></g></g><!----></g></g><defs v-gra="od"></defs></svg>