<svg xmlns="http://www.w3.org/2000/svg" x="0" y="0" filtersec="colorsf2504375530" class="image-svg-svg primary" style="overflow: visible;"><svg xmlns="http://www.w3.org/2000/svg" viewBox="1.1239051818847656 1.249999761581421 97.80525207519531 97.50045013427734"><g fill="currentColor"><path d="M93.01 27.61c-4.23-8.33-10.45-15.17-17.66-19.77-3.36-1.74-6.72-2.74-9.7-2.74-2.24 0-4.35.5-6.22 1.49-4.85 2.49-7.83 7.83-8.46 15.17-.62 7.71 1.24 16.42 5.6 24.75 4.23 8.21 10.2 14.92 16.91 18.9 6.34 3.73 12.44 4.48 17.29 1.99 4.35-2.24 7.09-6.84 8.08-12.68.5-8.83-1.36-18.28-5.84-27.11z"></path><path d="M50.6 87.8c-10.94-4.73-20.15-13.56-26.12-25-5.84-11.44-7.71-24.13-5.22-35.82 2.36-10.57 8.21-19.03 16.42-24.25-2.74.87-5.35 1.87-7.96 3.23-24 12.33-33.58 42.05-21.14 66.17 12.44 24.13 42.03 33.58 66.16 21.14 2.49-1.24 4.85-2.86 7.09-4.48-4.1 1.62-8.58 2.49-13.06 2.49-5.35.01-10.69-1.11-16.17-3.48z"></path><path d="M84.3 72.63c-4.1 0-8.58-1.37-13.06-3.98-7.21-4.23-13.8-11.57-18.41-20.39C48.37 39.3 46.25 29.85 47 21.4c.75-8.71 4.48-15.3 10.57-18.41.99-.5 1.99-.87 2.98-1.12-2.11-.37-4.23-.62-6.22-.62-4.97 0-9.82 1.12-14.18 3.36-8.58 4.48-14.67 12.68-16.91 23.26-2.36 10.69-.62 22.51 4.85 33.08 5.47 10.69 14.05 18.9 24.13 23.26 9.95 4.23 20.15 4.1 28.73-.25 6.34-3.23 11.07-8.58 14.05-14.92-.87.62-1.74 1.24-2.74 1.74-2.48 1.23-5.09 1.85-7.96 1.85z"></path></g></svg></svg>