<svg data-v-70b83f88="" version="1.0" xmlns="http://www.w3.org/2000/svg" xmlns:xlink="http://www.w3.org/1999/xlink" viewBox="0 0 340.000000 250.000000" preserveAspectRatio="xMidYMid meet" color-interpolation-filters="sRGB" style="margin: auto;"><rect data-v-70b83f88="" x="0" y="0" width="100%" height="100%" fill="#fef5ef" fill-opacity="1" class="background"></rect><rect data-v-70b83f88="" x="0" y="0" width="100%" height="100%" fill="url(#watermark)" fill-opacity="1" class="watermarklayer"></rect><g data-v-70b83f88="" fill="#f75835" class="newinitialsvg-g newinitialsvg" transform="translate(81.25128865242004,89.49231338500977)"><g class="tp-name" transform="translate(0,0)"><g transform="translate(0, 0)"><g data-gra="path-name" fill="#f75835" transform="translate(0,3)"><g transform="scale(1)"><path d="M33.43-25.17L33.43-18.02Q33.43-7.44 27.71-2.64L27.71-2.64L33.60 2.64L28.18 7.62L20.33 0.44L18.08 0.59Q10.84 0.59 6.75-4.32Q2.67-9.23 2.64-17.90L2.64-17.90L2.64-24.58Q2.64-33.37 6.71-38.31Q10.78-43.24 18.02-43.24L18.02-43.24Q25.08-43.24 29.18-38.50Q33.28-33.75 33.43-25.17L33.43-25.17ZM24.79-17.81L24.79-24.64Q24.79-30.47 23.12-33.25Q21.45-36.04 18.02-36.04Q14.59-36.04 12.95-33.33Q11.31-30.62 11.25-25.08L11.25-25.08L11.25-18.02Q11.25-12.16 12.93-9.38Q14.62-6.59 18.08-6.59L18.08-6.59Q21.45-6.59 23.10-9.36Q24.76-12.13 24.79-17.81L24.79-17.81Z" transform="translate(-2.63671875, 43.2421875)"></path></g></g></g><g transform="translate(34.966796875, 0)"><g data-gra="path-name" fill="#f75835" transform="translate(0,3)"><g transform="scale(1)"><path d="M18.84 0L18.60-2.90Q16.03 0.59 11.69 0.59L11.69 0.59Q7.32 0.59 5.07-2.42Q2.81-5.42 2.81-11.16L2.81-11.16L2.81-31.70L11.10-31.70L11.10-10.96Q11.16-6.33 14.18-6.33L14.18-6.33Q17.02-6.33 18.28-8.79L18.28-8.79L18.28-31.70L26.63-31.70L26.63 0L18.84 0Z" transform="translate(-2.8125, 43.2421875)"></path></g></g></g><g transform="translate(62.78515625, 0)"><g data-gra="path-name" fill="#f75835" transform="translate(0,3)"><g transform="scale(1)"><path d="M15.82 0.59L15.82 0.59Q9.43 0.59 5.86-3.22Q2.29-7.03 2.29-14.12L2.29-14.12L2.29-16.64Q2.29-24.14 5.57-28.21Q8.85-32.29 14.97-32.29L14.97-32.29Q20.95-32.29 23.96-28.46Q26.98-24.64 27.04-17.14L27.04-17.14L27.04-13.07L10.55-13.07Q10.72-9.55 12.10-7.92Q13.48-6.30 16.35-6.30L16.35-6.30Q20.51-6.30 23.29-9.14L23.29-9.14L26.54-4.13Q25.02-2.02 22.12-0.72Q19.22 0.59 15.82 0.59ZM10.61-18.87L10.61-18.87L18.90-18.87L18.90-19.63Q18.84-22.47 17.96-23.94Q17.08-25.40 14.91-25.40Q12.74-25.40 11.76-23.85Q10.78-22.29 10.61-18.87Z" transform="translate(-2.28515625, 43.2421875)"></path></g></g></g><g transform="translate(91.541015625, 0)"><g data-gra="path-name" fill="#f75835" transform="translate(0,3)"><g transform="scale(1)"><path d="M15.82 0.59L15.82 0.59Q9.43 0.59 5.86-3.22Q2.29-7.03 2.29-14.12L2.29-14.12L2.29-16.64Q2.29-24.14 5.57-28.21Q8.85-32.29 14.97-32.29L14.97-32.29Q20.95-32.29 23.96-28.46Q26.98-24.64 27.04-17.14L27.04-17.14L27.04-13.07L10.55-13.07Q10.72-9.55 12.10-7.92Q13.48-6.30 16.35-6.30L16.35-6.30Q20.51-6.30 23.29-9.14L23.29-9.14L26.54-4.13Q25.02-2.02 22.12-0.72Q19.22 0.59 15.82 0.59ZM10.61-18.87L10.61-18.87L18.90-18.87L18.90-19.63Q18.84-22.47 17.96-23.94Q17.08-25.40 14.91-25.40Q12.74-25.40 11.76-23.85Q10.78-22.29 10.61-18.87Z" transform="translate(-2.28515625, 43.2421875)"></path></g></g></g><g transform="translate(120.296875, 0)"><g data-gra="path-name" fill="#f75835" transform="translate(0,3)"><g transform="scale(1)"><path d="M2.81-31.70L10.61-31.70L10.84-28.56Q13.65-32.29 18.19-32.29L18.19-32.29Q26.37-32.29 26.60-20.83L26.60-20.83L26.60 0L18.28 0L18.28-20.21Q18.28-22.91 17.48-24.13Q16.67-25.34 14.65-25.34L14.65-25.34Q12.39-25.34 11.13-23.03L11.13-23.03L11.13 0L2.81 0L2.81-31.70Z" transform="translate(-2.8125, 43.2421875)"></path></g></g></g><g class="tp-graph" transform="translate(148.0859375, 0)" mask="url(#c2f87112-4496-4432-8168-6b25ad8da953)"><rect data-gra="graph-name" fill="#f75835" x="0" y="0" width="29.408203125" height="56.859375"></rect><g data-gra="path-name" transform="translate(2.9991016387939453,3)"><g transform="scale(1)" fill="#f75835"><path d="M17.05-8.50L17.05-8.50Q17.05-9.55 16.04-10.44Q15.03-11.34 11.54-12.86L11.54-12.86Q6.42-14.94 4.50-17.17Q2.58-19.39 2.58-22.71L2.58-22.71Q2.58-26.87 5.58-29.58Q8.58-32.29 13.54-32.29L13.54-32.29Q18.75-32.29 21.88-29.59Q25.02-26.89 25.02-22.35L25.02-22.35L16.73-22.35Q16.73-26.22 13.51-26.22L13.51-26.22Q12.19-26.22 11.34-25.40Q10.49-24.58 10.49-23.12L10.49-23.12Q10.49-22.06 11.43-21.25Q12.36-20.45 15.85-18.96L15.85-18.96Q20.92-17.08 23.01-14.78Q25.11-12.48 25.11-8.82L25.11-8.82Q25.11-4.57 21.91-1.99Q18.72 0.59 13.54 0.59L13.54 0.59Q10.05 0.59 7.38-0.78Q4.72-2.14 3.21-4.57Q1.70-7.00 1.70-9.81L1.70-9.81L9.58-9.81Q9.64-7.65 10.59-6.56Q11.54-5.48 13.71-5.48L13.71-5.48Q17.05-5.48 17.05-8.50Z" transform="translate(-1.69921875, 43.2421875)"></path></g></g></g></g><g data-gra="path-slogan" fill-rule="" class="tp-slogan" fill="#f75835" transform="translate(68.59543037414551,62.859375)"><!----><!----><g transform="scale(1, 1)"><g transform="scale(1)"><path d="M1.08-7.87L1.08 0L2.08 0L2.08-2.50L3.43-4.09L5.78 0L6.90 0L4.06-4.87L6.52-7.87L5.39-7.87L2.11-3.92L2.08-3.92L2.08-7.87ZM8.03-7.87L8.03 0L9.02 0L9.02-7.87ZM11.21-1.72L10.61-1.02C10.95-0.66 11.36-0.38 11.83-0.17C12.30 0.04 12.82 0.14 13.37 0.14C13.78 0.14 14.16 0.09 14.48-0.03C14.81-0.15 15.09-0.31 15.32-0.51C15.56-0.71 15.73-0.95 15.86-1.22C15.98-1.50 16.04-1.79 16.04-2.10C16.04-2.39 16.00-2.64 15.92-2.86C15.83-3.08 15.72-3.27 15.58-3.44C15.43-3.60 15.26-3.75 15.06-3.87C14.86-3.99 14.65-4.10 14.42-4.20L13.31-4.68C13.15-4.74 12.99-4.81 12.84-4.89C12.69-4.97 12.55-5.05 12.42-5.15C12.29-5.25 12.19-5.37 12.11-5.50C12.04-5.63 12.00-5.80 12.00-5.99C12.00-6.35 12.13-6.63 12.40-6.83C12.67-7.04 13.02-7.14 13.46-7.14C13.83-7.14 14.16-7.07 14.45-6.94C14.75-6.81 15.01-6.63 15.25-6.40L15.79-7.04C15.51-7.33 15.17-7.57 14.77-7.75C14.37-7.93 13.94-8.02 13.46-8.02C13.10-8.02 12.77-7.96 12.47-7.86C12.17-7.76 11.91-7.61 11.69-7.42C11.47-7.23 11.30-7.01 11.18-6.76C11.05-6.50 10.99-6.22 10.99-5.93C10.99-5.64 11.04-5.39 11.14-5.17C11.23-4.95 11.36-4.76 11.51-4.60C11.66-4.44 11.83-4.30 12.02-4.19C12.22-4.08 12.40-3.98 12.59-3.90L13.72-3.41C13.90-3.32 14.07-3.24 14.23-3.16C14.39-3.08 14.53-2.99 14.65-2.89C14.76-2.79 14.85-2.67 14.92-2.53C14.99-2.39 15.02-2.22 15.02-2.02C15.02-1.63 14.88-1.32 14.59-1.09C14.30-0.85 13.90-0.73 13.38-0.73C12.97-0.73 12.58-0.82 12.20-1.00C11.82-1.18 11.49-1.42 11.21-1.72ZM17.59-7.87L17.59 0L18.59 0L18.59-7.87ZM19.67-7.87L22.19 0L23.35 0L25.85-7.87L24.83-7.87L23.57-3.62C23.43-3.15 23.31-2.72 23.20-2.32C23.08-1.92 22.96-1.48 22.81-1.02L22.76-1.02C22.61-1.48 22.48-1.92 22.37-2.32C22.27-2.72 22.14-3.15 22.00-3.62L20.74-7.87ZM26.77-7.87L26.77-3.25C26.77-2.62 26.84-2.09 26.99-1.66C27.13-1.22 27.33-0.87 27.58-0.61C27.83-0.34 28.13-0.15 28.48-0.03C28.83 0.09 29.20 0.14 29.60 0.14C30.00 0.14 30.38 0.09 30.72-0.03C31.06-0.15 31.36-0.34 31.61-0.61C31.87-0.87 32.06-1.22 32.21-1.66C32.35-2.09 32.42-2.62 32.42-3.25L32.42-7.87L31.46-7.87L31.46-3.23C31.46-2.76 31.42-2.36 31.32-2.04C31.22-1.72 31.09-1.46 30.92-1.27C30.76-1.08 30.56-0.94 30.34-0.86C30.11-0.77 29.87-0.73 29.60-0.73C29.35-0.73 29.11-0.77 28.88-0.86C28.66-0.94 28.47-1.08 28.30-1.27C28.14-1.46 28.01-1.72 27.91-2.04C27.82-2.36 27.77-2.76 27.77-3.23L27.77-7.87ZM34.55-7.87L34.55 0L38.99 0L38.99-0.85L35.54-0.85L35.54-7.87ZM40.38-7.87L40.38 0L41.38 0L41.38-7.87Z" transform="translate(-1.08, 8.016)"></path></g></g></g></g><mask id="c2f87112-4496-4432-8168-6b25ad8da953"><rect data-gra="graph-name" x="0" y="0" width="29.408203125" height="56.859375" fill="white"></rect><g data-gra="path-name" transform="translate(2.9991016387939453,3)" fill="black"><g transform="scale(1)"><path d="M17.05-8.50L17.05-8.50Q17.05-9.55 16.04-10.44Q15.03-11.34 11.54-12.86L11.54-12.86Q6.42-14.94 4.50-17.17Q2.58-19.39 2.58-22.71L2.58-22.71Q2.58-26.87 5.58-29.58Q8.58-32.29 13.54-32.29L13.54-32.29Q18.75-32.29 21.88-29.59Q25.02-26.89 25.02-22.35L25.02-22.35L16.73-22.35Q16.73-26.22 13.51-26.22L13.51-26.22Q12.19-26.22 11.34-25.40Q10.49-24.58 10.49-23.12L10.49-23.12Q10.49-22.06 11.43-21.25Q12.36-20.45 15.85-18.96L15.85-18.96Q20.92-17.08 23.01-14.78Q25.11-12.48 25.11-8.82L25.11-8.82Q25.11-4.57 21.91-1.99Q18.72 0.59 13.54 0.59L13.54 0.59Q10.05 0.59 7.38-0.78Q4.72-2.14 3.21-4.57Q1.70-7.00 1.70-9.81L1.70-9.81L9.58-9.81Q9.64-7.65 10.59-6.56Q11.54-5.48 13.71-5.48L13.71-5.48Q17.05-5.48 17.05-8.50Z" transform="translate(-1.69921875, 43.2421875)"></path></g></g></mask><defs v-gra="od"></defs></svg>