<svg data-v-70b83f88="" version="1.0" xmlns="http://www.w3.org/2000/svg" xmlns:xlink="http://www.w3.org/1999/xlink" viewBox="0 0 340.000000 250.000000" preserveAspectRatio="xMidYMid meet" color-interpolation-filters="sRGB" style="margin: auto;"><rect data-v-70b83f88="" x="0" y="0" width="100%" height="100%" fill="#000000" fill-opacity="1" class="background"></rect><rect data-v-70b83f88="" x="0" y="0" width="100%" height="100%" fill="url(#watermark)" fill-opacity="1" class="watermarklayer"></rect><g data-v-70b83f88="" fill="#d7dacb" class="newinitialsvg-g newinitialsvg" transform="translate(65.26849100589789,86.32303237915039)"><g class="tp-name" transform="translate(0,0)"><g transform="translate(0, 11.325701894544636)"><g data-gra="path-name" fill="#d7dacb" transform="translate(0,3)"><g transform="scale(1.02)"><path d="M41.11-3.57L37.22-6.82C39.95-9.97 41.68-14.02 41.68-18.48C41.68-28.93 32.86-37.38 22.00-37.38C11.13-37.38 2.31-28.93 2.31-18.48C2.31-8.03 11.13 0.42 22.00 0.42C26.20 0.42 30.08-0.79 33.28-2.99L37.64 0.68ZM22.00-6.61C15.33-6.61 9.97-11.92 9.97-18.48C9.97-24.99 15.33-30.34 22.00-30.34C28.61-30.34 33.97-24.99 33.97-18.48C33.97-15.96 32.97-13.65 31.39-11.86L28.56-14.28L25.09-10.03L27.51-7.98C25.93-7.09 23.99-6.61 22.00-6.61Z" transform="translate(-2.3099748915772658, 37.43209312942251)"></path></g></g></g><g transform="translate(41.16206345583201, 11.325701894544636)"><g data-gra="path-name" fill="#d7dacb" transform="translate(0,3)"><g transform="scale(1.02)"><path d="M36.28-37.01L28.93-37.01L28.93-16.80C28.93-9.87 25.83-6.51 19.84-6.51C13.96-6.51 10.87-9.82 10.87-16.80L10.87-37.01L3.52-37.01L3.52-14.86C3.52-6.30 9.13 0.42 19.84 0.42C30.61 0.42 36.28-6.35 36.28-14.86Z" transform="translate(-3.517461766719927, 37.43209312942251)"></path></g></g></g><g class="tp-graph" transform="translate(75.57690025108424, 0)" mask="url(#94654cf4-a5ca-41e9-a2c6-6b1452d26004)"><rect data-gra="graph-name" fill="#ed7b0e" x="0" y="3.4305381774902344" width="37.66130563798221" height="48.07804154302672"></rect><g data-gra="path-name" transform="translate(0.0014520743621986298,3)"><g transform="scale(1.3260000000000003)" fill="#ed7b0e"><path d="M11.13-6.51L11.13-14.80L27.88-14.80L27.88-21.10L11.13-21.10L11.13-30.50L31.13-30.50L31.13-37.01L3.83-37.01L3.83 0L32.23 0L32.23-6.51Z" transform="translate(-3.8324583428440997, 37.43209312942251)"></path></g></g></g><g transform="translate(114.23820588906645, 11.325701894544636)"><g data-gra="path-name" fill="#d7dacb" transform="translate(0,3)"><g transform="scale(1.02)"><path d="M11.13-6.51L11.13-14.80L27.88-14.80L27.88-21.10L11.13-21.10L11.13-30.50L31.13-30.50L31.13-37.01L3.83-37.01L3.83 0L32.23 0L32.23-6.51Z" transform="translate(-3.8324583428440997, 37.43209312942251)"></path></g></g></g><g transform="translate(144.20844099520662, 11.325701894544636)"><g data-gra="path-name" fill="#d7dacb" transform="translate(0,3)"><g transform="scale(1.02)"><path d="M29.56-37.01L29.56-13.70L7.51-37.01L3.83-37.01L3.83 0L11.34 0L11.34-23.31L33.44 0L37.12 0L37.12-37.01Z" transform="translate(-3.8324583428440997, 37.43209312942251)"></path></g></g></g><g transform="translate(179.15877196986995, 11.325701894544636)"><g data-gra="path-name" fill="#d7dacb" transform="translate(0,3)"><g transform="scale(1.02)"><path d="M18.37-21.94C12.81-23.20 10.18-24.31 10.18-26.93C10.18-29.24 12.28-30.92 16.06-30.92C19.53-30.92 24.10-29.82 27.35-28.45L30.40-34.44C26.77-36.01 21.84-37.43 16.22-37.43C7.77-37.43 2.57-32.81 2.57-26.30C2.57-19.00 8.71-16.85 16.33-15.12C21.73-13.86 24.20-12.76 24.20-10.24C24.20-7.51 21.79-6.04 17.74-6.04C13.12-6.04 9.71-6.51 4.83-8.87L2.10-3.04C7.98-0.10 11.18 0.47 17.48 0.47C26.09 0.47 31.81-3.73 31.81-10.87C31.81-17.64 26.35-20.16 18.37-21.94Z" transform="translate(-2.0999771741611504, 37.43209312942251)"></path></g></g></g></g><g data-gra="path-slogan" fill-rule="" class="tp-slogan" fill="#ED7B0E" transform="translate(5,61.20003890991211)"><rect x="0" height="1" y="5.864800453186035" width="54.37748718261719"></rect><rect height="1" y="5.864800453186035" width="54.37748718261719" x="145.08547973632812"></rect><g transform="translate(57.37748718261719,0)"><g transform="scale(1.5600000000000005)"><path d="M1.08 0L1.08-7.87L2.08-7.87L2.08-3.92L2.11-3.92L5.39-7.87L6.52-7.87L4.06-4.87L6.90 0L5.78 0L3.43-4.09L2.08-2.50L2.08 0L1.08 0ZM10.03 0L10.03-7.87L11.02-7.87L11.02 0L10.03 0ZM14.61-1.02L15.21-1.72Q15.63-1.27 16.20-1.00Q16.77-0.73 17.38-0.73L17.38-0.73Q18.16-0.73 18.59-1.09Q19.02-1.44 19.02-2.02L19.02-2.02Q19.02-2.32 18.92-2.53Q18.82-2.74 18.65-2.89Q18.47-3.04 18.23-3.16Q17.99-3.28 17.72-3.41L17.72-3.41L16.59-3.90Q16.31-4.02 16.02-4.19Q15.74-4.36 15.51-4.60Q15.28-4.84 15.14-5.17Q14.99-5.50 14.99-5.93L14.99-5.93Q14.99-6.37 15.18-6.76Q15.36-7.14 15.69-7.42Q16.02-7.70 16.47-7.86Q16.92-8.02 17.46-8.02L17.46-8.02Q18.17-8.02 18.77-7.75Q19.37-7.48 19.79-7.04L19.79-7.04L19.25-6.40Q18.89-6.74 18.45-6.94Q18.02-7.14 17.46-7.14L17.46-7.14Q16.80-7.14 16.40-6.83Q16-6.53 16-5.99L16-5.99Q16-5.70 16.11-5.50Q16.23-5.30 16.42-5.15Q16.61-5.00 16.84-4.89Q17.07-4.78 17.31-4.68L17.31-4.68L18.42-4.20Q18.76-4.06 19.06-3.87Q19.36-3.68 19.58-3.44Q19.79-3.19 19.92-2.86Q20.04-2.53 20.04-2.10L20.04-2.10Q20.04-1.63 19.86-1.22Q19.67-0.82 19.32-0.51Q18.98-0.20 18.48-0.03Q17.99 0.14 17.37 0.14L17.37 0.14Q16.54 0.14 15.83-0.17Q15.12-0.48 14.61-1.02L14.61-1.02ZM23.59 0L23.59-7.87L24.59-7.87L24.59 0L23.59 0ZM30.19 0L27.67-7.87L28.74-7.87L30.00-3.62Q30.21-2.92 30.37-2.32Q30.54-1.72 30.76-1.02L30.76-1.02L30.81-1.02Q31.03-1.72 31.20-2.32Q31.36-2.92 31.57-3.62L31.57-3.62L32.83-7.87L33.85-7.87L31.35 0L30.19 0ZM36.77-3.25L36.77-7.87L37.77-7.87L37.77-3.23Q37.77-2.52 37.91-2.04Q38.06-1.56 38.30-1.27Q38.55-0.98 38.88-0.86Q39.22-0.73 39.60-0.73L39.60-0.73Q40-0.73 40.34-0.86Q40.67-0.98 40.92-1.27Q41.18-1.56 41.32-2.04Q41.46-2.52 41.46-3.23L41.46-3.23L41.46-7.87L42.42-7.87L42.42-3.25Q42.42-2.30 42.21-1.66Q41.99-1.01 41.61-0.61Q41.24-0.20 40.72-0.03Q40.20 0.14 39.60 0.14L39.60 0.14Q39.00 0.14 38.48-0.03Q37.96-0.20 37.58-0.61Q37.20-1.01 36.99-1.66Q36.77-2.30 36.77-3.25L36.77-3.25ZM46.55 0L46.55-7.87L47.54-7.87L47.54-0.85L50.99-0.85L50.99 0L46.55 0ZM54.38 0L54.38-7.87L55.38-7.87L55.38 0L54.38 0Z" transform="translate(-1.08, 8.016)"></path></g></g></g></g><mask id="94654cf4-a5ca-41e9-a2c6-6b1452d26004"><rect data-gra="graph-name" x="0" y="3.4305381774902344" width="37.66130563798221" height="48.07804154302672" fill="white"></rect><g data-gra="path-name" transform="translate(0.0014520743621986298,3)" fill="black"><g transform="scale(1.3260000000000003)"><path d="M11.13-6.51L11.13-14.80L27.88-14.80L27.88-21.10L11.13-21.10L11.13-30.50L31.13-30.50L31.13-37.01L3.83-37.01L3.83 0L32.23 0L32.23-6.51Z" transform="translate(-3.8324583428440997, 37.43209312942251)"></path></g></g></mask><defs v-gra="od"></defs></svg>