<svg data-v-70b83f88="" version="1.0" xmlns="http://www.w3.org/2000/svg" xmlns:xlink="http://www.w3.org/1999/xlink" viewBox="0 0 340.000000 250.000000" preserveAspectRatio="xMidYMid meet" color-interpolation-filters="sRGB" style="margin: auto;"><rect data-v-70b83f88="" x="0" y="0" width="100%" height="100%" fill="#ffffff" fill-opacity="1" class="background"></rect><rect data-v-70b83f88="" x="0" y="0" width="100%" height="100%" fill="url(#watermark)" fill-opacity="1" class="watermarklayer"></rect><g data-v-70b83f88="" class="iconmbgsvg" transform="translate(81.3545760512352,68.6920051574707)"><g fill="#000000" hollow-target="textNormalTran"><g opacity="0.55" transform="translate(32.395423889160156,0)"><g><rect fill="#000000" fill-opacity="0" stroke-width="2" x="0" y="0" width="112.5" height="112.61599447430854" class="image-rect"></rect><svg x="0" y="0" width="112.5" height="112.61599447430854" filtersec="colorsb6980880127" class="image-svg-svg primary" style="overflow: visible;"><svg xmlns="http://www.w3.org/2000/svg" viewBox="0.033293042331933975 -0.03216155618429184 156.51116943359375 156.67233276367188"><path d="M71.61 57.07c-.12-2.12-.3-4-.3-5.78V2.01c0-1.5.61-1.91 1.9-1.95A91.29 91.29 0 0 1 91 1a78.21 78.21 0 0 1 65 86.39c-.42 3.49-1.14 6.91-1.85 10.34-.23 1.12-.7 1.27-1.66.69-2.52-1.5-5.08-2.93-7.63-4.39-.76-.44-1.25-.84-1-2a65.32 65.32 0 0 0 1.42-14.83 67.21 67.21 0 0 0-46.41-62.67 72.39 72.39 0 0 0-14.43-3c-1.16-.13-1.75.16-1.74 1.5v16c0 .46-.15 1.05.39 1.27s.85-.3 1.18-.6c2-1.81 3.9-3.61 5.8-5.46a1.86 1.86 0 0 1 2-.49 56.59 56.59 0 0 1 28.11 17.1 55.14 55.14 0 0 1 11.07 18.7 56.27 56.27 0 0 1 3.24 20c0 2.27-.34 4.53-.55 6.79-.1 1-.5 1.35-1.51.75-2.8-1.68-5.64-3.29-8.47-4.92a1.46 1.46 0 0 1-.84-1.5 42.51 42.51 0 0 0-2.79-18A44.18 44.18 0 0 0 109.65 46a46.18 46.18 0 0 0-14.27-9.39 2 2 0 0 0-2.51.48c-6.71 6.41-13.49 12.77-20.24 19.15-.24.23-.51.42-1.02.83z" fill="#8ec640"></path><path d="M100.27 83.35c5.77 3.31 11.4 6.53 17 9.77Q132.66 102 148 110.87c1 .57 1.06 1 .52 2a92.11 92.11 0 0 1-11.11 16.62 78 78 0 0 1-47.64 26.22 76 76 0 0 1-16.3.8A79 79 0 0 1 40 146.64a85.64 85.64 0 0 1-16.62-12.32c-.81-.75-.86-1.18.2-1.76 2.7-1.47 5.38-3 8-4.61 1.18-.72 1.68.24 2.28.76a67.35 67.35 0 0 0 36.28 16.23 64.85 64.85 0 0 0 21.22-.8 66.86 66.86 0 0 0 32.15-16.33 77.43 77.43 0 0 0 9.5-10.73c.78-1 .74-1.59-.49-2.27-4.63-2.58-9.19-5.29-13.79-7.93-.43-.25-.91-.76-1.39-.36s-.11 1 0 1.47c.63 2.58 1.23 5.17 1.9 7.73.24.92-.27 1.42-.8 2a55.88 55.88 0 0 1-16.5 11.66A58.21 58.21 0 0 1 86.33 134a53.57 53.57 0 0 1-14.58.24A55.84 55.84 0 0 1 44 123.09c-.27-.2-.51-.42-.78-.62-.69-.5-.71-.85.11-1.3 2.85-1.59 5.69-3.21 8.49-4.89a1.65 1.65 0 0 1 2 0 43.64 43.64 0 0 0 16.56 6.45 45 45 0 0 0 35.17-8.59 2.48 2.48 0 0 0 1-3c-1.71-6.9-3.3-13.82-4.94-20.74-.46-1.93-.95-3.87-1.43-5.8a2 2 0 0 1 .09-1.25z" fill="#47b3e3"></path><path d="M58.27 31.88v4.41a2.06 2.06 0 0 1-1.27 2.1 45.36 45.36 0 0 0-24 42.32c.06 1.23.33 2.45.35 3.68s.83 1.76 1.91 2.08q5.85 1.71 11.74 3.46 7 2.07 14 4.16c.42.13 1 .17 1.08.73s-.49.65-.85.86l-20.66 12q-12.49 7.23-25 14.42c-1.66 1-1.69.91-2.76-.75a78 78 0 0 1-8.69-17.85 80 80 0 0 1-4-21.43A83.21 83.21 0 0 1 .7 67.76a75.73 75.73 0 0 1 8.37-26.11 77.6 77.6 0 0 1 41.7-36.58c1.91-.7 3.84-1.36 5.79-1.95 1.37-.43 1.7-.14 1.71 1.29v8.41a1.49 1.49 0 0 1-1.16 1.66 70.11 70.11 0 0 0-17.36 8.71 67.12 67.12 0 0 0-22.59 27.05 67 67 0 0 0 .07 56.32c.48 1 .92 1.27 1.93.68 4.82-2.83 9.67-5.61 14.5-8.42.36-.2.92-.31.82-.85s-.6-.4-.95-.5c-2.63-.8-5.26-1.6-7.9-2.35a2 2 0 0 1-1.57-1.6A56.4 56.4 0 0 1 40.3 36.67a54.26 54.26 0 0 1 16.39-10.33c1.32-.53 1.56-.36 1.57 1.12s.01 2.94.01 4.42z" fill="#fdde19"></path></svg></svg><!----></g></g><g transform="translate(0,46.76799488067627)"><g data-gra="path-name" fill-rule="" class="tp-name"><g transform="scale(1)"><g><path d="M10.27-18.81C4.06-18.81 0.93-14.38 0.88-9.44 0.82-4.32 3.95 0.19 10.27 0.19 12.89 0.19 15.07-0.64 16.58-1.96L18.92 0.27 19.82-0.66 17.46-2.94C18.89-4.7 19.63-7.03 19.63-9.29 19.66-14.35 16.53-18.81 10.27-18.81ZM10.27-17.46C15.57-17.46 18.23-13.66 18.23-9.29 18.23-5.01 15.57-1.17 10.27-1.17 4.88-1.17 2.23-5.04 2.28-9.44 2.28-13.98 5.54-17.46 10.27-17.46ZM34.01 0L34.01-13.13 32.71-13.13 32.71-5.84C32.71-3.13 30.83-1.09 28.12-1.06 25.28-1.03 23.45-2.63 23.45-5.6L23.45-13.13 22.15-13.13 22.15-5.57C22.15-1.94 24.57 0.21 28.07 0.21 29.9 0.19 31.73-0.56 32.74-2.36L32.74 0ZM43.35 0.19C45.44 0.19 47.73-0.66 49-2.33L48.07-3.08C47.09-1.78 45.07-1.09 43.35-1.09 40.64-1.09 38.28-2.87 38.02-5.94L49.82-5.94C50.33-11.06 47.04-13.32 43.35-13.32 39.66-13.32 36.69-10.48 36.69-6.55 36.69-2.39 39.66 0.19 43.35 0.19ZM38.02-7.08C38.31-10.29 40.64-12.12 43.35-12.12 46.51-12.12 48.63-10.32 48.65-7.08ZM59.11 0.19C61.2 0.19 63.48-0.66 64.76-2.33L63.83-3.08C62.85-1.78 60.83-1.09 59.11-1.09 56.4-1.09 54.04-2.87 53.77-5.94L65.58-5.94C66.08-11.06 62.79-13.32 59.11-13.32 55.42-13.32 52.45-10.48 52.45-6.55 52.45-2.39 55.42 0.19 59.11 0.19ZM53.77-7.08C54.07-10.29 56.4-12.12 59.11-12.12 62.26-12.12 64.39-10.32 64.41-7.08ZM68.95-13.11L68.95 0 70.25 0 70.25-7.3C70.25-10 72.13-12.04 74.84-12.07 77.68-12.1 79.51-10.51 79.51-7.53L79.51 0 80.81 0 80.81-7.56C80.81-11.2 78.39-13.34 74.89-13.34 73.06-13.32 71.23-12.57 70.22-10.77L70.22-13.11ZM93.99-11.57C92.69-12.79 91.02-13.32 89.11-13.32 86.46-13.34 83.89-12.23 83.91-9.66 83.94-7.03 86.46-6.55 89.01-6.13 91.15-5.78 93.33-5.41 93.28-3.53 93.2-1.46 90.78-1.03 89.19-1.03 87.44-1.03 85.48-1.7 84.39-3.26L83.43-2.41C84.57-0.66 86.86 0.21 89.16 0.21 91.47 0.21 94.47-0.56 94.55-3.45 94.68-6.5 91.47-6.9 89.14-7.3 87.49-7.59 85.21-7.93 85.16-9.68 85.11-11.35 87.07-12.12 89.11-12.1 90.57-12.1 91.87-11.89 93.2-10.72ZM118.03-0.11L107.84-9.68 117.18-18.44 117.18-18.57 115.45-18.57 106.43-10.11 106.43-18.57 105-18.57 105-0.03 106.43-0.03 106.43-9.15 116.22 0 118.03 0ZM120.97-13.16L120.97 0 119.67 0 119.67-13.16ZM119.3-17.38C119.3-16 121.4-16 121.4-17.38 121.4-18.76 119.3-18.76 119.3-17.38ZM134.48-11.57C133.18-12.79 131.5-13.32 129.59-13.32 126.94-13.34 124.37-12.23 124.39-9.66 124.42-7.03 126.94-6.55 129.49-6.13 131.64-5.78 133.81-5.41 133.76-3.53 133.68-1.46 131.27-1.03 129.67-1.03 127.92-1.03 125.96-1.7 124.87-3.26L123.92-2.41C125.06-0.66 127.34 0.21 129.65 0.21 131.96 0.21 134.95-0.56 135.03-3.45 135.17-6.5 131.96-6.9 129.62-7.3 127.98-7.59 125.69-7.93 125.64-9.68 125.59-11.35 127.55-12.12 129.59-12.1 131.05-12.1 132.35-11.89 133.68-10.72ZM139.22-13.16L139.22 0 137.92 0 137.92-13.16ZM137.55-17.38C137.55-16 139.65-16 139.65-17.38 139.65-18.76 137.55-18.76 137.55-17.38ZM147.18 0L148.62 0 154.11-13.11 152.68-13.11 147.9-1.51 143.12-13.11 141.69-13.11ZM168.09 0L168.09-13.13 166.79-13.13 166.79-5.84C166.79-3.13 164.9-1.09 162.2-1.06 159.36-1.03 157.53-2.63 157.53-5.6L157.53-13.13 156.23-13.13 156.23-5.57C156.23-1.94 158.64 0.21 162.15 0.21 163.98 0.19 165.81-0.56 166.82-2.36L166.82 0ZM171.51-18.57L171.51 0 172.81 0 172.81-18.57ZM177.75-13.16L177.75 0 176.45 0 176.45-13.16ZM176.07-17.38C176.07-16 178.17-16 178.17-17.38 178.17-18.76 176.07-18.76 176.07-17.38Z" transform="translate(-0.8791536092758179, 18.809999465942383)"></path></g><!----><!----><!----><!----><!----><!----><!----></g></g><!----></g></g></g><defs v-gra="od"></defs></svg>