<svg xmlns="http://www.w3.org/2000/svg" viewBox="-4.76837158203125e-7 0 52.100006103515625 72.75"><title>q8</title><g data-name="图层 2"><g data-name="Layer 1"><path d="M49.52 18.29C48.54 7.63 37.31 2.38 26 2.38c-11.74.1-23.52 5.35-23.52 17.43v25.65h.83a52.85 52.85 0 0 0 46.21-27.17z" fill="#ed1c24"></path><path d="M3.31 50.38h-.83v1.82c0 11.39 11.68 17.53 23.52 17.53a32.39 32.39 0 0 0 17.23-5L37.14 57 39 55.66l5.84 7.63c3.76-3.07 4.75-7.33 4.75-11.09v-25A57.68 57.68 0 0 1 3.31 50.38z" fill="#f15a24"></path><path d="M52.1 23.53c-.78 1.24-1.6 2.45-2.48 3.62v25c0 3.76-1 8-4.75 11.09L39 55.66 37.14 57l6.14 7.72a32.39 32.39 0 0 1-17.23 5c-11.88 0-23.57-6.14-23.57-17.53v-1.83c-.83 0-1.66 0-2.48-.08v1.92c0 13.17 13 19.9 26 19.9a33.55 33.55 0 0 0 18.62-5.35l5.15 6 1.88-1.29-5.25-6.24c3.6-3.61 5.7-6.78 5.7-13.02zM26 2.38c11.26 0 22.49 5.26 23.48 15.91q1-1.76 1.82-3.6C48.43 4.93 37.21 0 26 0 13 0 0 6.64 0 19.81v25.56c.82.05 1.65.08 2.48.09V19.81C2.48 7.73 14.26 2.48 26 2.38z" fill="#1a1a1a"></path><path d="M49.52 18.29A52.85 52.85 0 0 1 3.31 45.48h-.83v4.9h.83a57.68 57.68 0 0 0 46.31-23.23v-7.34c0-.52-.05-1.02-.1-1.52zM2.48 45.46c-.83 0-1.66 0-2.48-.09v4.91c.82 0 1.65.07 2.48.08z" fill="#fff"></path></g></g></svg>