<svg data-v-70b83f88="" version="1.0" xmlns="http://www.w3.org/2000/svg" xmlns:xlink="http://www.w3.org/1999/xlink" viewBox="0 0 340.000000 250.000000" preserveAspectRatio="xMidYMid meet" color-interpolation-filters="sRGB" style="margin: auto;"><rect data-v-70b83f88="" x="0" y="0" width="100%" height="100%" fill="#fff" fill-opacity="1" class="background"></rect><rect data-v-70b83f88="" x="0" y="0" width="100%" height="100%" fill="url(#watermark)" fill-opacity="1" class="watermarklayer"></rect><g data-v-70b83f88="" fill="#333" class="iconblsvg-g iconsvg" transform="translate(66.31369018554688,111.36530399329152)"><g class="tp-name"><g data-gra="path-name" transform="translate(0, 2.0781236056909123)"><g transform="scale(1)"><path d="M20.28-9.49L20.28-9.49Q20.28-8.26 20.02-7.14 19.77-6.01 19.3-5.02 18.82-4.03 18.12-3.19 17.43-2.34 16.54-1.69L16.54-1.69 21.34 3.55 17.73 3.55Q16.95 3.55 16.31 3.36 15.67 3.18 15.18 2.6L15.18 2.6 12.82-0.04Q12.25 0.08 11.66 0.14 11.06 0.21 10.44 0.21L10.44 0.21Q8.23 0.21 6.4-0.53 4.58-1.28 3.29-2.58 1.99-3.89 1.28-5.66 0.57-7.43 0.57-9.49L0.57-9.49Q0.57-11.54 1.28-13.31 1.99-15.08 3.29-16.39 4.58-17.69 6.4-18.43 8.23-19.17 10.44-19.17L10.44-19.17Q12.65-19.17 14.47-18.42 16.28-17.67 17.57-16.37 18.86-15.07 19.57-13.3 20.28-11.53 20.28-9.49ZM15.77-9.49L15.77-9.49Q15.77-10.89 15.41-12.02 15.05-13.15 14.36-13.93 13.68-14.71 12.69-15.12 11.7-15.54 10.44-15.54L10.44-15.54Q9.16-15.54 8.17-15.12 7.17-14.71 6.49-13.93 5.8-13.15 5.44-12.02 5.08-10.89 5.08-9.49L5.08-9.49Q5.08-8.07 5.44-6.94 5.8-5.82 6.49-5.04 7.17-4.26 8.17-3.85 9.16-3.44 10.44-3.44L10.44-3.44Q11.7-3.44 12.69-3.85 13.68-4.26 14.36-5.04 15.05-5.82 15.41-6.94 15.77-8.07 15.77-9.49ZM22.13-13.5L26.16-13.5 26.16-4.93Q26.16-3.93 26.62-3.38 27.07-2.84 27.96-2.84L27.96-2.84Q28.62-2.84 29.2-3.11 29.78-3.38 30.33-3.88L30.33-3.88 30.33-13.5 34.36-13.5 34.36 0 31.86 0Q31.11 0 30.87-0.68L30.87-0.68 30.62-1.46Q30.23-1.08 29.82-0.77 29.4-0.47 28.93-0.25 28.45-0.04 27.9 0.08 27.36 0.21 26.71 0.21L26.71 0.21Q25.6 0.21 24.75-0.18 23.9-0.56 23.31-1.25 22.72-1.94 22.43-2.88 22.13-3.81 22.13-4.93L22.13-4.93 22.13-13.5ZM43.26-13.7L43.26-13.7Q44.6-13.7 45.72-13.29 46.83-12.87 47.63-12.08 48.43-11.28 48.88-10.13 49.33-8.98 49.33-7.52L49.33-7.52Q49.33-7.07 49.29-6.78 49.25-6.49 49.15-6.33 49.04-6.16 48.87-6.09 48.69-6.03 48.42-6.03L48.42-6.03 40.63-6.03Q40.83-4.33 41.66-3.57 42.49-2.81 43.81-2.81L43.81-2.81Q44.51-2.81 45.02-2.98 45.53-3.15 45.92-3.36 46.32-3.57 46.65-3.74 46.98-3.9 47.35-3.9L47.35-3.9Q47.83-3.9 48.08-3.55L48.08-3.55 49.25-2.11Q48.62-1.39 47.9-0.94 47.18-0.49 46.42-0.24 45.66 0.01 44.9 0.11 44.13 0.21 43.44 0.21L43.44 0.21Q42.03 0.21 40.78-0.25 39.54-0.72 38.61-1.63 37.68-2.54 37.14-3.89 36.6-5.25 36.6-7.04L36.6-7.04Q36.6-8.39 37.06-9.61 37.52-10.82 38.39-11.73 39.25-12.64 40.48-13.17 41.71-13.7 43.26-13.7ZM43.34-10.92L43.34-10.92Q42.18-10.92 41.53-10.26 40.88-9.61 40.67-8.37L40.67-8.37 45.71-8.37Q45.71-8.85 45.59-9.31 45.46-9.76 45.18-10.12 44.9-10.48 44.45-10.7 43.99-10.92 43.34-10.92ZM57.42-13.7L57.42-13.7Q58.76-13.7 59.88-13.29 60.99-12.87 61.79-12.08 62.59-11.28 63.04-10.13 63.49-8.98 63.49-7.52L63.49-7.52Q63.49-7.07 63.45-6.78 63.41-6.49 63.31-6.33 63.2-6.16 63.03-6.09 62.85-6.03 62.58-6.03L62.58-6.03 54.79-6.03Q54.99-4.33 55.82-3.57 56.66-2.81 57.97-2.81L57.97-2.81Q58.67-2.81 59.18-2.98 59.69-3.15 60.08-3.36 60.48-3.57 60.81-3.74 61.15-3.9 61.51-3.9L61.51-3.9Q61.99-3.9 62.24-3.55L62.24-3.55 63.41-2.11Q62.79-1.39 62.06-0.94 61.34-0.49 60.58-0.24 59.82 0.01 59.06 0.11 58.3 0.21 57.61 0.21L57.61 0.21Q56.19 0.21 54.94-0.25 53.7-0.72 52.77-1.63 51.84-2.54 51.3-3.89 50.76-5.25 50.76-7.04L50.76-7.04Q50.76-8.39 51.22-9.61 51.68-10.82 52.55-11.73 53.41-12.64 54.64-13.17 55.87-13.7 57.42-13.7ZM57.5-10.92L57.5-10.92Q56.34-10.92 55.69-10.26 55.04-9.61 54.83-8.37L54.83-8.37 59.87-8.37Q59.87-8.85 59.75-9.31 59.62-9.76 59.34-10.12 59.06-10.48 58.61-10.7 58.15-10.92 57.5-10.92ZM69.84 0L65.8 0 65.8-13.5 68.3-13.5Q68.68-13.5 68.93-13.33 69.19-13.16 69.29-12.82L69.29-12.82 69.53-12.04Q69.92-12.4 70.33-12.72 70.75-13.03 71.23-13.24 71.7-13.46 72.25-13.58 72.81-13.7 73.46-13.7L73.46-13.7Q74.56-13.7 75.42-13.32 76.27-12.94 76.85-12.25 77.44-11.57 77.74-10.63 78.04-9.68 78.04-8.58L78.04-8.58 78.04 0 74 0 74-8.58Q74-9.57 73.55-10.12 73.09-10.67 72.21-10.67L72.21-10.67Q71.54-10.67 70.96-10.39 70.37-10.1 69.84-9.62L69.84-9.62 69.84 0ZM90.07-11.96L89.15-10.54Q89-10.3 88.82-10.19 88.65-10.09 88.37-10.09L88.37-10.09Q88.09-10.09 87.8-10.21 87.51-10.33 87.18-10.48 86.85-10.62 86.43-10.74 86.02-10.87 85.48-10.87L85.48-10.87Q84.72-10.87 84.31-10.57 83.9-10.28 83.9-9.76L83.9-9.76Q83.9-9.38 84.16-9.14 84.43-8.89 84.87-8.7 85.31-8.51 85.87-8.34 86.43-8.17 87.02-7.97 87.61-7.76 88.16-7.48 88.72-7.2 89.17-6.79 89.61-6.38 89.88-5.79 90.14-5.21 90.14-4.39L90.14-4.39Q90.14-3.38 89.78-2.54 89.41-1.69 88.69-1.08 87.97-0.47 86.91-0.13 85.85 0.21 84.47 0.21L84.47 0.21Q83.78 0.21 83.09 0.08 82.4-0.05 81.75-0.27 81.11-0.49 80.56-0.8 80.02-1.11 79.63-1.46L79.63-1.46 80.56-2.94Q80.73-3.2 80.97-3.35 81.2-3.5 81.58-3.5L81.58-3.5Q81.93-3.5 82.21-3.34 82.49-3.19 82.82-3.01 83.14-2.82 83.58-2.67 84.01-2.51 84.68-2.51L84.68-2.51Q85.15-2.51 85.47-2.61 85.8-2.71 85.99-2.88 86.19-3.05 86.28-3.25 86.37-3.46 86.37-3.68L86.37-3.68Q86.37-4.09 86.1-4.35 85.82-4.61 85.38-4.8 84.94-4.98 84.37-5.15 83.8-5.31 83.22-5.52 82.63-5.73 82.07-6.02 81.5-6.31 81.06-6.76 80.62-7.21 80.34-7.86 80.07-8.51 80.07-9.44L80.07-9.44Q80.07-10.3 80.4-11.07 80.73-11.84 81.4-12.43 82.06-13.02 83.06-13.36 84.07-13.7 85.41-13.7L85.41-13.7Q86.13-13.7 86.82-13.57 87.5-13.44 88.1-13.21 88.7-12.98 89.19-12.66 89.69-12.34 90.07-11.96L90.07-11.96Z" transform="translate(-0.5699999928474426, 19.559999465942383)"></path></g></g><g transform="translate(92.56999969482422, 0)"><g><g class="imagesvg"><g><rect fill="#333" fill-opacity="0" stroke-width="2" x="0" y="0" width="25.382622481210902" height="27.269391692408657" class="image-rect"></rect><svg x="0" y="0" width="25.382622481210902" height="27.269391692408657" filtersec="colorsb4751266516" class="image-svg-svg primary" style="overflow: visible;"><svg xmlns="http://www.w3.org/2000/svg" viewBox="-0.04370441287755966 0.004579527303576469 177.93359375 191.16014099121094"><path d="M96.87 135.25v53.43c0 2.44 0 2.44 2.5 2.44h13.9c2.53 0 2.54 0 2.54-2.53v-88.27-5.41c0-1.16.34-1.44 1.36-.69 2.13 1.55 4.32 3 6.47 4.58L176 136.23c.43.31.87.86 1.41.63s.29-1 .29-1.45v-19.32a2.89 2.89 0 0 0-1.4-2.68c-3-2-5.86-4.2-8.8-6.29q-38.43-27.41-76.88-54.84a2.47 2.47 0 0 0-3.44 0Q58.11 73.13 29 93.86c-9.1 6.49-18.18 13-27.31 19.46a3.21 3.21 0 0 0-1.53 3c.07 6.38 0 12.76 0 19.14 0 .49-.3 1.19.31 1.43s1-.34 1.41-.64l2.79-2q27.78-19.86 55.59-39.69c.45-.33.9-1.08 1.5-.76s.28 1.1.28 1.67v93.69c0 1.56.39 2.06 2 2 4.75-.11 9.51 0 14.26 0 2.69 0 2.69 0 2.69-2.62V89.21v-7.94A2.37 2.37 0 0 1 82.08 79c1.93-1.32 3.83-2.7 5.71-4.11a1.64 1.64 0 0 1 2.26 0c1.67 1.26 3.34 2.56 5.12 3.67A3.51 3.51 0 0 1 96.9 82c-.05 17.75-.03 35.5-.03 53.25z" fill="#00bfe9"></path><path d="M.14 76.43v24c0 .51-.28 1.18.27 1.49s1-.3 1.38-.59c5.3-3.75 10.56-7.54 15.88-11.26A2.87 2.87 0 0 0 19 87.35V63.16a2.19 2.19 0 0 1 1-2.23Q53.85 41.49 87.62 22a2.32 2.32 0 0 1 2.65 0q33.53 19.41 67.09 38.73a2.54 2.54 0 0 1 1.49 2.55V87.1a3.37 3.37 0 0 0 1.56 3.16c5.23 3.63 10.39 7.36 15.59 11 .43.3.82.93 1.38.68s.35-1.07.35-1.62V52.67a2.68 2.68 0 0 0-1.58-2.67Q133.22 25.28 90.36.43a2.73 2.73 0 0 0-3.14.15Q44.41 25.35 1.57 50a2.56 2.56 0 0 0-1.46 2.61c.05 7.94.03 15.88.03 23.82zM123.77 173.13V182c0 2.06.16 2.13 2 1.08l50.1-28.9c2.59-1.5 2.71-4.21.24-6-4.54-3.26-9.07-6.53-13.62-9.77-1.07-.75-2.33-2.43-3.21-2-1.13.6-.44 2.53-.38 3.86a3.12 3.12 0 0 1-1.9 3.23c-10.56 6-21 12.07-31.59 18.07a2.81 2.81 0 0 0-1.65 2.86c.07 2.92.01 5.81.01 8.7zM54 173.2c0-2.83-.12-5.66 0-8.48a3.25 3.25 0 0 0-2-3.38c-9.71-5.51-19.3-11.24-29.1-16.57-3.06-1.66-4.6-3.49-4-7 .09-.46.32-1.17-.3-1.46s-.87.32-1.24.58q-8.06 5.77-16.08 11.59a3.28 3.28 0 0 0 .4 5.52l10.14 5.85 40.25 23.21c1.74 1 1.87.93 1.88-1 .05-2.97.05-5.91.05-8.86z" fill="#243269"></path></svg></svg><!----></g></g></g></g><g data-gra="path-name-1" fill="#333" transform="translate(120.95262145996094, 2.0781236056909123)"><g transform="scale(1)"><path d="M5.96-18.96L5.96-11.28 6.66-11.28Q7.64-11.28 8.07-11.9L8.07-11.9 12.34-18.09Q12.69-18.6 13.14-18.78 13.59-18.96 14.24-18.96L14.24-18.96 18.07-18.96 12.44-11.3Q12.14-10.88 11.82-10.61 11.49-10.33 11.15-10.15L11.15-10.15Q11.65-9.97 12.06-9.65 12.47-9.33 12.81-8.8L12.81-8.8 18.53 0 14.6 0Q14.23 0 13.96-0.05 13.69-0.1 13.5-0.21 13.3-0.31 13.16-0.46 13.02-0.61 12.89-0.81L12.89-0.81 8.59-7.41Q8.36-7.77 8-7.92 7.64-8.07 7.03-8.07L7.03-8.07 5.96-8.07 5.96 0 1.56 0 1.56-18.96 5.96-18.96ZM20.28-13.5L24.31-13.5 24.31 0 20.28 0 20.28-13.5ZM24.78-17.19L24.78-17.19Q24.78-16.71 24.59-16.29 24.39-15.87 24.05-15.55 23.71-15.23 23.26-15.04 22.82-14.85 22.31-14.85L22.31-14.85Q21.81-14.85 21.38-15.04 20.95-15.23 20.62-15.55 20.29-15.87 20.1-16.29 19.91-16.71 19.91-17.19L19.91-17.19Q19.91-17.69 20.1-18.12 20.29-18.55 20.62-18.87 20.95-19.2 21.38-19.38 21.81-19.56 22.31-19.56L22.31-19.56Q22.82-19.56 23.26-19.38 23.71-19.2 24.05-18.87 24.39-18.55 24.59-18.12 24.78-17.69 24.78-17.19ZM36.73-11.96L35.82-10.54Q35.66-10.3 35.49-10.19 35.31-10.09 35.04-10.09L35.04-10.09Q34.75-10.09 34.46-10.21 34.18-10.33 33.85-10.48 33.51-10.62 33.1-10.74 32.68-10.87 32.15-10.87L32.15-10.87Q31.38-10.87 30.97-10.57 30.56-10.28 30.56-9.76L30.56-9.76Q30.56-9.38 30.83-9.14 31.09-8.89 31.54-8.7 31.98-8.51 32.54-8.34 33.1-8.17 33.68-7.97 34.27-7.76 34.83-7.48 35.39-7.2 35.83-6.79 36.27-6.38 36.54-5.79 36.81-5.21 36.81-4.39L36.81-4.39Q36.81-3.38 36.44-2.54 36.08-1.69 35.36-1.08 34.63-0.47 33.57-0.13 32.51 0.21 31.13 0.21L31.13 0.21Q30.44 0.21 29.75 0.08 29.06-0.05 28.42-0.27 27.77-0.49 27.23-0.8 26.68-1.11 26.29-1.46L26.29-1.46 27.23-2.94Q27.4-3.2 27.63-3.35 27.87-3.5 28.24-3.5L28.24-3.5Q28.59-3.5 28.87-3.34 29.15-3.19 29.48-3.01 29.8-2.82 30.24-2.67 30.68-2.51 31.34-2.51L31.34-2.51Q31.81-2.51 32.13-2.61 32.46-2.71 32.66-2.88 32.85-3.05 32.94-3.25 33.03-3.46 33.03-3.68L33.03-3.68Q33.03-4.09 32.76-4.35 32.49-4.61 32.04-4.8 31.6-4.98 31.03-5.15 30.47-5.31 29.88-5.52 29.3-5.73 28.73-6.02 28.16-6.31 27.72-6.76 27.28-7.21 27.01-7.86 26.73-8.51 26.73-9.44L26.73-9.44Q26.73-10.3 27.07-11.07 27.4-11.84 28.06-12.43 28.72-13.02 29.73-13.36 30.73-13.7 32.07-13.7L32.07-13.7Q32.8-13.7 33.48-13.57 34.16-13.44 34.76-13.21 35.36-12.98 35.86-12.66 36.35-12.34 36.73-11.96L36.73-11.96ZM39.15-13.5L43.18-13.5 43.18 0 39.15 0 39.15-13.5ZM43.65-17.19L43.65-17.19Q43.65-16.71 43.46-16.29 43.26-15.87 42.92-15.55 42.59-15.23 42.14-15.04 41.69-14.85 41.18-14.85L41.18-14.85Q40.69-14.85 40.26-15.04 39.83-15.23 39.49-15.55 39.16-15.87 38.97-16.29 38.79-16.71 38.79-17.19L38.79-17.19Q38.79-17.69 38.97-18.12 39.16-18.55 39.49-18.87 39.83-19.2 40.26-19.38 40.69-19.56 41.18-19.56L41.18-19.56Q41.69-19.56 42.14-19.38 42.59-19.2 42.92-18.87 43.26-18.55 43.46-18.12 43.65-17.69 43.65-17.19ZM59.14-13.5L53.91 0 50.24 0 45.01-13.5 48.36-13.5Q48.79-13.5 49.09-13.3 49.38-13.09 49.48-12.79L49.48-12.79 51.36-6.74Q51.58-6 51.78-5.3 51.98-4.59 52.13-3.89L52.13-3.89Q52.27-4.59 52.48-5.3 52.69-6 52.92-6.74L52.92-6.74 54.87-12.79Q54.98-13.09 55.26-13.3 55.55-13.5 55.94-13.5L55.94-13.5 59.14-13.5ZM60.57-13.5L64.61-13.5 64.61-4.93Q64.61-3.93 65.06-3.38 65.52-2.84 66.4-2.84L66.4-2.84Q67.07-2.84 67.65-3.11 68.23-3.38 68.77-3.88L68.77-3.88 68.77-13.5 72.81-13.5 72.81 0 70.31 0Q69.55 0 69.32-0.68L69.32-0.68 69.07-1.46Q68.68-1.08 68.26-0.77 67.85-0.47 67.37-0.25 66.9-0.04 66.35 0.08 65.8 0.21 65.15 0.21L65.15 0.21Q64.05 0.21 63.2-0.18 62.34-0.56 61.76-1.25 61.17-1.94 60.87-2.88 60.57-3.81 60.57-4.93L60.57-4.93 60.57-13.5ZM76.06-19.48L80.1-19.48 80.1 0 76.06 0 76.06-19.48ZM83.48-13.5L87.51-13.5 87.51 0 83.48 0 83.48-13.5ZM87.98-17.19L87.98-17.19Q87.98-16.71 87.79-16.29 87.59-15.87 87.25-15.55 86.92-15.23 86.47-15.04 86.02-14.85 85.51-14.85L85.51-14.85Q85.02-14.85 84.59-15.04 84.16-15.23 83.82-15.55 83.49-15.87 83.3-16.29 83.11-16.71 83.11-17.19L83.11-17.19Q83.11-17.69 83.3-18.12 83.49-18.55 83.82-18.87 84.16-19.2 84.59-19.38 85.02-19.56 85.51-19.56L85.51-19.56Q86.02-19.56 86.47-19.38 86.92-19.2 87.25-18.87 87.59-18.55 87.79-18.12 87.98-17.69 87.98-17.19Z" transform="translate(-1.559999942779541, 19.559999465942383)"></path></g></g></g><!----></g><defs v-gra="od"></defs></svg>