<svg data-v-70b83f88="" version="1.0" xmlns="http://www.w3.org/2000/svg" xmlns:xlink="http://www.w3.org/1999/xlink" viewBox="0 0 340.000000 250.000000" preserveAspectRatio="xMidYMid meet" color-interpolation-filters="sRGB" style="margin: auto;"><rect data-v-70b83f88="" x="0" y="0" width="100%" height="100%" fill="#96bf48" fill-opacity="1" class="background"></rect><rect data-v-70b83f88="" x="0" y="0" width="100%" height="100%" fill="url(#watermark)" fill-opacity="1" class="watermarklayer"></rect><g data-v-70b83f88="" fill="#feffff" class="bordersvg b-d1" transform="translate(34.720001220703125,90.98500061035156)"><rect fill-opacity="0" stroke="#feffff" stroke-width="2" x="8" y="8" width="262.55999755859375" height="60.029998779296875"></rect><rect fill-opacity="0" stroke="#feffff" stroke-width="2" x="0" y="0" width="262.55999755859375" height="60.029998779296875"></rect><g><g><rect data-gra="graph-name-bg" stroke-width="2" class="i-icon-bg" x="0" y="0" width="262.55999755859375" height="60.03000068664551" fill-opacity="0"></rect><!----><!----></g><g transform="translate(18,18)"><g data-gra="path-name" fill-rule="" class="tp-name"><g transform="scale(1)"><g><path d="M24.01 0.73L24.65 1.67Q22.21 3.99 19.57 3.99L19.57 3.99Q16.34 3.99 12.99 0.09L12.99 0.09Q12.66 0.12 11.99 0.12L11.99 0.12Q9.16 0.12 6.88-1.17 4.6-2.46 3.3-4.7 2.01-6.94 2.01-9.65L2.01-9.65Q2.01-12.78 3.68-15.49 5.36-18.2 8.14-19.81 10.92-21.42 14.09-21.42L14.09-21.42Q16.89-21.42 19.19-20.13 21.48-18.84 22.79-16.62 24.1-14.39 24.1-11.69L24.1-11.69Q24.1-8.95 22.81-6.51 21.51-4.08 19.29-2.39 17.07-0.7 14.39-0.12L14.39-0.12Q17.32 2.8 19.66 2.8L19.66 2.8Q21.7 2.8 24.01 0.73L24.01 0.73ZM3.29-9.71Q3.29-7.33 4.44-5.37 5.6-3.41 7.61-2.27 9.62-1.13 12.08-1.13L12.08-1.13Q14.85-1.13 17.33-2.57 19.81-4.02 21.32-6.44 22.82-8.86 22.82-11.62L22.82-11.62Q22.82-13.97 21.67-15.93 20.51-17.89 18.49-19.03 16.46-20.18 14.03-20.18L14.03-20.18Q11.2-20.18 8.73-18.75 6.27-17.32 4.78-14.91 3.29-12.51 3.29-9.71L3.29-9.71ZM32.65 0.06Q30.1 0.06 28.68-1.19 27.27-2.43 27.27-4.69L27.27-4.69Q27.27-5.48 27.45-6.33L27.45-6.33 29.34-15.85 30.58-15.85 28.73-6.45Q28.58-5.63 28.58-5.05L28.58-5.05Q28.58-3.23 29.72-2.21 30.86-1.19 32.93-1.19L32.93-1.19Q35.73-1.25 37.75-2.94 39.77-4.63 40.35-7.58L40.35-7.58 41.96-15.85 43.21-15.85 40.08 0 38.83 0 39.62-3.96Q38.5-2.04 36.7-1.02 34.9 0 32.65 0.06L32.65 0.06ZM61.53-7.58L47.59-7.58 47.59-7.18Q47.59-4.47 49.24-2.8 50.88-1.13 53.56-1.13L53.56-1.13Q55.17-1.13 56.57-1.66 57.97-2.19 59.01-3.2L59.01-3.2 59.68-2.31Q58.49-1.19 56.88-0.56 55.26 0.06 53.47 0.06L53.47 0.06Q51.37 0.06 49.76-0.85 48.14-1.77 47.24-3.41 46.35-5.05 46.35-7.15L46.35-7.15Q46.35-9.62 47.49-11.61 48.63-13.6 50.59-14.74 52.55-15.89 54.93-15.89L54.93-15.89Q56.97-15.89 58.49-15.02 60.01-14.15 60.82-12.58 61.62-11.02 61.62-8.95L61.62-8.95Q61.62-8.28 61.53-7.58L61.53-7.58ZM54.9-14.7Q52.16-14.7 50.2-13.04 48.23-11.38 47.72-8.7L47.72-8.7 60.5-8.7Q60.56-11.44 59.07-13.07 57.58-14.7 54.9-14.7L54.9-14.7ZM79.64-7.58L65.7-7.58 65.7-7.18Q65.7-4.47 67.34-2.8 68.99-1.13 71.67-1.13L71.67-1.13Q73.28-1.13 74.68-1.66 76.08-2.19 77.11-3.2L77.11-3.2 77.78-2.31Q76.6-1.19 74.98-0.56 73.37 0.06 71.57 0.06L71.57 0.06Q69.47 0.06 67.86-0.85 66.25-1.77 65.35-3.41 64.45-5.05 64.45-7.15L64.45-7.15Q64.45-9.62 65.59-11.61 66.74-13.6 68.7-14.74 70.66-15.89 73.04-15.89L73.04-15.89Q75.07-15.89 76.6-15.02 78.12-14.15 78.92-12.58 79.73-11.02 79.73-8.95L79.73-8.95Q79.73-8.28 79.64-7.58L79.64-7.58ZM73-14.7Q70.27-14.7 68.3-13.04 66.34-11.38 65.82-8.7L65.82-8.7 78.6-8.7Q78.66-11.44 77.17-13.07 75.68-14.7 73-14.7L73-14.7ZM93.27-15.92Q95.83-15.92 97.24-14.67 98.66-13.42 98.66-11.17L98.66-11.17Q98.66-10.41 98.48-9.53L98.48-9.53 96.59 0 95.34 0 97.2-9.4Q97.35-10.22 97.35-10.8L97.35-10.8Q97.35-12.63 96.21-13.65 95.07-14.67 93-14.67L93-14.67Q90.2-14.61 88.17-12.92 86.15-11.23 85.57-8.28L85.57-8.28 83.96 0 82.71 0 85.85-15.85 87.09-15.85 86.3-11.9Q87.43-13.82 89.22-14.84 91.02-15.85 93.27-15.92L93.27-15.92ZM107.15 0.27Q105.11 0.27 103.38-0.52 101.64-1.31 100.64-2.65L100.64-2.65 101.37-3.56Q102.31-2.34 103.86-1.64 105.41-0.94 107.18-0.94L107.18-0.94Q109.07-0.94 110.27-1.83 111.47-2.71 111.47-4.2L111.47-4.2Q111.47-4.99 110.98-5.57 110.5-6.15 109.77-6.54 109.04-6.94 107.76-7.49L107.76-7.49Q106.3-8.13 105.46-8.6 104.62-9.07 104.01-9.84 103.41-10.62 103.41-11.72L103.41-11.72Q103.41-13.69 104.9-14.87 106.39-16.04 108.67-16.04L108.67-16.04Q110.28-16.04 111.64-15.55 112.99-15.06 114-14.24L114-14.24 113.3-13.27Q112.38-14 111.17-14.42 109.95-14.85 108.58-14.85L108.58-14.85Q106.84-14.85 105.75-14.04 104.65-13.24 104.65-11.84L104.65-11.84Q104.65-11.08 105.14-10.51 105.63-9.95 106.34-9.57 107.06-9.19 108.31-8.67L108.31-8.67Q109.74-8.09 110.63-7.59 111.53-7.09 112.15-6.3 112.78-5.51 112.78-4.38L112.78-4.38Q112.78-2.28 111.18-1.02 109.58 0.24 107.15 0.27L107.15 0.27Z" transform="translate(-2.009999990463257, 24.040000915527344)"></path></g><!----><!----><!----><!----><!----><!----><g data-gra="path-name-1" fill="#feffff" transform="translate(114.98999786376953,0)"><g transform="scale(1)"><path d="M18.11-21.33L24.83-21.33 15.12-12.29 20.88 0 14.36 0 10.56-8.06 6.94-4.69 5.99 0 0.43 0 4.69-21.33 10.26-21.33 8.43-12.17 18.11-21.33ZM26.44-16.46L31.83-16.46 28.58 0 23.16 0 26.44-16.46ZM30.61-24.04Q31.71-24.04 32.35-23.39 32.99-22.73 32.99-21.67L32.99-21.67Q32.99-20.24 31.97-19.25 30.95-18.26 29.49-18.26L29.49-18.26Q28.42-18.26 27.78-18.91 27.14-19.57 27.14-20.63L27.14-20.63Q27.14-22.06 28.16-23.05 29.18-24.04 30.61-24.04L30.61-24.04ZM40.02 0.21Q37.64 0.21 35.44-0.62 33.23-1.46 31.71-2.92L31.71-2.92 33.96-6.15Q35.24-4.99 36.79-4.29 38.34-3.59 39.68-3.59L39.68-3.59Q40.53-3.59 41.01-3.91 41.48-4.23 41.48-4.81L41.48-4.81Q41.48-5.3 40.9-5.65 40.32-5.99 39.07-6.48L39.07-6.48Q37.61-7.06 36.64-7.58 35.67-8.09 34.97-9.02 34.27-9.95 34.27-11.29L34.27-11.29Q34.27-12.87 35.09-14.09 35.91-15.31 37.38-15.98 38.86-16.65 40.78-16.65L40.78-16.65Q42.82-16.65 44.84-15.93 46.86-15.22 48.48-13.97L48.48-13.97 46.1-10.74Q44.7-11.72 43.32-12.29 41.93-12.87 40.96-12.87L40.96-12.87Q40.29-12.87 39.83-12.55 39.38-12.23 39.38-11.75L39.38-11.75Q39.38-11.26 39.97-10.89 40.56-10.53 41.81-10.04L41.81-10.04Q43.3-9.43 44.29-8.9 45.28-8.37 46-7.44 46.71-6.51 46.71-5.14L46.71-5.14Q46.71-3.56 45.86-2.34 45.01-1.13 43.49-0.46 41.96 0.21 40.02 0.21L40.02 0.21ZM51.95-16.46L57.33-16.46 54.08 0 48.66 0 51.95-16.46ZM56.12-24.04Q57.21-24.04 57.85-23.39 58.49-22.73 58.49-21.67L58.49-21.67Q58.49-20.24 57.47-19.25 56.45-18.26 54.99-18.26L54.99-18.26Q53.92-18.26 53.29-18.91 52.65-19.57 52.65-20.63L52.65-20.63Q52.65-22.06 53.67-23.05 54.69-24.04 56.12-24.04L56.12-24.04ZM71.67-16.46L77.17-16.46 67.71 0 62.17 0 59.28-16.46 64.79-16.46 65.88-5.02 71.67-16.46ZM82.07 0.21Q79.49 0.21 77.97-1.26 76.44-2.74 76.44-5.14L76.44-5.14Q76.44-6.06 76.6-6.73L76.6-6.73 78.54-16.46 83.96-16.46 82.16-7.52Q82.07-7.12 82.07-6.73L82.07-6.73Q82.07-5.63 82.71-5.01 83.35-4.38 84.48-4.38L84.48-4.38Q85.85-4.38 86.93-5.42 88.01-6.45 88.34-8.09L88.34-8.09 90.02-16.46 95.43-16.46 92.18 0 86.76 0 87.19-2.19Q85.21 0.21 82.07 0.21L82.07 0.21ZM100.97-22.58L106.39-22.58 101.88 0 96.47 0 100.97-22.58ZM109.46-16.46L114.85-16.46 111.59 0 106.17 0 109.46-16.46ZM113.63-24.04Q114.73-24.04 115.37-23.39 116-22.73 116-21.67L116-21.67Q116-20.24 114.98-19.25 113.97-18.26 112.5-18.26L112.5-18.26Q111.44-18.26 110.8-18.91 110.16-19.57 110.16-20.63L110.16-20.63Q110.16-22.06 111.18-23.05 112.2-24.04 113.63-24.04L113.63-24.04Z" transform="translate(-0.4300000071525574, 24.040000915527344)"></path></g></g></g></g><!----></g></g></g><defs v-gra="od"></defs></svg>