<svg filter="url(#colors6700125776)" x="0" y="0" width="140" height="140" filtersec="colorsf1873772966" class="image-svg-svg primary" style="overflow: visible;"><svg fill="#000000" xmlns="http://www.w3.org/2000/svg" xmlns:xlink="http://www.w3.org/1999/xlink" version="1.1" x="0px" y="0px" viewBox="5 5 90 90" style="enable-background:new 0 0 100 100;" xml:space="preserve"><path d="M50,5C25.2,5,5,25.2,5,50s20.2,45,45,45s45-20.2,45-45S74.8,5,50,5z M87.7,34.4c0.7,1.6,1.3,3.3,1.7,5.1l-2,0.5  c-0.4-1.6-1-3.2-1.6-4.8L87.7,34.4z M82.4,25.2c1.1,1.4,2.1,2.9,3,4.4l-1.8,1c-0.8-1.5-1.8-2.9-2.8-4.2L82.4,25.2z M74.9,17.7  c1.4,1.1,2.8,2.3,4,3.5l-1.5,1.5c-1.2-1.2-2.5-2.3-3.8-3.3L74.9,17.7z M65.7,12.3c1.6,0.7,3.2,1.5,4.8,2.4l-1.1,1.8  c-1.5-0.8-3-1.6-4.5-2.3L65.7,12.3z M55.4,9.5c1.8,0.2,3.5,0.6,5.2,1l-0.5,2c-1.6-0.4-3.3-0.8-5-1L55.4,9.5z M10.6,39.4l2,0.5  c-0.4,1.6-0.8,3.3-1,5l-2.1-0.3C9.8,42.9,10.1,41.1,10.6,39.4z M9.2,50l2.1,0v0c0,1.7,0.1,3.4,0.3,5l-2.1,0.3  C9.3,53.6,9.2,51.8,9.2,50z M12.3,65.6c-0.7-1.6-1.3-3.3-1.7-5.1l2-0.5c0.4,1.6,1,3.2,1.6,4.8L12.3,65.6z M12.3,34.4  c0.7-1.6,1.5-3.2,2.4-4.8l1.8,1c-0.8,1.5-1.6,3-2.2,4.5L12.3,34.4z M17.6,74.8c-1.1-1.4-2.1-2.9-3-4.4l1.8-1  c0.8,1.5,1.8,2.9,2.8,4.2L17.6,74.8z M17.6,25.1c1.1-1.4,2.3-2.8,3.5-4l1.5,1.5c-1.2,1.2-2.3,2.5-3.3,3.8L17.6,25.1z M25.1,82.4  c-1.4-1.1-2.8-2.3-4-3.5l1.5-1.5c1.2,1.2,2.5,2.3,3.8,3.3L25.1,82.4z M25.2,17.6c1.4-1.1,2.9-2.1,4.4-3l1,1.8  c-1.5,0.8-2.9,1.8-4.2,2.8L25.2,17.6z M34.3,87.7c-1.6-0.7-3.2-1.5-4.8-2.4l1-1.8c1.5,0.8,3,1.6,4.5,2.2L34.3,87.7z M34.4,12.3  c1.6-0.7,3.3-1.3,5.1-1.7l0.5,2c-1.6,0.4-3.2,1-4.8,1.6L34.4,12.3z M44.6,90.5c-1.8-0.2-3.5-0.6-5.2-1l0.5-2c1.6,0.4,3.3,0.8,5,1  L44.6,90.5z M44.7,9.5c1.8-0.2,3.5-0.3,5.3-0.3h0.1v2.1H50c-1.7,0-3.4,0.1-5.1,0.3L44.7,9.5z M50,90.8l0-2.1h0c1.7,0,3.4-0.1,5-0.3  l0.3,2.1C53.5,90.7,51.8,90.8,50,90.8z M60.5,89.4l-0.5-2c1.6-0.4,3.2-1,4.8-1.6l0.8,1.9C63.9,88.4,62.2,89,60.5,89.4z M70.4,85.4  l-1-1.8c1.5-0.8,2.9-1.8,4.2-2.8l1.3,1.7C73.4,83.5,71.9,84.5,70.4,85.4z M78.8,78.9l-1.5-1.5c1.2-1.2,2.3-2.5,3.3-3.8l1.7,1.3  C81.3,76.3,80.1,77.6,78.8,78.9z M85.3,70.5l-1.8-1.1c0.8-1.5,1.6-3,2.2-4.5l1.9,0.8C87,67.3,86.2,68.9,85.3,70.5z M89.4,60.6  l-2-0.5c0.4-1.6,0.8-3.3,1-5l2.1,0.3C90.2,57.2,89.9,58.9,89.4,60.6z M88.7,50.1L88.7,50.1c0-1.7-0.1-3.4-0.3-5.1l2.1-0.3  c0.2,1.7,0.3,3.5,0.3,5.3v0.1H88.7z"></path></svg></svg>