<svg data-v-70b83f88="" version="1.0" xmlns="http://www.w3.org/2000/svg" xmlns:xlink="http://www.w3.org/1999/xlink" viewBox="0 0 340.000000 250.000000" preserveAspectRatio="xMidYMid meet" color-interpolation-filters="sRGB" style="margin: auto;"><rect data-v-70b83f88="" x="0" y="0" width="100%" height="100%" fill="#feffff" fill-opacity="1" class="background"></rect><rect data-v-70b83f88="" x="0" y="0" width="100%" height="100%" fill="url(#watermark)" fill-opacity="1" class="watermarklayer"></rect><g data-v-70b83f88="" fill="#333" class="iconlinesvg-g iconlinesvg" transform="translate(77.47875213623047,93.17650032043457)"><g class="tp-name" transform="translate(0,0)"><g transform="translate(0, 0)"><g><g class="imagesvg"><g><rect fill="#333" fill-opacity="0" stroke-width="2" x="0" y="0" width="49.491" height="49.491" class="image-rect"></rect><svg x="0" y="0" width="49.491" height="49.491" filtersec="colorsb7110863040" class="image-svg-svg primary" style="overflow: visible;"><svg xmlns="http://www.w3.org/2000/svg" viewBox="0 -0.0000013409807024800102 74.45999908447266 74.45999908447266"><title>资源 32</title><path d="M0 37.23A37.23 37.23 0 1 0 37.23 0 37.22 37.22 0 0 0 0 37.23z" fill="#9ac74e" opacity=".8"></path><path fill="#d3e4b0" opacity=".8" d="M37.23 37.23l37.22 37.22H37.23V37.23z"></path></svg></svg><!----></g></g></g></g><g transform="translate(53, 4.12425)"><g data-gra="path-name" fill="#333" transform="scale(1)"><path d="M27.83 0L21.20 0L20.09-3.17L19.57-3.17Q18.47-1.42 16.50-0.48Q14.54 0.45 11.88 0.45L11.88 0.45Q7.67 0.45 5.33-1.99Q2.99-4.43 2.99-8.89L2.99-8.89L2.99-25.49L11.79-25.49L11.79-11.56Q11.79-9.07 12.50-7.79Q13.21-6.50 14.83-6.50L14.83-6.50Q17.10-6.50 18.07-8.29Q19.04-10.08 19.04-14.33L19.04-14.33L19.04-25.49L27.83-25.49L27.83 0Z" transform="translate(-2.9924999999999997, 33.4125)"></path></g></g><g transform="translate(81, 4.12425)"><g data-gra="path-name" fill="#333" transform="scale(1)"><path d="M15.34 0.45L15.34 0.45Q8.98 0.45 5.46-2.94Q1.93-6.32 1.93-12.58L1.93-12.58Q1.93-19.04 5.20-22.49Q8.46-25.94 14.51-25.94L14.51-25.94Q20.27-25.94 23.41-22.94Q26.55-19.93 26.55-14.29L26.55-14.29L26.55-10.37L10.82-10.37Q10.91-8.23 12.39-7.02Q13.86-5.80 16.40-5.80L16.40-5.80Q18.72-5.80 20.67-6.24Q22.61-6.68 24.88-7.74L24.88-7.74L24.88-1.42Q22.81-0.36 20.61 0.04Q18.40 0.45 15.34 0.45ZM14.83-19.96L14.83-19.96Q13.28-19.96 12.23-18.98Q11.18-18 11.00-15.91L11.00-15.91L18.56-15.91Q18.52-17.75 17.52-18.86Q16.52-19.96 14.83-19.96Z" transform="translate(-1.9349999999999998, 33.4125)"></path></g></g><g transform="translate(109, 4.12425)"><g data-gra="path-name" fill="#333" transform="scale(1)"><path d="M15.34 0.45L15.34 0.45Q8.98 0.45 5.46-2.94Q1.93-6.32 1.93-12.58L1.93-12.58Q1.93-19.04 5.20-22.49Q8.46-25.94 14.51-25.94L14.51-25.94Q20.27-25.94 23.41-22.94Q26.55-19.93 26.55-14.29L26.55-14.29L26.55-10.37L10.82-10.37Q10.91-8.23 12.39-7.02Q13.86-5.80 16.40-5.80L16.40-5.80Q18.72-5.80 20.67-6.24Q22.61-6.68 24.88-7.74L24.88-7.74L24.88-1.42Q22.81-0.36 20.61 0.04Q18.40 0.45 15.34 0.45ZM14.83-19.96L14.83-19.96Q13.28-19.96 12.23-18.98Q11.18-18 11.00-15.91L11.00-15.91L18.56-15.91Q18.52-17.75 17.52-18.86Q16.52-19.96 14.83-19.96Z" transform="translate(-1.9349999999999998, 33.4125)"></path></g></g><g transform="translate(137, 4.12425)"><g data-gra="path-name" fill="#333" transform="scale(1)"><path d="M27.92 0L19.13 0L19.13-13.90Q19.13-16.45 18.39-17.74Q17.66-19.04 16.04-19.04L16.04-19.04Q13.81-19.04 12.82-17.26Q11.83-15.48 11.83-11.16L11.83-11.16L11.83 0L3.04 0L3.04-25.49L9.67-25.49L10.78-22.34L11.29-22.34Q12.42-24.14 14.41-25.04Q16.40-25.94 18.99-25.94L18.99-25.94Q23.22-25.94 25.57-23.49Q27.92-21.04 27.92-16.58L27.92-16.58L27.92 0Z" transform="translate(-3.0375, 33.4125)"></path></g></g><g transform="translate(165, 4.12425)"><g data-gra="path-name" fill="#333" transform="scale(1)"><path d="M22.72-7.83L22.72-7.83Q22.72-3.73 19.93-1.64Q17.14 0.45 11.92 0.45L11.92 0.45Q9.09 0.45 7.00 0.15Q4.91-0.16 2.72-0.97L2.72-0.97L2.72-8.01Q4.77-7.11 7.21-6.52Q9.65-5.94 11.56-5.94L11.56-5.94Q14.42-5.94 14.42-7.25L14.42-7.25Q14.42-7.92 13.62-8.45Q12.82-8.98 8.98-10.51L8.98-10.51Q5.47-11.95 4.07-13.78Q2.68-15.62 2.68-18.43L2.68-18.43Q2.68-21.98 5.42-23.96Q8.17-25.94 13.18-25.94L13.18-25.94Q15.71-25.94 17.92-25.39Q20.14-24.84 22.52-23.78L22.52-23.78L20.14-18.11Q18.38-18.90 16.43-19.45Q14.47-20.00 13.23-20.00L13.23-20.00Q11.07-20.00 11.07-18.95L11.07-18.95Q11.07-18.29 11.82-17.83Q12.58-17.37 16.18-15.95L16.18-15.95Q18.86-14.85 20.17-13.79Q21.49-12.73 22.11-11.31Q22.72-9.88 22.72-7.83Z" transform="translate(-2.6774999999999998, 33.4125)"></path></g></g></g><g data-gra="path-slogan" fill-rule="" class="tp-slogan" fill="#333" transform="translate(72.37124824523926,55.49100112915039)"><!----><!----><g transform="scale(1, 1)"><g transform="scale(1)"><path d="M1.08-7.87L1.08 0L2.08 0L2.08-2.50L3.43-4.09L5.78 0L6.90 0L4.06-4.87L6.52-7.87L5.39-7.87L2.11-3.92L2.08-3.92L2.08-7.87ZM8.03-7.87L8.03 0L9.02 0L9.02-7.87ZM11.21-1.72L10.61-1.02C10.95-0.66 11.36-0.38 11.83-0.17C12.30 0.04 12.82 0.14 13.37 0.14C13.78 0.14 14.16 0.09 14.48-0.03C14.81-0.15 15.09-0.31 15.32-0.51C15.56-0.71 15.73-0.95 15.86-1.22C15.98-1.50 16.04-1.79 16.04-2.10C16.04-2.39 16.00-2.64 15.92-2.86C15.83-3.08 15.72-3.27 15.58-3.44C15.43-3.60 15.26-3.75 15.06-3.87C14.86-3.99 14.65-4.10 14.42-4.20L13.31-4.68C13.15-4.74 12.99-4.81 12.84-4.89C12.69-4.97 12.55-5.05 12.42-5.15C12.29-5.25 12.19-5.37 12.11-5.50C12.04-5.63 12.00-5.80 12.00-5.99C12.00-6.35 12.13-6.63 12.40-6.83C12.67-7.04 13.02-7.14 13.46-7.14C13.83-7.14 14.16-7.07 14.45-6.94C14.75-6.81 15.01-6.63 15.25-6.40L15.79-7.04C15.51-7.33 15.17-7.57 14.77-7.75C14.37-7.93 13.94-8.02 13.46-8.02C13.10-8.02 12.77-7.96 12.47-7.86C12.17-7.76 11.91-7.61 11.69-7.42C11.47-7.23 11.30-7.01 11.18-6.76C11.05-6.50 10.99-6.22 10.99-5.93C10.99-5.64 11.04-5.39 11.14-5.17C11.23-4.95 11.36-4.76 11.51-4.60C11.66-4.44 11.83-4.30 12.02-4.19C12.22-4.08 12.40-3.98 12.59-3.90L13.72-3.41C13.90-3.32 14.07-3.24 14.23-3.16C14.39-3.08 14.53-2.99 14.65-2.89C14.76-2.79 14.85-2.67 14.92-2.53C14.99-2.39 15.02-2.22 15.02-2.02C15.02-1.63 14.88-1.32 14.59-1.09C14.30-0.85 13.90-0.73 13.38-0.73C12.97-0.73 12.58-0.82 12.20-1.00C11.82-1.18 11.49-1.42 11.21-1.72ZM17.59-7.87L17.59 0L18.59 0L18.59-7.87ZM19.67-7.87L22.19 0L23.35 0L25.85-7.87L24.83-7.87L23.57-3.62C23.43-3.15 23.31-2.72 23.20-2.32C23.08-1.92 22.96-1.48 22.81-1.02L22.76-1.02C22.61-1.48 22.48-1.92 22.37-2.32C22.27-2.72 22.14-3.15 22.00-3.62L20.74-7.87ZM26.77-7.87L26.77-3.25C26.77-2.62 26.84-2.09 26.99-1.66C27.13-1.22 27.33-0.87 27.58-0.61C27.83-0.34 28.13-0.15 28.48-0.03C28.83 0.09 29.20 0.14 29.60 0.14C30.00 0.14 30.38 0.09 30.72-0.03C31.06-0.15 31.36-0.34 31.61-0.61C31.87-0.87 32.06-1.22 32.21-1.66C32.35-2.09 32.42-2.62 32.42-3.25L32.42-7.87L31.46-7.87L31.46-3.23C31.46-2.76 31.42-2.36 31.32-2.04C31.22-1.72 31.09-1.46 30.92-1.27C30.76-1.08 30.56-0.94 30.34-0.86C30.11-0.77 29.87-0.73 29.60-0.73C29.35-0.73 29.11-0.77 28.88-0.86C28.66-0.94 28.47-1.08 28.30-1.27C28.14-1.46 28.01-1.72 27.91-2.04C27.82-2.36 27.77-2.76 27.77-3.23L27.77-7.87ZM34.55-7.87L34.55 0L38.99 0L38.99-0.85L35.54-0.85L35.54-7.87ZM40.38-7.87L40.38 0L41.38 0L41.38-7.87Z" transform="translate(-1.08, 8.016)"></path></g></g></g></g><defs v-gra="od"></defs></svg>