<svg data-v-70b83f88="" version="1.0" xmlns="http://www.w3.org/2000/svg" xmlns:xlink="http://www.w3.org/1999/xlink" viewBox="0 0 340.000000 250.000000" preserveAspectRatio="xMidYMid meet" color-interpolation-filters="sRGB" style="margin: auto;"><rect data-v-70b83f88="" x="0" y="0" width="100%" height="100%" fill="#fff" fill-opacity="1" class="background"></rect><rect data-v-70b83f88="" x="0" y="0" width="100%" height="100%" fill="url(#watermark)" fill-opacity="1" class="watermarklayer"></rect><g data-v-70b83f88="" fill="#ea6000" class="icon-text-wrapper icon-svg-group iconsvg" transform="translate(73.61499786376953,78.06273651123047)"><g class="iconsvg-imagesvg" transform="translate(0,16.9150447845459)"><g><rect fill="#ea6000" fill-opacity="0" stroke-width="2" x="0" y="0" width="60" height="60.04443288033144" class="image-rect"></rect><svg x="0" y="0" width="60" height="60.04443288033144" filtersec="colorsb6385777134" class="image-svg-svg primary" style="overflow: visible;"><svg version="1.1" id="cube" xmlns="http://www.w3.org/2000/svg" xmlns:xlink="http://www.w3.org/1999/xlink" x="0px" y="0px" viewBox="7.2150421142578125 6.1374945640563965 543.60498046875 544.0101318359375" enable-background="new 0 0 555.92 553.7" xml:space="preserve"><path fill="#EA6000" d="M240.56,8.95c36.54,108.77,11.68,233.56-74.9,320.18l-107.4,107.4c4.55,6.34,9.37,12.57,14.58,18.59
	l134.42-134.44c85.32-85.31,127.49-197.23,127.13-309.06C303.47,5.26,271.76,4.52,240.56,8.95z M550.82,263.64
	c-1.27-23.73-5.57-47.29-12.98-70.09c-81.55,16.17-159.45,55.64-222.69,118.87L125.23,502.35c6.66,4.59,13.51,8.77,20.44,12.71
	l161-161C373.62,287.14,463.33,257.04,550.82,263.64z M471.8,85.62c-15.15-15.15-31.79-27.89-49.24-38.73
	c-17.92,76-56.45,148.12-115.77,207.43L88.75,472.38c5.69,5.54,11.47,10.84,17.47,15.77L381.5,212.86
	c36.96-36.95,78.98-65.57,123.77-86.44C495.56,112.04,484.52,98.33,471.8,85.62z M543.91,340.9
	c-99.62-20.88-207.48,7.16-284.79,84.52l-97.82,97.77c101.34,48.77,226.48,31.44,310.48-52.59
	C508.86,433.55,532.68,388.41,543.91,340.9z M160.49,33.44c-26.56,12.92-51.61,30.11-73.67,52.19
	C-4.61,177.06-17.2,317.24,48.63,422.35l45.67-45.65C187.09,283.89,209.07,147.21,160.49,33.44z"></path></svg></svg><!----></g></g><g transform="translate(67.00000381469727,0)"><g data-gra="path-name" fill-rule="" class="tp-name iconsvg-namesvg"><g transform="scale(1)"><g><path d="M13.18-39.87L13.18-39.87 13.18-41.02 20.68-41.02 20.68 0 13.18 0 13.18-5.68Q10.87-4.39 7.18-4.39L7.18-4.39Q4.92-4.39 3.13-5.63 1.35-6.86 1.35-11.31L1.35-11.31 1.35-34.1Q1.35-38.5 3.5-39.9 5.65-41.31 8.82-41.31L8.82-41.31Q11.28-41.31 13.18-39.87ZM8.85-34.1L8.85-34.1 8.85-11.31Q8.85-9.08 11.02-9.08L11.02-9.08Q13.18-9.08 13.18-11.31L13.18-11.31 13.18-34.1Q13.18-36.33 11.02-36.33L11.02-36.33Q8.85-36.33 8.85-34.1ZM22.71-6.91L22.71-41.02 30.21-41.02 30.21-6.91Q30.21-4.69 32.37-4.69L32.37-4.69Q34.54-4.69 34.54-6.91L34.54-6.91 34.54-41.02 42.04-41.02 42.04 0 34.54 0 34.54-1.41Q32.37 0 28.54 0L28.54 0Q26.28 0 24.49-1.9 22.71-3.81 22.71-6.91L22.71-6.91ZM63.16-34.1L63.16-20.51 51.33-20.51 51.33-6.91Q51.33-4.69 53.5-4.69L53.5-4.69Q55.66-4.69 55.66-6.91L55.66-6.91 55.66-17.72 63.16-17.72 63.16-6.91Q63.16 0.29 53.5 0.29L53.5 0.29Q43.83 0.29 43.83-6.91L43.83-6.91 43.83-34.1Q43.83-41.02 53.5-41.02L53.5-41.02Q63.16-41.02 63.16-34.1L63.16-34.1ZM51.33-25.2L55.66-25.2 55.66-34.1Q55.66-36.33 53.5-36.33L53.5-36.33Q51.33-36.33 51.33-34.1L51.33-34.1 51.33-25.2ZM84.58-34.1L84.58-20.51 72.74-20.51 72.74-6.91Q72.74-4.69 74.91-4.69L74.91-4.69Q77.08-4.69 77.08-6.91L77.08-6.91 77.08-17.72 84.58-17.72 84.58-6.91Q84.58 0.29 74.91 0.29L74.91 0.29Q65.24 0.29 65.24-6.91L65.24-6.91 65.24-34.1Q65.24-41.02 74.91-41.02L74.91-41.02Q84.58-41.02 84.58-34.1L84.58-34.1ZM72.74-25.2L77.08-25.2 77.08-34.1Q77.08-36.33 74.91-36.33L74.91-36.33Q72.74-36.33 72.74-34.1L72.74-34.1 72.74-25.2ZM106-34.1L106 0 98.5 0 98.5-34.1Q98.5-36.33 96.33-36.33L96.33-36.33Q94.16-36.33 94.16-34.1L94.16-34.1 94.16 0 86.66 0 86.66-41.02 94.16-41.02 94.16-39.61Q96.33-41.02 100.17-41.02L100.17-41.02Q102.42-41.02 104.21-39.11 106-37.21 106-34.1L106-34.1ZM107.78-6.91L107.78-13.68 115.28-13.68 115.28-6.91Q115.28-4.69 117.45-4.69L117.45-4.69Q119.62-4.69 119.62-6.91L119.62-6.91Q119.62-12.36 115.2-17.87 110.77-23.38 109.28-24.95 107.78-26.51 107.78-29.24L107.78-29.24 107.78-34.1Q107.78-41.02 117.45-41.02L117.45-41.02Q127.12-41.02 127.12-34.1L127.12-34.1 127.12-27.39 119.62-27.39 119.62-34.1Q119.62-36.33 117.45-36.33L117.45-36.33Q115.28-36.33 115.28-34.1L115.28-34.1Q115.17-30.06 116.31-28.77 117.45-27.48 122.29-21.36 127.12-15.23 127.12-11.81L127.12-11.81 127.12-6.91Q127.12 0.29 117.45 0.29L117.45 0.29Q107.78 0.29 107.78-6.91L107.78-6.91Z" transform="translate(-1.350000023841858, 41.310001373291016)"></path></g><!----><!----><!----><!----><!----><!----><g data-gra="path-name-1" fill="#ea6000" transform="translate(0,44.60000228881836)"><g transform="scale(1.00335)"><path d="M14.64-21.88L23.25 0 14.67 0 8.78-15.11 8.78 0 1.34 0 1.34-40.68 8.78-40.68 8.78-25.89 16.16-40.68 23.54-40.68 14.64-21.88ZM33.18-40.68L33.18 0 25.83 0 25.83-40.68 33.18-40.68ZM25.77-45.1Q25.77-43.61 26.86-42.5 27.95-41.38 29.49-41.38L29.49-41.38Q31.03-41.38 32.12-42.47 33.21-43.56 33.21-45.15L33.21-45.15Q33.21-46.72 32.17-47.77 31.12-48.82 29.64-48.82L29.64-48.82Q28.1-48.82 26.94-47.7 25.77-46.58 25.77-45.1L25.77-45.1ZM35.45-6.86L35.45-13.57 42.89-13.57 42.89-6.86Q42.89-4.65 45.04-4.65L45.04-4.65Q47.19-4.65 47.19-6.86L47.19-6.86Q47.19-12.26 42.8-17.72 38.41-23.19 36.93-24.74 35.45-26.3 35.45-29L35.45-29 35.45-33.82Q35.45-40.68 45.04-40.68L45.04-40.68Q54.63-40.68 54.63-33.82L54.63-33.82 54.63-27.17 47.19-27.17 47.19-33.82Q47.19-36.03 45.04-36.03L45.04-36.03Q42.89-36.03 42.89-33.82L42.89-33.82Q42.77-29.81 43.9-28.53 45.04-27.26 49.83-21.18 54.63-15.11 54.63-11.71L54.63-11.71 54.63-6.86Q54.63 0.29 45.04 0.29L45.04 0.29Q35.45 0.29 35.45-6.86L35.45-6.86ZM63.87-40.68L63.87 0 56.52 0 56.52-40.68 63.87-40.68ZM56.46-45.1Q56.46-43.61 57.55-42.5 58.64-41.38 60.18-41.38L60.18-41.38Q61.72-41.38 62.81-42.47 63.9-43.56 63.9-45.15L63.9-45.15Q63.9-46.72 62.85-47.77 61.8-48.82 60.32-48.82L60.32-48.82Q58.78-48.82 57.62-47.7 56.46-46.58 56.46-45.1L56.46-45.1ZM81.13-40.68L88.56-40.68 82.2 0 72.21 0 66.13-40.68 73.57-40.68 77.35-13.22 81.13-40.68ZM88.68-6.86L88.68-40.68 96.12-40.68 96.12-6.86Q96.12-4.65 98.27-4.65L98.27-4.65Q100.42-4.65 100.42-6.86L100.42-6.86 100.42-40.68 107.86-40.68 107.86 0 100.42 0 100.42-1.39Q98.27 0 94.46 0L94.46 0Q92.23 0 90.45-1.89 88.68-3.78 88.68-6.86L88.68-6.86ZM117.07-40.68L117.07 0 109.63 0 109.63-40.68 117.07-40.68ZM126.66-40.68L126.66 0 119.31 0 119.31-40.68 126.66-40.68ZM119.25-45.1Q119.25-43.61 120.34-42.5 121.43-41.38 122.97-41.38L122.97-41.38Q124.51-41.38 125.6-42.47 126.69-43.56 126.69-45.15L126.69-45.15Q126.69-46.72 125.64-47.77 124.6-48.82 123.11-48.82L123.11-48.82Q121.57-48.82 120.41-47.7 119.25-46.58 119.25-45.1L119.25-45.1Z" transform="translate(-1.340000033378601, 48.81999969482422)"></path></g></g></g></g><!----></g></g><defs v-gra="od"></defs></svg>