<svg data-v-70b83f88="" version="1.0" xmlns="http://www.w3.org/2000/svg" xmlns:xlink="http://www.w3.org/1999/xlink" viewBox="0 0 340.000000 250.000000" preserveAspectRatio="xMidYMid meet" color-interpolation-filters="sRGB" style="margin: auto;"><rect data-v-70b83f88="" x="0" y="0" width="100%" height="100%" fill="#fff" fill-opacity="1" class="background"></rect><rect data-v-70b83f88="" x="0" y="0" width="100%" height="100%" fill="url(#watermark)" fill-opacity="1" class="watermarklayer"></rect><g data-v-70b83f88="" fill="#333" class="iconblsvg-g iconsvg" transform="translate(63.88275909423828,111.21381759643555)"><g class="tp-name"><g data-gra="path-name" transform="translate(0, 1.9007742247659323)"><g transform="scale(1)"><path d="M17.35-10.25L17.35-9.17Q17.35-6.42 16.48-4.41 15.61-2.39 14.04-1.21L14.04-1.21 17.37 1.38 15.19 3.35 11.06 0.09Q10.25 0.27 9.32 0.27L9.32 0.27Q6.98 0.27 5.14-0.88 3.3-2.03 2.29-4.16 1.29-6.29 1.28-9.07L1.28-9.07 1.28-10.16Q1.28-12.99 2.28-15.16 3.28-17.33 5.11-18.48 6.94-19.63 9.29-19.63L9.29-19.63Q11.69-19.63 13.52-18.49 15.34-17.35 16.34-15.22 17.34-13.08 17.35-10.25L17.35-10.25ZM13.98-9.17L13.98-10.19Q13.98-13.46 12.75-15.15 11.53-16.83 9.29-16.83L9.29-16.83Q7.13-16.83 5.9-15.13 4.67-13.42 4.64-10.31L4.64-10.31 4.64-9.17Q4.64-6.04 5.87-4.27 7.1-2.5 9.32-2.5L9.32-2.5Q11.57-2.5 12.77-4.2 13.98-5.9 13.98-9.17L13.98-9.17ZM29.25 0L29.17-1.41Q27.75 0.27 25.13 0.27L25.13 0.27Q22.79 0.27 21.59-1.1 20.38-2.47 20.38-5.07L20.38-5.07 20.38-14.39 23.62-14.39 23.62-5.11Q23.62-2.37 25.89-2.37L25.89-2.37Q28.24-2.37 29.07-4.06L29.07-4.06 29.07-14.39 32.3-14.39 32.3 0 29.25 0ZM41.93 0.27L41.93 0.27Q38.85 0.27 36.95-1.67 35.04-3.6 35.04-6.82L35.04-6.82 35.04-7.22Q35.04-9.37 35.87-11.07 36.7-12.77 38.2-13.71 39.7-14.65 41.55-14.65L41.55-14.65Q44.49-14.65 46.09-12.78 47.7-10.9 47.7-7.47L47.7-7.47 47.7-6.17 38.3-6.17Q38.44-4.39 39.49-3.35 40.53-2.31 42.11-2.31L42.11-2.31Q44.33-2.31 45.73-4.11L45.73-4.11 47.47-2.45Q46.61-1.16 45.16-0.45 43.72 0.27 41.93 0.27ZM41.54-12.06L41.54-12.06Q40.21-12.06 39.39-11.13 38.57-10.2 38.35-8.54L38.35-8.54 44.5-8.54 44.5-8.78Q44.4-10.4 43.64-11.23 42.88-12.06 41.54-12.06ZM56.54 0.27L56.54 0.27Q53.47 0.27 51.56-1.67 49.65-3.6 49.65-6.82L49.65-6.82 49.65-7.22Q49.65-9.37 50.48-11.07 51.31-12.77 52.82-13.71 54.32-14.65 56.17-14.65L56.17-14.65Q59.1-14.65 60.71-12.78 62.31-10.9 62.31-7.47L62.31-7.47 62.31-6.17 52.91-6.17Q53.05-4.39 54.1-3.35 55.14-2.31 56.72-2.31L56.72-2.31Q58.95-2.31 60.34-4.11L60.34-4.11 62.08-2.45Q61.22-1.16 59.78-0.45 58.33 0.27 56.54 0.27ZM56.15-12.06L56.15-12.06Q54.82-12.06 54.01-11.13 53.19-10.2 52.96-8.54L52.96-8.54 59.12-8.54 59.12-8.78Q59.01-10.4 58.25-11.23 57.5-12.06 56.15-12.06ZM64.77-14.39L67.81-14.39 67.91-12.73Q69.5-14.65 72.1-14.65L72.1-14.65Q76.59-14.65 76.67-9.51L76.67-9.51 76.67 0 73.44 0 73.44-9.32Q73.44-10.69 72.85-11.35 72.26-12.01 70.91-12.01L70.91-12.01Q68.96-12.01 68-10.24L68-10.24 68 0 64.77 0 64.77-14.39ZM88.03-3.91L88.03-3.91Q88.03-4.77 87.31-5.23 86.6-5.68 84.95-6.02 83.31-6.37 82.2-6.9L82.2-6.9Q79.78-8.07 79.78-10.29L79.78-10.29Q79.78-12.15 81.35-13.4 82.92-14.65 85.34-14.65L85.34-14.65Q87.92-14.65 89.51-13.38 91.1-12.1 91.1-10.07L91.1-10.07 87.87-10.07Q87.87-11 87.17-11.61 86.48-12.23 85.34-12.23L85.34-12.23Q84.28-12.23 83.6-11.74 82.93-11.25 82.93-10.42L82.93-10.42Q82.93-9.68 83.56-9.27 84.18-8.86 86.08-8.44 87.99-8.02 89.07-7.44 90.15-6.86 90.68-6.05 91.2-5.24 91.2-4.08L91.2-4.08Q91.2-2.14 89.59-0.94 87.99 0.27 85.38 0.27L85.38 0.27Q83.61 0.27 82.23-0.37 80.85-1.01 80.07-2.13 79.3-3.24 79.3-4.53L79.3-4.53 82.44-4.53Q82.51-3.39 83.31-2.77 84.1-2.15 85.42-2.15L85.42-2.15Q86.7-2.15 87.36-2.64 88.03-3.12 88.03-3.91Z" transform="translate(-1.2799999713897705, 20.420000076293945)"></path></g></g><g transform="translate(92.91999816894531, 0)"><g><g class="imagesvg"><g><rect fill="#333" fill-opacity="0" stroke-width="2" x="0" y="0" width="32.28448098370707" height="27.57236397959439" class="image-rect"></rect><svg x="0" y="0" width="32.28448098370707" height="27.57236397959439" filtersec="colorsb41249953" class="image-svg-svg primary" style="overflow: visible;"><svg xmlns="http://www.w3.org/2000/svg" viewBox="-0.0019283294677734375 -0.0025947093963623047 159.00192260742188 135.79495239257812"><g fill-rule="evenodd"><path d="M63.41 56.92c-5.58-8.26-7-18.17-4.19-25.12 2.64-6.63 9-10.5 19.23-8.2 6.62 1.49 11 7 5.79 9.71-4.78 2.42-21.65.11-21.41 15.73.06 4.42 2.66 10 2.3 10.13-.12 0-.6-.62-1.72-2.25z" fill="#a8ce09"></path><path d="M92.89 104.19C75 106.24 50 99 29.79 85.88 8.67 72.2-5.15 53.59 1.82 36.46c4.33-10.6 21.26-10.08 29.7 3.66C35.26 46.23 36 56 41 66.86c5.1 11.08 14.46 22.84 34.31 30.92 10.17 4.13 21.87 4.9 22.13 5.58.12.23-1.21.46-4.51.83z" fill="#f78406"></path><path d="M97.56 25.69c13.26 2.46 29 10.75 40.92 21C150.12 56.63 159 69.18 159 81.41c0 8.85-8.94 9.52-16-2.35-3-5.11-4.62-12.91-8.7-21.15-4-8-10.4-16.73-23.68-24.79-7.39-4.49-16.71-7.44-16.91-7.93-.06-.17 1 0 3.81.5z" fill="#f7634b"></path><path d="M135.3 71.65c6.17 13.27 7 29.6 2.08 42.46C131.86 128.44 119 139 98.85 134.9c-14.76-3-21.2-17.74-6.79-24.44 5.86-2.73 16.44-2.59 25.69-5.59 8.67-2.81 16-8.37 17.17-21.55.58-6.67-2-15.23-1.53-15.27.17 0 .7 1 1.91 3.6z" fill="#f7b74f"></path><path d="M117.33 63c4.61 7.45 6.34 16.79 4.57 24.18-1.87 7.8-7.61 13.6-18 12.42-7.35-.84-12-7.8-5.74-11.88 5.2-3.4 20.87-2 20-17.7-.24-4-2.44-9-2.17-9.05.09 0 .49.57 1.38 2z" fill="#f7b74f"></path><path d="M100.48 83c-7.57 3.21-19.62 2.55-30.72-1.63C58.19 77 48.09 69.06 46.24 58.71c-1.24-6.79 5.93-9.21 13.17-2.42 6.3 5.91 11.12 22.12 32 25.54 5.31.86 10.72-.2 11 .12.09.1-.46.4-1.87 1z" fill="#f78406"></path><path d="M87.63 35c14.79-.7 39.09 12.44 41.62 27.49.9 5.37-4 6.75-9.26.43-4.54-5.51-7.3-18.17-24.06-24.91-4.73-1.89-10.22-2.47-10.4-2.78 0-.11.55-.18 2.1-.23z" fill="#f7634b"></path><path d="M35.86 36.33A31.43 31.43 0 0 1 53.52 3.52c10.81-5.28 25.37-5.1 41 3.81C104.67 13.12 108 22 96.86 21.6c-5.13-.18-14.48-3.55-24.29-4.86-10.39-1.38-21.57-.47-29.43 9.18-4.56 5.6-5.5 14.66-6.33 14.58-.28 0-.55-1.26-1-4.17z" fill="#a8ce09"></path></g></svg></svg><!----></g></g></g></g><g data-gra="path-name-1" fill="#333" transform="translate(128.2044792175293, 1.9007742247659323)"><g transform="scale(1)"><path d="M13.35 0L7.53-8.36 5.33-6.04 5.33 0 1.97 0 1.97-19.36 5.33-19.36 5.33-10.28 7.19-12.58 12.86-19.36 16.93-19.36 9.73-10.78 17.34 0 13.35 0ZM22.26-14.39L22.26 0 19.03 0 19.03-14.39 22.26-14.39ZM18.83-18.12L18.83-18.12Q18.83-18.87 19.3-19.36 19.77-19.85 20.65-19.85 21.53-19.85 22.01-19.36 22.49-18.87 22.49-18.12L22.49-18.12Q22.49-17.39 22.01-16.91 21.53-16.42 20.65-16.42 19.77-16.42 19.3-16.91 18.83-17.39 18.83-18.12ZM33.84-3.91L33.84-3.91Q33.84-4.77 33.13-5.23 32.42-5.68 30.77-6.02 29.12-6.37 28.02-6.9L28.02-6.9Q25.6-8.07 25.6-10.29L25.6-10.29Q25.6-12.15 27.17-13.4 28.73-14.65 31.15-14.65L31.15-14.65Q33.73-14.65 35.32-13.38 36.91-12.1 36.91-10.07L36.91-10.07 33.68-10.07Q33.68-11 32.99-11.61 32.3-12.23 31.15-12.23L31.15-12.23Q30.09-12.23 29.42-11.74 28.75-11.25 28.75-10.42L28.75-10.42Q28.75-9.68 29.37-9.27 30-8.86 31.9-8.44 33.8-8.02 34.88-7.44 35.97-6.86 36.49-6.05 37.02-5.24 37.02-4.08L37.02-4.08Q37.02-2.14 35.41-0.94 33.8 0.27 31.19 0.27L31.19 0.27Q29.43 0.27 28.04-0.37 26.66-1.01 25.89-2.13 25.12-3.24 25.12-4.53L25.12-4.53 28.26-4.53Q28.32-3.39 29.12-2.77 29.92-2.15 31.23-2.15L31.23-2.15Q32.51-2.15 33.18-2.64 33.84-3.12 33.84-3.91ZM43.27-14.39L43.27 0 40.04 0 40.04-14.39 43.27-14.39ZM39.84-18.12L39.84-18.12Q39.84-18.87 40.31-19.36 40.78-19.85 41.66-19.85 42.54-19.85 43.02-19.36 43.49-18.87 43.49-18.12L43.49-18.12Q43.49-17.39 43.02-16.91 42.54-16.42 41.66-16.42 40.78-16.42 40.31-16.91 39.84-17.39 39.84-18.12ZM48.77-14.39L51.86-4.1 54.9-14.39 58.24-14.39 53.25 0 50.45 0 45.42-14.39 48.77-14.39ZM69.05 0L68.97-1.41Q67.55 0.27 64.93 0.27L64.93 0.27Q62.59 0.27 61.39-1.1 60.18-2.47 60.18-5.07L60.18-5.07 60.18-14.39 63.41-14.39 63.41-5.11Q63.41-2.37 65.69-2.37L65.69-2.37Q68.04-2.37 68.86-4.06L68.86-4.06 68.86-14.39 72.1-14.39 72.1 0 69.05 0ZM78.82-20.42L78.82 0 75.59 0 75.59-20.42 78.82-20.42ZM85.78-14.39L85.78 0 82.55 0 82.55-14.39 85.78-14.39ZM82.35-18.12L82.35-18.12Q82.35-18.87 82.82-19.36 83.29-19.85 84.17-19.85 85.05-19.85 85.53-19.36 86-18.87 86-18.12L86-18.12Q86-17.39 85.53-16.91 85.05-16.42 84.17-16.42 83.29-16.42 82.82-16.91 82.35-17.39 82.35-18.12Z" transform="translate(-1.9700000286102295, 20.420000076293945)"></path></g></g></g><!----></g><defs v-gra="od"></defs></svg>