<svg data-v-70b83f88="" version="1.0" xmlns="http://www.w3.org/2000/svg" xmlns:xlink="http://www.w3.org/1999/xlink" viewBox="0 0 340.000000 250.000000" preserveAspectRatio="xMidYMid meet" color-interpolation-filters="sRGB" style="margin: auto;"><rect data-v-70b83f88="" x="0" y="0" width="100%" height="100%" fill="#ffffff" fill-opacity="1" class="background"></rect><rect data-v-70b83f88="" x="0" y="0" width="100%" height="100%" fill="url(#watermark)" fill-opacity="1" class="watermarklayer"></rect><g data-v-70b83f88="" fill="#f77062" class="icon-text-wrapper icon-svg-group iconsvg" transform="translate(81.03499603271484,83.1922721862793)"><g class="iconsvg-imagesvg" transform="translate(58.96500205993652,0)" mask="url(#bb9d1a0c-6865-420f-965c-81aa6c226a9f)"><g><rect fill="#f77062" fill-opacity="0" stroke-width="2" x="0" y="0" width="60" height="56.42544787699252" class="image-rect"></rect><svg filter="url(#colors2679498903)" x="0" y="0" width="60" height="56.42544787699252" filtersec="colorsf3078899661" class="image-svg-svg primary" style="overflow: visible;"><svg xmlns="http://www.w3.org/2000/svg" viewBox="0.05905000000000005 -0.01916999999999991 102.08191 96.23834"><path d="M16.9 28.4c-.8-2-1.2-4.2-1.2-6.5 0-9.6 7.8-17.4 17.4-17.4 2.7 0 5.2.3 7.4 1.7l37.1 21.4m-31-12.8L9.5 36.3c-2.3 1.3-3.8 3.3-5.1 5.6-4.8 8.3-2 19 6.4 23.8 2 1.1 4.1 1.9 6.2 2.2m3-32.6v42.9c0 2.6.9 5 2.3 7.3 4.8 8.3 15.5 11.2 23.8 6.4 2-1.1 3.6-2.6 5-4.3m-26.6-19L61.6 90c2.3 1.3 4.8 1.7 7.4 1.7 9.6 0 17.4-7.8 17.4-17.4 0-2.3-.4-4.5-1.2-6.5M55.6 81.3l37.1-21.4c2.3-1.3 3.8-3.3 5.1-5.6 4.8-8.3 2-19-6.4-23.8-2-1.1-4.1-1.9-6.2-2.2m-3.1 32.5V18c0-2.6-.9-5-2.3-7.3C75 2.4 64.4-.5 56 4.3c-2 1.1-3.6 2.6-5 4.3m1 62.3l19.3-12.2-.9-22.8-20.3-10.6-19.2 12.2.9 22.8L52 70.9z" fill="none" stroke="#202121" stroke-width="4" stroke-miterlimit="10"></path></svg></svg><defs><filter id="colors2679498903"><feColorMatrix type="matrix" values="0 0 0 0 0.96484375  0 0 0 0 0.4375  0 0 0 0 0.3828125  0 0 0 1 0" class="icon-fecolormatrix"></feColorMatrix></filter><filter id="colorsf3078899661"><feColorMatrix type="matrix" values="0 0 0 0 0.99609375  0 0 0 0 0.99609375  0 0 0 0 0.99609375  0 0 0 1 0" class="icon-fecolormatrix"></feColorMatrix></filter><filter id="colorsb2218143065"><feColorMatrix type="matrix" values="0 0 0 0 0  0 0 0 0 0  0 0 0 0 0  0 0 0 1 0" class="icon-fecolormatrix"></feColorMatrix></filter></defs></g><rect v-gra="id" width="72.00000381469727" height="68.42544937133789" transform="translate(-6, -6)" style="pointer-events:none;" fill="url(#iYk3tfKpOATsgHOylQc2M)"></rect></g><g transform="translate(0,63.42544937133789)"><g data-gra="path-name" fill-rule="" class="tp-name iconsvg-namesvg" fill="url(#54a4a5f5-586b-4c12-918f-6895c3873176)"><g transform="scale(1)"><g><path d="M12.62 1.26L12.62 3.67Q11.01 3.9 9.54 3.9 8.08 3.9 7.13 2.96 6.19 2.02 6.19 0.46L6.19 0.46 6.19 0.23 5.51 0.23Q3.1 0.23 2.01-0.86 0.92-1.95 0.92-4.36L0.92-4.36 0.92-11.7Q0.92-14.11 2.01-15.2 3.1-16.29 5.51-16.29L5.51-16.29 11.24-16.29Q13.65-16.29 14.74-15.2 15.83-14.11 15.83-11.7L15.83-11.7 15.83-4.36Q15.83-1.95 14.74-0.86 13.65 0.23 11.24 0.23L11.24 0.23 10.09 0.23 10.09 0.46Q10.09 0.8 10.32 1.03 10.55 1.26 10.9 1.26L10.9 1.26 12.62 1.26ZM11.7-4.36L11.7-11.7Q11.7-13.08 10.32-13.08L10.32-13.08 6.42-13.08Q5.05-13.08 5.05-11.7L5.05-11.7 5.05-4.36Q5.05-2.98 6.42-2.98L6.42-2.98 10.32-2.98Q11.7-2.98 11.7-4.36L11.7-4.36ZM22.71-3.1L23.52-3.1Q24.73-3.1 26.27-3.56L26.27-3.56 26.27-12.16 30.28-12.16 30.28 0 26.73 0 26.5-1.15Q25.42-0.44 24.28-0.1 23.15 0.23 22.37 0.23L22.37 0.23 21.34 0.23Q19.78 0.23 18.84-0.71 17.89-1.65 17.89-3.21L17.89-3.21 17.89-12.16 21.91-12.16 21.91-3.9Q21.91-3.56 22.14-3.33 22.37-3.1 22.71-3.1L22.71-3.1ZM39.34-9.52L37.28-9.52Q36.36-9.52 36.36-8.6L36.36-8.6 36.36-7.34 40.26-7.34 40.26-8.6Q40.26-9.52 39.34-9.52L39.34-9.52ZM43.82-3.1L43.82-0.23Q39.39 0.23 35.79 0.23L35.79 0.23Q34.23 0.23 33.29-0.71 32.35-1.65 32.35-3.21L32.35-3.21 32.35-8.72Q32.35-10.44 33.32-11.41 34.3-12.39 36.02-12.39L36.02-12.39 40.61-12.39Q42.33-12.39 43.3-11.41 44.28-10.44 44.28-8.72L44.28-8.72 44.28-4.47 36.36-4.47 36.36-3.56Q36.36-3.21 36.59-2.98 36.82-2.75 37.17-2.75L37.17-2.75Q39.44-2.75 43.82-3.1L43.82-3.1ZM53.11-9.52L51.05-9.52Q50.13-9.52 50.13-8.6L50.13-8.6 50.13-7.34 54.03-7.34 54.03-8.6Q54.03-9.52 53.11-9.52L53.11-9.52ZM57.58-3.1L57.58-0.23Q53.16 0.23 49.55 0.23L49.55 0.23Q47.99 0.23 47.05-0.71 46.11-1.65 46.11-3.21L46.11-3.21 46.11-8.72Q46.11-10.44 47.09-11.41 48.06-12.39 49.78-12.39L49.78-12.39 54.37-12.39Q56.09-12.39 57.07-11.41 58.04-10.44 58.04-8.72L58.04-8.72 58.04-4.47 50.13-4.47 50.13-3.56Q50.13-3.21 50.36-2.98 50.59-2.75 50.93-2.75L50.93-2.75Q53.2-2.75 57.58-3.1L57.58-3.1ZM67.68-9.06L66.87-9.06Q65.66-9.06 64.12-8.6L64.12-8.6 64.12 0 60.11 0 60.11-12.16 63.66-12.16 63.89-11.01Q64.97-11.72 66.11-12.06 67.24-12.39 68.02-12.39L68.02-12.39 69.05-12.39Q70.61-12.39 71.55-11.45 72.5-10.51 72.5-8.95L72.5-8.95 72.5 0 68.48 0 68.48-8.26Q68.48-8.6 68.25-8.83 68.02-9.06 67.68-9.06L67.68-9.06ZM74.1-0.23L74.1-3.21Q78.76-2.87 81.44-2.87L81.44-2.87Q81.79-2.87 82.02-3.1 82.25-3.33 82.25-3.67L82.25-3.67 82.25-4.47 77.31-4.47Q75.75-4.47 74.81-5.41 73.87-6.35 73.87-7.91L73.87-7.91 73.87-8.72Q73.87-10.28 74.81-11.22 75.75-12.16 77.31-12.16L77.31-12.16 85.11-12.16 85.11-9.18 78.69-9.18Q78.35-9.18 78.12-8.95 77.89-8.72 77.89-8.37L77.89-8.37Q77.89-8.03 78.12-7.8 78.35-7.57 78.69-7.57L78.69-7.57 82.82-7.57Q84.38-7.57 85.32-6.63 86.26-5.69 86.26-4.13L86.26-4.13 86.26-3.21Q86.26-1.65 85.32-0.71 84.38 0.23 82.82 0.23L82.82 0.23Q78.76 0.23 74.1-0.23L74.1-0.23ZM99.11-6.54L99.11 0 94.98 0 94.98-16.06 99.11-16.06 99.11-9.75 101.17-9.75 104.75-16.06 109.11-16.06 104.61-8.14 109.09 0 104.73 0 101.17-6.54 99.11-6.54ZM109.57-11.7L115.3-11.7 115.3 0 111.29 0 111.29-8.6 109.57-8.6 109.57-11.7ZM111.29-13.08L111.29-16.29 115.3-16.29 115.3-13.08 111.29-13.08ZM117.14-0.23L117.14-3.21Q121.8-2.87 124.48-2.87L124.48-2.87Q124.83-2.87 125.05-3.1 125.28-3.33 125.28-3.67L125.28-3.67 125.28-4.47 120.35-4.47Q118.79-4.47 117.85-5.41 116.91-6.35 116.91-7.91L116.91-7.91 116.91-8.72Q116.91-10.28 117.85-11.22 118.79-12.16 120.35-12.16L120.35-12.16 128.15-12.16 128.15-9.18 121.73-9.18Q121.38-9.18 121.15-8.95 120.93-8.72 120.93-8.37L120.93-8.37Q120.93-8.03 121.15-7.8 121.38-7.57 121.73-7.57L121.73-7.57 125.86-7.57Q127.42-7.57 128.36-6.63 129.3-5.69 129.3-4.13L129.3-4.13 129.3-3.21Q129.3-1.65 128.36-0.71 127.42 0.23 125.86 0.23L125.86 0.23Q121.8 0.23 117.14-0.23L117.14-0.23ZM129.99-11.7L135.72-11.7 135.72 0 131.71 0 131.71-8.6 129.99-8.6 129.99-11.7ZM131.71-13.08L131.71-16.29 135.72-16.29 135.72-13.08 131.71-13.08ZM143.52-3.9L146.16-12.16 150.41-12.16 145.82 0 141.23 0 136.64-12.16 140.88-12.16 143.52-3.9ZM156.14-3.1L156.94-3.1Q158.16-3.1 159.7-3.56L159.7-3.56 159.7-12.16 163.71-12.16 163.71 0 160.16 0 159.93-1.15Q158.85-0.44 157.71-0.1 156.58 0.23 155.8 0.23L155.8 0.23 154.76 0.23Q153.2 0.23 152.26-0.71 151.32-1.65 151.32-3.21L151.32-3.21 151.32-12.16 155.34-12.16 155.34-3.9Q155.34-3.56 155.57-3.33 155.8-3.1 156.14-3.1L156.14-3.1ZM172.2-2.98L172.2 0Q170.66 0.23 169.27 0.23 167.89 0.23 166.95-0.71 166.01-1.65 166.01-3.21L166.01-3.21 166.01-16.06 170.02-16.06 170.02-3.79Q170.02-3.44 170.25-3.21 170.48-2.98 170.82-2.98L170.82-2.98 172.2-2.98ZM173.12-11.7L178.85-11.7 178.85 0 174.84 0 174.84-8.6 173.12-8.6 173.12-11.7ZM174.84-13.08L174.84-16.29 178.85-16.29 178.85-13.08 174.84-13.08Z" transform="translate(-0.9200000166893005, 16.290000915527344)"></path></g><!----><!----><!----><!----><!----><!----><!----></g></g><!----></g></g><defs v-gra="od"><linearGradient x1="0" y1="1" x2="0" y2="0" id="54a4a5f5-586b-4c12-918f-6895c3873176"><stop offset="0%" stop-color="#f77062"></stop><stop offset="100%" stop-color="#fe5196"></stop></linearGradient><filter id="42443b3f1de60f6b6fd3b6a9844b4764" filterUnits="userSpaceOnUse"><feColorMatrix type="matrix" values="0 0 0 0 0.99609375  0 0 0 0 0.99609375  0 0 0 0 0.99609375  0 0 0 1 0"></feColorMatrix></filter></defs><defs v-gra="id"><filter id="c36a8dd3-0301-41fe-a8f7-f00cdd319627" filterUnits="userSpaceOnUse"><feColorMatrix type="matrix" values="0 0 0 0 0.99609375  0 0 0 0 0.99609375  0 0 0 0 0.99609375  0 0 0 1 0"></feColorMatrix></filter><linearGradient x1="0" y1="1" x2="0" y2="0" id="iYk3tfKpOATsgHOylQc2M"><stop offset="0%" stop-color="#f77062"></stop><stop offset="100%" stop-color="#fe5196"></stop></linearGradient><filter id="42443b3f1de60f6b6fd3b6a9844b4764" filterUnits="userSpaceOnUse"><feColorMatrix type="matrix" values="0 0 0 0 0.99609375  0 0 0 0 0.99609375  0 0 0 0 0.99609375  0 0 0 1 0"></feColorMatrix></filter></defs><mask v-gra="im" id="bb9d1a0c-6865-420f-965c-81aa6c226a9f"><g class="iconsvg-imagesvg" filter="url(#c36a8dd3-0301-41fe-a8f7-f00cdd319627)"><g><rect fill="#f77062" fill-opacity="0" stroke-width="2" x="0" y="0" width="60" height="56.42544787699252" class="image-rect"></rect><svg x="0" y="0" width="60" height="56.42544787699252" filtersec="colorsf3078899661" class="image-svg-svg primary" style="overflow: visible;"><svg xmlns="http://www.w3.org/2000/svg" viewBox="0.05905000000000005 -0.01916999999999991 102.08191 96.23834"><path d="M16.9 28.4c-.8-2-1.2-4.2-1.2-6.5 0-9.6 7.8-17.4 17.4-17.4 2.7 0 5.2.3 7.4 1.7l37.1 21.4m-31-12.8L9.5 36.3c-2.3 1.3-3.8 3.3-5.1 5.6-4.8 8.3-2 19 6.4 23.8 2 1.1 4.1 1.9 6.2 2.2m3-32.6v42.9c0 2.6.9 5 2.3 7.3 4.8 8.3 15.5 11.2 23.8 6.4 2-1.1 3.6-2.6 5-4.3m-26.6-19L61.6 90c2.3 1.3 4.8 1.7 7.4 1.7 9.6 0 17.4-7.8 17.4-17.4 0-2.3-.4-4.5-1.2-6.5M55.6 81.3l37.1-21.4c2.3-1.3 3.8-3.3 5.1-5.6 4.8-8.3 2-19-6.4-23.8-2-1.1-4.1-1.9-6.2-2.2m-3.1 32.5V18c0-2.6-.9-5-2.3-7.3C75 2.4 64.4-.5 56 4.3c-2 1.1-3.6 2.6-5 4.3m1 62.3l19.3-12.2-.9-22.8-20.3-10.6-19.2 12.2.9 22.8L52 70.9z" fill="none" stroke="#202121" stroke-width="4" stroke-miterlimit="10"></path></svg></svg><defs><filter id="colors2679498903"><feColorMatrix type="matrix" values="0 0 0 0 0.96484375  0 0 0 0 0.4375  0 0 0 0 0.3828125  0 0 0 1 0" class="icon-fecolormatrix"></feColorMatrix></filter><filter id="colorsf3078899661"><feColorMatrix type="matrix" values="0 0 0 0 0.99609375  0 0 0 0 0.99609375  0 0 0 0 0.99609375  0 0 0 1 0" class="icon-fecolormatrix"></feColorMatrix></filter><filter id="colorsb2218143065"><feColorMatrix type="matrix" values="0 0 0 0 0  0 0 0 0 0  0 0 0 0 0  0 0 0 1 0" class="icon-fecolormatrix"></feColorMatrix></filter></defs></g></g></mask></svg>