<svg x="0" y="0" width="38.282617130613964" height="36.08197733307002" filtersec="colorsb5104047254" class="image-svg-svg primary" style="overflow: visible;"><svg xmlns="http://www.w3.org/2000/svg" viewBox="8.695907592773438 72.0003662109375 1486.26904296875 1400.8302001953125"><g fill-rule="evenodd" clip-rule="evenodd" fill="#F19533"><path d="M218.033 481.536c254.394-351.747 640.812-506.734 862.895-346.114 206.795 149.563 198.306 520.072-9.192 854.359L855.313 837.538h-.02c100.949-194.465 95.961-397.26-22.854-483.188-138.681-100.293-379.933-3.531-538.771 216.084-158.835 219.635-175.186 479.051-36.524 579.325 74.535 53.924 178.726 50.878 283.813 2.438l157.827 215.956c-195.623 118.511-399.813 142.104-539.253 41.279-222.088-160.649-195.879-576.161 58.502-927.896z"></path><path d="M331.614 617.603l1163.351 841.389-561.765 5.555z"></path></g></svg></svg>