<svg xmlns="http://www.w3.org/2000/svg" x="0" y="0" filtersec="colorsb4734872686" class="image-svg-svg primary" style="overflow: visible;"><svg xmlns="http://www.w3.org/2000/svg" viewBox="-0.04370441287755966 0.004579527303576469 177.93359375 191.16014099121094"><path d="M96.87 135.25v53.43c0 2.44 0 2.44 2.5 2.44h13.9c2.53 0 2.54 0 2.54-2.53v-88.27-5.41c0-1.16.34-1.44 1.36-.69 2.13 1.55 4.32 3 6.47 4.58L176 136.23c.43.31.87.86 1.41.63s.29-1 .29-1.45v-19.32a2.89 2.89 0 0 0-1.4-2.68c-3-2-5.86-4.2-8.8-6.29q-38.43-27.41-76.88-54.84a2.47 2.47 0 0 0-3.44 0Q58.11 73.13 29 93.86c-9.1 6.49-18.18 13-27.31 19.46a3.21 3.21 0 0 0-1.53 3c.07 6.38 0 12.76 0 19.14 0 .49-.3 1.19.31 1.43s1-.34 1.41-.64l2.79-2q27.78-19.86 55.59-39.69c.45-.33.9-1.08 1.5-.76s.28 1.1.28 1.67v93.69c0 1.56.39 2.06 2 2 4.75-.11 9.51 0 14.26 0 2.69 0 2.69 0 2.69-2.62V89.21v-7.94A2.37 2.37 0 0 1 82.08 79c1.93-1.32 3.83-2.7 5.71-4.11a1.64 1.64 0 0 1 2.26 0c1.67 1.26 3.34 2.56 5.12 3.67A3.51 3.51 0 0 1 96.9 82c-.05 17.75-.03 35.5-.03 53.25z" fill="#00bfe9"></path><path d="M.14 76.43v24c0 .51-.28 1.18.27 1.49s1-.3 1.38-.59c5.3-3.75 10.56-7.54 15.88-11.26A2.87 2.87 0 0 0 19 87.35V63.16a2.19 2.19 0 0 1 1-2.23Q53.85 41.49 87.62 22a2.32 2.32 0 0 1 2.65 0q33.53 19.41 67.09 38.73a2.54 2.54 0 0 1 1.49 2.55V87.1a3.37 3.37 0 0 0 1.56 3.16c5.23 3.63 10.39 7.36 15.59 11 .43.3.82.93 1.38.68s.35-1.07.35-1.62V52.67a2.68 2.68 0 0 0-1.58-2.67Q133.22 25.28 90.36.43a2.73 2.73 0 0 0-3.14.15Q44.41 25.35 1.57 50a2.56 2.56 0 0 0-1.46 2.61c.05 7.94.03 15.88.03 23.82zM123.77 173.13V182c0 2.06.16 2.13 2 1.08l50.1-28.9c2.59-1.5 2.71-4.21.24-6-4.54-3.26-9.07-6.53-13.62-9.77-1.07-.75-2.33-2.43-3.21-2-1.13.6-.44 2.53-.38 3.86a3.12 3.12 0 0 1-1.9 3.23c-10.56 6-21 12.07-31.59 18.07a2.81 2.81 0 0 0-1.65 2.86c.07 2.92.01 5.81.01 8.7zM54 173.2c0-2.83-.12-5.66 0-8.48a3.25 3.25 0 0 0-2-3.38c-9.71-5.51-19.3-11.24-29.1-16.57-3.06-1.66-4.6-3.49-4-7 .09-.46.32-1.17-.3-1.46s-.87.32-1.24.58q-8.06 5.77-16.08 11.59a3.28 3.28 0 0 0 .4 5.52l10.14 5.85 40.25 23.21c1.74 1 1.87.93 1.88-1 .05-2.97.05-5.91.05-8.86z" fill="#243269"></path></svg></svg>