<svg x="0" y="0" width="32.28448098370707" height="27.57236397959439" filtersec="colorsb7657347534" class="image-svg-svg primary" style="overflow: visible;"><svg xmlns="http://www.w3.org/2000/svg" viewBox="-0.0019283294677734375 -0.0025947093963623047 159.00192260742188 135.79495239257812"><g fill-rule="evenodd"><path d="M63.41 56.92c-5.58-8.26-7-18.17-4.19-25.12 2.64-6.63 9-10.5 19.23-8.2 6.62 1.49 11 7 5.79 9.71-4.78 2.42-21.65.11-21.41 15.73.06 4.42 2.66 10 2.3 10.13-.12 0-.6-.62-1.72-2.25z" fill="#a8ce09"></path><path d="M92.89 104.19C75 106.24 50 99 29.79 85.88 8.67 72.2-5.15 53.59 1.82 36.46c4.33-10.6 21.26-10.08 29.7 3.66C35.26 46.23 36 56 41 66.86c5.1 11.08 14.46 22.84 34.31 30.92 10.17 4.13 21.87 4.9 22.13 5.58.12.23-1.21.46-4.51.83z" fill="#f78406"></path><path d="M97.56 25.69c13.26 2.46 29 10.75 40.92 21C150.12 56.63 159 69.18 159 81.41c0 8.85-8.94 9.52-16-2.35-3-5.11-4.62-12.91-8.7-21.15-4-8-10.4-16.73-23.68-24.79-7.39-4.49-16.71-7.44-16.91-7.93-.06-.17 1 0 3.81.5z" fill="#f7634b"></path><path d="M135.3 71.65c6.17 13.27 7 29.6 2.08 42.46C131.86 128.44 119 139 98.85 134.9c-14.76-3-21.2-17.74-6.79-24.44 5.86-2.73 16.44-2.59 25.69-5.59 8.67-2.81 16-8.37 17.17-21.55.58-6.67-2-15.23-1.53-15.27.17 0 .7 1 1.91 3.6z" fill="#f7b74f"></path><path d="M117.33 63c4.61 7.45 6.34 16.79 4.57 24.18-1.87 7.8-7.61 13.6-18 12.42-7.35-.84-12-7.8-5.74-11.88 5.2-3.4 20.87-2 20-17.7-.24-4-2.44-9-2.17-9.05.09 0 .49.57 1.38 2z" fill="#f7b74f"></path><path d="M100.48 83c-7.57 3.21-19.62 2.55-30.72-1.63C58.19 77 48.09 69.06 46.24 58.71c-1.24-6.79 5.93-9.21 13.17-2.42 6.3 5.91 11.12 22.12 32 25.54 5.31.86 10.72-.2 11 .12.09.1-.46.4-1.87 1z" fill="#f78406"></path><path d="M87.63 35c14.79-.7 39.09 12.44 41.62 27.49.9 5.37-4 6.75-9.26.43-4.54-5.51-7.3-18.17-24.06-24.91-4.73-1.89-10.22-2.47-10.4-2.78 0-.11.55-.18 2.1-.23z" fill="#f7634b"></path><path d="M35.86 36.33A31.43 31.43 0 0 1 53.52 3.52c10.81-5.28 25.37-5.1 41 3.81C104.67 13.12 108 22 96.86 21.6c-5.13-.18-14.48-3.55-24.29-4.86-10.39-1.38-21.57-.47-29.43 9.18-4.56 5.6-5.5 14.66-6.33 14.58-.28 0-.55-1.26-1-4.17z" fill="#a8ce09"></path></g></svg></svg>