<svg filter="url(#colors2679498903)" x="0" y="0" width="60" height="56.42544787699252" filtersec="colorsf3078899661" class="image-svg-svg primary" style="overflow: visible;"><svg xmlns="http://www.w3.org/2000/svg" viewBox="0.05905000000000005 -0.01916999999999991 102.08191 96.23834"><path d="M16.9 28.4c-.8-2-1.2-4.2-1.2-6.5 0-9.6 7.8-17.4 17.4-17.4 2.7 0 5.2.3 7.4 1.7l37.1 21.4m-31-12.8L9.5 36.3c-2.3 1.3-3.8 3.3-5.1 5.6-4.8 8.3-2 19 6.4 23.8 2 1.1 4.1 1.9 6.2 2.2m3-32.6v42.9c0 2.6.9 5 2.3 7.3 4.8 8.3 15.5 11.2 23.8 6.4 2-1.1 3.6-2.6 5-4.3m-26.6-19L61.6 90c2.3 1.3 4.8 1.7 7.4 1.7 9.6 0 17.4-7.8 17.4-17.4 0-2.3-.4-4.5-1.2-6.5M55.6 81.3l37.1-21.4c2.3-1.3 3.8-3.3 5.1-5.6 4.8-8.3 2-19-6.4-23.8-2-1.1-4.1-1.9-6.2-2.2m-3.1 32.5V18c0-2.6-.9-5-2.3-7.3C75 2.4 64.4-.5 56 4.3c-2 1.1-3.6 2.6-5 4.3m1 62.3l19.3-12.2-.9-22.8-20.3-10.6-19.2 12.2.9 22.8L52 70.9z" fill="none" stroke="#202121" stroke-width="4" stroke-miterlimit="10"></path></svg></svg>