<svg data-v-70b83f88="" version="1.0" xmlns="http://www.w3.org/2000/svg" xmlns:xlink="http://www.w3.org/1999/xlink" viewBox="0 0 340.000000 250.000000" preserveAspectRatio="xMidYMid meet" color-interpolation-filters="sRGB" style="margin: auto;"><rect data-v-70b83f88="" x="0" y="0" width="100%" height="100%" fill="#002561" fill-opacity="1" class="background"></rect><rect data-v-70b83f88="" x="0" y="0" width="100%" height="100%" fill="url(#watermark)" fill-opacity="1" class="watermarklayer"></rect><g data-v-70b83f88="" fill="#feffff" class="bordersvg b-d1" transform="translate(51.80499267578125,83.29999923706055)"><polyline stroke="#feffff" stroke-width="3" fill-opacity="0" fill="#002561" points="113.19499969482422,30 113.19499969482422,10 236.38999938964844,10 236.38999938964844,83.4000015258789 113.19499969482422,83.4000015258789 113.19499969482422,63.400001525878906"></polyline><polyline stroke="#feffff" stroke-width="3" fill-opacity="0" fill="#002561" points="123.19499969482422,10 123.19499969482422,0 246.38999938964844,0 246.38999938964844,73.4000015258789 236.38999938964844,73.4000015258789"></polyline><g transform="translate(-10,30)"><g><rect data-gra="graph-name-bg" stroke-width="2" class="i-icon-bg" x="0" y="0" width="246.38999938964844" height="33.400001525878906" fill-opacity="0"></rect><!----><!----></g><g transform="translate(10,3)"><g data-gra="path-name" fill-rule="" class="tp-name"><g transform="scale(1)"><g><path d="M23.89 0.06L25.12 2.19Q23.89 3.3 22.41 3.92 20.93 4.53 19.48 4.53L19.48 4.53Q17.54 4.53 15.81 3.42 14.09 2.31 12.7 0.22L12.7 0.22 12.52 0.22Q9.4 0.22 6.8-1.25 4.19-2.71 2.68-5.26 1.17-7.8 1.17-10.82L1.17-10.82Q1.17-13.84 2.68-16.35 4.19-18.87 6.78-20.31 9.37-21.76 12.52-21.76L12.52-21.76Q15.63-21.76 18.23-20.31 20.84-18.87 22.35-16.35 23.86-13.84 23.86-10.82L23.86-10.82Q23.86-8.32 22.83-6.17 21.79-4.01 19.98-2.47 18.16-0.92 15.81-0.25L15.81-0.25Q17.85 1.94 19.82 1.94L19.82 1.94Q21.61 1.94 23.89 0.06L23.89 0.06ZM4.16-10.82Q4.16-8.54 5.3-6.63 6.44-4.72 8.37-3.59 10.3-2.47 12.55-2.47L12.55-2.47Q14.8-2.47 16.69-3.59 18.59-4.72 19.71-6.63 20.84-8.54 20.84-10.82L20.84-10.82Q20.84-13.1 19.71-15 18.59-16.89 16.69-18 14.8-19.11 12.55-19.11L12.55-19.11Q10.3-19.11 8.37-18 6.44-16.89 5.3-15 4.16-13.1 4.16-10.82L4.16-10.82ZM39.67-16.31L42.57-16.31 42.57 0 39.67 0 39.67-3.45Q38.07 0.03 33.63 0.09L33.63 0.09Q30.8 0.09 29.19-1.59 27.59-3.27 27.59-6.23L27.59-6.23 27.59-16.31 30.49-16.31 30.49-7Q30.49-4.93 31.61-3.78 32.74-2.62 34.71-2.62L34.71-2.62Q36.99-2.65 38.33-4.24 39.67-5.83 39.67-8.29L39.67-8.29 39.67-16.31ZM54.69-16.4Q58.48-16.4 60.42-14.16 62.36-11.93 62.36-7.95L62.36-7.95Q62.36-7.34 62.33-7.03L62.33-7.03 49.45-7.03Q49.79-4.84 51.28-3.55 52.78-2.25 54.96-2.25L54.96-2.25Q56.41-2.25 57.66-2.77 58.91-3.3 59.84-4.25L59.84-4.25 61.41-2.62Q60.21-1.33 58.51-0.62 56.81 0.09 54.75 0.09L54.75 0.09Q52.34 0.09 50.48-0.94 48.61-1.97 47.58-3.85 46.55-5.73 46.55-8.14L46.55-8.14Q46.55-10.54 47.58-12.41 48.61-14.27 50.46-15.34 52.31-16.4 54.69-16.4L54.69-16.4ZM49.42-9.25L59.77-9.25Q59.65-11.47 58.29-12.75 56.94-14.03 54.72-14.03L54.72-14.03Q52.56-14.03 51.13-12.73 49.69-11.44 49.42-9.25L49.42-9.25ZM72.81-16.4Q76.61-16.4 78.55-14.16 80.49-11.93 80.49-7.95L80.49-7.95Q80.49-7.34 80.46-7.03L80.46-7.03 67.57-7.03Q67.91-4.84 69.41-3.55 70.9-2.25 73.09-2.25L73.09-2.25Q74.54-2.25 75.79-2.77 77.04-3.3 77.96-4.25L77.96-4.25 79.53-2.62Q78.33-1.33 76.64-0.62 74.94 0.09 72.87 0.09L72.87 0.09Q70.47 0.09 68.61-0.94 66.74-1.97 65.71-3.85 64.67-5.73 64.67-8.14L64.67-8.14Q64.67-10.54 65.71-12.41 66.74-14.27 68.59-15.34 70.44-16.4 72.81-16.4L72.81-16.4ZM67.54-9.25L77.9-9.25Q77.78-11.47 76.42-12.75 75.06-14.03 72.84-14.03L72.84-14.03Q70.69-14.03 69.25-12.73 67.82-11.44 67.54-9.25L67.54-9.25ZM93.47-16.4Q96.33-16.4 97.97-14.72 99.6-13.04 99.6-10.08L99.6-10.08 99.6 0 96.74 0 96.74-9.31Q96.74-11.38 95.58-12.53 94.42-13.69 92.39-13.69L92.39-13.69Q90.2-13.66 88.83-12.28 87.46-10.91 87.27-8.72L87.27-8.72 87.27 0 84.4 0 84.4-16.31 87.27-16.31 87.27-12.85Q88.9-16.34 93.47-16.4L93.47-16.4ZM113.63-12.7Q112.61-13.32 111.39-13.69 110.18-14.06 109.07-14.06L109.07-14.06Q107.77-14.06 106.98-13.58 106.2-13.1 106.2-12.11L106.2-12.11Q106.2-11.13 107.08-10.62 107.96-10.11 109.74-9.59L109.74-9.59Q111.44-9.09 112.52-8.6 113.6-8.11 114.35-7.15 115.11-6.2 115.11-4.62L115.11-4.62Q115.11-2.31 113.37-1.11 111.62 0.09 109.03 0.09L109.03 0.09Q107.22 0.09 105.51-0.49 103.79-1.08 102.62-2.16L102.62-2.16 103.7-4.25Q104.72-3.33 106.21-2.77 107.71-2.22 109.13-2.22L109.13-2.22Q110.55-2.22 111.41-2.74 112.27-3.27 112.27-4.35L112.27-4.35Q112.27-5.46 111.36-6.01 110.45-6.57 108.6-7.12L108.6-7.12Q106.97-7.58 105.94-8.06 104.9-8.54 104.18-9.46 103.46-10.39 103.46-11.87L103.46-11.87Q103.46-14.15 105.12-15.29 106.78-16.43 109.28-16.43L109.28-16.43Q110.76-16.43 112.19-16.01 113.63-15.6 114.68-14.89L114.68-14.89 113.63-12.7ZM136.26-12.27L145.35 0 141.77 0 134.19-9.96 130.21-5.64 130.21 0 127.25 0 127.25-21.58 130.21-21.58 130.21-9.46 141.25-21.58 144.79-21.58 136.26-12.27ZM148.77 0L148.77-16.31 151.64-16.31 151.64 0 148.77 0ZM150.19-22.81Q150.96-22.81 151.47-22.29 151.98-21.76 151.98-20.96L151.98-20.96Q151.98-20.16 151.47-19.64 150.96-19.11 150.19-19.11L150.19-19.11Q149.42-19.11 148.91-19.64 148.4-20.16 148.4-20.96L148.4-20.96Q148.4-21.76 148.91-22.29 149.42-22.81 150.19-22.81L150.19-22.81ZM166.13-12.7Q165.11-13.32 163.89-13.69 162.67-14.06 161.56-14.06L161.56-14.06Q160.27-14.06 159.48-13.58 158.7-13.1 158.7-12.11L158.7-12.11Q158.7-11.13 159.58-10.62 160.45-10.11 162.24-9.59L162.24-9.59Q163.94-9.09 165.02-8.6 166.1-8.11 166.85-7.15 167.61-6.2 167.61-4.62L167.61-4.62Q167.61-2.31 165.86-1.11 164.12 0.09 161.53 0.09L161.53 0.09Q159.71 0.09 158-0.49 156.29-1.08 155.12-2.16L155.12-2.16 156.2-4.25Q157.22-3.33 158.71-2.77 160.21-2.22 161.63-2.22L161.63-2.22Q163.04-2.22 163.91-2.74 164.77-3.27 164.77-4.35L164.77-4.35Q164.77-5.46 163.86-6.01 162.95-6.57 161.1-7.12L161.1-7.12Q159.47-7.58 158.44-8.06 157.4-8.54 156.68-9.46 155.95-10.39 155.95-11.87L155.95-11.87Q155.95-14.15 157.62-15.29 159.28-16.43 161.78-16.43L161.78-16.43Q163.26-16.43 164.69-16.01 166.13-15.6 167.17-14.89L167.17-14.89 166.13-12.7ZM171.4 0L171.4-16.31 174.26-16.31 174.26 0 171.4 0ZM172.82-22.81Q173.59-22.81 174.1-22.29 174.6-21.76 174.6-20.96L174.6-20.96Q174.6-20.16 174.1-19.64 173.59-19.11 172.82-19.11L172.82-19.11Q172.05-19.11 171.54-19.64 171.03-20.16 171.03-20.96L171.03-20.96Q171.03-21.76 171.54-22.29 172.05-22.81 172.82-22.81L172.82-22.81ZM183.51 0L177.13-16.31 180.18-16.31 185.09-2.84 189.96-16.31 192.85-16.31 186.5 0 183.51 0ZM207.1-16.31L209.99-16.31 209.99 0 207.1 0 207.1-3.45Q205.49 0.03 201.05 0.09L201.05 0.09Q198.22 0.09 196.61-1.59 195.01-3.27 195.01-6.23L195.01-6.23 195.01-16.31 197.91-16.31 197.91-7Q197.91-4.93 199.03-3.78 200.16-2.62 202.13-2.62L202.13-2.62Q204.41-2.65 205.75-4.24 207.1-5.83 207.1-8.29L207.1-8.29 207.1-16.31ZM215.73 0L215.73-22.87 218.59-22.87 218.59 0 215.73 0ZM224.36 0L224.36-16.31 227.23-16.31 227.23 0 224.36 0ZM225.78-22.81Q226.55-22.81 227.06-22.29 227.56-21.76 227.56-20.96L227.56-20.96Q227.56-20.16 227.06-19.64 226.55-19.11 225.78-19.11L225.78-19.11Q225.01-19.11 224.5-19.64 223.99-20.16 223.99-20.96L223.99-20.96Q223.99-21.76 224.5-22.29 225.01-22.81 225.78-22.81L225.78-22.81Z" transform="translate(-1.1700000762939453, 22.8700008392334)"></path></g><!----><!----><!----><!----><!----><!----><!----></g></g><!----></g></g></g><defs v-gra="od"></defs></svg>