<svg data-v-70b83f88="" version="1.0" xmlns="http://www.w3.org/2000/svg" xmlns:xlink="http://www.w3.org/1999/xlink" viewBox="0 0 340.000000 250.000000" preserveAspectRatio="xMidYMid meet" color-interpolation-filters="sRGB" style="margin: auto;"><rect data-v-70b83f88="" x="0" y="0" width="100%" height="100%" fill="#feffff" fill-opacity="1" class="background"></rect><rect data-v-70b83f88="" x="0" y="0" width="100%" height="100%" fill="url(#watermark)" fill-opacity="1" class="watermarklayer"></rect><g data-v-70b83f88="" fill="#f49434" class="iconlinesvg-g iconlinesvg" transform="translate(81.37290954589844,99.88101196289062)"><g class="tp-name" transform="translate(0,0)"><g transform="translate(0, 0)"><g><g class="imagesvg"><g><rect fill="#f49434" fill-opacity="0" stroke-width="2" x="0" y="0" width="38.282617130613964" height="36.08197733307002" class="image-rect"></rect><svg x="0" y="0" width="38.282617130613964" height="36.08197733307002" filtersec="colorsb5104047254" class="image-svg-svg primary" style="overflow: visible;"><svg xmlns="http://www.w3.org/2000/svg" viewBox="8.695907592773438 72.0003662109375 1486.26904296875 1400.8302001953125"><g fill-rule="evenodd" clip-rule="evenodd" fill="#F19533"><path d="M218.033 481.536c254.394-351.747 640.812-506.734 862.895-346.114 206.795 149.563 198.306 520.072-9.192 854.359L855.313 837.538h-.02c100.949-194.465 95.961-397.26-22.854-483.188-138.681-100.293-379.933-3.531-538.771 216.084-158.835 219.635-175.186 479.051-36.524 579.325 74.535 53.924 178.726 50.878 283.813 2.438l157.827 215.956c-195.623 118.511-399.813 142.104-539.253 41.279-222.088-160.649-195.879-576.161 58.502-927.896z"></path><path d="M331.614 617.603l1163.351 841.389-561.765 5.555z"></path></g></svg></svg><!----></g></g></g></g><g transform="translate(42, 1.6462584917186902)"><g data-gra="path-name" fill="#f49434" transform="scale(1)"><path d="M18.70-4.10L18.70-22.12L27.09-22.12L27.09 0L18.70 0L18.70-1.32Q18.06 0 16.10 0L16.10 0L6.38 0Q2.78 0 2.78-3.60L2.78-3.60L2.78-22.12L11.17-22.12L11.17-4.10Q11.17-3.19 11.42-2.94Q11.67-2.69 12.59-2.69L12.59-2.69L17.06-2.69Q18.70-2.69 18.70-4.10L18.70-4.10Z" transform="translate(-2.7818596402330886, 28.365847479098054)"></path></g></g><g transform="translate(70, 1.6462584917186902)"><g data-gra="path-name" fill="#f49434" transform="scale(1)"><path d="M11.17-18.01L11.17-12.68L19.43-12.68L19.43-18.01Q19.43-18.88 19.15-19.15Q18.88-19.43 18.01-19.43L18.01-19.43L12.59-19.43Q11.67-19.43 11.42-19.15Q11.17-18.88 11.17-18.01L11.17-18.01ZM6.38-22.12L6.38-22.12L23.94-22.12Q27.54-22.12 27.54-18.52L27.54-18.52L27.54-9.99L11.17-9.99L11.17-4.10Q11.17-3.19 11.42-2.94Q11.67-2.69 12.59-2.69L12.59-2.69L17.97-2.69Q18.88-2.69 19.13-2.94Q19.38-3.19 19.38-4.10L19.38-4.10L19.38-7.02L27.50-7.02L27.50-3.60Q27.50 0 23.90 0L23.90 0L6.38 0Q2.78 0 2.78-3.60L2.78-3.60L2.78-18.52Q2.78-22.12 6.38-22.12Z" transform="translate(-2.781859640233089, 28.365847479098054)"></path></g></g><g transform="translate(98, 1.6462584917186902)"><g data-gra="path-name" fill="#f49434" transform="scale(1)"><path d="M11.17-18.01L11.17-12.68L19.43-12.68L19.43-18.01Q19.43-18.88 19.15-19.15Q18.88-19.43 18.01-19.43L18.01-19.43L12.59-19.43Q11.67-19.43 11.42-19.15Q11.17-18.88 11.17-18.01L11.17-18.01ZM6.38-22.12L6.38-22.12L23.94-22.12Q27.54-22.12 27.54-18.52L27.54-18.52L27.54-9.99L11.17-9.99L11.17-4.10Q11.17-3.19 11.42-2.94Q11.67-2.69 12.59-2.69L12.59-2.69L17.97-2.69Q18.88-2.69 19.13-2.94Q19.38-3.19 19.38-4.10L19.38-4.10L19.38-7.02L27.50-7.02L27.50-3.60Q27.50 0 23.90 0L23.90 0L6.38 0Q2.78 0 2.78-3.60L2.78-3.60L2.78-18.52Q2.78-22.12 6.38-22.12Z" transform="translate(-2.781859640233089, 28.365847479098054)"></path></g></g><g transform="translate(126, 1.6462584917186902)"><g data-gra="path-name" fill="#f49434" transform="scale(1)"><path d="M14.09-22.12L14.09-22.12L23.81-22.12Q27.41-22.12 27.41-18.52L27.41-18.52L27.41 0L19.02 0L19.02-18.01Q19.02-18.88 18.77-19.15Q18.52-19.43 17.60-19.43L17.60-19.43L13.13-19.43Q11.49-19.43 11.49-18.01L11.49-18.01L11.49 0L3.10 0L3.10-22.12L11.49-22.12L11.49-20.80Q12.13-22.12 14.09-22.12Z" transform="translate(-3.1010894350139346, 28.365847479098054)"></path></g></g><g transform="translate(154, 1.6462584917186902)"><g data-gra="path-name" fill="#f49434" transform="scale(1)"><path d="M17.24-4.10L17.24-4.10L17.24-8.25Q17.24-9.12 16.96-9.39Q16.69-9.67 15.82-9.67L15.82-9.67L5.93-9.67Q2.33-9.67 2.33-13.27L2.33-13.27L2.33-18.52Q2.33-22.12 5.93-22.12L5.93-22.12L21.66-22.12Q25.26-22.12 25.26-18.52L25.26-18.52L25.26-15.23L17.15-15.23L17.15-18.01Q17.15-18.88 16.87-19.15Q16.60-19.43 15.73-19.43L15.73-19.43L12.13-19.43Q11.22-19.43 10.97-19.15Q10.72-18.88 10.72-18.01L10.72-18.01L10.72-13.77Q10.72-12.86 10.97-12.61Q11.22-12.36 12.13-12.36L12.13-12.36L21.98-12.36Q25.58-12.36 25.58-8.76L25.58-8.76L25.58-3.60Q25.58 0 21.98 0L21.98 0L6.11 0Q2.51 0 2.51-3.60L2.51-3.60L2.51-6.89L10.67-6.89L10.67-4.10Q10.67-3.19 10.95-2.94Q11.22-2.69 12.09-2.69L12.09-2.69L15.82-2.69Q16.69-2.69 16.96-2.94Q17.24-3.19 17.24-4.10Z" transform="translate(-2.3258170762604515, 28.365847479098054)"></path></g></g></g><g data-gra="path-slogan" fill-rule="" class="tp-slogan" fill="#f49434" transform="translate(5,42.08197784423828)"><rect x="0" height="1" y="3.580000400543213" width="60.47709083557129"></rect><rect height="1" y="3.580000400543213" width="60.47709083557129" x="106.77709007263184"></rect><g transform="translate(63.47709083557129,0)"><g transform="scale(1)"><path d="M1.08-7.87L1.08 0L2.08 0L2.08-2.50L3.43-4.09L5.78 0L6.90 0L4.06-4.87L6.52-7.87L5.39-7.87L2.11-3.92L2.08-3.92L2.08-7.87ZM8.03-7.87L8.03 0L9.02 0L9.02-7.87ZM11.21-1.72L10.61-1.02C10.95-0.66 11.36-0.38 11.83-0.17C12.30 0.04 12.82 0.14 13.37 0.14C13.78 0.14 14.16 0.09 14.48-0.03C14.81-0.15 15.09-0.31 15.32-0.51C15.56-0.71 15.73-0.95 15.86-1.22C15.98-1.50 16.04-1.79 16.04-2.10C16.04-2.39 16.00-2.64 15.92-2.86C15.83-3.08 15.72-3.27 15.58-3.44C15.43-3.60 15.26-3.75 15.06-3.87C14.86-3.99 14.65-4.10 14.42-4.20L13.31-4.68C13.15-4.74 12.99-4.81 12.84-4.89C12.69-4.97 12.55-5.05 12.42-5.15C12.29-5.25 12.19-5.37 12.11-5.50C12.04-5.63 12.00-5.80 12.00-5.99C12.00-6.35 12.13-6.63 12.40-6.83C12.67-7.04 13.02-7.14 13.46-7.14C13.83-7.14 14.16-7.07 14.45-6.94C14.75-6.81 15.01-6.63 15.25-6.40L15.79-7.04C15.51-7.33 15.17-7.57 14.77-7.75C14.37-7.93 13.94-8.02 13.46-8.02C13.10-8.02 12.77-7.96 12.47-7.86C12.17-7.76 11.91-7.61 11.69-7.42C11.47-7.23 11.30-7.01 11.18-6.76C11.05-6.50 10.99-6.22 10.99-5.93C10.99-5.64 11.04-5.39 11.14-5.17C11.23-4.95 11.36-4.76 11.51-4.60C11.66-4.44 11.83-4.30 12.02-4.19C12.22-4.08 12.40-3.98 12.59-3.90L13.72-3.41C13.90-3.32 14.07-3.24 14.23-3.16C14.39-3.08 14.53-2.99 14.65-2.89C14.76-2.79 14.85-2.67 14.92-2.53C14.99-2.39 15.02-2.22 15.02-2.02C15.02-1.63 14.88-1.32 14.59-1.09C14.30-0.85 13.90-0.73 13.38-0.73C12.97-0.73 12.58-0.82 12.20-1.00C11.82-1.18 11.49-1.42 11.21-1.72ZM17.59-7.87L17.59 0L18.59 0L18.59-7.87ZM19.67-7.87L22.19 0L23.35 0L25.85-7.87L24.83-7.87L23.57-3.62C23.43-3.15 23.31-2.72 23.20-2.32C23.08-1.92 22.96-1.48 22.81-1.02L22.76-1.02C22.61-1.48 22.48-1.92 22.37-2.32C22.27-2.72 22.14-3.15 22.00-3.62L20.74-7.87ZM26.77-7.87L26.77-3.25C26.77-2.62 26.84-2.09 26.99-1.66C27.13-1.22 27.33-0.87 27.58-0.61C27.83-0.34 28.13-0.15 28.48-0.03C28.83 0.09 29.20 0.14 29.60 0.14C30.00 0.14 30.38 0.09 30.72-0.03C31.06-0.15 31.36-0.34 31.61-0.61C31.87-0.87 32.06-1.22 32.21-1.66C32.35-2.09 32.42-2.62 32.42-3.25L32.42-7.87L31.46-7.87L31.46-3.23C31.46-2.76 31.42-2.36 31.32-2.04C31.22-1.72 31.09-1.46 30.92-1.27C30.76-1.08 30.56-0.94 30.34-0.86C30.11-0.77 29.87-0.73 29.60-0.73C29.35-0.73 29.11-0.77 28.88-0.86C28.66-0.94 28.47-1.08 28.30-1.27C28.14-1.46 28.01-1.72 27.91-2.04C27.82-2.36 27.77-2.76 27.77-3.23L27.77-7.87ZM34.55-7.87L34.55 0L38.99 0L38.99-0.85L35.54-0.85L35.54-7.87ZM40.38-7.87L40.38 0L41.38 0L41.38-7.87Z" transform="translate(-1.08, 8.016)"></path></g></g></g></g><defs v-gra="od"></defs></svg>