<svg xmlns="http://www.w3.org/2000/svg" x="0" y="0" filtersec="colorsb7224559699" class="image-svg-svg primary" style="overflow: visible;"><svg version="1.1" id="cube" xmlns="http://www.w3.org/2000/svg" xmlns:xlink="http://www.w3.org/1999/xlink" x="0px" y="0px" viewBox="7.2150421142578125 6.1374945640563965 543.60498046875 544.0101318359375" enable-background="new 0 0 555.92 553.7" xml:space="preserve"><path fill="currentColor" d="M240.56,8.95c36.54,108.77,11.68,233.56-74.9,320.18l-107.4,107.4c4.55,6.34,9.37,12.57,14.58,18.59
	l134.42-134.44c85.32-85.31,127.49-197.23,127.13-309.06C303.47,5.26,271.76,4.52,240.56,8.95z M550.82,263.64
	c-1.27-23.73-5.57-47.29-12.98-70.09c-81.55,16.17-159.45,55.64-222.69,118.87L125.23,502.35c6.66,4.59,13.51,8.77,20.44,12.71
	l161-161C373.62,287.14,463.33,257.04,550.82,263.64z M471.8,85.62c-15.15-15.15-31.79-27.89-49.24-38.73
	c-17.92,76-56.45,148.12-115.77,207.43L88.75,472.38c5.69,5.54,11.47,10.84,17.47,15.77L381.5,212.86
	c36.96-36.95,78.98-65.57,123.77-86.44C495.56,112.04,484.52,98.33,471.8,85.62z M543.91,340.9
	c-99.62-20.88-207.48,7.16-284.79,84.52l-97.82,97.77c101.34,48.77,226.48,31.44,310.48-52.59
	C508.86,433.55,532.68,388.41,543.91,340.9z M160.49,33.44c-26.56,12.92-51.61,30.11-73.67,52.19
	C-4.61,177.06-17.2,317.24,48.63,422.35l45.67-45.65C187.09,283.89,209.07,147.21,160.49,33.44z"></path></svg></svg>