<svg data-v-70b83f88="" version="1.0" xmlns="http://www.w3.org/2000/svg" xmlns:xlink="http://www.w3.org/1999/xlink" viewBox="0 0 340.000000 250.000000" preserveAspectRatio="xMidYMid meet" color-interpolation-filters="sRGB" style="margin: auto;"><rect data-v-70b83f88="" x="0" y="0" width="100%" height="100%" fill="#680021" fill-opacity="1" class="background"></rect><rect data-v-70b83f88="" x="0" y="0" width="100%" height="100%" fill="url(#watermark)" fill-opacity="1" class="watermarklayer"></rect><g data-v-70b83f88="" fill="#feffff" class="singlesvg" transform="translate(66.05499267578125,101.84783172607422)"><g class="tp-name" transform="translate(0,0)"><g><rect fill-opacity="0" stroke="#feffff" stroke-width="2" x="0" y="0" height="32.1483359047829" width="32.1483359047829"></rect><g data-gra="path-name" transform="translate(5.454168066832366,3)"><g transform="scale(1)"><path d="M9.09-19.35L9.09-19.35L9.09-3.27Q9.09-2.55 9.31-2.35Q9.53-2.15 10.22-2.15L10.22-2.15L15.02-2.15Q15.71-2.15 15.93-2.35Q16.15-2.55 16.15-3.27L16.15-3.27L16.15-19.35Q16.15-20.07 15.93-20.27Q15.71-20.47 15.02-20.47L15.02-20.47L10.22-20.47Q9.53-20.47 9.31-20.27Q9.09-20.07 9.09-19.35ZM11.38 0L5.06 0Q2.18 0 2.18-2.87L2.18-2.87L2.18-19.75Q2.18-22.62 5.06-22.62L5.06-22.62L20.15-22.62Q23.02-22.62 23.02-19.75L23.02-19.75L23.02-2.87Q23.02 0 20.15 0L20.15 0L18.87 0L23.42 3.53L15.53 3.53L11.38 0Z" transform="translate(-2.182058629050033, 22.620674454485343)"></path></g></g></g><g transform="translate(35.1483359047829,0)" mask="url(#79b49616-3c95-45a9-b13b-91f2b4bee5f4)"><rect data-gra="graph-name" stroke="#feffff" stroke-width="2" x="0" y="0" height="32.1483359047829" width="32.1483359047829"></rect><g data-gra="path-name" fill="#680021" transform="translate(5.544167265745941,3)"><g transform="scale(1)"><path d="M2.47-22.62L9.49-22.62L9.49-3.27Q9.49-2.55 9.69-2.35Q9.89-2.15 10.62-2.15L10.62-2.15L15.38-2.15Q16.07-2.15 16.29-2.35Q16.51-2.55 16.51-3.27L16.51-3.27L16.51-22.62L23.53-22.62L23.53-2.87Q23.53 0 20.66 0L20.66 0L5.35 0Q2.47 0 2.47-2.87L2.47-2.87L2.47-22.62Z" transform="translate(-2.4729997795900376, 22.620674454485343)"></path></g></g></g><g transform="translate(70.2966718095658,0)"><rect fill-opacity="0" stroke="#feffff" stroke-width="2" x="0" y="0" height="32.1483359047829" width="32.1483359047829"></rect><g data-gra="path-name" transform="translate(6.764167532774749,3)"><g transform="scale(1)"><path d="M10.00-10.51L10.00-2.15L21.35-2.15L21.35 0L2.73 0L2.73-22.62L20.88-22.62L20.88-20.47L10.00-20.47L10.00-12.66L19.38-12.66L19.38-10.51L10.00-10.51Z" transform="translate(-2.7275732863125413, 22.620674454485343)"></path></g></g></g><g transform="translate(105.44500771434869,0)" mask="url(#ae681be5-3eca-4668-850f-c5eb6c33ed5b)"><rect data-gra="graph-name" stroke="#feffff" stroke-width="2" x="0" y="0" height="32.1483359047829" width="32.1483359047829"></rect><g data-gra="path-name" fill="#680021" transform="translate(6.764167532774749,3)"><g transform="scale(1)"><path d="M10.00-10.51L10.00-2.15L21.35-2.15L21.35 0L2.73 0L2.73-22.62L20.88-22.62L20.88-20.47L10.00-20.47L10.00-12.66L19.38-12.66L19.38-10.51L10.00-10.51Z" transform="translate(-2.7275732863125413, 22.620674454485343)"></path></g></g></g><g transform="translate(140.5933436191316,0)"><rect fill-opacity="0" stroke="#feffff" stroke-width="2" x="0" y="0" height="32.1483359047829" width="32.1483359047829"></rect><g data-gra="path-name" transform="translate(5.254167303892913,3)"><g transform="scale(1)"><path d="M17.86-6.51L17.86-22.62L24.37-22.62L24.37 0L18.33 0L9.20-16.07L9.20 0L2.73 0L2.73-22.62L8.84-22.62L17.86-6.51Z" transform="translate(-2.727573286312541, 22.620674454485343)"></path></g></g></g><g transform="translate(175.74167952391448,0)" mask="url(#6307ea24-2cea-496e-ab24-85874a7cec76)"><rect data-gra="graph-name" stroke="#feffff" stroke-width="2" x="0" y="0" height="32.1483359047829" width="32.1483359047829"></rect><g data-gra="path-name" fill="#680021" transform="translate(5.819168791624847,3)"><g transform="scale(1)"><path d="M15.53-3.27L15.53-3.27L15.53-9.20Q15.53-9.89 15.33-10.11Q15.13-10.33 14.40-10.33L14.40-10.33L4.91-10.33Q2.04-10.33 2.04-13.20L2.04-13.20L2.04-19.75Q2.04-22.62 4.91-22.62L4.91-22.62L19.57-22.62Q22.44-22.62 22.44-19.75L22.44-19.75L22.44-15.53L15.42-15.53L15.42-19.35Q15.42-20.07 15.20-20.27Q14.98-20.47 14.29-20.47L14.29-20.47L10.18-20.47Q9.46-20.47 9.26-20.27Q9.06-20.07 9.06-19.35L9.06-19.35L9.06-13.60Q9.06-12.87 9.26-12.67Q9.46-12.47 10.18-12.47L10.18-12.47L19.67-12.47Q22.55-12.47 22.55-9.60L22.55-9.60L22.55-2.87Q22.55 0 19.67 0L19.67 0L5.02 0Q2.15 0 2.15-2.87L2.15-2.87L2.15-7.09L9.16-7.09L9.16-3.27Q9.16-2.55 9.38-2.35Q9.60-2.15 10.29-2.15L10.29-2.15L14.40-2.15Q15.13-2.15 15.33-2.35Q15.53-2.55 15.53-3.27Z" transform="translate(-2.0365880537800307, 22.620674454485343)"></path></g></g></g></g><g data-gra="path-slogan" fill-rule="" class="tp-slogan" fill="#feffff" transform="translate(83.79500770568848,38.148338317871094)"><!----><!----><g transform="scale(1, 1)"><g transform="scale(1)"><path d="M1.08-7.87L1.08 0L2.08 0L2.08-2.50L3.43-4.09L5.78 0L6.90 0L4.06-4.87L6.52-7.87L5.39-7.87L2.11-3.92L2.08-3.92L2.08-7.87ZM8.03-7.87L8.03 0L9.02 0L9.02-7.87ZM11.21-1.72L10.61-1.02C10.95-0.66 11.36-0.38 11.83-0.17C12.30 0.04 12.82 0.14 13.37 0.14C13.78 0.14 14.16 0.09 14.48-0.03C14.81-0.15 15.09-0.31 15.32-0.51C15.56-0.71 15.73-0.95 15.86-1.22C15.98-1.50 16.04-1.79 16.04-2.10C16.04-2.39 16.00-2.64 15.92-2.86C15.83-3.08 15.72-3.27 15.58-3.44C15.43-3.60 15.26-3.75 15.06-3.87C14.86-3.99 14.65-4.10 14.42-4.20L13.31-4.68C13.15-4.74 12.99-4.81 12.84-4.89C12.69-4.97 12.55-5.05 12.42-5.15C12.29-5.25 12.19-5.37 12.11-5.50C12.04-5.63 12.00-5.80 12.00-5.99C12.00-6.35 12.13-6.63 12.40-6.83C12.67-7.04 13.02-7.14 13.46-7.14C13.83-7.14 14.16-7.07 14.45-6.94C14.75-6.81 15.01-6.63 15.25-6.40L15.79-7.04C15.51-7.33 15.17-7.57 14.77-7.75C14.37-7.93 13.94-8.02 13.46-8.02C13.10-8.02 12.77-7.96 12.47-7.86C12.17-7.76 11.91-7.61 11.69-7.42C11.47-7.23 11.30-7.01 11.18-6.76C11.05-6.50 10.99-6.22 10.99-5.93C10.99-5.64 11.04-5.39 11.14-5.17C11.23-4.95 11.36-4.76 11.51-4.60C11.66-4.44 11.83-4.30 12.02-4.19C12.22-4.08 12.40-3.98 12.59-3.90L13.72-3.41C13.90-3.32 14.07-3.24 14.23-3.16C14.39-3.08 14.53-2.99 14.65-2.89C14.76-2.79 14.85-2.67 14.92-2.53C14.99-2.39 15.02-2.22 15.02-2.02C15.02-1.63 14.88-1.32 14.59-1.09C14.30-0.85 13.90-0.73 13.38-0.73C12.97-0.73 12.58-0.82 12.20-1.00C11.82-1.18 11.49-1.42 11.21-1.72ZM17.59-7.87L17.59 0L18.59 0L18.59-7.87ZM19.67-7.87L22.19 0L23.35 0L25.85-7.87L24.83-7.87L23.57-3.62C23.43-3.15 23.31-2.72 23.20-2.32C23.08-1.92 22.96-1.48 22.81-1.02L22.76-1.02C22.61-1.48 22.48-1.92 22.37-2.32C22.27-2.72 22.14-3.15 22.00-3.62L20.74-7.87ZM26.77-7.87L26.77-3.25C26.77-2.62 26.84-2.09 26.99-1.66C27.13-1.22 27.33-0.87 27.58-0.61C27.83-0.34 28.13-0.15 28.48-0.03C28.83 0.09 29.20 0.14 29.60 0.14C30.00 0.14 30.38 0.09 30.72-0.03C31.06-0.15 31.36-0.34 31.61-0.61C31.87-0.87 32.06-1.22 32.21-1.66C32.35-2.09 32.42-2.62 32.42-3.25L32.42-7.87L31.46-7.87L31.46-3.23C31.46-2.76 31.42-2.36 31.32-2.04C31.22-1.72 31.09-1.46 30.92-1.27C30.76-1.08 30.56-0.94 30.34-0.86C30.11-0.77 29.87-0.73 29.60-0.73C29.35-0.73 29.11-0.77 28.88-0.86C28.66-0.94 28.47-1.08 28.30-1.27C28.14-1.46 28.01-1.72 27.91-2.04C27.82-2.36 27.77-2.76 27.77-3.23L27.77-7.87ZM34.55-7.87L34.55 0L38.99 0L38.99-0.85L35.54-0.85L35.54-7.87ZM40.38-7.87L40.38 0L41.38 0L41.38-7.87Z" transform="translate(-1.08, 8.016)"></path></g></g></g></g><mask id="79b49616-3c95-45a9-b13b-91f2b4bee5f4"><rect data-gra="graph-name" stroke="white" stroke-width="2" x="0" y="0" height="32.1483359047829" width="32.1483359047829" fill="white"></rect><g data-gra="path-name" transform="translate(5.544167265745941,3)" fill="black"><g transform="scale(1)"><path d="M2.47-22.62L9.49-22.62L9.49-3.27Q9.49-2.55 9.69-2.35Q9.89-2.15 10.62-2.15L10.62-2.15L15.38-2.15Q16.07-2.15 16.29-2.35Q16.51-2.55 16.51-3.27L16.51-3.27L16.51-22.62L23.53-22.62L23.53-2.87Q23.53 0 20.66 0L20.66 0L5.35 0Q2.47 0 2.47-2.87L2.47-2.87L2.47-22.62Z" transform="translate(-2.4729997795900376, 22.620674454485343)"></path></g></g></mask><mask id="ae681be5-3eca-4668-850f-c5eb6c33ed5b"><rect data-gra="graph-name" stroke="white" stroke-width="2" x="0" y="0" height="32.1483359047829" width="32.1483359047829" fill="white"></rect><g data-gra="path-name" transform="translate(6.764167532774749,3)" fill="black"><g transform="scale(1)"><path d="M10.00-10.51L10.00-2.15L21.35-2.15L21.35 0L2.73 0L2.73-22.62L20.88-22.62L20.88-20.47L10.00-20.47L10.00-12.66L19.38-12.66L19.38-10.51L10.00-10.51Z" transform="translate(-2.7275732863125413, 22.620674454485343)"></path></g></g></mask><mask id="6307ea24-2cea-496e-ab24-85874a7cec76"><rect data-gra="graph-name" stroke="white" stroke-width="2" x="0" y="0" height="32.1483359047829" width="32.1483359047829" fill="white"></rect><g data-gra="path-name" transform="translate(5.819168791624847,3)" fill="black"><g transform="scale(1)"><path d="M15.53-3.27L15.53-3.27L15.53-9.20Q15.53-9.89 15.33-10.11Q15.13-10.33 14.40-10.33L14.40-10.33L4.91-10.33Q2.04-10.33 2.04-13.20L2.04-13.20L2.04-19.75Q2.04-22.62 4.91-22.62L4.91-22.62L19.57-22.62Q22.44-22.62 22.44-19.75L22.44-19.75L22.44-15.53L15.42-15.53L15.42-19.35Q15.42-20.07 15.20-20.27Q14.98-20.47 14.29-20.47L14.29-20.47L10.18-20.47Q9.46-20.47 9.26-20.27Q9.06-20.07 9.06-19.35L9.06-19.35L9.06-13.60Q9.06-12.87 9.26-12.67Q9.46-12.47 10.18-12.47L10.18-12.47L19.67-12.47Q22.55-12.47 22.55-9.60L22.55-9.60L22.55-2.87Q22.55 0 19.67 0L19.67 0L5.02 0Q2.15 0 2.15-2.87L2.15-2.87L2.15-7.09L9.16-7.09L9.16-3.27Q9.16-2.55 9.38-2.35Q9.60-2.15 10.29-2.15L10.29-2.15L14.40-2.15Q15.13-2.15 15.33-2.35Q15.53-2.55 15.53-3.27Z" transform="translate(-2.0365880537800307, 22.620674454485343)"></path></g></g></mask><defs v-gra="od"></defs></svg>