<svg data-v-70b83f88="" version="1.0" xmlns="http://www.w3.org/2000/svg" xmlns:xlink="http://www.w3.org/1999/xlink" viewBox="0 0 340.000000 250.000000" preserveAspectRatio="xMidYMid meet" color-interpolation-filters="sRGB" style="margin: auto;"><rect data-v-70b83f88="" x="0" y="0" width="100%" height="100%" fill="#feffff" fill-opacity="1" class="background"></rect><rect data-v-70b83f88="" x="0" y="0" width="100%" height="100%" fill="url(#watermark)" fill-opacity="1" class="watermarklayer"></rect><g data-v-70b83f88="" fill="#333" class="iconlettersvg-g iconlettersvg" transform="translate(128.62505702022463,101.28322646208107)"><g><g class="tp-name" transform="translate(0,0)"><g transform="scale(1)"><g transform="translate(0, 0)"><g class="name-imagesvg"><g><rect fill="#333" fill-opacity="0" stroke-width="2" x="0" y="0" width="13.301503618972319" height="33.241797947680304" class="image-rect"></rect><svg x="0" y="0" width="13.301503618972319" height="33.241797947680304" filtersec="colorsb9864818902" class="image-svg-svg primary" style="overflow: visible;"><svg xmlns="http://www.w3.org/2000/svg" viewBox="0 0 5.02 12.56"><title>资源 7</title><path d="M3.22 9.33a1.21 1.21 0 0 1-.71.36v1.5l.65 1.37 1.25-.74-1.18-2.5z" fill="#ff5454"></path><path d="M1.5 8.4V3.26a1.8 1.8 0 0 1 .3-1.37 1.19 1.19 0 0 1 .52-.32V.06a3.2 3.2 0 0 0-.71.26 3 3 0 0 0-1.44 1.6A3.35 3.35 0 0 0 0 3v5.83a3.48 3.48 0 0 0 .1 1 2 2 0 0 0 1.51 1.36 3.05 3.05 0 0 0 .52.05V9.68a.81.81 0 0 1-.33-.14c-.34-.25-.3-.73-.3-1.14z" fill="#00d6cf"></path><path d="M3.83 8.09a1.09 1.09 0 0 1 0-.18V2.65a1.37 1.37 0 0 0-.4-1.23 1.27 1.27 0 0 0-.72-.21v.3a.85.85 0 0 1 .52.17c.35.24.3.73.3 1.13V8a3.71 3.71 0 0 1 0 .94l.16.35a2.29 2.29 0 0 0 .14-1.2zm1-7A1.93 1.93 0 0 0 3.41.06 2.41 2.41 0 0 0 2.7 0v.3a2.47 2.47 0 0 1 .61 0 1.72 1.72 0 0 1 1.22.94 3.27 3.27 0 0 1 .19 1.43v5.6a2.75 2.75 0 0 1-.2 1.09 2.55 2.55 0 0 1-.49.72l.13.27a3 3 0 0 0 .63-.9A2.92 2.92 0 0 0 5 8.22V2.89a4 4 0 0 0-.2-1.76zm-.41 7.22V2.77a3 3 0 0 0-.17-1.31 1.47 1.47 0 0 0-1-.81 2.92 2.92 0 0 0-.51 0v.3a1.43 1.43 0 0 1 .91.26 1.57 1.57 0 0 1 .51 1.44v5.21a1 1 0 0 0 0 .17 2.26 2.26 0 0 1-.36 1.49l.13.28a1.9 1.9 0 0 0 .34-.54 2.25 2.25 0 0 0 .15-.95z" fill="#7f75ff"></path></svg></svg><!----></g></g></g><g transform="translate(13.301503618972319, 0)"><g class="name-imagesvg"><g><rect fill="#333" fill-opacity="0" stroke-width="2" x="0" y="0" width="14.097990543383224" height="33.241797947680304" class="image-rect"></rect><svg x="0" y="0" width="14.097990543383224" height="33.241797947680304" filtersec="colorsb6034495896" class="image-svg-svg primary" style="overflow: visible;"><svg xmlns="http://www.w3.org/2000/svg" viewBox="0 0 4.85 11.45"><title>资源 21</title><path d="M3.3 9.75a1.62 1.62 0 0 0 .35-1.09V.18h-.3v8.53a1.25 1.25 0 0 1-.27.86 1.07 1.07 0 0 1-.47.32v.31a1.17 1.17 0 0 0 .3-.14 1.61 1.61 0 0 0 .39-.31zM4.55 0v8.68a2.59 2.59 0 0 1-1.31 2.16 2.53 2.53 0 0 1-.33.16 1.49 1.49 0 0 1-.3.09v.3a2.44 2.44 0 0 0 .75-.29 2.94 2.94 0 0 0 1.49-2.47V0zM3.12 10.58a2.19 2.19 0 0 0 1.13-1.86V.09L4 .13v8.49a2 2 0 0 1-.44 1.31 2 2 0 0 1-.47.39 1.89 1.89 0 0 1-.45.19v.28l.25-.07a1.46 1.46 0 0 0 .23-.14z" fill="#00d6cf"></path><path d="M2.23 9.94a.67.67 0 0 1-.47-.18A1 1 0 0 1 1.5 9V.49L0 .72v8.63a2.05 2.05 0 0 0 1.49 2 2 2 0 0 0 .74.08z" fill="#ff5454"></path></svg></svg><!----></g></g></g><g transform="translate(27.399494162355545, 0)"><g class="name-imagesvg"><g><rect fill="#333" fill-opacity="0" stroke-width="2" x="0" y="0" width="12.736977297408417" height="33.241797947680304" class="image-rect"></rect><svg x="0" y="0" width="12.736977297408417" height="33.241797947680304" filtersec="colorsb2402047987" class="image-svg-svg primary" style="overflow: visible;"><svg xmlns="http://www.w3.org/2000/svg" viewBox="0 0 4.46 11.64"><title>资源 16</title><path fill="#00d6cf" d="M3.82 4.57L0 5.14v1.41l3.82-.57V4.57z"></path><path fill="#7f75ff" d="M0 .66v1.41l4.46-.66V0L0 .66z"></path><path fill="#ff5454" d="M0 11.64l4.46-.66v-1.5L0 10.14v1.5z"></path><path d="M.6 9.67h.3V6.8H.6zM0 4.76h.3V2.41H0zm0 5h.3V6.88H0zm.6-5.09h.3V2.32H.6zm.6-2.4v2.31h.3V2.23zm0 7.32l.3-.05V6.71h-.3z" fill="#f7e700"></path></svg></svg><!----></g></g></g><g transform="translate(40.13647145976396, 0)"><g class="name-imagesvg"><g><rect fill="#333" fill-opacity="0" stroke-width="2" x="0" y="0" width="12.736977297408417" height="33.241797947680304" class="image-rect"></rect><svg x="0" y="0" width="12.736977297408417" height="33.241797947680304" filtersec="colorsb6839842034" class="image-svg-svg primary" style="overflow: visible;"><svg xmlns="http://www.w3.org/2000/svg" viewBox="0 0 4.46 11.64"><title>资源 16</title><path fill="#00d6cf" d="M3.82 4.57L0 5.14v1.41l3.82-.57V4.57z"></path><path fill="#7f75ff" d="M0 .66v1.41l4.46-.66V0L0 .66z"></path><path fill="#ff5454" d="M0 11.64l4.46-.66v-1.5L0 10.14v1.5z"></path><path d="M.6 9.67h.3V6.8H.6zM0 4.76h.3V2.41H0zm0 5h.3V6.88H0zm.6-5.09h.3V2.32H.6zm.6-2.4v2.31h.3V2.23zm0 7.32l.3-.05V6.71h-.3z" fill="#f7e700"></path></svg></svg><!----></g></g></g><g transform="translate(52.873448757172376, 0)"><g class="name-imagesvg"><g><rect fill="#333" fill-opacity="0" stroke-width="2" x="0" y="0" width="14.796137851176974" height="33.241797947680304" class="image-rect"></rect><svg x="0" y="0" width="14.796137851176974" height="33.241797947680304" filtersec="colorsb3894381416" class="image-svg-svg primary" style="overflow: visible;"><svg xmlns="http://www.w3.org/2000/svg" viewBox="0 0 5.23 11.75"><title>资源 12</title><path fill="#7f75ff" d="M0 1.96v9.79l1.5-.22V6.15L0 1.96z"></path><path fill="#00d6cf" d="M5.23 9.8V0l-1.5.22v5.39l1.5 4.19z"></path><path d="M0 .77L3.73 11.2h.3L.3.73zM.6.68l3.73 10.43h.3L.9.64zm.9-.13L1.2.6 4.93 11h.3z" fill="#ff5454"></path></svg></svg><!----></g></g></g><g transform="translate(67.66958660834935, 0)"><g class="name-imagesvg"><g><rect fill="#333" fill-opacity="0" stroke-width="2" x="0" y="0" width="15.038018333952161" height="33.241797947680304" class="image-rect"></rect><svg x="0" y="0" width="15.038018333952161" height="33.241797947680304" filtersec="colorsb5555250414" class="image-svg-svg primary" style="overflow: visible;"><svg xmlns="http://www.w3.org/2000/svg" viewBox="0 0 5.07 11.23"><title>资源 6</title><path d="M3.59.09A2.25 2.25 0 0 0 2.72 0v1.52a.71.71 0 0 1 .61.27 1.44 1.44 0 0 1 .24.85v.6L5.07 3V2A2 2 0 0 0 3.59.09z" fill="#f7e700"></path><path d="M3.29 5.25l-1 1.17c1 .83 1.29 1.07 1.29 1.94a1.67 1.67 0 0 1-.2.8 1.24 1.24 0 0 1-.31.34 1 1 0 0 1-.33.16v1.5a2.75 2.75 0 0 0 .91-.36 2.88 2.88 0 0 0 .79-.72 2.57 2.57 0 0 0 .48-.93 3.15 3.15 0 0 0 .17-1c-.02-1.31-.71-1.96-1.8-2.9z" fill="#00d6cf"></path><path d="M2.34 9.71a.69.69 0 0 1-.6-.27 1.44 1.44 0 0 1-.24-.85V8L0 8.21v1a2 2 0 0 0 .68 1.52 2.11 2.11 0 0 0 .8.42 2.2 2.2 0 0 0 .86.08z" fill="#7f75ff"></path><path d="M2.17 5.93C1 4.91.3 4.3.3 3a2.89 2.89 0 0 1 .15-.91 2.32 2.32 0 0 1 .43-.82 2.41 2.41 0 0 1 .68-.59 2.4 2.4 0 0 1 .78-.3V.07a2.84 2.84 0 0 0-.91.36 2.7 2.7 0 0 0-.78.72 2.76 2.76 0 0 0-.49.93 3.14 3.14 0 0 0-.16 1c0 1.4.78 2.06 2 3.12l.21-.2zM.9 3a2.4 2.4 0 0 1 .3-1.15 2.17 2.17 0 0 1 .5-.55 1.62 1.62 0 0 1 .56-.3h.08V.68a2.15 2.15 0 0 0-.65.25 2.35 2.35 0 0 0-.59.54 2.13 2.13 0 0 0-.36.7A2.45 2.45 0 0 0 .6 3c0 1.13.63 1.68 1.79 2.68l.21-.18h-.07C1.38 4.51.9 4.13.9 3zm.6-.09a1.67 1.67 0 0 1 .2-.8 1.24 1.24 0 0 1 .3-.38 1 1 0 0 1 .33-.16v-.3a1.26 1.26 0 0 0-.45.22 1.68 1.68 0 0 0-.4.44 2 2 0 0 0-.25 1c0 1 .39 1.36 1.54 2.29l.07.06L3 5C1.82 4 1.5 3.8 1.5 2.87z" fill="#ff5454"></path></svg></svg><!----></g></g></g></g></g></g><g data-gra="path-slogan" fill-rule="" class="tp-slogan" fill="#333" transform="translate(21.2266788482666,39.30603790283203)"><!----><!----><g transform="scale(1, 1)"><g transform="scale(1)"><path d="M1.08-7.87L1.08 0L2.08 0L2.08-2.50L3.43-4.09L5.78 0L6.90 0L4.06-4.87L6.52-7.87L5.39-7.87L2.11-3.92L2.08-3.92L2.08-7.87ZM8.03-7.87L8.03 0L9.02 0L9.02-7.87ZM11.21-1.72L10.61-1.02C10.95-0.66 11.36-0.38 11.83-0.17C12.30 0.04 12.82 0.14 13.37 0.14C13.78 0.14 14.16 0.09 14.48-0.03C14.81-0.15 15.09-0.31 15.32-0.51C15.56-0.71 15.73-0.95 15.86-1.22C15.98-1.50 16.04-1.79 16.04-2.10C16.04-2.39 16.00-2.64 15.92-2.86C15.83-3.08 15.72-3.27 15.58-3.44C15.43-3.60 15.26-3.75 15.06-3.87C14.86-3.99 14.65-4.10 14.42-4.20L13.31-4.68C13.15-4.74 12.99-4.81 12.84-4.89C12.69-4.97 12.55-5.05 12.42-5.15C12.29-5.25 12.19-5.37 12.11-5.50C12.04-5.63 12.00-5.80 12.00-5.99C12.00-6.35 12.13-6.63 12.40-6.83C12.67-7.04 13.02-7.14 13.46-7.14C13.83-7.14 14.16-7.07 14.45-6.94C14.75-6.81 15.01-6.63 15.25-6.40L15.79-7.04C15.51-7.33 15.17-7.57 14.77-7.75C14.37-7.93 13.94-8.02 13.46-8.02C13.10-8.02 12.77-7.96 12.47-7.86C12.17-7.76 11.91-7.61 11.69-7.42C11.47-7.23 11.30-7.01 11.18-6.76C11.05-6.50 10.99-6.22 10.99-5.93C10.99-5.64 11.04-5.39 11.14-5.17C11.23-4.95 11.36-4.76 11.51-4.60C11.66-4.44 11.83-4.30 12.02-4.19C12.22-4.08 12.40-3.98 12.59-3.90L13.72-3.41C13.90-3.32 14.07-3.24 14.23-3.16C14.39-3.08 14.53-2.99 14.65-2.89C14.76-2.79 14.85-2.67 14.92-2.53C14.99-2.39 15.02-2.22 15.02-2.02C15.02-1.63 14.88-1.32 14.59-1.09C14.30-0.85 13.90-0.73 13.38-0.73C12.97-0.73 12.58-0.82 12.20-1.00C11.82-1.18 11.49-1.42 11.21-1.72ZM17.59-7.87L17.59 0L18.59 0L18.59-7.87ZM19.67-7.87L22.19 0L23.35 0L25.85-7.87L24.83-7.87L23.57-3.62C23.43-3.15 23.31-2.72 23.20-2.32C23.08-1.92 22.96-1.48 22.81-1.02L22.76-1.02C22.61-1.48 22.48-1.92 22.37-2.32C22.27-2.72 22.14-3.15 22.00-3.62L20.74-7.87ZM26.77-7.87L26.77-3.25C26.77-2.62 26.84-2.09 26.99-1.66C27.13-1.22 27.33-0.87 27.58-0.61C27.83-0.34 28.13-0.15 28.48-0.03C28.83 0.09 29.20 0.14 29.60 0.14C30.00 0.14 30.38 0.09 30.72-0.03C31.06-0.15 31.36-0.34 31.61-0.61C31.87-0.87 32.06-1.22 32.21-1.66C32.35-2.09 32.42-2.62 32.42-3.25L32.42-7.87L31.46-7.87L31.46-3.23C31.46-2.76 31.42-2.36 31.32-2.04C31.22-1.72 31.09-1.46 30.92-1.27C30.76-1.08 30.56-0.94 30.34-0.86C30.11-0.77 29.87-0.73 29.60-0.73C29.35-0.73 29.11-0.77 28.88-0.86C28.66-0.94 28.47-1.08 28.30-1.27C28.14-1.46 28.01-1.72 27.91-2.04C27.82-2.36 27.77-2.76 27.77-3.23L27.77-7.87ZM34.55-7.87L34.55 0L38.99 0L38.99-0.85L35.54-0.85L35.54-7.87ZM40.38-7.87L40.38 0L41.38 0L41.38-7.87Z" transform="translate(-1.08, 8.016)"></path></g></g></g></g><defs v-gra="od"></defs></svg>