<svg filter="url(#colors5990085409)" x="0" y="0" width="22.101532201212326" height="27.526443731893995" filtersec="colorsf3719090741" class="image-svg-svg primary" style="overflow: visible;"><svg xmlns="http://www.w3.org/2000/svg" viewBox="-0.007260862272232771 -0.000342746963724494 64.8472900390625 80.76399230957031"><title>U</title><g id="6ae660cb-00b0-4897-9c37-4076210d1c46" data-name="圖層 2"><g id="fb9d7027-21a5-48f1-91be-802194fa1a77" data-name="Layer 2"><path d="M34.85,80.76C19,80.76,0,73.76,0,40.44A243.53,243.53,0,0,1,1.3,13.36c.27-3,.58-6.37.92-10.6A3,3,0,0,1,5.21,0H57.83a3,3,0,0,1,3,2.48l.59,3.31c1.88,10.46,3.37,18.72,3.42,34.45C64.85,54.53,61.12,65.86,54,73A26.43,26.43,0,0,1,34.85,80.76ZM8,6c-.25,3-.49,5.59-.7,7.91A236.28,236.28,0,0,0,6,40.44c0,23.09,9.44,34.32,28.85,34.32a20.29,20.29,0,0,0,14.91-6c6-6,9.08-15.83,9-28.49C58.75,25.06,57.3,17,55.47,6.85L55.32,6Z" fill="#333"></path></g></g></svg></svg>