<svg data-v-70b83f88="" version="1.0" xmlns="http://www.w3.org/2000/svg" xmlns:xlink="http://www.w3.org/1999/xlink" viewBox="0 0 340.000000 250.000000" preserveAspectRatio="xMidYMid meet" color-interpolation-filters="sRGB" style="margin: auto;"><rect data-v-70b83f88="" x="0" y="0" width="100%" height="100%" fill="#fff" fill-opacity="1" class="background"></rect><rect data-v-70b83f88="" x="0" y="0" width="100%" height="100%" fill="url(#watermark)" fill-opacity="1" class="watermarklayer"></rect><g data-v-70b83f88="" fill="#333" class="icon-text-wrapper icon-svg-group iconsvg" transform="translate(81.25499725341797,83.13742446899414)"><g class="iconsvg-imagesvg" transform="translate(58.7450008392334,0)"><g><rect fill="#333" fill-opacity="0" stroke-width="2" x="0" y="0" width="60" height="55.355149412774125" class="image-rect"></rect><svg x="0" y="0" width="60" height="55.355149412774125" filtersec="colorsb7787654379" class="image-svg-svg primary" style="overflow: visible;"><svg xmlns="http://www.w3.org/2000/svg" viewBox="-0.0017830177675932646 0.0019788742065429688 103.06674194335938 95.08788299560547"><title>资源 53</title><path d="M78.29 37.37C55.18 27.15 34 29.48 13.88 44.83c.53-1 .85-1.75 1.24-2.42l18.19-31.58c8.27-14.33 27.82-14.45 36.32-.28C73.87 17.63 77 25.1 78 33.33c.15 1.23.18 2.46.29 4.04z" fill="#fbc64d"></path><path d="M59.19 94.93c-.56 0-1.12.1-1.68.1-11.91 0-23.82.06-35.73 0C10.87 94.94 2.87 88.85.56 78.87a19.64 19.64 0 0 1 2.05-14.45c4.39-7.91 9.8-14.85 17.21-20.13.53-.38 1.11-.7 1.94-1.22 2.57 24.56 14.99 41.75 37.43 51.86z" fill="#fc417f"></path><path d="M55 88.9c19.89-14.5 28.71-33.72 25.79-58.62.67 1 1.11 1.57 1.47 2.19 5.95 10.31 11.93 20.6 17.83 30.94 7.22 12.67.71 28-13.18 31.1-8.26 1.87-24.83-.99-31.91-5.61z" fill="#258bfa"></path></svg></svg><!----></g></g><g transform="translate(0,62.35514831542969)"><g data-gra="path-name" fill-rule="" class="tp-name iconsvg-namesvg"><g transform="scale(1)"><g><path d="M16.84-8.09L16.84-8.09Q16.84-2.6 13.35-0.7L13.35-0.7 17.29 3.84 11.86 3.84 9.01 0.25 9 0.24 9 0.23 8.99 0.22Q5.2 0.22 3.17-1.91 1.15-4.04 1.15-8.11L1.15-8.11Q1.15-12.14 3.16-14.26 5.17-16.38 9.01-16.38L9.01-16.38Q12.87-16.38 14.85-14.28 16.84-12.17 16.84-8.09ZM5.74-8.09L5.74-8.09Q5.74-3.41 8.99-3.41L8.99-3.41Q10.65-3.41 11.45-4.55 12.25-5.68 12.25-8.09L12.25-8.09Q12.25-10.5 11.44-11.66 10.63-12.81 9.01-12.81L9.01-12.81Q5.74-12.81 5.74-8.09ZM31.66 0L28.4 0 27.86-1.56 27.61-1.56Q27.07-0.7 26.1-0.24 25.13 0.22 23.83 0.22L23.83 0.22Q21.77 0.22 20.62-0.98 19.47-2.17 19.47-4.36L19.47-4.36 19.47-12.5 23.79-12.5 23.79-5.67Q23.79-4.45 24.14-3.82 24.48-3.19 25.28-3.19L25.28-3.19Q26.39-3.19 26.87-4.07 27.34-4.94 27.34-7.03L27.34-7.03 27.34-12.5 31.66-12.5 31.66 0ZM40.67 0.22L40.67 0.22Q37.55 0.22 35.82-1.44 34.09-3.1 34.09-6.17L34.09-6.17Q34.09-9.33 35.69-11.03 37.29-12.72 40.26-12.72L40.26-12.72Q43.09-12.72 44.62-11.25 46.16-9.78 46.16-7.01L46.16-7.01 46.16-5.09 38.45-5.09Q38.5-4.04 39.22-3.44 39.94-2.85 41.19-2.85L41.19-2.85Q42.32-2.85 43.28-3.06 44.23-3.28 45.35-3.8L45.35-3.8 45.35-0.7Q44.33-0.18 43.25 0.02 42.17 0.22 40.67 0.22ZM40.42-9.79L40.42-9.79Q39.65-9.79 39.14-9.31 38.63-8.83 38.54-7.8L38.54-7.8 42.25-7.8Q42.23-8.71 41.73-9.25 41.24-9.79 40.42-9.79ZM54.64 0.22L54.64 0.22Q51.52 0.22 49.79-1.44 48.06-3.1 48.06-6.17L48.06-6.17Q48.06-9.33 49.66-11.03 51.26-12.72 54.23-12.72L54.23-12.72Q57.05-12.72 58.59-11.25 60.13-9.78 60.13-7.01L60.13-7.01 60.13-5.09 52.42-5.09Q52.46-4.04 53.19-3.44 53.91-2.85 55.16-2.85L55.16-2.85Q56.29-2.85 57.25-3.06 58.2-3.28 59.32-3.8L59.32-3.8 59.32-0.7Q58.3-0.18 57.22 0.02 56.14 0.22 54.64 0.22ZM54.38-9.79L54.38-9.79Q53.62-9.79 53.11-9.31 52.6-8.83 52.51-7.8L52.51-7.8 56.22-7.8Q56.19-8.71 55.7-9.25 55.21-9.79 54.38-9.79ZM74.77 0L70.46 0 70.46-6.82Q70.46-8.07 70.1-8.7 69.74-9.33 68.95-9.33L68.95-9.33Q67.86-9.33 67.37-8.46 66.88-7.59 66.88-5.47L66.88-5.47 66.88 0 62.57 0 62.57-12.5 65.83-12.5 66.37-10.96 66.62-10.96Q67.17-11.84 68.15-12.28 69.12-12.72 70.39-12.72L70.39-12.72Q72.47-12.72 73.62-11.52 74.77-10.32 74.77-8.13L74.77-8.13 74.77 0ZM87.36-3.84L87.36-3.84Q87.36-1.83 85.99-0.81 84.63 0.22 82.07 0.22L82.07 0.22Q80.68 0.22 79.65 0.07 78.62-0.08 77.55-0.47L77.55-0.47 77.55-3.93Q78.56-3.49 79.76-3.2 80.95-2.91 81.89-2.91L81.89-2.91Q83.29-2.91 83.29-3.55L83.29-3.55Q83.29-3.88 82.9-4.14 82.51-4.4 80.62-5.15L80.62-5.15Q78.9-5.86 78.22-6.76 77.53-7.66 77.53-9.04L77.53-9.04Q77.53-10.78 78.88-11.75 80.22-12.72 82.68-12.72L82.68-12.72Q83.92-12.72 85.01-12.45 86.09-12.18 87.26-11.66L87.26-11.66 86.09-8.88Q85.23-9.27 84.27-9.54 83.31-9.81 82.71-9.81L82.71-9.81Q81.65-9.81 81.65-9.29L81.65-9.29Q81.65-8.97 82.02-8.74 82.39-8.52 84.15-7.82L84.15-7.82Q85.47-7.28 86.11-6.76 86.76-6.24 87.06-5.54 87.36-4.84 87.36-3.84ZM104.66-8.9L109.66 0 104.74 0 101.55-6.17 100.26-5.4 100.26 0 95.88 0 95.88-16.13 100.26-16.13 100.26-9.12Q100.59-9.78 101.6-11.19L101.6-11.19 104.98-16.13 109.75-16.13 104.66-8.9ZM115.49-12.5L115.49 0 111.17 0 111.17-12.5 115.49-12.5ZM111.06-15.61L111.06-15.61Q111.06-16.58 111.6-17.06 112.14-17.53 113.35-17.53L113.35-17.53Q114.55-17.53 115.1-17.05 115.65-16.56 115.65-15.61L115.65-15.61Q115.65-13.71 113.35-13.71L113.35-13.71Q111.06-13.71 111.06-15.61ZM128.15-3.84L128.15-3.84Q128.15-1.83 126.79-0.81 125.42 0.22 122.86 0.22L122.86 0.22Q121.47 0.22 120.44 0.07 119.42-0.08 118.34-0.47L118.34-0.47 118.34-3.93Q119.35-3.49 120.55-3.2 121.74-2.91 122.68-2.91L122.68-2.91Q124.08-2.91 124.08-3.55L124.08-3.55Q124.08-3.88 123.69-4.14 123.3-4.4 121.41-5.15L121.41-5.15Q119.69-5.86 119.01-6.76 118.32-7.66 118.32-9.04L118.32-9.04Q118.32-10.78 119.67-11.75 121.02-12.72 123.48-12.72L123.48-12.72Q124.71-12.72 125.8-12.45 126.88-12.18 128.05-11.66L128.05-11.66 126.88-8.88Q126.02-9.27 125.06-9.54 124.1-9.81 123.5-9.81L123.5-9.81Q122.44-9.81 122.44-9.29L122.44-9.29Q122.44-8.97 122.81-8.74 123.18-8.52 124.94-7.82L124.94-7.82Q126.26-7.28 126.9-6.76 127.55-6.24 127.85-5.54 128.15-4.84 128.15-3.84ZM134.88-12.5L134.88 0 130.57 0 130.57-12.5 134.88-12.5ZM130.46-15.61L130.46-15.61Q130.46-16.58 131-17.06 131.54-17.53 132.74-17.53L132.74-17.53Q133.95-17.53 134.5-17.05 135.05-16.56 135.05-15.61L135.05-15.61Q135.05-13.71 132.74-13.71L132.74-13.71Q130.46-13.71 130.46-15.61ZM145.44 0L141.17 0 136.41-12.5 140.91-12.5 143.03-5.11Q143.04-5.05 143.07-4.92 143.1-4.79 143.14-4.61 143.17-4.42 143.2-4.22 143.23-4.02 143.23-3.84L143.23-3.84 143.3-3.84Q143.3-4.41 143.5-5.09L143.5-5.09 145.72-12.5 150.21-12.5 145.44 0ZM163.86 0L160.6 0 160.06-1.56 159.81-1.56Q159.27-0.7 158.3-0.24 157.34 0.22 156.04 0.22L156.04 0.22Q153.97 0.22 152.82-0.98 151.68-2.17 151.68-4.36L151.68-4.36 151.68-12.5 155.99-12.5 155.99-5.67Q155.99-4.45 156.34-3.82 156.69-3.19 157.48-3.19L157.48-3.19Q158.6-3.19 159.07-4.07 159.54-4.94 159.54-7.03L159.54-7.03 159.54-12.5 163.86-12.5 163.86 0ZM171.15-17.17L171.15 0 166.84 0 166.84-17.17 171.15-17.17ZM178.48-12.5L178.48 0 174.16 0 174.16-12.5 178.48-12.5ZM174.05-15.61L174.05-15.61Q174.05-16.58 174.59-17.06 175.13-17.53 176.34-17.53L176.34-17.53Q177.54-17.53 178.09-17.05 178.64-16.56 178.64-15.61L178.64-15.61Q178.64-13.71 176.34-13.71L176.34-13.71Q174.05-13.71 174.05-15.61Z" transform="translate(-1.149999976158142, 17.530000686645508)"></path></g><!----><!----><!----><!----><!----><!----><!----></g></g><!----></g></g><defs v-gra="od"></defs></svg>