<svg data-v-70b83f88="" version="1.0" xmlns="http://www.w3.org/2000/svg" xmlns:xlink="http://www.w3.org/1999/xlink" viewBox="0 0 340.000000 250.000000" preserveAspectRatio="xMidYMid meet" color-interpolation-filters="sRGB" style="margin: auto;"><rect data-v-70b83f88="" x="0" y="0" width="100%" height="100%" fill="#feffff" fill-opacity="1" class="background"></rect><rect data-v-70b83f88="" x="0" y="0" width="100%" height="100%" fill="url(#watermark)" fill-opacity="1" class="watermarklayer"></rect><g data-v-70b83f88="" fill="#333" class="iconlettersvg-g iconlettersvg" transform="translate(92.57568359375,98.59649467468262)"><g><g class="tp-name" transform="translate(0,0)"><g transform="scale(1)"><g transform="translate(0, 0)"><g class="name-imagesvg"><g><rect fill="#333" fill-opacity="0" stroke-width="2" x="0" y="0" width="26.206640838707287" height="38.61933262277609" class="image-rect"></rect><svg x="0" y="0" width="26.206640838707287" height="38.61933262277609" filtersec="colorsb5416476359" class="image-svg-svg primary" style="overflow: visible;"><svg xmlns="http://www.w3.org/2000/svg" viewBox="0 0 42.27 62.35"><title>资源 11</title><path d="M35.52 49V10.11L25.41 0H35l7.31 7.31v44.45l-4.38 4.38-3.62-5.93zm-6.16 12l-4.12-6.8H12L6.75 49V12L12 6.75h8.56l6.73 6.73v28.39l-.62-1h-7.93l13.09 21.48h7.91l-7.46-12.27L34 48.35V10.69L23.34 0H9.19L0 9.19v42.57L9.19 61zm-14-15l-.4-.4V15.4l.4-.4h10.4v-.88l-5.88-5.87H12.6L8.25 12.6v35.75l4.35 4.35h11.73L20.21 46z" fill="#2f60ac"></path></svg></svg><!----></g></g></g><g transform="translate(26.206640838707287, 0)"><g class="name-imagesvg"><g><rect fill="#333" fill-opacity="0" stroke-width="2" x="0" y="0" width="26.78662321811867" height="38.61933262277609" class="image-rect"></rect><svg x="0" y="0" width="26.78662321811867" height="38.61933262277609" filtersec="colorsb5507186658" class="image-svg-svg primary" style="overflow: visible;"><svg xmlns="http://www.w3.org/2000/svg" viewBox="0 0 42.27 60.95"><title>资源 19</title><path d="M23.34 61H9.19L0 51.76V0h6.75v49L12 54.2h8.56l6.73-6.74V0H34v50.26zm12.18-10.16L25.41 61H35l7.31-7.31V0h-6.79zM25.76 46H15.4l-.4-.4V0H8.25v48.34l4.35 4.36h7.28l5.88-5.87z" fill="#f39818"></path></svg></svg><!----></g></g></g><g transform="translate(52.99326405682596, 0)"><g class="name-imagesvg"><g><rect fill="#333" fill-opacity="0" stroke-width="2" x="0" y="0" width="24.166387271924854" height="38.61933262277609" class="image-rect"></rect><svg x="0" y="0" width="24.166387271924854" height="38.61933262277609" filtersec="colorsb290635134" class="image-svg-svg primary" style="overflow: visible;"><svg xmlns="http://www.w3.org/2000/svg" viewBox="0 0 38.14 60.95"><title>资源 5</title><g fill="#70bb45"><path d="M9.19 0L0 9.19v12.25h6.75v-9.46l5.23-5.23h26.16V0H9.19z"></path><path d="M8.25 12.6v8.84H15V15.4l.4-.4h22.74V8.25H12.61L8.25 12.6zM6.75 48.97V29.73h26.51v-6.75H0v28.78l9.19 9.19h28.95V54.2H11.98l-5.23-5.23z"></path><path d="M15 45.55v-7.57h18.26v-6.75H8.25v17.12l4.36 4.35h25.53v-6.75H15.4l-.4-.4z"></path></g></svg></svg><!----></g></g></g><g transform="translate(77.15965132875081, 0)"><g class="name-imagesvg"><g><rect fill="#333" fill-opacity="0" stroke-width="2" x="0" y="0" width="24.166387271924854" height="38.61933262277609" class="image-rect"></rect><svg x="0" y="0" width="24.166387271924854" height="38.61933262277609" filtersec="colorsb2752895998" class="image-svg-svg primary" style="overflow: visible;"><svg xmlns="http://www.w3.org/2000/svg" viewBox="0 0 38.14 60.95"><title>资源 5</title><g fill="#70bb45"><path d="M9.19 0L0 9.19v12.25h6.75v-9.46l5.23-5.23h26.16V0H9.19z"></path><path d="M8.25 12.6v8.84H15V15.4l.4-.4h22.74V8.25H12.61L8.25 12.6zM6.75 48.97V29.73h26.51v-6.75H0v28.78l9.19 9.19h28.95V54.2H11.98l-5.23-5.23z"></path><path d="M15 45.55v-7.57h18.26v-6.75H8.25v17.12l4.36 4.35h25.53v-6.75H15.4l-.4-.4z"></path></g></svg></svg><!----></g></g></g><g transform="translate(101.32603860067567, 0)"><g class="name-imagesvg"><g><rect fill="#333" fill-opacity="0" stroke-width="2" x="0" y="0" width="26.761298485955294" height="38.61933262277609" class="image-rect"></rect><svg x="0" y="0" width="26.761298485955294" height="38.61933262277609" filtersec="colorsb182074294" class="image-svg-svg primary" style="overflow: visible;"><svg xmlns="http://www.w3.org/2000/svg" viewBox="0 0 42.27 60.95"><title>资源 17</title><path d="M42.27 0v61h-6.75V0zm-15 61H34V45.9L5.24 0H0v61h6.75V15.11l20.52 32.74zM34 0h-6.73v19.74L14.87 0h-8L34 43.18zM8.25 61H15V31.14L8.25 20.37z" fill="#2ab9c7"></path></svg></svg><!----></g></g></g><g transform="translate(128.08733708663095, 0)"><g class="name-imagesvg"><g><rect fill="#333" fill-opacity="0" stroke-width="2" x="0" y="0" width="26.761298485955294" height="38.61933262277609" class="image-rect"></rect><svg x="0" y="0" width="26.761298485955294" height="38.61933262277609" filtersec="colorsb1769252462" class="image-svg-svg primary" style="overflow: visible;"><svg xmlns="http://www.w3.org/2000/svg" viewBox="0 0 42.27 60.95"><title>资源 20</title><path d="M35.71 23l6.56 6.56v22.2L33.08 61H9.19L0 51.76V39.88h6.75V49L12 54.2h18.3l5.22-5.2V32.33L26.16 23zM15.4 23l-.4-.4v-7.2l.4-.4h11.47l.4.4v5.66H34V12.6l-4.34-4.35H12.6L8.25 12.6v12.77l4.35 4.35h8.69l6 6v9.84l-.4.4H15.4l-.4-.4v-5.68H8.25v8.46l4.35 4.36h17.06L34 48.34V32.91L24.09 23zM33.08 0H9.19L0 9.19v19.6L9.19 38h16.56v-1.66l-5.11-5.12H12L6.75 26V12L12 6.75h18.3L35.52 12v9.08h6.75V9.19z" fill="#2ab9c7"></path></svg></svg><!----></g></g></g></g></g></g><g data-gra="path-slogan" fill-rule="" class="tp-slogan" fill="#333" transform="translate(57.27431678771973,44.6510124206543)"><!----><!----><g transform="scale(1, 1)"><g transform="scale(1)"><path d="M1.08-7.87L1.08 0L2.08 0L2.08-2.50L3.43-4.09L5.78 0L6.90 0L4.06-4.87L6.52-7.87L5.39-7.87L2.11-3.92L2.08-3.92L2.08-7.87ZM8.03-7.87L8.03 0L9.02 0L9.02-7.87ZM11.21-1.72L10.61-1.02C10.95-0.66 11.36-0.38 11.83-0.17C12.30 0.04 12.82 0.14 13.37 0.14C13.78 0.14 14.16 0.09 14.48-0.03C14.81-0.15 15.09-0.31 15.32-0.51C15.56-0.71 15.73-0.95 15.86-1.22C15.98-1.50 16.04-1.79 16.04-2.10C16.04-2.39 16.00-2.64 15.92-2.86C15.83-3.08 15.72-3.27 15.58-3.44C15.43-3.60 15.26-3.75 15.06-3.87C14.86-3.99 14.65-4.10 14.42-4.20L13.31-4.68C13.15-4.74 12.99-4.81 12.84-4.89C12.69-4.97 12.55-5.05 12.42-5.15C12.29-5.25 12.19-5.37 12.11-5.50C12.04-5.63 12.00-5.80 12.00-5.99C12.00-6.35 12.13-6.63 12.40-6.83C12.67-7.04 13.02-7.14 13.46-7.14C13.83-7.14 14.16-7.07 14.45-6.94C14.75-6.81 15.01-6.63 15.25-6.40L15.79-7.04C15.51-7.33 15.17-7.57 14.77-7.75C14.37-7.93 13.94-8.02 13.46-8.02C13.10-8.02 12.77-7.96 12.47-7.86C12.17-7.76 11.91-7.61 11.69-7.42C11.47-7.23 11.30-7.01 11.18-6.76C11.05-6.50 10.99-6.22 10.99-5.93C10.99-5.64 11.04-5.39 11.14-5.17C11.23-4.95 11.36-4.76 11.51-4.60C11.66-4.44 11.83-4.30 12.02-4.19C12.22-4.08 12.40-3.98 12.59-3.90L13.72-3.41C13.90-3.32 14.07-3.24 14.23-3.16C14.39-3.08 14.53-2.99 14.65-2.89C14.76-2.79 14.85-2.67 14.92-2.53C14.99-2.39 15.02-2.22 15.02-2.02C15.02-1.63 14.88-1.32 14.59-1.09C14.30-0.85 13.90-0.73 13.38-0.73C12.97-0.73 12.58-0.82 12.20-1.00C11.82-1.18 11.49-1.42 11.21-1.72ZM17.59-7.87L17.59 0L18.59 0L18.59-7.87ZM19.67-7.87L22.19 0L23.35 0L25.85-7.87L24.83-7.87L23.57-3.62C23.43-3.15 23.31-2.72 23.20-2.32C23.08-1.92 22.96-1.48 22.81-1.02L22.76-1.02C22.61-1.48 22.48-1.92 22.37-2.32C22.27-2.72 22.14-3.15 22.00-3.62L20.74-7.87ZM26.77-7.87L26.77-3.25C26.77-2.62 26.84-2.09 26.99-1.66C27.13-1.22 27.33-0.87 27.58-0.61C27.83-0.34 28.13-0.15 28.48-0.03C28.83 0.09 29.20 0.14 29.60 0.14C30.00 0.14 30.38 0.09 30.72-0.03C31.06-0.15 31.36-0.34 31.61-0.61C31.87-0.87 32.06-1.22 32.21-1.66C32.35-2.09 32.42-2.62 32.42-3.25L32.42-7.87L31.46-7.87L31.46-3.23C31.46-2.76 31.42-2.36 31.32-2.04C31.22-1.72 31.09-1.46 30.92-1.27C30.76-1.08 30.56-0.94 30.34-0.86C30.11-0.77 29.87-0.73 29.60-0.73C29.35-0.73 29.11-0.77 28.88-0.86C28.66-0.94 28.47-1.08 28.30-1.27C28.14-1.46 28.01-1.72 27.91-2.04C27.82-2.36 27.77-2.76 27.77-3.23L27.77-7.87ZM34.55-7.87L34.55 0L38.99 0L38.99-0.85L35.54-0.85L35.54-7.87ZM40.38-7.87L40.38 0L41.38 0L41.38-7.87Z" transform="translate(-1.08, 8.016)"></path></g></g></g></g><defs v-gra="od"></defs></svg>