<svg x="0" y="0" width="60" height="60" filtersec="colorsb2698893116" class="image-svg-svg primary" style="overflow: visible;"><svg xmlns="http://www.w3.org/2000/svg" viewBox="0.010063807480037212 0.01005956158041954 123.66000366210938 123.65999603271484"><title>资源 33</title><g fill="#ffd600"><path d="M96.48 91.81a37 37 0 0 0-12.66-8.09 19.53 19.53 0 0 0-12.82.55c2.41 0 7.58.11 14.1 5.89 2.37 2.1 4.78 4.37 6.76 6.33l11.73 11.73a3.3 3.3 0 1 0 4.66-4.66z"></path><path d="M118.48 93.41c-.8-.8-1.54-1.53-2.22-2.22a61.83 61.83 0 1 0-25.07 25.07l2.22 2.22a17.73 17.73 0 0 0 25.07-25.07zm-56.65 23.67a55.25 55.25 0 1 1 49.54-30.79c-4.57-4.59-4-3.93-6.11-5.46a46.94 46.94 0 0 0 4-19 47.4 47.4 0 1 0-28.85 43.63l5.91 5.91a55.24 55.24 0 0 1-24.49 5.71zm0-88.22a33 33 0 0 0-.45 65.94 22.47 22.47 0 0 1 13.88 5.58A40.79 40.79 0 1 1 99.61 77.3a19.35 19.35 0 0 0-7.72-2 32.93 32.93 0 0 0-30.06-46.44zm52 85a11.12 11.12 0 0 1-15.74 0c-.38-.38-18.63-18.68-19.07-19a29.28 29.28 0 0 0-17.06-6.62h-.11a26.43 26.43 0 1 1 24-15.47A27.41 27.41 0 0 1 83 77.52l-.34.18c12.4 0 16.74 6 31.12 20.37a11.12 11.12 0 0 1 .03 15.75z"></path></g></svg></svg>