<svg data-v-70b83f88="" version="1.0" xmlns="http://www.w3.org/2000/svg" xmlns:xlink="http://www.w3.org/1999/xlink" viewBox="0 0 340.000000 250.000000" preserveAspectRatio="xMidYMid meet" color-interpolation-filters="sRGB" style="margin: auto;"><rect data-v-70b83f88="" x="0" y="0" width="100%" height="100%" fill="#e74c3c" fill-opacity="1" class="background"></rect><rect data-v-70b83f88="" x="0" y="0" width="100%" height="100%" fill="url(#watermark)" fill-opacity="1" class="watermarklayer"></rect><g data-v-70b83f88="" fill="#feffff" class="bordersvg b-d1" transform="translate(69.49000549316406,67.87199020385742)"><polyline stroke="#feffff" stroke-width="3" fill-opacity="0" points="77.35999488830566,90.17601919174194 0,90.17601919174194 0,10 201.01998901367188,10 201.01998901367188,90.17601919174194 123.65999412536621,90.17601919174194"></polyline><g transform="translate(0,10)"><g><rect data-gra="graph-name-bg" stroke-width="2" class="i-icon-bg" x="0" y="0" width="201.02000427246094" height="94.25601196289062" fill-opacity="0"></rect><!----><!----></g><g transform="translate(10,10)"><g data-gra="path-name" fill-rule="" class="tp-name" transform="translate(0,0)"><g transform="scale(1)"><g><path d="M24.64-52.49L24.64-52.49 24.93-52.49Q33.22-52.49 38.18-45.11L38.18-45.11Q41.84-39.48 41.84-32.13L41.84-32.13Q41.84-21.94 34.88-11.6L34.88-11.6Q33.57-9.81 31.43-7.45L31.43-7.45 31.43-7.42Q34.77-2.5 40.57-0.53L40.57-0.53Q41.91-0.14 42.26 0L42.26 0Q42.61 0.35 42.61 0.81L42.61 0.81 42.61 0.88Q42.5 1.76 39.02 4.57L39.02 4.57Q36.11 6.61 33.68 6.61L33.68 6.61Q29.88 6.61 26.26 0.7L26.26 0.7Q25.8-0.11 24.79-2.25L24.79-2.25 24.75-2.25Q19.09 0.91 14.91 0.91L14.91 0.91Q7.98 0.91 5.45-7.07L5.45-7.07Q4.57-10.23 4.57-13.29L4.57-13.29 4.57-14.34Q4.57-20.67 7.45-27.49L7.45-27.49Q8.65-30.09 10.55-32.59L10.55-32.59Q14.63-37.3 19.05-37.3L19.05-37.3 19.23-37.3Q19.34-37.3 19.41-37.34L19.41-37.34 19.62-37.3 19.69-37.3Q21.45-37.3 22.04-36.42L22.04-36.42Q23.2-35.05 23.2-32.87L23.2-32.87Q23.2-29.67 20.88-27.77L20.88-27.77 18.56-26.37Q17.89-26.05 16.14-24.26L16.14-24.26Q13.89-21.41 12.97-19.34L12.97-19.34Q10.9-14.84 10.9-11.53L10.9-11.53Q10.9-7.8 13.46-6.61L13.46-6.61Q14.38-6.19 15.68-6.19L15.68-6.19 15.86-6.19Q18.88-6.19 22.04-8.82L22.04-8.82Q20.46-12.87 18.53-16.07L18.53-16.07Q17.72-17.26 16.84-18.39L16.84-18.39Q18.7-19.69 20.5-19.69L20.5-19.69 20.67-19.69Q23.1-19.69 25.28-16.95L25.28-16.95Q26.23-15.89 27-14.66L27-14.66Q27.49-15.26 28.55-17.23L28.55-17.23Q33.08-25.7 33.08-33.47L33.08-33.47Q33.08-41.17 28.02-43.03L28.02-43.03Q26.86-43.42 25.73-43.42L25.73-43.42 25.28-43.42Q20.74-43.42 14.8-38.95L14.8-38.95Q11.46-36.21 9.21-33.33L9.21-33.33Q7-30.41 5.48-27.6L5.48-27.6Q4.54-27.6 2.64-29.14L2.64-29.14Q0-31.64 0-34.03L0-34.03 0-34.35Q0-38.04 4.61-43.03L4.61-43.03Q7.31-45.7 8.96-46.83L8.96-46.83Q11.95-48.9 14.31-49.96L14.31-49.96Q19.83-52.49 24.64-52.49ZM51.71-39.23L51.71-39.23 52.1-39.23Q53.37-39.23 55.13-38.07L55.13-38.07Q57.69-37.16 57.69-36.42L57.69-36.42Q57.69-36.32 56.85-34.91L56.85-34.91Q53.02-27.49 49.89-18.81L49.89-18.81Q48.83-15.54 48.83-14.24L48.83-14.24 48.83-14.06Q48.83-13.15 49.46-13.15L49.46-13.15Q50.98-13.32 54.14-16.7L54.14-16.7Q55.79-18.53 56.99-20.21L56.99-20.21Q58.36-22.22 59.59-24.43L59.59-24.43Q61.07-27.25 62.89-32.59L62.89-32.59Q65-38.11 65.85-38.88L65.85-38.88Q66.16-39.09 66.48-39.09L66.48-39.09 66.73-39.09Q67.99-39.09 70.45-37.23L70.45-37.23Q71.44-36.35 71.44-35.37L71.44-35.37Q71.44-34 68.77-27.88L68.77-27.88Q65.46-20.18 63.67-15.05L63.67-15.05Q62.44-11.32 62.44-10.86L62.44-10.86 62.44-10.83Q62.44-10.55 62.61-10.48L62.61-10.48 62.75-10.48Q63.98-10.48 70.17-18L70.17-18Q76.61-26.23 78.82-30.8L78.82-30.8Q79.66-31.99 80.09-31.99L80.09-31.99 80.19-31.99Q80.58-31.99 80.58-31.29L80.58-31.29Q80.58-28.9 73.72-17.54L73.72-17.54Q71.02-13.18 67.82-9.28L67.82-9.28Q63.81-4.57 61.49-4.57L61.49-4.57Q58.08-4.57 56.43-7.88L56.43-7.88Q55.83-9.25 55.83-10.69L55.83-10.69Q55.83-11.53 56.21-12.97L56.21-12.97Q54.56-10.65 52.07-8.02L52.07-8.02Q48.48-4.57 46.34-4.57L46.34-4.57Q45.28-4.57 43.73-5.8L43.73-5.8Q41.38-8.12 41.38-12.2L41.38-12.2Q41.38-14.41 43.28-20.18L43.28-20.18Q46.86-31.22 49.89-37.76L49.89-37.76Q50.59-39.09 51.08-39.09L51.08-39.09Q51.29-39.23 51.71-39.23ZM87.4-38.88L87.4-38.88Q90.98-38.88 94.36-36.56L94.36-36.56Q95.63-35.75 96.19-33.64L96.19-33.64Q96.54-32.45 96.54-31.11L96.54-31.11 96.54-30.8Q96.54-26.44 92.74-21.16L92.74-21.16Q91.41-19.58 90.39-18.91L90.39-18.91Q88.14-17.51 86.13-17.51L86.13-17.51 85.71-17.51Q83.46-17.51 81.6-19.23L81.6-19.23 81.56-19.23Q80.44-15.36 80.44-13.22L80.44-13.22Q80.44-10.55 82.2-9.88L82.2-9.88Q82.79-9.67 83.25-9.67L83.25-9.67 83.57-9.67Q87.05-9.67 93.13-15.93L93.13-15.93Q97-20.14 99.14-23.27L99.14-23.27Q101.67-26.96 103.99-31.29L103.99-31.29Q104.41-31.96 104.66-31.96L104.66-31.96Q105.12-31.96 105.12-31.39L105.12-31.39Q105.12-29.5 101.04-21.52L101.04-21.52Q98.82-17.3 95.03-12.66L95.03-12.66Q92.32-9.49 90.21-7.88L90.21-7.88Q85.64-4.5 80.86-4.5L80.86-4.5 80.4-4.5Q78.08-4.5 76.68-5.31L76.68-5.31Q73.97-6.64 72.88-9.7L72.88-9.7Q72.21-11.46 72.21-13.18L72.21-13.18 72.21-13.85Q72.21-16.17 74-21.76L74-21.76Q75.83-27.42 78.01-31.22L78.01-31.22Q79.07-33.19 80.93-35.44L80.93-35.44Q82.93-37.51 83.88-37.93L83.88-37.93Q85.32-38.88 87.4-38.88ZM82.44-21.66L82.44-21.66Q83.21-20.88 84.13-20.88L84.13-20.88 84.16-20.88Q86.31-20.88 89.09-25.21L89.09-25.21Q89.82-26.37 90.6-28.44L90.6-28.44Q91.51-31.25 91.51-32.87L91.51-32.87 91.51-33.22Q91.51-34.63 90.7-34.63L90.7-34.63 90.63-34.63Q88.24-34.63 83.43-24.08L83.43-24.08Q82.69-22.36 82.44-21.66ZM110.81-38.88L110.81-38.88Q114.4-38.88 117.77-36.56L117.77-36.56Q119.04-35.75 119.6-33.64L119.6-33.64Q119.95-32.45 119.95-31.11L119.95-31.11 119.95-30.8Q119.95-26.44 116.16-21.16L116.16-21.16Q114.82-19.58 113.8-18.91L113.8-18.91Q111.55-17.51 109.55-17.51L109.55-17.51 109.13-17.51Q106.88-17.51 105.01-19.23L105.01-19.23 104.98-19.23Q103.85-15.36 103.85-13.22L103.85-13.22Q103.85-10.55 105.61-9.88L105.61-9.88Q106.21-9.67 106.66-9.67L106.66-9.67 106.98-9.67Q110.46-9.67 116.54-15.93L116.54-15.93Q120.41-20.14 122.55-23.27L122.55-23.27Q125.09-26.96 127.41-31.29L127.41-31.29Q127.83-31.96 128.07-31.96L128.07-31.96Q128.53-31.96 128.53-31.39L128.53-31.39Q128.53-29.5 124.45-21.52L124.45-21.52Q122.24-17.3 118.44-12.66L118.44-12.66Q115.73-9.49 113.63-7.88L113.63-7.88Q109.05-4.5 104.27-4.5L104.27-4.5 103.82-4.5Q101.5-4.5 100.09-5.31L100.09-5.31Q97.38-6.64 96.29-9.7L96.29-9.7Q95.63-11.46 95.63-13.18L95.63-13.18 95.63-13.85Q95.63-16.17 97.42-21.76L97.42-21.76Q99.25-27.42 101.43-31.22L101.43-31.22Q102.48-33.19 104.34-35.44L104.34-35.44Q106.35-37.51 107.3-37.93L107.3-37.93Q108.74-38.88 110.81-38.88ZM105.86-21.66L105.86-21.66Q106.63-20.88 107.54-20.88L107.54-20.88 107.58-20.88Q109.72-20.88 112.5-25.21L112.5-25.21Q113.24-26.37 114.01-28.44L114.01-28.44Q114.93-31.25 114.93-32.87L114.93-32.87 114.93-33.22Q114.93-34.63 114.12-34.63L114.12-34.63 114.05-34.63Q111.66-34.63 106.84-24.08L106.84-24.08Q106.1-22.36 105.86-21.66ZM145.05-39.27L145.05-39.27Q146.5-39.27 149.13-37.3L149.13-37.3Q150.12-36.39 150.12-35.51L150.12-35.51 150.12-35.37Q150.12-34.1 147.97-29.18L147.97-29.18Q143.96-19.93 142-13.99L142-13.99Q141.12-11.18 141.12-10.86L141.12-10.86Q141.22-10.51 141.33-10.51L141.33-10.51 141.43-10.51Q142.77-10.58 148.89-18.07L148.89-18.07Q155.25-26.23 157.11-30.06L157.11-30.06Q158.17-32.06 158.87-32.06L158.87-32.06Q159.26-31.96 159.26-31.43L159.26-31.43 159.26-31.29Q159.26-28.86 152.33-17.47L152.33-17.47Q144.14-4.64 140.24-4.64L140.24-4.64 139.71-4.64Q137.04-4.64 135.14-7.1L135.14-7.1Q134.12-8.61 134.12-10.23L134.12-10.23Q134.12-11.25 135.11-13.75L135.11-13.75Q139.89-26.96 140.17-27.95L140.17-27.95Q140.27-28.41 140.27-28.76L140.27-28.76Q140.27-29.11 140.03-29.18L140.03-29.18Q139.01-29.18 134.82-23.91L134.82-23.91Q129.59-16.88 127.2-12.3L127.2-12.3Q125.19-8.47 125.19-7.88L125.19-7.88Q124.84-7 124.84-5.73L124.84-5.73 124.84-4.64Q124.84-4.57 124.73-4.57L124.73-4.57Q120.8-4.57 119.29-8.68L119.29-8.68Q119.04-9.88 119.04-10.62L119.04-10.62Q119.04-12.52 121.25-18.7L121.25-18.7Q125.44-31.46 128.14-37.51L128.14-37.51Q128.92-39.06 129.52-39.06L129.52-39.06Q129.66-39.09 129.83-39.09L129.83-39.09Q131.38-39.09 133.91-36.95L133.91-36.95Q134.61-36.18 134.61-35.33L134.61-35.33Q134.61-33.96 131.38-26.51L131.38-26.51Q140.1-39.27 145.05-39.27ZM163.83-40.04L163.83-40.04 164.57-40.04Q165.16-40.04 165.16-39.27L165.16-39.27 165.16-38.81Q165.16-38.39 165.27-36.67L165.27-36.67Q165.27-35.75 164.78-35.47L164.78-35.47Q164.18-35.47 163.34-34.35L163.34-34.35Q163.09-33.79 163.09-33.22L163.09-33.22Q163.09-31.36 166.11-26.89L166.11-26.89Q170.09-20.95 170.09-17.44L170.09-17.44Q174.52-22.85 176.94-26.68L176.94-26.68Q178.1-28.48 179.47-31.08L179.47-31.08Q180.21-31.99 180.63-31.99L180.63-31.99 180.67-31.99Q180.98-31.99 181.02-31.5L181.02-31.5 181.02-31.22Q181.02-29.07 175.22-19.23L175.22-19.23Q172.69-14.91 169.17-10.34L169.17-10.34Q164.36-4.54 157.99-4.54L157.99-4.54Q153.46-4.54 150.5-8.44L150.5-8.44Q149.06-10.62 149.06-12.97L149.06-12.97Q149.06-16.28 151.91-18.77L151.91-18.77 151.95-18.77Q152.44-18.39 152.44-17.68L152.44-17.68Q151.95-16.1 151.95-15.05L151.95-15.05 151.95-14.59Q151.95-12.2 154.16-11.04L154.16-11.04Q155.25-10.65 156.16-10.65L156.16-10.65Q158.55-10.65 160.63-12.41L160.63-12.41Q162.53-14.24 162.53-16.77L162.53-16.77Q162.53-19.72 159.71-23.63L159.71-23.63Q156.48-28.76 156.48-32.03L156.48-32.03Q156.48-35.47 159.75-38.43L159.75-38.43Q161.89-40.04 163.83-40.04Z" transform="translate(0, 52.4900016784668)"></path></g><!----><!----><!----><!----><!----><!----><!----></g></g><g data-gra="path-slogan" fill-rule="" class="tp-slogan" transform="translate(70.3600025177002,66.10000228881836)"><!----><!----><g transform="scale(1, 1)"><g transform="scale(1)"><path d="M1.08 0L1.08-7.87L2.08-7.87L2.08-3.92L2.11-3.92L5.39-7.87L6.52-7.87L4.06-4.87L6.90 0L5.78 0L3.43-4.09L2.08-2.50L2.08 0L1.08 0ZM8.03 0L8.03-7.87L9.02-7.87L9.02 0L8.03 0ZM10.61-1.02L11.21-1.72Q11.63-1.27 12.20-1.00Q12.77-0.73 13.38-0.73L13.38-0.73Q14.16-0.73 14.59-1.09Q15.02-1.44 15.02-2.02L15.02-2.02Q15.02-2.32 14.92-2.53Q14.82-2.74 14.65-2.89Q14.47-3.04 14.23-3.16Q13.99-3.28 13.72-3.41L13.72-3.41L12.59-3.90Q12.31-4.02 12.02-4.19Q11.74-4.36 11.51-4.60Q11.28-4.84 11.14-5.17Q10.99-5.50 10.99-5.93L10.99-5.93Q10.99-6.37 11.18-6.76Q11.36-7.14 11.69-7.42Q12.02-7.70 12.47-7.86Q12.92-8.02 13.46-8.02L13.46-8.02Q14.17-8.02 14.77-7.75Q15.37-7.48 15.79-7.04L15.79-7.04L15.25-6.40Q14.89-6.74 14.45-6.94Q14.02-7.14 13.46-7.14L13.46-7.14Q12.80-7.14 12.40-6.83Q12.00-6.53 12.00-5.99L12.00-5.99Q12.00-5.70 12.11-5.50Q12.23-5.30 12.42-5.15Q12.61-5.00 12.84-4.89Q13.07-4.78 13.31-4.68L13.31-4.68L14.42-4.20Q14.76-4.06 15.06-3.87Q15.36-3.68 15.58-3.44Q15.79-3.19 15.92-2.86Q16.04-2.53 16.04-2.10L16.04-2.10Q16.04-1.63 15.86-1.22Q15.67-0.82 15.32-0.51Q14.98-0.20 14.48-0.03Q13.99 0.14 13.37 0.14L13.37 0.14Q12.54 0.14 11.83-0.17Q11.12-0.48 10.61-1.02L10.61-1.02ZM17.59 0L17.59-7.87L18.59-7.87L18.59 0L17.59 0ZM22.19 0L19.67-7.87L20.74-7.87L22.00-3.62Q22.21-2.92 22.37-2.32Q22.54-1.72 22.76-1.02L22.76-1.02L22.81-1.02Q23.03-1.72 23.20-2.32Q23.36-2.92 23.57-3.62L23.57-3.62L24.83-7.87L25.85-7.87L23.35 0L22.19 0ZM26.77-3.25L26.77-7.87L27.77-7.87L27.77-3.23Q27.77-2.52 27.91-2.04Q28.06-1.56 28.30-1.27Q28.55-0.98 28.88-0.86Q29.22-0.73 29.60-0.73L29.60-0.73Q30-0.73 30.34-0.86Q30.67-0.98 30.92-1.27Q31.18-1.56 31.32-2.04Q31.46-2.52 31.46-3.23L31.46-3.23L31.46-7.87L32.42-7.87L32.42-3.25Q32.42-2.30 32.21-1.66Q31.99-1.01 31.61-0.61Q31.24-0.20 30.72-0.03Q30.20 0.14 29.60 0.14L29.60 0.14Q29.00 0.14 28.48-0.03Q27.96-0.20 27.58-0.61Q27.20-1.01 26.99-1.66Q26.77-2.30 26.77-3.25L26.77-3.25ZM34.55 0L34.55-7.87L35.54-7.87L35.54-0.85L38.99-0.85L38.99 0L34.55 0ZM40.38 0L40.38-7.87L41.38-7.87L41.38 0L40.38 0Z" transform="translate(-1.08, 8.016)"></path></g></g></g></g></g></g><defs v-gra="od"></defs></svg>