<svg xmlns="http://www.w3.org/2000/svg" viewBox="0 0 4.85 11.45"><title>资源 21</title><path d="M3.3 9.75a1.62 1.62 0 0 0 .35-1.09V.18h-.3v8.53a1.25 1.25 0 0 1-.27.86 1.07 1.07 0 0 1-.47.32v.31a1.17 1.17 0 0 0 .3-.14 1.61 1.61 0 0 0 .39-.31zM4.55 0v8.68a2.59 2.59 0 0 1-1.31 2.16 2.53 2.53 0 0 1-.33.16 1.49 1.49 0 0 1-.3.09v.3a2.44 2.44 0 0 0 .75-.29 2.94 2.94 0 0 0 1.49-2.47V0zM3.12 10.58a2.19 2.19 0 0 0 1.13-1.86V.09L4 .13v8.49a2 2 0 0 1-.44 1.31 2 2 0 0 1-.47.39 1.89 1.89 0 0 1-.45.19v.28l.25-.07a1.46 1.46 0 0 0 .23-.14z" fill="#00d6cf"></path><path d="M2.23 9.94a.67.67 0 0 1-.47-.18A1 1 0 0 1 1.5 9V.49L0 .72v8.63a2.05 2.05 0 0 0 1.49 2 2 2 0 0 0 .74.08z" fill="#ff5454"></path></svg>