<svg x="0" y="0" width="60" height="55.355149412774125" filtersec="colorsb7787654379" class="image-svg-svg primary" style="overflow: visible;"><svg xmlns="http://www.w3.org/2000/svg" viewBox="-0.0017830177675932646 0.0019788742065429688 103.06674194335938 95.08788299560547"><title>资源 53</title><path d="M78.29 37.37C55.18 27.15 34 29.48 13.88 44.83c.53-1 .85-1.75 1.24-2.42l18.19-31.58c8.27-14.33 27.82-14.45 36.32-.28C73.87 17.63 77 25.1 78 33.33c.15 1.23.18 2.46.29 4.04z" fill="#fbc64d"></path><path d="M59.19 94.93c-.56 0-1.12.1-1.68.1-11.91 0-23.82.06-35.73 0C10.87 94.94 2.87 88.85.56 78.87a19.64 19.64 0 0 1 2.05-14.45c4.39-7.91 9.8-14.85 17.21-20.13.53-.38 1.11-.7 1.94-1.22 2.57 24.56 14.99 41.75 37.43 51.86z" fill="#fc417f"></path><path d="M55 88.9c19.89-14.5 28.71-33.72 25.79-58.62.67 1 1.11 1.57 1.47 2.19 5.95 10.31 11.93 20.6 17.83 30.94 7.22 12.67.71 28-13.18 31.1-8.26 1.87-24.83-.99-31.91-5.61z" fill="#258bfa"></path></svg></svg>