<svg data-v-70b83f88="" version="1.0" xmlns="http://www.w3.org/2000/svg" xmlns:xlink="http://www.w3.org/1999/xlink" viewBox="0 0 340.000000 250.000000" preserveAspectRatio="xMidYMid meet" color-interpolation-filters="sRGB" style="margin: auto;"><rect data-v-70b83f88="" x="0" y="0" width="100%" height="100%" fill="#262626" fill-opacity="1" class="background"></rect><rect data-v-70b83f88="" x="0" y="0" width="100%" height="100%" fill="url(#watermark)" fill-opacity="1" class="watermarklayer"></rect><g data-v-70b83f88="" fill="#64dfdf" class="icon-text-wrapper icon-svg-group iconsvg" transform="translate(77.29500579833984,64.08200073242188)"><g fill="#64dfdf" class="iconsvg-imagesvg icon_container" transform="translate(53.204994201660156,0)"><rect fill="#64dfdf" fill-opacity="0" stroke-width="2" x="0" y="0" width="71" height="71" class="image-rect"></rect><svg viewBox="0 0 60 60" x="0" y="0" width="71" height="71" class="image-svg-svg bn" style="overflow: visible;"><g hollow-target="iconBnFill" mask="url(#b2a30fc4-d43a-47a9-adae-ad8933fbb3bb)"><g><svg fill="#000000" xmlns:x="http://ns.adobe.com/Extensibility/1.0/" xmlns:i="http://ns.adobe.com/AdobeIllustrator/10.0/" xmlns:graph="http://ns.adobe.com/Graphs/1.0/" xmlns="http://www.w3.org/2000/svg" xmlns:xlink="http://www.w3.org/1999/xlink" version="1.1" x="0" y="0" viewBox="5 5 90 90" style="overflow: visible;" xml:space="preserve" width="60" height="60" filtersec="colorsf8608504202" filter="url(#UAE1slowLlidjfQMPAVDj)"><g transform="scale(1, 1) skewX(0)"><g><g i:extraneous="self"><path d="M50,5L5,50l45,45l45-45L50,5z"></path></g></g></g><defs><filter id="UAE1slowLlidjfQMPAVDj"><feColorMatrix type="matrix" values="0 0 0 0 0.390625  0 0 0 0 0.87109375  0 0 0 0 0.87109375  0 0 0 1 0"></feColorMatrix></filter></defs></svg></g><g filter="url(#colors5984547410)"><svg xmlns="http://www.w3.org/2000/svg" xmlns:xlink="http://www.w3.org/1999/xlink" viewBox="0 0 51.69543362403101 54.549843749999994" width="42" height="42" x="9" y="9" class="image-svg-letter"><path transform="translate(5.263020833333334 42.890625)" d="M44.30 7.66L44.30 7.66Q45.32 7.56 45.93 7.89Q46.55 8.23 46.41 8.86L46.41 8.86Q46.16 10.09 44.47 10.62L44.47 10.62Q41.98 11.50 39.13 11.64Q36.28 11.78 33.08 11.04L33.08 11.04Q29.46 10.20 26.35 8.86Q23.24 7.52 20.46 5.84L20.46 5.84Q17.54 4.08 14.98 2.18L14.98 2.18Q13.85 1.37 12.66 0.53L12.66 0.53Q11.85 0 11.09-0.25Q10.34-0.49 9.14-0.32L9.14-0.32Q7.59-0.04 5.91-0.18Q4.22-0.32 2.50-0.95L2.50-0.95Q1.76-1.20 1.41-1.16Q1.05-1.13 0.84-0.63L0.84-0.63Q0.18 0.32-1.86 0.42L-1.86 0.42Q-2.71 0.42-3.08 0.12Q-3.45-0.18-3.20-0.63L-3.20-0.63Q-3.02-0.95-2.74-1.13L-2.74-1.13Q-1.05-1.86-1.18-2.81Q-1.30-3.76-2.25-4.99L-2.25-4.99Q-4.29-8.05-4.89-11.13Q-5.48-14.20-5.13-17.23L-5.13-17.23Q-5.03-20.39-3.52-23.27L-3.52-23.27Q-3.13-24.08-3.20-24.96L-3.20-24.96Q-3.34-27.74-2.79-30.67Q-2.25-33.61-0.63-36.23Q0.98-38.85 3.83-40.71L3.83-40.71Q5.48-41.70 7.42-42.29Q9.35-42.89 11.88-42.89L11.88-42.89Q18.77-42.89 22.61-38.88L22.61-38.88Q24.86-36.49 25.95-33.33Q27.04-30.16 27.32-26.74Q27.60-23.31 27.26-20.20Q26.93-17.09 26.23-14.87L26.23-14.87Q25.10-11.25 22.50-8.21Q19.90-5.17 15.96-2.67L15.96-2.67Q15.26-2.25 15.08-2.00Q14.91-1.76 15.06-1.58Q15.22-1.41 15.68-1.13L15.68-1.13Q15.96-0.98 16.24-0.81L16.24-0.81Q18.91 0.95 21.52 2.71L21.52 2.71Q22.61 3.48 23.77 4.22L23.77 4.22Q26.23 5.87 29.02 7.29Q31.82 8.72 34.98 9.77L34.98 9.77Q37.97 10.72 40.68 10.13L40.68 10.13Q41.52 9.91 42.17 9.58Q42.82 9.25 43.03 8.65L43.03 8.65Q43.10 8.30 43.37 8.02Q43.63 7.73 44.30 7.66ZM3.59-2.21L3.59-2.21Q5.41-1.27 6.50-1.16Q7.59-1.05 8.68-1.76L8.68-1.76Q7.03-2.78 6.13-2.87Q5.24-2.95 3.59-2.21ZM11.11-3.38L11.11-3.38Q12.06-3.06 12.57-3.20Q13.08-3.34 13.46-3.69L13.46-3.69Q16.70-5.94 18.81-8.68L18.81-8.68Q20.29-10.72 21.50-13.69Q22.71-16.66 23.24-20.16Q23.77-23.66 23.45-27.21Q23.13-30.76 21.78-33.91Q20.43-37.05 17.72-39.34L17.72-39.34Q15.54-41.17 13.57-41.43Q11.60-41.70 9.35-40.46L9.35-40.46Q6.89-39.02 5.36-36.76Q3.83-34.49 3.15-31.82Q2.46-29.14 2.37-26.46Q2.29-23.77 2.71-21.52L2.71-21.52Q2.99-19.62 4.11-17.79Q5.24-15.96 7.42-14.31L7.42-14.31Q8.37-13.61 9.46-12.99Q10.55-12.38 11.81-12.04Q13.08-11.71 14.63-11.81L14.63-11.81Q14.94-11.81 15.36-11.74L15.36-11.74Q15.40-11.74 15.43-11.74L15.43-11.74Q15.68-11.67 15.93-11.58Q16.17-11.50 16.28-11.32L16.28-11.32Q16.63-10.86 16.03-10.65L16.03-10.65Q14.77-10.09 13.11-10.37L13.11-10.37Q10.30-10.79 7.70-11.58Q5.10-12.38 2.95-13.73Q0.81-15.08-0.70-17.26L-0.70-17.26Q-1.05-17.75-1.48-18.32L-1.48-18.32Q-1.72-18.63-1.97-19.02L-1.97-19.02Q-2.53-17.65-2.53-16.31Q-2.53-14.98-2.32-13.68L-2.32-13.68Q-2.11-11.43-1.44-9.21Q-0.77-7.00 0.77-4.75L0.77-4.75Q1.20-4.18 1.69-3.96Q2.18-3.73 3.20-3.94L3.20-3.94Q5.06-4.32 7.07-4.22Q9.07-4.11 11.11-3.38Z"></path></svg></g></g><mask id="b2a30fc4-d43a-47a9-adae-ad8933fbb3bb"><g fill="white"><svg xmlns:x="http://ns.adobe.com/Extensibility/1.0/" xmlns:i="http://ns.adobe.com/AdobeIllustrator/10.0/" xmlns:graph="http://ns.adobe.com/Graphs/1.0/" xmlns="http://www.w3.org/2000/svg" xmlns:xlink="http://www.w3.org/1999/xlink" version="1.1" x="0" y="0" viewBox="5 5 90 90" style="overflow: visible;" xml:space="preserve" width="60" height="60" filtersec="colorsf8608504202"><g transform="scale(1, 1) skewX(0)"><g><g i:extraneous="self"><path d="M50,5L5,50l45,45l45-45L50,5z"></path></g></g></g><defs></defs></svg></g><g fill="black"><svg xmlns="http://www.w3.org/2000/svg" xmlns:xlink="http://www.w3.org/1999/xlink" viewBox="0 0 51.69543362403101 54.549843749999994" width="42" height="42" x="9" y="9" class="image-svg-letter"><path transform="translate(5.263020833333334 42.890625)" d="M44.30 7.66L44.30 7.66Q45.32 7.56 45.93 7.89Q46.55 8.23 46.41 8.86L46.41 8.86Q46.16 10.09 44.47 10.62L44.47 10.62Q41.98 11.50 39.13 11.64Q36.28 11.78 33.08 11.04L33.08 11.04Q29.46 10.20 26.35 8.86Q23.24 7.52 20.46 5.84L20.46 5.84Q17.54 4.08 14.98 2.18L14.98 2.18Q13.85 1.37 12.66 0.53L12.66 0.53Q11.85 0 11.09-0.25Q10.34-0.49 9.14-0.32L9.14-0.32Q7.59-0.04 5.91-0.18Q4.22-0.32 2.50-0.95L2.50-0.95Q1.76-1.20 1.41-1.16Q1.05-1.13 0.84-0.63L0.84-0.63Q0.18 0.32-1.86 0.42L-1.86 0.42Q-2.71 0.42-3.08 0.12Q-3.45-0.18-3.20-0.63L-3.20-0.63Q-3.02-0.95-2.74-1.13L-2.74-1.13Q-1.05-1.86-1.18-2.81Q-1.30-3.76-2.25-4.99L-2.25-4.99Q-4.29-8.05-4.89-11.13Q-5.48-14.20-5.13-17.23L-5.13-17.23Q-5.03-20.39-3.52-23.27L-3.52-23.27Q-3.13-24.08-3.20-24.96L-3.20-24.96Q-3.34-27.74-2.79-30.67Q-2.25-33.61-0.63-36.23Q0.98-38.85 3.83-40.71L3.83-40.71Q5.48-41.70 7.42-42.29Q9.35-42.89 11.88-42.89L11.88-42.89Q18.77-42.89 22.61-38.88L22.61-38.88Q24.86-36.49 25.95-33.33Q27.04-30.16 27.32-26.74Q27.60-23.31 27.26-20.20Q26.93-17.09 26.23-14.87L26.23-14.87Q25.10-11.25 22.50-8.21Q19.90-5.17 15.96-2.67L15.96-2.67Q15.26-2.25 15.08-2.00Q14.91-1.76 15.06-1.58Q15.22-1.41 15.68-1.13L15.68-1.13Q15.96-0.98 16.24-0.81L16.24-0.81Q18.91 0.95 21.52 2.71L21.52 2.71Q22.61 3.48 23.77 4.22L23.77 4.22Q26.23 5.87 29.02 7.29Q31.82 8.72 34.98 9.77L34.98 9.77Q37.97 10.72 40.68 10.13L40.68 10.13Q41.52 9.91 42.17 9.58Q42.82 9.25 43.03 8.65L43.03 8.65Q43.10 8.30 43.37 8.02Q43.63 7.73 44.30 7.66ZM3.59-2.21L3.59-2.21Q5.41-1.27 6.50-1.16Q7.59-1.05 8.68-1.76L8.68-1.76Q7.03-2.78 6.13-2.87Q5.24-2.95 3.59-2.21ZM11.11-3.38L11.11-3.38Q12.06-3.06 12.57-3.20Q13.08-3.34 13.46-3.69L13.46-3.69Q16.70-5.94 18.81-8.68L18.81-8.68Q20.29-10.72 21.50-13.69Q22.71-16.66 23.24-20.16Q23.77-23.66 23.45-27.21Q23.13-30.76 21.78-33.91Q20.43-37.05 17.72-39.34L17.72-39.34Q15.54-41.17 13.57-41.43Q11.60-41.70 9.35-40.46L9.35-40.46Q6.89-39.02 5.36-36.76Q3.83-34.49 3.15-31.82Q2.46-29.14 2.37-26.46Q2.29-23.77 2.71-21.52L2.71-21.52Q2.99-19.62 4.11-17.79Q5.24-15.96 7.42-14.31L7.42-14.31Q8.37-13.61 9.46-12.99Q10.55-12.38 11.81-12.04Q13.08-11.71 14.63-11.81L14.63-11.81Q14.94-11.81 15.36-11.74L15.36-11.74Q15.40-11.74 15.43-11.74L15.43-11.74Q15.68-11.67 15.93-11.58Q16.17-11.50 16.28-11.32L16.28-11.32Q16.63-10.86 16.03-10.65L16.03-10.65Q14.77-10.09 13.11-10.37L13.11-10.37Q10.30-10.79 7.70-11.58Q5.10-12.38 2.95-13.73Q0.81-15.08-0.70-17.26L-0.70-17.26Q-1.05-17.75-1.48-18.32L-1.48-18.32Q-1.72-18.63-1.97-19.02L-1.97-19.02Q-2.53-17.65-2.53-16.31Q-2.53-14.98-2.32-13.68L-2.32-13.68Q-2.11-11.43-1.44-9.21Q-0.77-7.00 0.77-4.75L0.77-4.75Q1.20-4.18 1.69-3.96Q2.18-3.73 3.20-3.94L3.20-3.94Q5.06-4.32 7.07-4.22Q9.07-4.11 11.11-3.38Z"></path></svg></g></mask></svg><defs><filter id="colors5984547410"><feColorMatrix type="matrix" values="0 0 0 0 0.390625  0 0 0 0 0.87109375  0 0 0 0 0.87109375  0 0 0 1 0" class="icon-fecolormatrix"></feColorMatrix></filter><filter id="colorsf8608504202"><feColorMatrix type="matrix" values="0 0 0 0 0.99609375  0 0 0 0 0.99609375  0 0 0 0 0.99609375  0 0 0 1 0" class="icon-fecolormatrix"></feColorMatrix></filter><filter id="colorsb7887323558"><feColorMatrix type="matrix" values="0 0 0 0 0  0 0 0 0 0  0 0 0 0 0  0 0 0 1 0" class="icon-fecolormatrix"></feColorMatrix></filter></defs></g><g transform="translate(0,75)"><g data-gra="path-name" fill-rule="" class="tp-name iconsvg-namesvg" transform="translate(0,0)"><g transform="scale(1)"><g><path d="M33.88-3.56L33.88-3.56 38.19-3.56 38.19 0 7.66 0Q5.46 0 3.92-1.54 2.38-3.08 2.38-5.28L2.38-5.28 2.38-26.4Q2.38-28.6 3.92-30.14 5.46-31.68 7.66-31.68L7.66-31.68 28.78-31.68Q30.98-31.68 32.52-30.14 34.06-28.6 34.06-26.4L34.06-26.4 34.06-5.28Q34.06-4.88 33.88-3.56ZM7.66-3.56L7.66-3.56 28.78-3.56Q29.48-3.56 29.99-4.07 30.49-4.58 30.49-5.28L30.49-5.28 30.49-26.4Q30.49-27.1 29.99-27.61 29.48-28.12 28.78-28.12L28.78-28.12 7.66-28.12Q6.95-28.12 6.45-27.61 5.94-27.1 5.94-26.4L5.94-26.4 5.94-5.28Q5.94-4.58 6.45-4.07 6.95-3.56 7.66-3.56ZM63.62-5.32L63.62-25.52 67.23-25.52 67.23-5.32Q67.23-3.12 65.67-1.56 64.11 0 61.86 0L61.86 0 46.55 0Q44.35 0 42.79-1.56 41.23-3.12 41.23-5.32L41.23-5.32 41.23-25.52 44.84-25.52 44.84-5.32Q44.84-4.62 45.34-4.11 45.85-3.61 46.55-3.61L46.55-3.61 61.86-3.61Q62.57-3.61 63.1-4.11 63.62-4.62 63.62-5.32L63.62-5.32ZM76.38-25.52L91.7-25.52Q93.94-25.52 95.5-23.96 97.06-22.4 97.06-20.2L97.06-20.2 97.06-10.96 74.67-10.96 74.67-5.32Q74.67-4.62 75.17-4.11 75.68-3.61 76.38-3.61L76.38-3.61 97.06-3.61 97.06 0 76.38 0Q74.18 0 72.62-1.56 71.06-3.12 71.06-5.32L71.06-5.32 71.06-20.2Q71.06-22.4 72.62-23.96 74.18-25.52 76.38-25.52L76.38-25.52ZM74.67-20.2L74.67-14.56 93.41-14.56 93.41-20.2Q93.41-20.9 92.91-21.41 92.4-21.91 91.7-21.91L91.7-21.91 76.38-21.91Q75.68-21.91 75.17-21.41 74.67-20.9 74.67-20.2L74.67-20.2ZM106.17-25.52L121.48-25.52Q123.73-25.52 125.29-23.96 126.85-22.4 126.85-20.2L126.85-20.2 126.85-10.96 104.46-10.96 104.46-5.32Q104.46-4.62 104.96-4.11 105.47-3.61 106.17-3.61L106.17-3.61 126.85-3.61 126.85 0 106.17 0Q103.97 0 102.41-1.56 100.85-3.12 100.85-5.32L100.85-5.32 100.85-20.2Q100.85-22.4 102.41-23.96 103.97-25.52 106.17-25.52L106.17-25.52ZM104.46-20.2L104.46-14.56 123.2-14.56 123.2-20.2Q123.2-20.9 122.69-21.41 122.19-21.91 121.48-21.91L121.48-21.91 106.17-21.91Q105.47-21.91 104.96-21.41 104.46-20.9 104.46-20.2L104.46-20.2ZM131.43-25.52L152.11-25.52Q154.31-25.52 155.87-23.96 157.43-22.4 157.43-20.2L157.43-20.2 157.43 0 153.82 0 153.82-20.2Q153.82-20.9 153.32-21.41 152.81-21.91 152.11-21.91L152.11-21.91 136.8-21.91Q136.09-21.91 135.56-21.41 135.04-20.9 135.04-20.2L135.04-20.2 135.04 0 131.43 0 131.43-25.52ZM187.79-20.2L187.79-20.2 187.79-19.84 184.14-19.84 184.14-20.2Q184.14-20.9 183.63-21.41 183.13-21.91 182.42-21.91L182.42-21.91 167.11-21.91Q166.41-21.91 165.9-21.41 165.4-20.9 165.4-20.2L165.4-20.2 165.4-16.28Q165.4-15.58 165.9-15.07 166.41-14.56 167.11-14.56L167.11-14.56 182.42-14.56Q184.67-14.56 186.23-13 187.79-11.44 187.79-9.24L187.79-9.24 187.79-5.32Q187.79-3.12 186.23-1.56 184.67 0 182.42 0L182.42 0 167.11 0Q164.91 0 163.35-1.56 161.79-3.12 161.79-5.32L161.79-5.32 161.79-5.68 165.4-5.68 165.4-5.32Q165.4-4.62 165.9-4.11 166.41-3.61 167.11-3.61L167.11-3.61 182.42-3.61Q183.13-3.61 183.63-4.11 184.14-4.62 184.14-5.32L184.14-5.32 184.14-9.24Q184.14-9.94 183.63-10.45 183.13-10.96 182.42-10.96L182.42-10.96 167.11-10.96Q164.91-10.96 163.35-12.52 161.79-14.08 161.79-16.28L161.79-16.28 161.79-20.2Q161.79-22.4 163.35-23.96 164.91-25.52 167.11-25.52L167.11-25.52 182.42-25.52Q184.67-25.52 186.23-23.96 187.79-22.4 187.79-20.2Z" transform="translate(-2.380000114440918, 31.68000030517578)"></path></g><!----><!----><!----><!----><!----><!----><!----></g></g><g data-gra="path-slogan" fill-rule="" class="tp-slogan iconsvg-slogansvg" fill="#64dfdf" transform="translate(5,38.68000030517578)"><rect x="0" height="1" y="3.580000400543213" width="57.55499458312988"></rect><rect height="1" y="3.580000400543213" width="57.55499458312988" x="117.85499382019043"></rect><g transform="translate(60.55499458312988,0)"><g transform="scale(1)"><path d="M1.08 0L1.08-7.87L2.08-7.87L2.08-3.92L2.11-3.92L5.39-7.87L6.52-7.87L4.06-4.87L6.90 0L5.78 0L3.43-4.09L2.08-2.50L2.08 0L1.08 0ZM10.03 0L10.03-7.87L11.02-7.87L11.02 0L10.03 0ZM14.61-1.02L15.21-1.72Q15.63-1.27 16.20-1.00Q16.77-0.73 17.38-0.73L17.38-0.73Q18.16-0.73 18.59-1.09Q19.02-1.44 19.02-2.02L19.02-2.02Q19.02-2.32 18.92-2.53Q18.82-2.74 18.65-2.89Q18.47-3.04 18.23-3.16Q17.99-3.28 17.72-3.41L17.72-3.41L16.59-3.90Q16.31-4.02 16.02-4.19Q15.74-4.36 15.51-4.60Q15.28-4.84 15.14-5.17Q14.99-5.50 14.99-5.93L14.99-5.93Q14.99-6.37 15.18-6.76Q15.36-7.14 15.69-7.42Q16.02-7.70 16.47-7.86Q16.92-8.02 17.46-8.02L17.46-8.02Q18.17-8.02 18.77-7.75Q19.37-7.48 19.79-7.04L19.79-7.04L19.25-6.40Q18.89-6.74 18.45-6.94Q18.02-7.14 17.46-7.14L17.46-7.14Q16.80-7.14 16.40-6.83Q16-6.53 16-5.99L16-5.99Q16-5.70 16.11-5.50Q16.23-5.30 16.42-5.15Q16.61-5.00 16.84-4.89Q17.07-4.78 17.31-4.68L17.31-4.68L18.42-4.20Q18.76-4.06 19.06-3.87Q19.36-3.68 19.58-3.44Q19.79-3.19 19.92-2.86Q20.04-2.53 20.04-2.10L20.04-2.10Q20.04-1.63 19.86-1.22Q19.67-0.82 19.32-0.51Q18.98-0.20 18.48-0.03Q17.99 0.14 17.37 0.14L17.37 0.14Q16.54 0.14 15.83-0.17Q15.12-0.48 14.61-1.02L14.61-1.02ZM23.59 0L23.59-7.87L24.59-7.87L24.59 0L23.59 0ZM30.19 0L27.67-7.87L28.74-7.87L30.00-3.62Q30.21-2.92 30.37-2.32Q30.54-1.72 30.76-1.02L30.76-1.02L30.81-1.02Q31.03-1.72 31.20-2.32Q31.36-2.92 31.57-3.62L31.57-3.62L32.83-7.87L33.85-7.87L31.35 0L30.19 0ZM36.77-3.25L36.77-7.87L37.77-7.87L37.77-3.23Q37.77-2.52 37.91-2.04Q38.06-1.56 38.30-1.27Q38.55-0.98 38.88-0.86Q39.22-0.73 39.60-0.73L39.60-0.73Q40-0.73 40.34-0.86Q40.67-0.98 40.92-1.27Q41.18-1.56 41.32-2.04Q41.46-2.52 41.46-3.23L41.46-3.23L41.46-7.87L42.42-7.87L42.42-3.25Q42.42-2.30 42.21-1.66Q41.99-1.01 41.61-0.61Q41.24-0.20 40.72-0.03Q40.20 0.14 39.60 0.14L39.60 0.14Q39.00 0.14 38.48-0.03Q37.96-0.20 37.58-0.61Q37.20-1.01 36.99-1.66Q36.77-2.30 36.77-3.25L36.77-3.25ZM46.55 0L46.55-7.87L47.54-7.87L47.54-0.85L50.99-0.85L50.99 0L46.55 0ZM54.38 0L54.38-7.87L55.38-7.87L55.38 0L54.38 0Z" transform="translate(-1.08, 8.016)"></path></g></g></g></g></g><defs v-gra="od"></defs></svg>