<svg data-v-70b83f88="" version="1.0" xmlns="http://www.w3.org/2000/svg" xmlns:xlink="http://www.w3.org/1999/xlink" viewBox="0 0 340.000000 250.000000" preserveAspectRatio="xMidYMid meet" color-interpolation-filters="sRGB" style="margin: auto;"><rect data-v-70b83f88="" x="0" y="0" width="100%" height="100%" fill="#feffff" fill-opacity="1" class="background"></rect><rect data-v-70b83f88="" x="0" y="0" width="100%" height="100%" fill="url(#watermark)" fill-opacity="1" class="watermarklayer"></rect><g data-v-70b83f88="" fill="#333" class="iconlinesvg-g iconlinesvg" transform="translate(78.5113480091095,96.21227073669434)"><g class="tp-name" transform="translate(0,0)"><g transform="translate(0, 0)"><g data-gra="path-name" fill="#333" transform="scale(1)"><path d="M21.52-33.78L21.52-33.78Q26.03-33.78 28.83-32.63Q31.63-31.48 33.26-29.07L33.26-29.07Q34.30-27.44 34.88-25.40Q35.46-23.36 35.46-20.69L35.46-20.69Q35.46-18.38 35.04-16.08Q34.62-13.77 33.86-11.65Q33.10-9.53 32.03-7.67Q30.95-5.81 29.64-4.40L29.64-4.40Q26.50-0.94 21.63 0L21.63 0Q22.99 1.36 24.77 2.23Q26.55 3.09 28.44 3.51L28.44 3.51Q26.08 5.24 24.25 6.60L24.25 6.60Q23.46 7.17 22.70 7.72Q21.94 8.27 21.37 8.72Q20.79 9.16 20.40 9.40Q20.01 9.64 20.01 9.64L20.01 9.64Q18.33 8.59 17.10 7.33Q15.87 6.08 15.00 4.79Q14.14 3.51 13.59 2.33Q13.04 1.15 12.73 0.26L12.73 0.26Q9.64 0 7.62-0.94Q5.60-1.89 4.29-3.56L4.29-3.56Q3.14-5.03 2.49-7.28Q1.83-9.53 1.83-12.94L1.83-12.94Q1.83-18.75 3.90-23.33Q5.97-27.91 9.79-30.58L9.79-30.58Q12.10-32.21 14.93-32.99Q17.75-33.78 21.52-33.78ZM15.61-3.25L15.61-3.25Q16.81-3.25 17.88-4.32Q18.96-5.39 19.87-7.20Q20.79-9.01 21.55-11.31Q22.31-13.62 22.83-16.08Q23.36-18.54 23.65-20.97Q23.93-23.41 23.93-25.40L23.93-25.40Q23.93-28.12 23.38-29.14Q22.83-30.17 21.79-30.17L21.79-30.17Q20.58-30.17 19.48-29.12Q18.38-28.07 17.41-26.32Q16.44-24.56 15.69-22.28Q14.93-20.01 14.38-17.60Q13.83-15.19 13.54-12.83Q13.25-10.47 13.25-8.48L13.25-8.48Q13.25-5.50 13.90-4.37Q14.56-3.25 15.61-3.25Z" transform="translate(-1.8329938900203666, 33.779458830375326)"></path></g></g><g transform="translate(37, 7.944662917294201)"><g><g class="imagesvg"><g><rect fill="#333" fill-opacity="0" stroke-width="2" x="0" y="0" width="22.101532201212326" height="27.526443731893995" class="image-rect"></rect><svg filter="url(#colors2654912051)" x="0" y="0" width="22.101532201212326" height="27.526443731893995" filtersec="colorsf732880767" class="image-svg-svg primary" style="overflow: visible;"><svg xmlns="http://www.w3.org/2000/svg" viewBox="-0.007260862272232771 -0.000342746963724494 64.8472900390625 80.76399230957031"><title>U</title><g id="6ae660cb-00b0-4897-9c37-4076210d1c46" data-name="圖層 2"><g id="fb9d7027-21a5-48f1-91be-802194fa1a77" data-name="Layer 2"><path d="M34.85,80.76C19,80.76,0,73.76,0,40.44A243.53,243.53,0,0,1,1.3,13.36c.27-3,.58-6.37.92-10.6A3,3,0,0,1,5.21,0H57.83a3,3,0,0,1,3,2.48l.59,3.31c1.88,10.46,3.37,18.72,3.42,34.45C64.85,54.53,61.12,65.86,54,73A26.43,26.43,0,0,1,34.85,80.76ZM8,6c-.25,3-.49,5.59-.7,7.91A236.28,236.28,0,0,0,6,40.44c0,23.09,9.44,34.32,28.85,34.32a20.29,20.29,0,0,0,14.91-6c6-6,9.08-15.83,9-28.49C58.75,25.06,57.3,17,55.47,6.85L55.32,6Z" fill="#333"></path></g></g></svg></svg><defs><filter id="colors2654912051"><feColorMatrix type="matrix" values="0 0 0 0 0.19921875  0 0 0 0 0.19921875  0 0 0 0 0.19921875  0 0 0 1 0" class="icon-fecolormatrix"></feColorMatrix></filter><filter id="colorsf732880767"><feColorMatrix type="matrix" values="0 0 0 0 0.99609375  0 0 0 0 0.99609375  0 0 0 0 0.99609375  0 0 0 1 0" class="icon-fecolormatrix"></feColorMatrix></filter><filter id="colorsb5005156775"><feColorMatrix type="matrix" values="0 0 0 0 0  0 0 0 0 0  0 0 0 0 0  0 0 0 1 0" class="icon-fecolormatrix"></feColorMatrix></filter></defs></g></g></g></g><g transform="translate(63, 0)"><g data-gra="path-name" fill="#333" transform="scale(1)"><path d="M26.13-10.53L11.42-10.53Q11.21-9.37 11.13-8.33Q11.05-7.28 11.05-6.44L11.05-6.44Q11.05-5.97 11.10-5.39Q11.16-4.82 11.34-4.32Q11.52-3.82 11.86-3.48Q12.20-3.14 12.83-3.14L12.83-3.14Q13.30-3.14 13.90-3.46Q14.51-3.77 15.11-4.35Q15.71-4.92 16.26-5.76Q16.81-6.60 17.13-7.65L17.13-7.65L25.71-7.65L24.35-2.04Q23.31-1.36 21.94-0.89Q20.58-0.42 19.06-0.13Q17.54 0.16 15.97 0.29Q14.40 0.42 12.99 0.42L12.99 0.42Q10.37 0.42 8.12-0.05Q5.87-0.52 4.19-1.68Q2.51-2.83 1.54-4.74Q0.58-6.65 0.58-9.48L0.58-9.48Q0.58-12.05 1.39-14.51Q2.20-16.97 4.11-18.88Q6.02-20.79 9.24-21.94Q12.46-23.10 17.28-23.10L17.28-23.10Q22.52-23.10 25.16-21.47Q27.81-19.85 27.81-16.39L27.81-16.39Q27.81-14.98 27.39-13.33Q26.97-11.68 26.13-10.53L26.13-10.53ZM18.38-16.76L18.38-16.76Q18.38-18.38 17.86-18.96Q17.33-19.53 16.60-19.53L16.60-19.53Q15.76-19.53 15.06-18.98Q14.35-18.43 13.77-17.52Q13.20-16.60 12.73-15.42Q12.25-14.24 11.94-12.94L11.94-12.94L17.91-12.94Q18.02-13.56 18.12-14.24L18.12-14.24Q18.23-14.82 18.30-15.50Q18.38-16.18 18.38-16.76Z" transform="translate(-0.576083794006401, 33.779458830375326)"></path></g></g><g transform="translate(94, 0)"><g data-gra="path-name" fill="#333" transform="scale(1)"><path d="M26.13-10.53L11.42-10.53Q11.21-9.37 11.13-8.33Q11.05-7.28 11.05-6.44L11.05-6.44Q11.05-5.97 11.10-5.39Q11.16-4.82 11.34-4.32Q11.52-3.82 11.86-3.48Q12.20-3.14 12.83-3.14L12.83-3.14Q13.30-3.14 13.90-3.46Q14.51-3.77 15.11-4.35Q15.71-4.92 16.26-5.76Q16.81-6.60 17.13-7.65L17.13-7.65L25.71-7.65L24.35-2.04Q23.31-1.36 21.94-0.89Q20.58-0.42 19.06-0.13Q17.54 0.16 15.97 0.29Q14.40 0.42 12.99 0.42L12.99 0.42Q10.37 0.42 8.12-0.05Q5.87-0.52 4.19-1.68Q2.51-2.83 1.54-4.74Q0.58-6.65 0.58-9.48L0.58-9.48Q0.58-12.05 1.39-14.51Q2.20-16.97 4.11-18.88Q6.02-20.79 9.24-21.94Q12.46-23.10 17.28-23.10L17.28-23.10Q22.52-23.10 25.16-21.47Q27.81-19.85 27.81-16.39L27.81-16.39Q27.81-14.98 27.39-13.33Q26.97-11.68 26.13-10.53L26.13-10.53ZM18.38-16.76L18.38-16.76Q18.38-18.38 17.86-18.96Q17.33-19.53 16.60-19.53L16.60-19.53Q15.76-19.53 15.06-18.98Q14.35-18.43 13.77-17.52Q13.20-16.60 12.73-15.42Q12.25-14.24 11.94-12.94L11.94-12.94L17.91-12.94Q18.02-13.56 18.12-14.24L18.12-14.24Q18.23-14.82 18.30-15.50Q18.38-16.18 18.38-16.76Z" transform="translate(-0.576083794006401, 33.779458830375326)"></path></g></g><g transform="translate(125, 0)"><g data-gra="path-name" fill="#333" transform="scale(1)"><path d="M13.72-19.17L14.04-19.17Q15.14-20.22 16.50-21.11L16.50-21.11Q17.70-21.84 19.32-22.47Q20.95-23.10 22.94-23.10L22.94-23.10Q25.66-23.10 27.44-21.71Q29.22-20.32 29.22-17.91L29.22-17.91Q29.22-17.23 29.07-16.26Q28.91-15.29 28.70-14.24Q28.49-13.20 28.25-12.12Q28.02-11.05 27.86-10.21L27.86-10.21L25.66 0L15.03 0L17.91-13.67Q18.02-14.35 18.17-15.06Q18.33-15.76 18.33-16.34L18.33-16.34Q18.33-17.13 17.94-17.62Q17.54-18.12 16.76-18.12L16.76-18.12Q15.82-18.12 14.95-17.44Q14.09-16.76 13.62-16.29L13.62-16.29L10.16 0L-0.52 0L4.24-22.52L12.78-22.52L13.72-19.17Z" transform="translate(0.5237125400058191, 33.779458830375326)"></path></g></g><g transform="translate(158, 0)"><g data-gra="path-name" fill="#333" transform="scale(1)"><path d="M22.89-15.92L16.08-15.92Q16.13-16.18 16.18-16.44Q16.24-16.71 16.24-17.02L16.24-17.02Q16.24-17.96 15.89-18.78Q15.55-19.59 14.56-19.59L14.56-19.59Q13.67-19.59 12.78-18.83Q11.89-18.07 11.89-16.81L11.89-16.81Q11.89-15.97 12.33-15.48Q12.78-14.98 13.51-14.66Q14.24-14.35 15.16-14.14Q16.08-13.93 16.97-13.72L16.97-13.72Q18.23-13.41 19.35-12.96Q20.48-12.52 21.37-11.78Q22.26-11.05 22.78-9.98Q23.31-8.90 23.31-7.33L23.31-7.33Q23.31-5.13 22.28-3.64Q21.26-2.15 19.46-1.23Q17.65-0.31 15.21 0.05Q12.78 0.42 10.00 0.42L10.00 0.42Q5.76 0.42 2.99-0.21Q0.21-0.84-0.89-1.41L-0.89-1.41L0.21-6.65L7.28-6.65Q7.23-6.39 7.23-6.15Q7.23-5.92 7.23-5.66L7.23-5.66Q7.23-4.45 7.78-3.74Q8.33-3.04 9.69-3.04L9.69-3.04Q11.21-3.04 11.86-3.90Q12.52-4.77 12.52-5.50L12.52-5.50Q12.52-6.23 11.97-6.78Q11.42-7.33 10.58-7.72Q9.74-8.12 8.72-8.41Q7.70-8.69 6.76-8.96L6.76-8.96Q6.08-9.11 5.21-9.48Q4.35-9.85 3.56-10.53Q2.78-11.21 2.25-12.28Q1.73-13.35 1.73-14.98L1.73-14.98Q1.73-17.28 2.85-18.83Q3.98-20.37 5.79-21.32Q7.59-22.26 9.87-22.68Q12.15-23.10 14.45-23.10L14.45-23.10Q17.33-23.10 19.90-22.57Q22.47-22.05 24.09-21.21L24.09-21.21L22.89-15.92Z" transform="translate(0.8903113180098925, 33.779458830375326)"></path></g></g></g><g data-gra="path-slogan" fill-rule="" class="tp-slogan" fill="#333" transform="translate(71.34164619445801,49.41999816894531)"><!----><!----><g transform="scale(1, 1)"><g transform="scale(1)"><path d="M1.08-7.87L1.08 0L2.08 0L2.08-2.50L3.43-4.09L5.78 0L6.90 0L4.06-4.87L6.52-7.87L5.39-7.87L2.11-3.92L2.08-3.92L2.08-7.87ZM8.03-7.87L8.03 0L9.02 0L9.02-7.87ZM11.21-1.72L10.61-1.02C10.95-0.66 11.36-0.38 11.83-0.17C12.30 0.04 12.82 0.14 13.37 0.14C13.78 0.14 14.16 0.09 14.48-0.03C14.81-0.15 15.09-0.31 15.32-0.51C15.56-0.71 15.73-0.95 15.86-1.22C15.98-1.50 16.04-1.79 16.04-2.10C16.04-2.39 16.00-2.64 15.92-2.86C15.83-3.08 15.72-3.27 15.58-3.44C15.43-3.60 15.26-3.75 15.06-3.87C14.86-3.99 14.65-4.10 14.42-4.20L13.31-4.68C13.15-4.74 12.99-4.81 12.84-4.89C12.69-4.97 12.55-5.05 12.42-5.15C12.29-5.25 12.19-5.37 12.11-5.50C12.04-5.63 12.00-5.80 12.00-5.99C12.00-6.35 12.13-6.63 12.40-6.83C12.67-7.04 13.02-7.14 13.46-7.14C13.83-7.14 14.16-7.07 14.45-6.94C14.75-6.81 15.01-6.63 15.25-6.40L15.79-7.04C15.51-7.33 15.17-7.57 14.77-7.75C14.37-7.93 13.94-8.02 13.46-8.02C13.10-8.02 12.77-7.96 12.47-7.86C12.17-7.76 11.91-7.61 11.69-7.42C11.47-7.23 11.30-7.01 11.18-6.76C11.05-6.50 10.99-6.22 10.99-5.93C10.99-5.64 11.04-5.39 11.14-5.17C11.23-4.95 11.36-4.76 11.51-4.60C11.66-4.44 11.83-4.30 12.02-4.19C12.22-4.08 12.40-3.98 12.59-3.90L13.72-3.41C13.90-3.32 14.07-3.24 14.23-3.16C14.39-3.08 14.53-2.99 14.65-2.89C14.76-2.79 14.85-2.67 14.92-2.53C14.99-2.39 15.02-2.22 15.02-2.02C15.02-1.63 14.88-1.32 14.59-1.09C14.30-0.85 13.90-0.73 13.38-0.73C12.97-0.73 12.58-0.82 12.20-1.00C11.82-1.18 11.49-1.42 11.21-1.72ZM17.59-7.87L17.59 0L18.59 0L18.59-7.87ZM19.67-7.87L22.19 0L23.35 0L25.85-7.87L24.83-7.87L23.57-3.62C23.43-3.15 23.31-2.72 23.20-2.32C23.08-1.92 22.96-1.48 22.81-1.02L22.76-1.02C22.61-1.48 22.48-1.92 22.37-2.32C22.27-2.72 22.14-3.15 22.00-3.62L20.74-7.87ZM26.77-7.87L26.77-3.25C26.77-2.62 26.84-2.09 26.99-1.66C27.13-1.22 27.33-0.87 27.58-0.61C27.83-0.34 28.13-0.15 28.48-0.03C28.83 0.09 29.20 0.14 29.60 0.14C30.00 0.14 30.38 0.09 30.72-0.03C31.06-0.15 31.36-0.34 31.61-0.61C31.87-0.87 32.06-1.22 32.21-1.66C32.35-2.09 32.42-2.62 32.42-3.25L32.42-7.87L31.46-7.87L31.46-3.23C31.46-2.76 31.42-2.36 31.32-2.04C31.22-1.72 31.09-1.46 30.92-1.27C30.76-1.08 30.56-0.94 30.34-0.86C30.11-0.77 29.87-0.73 29.60-0.73C29.35-0.73 29.11-0.77 28.88-0.86C28.66-0.94 28.47-1.08 28.30-1.27C28.14-1.46 28.01-1.72 27.91-2.04C27.82-2.36 27.77-2.76 27.77-3.23L27.77-7.87ZM34.55-7.87L34.55 0L38.99 0L38.99-0.85L35.54-0.85L35.54-7.87ZM40.38-7.87L40.38 0L41.38 0L41.38-7.87Z" transform="translate(-1.08, 8.016)"></path></g></g></g></g><defs v-gra="od"></defs></svg>