<svg xmlns="http://www.w3.org/2000/svg" xmlns:xlink="http://www.w3.org/1999/xlink" viewBox="0 0 51.69543362403101 54.549843749999994" width="42" height="42" x="9" y="9" class="image-svg-letter"><path transform="translate(5.263020833333334 42.890625)" d="M44.30 7.66L44.30 7.66Q45.32 7.56 45.93 7.89Q46.55 8.23 46.41 8.86L46.41 8.86Q46.16 10.09 44.47 10.62L44.47 10.62Q41.98 11.50 39.13 11.64Q36.28 11.78 33.08 11.04L33.08 11.04Q29.46 10.20 26.35 8.86Q23.24 7.52 20.46 5.84L20.46 5.84Q17.54 4.08 14.98 2.18L14.98 2.18Q13.85 1.37 12.66 0.53L12.66 0.53Q11.85 0 11.09-0.25Q10.34-0.49 9.14-0.32L9.14-0.32Q7.59-0.04 5.91-0.18Q4.22-0.32 2.50-0.95L2.50-0.95Q1.76-1.20 1.41-1.16Q1.05-1.13 0.84-0.63L0.84-0.63Q0.18 0.32-1.86 0.42L-1.86 0.42Q-2.71 0.42-3.08 0.12Q-3.45-0.18-3.20-0.63L-3.20-0.63Q-3.02-0.95-2.74-1.13L-2.74-1.13Q-1.05-1.86-1.18-2.81Q-1.30-3.76-2.25-4.99L-2.25-4.99Q-4.29-8.05-4.89-11.13Q-5.48-14.20-5.13-17.23L-5.13-17.23Q-5.03-20.39-3.52-23.27L-3.52-23.27Q-3.13-24.08-3.20-24.96L-3.20-24.96Q-3.34-27.74-2.79-30.67Q-2.25-33.61-0.63-36.23Q0.98-38.85 3.83-40.71L3.83-40.71Q5.48-41.70 7.42-42.29Q9.35-42.89 11.88-42.89L11.88-42.89Q18.77-42.89 22.61-38.88L22.61-38.88Q24.86-36.49 25.95-33.33Q27.04-30.16 27.32-26.74Q27.60-23.31 27.26-20.20Q26.93-17.09 26.23-14.87L26.23-14.87Q25.10-11.25 22.50-8.21Q19.90-5.17 15.96-2.67L15.96-2.67Q15.26-2.25 15.08-2.00Q14.91-1.76 15.06-1.58Q15.22-1.41 15.68-1.13L15.68-1.13Q15.96-0.98 16.24-0.81L16.24-0.81Q18.91 0.95 21.52 2.71L21.52 2.71Q22.61 3.48 23.77 4.22L23.77 4.22Q26.23 5.87 29.02 7.29Q31.82 8.72 34.98 9.77L34.98 9.77Q37.97 10.72 40.68 10.13L40.68 10.13Q41.52 9.91 42.17 9.58Q42.82 9.25 43.03 8.65L43.03 8.65Q43.10 8.30 43.37 8.02Q43.63 7.73 44.30 7.66ZM3.59-2.21L3.59-2.21Q5.41-1.27 6.50-1.16Q7.59-1.05 8.68-1.76L8.68-1.76Q7.03-2.78 6.13-2.87Q5.24-2.95 3.59-2.21ZM11.11-3.38L11.11-3.38Q12.06-3.06 12.57-3.20Q13.08-3.34 13.46-3.69L13.46-3.69Q16.70-5.94 18.81-8.68L18.81-8.68Q20.29-10.72 21.50-13.69Q22.71-16.66 23.24-20.16Q23.77-23.66 23.45-27.21Q23.13-30.76 21.78-33.91Q20.43-37.05 17.72-39.34L17.72-39.34Q15.54-41.17 13.57-41.43Q11.60-41.70 9.35-40.46L9.35-40.46Q6.89-39.02 5.36-36.76Q3.83-34.49 3.15-31.82Q2.46-29.14 2.37-26.46Q2.29-23.77 2.71-21.52L2.71-21.52Q2.99-19.62 4.11-17.79Q5.24-15.96 7.42-14.31L7.42-14.31Q8.37-13.61 9.46-12.99Q10.55-12.38 11.81-12.04Q13.08-11.71 14.63-11.81L14.63-11.81Q14.94-11.81 15.36-11.74L15.36-11.74Q15.40-11.74 15.43-11.74L15.43-11.74Q15.68-11.67 15.93-11.58Q16.17-11.50 16.28-11.32L16.28-11.32Q16.63-10.86 16.03-10.65L16.03-10.65Q14.77-10.09 13.11-10.37L13.11-10.37Q10.30-10.79 7.70-11.58Q5.10-12.38 2.95-13.73Q0.81-15.08-0.70-17.26L-0.70-17.26Q-1.05-17.75-1.48-18.32L-1.48-18.32Q-1.72-18.63-1.97-19.02L-1.97-19.02Q-2.53-17.65-2.53-16.31Q-2.53-14.98-2.32-13.68L-2.32-13.68Q-2.11-11.43-1.44-9.21Q-0.77-7.00 0.77-4.75L0.77-4.75Q1.20-4.18 1.69-3.96Q2.18-3.73 3.20-3.94L3.20-3.94Q5.06-4.32 7.07-4.22Q9.07-4.11 11.11-3.38Z"></path></svg>