<svg data-v-70b83f88="" version="1.0" xmlns="http://www.w3.org/2000/svg" xmlns:xlink="http://www.w3.org/1999/xlink" viewBox="0 0 340.000000 250.000000" preserveAspectRatio="xMidYMid meet" color-interpolation-filters="sRGB" style="margin: auto;"><rect data-v-70b83f88="" x="0" y="0" width="100%" height="100%" fill="#fff" fill-opacity="1" class="background"></rect><rect data-v-70b83f88="" x="0" y="0" width="100%" height="100%" fill="url(#watermark)" fill-opacity="1" class="watermarklayer"></rect><g data-v-70b83f88="" fill="#333" class="icon-text-wrapper icon-svg-group iconsvg" transform="translate(79.9800033569336,81.45000076293945)"><g class="iconsvg-imagesvg" transform="translate(60.01999473571777,0)"><g><rect fill="#333" fill-opacity="0" stroke-width="2" x="0" y="0" width="60" height="60" class="image-rect"></rect><svg x="0" y="0" width="60" height="60" filtersec="colorsb5764883479" class="image-svg-svg primary" style="overflow: visible;"><svg xmlns="http://www.w3.org/2000/svg" viewBox="0.010063807480037212 0.01005956158041954 123.66000366210938 123.65999603271484"><title>资源 33</title><g fill="#ffd600"><path d="M96.48 91.81a37 37 0 0 0-12.66-8.09 19.53 19.53 0 0 0-12.82.55c2.41 0 7.58.11 14.1 5.89 2.37 2.1 4.78 4.37 6.76 6.33l11.73 11.73a3.3 3.3 0 1 0 4.66-4.66z"></path><path d="M118.48 93.41c-.8-.8-1.54-1.53-2.22-2.22a61.83 61.83 0 1 0-25.07 25.07l2.22 2.22a17.73 17.73 0 0 0 25.07-25.07zm-56.65 23.67a55.25 55.25 0 1 1 49.54-30.79c-4.57-4.59-4-3.93-6.11-5.46a46.94 46.94 0 0 0 4-19 47.4 47.4 0 1 0-28.85 43.63l5.91 5.91a55.24 55.24 0 0 1-24.49 5.71zm0-88.22a33 33 0 0 0-.45 65.94 22.47 22.47 0 0 1 13.88 5.58A40.79 40.79 0 1 1 99.61 77.3a19.35 19.35 0 0 0-7.72-2 32.93 32.93 0 0 0-30.06-46.44zm52 85a11.12 11.12 0 0 1-15.74 0c-.38-.38-18.63-18.68-19.07-19a29.28 29.28 0 0 0-17.06-6.62h-.11a26.43 26.43 0 1 1 24-15.47A27.41 27.41 0 0 1 83 77.52l-.34.18c12.4 0 16.74 6 31.12 20.37a11.12 11.12 0 0 1 .03 15.75z"></path></g></svg></svg><!----></g></g><g transform="translate(0,67.00000381469727)"><g data-gra="path-name" fill-rule="" class="tp-name iconsvg-namesvg"><g transform="scale(1)"><g><path d="M0.73-8.41C0.73-2.68 4.26 0.23 8.99 0.23 10.27 0.23 11.42 0.03 12.45-0.4L15.53 2.3 18.08-0.68 15.48-2.6C16.6-4.01 17.25-5.93 17.25-8.41 17.25-14.12 13.72-17 8.99-17 4.26-17 0.73-14.12 0.73-8.41ZM4.98-8.41C4.98-11.49 6.54-13.37 9.02-13.37 11.44-13.37 13-11.49 13-8.41 13-5.31 11.44-3.41 9.02-3.41 6.54-3.41 4.98-5.31 4.98-8.41ZM19.88-9.99L19.88-5.18C19.88-1.6 21.59 0.25 24.62 0.25 26.09 0.25 27.17-0.38 27.97-1.3L27.97 0 33.46 0 33.46-2.98 31.98-2.98 31.98-12.97 26.49-12.97 26.49-9.99 27.97-9.99 27.97-4.61C27.57-3.71 26.92-2.95 25.94-2.95 24.54-2.95 23.89-3.93 23.89-6.21L23.89-12.97 18.41-12.97 18.41-9.99ZM33.96-6.51C33.96-2.13 36.69 0.23 40.69 0.23 42.97 0.23 44.6-0.38 46-1.45L45.08-4.58C44-3.81 42.97-3.23 41.57-3.23 39.74-3.23 38.61-4.03 38.24-5.41L46.63-5.41C46.65-5.78 46.68-6.44 46.68-6.81 46.75-10.62 44.75-13.2 40.62-13.2 36.79-13.2 33.96-10.87 33.96-6.51ZM38.14-7.51C38.41-9.04 39.34-9.97 40.74-9.97 42.5-9.97 43.32-8.81 43.32-7.51ZM47.83-6.51C47.83-2.13 50.56 0.23 54.57 0.23 56.84 0.23 58.47-0.38 59.87-1.45L58.95-4.58C57.87-3.81 56.84-3.23 55.44-3.23 53.61-3.23 52.49-4.03 52.11-5.41L60.5-5.41C60.53-5.78 60.55-6.44 60.55-6.81 60.63-10.62 58.62-13.2 54.49-13.2 50.66-13.2 47.83-10.87 47.83-6.51ZM52.01-7.51C52.29-9.04 53.21-9.97 54.62-9.97 56.37-9.97 57.2-8.81 57.2-7.51ZM61.3-12.97L61.3-9.99 62.78-9.99 62.78-2.98 61.3-2.98 61.3 0 68.26 0 68.26-2.98 66.79-2.98 66.79-8.36C67.19-9.27 67.86-9.99 68.84-9.99 70.24-9.99 70.87-9.04 70.87-6.76L70.87 0 76.35 0 76.35-2.98 74.87-2.98 74.87-7.76C74.87-11.37 73.2-13.22 70.17-13.22 68.66-13.22 67.59-12.57 66.79-11.67L66.79-12.97ZM83.06-13.2C79.23-13.2 77.3-11.67 77.3-9.29 77.3-4.96 84.09-5.26 84.09-3.58 84.09-2.78 83.39-2.5 82.39-2.5 81.79-2.5 81.19-2.6 80.58-2.73L80.41-4.51 77.4-4.51 77.4-0.7C78.91-0.23 80.86 0.23 82.96 0.23 86.67 0.23 88.17-1.2 88.17-3.53 88.17-7.96 81.39-7.66 81.39-9.57 81.39-10.27 82.19-10.57 83.36-10.57 83.84-10.57 84.29-10.52 84.72-10.42L84.89-8.64 87.7-8.64 87.7-12.27C86.82-12.7 85.09-13.2 83.06-13.2Z" transform="translate(-0.7300000190734863, 17.799999237060547)"></path></g><!----><!----><!----><!----><!----><!----><g data-gra="path-name-1" fill="#333" transform="translate(90.43999481201172,0)"><g transform="scale(1)"><path d="M0.98-2L0.98 0 7.19 0 7.19-2 5.28-2 5.28-7.34 7.51-7.34 13.2 0 17.08 0 17.08-2 14.5-2 9.54-8.29 14.97-14.77 17.08-14.77 17.08-16.78 10.22-16.78 10.22-14.77 12.25-14.77 7.54-9.19 5.28-9.19 5.28-14.77 7.19-14.77 7.19-16.78 0.98-16.78 0.98-14.77 2.88-14.77 2.88-2ZM18.31-12.67L18.31-10.94 20.26-10.94 20.26-1.73 18.31-1.73 18.31 0 24.44 0 24.44-1.73 22.49-1.73 22.49-12.67ZM19.26-16.3C19.26-15.23 20.03-14.77 21.21-14.77 22.39-14.77 23.14-15.23 23.14-16.3 23.14-17.3 22.39-17.8 21.21-17.8 20.03-17.8 19.26-17.3 19.26-16.3ZM31.3-12.82C27.92-12.82 26.19-11.52 26.19-9.32 26.19-5.01 33.86-5.83 33.86-3.41 33.86-2.08 32.9-1.73 31.1-1.73 30.1-1.73 29.2-1.83 28.22-2.1L28.02-4.31 26.27-4.31 26.27-0.75C27.55-0.35 29.32 0.13 31.15 0.13 34.73 0.13 36.16-1.15 36.16-3.38 36.16-7.59 28.47-6.64 28.47-9.44 28.47-10.74 29.65-11.02 31.45-11.02 32.28-11.02 33.06-10.92 33.76-10.72L33.96-8.59 35.61-8.59 35.61-12.05C34.53-12.42 32.93-12.82 31.3-12.82ZM37.89-12.67L37.89-10.94 39.84-10.94 39.84-1.73 37.89-1.73 37.89 0 44.02 0 44.02-1.73 42.07-1.73 42.07-12.67ZM38.84-16.3C38.84-15.23 39.62-14.77 40.79-14.77 41.97-14.77 42.72-15.23 42.72-16.3 42.72-17.3 41.97-17.8 40.79-17.8 39.62-17.8 38.84-17.3 38.84-16.3ZM46.38-10.94L50.51 0 53.41 0 57.55-10.94 59.62-10.94 59.62-12.67 53.49-12.67 53.49-10.94 55.22-10.94 51.96-1.88 48.71-10.94 50.46-10.94 50.46-12.67 44.3-12.67 44.3-10.94ZM62.8-10.94L62.8-5.18C62.8-1.7 64.68 0.18 67.61 0.18 69.22 0.18 70.42-0.55 71.24-1.55L71.24 0 75.43 0 75.43-1.73 73.5-1.73 73.5-12.65 69.32-12.65 69.32-10.94 71.24-10.94 71.24-4.53C70.77-3.13 69.72-1.68 68.11-1.68 66.14-1.68 65.06-3.01 65.06-5.71L65.06-12.65 60.9-12.65 60.9-10.94ZM76.85-15.9L78.81-15.9 78.81-1.73 76.85-1.73 76.85 0 82.99 0 82.99-1.73 81.04-1.73 81.04-17.6 76.85-17.6ZM84.44-12.67L84.44-10.94 86.39-10.94 86.39-1.73 84.44-1.73 84.44 0 90.58 0 90.58-1.73 88.62-1.73 88.62-12.67ZM85.39-16.3C85.39-15.23 86.17-14.77 87.35-14.77 88.52-14.77 89.27-15.23 89.27-16.3 89.27-17.3 88.52-17.8 87.35-17.8 86.17-17.8 85.39-17.3 85.39-16.3Z" transform="translate(-0.9800000190734863, 17.799999237060547)"></path></g></g></g></g><!----></g></g><defs v-gra="od"></defs></svg>