<svg x="0" y="0" width="13.301503618972319" height="33.241797947680304" filtersec="colorsb9826555919" class="image-svg-svg primary" style="overflow: visible;"><svg xmlns="http://www.w3.org/2000/svg" viewBox="0 0 5.02 12.56"><title>资源 7</title><path d="M3.22 9.33a1.21 1.21 0 0 1-.71.36v1.5l.65 1.37 1.25-.74-1.18-2.5z" fill="#ff5454"></path><path d="M1.5 8.4V3.26a1.8 1.8 0 0 1 .3-1.37 1.19 1.19 0 0 1 .52-.32V.06a3.2 3.2 0 0 0-.71.26 3 3 0 0 0-1.44 1.6A3.35 3.35 0 0 0 0 3v5.83a3.48 3.48 0 0 0 .1 1 2 2 0 0 0 1.51 1.36 3.05 3.05 0 0 0 .52.05V9.68a.81.81 0 0 1-.33-.14c-.34-.25-.3-.73-.3-1.14z" fill="#00d6cf"></path><path d="M3.83 8.09a1.09 1.09 0 0 1 0-.18V2.65a1.37 1.37 0 0 0-.4-1.23 1.27 1.27 0 0 0-.72-.21v.3a.85.85 0 0 1 .52.17c.35.24.3.73.3 1.13V8a3.71 3.71 0 0 1 0 .94l.16.35a2.29 2.29 0 0 0 .14-1.2zm1-7A1.93 1.93 0 0 0 3.41.06 2.41 2.41 0 0 0 2.7 0v.3a2.47 2.47 0 0 1 .61 0 1.72 1.72 0 0 1 1.22.94 3.27 3.27 0 0 1 .19 1.43v5.6a2.75 2.75 0 0 1-.2 1.09 2.55 2.55 0 0 1-.49.72l.13.27a3 3 0 0 0 .63-.9A2.92 2.92 0 0 0 5 8.22V2.89a4 4 0 0 0-.2-1.76zm-.41 7.22V2.77a3 3 0 0 0-.17-1.31 1.47 1.47 0 0 0-1-.81 2.92 2.92 0 0 0-.51 0v.3a1.43 1.43 0 0 1 .91.26 1.57 1.57 0 0 1 .51 1.44v5.21a1 1 0 0 0 0 .17 2.26 2.26 0 0 1-.36 1.49l.13.28a1.9 1.9 0 0 0 .34-.54 2.25 2.25 0 0 0 .15-.95z" fill="#7f75ff"></path></svg></svg>