<svg data-v-70b83f88="" version="1.0" xmlns="http://www.w3.org/2000/svg" xmlns:xlink="http://www.w3.org/1999/xlink" viewBox="0 0 340.000000 250.000000" preserveAspectRatio="xMidYMid meet" color-interpolation-filters="sRGB" style="margin: auto;"><rect data-v-70b83f88="" x="0" y="0" width="100%" height="100%" fill="#ffffff" fill-opacity="1" class="background"></rect><rect data-v-70b83f88="" x="0" y="0" width="100%" height="100%" fill="url(#watermark)" fill-opacity="1" class="watermarklayer"></rect><g data-v-70b83f88="" fill="#391561" class="endsvg" transform="translate(45.62999725341797,106.11499786376953)"><g class="tp-name"><g><rect data-gra="graph-name-bg" stroke-width="2" class="i-icon-bg" x="0" y="0" width="248.739990234375" height="37.77000427246094" fill-opacity="0"></rect><!----><!----></g><g transform="translate(0,0)"><g data-gra="path-name-bg" mask="url(#046ae276-78b4-45b3-bda0-bb1912a78876)"><g><rect data-gra="graph-name-bg" stroke-width="2" class="i-icon-bg" x="0" y="0" width="91.81999969482422" height="37.77000045776367"></rect><!----><!----></g><g transform="translate(5,7)"><g data-gra="path-name" fill="#391561"><g transform="scale(1)"><path d="M14.08-8.32L14.08-7.44Q14.08-5.21 13.37-3.58Q12.66-1.94 11.39-0.98L11.39-0.98L14.09 1.12L12.32 2.72L8.98 0.08Q8.32 0.22 7.56 0.22L7.56 0.22Q5.66 0.22 4.17-0.72Q2.68-1.65 1.86-3.38Q1.05-5.10 1.04-7.36L1.04-7.36L1.04-8.24Q1.04-10.54 1.85-12.30Q2.66-14.06 4.15-14.99Q5.63-15.92 7.54-15.92L7.54-15.92Q9.48-15.92 10.97-15.00Q12.45-14.08 13.26-12.35Q14.07-10.61 14.08-8.32L14.08-8.32ZM11.34-7.44L11.34-8.26Q11.34-10.92 10.35-12.29Q9.35-13.66 7.54-13.66L7.54-13.66Q5.78-13.66 4.78-12.27Q3.79-10.88 3.76-8.36L3.76-8.36L3.76-7.44Q3.76-4.90 4.76-3.46Q5.76-2.03 7.56-2.03L7.56-2.03Q9.39-2.03 10.36-3.41Q11.34-4.79 11.34-7.44L11.34-7.44ZM25.62-15.71L28.34-15.71L28.34-5.21Q28.34-2.71 26.74-1.25Q25.13 0.22 22.47 0.22L22.47 0.22Q19.77 0.22 18.19-1.22Q16.60-2.66 16.60-5.22L16.60-5.22L16.60-15.71L19.32-15.71L19.32-5.20Q19.32-3.62 20.12-2.79Q20.92-1.96 22.47-1.96L22.47-1.96Q25.62-1.96 25.62-5.29L25.62-5.29L25.62-15.71ZM40.43-9.17L40.43-7.01L33.98-7.01L33.98-2.18L41.52-2.18L41.52 0L31.25 0L31.25-15.71L41.45-15.71L41.45-13.51L33.98-13.51L33.98-9.17L40.43-9.17ZM52.92-9.17L52.92-7.01L46.47-7.01L46.47-2.18L54.01-2.18L54.01 0L43.74 0L43.74-15.71L53.94-15.71L53.94-13.51L46.47-13.51L46.47-9.17L52.92-9.17ZM68.69-15.71L68.69 0L65.97 0L58.96-11.14L58.96 0L56.24 0L56.24-15.71L58.96-15.71L65.99-4.52L65.99-15.71L68.69-15.71ZM80.13-4.05L80.13-4.05Q80.13-5.08 79.40-5.64Q78.67-6.20 76.77-6.77Q74.88-7.35 73.75-8.05L73.75-8.05Q71.61-9.40 71.61-11.56L71.61-11.56Q71.61-13.46 73.16-14.69Q74.70-15.92 77.17-15.92L77.17-15.92Q78.81-15.92 80.10-15.32Q81.38-14.71 82.11-13.60Q82.85-12.48 82.85-11.12L82.85-11.12L80.13-11.12Q80.13-12.35 79.36-13.05Q78.59-13.74 77.15-13.74L77.15-13.74Q75.81-13.74 75.08-13.17Q74.34-12.60 74.34-11.57L74.34-11.57Q74.34-10.71 75.14-10.13Q75.93-9.56 77.77-9.01Q79.60-8.47 80.71-7.77Q81.82-7.08 82.34-6.18Q82.86-5.28 82.86-4.07L82.86-4.07Q82.86-2.10 81.35-0.94Q79.85 0.22 77.27 0.22L77.27 0.22Q75.57 0.22 74.14-0.42Q72.71-1.05 71.91-2.16Q71.12-3.27 71.12-4.75L71.12-4.75L73.85-4.75Q73.85-3.41 74.74-2.68Q75.62-1.94 77.27-1.94L77.27-1.94Q78.69-1.94 79.41-2.52Q80.13-3.10 80.13-4.05Z" transform="translate(-1.0356010369518207, 22.68932831892309)"></path></g></g></g></g><g data-gra="path-name-1-bg" transform="translate(91.81999969482422,0)"><g><rect data-gra="graph-name-bg" stroke-width="2" class="i-icon-bg" x="0" y="0" width="156.9199981689453" height="37.77000045776367" fill-opacity="0"></rect><!----><!----></g><g transform="translate(5,7)"><rect data-gra="graph-name-bg" x="0" y="-7" width="146.9199981689453" height="2" fill="#391561"></rect><rect data-gra="graph-name-bg" x="0" y="28.770000457763672" width="146.9199981689453" height="2" fill="#391561"></rect><g data-gra="path-name-1" fill="#391561"><g transform="scale(1)"><path d="M24.41-22.69L24.41-21.89Q22.89-20.68 22.03-18.96L22.03-18.96Q19.82-14.47 19.42-14.05L19.42-14.05Q19.20-13.83 17.14-12.62L17.14-12.62Q16.19-12.06 15.75-11.53L15.75-11.53Q18.31-8.97 19.29-6.25L19.29-6.25Q19.57-5.46 20.02-2.65L20.02-2.65Q20.21-1.35 21.14-1.35L21.14-1.35Q21.50-1.35 22.67-2.92L22.67-2.92Q23.40-3.89 24.19-4.44L24.19-4.44Q24.21-4.29 24.21-4.02L24.21-4.02Q24.21-2.12 22.27-0.84L22.27-0.84Q20.72 0.18 19.60 0.18L19.60 0.18Q17.98 0.18 17.12-1.33L17.12-1.33Q16.35-2.67 16.35-4.79L16.35-4.79L16.35-7.09Q16.35-8.40 15.75-9.54L15.75-9.54Q15.02-10.96 13.83-10.96L13.83-10.96Q13.43-10.96 13.21-8.93Q12.99-6.89 11.91-4.44L11.91-4.44Q11.42-3.25 9.88-1.79L9.88-1.79Q7.98 0 6.36 0L6.36 0L4.04 0Q2.41 0 1.20-1.31Q0-2.63 0-4.22L0-4.22Q0-5.10 0.62-6.16L0.62-6.16Q1.50-7.69 3.07-7.69L3.07-7.69Q5.02-7.69 5.02-6.36L5.02-6.36Q5.02-5.83 3.47-4.88Q1.92-3.93 1.92-2.87L1.92-2.87Q1.92-2.30 2.63-1.61L2.63-1.61Q3.51-0.77 4.79-0.77L4.79-0.77Q6.76-0.77 8.46-4.35L8.46-4.35Q9.68-6.94 10.63-11.02L10.63-11.02Q10.98-12.81 11.33-14.63L11.33-14.63Q11.22-14.60 9.41-13.52L9.41-13.52Q8.00-12.68 6.16-12.68L6.16-12.68Q4.37-12.68 3.53-13.51Q2.70-14.34 2.70-15.95L2.70-15.95Q2.70-16.68 3.12-17.64Q3.53-18.60 4.04-19.24L4.04-19.24L5.02-19.24L5.02-18.67Q4.75-18.20 4.64-17.85L4.64-17.85Q4.44-17.28 4.44-16.70L4.44-16.70Q4.44-15.49 5.37-14.98L5.37-14.98Q6.03-14.63 7.09-14.63L7.09-14.63Q9.26-14.63 11.18-16.33L11.18-16.33Q12.33-17.34 13.94-19.68L13.94-19.68Q15.38-21.76 15.95-22.11L15.95-22.11Q16.00-21.98 15.58-20.50L15.58-20.50Q15.27-19.35 14.58-17.17L14.58-17.17Q13.98-15.20 13.48-13.65L13.48-13.65L13.48-12.11Q15.80-12.50 17.30-14.54L17.30-14.54Q18.51-16.61 19.75-18.69L19.75-18.69Q21.39-21.34 23.64-22.69L23.64-22.69L24.41-22.69ZM39.72-13.76L39.72-13.76Q39.72-10.91 38.93-8.55L38.93-8.55Q38.38-6.89 37.47-5.50L37.47-5.50Q36.65-4.24 36.65-4.18L36.65-4.18Q36.65-3.82 37.88-2.94Q39.10-2.05 39.19-1.46L39.19-1.46Q38.93-1.37 38.64-1.37L38.64-1.37Q38.07-1.37 36.96-2.65L36.96-2.65Q36.43-3.27 35.92-3.27L35.92-3.27Q34.77-2.01 33.03-1.06L33.03-1.06Q31.08 0 28.85 0L28.85 0Q27.44 0 25.94-0.91L25.94-0.91Q24.15-1.99 24.15-3.45L24.15-3.45L24.15-4.88Q24.15-5.72 25.15-6.75Q26.16-7.78 27.04-7.78L27.04-7.78Q27.79-7.78 28.32-7.46Q28.85-7.14 28.85-6.52L28.85-6.52Q28.85-6.01 26.64-4.62L26.64-4.62Q25.61-3.95 25.61-3.07L25.61-3.07Q25.61-2.52 26.41-1.80Q27.22-1.08 27.77-1.08L27.77-1.08L29.58-1.08Q30.64-1.08 32.38-2.75Q34.11-4.42 34.11-5.26L34.11-5.26Q34.11-5.30 33.32-6.72L33.32-6.72Q32.45-8.24 31.86-9.72L31.86-9.72Q31.04-11.73 31.04-13.03L31.04-13.03L31.04-16.48Q31.04-17.92 32.03-19.77L32.03-19.77Q33.27-22.09 35.02-22.09L35.02-22.09Q37.58-22.09 38.79-19.31L38.79-19.31Q39.72-17.17 39.72-13.76ZM36.83-14.49L36.83-14.49L36.83-19.02Q36.83-19.51 36.50-20.13L36.50-20.13Q36.01-21.01 35.19-21.01L35.19-21.01Q33.67-21.01 33.14-19.09L33.14-19.09Q32.50-16.79 32.30-16.66L32.30-16.66L32.30-11.95Q32.41-11.89 33.18-9.83L33.18-9.83Q33.74-8.37 34.66-6.52L34.66-6.52Q35.26-7.73 36.08-10.87L36.08-10.87Q36.83-13.76 36.83-14.49ZM54.06-6.63L54.06-6.63Q54.06-3.76 51.61-1.81L51.61-1.81Q49.33 0 46.33 0L46.33 0Q44.58 0 43.28-0.71L43.28-0.71Q42.64-1.06 42.22-1.06L42.22-1.06Q41.89-1.06 41.06 0.01Q40.23 1.08 39.68 1.08L39.68 1.08L39.15 1.08L39.15 0.38Q39.59 0.13 40.28-0.57L40.28-0.57Q41.11-1.41 41.11-1.79L41.11-1.79Q40.63-2.54 40.41-3.03L40.41-3.03Q39.68-4.51 39.68-5.57L39.68-5.57Q39.68-7.58 40.72-8.97L40.72-8.97Q41.91-10.58 43.99-10.58L43.99-10.58Q44.80-10.58 45.33-10.37Q45.86-10.16 46.15-9.48L46.15-9.48Q44.25-8.62 42.37-7.78L42.37-7.78Q40.76-6.54 40.76-4.84L40.76-4.84Q40.76-4.55 41.03-4.02L41.03-4.02Q41.38-3.34 42.02-2.70L42.02-2.70Q42.90-3.27 44.67-5.46L44.67-5.46Q46.20-7.33 47.61-9.38Q49.02-11.42 49.02-11.64L49.02-11.64Q48.54-12.75 48.32-13.39L48.32-13.39Q47.61-15.33 47.61-16.33L47.61-16.33L47.61-17.96Q47.61-19.53 48.71-20.81Q49.82-22.09 51.01-22.09L51.01-22.09Q51.94-22.09 52.67-21.39L52.67-21.39Q53.51-20.57 53.51-19.20L53.51-19.20Q53.51-18.16 52.85-16.57L52.85-16.57Q52.09-14.82 51.34-13.08L51.34-13.08Q52.40-11.38 53.23-9.90Q54.06-8.42 54.06-6.63ZM51.92-17.76L51.92-17.76L51.92-19.40Q51.92-19.99 51.48-20.41Q51.03-20.83 50.64-20.83L50.64-20.83Q50.06-20.83 49.66-20.21L49.66-20.21Q49.20-19.46 49.02-19.40L49.02-19.40L49.02-16.86Q49.58-16.59 49.75-15.67Q49.93-14.76 50.64-14.51L50.64-14.51Q51.21-15.46 51.56-16.27Q51.92-17.08 51.92-17.76ZM50.64-5.19L50.64-5.19L50.64-6.63Q50.64-7.09 50.39-7.89L50.39-7.89Q50.28-8.22 49.55-10.21L49.55-10.21Q48.78-9.19 48.01-8.20L48.01-8.20Q46.55-6.30 45.09-4.40L45.09-4.40Q43.48-2.34 43.13-1.97L43.13-1.97Q43.99-1.50 44.67-1.28Q45.36-1.06 46.00-1.06L46.00-1.06Q47.70-1.06 49.17-2.30Q50.64-3.53 50.64-5.19ZM69.64-13.76L69.64-13.76Q69.64-10.91 68.84-8.55L68.84-8.55Q68.29-6.89 67.38-5.50L67.38-5.50Q66.57-4.24 66.57-4.18L66.57-4.18Q66.57-3.82 67.79-2.94Q69.02-2.05 69.11-1.46L69.11-1.46Q68.84-1.37 68.55-1.37L68.55-1.37Q67.98-1.37 66.87-2.65L66.87-2.65Q66.34-3.27 65.84-3.27L65.84-3.27Q64.69-2.01 62.94-1.06L62.94-1.06Q61.00 0 58.77 0L58.77 0Q57.35 0 55.85-0.91L55.85-0.91Q54.06-1.99 54.06-3.45L54.06-3.45L54.06-4.88Q54.06-5.72 55.07-6.75Q56.07-7.78 56.96-7.78L56.96-7.78Q57.71-7.78 58.24-7.46Q58.77-7.14 58.77-6.52L58.77-6.52Q58.77-6.01 56.56-4.62L56.56-4.62Q55.52-3.95 55.52-3.07L55.52-3.07Q55.52-2.52 56.33-1.80Q57.13-1.08 57.68-1.08L57.68-1.08L59.50-1.08Q60.56-1.08 62.29-2.75Q64.02-4.42 64.02-5.26L64.02-5.26Q64.02-5.30 63.23-6.72L63.23-6.72Q62.37-8.24 61.77-9.72L61.77-9.72Q60.95-11.73 60.95-13.03L60.95-13.03L60.95-16.48Q60.95-17.92 61.95-19.77L61.95-19.77Q63.19-22.09 64.93-22.09L64.93-22.09Q67.49-22.09 68.71-19.31L68.71-19.31Q69.64-17.17 69.64-13.76ZM66.74-14.49L66.74-14.49L66.74-19.02Q66.74-19.51 66.41-20.13L66.41-20.13Q65.92-21.01 65.11-21.01L65.11-21.01Q63.58-21.01 63.05-19.09L63.05-19.09Q62.41-16.79 62.21-16.66L62.21-16.66L62.21-11.95Q62.32-11.89 63.10-9.83L63.10-9.83Q63.65-8.37 64.58-6.52L64.58-6.52Q65.17-7.73 65.99-10.87L65.99-10.87Q66.74-13.76 66.74-14.49ZM90.07-13.01L90.07-13.01Q89.90-11.29 88.86-8.51L88.86-8.51Q87.55-4.99 85.83-2.81L85.83-2.81Q83.62 0 81.17 0L81.17 0Q79.98 0 78.85-1.04L78.85-1.04Q77.44-2.34 77.44-4.46L77.44-4.46L77.44-7.14L79.76-18.18Q79.76-19.80 78.81-20.48L78.81-20.48Q78.05-21.03 76.71-21.03L76.71-21.03Q74.47-21.03 72.95-19.15L72.95-19.15Q71.56-17.43 71.56-15.33L71.56-15.33Q71.56-14.32 72.24-13.61L72.24-13.61Q72.82-13.01 73.68-13.01L73.68-13.01Q74.34-13.01 74.98-13.41L74.98-13.41Q75.89-13.96 76.35-15.13L76.35-15.13Q76.46-15.02 76.58-14.90Q76.71-14.78 76.71-14.60L76.71-14.60Q76.71-13.10 75.73-11.93L75.73-11.93Q74.56-10.52 72.62-10.52L72.62-10.52Q70.92-10.52 69.86-12.24L69.86-12.24Q69.06-13.54 69.06-14.60L69.06-14.60Q69.06-17.76 72.11-20.10L72.11-20.10Q74.70-22.09 76.91-22.09L76.91-22.09Q79.05-22.09 80.64-20.80Q82.23-19.51 82.23-17.63L82.23-17.63L82.23-14.96L79.76-3.03Q79.89-1.83 80.15-1.50L80.15-1.50Q80.51-1.06 81.52-1.06L81.52-1.06Q83.67-1.06 85.32-3.49L85.32-3.49Q86.67-5.48 87.47-8.66L87.47-8.66Q88.13-11.31 88.13-13.37L88.13-13.37Q88.13-16.17 87.02-17.08L87.02-17.08Q86.52-17.50 86.52-18.01L86.52-18.01Q86.52-18.67 87.20-19.31Q87.89-19.95 88.31-19.95L88.31-19.95Q88.99-19.95 89.53-18.93Q90.07-17.92 90.07-16.04L90.07-16.04Q90.07-15.62 90.08-15.11Q90.09-14.60 90.12-13.98L90.12-13.98Q90.12-13.74 90.12-13.63L90.12-13.63Q90.12-13.48 90.09-13.29Q90.07-13.10 90.07-13.01ZM112.21-4.48L112.21-3.60Q110.99-1.88 110.38-1.33L110.38-1.33Q109.29-0.35 107.90-0.35L107.90-0.35Q106.40-0.35 105.80-1.52L105.80-1.52Q105.38-2.36 105.38-3.95L105.38-3.95L104.85-3.95Q104.15-2.87 103.46-1.81L103.46-1.81Q101.91 0 99.99 0L99.99 0Q98.51 0 97.56-1.39L97.56-1.39Q96.77-2.54 96.77-3.78L96.77-3.78Q96.77-4.68 97.69-7.67L97.69-7.67Q98.56-10.41 99.45-13.37Q100.35-16.33 100.35-17.78L100.35-17.78Q100.35-19.73 99.24-20.50L99.24-20.50Q98.51-21.01 97.30-21.01L97.30-21.01Q95.09-21.01 93.45-19.35L93.45-19.35Q91.91-17.78 91.91-16.00L91.91-16.00Q91.91-14.87 92.62-14.17Q93.34-13.48 94.42-13.48L94.42-13.48Q95.24-13.48 95.81-14.02Q96.37-14.56 96.59-14.56L96.59-14.56Q96.81-14.56 96.97-14.29Q97.12-14.03 97.12-13.65L97.12-13.65Q97.12-12.75 96.13-11.82L96.13-11.82Q95.00-10.78 93.52-10.78L93.52-10.78Q92.10-10.78 91.02-12.00L91.02-12.00Q90.12-13.01 90.12-13.83L90.12-13.83L90.12-15.62Q90.12-18.12 93.01-20.17L93.01-20.17Q95.73-22.09 98.56-22.09L98.56-22.09Q100.52-22.09 102.00-20.52L102.00-20.52Q103.22-19.22 103.22-18.31L103.22-18.31L103.22-16.53L99.29-2.17Q99.40-1.68 99.64-1.38Q99.88-1.08 100.35-1.08L100.35-1.08Q103.06-1.08 104.79-5.55L104.79-5.55Q105.98-9.68 107.19-13.83L107.19-13.83Q108.56-18.31 110.42-18.31L110.42-18.31Q110.69-18.31 110.91-18.15Q111.13-17.98 111.13-17.61L111.13-17.61Q111.08-17.61 110.24-14.65L110.24-14.65Q109.25-11.18 108.61-8.31L108.61-8.31Q107.72-4.37 107.72-2.52L107.72-2.52Q107.72-2.08 107.97-1.76Q108.21-1.44 108.61-1.44L108.61-1.44Q109.32-1.44 110.40-2.74L110.40-2.74Q111.64-4.24 112.21-4.48L112.21-4.48ZM131.54-19.33L131.54-16.95Q131.54-14.98 129.77-12.90L129.77-12.90Q128.51-11.42 126.44-9.96L126.44-9.96Q125.49-9.30 124.54-8.66L124.54-8.66L122.33-3.14Q122.81-2.81 124.55-2.14Q126.28-1.48 126.92-1.48L126.92-1.48Q128.14-1.48 129.18-2.30L129.18-2.30Q130.04-2.98 130.79-4.24L130.79-4.24L131.34-4.24L131.34-3.49Q130.35-1.81 129.04-0.95L129.04-0.95Q127.63 0 125.82 0L125.82 0Q124.43 0 122.42-0.73L122.42-0.73Q121.75-0.97 120.67-1.48L120.67-1.48Q119.72-0.99 119.15-0.75L119.15-0.75Q117.38 0 116.43 0L116.43 0Q114.77 0 113.65-0.49L113.65-0.49Q112.21-1.10 112.21-2.39L112.21-2.39Q112.21-3.36 113.05-3.98Q113.89-4.60 114.97-4.60L114.97-4.60L116.80-4.60Q117.60-4.60 118.67-4.23Q119.74-3.87 119.94-3.87L119.94-3.87Q120.16-3.87 120.32-4.29L120.32-4.29Q120.65-5.63 121.05-6.80L121.05-6.80L121.05-8.11Q119.72-8.11 118.82-8.22L118.82-8.22Q116.63-8.48 115.32-9.30L115.32-9.30Q113.49-10.45 113.49-12.53L113.49-12.53Q113.49-13.65 114.09-14.67L114.09-14.67Q115.13-16.44 117.73-17.67L117.73-17.67L118.64-17.67L118.64-17.12Q117.67-16.04 116.69-14.98L116.69-14.98Q115.88-13.74 115.88-12.53L115.88-12.53Q115.88-11.00 116.98-9.96L116.98-9.96Q118.17-8.84 120.12-8.84L120.12-8.84Q120.94-8.84 121.93-12.26L121.93-12.26Q123.30-16.99 124.16-18.65L124.16-18.65Q125.97-22.09 128.78-22.09L128.78-22.09Q129.99-22.09 130.77-21.30Q131.54-20.50 131.54-19.33L131.54-19.33ZM130.44-18.40L130.44-18.40Q130.44-19.60 130.02-20.29Q129.60-20.99 128.78-20.99L128.78-20.99Q127.34-20.99 126.39-18.85L126.39-18.85Q125.73-17.36 125.29-14.76L125.29-14.76Q125.09-13.54 124.91-12.33L124.91-12.33L124.91-10.32Q127.48-11.69 129.11-14.56L129.11-14.56Q130.44-16.88 130.44-18.40ZM118.64-2.21L118.64-2.21Q118.00-2.65 117.01-2.98Q116.03-3.31 115.15-3.31L115.15-3.31Q114.29-3.31 113.82-3.14L113.82-3.14Q113.12-2.87 113.12-2.21L113.12-2.21Q113.12-1.75 114.13-1.37L114.13-1.37Q114.46-1.26 115.15-1.10L115.15-1.10Q116.36-1.10 117.17-1.36Q117.98-1.61 118.64-2.21ZM146.92-13.76L146.92-13.76Q146.92-10.91 146.12-8.55L146.12-8.55Q145.57-6.89 144.66-5.50L144.66-5.50Q143.85-4.24 143.85-4.18L143.85-4.18Q143.85-3.82 145.07-2.94Q146.30-2.05 146.39-1.46L146.39-1.46Q146.12-1.37 145.83-1.37L145.83-1.37Q145.26-1.37 144.16-2.65L144.16-2.65Q143.63-3.27 143.12-3.27L143.12-3.27Q141.97-2.01 140.22-1.06L140.22-1.06Q138.28 0 136.05 0L136.05 0Q134.63 0 133.13-0.91L133.13-0.91Q131.34-1.99 131.34-3.45L131.34-3.45L131.34-4.88Q131.34-5.72 132.35-6.75Q133.35-7.78 134.24-7.78L134.24-7.78Q134.99-7.78 135.52-7.46Q136.05-7.14 136.05-6.52L136.05-6.52Q136.05-6.01 133.84-4.62L133.84-4.62Q132.80-3.95 132.80-3.07L132.80-3.07Q132.80-2.52 133.61-1.80Q134.41-1.08 134.97-1.08L134.97-1.08L136.78-1.08Q137.84-1.08 139.57-2.75Q141.31-4.42 141.31-5.26L141.31-5.26Q141.31-5.30 140.51-6.72L140.51-6.72Q139.65-8.24 139.05-9.72L139.05-9.72Q138.23-11.73 138.23-13.03L138.23-13.03L138.23-16.48Q138.23-17.92 139.23-19.77L139.23-19.77Q140.47-22.09 142.21-22.09L142.21-22.09Q144.77-22.09 145.99-19.31L145.99-19.31Q146.92-17.17 146.92-13.76ZM144.02-14.49L144.02-14.49L144.02-19.02Q144.02-19.51 143.69-20.13L143.69-20.13Q143.21-21.01 142.39-21.01L142.39-21.01Q140.86-21.01 140.33-19.09L140.33-19.09Q139.69-16.79 139.49-16.66L139.49-16.66L139.49-11.95Q139.60-11.89 140.38-9.83L140.38-9.83Q140.93-8.37 141.86-6.52L141.86-6.52Q142.45-7.73 143.27-10.87L143.27-10.87Q144.02-13.76 144.02-14.49Z" transform="translate(0, 22.68932831892309)"></path></g></g></g></g></g></g><!----><!----><!----><!----><!----><!----></g><mask id="046ae276-78b4-45b3-bda0-bb1912a78876"><g fill="white"><rect data-gra="graph-name-bg" stroke-width="2" class="i-icon-bg" x="0" y="0" width="91.81999969482422" height="37.77000045776367"></rect></g><g transform="translate(5,7)" fill="black"><g data-gra="path-name"><g transform="scale(1)"><path d="M14.08-8.32L14.08-7.44Q14.08-5.21 13.37-3.58Q12.66-1.94 11.39-0.98L11.39-0.98L14.09 1.12L12.32 2.72L8.98 0.08Q8.32 0.22 7.56 0.22L7.56 0.22Q5.66 0.22 4.17-0.72Q2.68-1.65 1.86-3.38Q1.05-5.10 1.04-7.36L1.04-7.36L1.04-8.24Q1.04-10.54 1.85-12.30Q2.66-14.06 4.15-14.99Q5.63-15.92 7.54-15.92L7.54-15.92Q9.48-15.92 10.97-15.00Q12.45-14.08 13.26-12.35Q14.07-10.61 14.08-8.32L14.08-8.32ZM11.34-7.44L11.34-8.26Q11.34-10.92 10.35-12.29Q9.35-13.66 7.54-13.66L7.54-13.66Q5.78-13.66 4.78-12.27Q3.79-10.88 3.76-8.36L3.76-8.36L3.76-7.44Q3.76-4.90 4.76-3.46Q5.76-2.03 7.56-2.03L7.56-2.03Q9.39-2.03 10.36-3.41Q11.34-4.79 11.34-7.44L11.34-7.44ZM25.62-15.71L28.34-15.71L28.34-5.21Q28.34-2.71 26.74-1.25Q25.13 0.22 22.47 0.22L22.47 0.22Q19.77 0.22 18.19-1.22Q16.60-2.66 16.60-5.22L16.60-5.22L16.60-15.71L19.32-15.71L19.32-5.20Q19.32-3.62 20.12-2.79Q20.92-1.96 22.47-1.96L22.47-1.96Q25.62-1.96 25.62-5.29L25.62-5.29L25.62-15.71ZM40.43-9.17L40.43-7.01L33.98-7.01L33.98-2.18L41.52-2.18L41.52 0L31.25 0L31.25-15.71L41.45-15.71L41.45-13.51L33.98-13.51L33.98-9.17L40.43-9.17ZM52.92-9.17L52.92-7.01L46.47-7.01L46.47-2.18L54.01-2.18L54.01 0L43.74 0L43.74-15.71L53.94-15.71L53.94-13.51L46.47-13.51L46.47-9.17L52.92-9.17ZM68.69-15.71L68.69 0L65.97 0L58.96-11.14L58.96 0L56.24 0L56.24-15.71L58.96-15.71L65.99-4.52L65.99-15.71L68.69-15.71ZM80.13-4.05L80.13-4.05Q80.13-5.08 79.40-5.64Q78.67-6.20 76.77-6.77Q74.88-7.35 73.75-8.05L73.75-8.05Q71.61-9.40 71.61-11.56L71.61-11.56Q71.61-13.46 73.16-14.69Q74.70-15.92 77.17-15.92L77.17-15.92Q78.81-15.92 80.10-15.32Q81.38-14.71 82.11-13.60Q82.85-12.48 82.85-11.12L82.85-11.12L80.13-11.12Q80.13-12.35 79.36-13.05Q78.59-13.74 77.15-13.74L77.15-13.74Q75.81-13.74 75.08-13.17Q74.34-12.60 74.34-11.57L74.34-11.57Q74.34-10.71 75.14-10.13Q75.93-9.56 77.77-9.01Q79.60-8.47 80.71-7.77Q81.82-7.08 82.34-6.18Q82.86-5.28 82.86-4.07L82.86-4.07Q82.86-2.10 81.35-0.94Q79.85 0.22 77.27 0.22L77.27 0.22Q75.57 0.22 74.14-0.42Q72.71-1.05 71.91-2.16Q71.12-3.27 71.12-4.75L71.12-4.75L73.85-4.75Q73.85-3.41 74.74-2.68Q75.62-1.94 77.27-1.94L77.27-1.94Q78.69-1.94 79.41-2.52Q80.13-3.10 80.13-4.05Z" transform="translate(-1.0356010369518207, 22.68932831892309)"></path></g></g></g></mask><defs v-gra="od"></defs></svg>