<svg xmlns="http://www.w3.org/2000/svg" x="0" y="0" filtersec="colorsb5555250414" class="image-svg-svg primary" style="overflow: visible;"><svg xmlns="http://www.w3.org/2000/svg" viewBox="0 0 5.07 11.23"><title>资源 6</title><path d="M3.59.09A2.25 2.25 0 0 0 2.72 0v1.52a.71.71 0 0 1 .61.27 1.44 1.44 0 0 1 .24.85v.6L5.07 3V2A2 2 0 0 0 3.59.09z" fill="#f7e700"></path><path d="M3.29 5.25l-1 1.17c1 .83 1.29 1.07 1.29 1.94a1.67 1.67 0 0 1-.2.8 1.24 1.24 0 0 1-.31.34 1 1 0 0 1-.33.16v1.5a2.75 2.75 0 0 0 .91-.36 2.88 2.88 0 0 0 .79-.72 2.57 2.57 0 0 0 .48-.93 3.15 3.15 0 0 0 .17-1c-.02-1.31-.71-1.96-1.8-2.9z" fill="#00d6cf"></path><path d="M2.34 9.71a.69.69 0 0 1-.6-.27 1.44 1.44 0 0 1-.24-.85V8L0 8.21v1a2 2 0 0 0 .68 1.52 2.11 2.11 0 0 0 .8.42 2.2 2.2 0 0 0 .86.08z" fill="#7f75ff"></path><path d="M2.17 5.93C1 4.91.3 4.3.3 3a2.89 2.89 0 0 1 .15-.91 2.32 2.32 0 0 1 .43-.82 2.41 2.41 0 0 1 .68-.59 2.4 2.4 0 0 1 .78-.3V.07a2.84 2.84 0 0 0-.91.36 2.7 2.7 0 0 0-.78.72 2.76 2.76 0 0 0-.49.93 3.14 3.14 0 0 0-.16 1c0 1.4.78 2.06 2 3.12l.21-.2zM.9 3a2.4 2.4 0 0 1 .3-1.15 2.17 2.17 0 0 1 .5-.55 1.62 1.62 0 0 1 .56-.3h.08V.68a2.15 2.15 0 0 0-.65.25 2.35 2.35 0 0 0-.59.54 2.13 2.13 0 0 0-.36.7A2.45 2.45 0 0 0 .6 3c0 1.13.63 1.68 1.79 2.68l.21-.18h-.07C1.38 4.51.9 4.13.9 3zm.6-.09a1.67 1.67 0 0 1 .2-.8 1.24 1.24 0 0 1 .3-.38 1 1 0 0 1 .33-.16v-.3a1.26 1.26 0 0 0-.45.22 1.68 1.68 0 0 0-.4.44 2 2 0 0 0-.25 1c0 1 .39 1.36 1.54 2.29l.07.06L3 5C1.82 4 1.5 3.8 1.5 2.87z" fill="#ff5454"></path></svg></svg>