<svg data-v-70b83f88="" version="1.0" xmlns="http://www.w3.org/2000/svg" xmlns:xlink="http://www.w3.org/1999/xlink" viewBox="0 0 340.000000 250.000000" preserveAspectRatio="xMidYMid meet" color-interpolation-filters="sRGB" style="margin: auto;"><rect data-v-70b83f88="" x="0" y="0" width="100%" height="100%" fill="#ffffff" fill-opacity="1" class="background"></rect><rect data-v-70b83f88="" x="0" y="0" width="100%" height="100%" fill="url(#watermark)" fill-opacity="1" class="watermarklayer"></rect><g data-v-70b83f88="" fill="#03001e" class="basesvg" transform="translate(81.10465240478516,79.03682708740234)"><g data-gra="path-name" fill-rule="" class="tp-name"><g transform="scale(1)"><g><path d="M0-15.01C0-2.12 5.98 3.82 14.32 3.82 15.74 3.82 17.03 3.68 18.23 3.41 20.16 5.89 22.56 8.29 25.96 9.44 26.65 9.67 27.3 9.76 27.94 9.76 31.12 9.76 33.33 7 33.33 4.05 33.33 3.41 33.24 2.76 33.01 2.16 32.36 3.04 31.35 3.36 30.25 3.36 29.46 3.36 28.63 3.22 27.81 2.95 26.06 2.39 24.72 1.61 23.57 0.74 27.67-2.81 29.05-8.93 29.05-15.01 29.05-26.98 21.96-32.73 14.78-32.73 5.75-32.73 0-26.65 0-15.01ZM15.24-30.34C18.51-30.34 21.68-25.32 21.68-14.92 21.68-10.36 21.22-5.71 19.89-2.58 18.74-3.64 17.63-4.56 16.2-5.06 15.24-5.39 14.27-5.57 13.4-5.57 12.2-5.57 11.19-5.2 10.63-4.24L10.91-4.24C12.98-4.24 14.55-1.75 16.57 1.15 16.11 1.34 15.56 1.43 15.01 1.43 11.19 1.43 8.47-3.73 8.47-14.92 8.47-25.04 11.09-30.34 15.19-30.34ZM33.01-30.34C35.08-30.34 35.08-28.22 35.08-26.75L35.08-5.39C35.08-0.41 38.12 2.53 42.68 2.53 45.94 2.53 49.03 0.92 50.18-2.12L50.18-1.38C50.18 2.49 52.57 5.16 56.12 5.16 59.75 5.16 61.73 3.45 61.73 0.74 61.55 1.43 60.77 2.21 59.8 2.21 57.73 2.21 57.73 0.09 57.73-1.38L57.73-30.61 50.18-30.61 50.18-6.91C50.18-4.14 48.34-1.98 46.08-1.98 44.42-1.98 42.63-3.5 42.63-5.39L42.63-26.75C42.63-30.61 40.24-33.28 36.69-33.28 33.05-33.28 31.07-31.58 31.07-28.86 31.26-29.55 32.04-30.34 33.01-30.34ZM88.43-3.13C86.04 0.18 82.54 1.75 79.27 1.75L79.18 1.75C74.49 1.75 69.93-1.29 69.93-6.49 69.93-10.59 71.86-14.46 77.2-15.28L78.68-17.91C78.03-17.77 77.39-17.68 76.83-17.68 72.78-17.68 70.85-20.99 70.85-24.26L70.85-24.35C70.9-27.62 72.87-30.94 76.74-30.98 80.1-30.98 81.48-28.36 81.48-25.92L81.48-25.78C81.48-23.94 80.65-21.96 79.23-20.44 79.83-20.35 80.42-20.3 80.98-20.3 85.17-20.3 87.42-22.74 87.42-25.41L87.42-25.64C87.28-29 83.69-32.73 76.1-32.73 68.92-32.73 64.91-28.27 64.82-23.8L64.82-23.66C64.82-20.81 66.43-17.91 69.84-16.2 62.84-14.59 61.73-9.35 61.73-6.4 61.73 1.29 68.36 4.6 75.04 4.6 81.3 4.6 87.51 1.75 88.43-3.13ZM115.14-3.13C112.74 0.18 109.24 1.75 105.97 1.75L105.88 1.75C101.19 1.75 96.63-1.29 96.63-6.49 96.63-10.59 98.56-14.46 103.9-15.28L105.38-17.91C104.73-17.77 104.09-17.68 103.53-17.68 99.48-17.68 97.55-20.99 97.55-24.26L97.55-24.35C97.6-27.62 99.58-30.94 103.44-30.98 106.8-30.98 108.18-28.36 108.18-25.92L108.18-25.78C108.18-23.94 107.36-21.96 105.93-20.44 106.53-20.35 107.13-20.3 107.68-20.3 111.87-20.3 114.12-22.74 114.12-25.41L114.12-25.64C113.98-29 110.39-32.73 102.8-32.73 95.62-32.73 91.61-28.27 91.52-23.8L91.52-23.66C91.52-20.81 93.13-17.91 96.54-16.2 89.54-14.59 88.43-9.35 88.43-6.4 88.43 1.29 95.06 4.6 101.74 4.6 108 4.6 114.21 1.75 115.14-3.13ZM120.52-0.05C120.52-1.84 119.32-2.72 118.08-2.72 116.65-2.72 115.14-1.66 115.14 0.28 115.14 3.77 117.76 5.43 121.44 5.43 128.21 5.43 132.03 1.15 132.03-5.34L132.03-24.45 139.86 0.64 147.41 0.64 147.41-28.59C147.41-30.06 147.41-32.18 149.43-32.18 150.4-32.18 151.18-31.4 151.37-30.71 151.37-33.42 149.43-35.13 145.8-35.13 142.2-35.13 139.86-32.46 139.86-28.59L139.86-7.37 132.03-32.46 124.48-32.46 124.48-3.41C124.48-0.41 122.96 2.9 119.92 2.9 119.42 2.9 118.82 2.81 118.22 2.58 119.51 2.49 120.52 1.38 120.52-0.05ZM157.81-6.12C157.81-7.87 157.07-9.12 154.91-9.35 154.73-9.35 154.59-9.39 154.4-9.39 151.83-9.39 150.54-7.32 150.54-4.79 150.54 0.92 157.76 3.31 162.64 3.31 171.07 3.31 177.79-0.09 177.79-7.41L177.79-7.55C177.61-17.82 158.69-19.52 158.69-25.23 158.69-28.86 161.4-29.88 164.21-29.88 166.88-29.88 168.68-28.08 168.68-26.1 168.68-24.63 167.89-23.06 165.87-22.1 166.24-21.96 166.97-21.87 167.85-21.87 170.61-21.87 174.94-22.79 174.94-26.42 174.94-30.15 169.32-32.59 163.61-32.69L163.29-32.69C157.49-32.69 151.73-30.2 151.73-23.98 151.73-13.35 169.87-12.38 169.87-5.8 169.87-2.49 164.58-0.09 160.07-0.09 157.07-0.09 154.45-1.15 153.9-3.68 154.4-3.45 154.86-3.36 155.28-3.36 156.8-3.36 157.81-4.7 157.81-6.12Z" transform="translate(0, 35.130001068115234)"></path></g><!----><!----><!----><!----><!----><!----><g data-gra="path-name-1" fill="#03001e" transform="translate(0,47.88999938964844)"><g transform="scale(0.99114)"><path d="M5.18-0.04C5.18-1.77 4.03-2.61 2.84-2.61 1.46-2.61 0-1.59 0 0.27 0 3.63 2.53 5.23 6.07 5.23 12.58 5.23 16.26 1.11 16.26-5.14L16.26-9.7 18.65-13.11C19.67-14.49 20.47-15.11 21.4-15.15L21.44-15.15C22.99-15.15 23.21-13.2 23.21-11.74L23.21-3.1C23.21 0.62 25.52 3.19 28.93 3.19 32.43 3.19 34.29 1.55 34.29-1.06 34.11-0.4 33.36 0.4 32.47 0.4 30.48 0.4 30.48-1.68 30.48-3.1L30.48-11.74C30.48-15.51 28.18-18.03 24.76-18.03 23.57-18.03 22.46-17.77 21.53-17.32L31.19-31.23 25.87-31.23 16.26-17.37 16.26-31.23 8.99-31.23 8.99-3.28C8.99-0.4 7.53 2.79 4.61 2.79 4.12 2.79 3.54 2.7 2.97 2.48 4.21 2.39 5.18 1.33 5.18-0.04ZM34.29-28.18C34.47-28.84 35.22-29.59 36.15-29.59 38.14-29.59 38.14-27.56 38.14-26.14L38.14 1.99 45.41 1.99 45.41-26.14C45.41-29.86 43.11-32.38 39.69-32.38 36.19-32.38 34.29-30.79 34.29-28.18ZM55.51-5.89C55.51-7.58 54.8-8.77 52.72-8.99 52.54-8.99 52.41-9.04 52.23-9.04 49.75-9.04 48.51-7.04 48.51-4.61 48.51 0.89 55.47 3.19 60.16 3.19 68.27 3.19 74.74-0.09 74.74-7.13L74.74-7.27C74.56-17.14 56.35-18.78 56.35-24.28 56.35-27.78 58.97-28.75 61.67-28.75 64.24-28.75 65.97-27.02 65.97-25.12 65.97-23.7 65.21-22.2 63.26-21.27 63.62-21.13 64.33-21.04 65.17-21.04 67.83-21.04 71.99-21.93 71.99-25.43 71.99-29.02 66.59-31.37 61.09-31.45L60.78-31.45C55.2-31.45 49.66-29.06 49.66-23.08 49.66-12.85 67.12-11.92 67.12-5.58 67.12-2.39 62.02-0.09 57.68-0.09 54.8-0.09 52.28-1.11 51.75-3.54 52.23-3.32 52.68-3.23 53.07-3.23 54.54-3.23 55.51-4.52 55.51-5.89ZM76.86-28.18C77.04-28.84 77.79-29.59 78.73-29.59 80.72-29.59 80.72-27.56 80.72-26.14L80.72 1.99 87.98 1.99 87.98-26.14C87.98-29.86 85.68-32.38 82.27-32.38 78.77-32.38 76.86-30.79 76.86-28.18ZM113.46-29.9C113.46-28.62 114.52-27.51 115.89-27.51 116.07-27.51 116.25-27.51 116.43-27.56 115.27-22.77 111.24-10.54 108.76-2.7L101.01-27.11C100.43-29.37 98.31-30.3 95.83-30.3 93.97-30.3 91.79-29.86 91.09-29.15L91.35-29.15C92.15-29.15 92.95-28.62 93.12-27.56L101.5-1.95 102.43 2.3 110.36 2.3 118.95-26.01C119.26-26.98 119.39-27.82 119.39-28.57 119.39-31.19 117.76-32.34 115.94-32.34 114.79-32.34 113.5-31.54 113.46-29.99ZM122.14-29.2C124.13-29.2 124.13-27.16 124.13-25.74L124.13-5.18C124.13-0.4 127.06 2.44 131.44 2.44 134.59 2.44 137.56 0.89 138.67-2.04L138.67-1.33C138.67 2.39 140.97 4.96 144.38 4.96 147.88 4.96 149.79 3.32 149.79 0.71 149.61 1.37 148.86 2.13 147.93 2.13 145.93 2.13 145.93 0.09 145.93-1.33L145.93-29.46 138.67-29.46 138.67-6.65C138.67-3.99 136.89-1.9 134.72-1.9 133.13-1.9 131.4-3.37 131.4-5.18L131.4-25.74C131.4-29.46 129.1-32.03 125.69-32.03 122.19-32.03 120.28-30.39 120.28-27.78 120.46-28.44 121.21-29.2 122.14-29.2ZM160.95-26.14C160.95-29.9 158.6-32.38 155.19-32.38 151.69-32.38 149.79-30.79 149.79-28.18 149.96-28.84 150.72-29.59 151.65-29.59 153.64-29.59 153.64-27.56 153.64-26.14L153.64-2.88C153.64-1.51 152.98 3.81 150.63 4.43 151.47 4.65 152.31 4.78 153.06 4.78 154.08 4.78 154.97 4.61 155.81 4.3 156.17 4.12 156.52 4.08 156.87 4.08 160.73 4.08 165.91 12.05 173.97 12.05 177.47 12.05 179.38 9.39 179.38 6.69 179.38 5.49 178.98 4.3 178.23 3.28 177.61 4.92 175.84 5.54 173.66 5.58L173.58 5.58C167.42 5.58 164.63 1.82 160.64 1.82 160.11 1.82 159.58 1.86 159.05 1.95 160.29 0.44 160.95-1.55 160.95-3.59ZM165.78-28.18C165.96-28.84 166.71-29.59 167.64-29.59 169.63-29.59 169.63-27.56 169.63-26.14L169.63 1.99 176.9 1.99 176.9-26.14C176.9-29.86 174.6-32.38 171.18-32.38 167.68-32.38 165.78-30.79 165.78-28.18Z" transform="translate(0, 32.380001068115234)"></path></g></g></g></g><!----></g><defs v-gra="od"></defs></svg>