<svg x="0" y="0" width="112.5" height="112.49887501124988" filtersec="colorsb1147871907" class="image-svg-svg primary" style="overflow: visible;"><svg version="1.1" id="图层_1" xmlns="http://www.w3.org/2000/svg" xmlns:xlink="http://www.w3.org/1999/xlink" x="0px" y="0px" viewBox="0.10500144958496094 0.00025177001953125 99.65999603271484 99.6594467163086" enable-background="new 0 0 100 100" xml:space="preserve"><g><g><ellipse transform="matrix(0.7071 -0.7071 0.7071 0.7071 -20.6061 49.9058)" fill="#07326E" cx="49.94" cy="49.83" rx="17.04" ry="17.04"></ellipse></g><path fill="#07326E" d="M72.63,72.52L72.63,72.52c7.85-7.85,10.78-18.75,8.8-28.87c-1.58-16.62-8.96-30.72-17.01-41.5
		c7.59,2.3,14.74,6.45,20.75,12.45c19.46,19.46,19.46,51.01,0,70.47l0,0c-11.6,11.6-27.5,16.28-42.57,14.05
		c-4.51-7.94-7.14-15.21-8.64-21.45C46.22,84.71,62.15,83,72.63,72.52z"></path><path fill="#2CA6E0" d="M57.27,0.54c4.51,7.94,7.14,15.21,8.64,21.45c-12.27-7.05-28.19-5.34-38.67,5.14l0,0
		C19.4,34.98,16.46,45.88,18.44,56c1.58,16.62,8.96,30.72,17.01,41.5c-7.59-2.3-14.75-6.45-20.75-12.45
		c-19.46-19.46-19.46-51.01,0-70.47l0,0C26.3,2.99,42.2-1.69,57.27,0.54z"></path></g></svg></svg>