<svg data-v-70b83f88="" version="1.0" xmlns="http://www.w3.org/2000/svg" xmlns:xlink="http://www.w3.org/1999/xlink" viewBox="0 0 340.000000 250.000000" preserveAspectRatio="xMidYMid meet" color-interpolation-filters="sRGB" style="margin: auto;"><rect data-v-70b83f88="" x="0" y="0" width="100%" height="100%" fill="#140d0d" fill-opacity="1" class="background"></rect><rect data-v-70b83f88="" x="0" y="0" width="100%" height="100%" fill="url(#watermark)" fill-opacity="1" class="watermarklayer"></rect><g data-v-70b83f88="" fill="#ec7210" class="pmspacesvg" transform="translate(57,109.01375102996826)"><!----><g><g><g><rect data-gra="graph-name" fill="#FFCC66" x="0" y="24.86749839782715" width="226" height="7.104999542236328"></rect></g><g data-gra="path-name" fill-rule="" class="tp-name" fill="#ec7210" transform="translate(0,0)" clip-path="url(#fd662bab-6f39-4a2c-a7cf-6e8a7295aaf5)"><g transform="scale(1)"><g><path d="M19.45 4.87Q18.84 4.87 18.42 4.36L18.42 4.36 14.93 0.19Q14.13 0.32 13.01 0.32L13.01 0.32Q9.64 0.32 7.11-1.15 4.58-2.63 3.2-5.22 1.83-7.82 1.76-11.18L1.76-11.18Q1.83-14.55 3.2-17.14 4.58-19.74 7.11-21.21 9.64-22.68 13.01-22.68L13.01-22.68Q16.37-22.68 18.89-21.21 21.4-19.74 22.79-17.12 24.19-14.51 24.25-11.18L24.25-11.18Q24.19-7.43 22.44-4.63 20.7-1.83 17.62-0.54L17.62-0.54 20.44 2.56Q20.82 2.95 20.82 3.49L20.82 3.49Q20.86 4.04 20.44 4.45 20.02 4.87 19.45 4.87L19.45 4.87ZM13.01-2.4Q15.57-2.4 17.46-3.56 19.35-4.71 20.34-6.7 21.34-8.68 21.34-11.18L21.34-11.18Q21.34-13.68 20.34-15.67 19.35-17.65 17.46-18.81 15.57-19.96 13.01-19.96L13.01-19.96Q10.41-19.96 8.54-18.81 6.66-17.65 5.67-15.67 4.68-13.68 4.68-11.18L4.68-11.18Q4.68-8.68 5.67-6.7 6.66-4.71 8.54-3.56 10.41-2.4 13.01-2.4L13.01-2.4ZM33.86 0.32Q32.1 0.32 30.8-0.51 29.51-1.35 28.82-2.79 28.13-4.23 28.13-5.96L28.13-5.96 28.13-15.06Q28.13-15.67 28.56-16.08 28.99-16.5 29.6-16.5L29.6-16.5Q30.21-16.5 30.63-16.08 31.04-15.67 31.04-15.06L31.04-15.06 31.04-6.28Q31.04-2.37 34.57-2.37L34.57-2.37Q36.17-2.37 37.44-3.2 38.7-4.04 39.82-5.45L39.82-5.45 39.82-15.06Q39.82-15.67 40.26-16.08 40.69-16.5 41.3-16.5L41.3-16.5Q41.91-16.5 42.32-16.08 42.74-15.67 42.74-15.06L42.74-15.06 42.74-1.31Q42.74-0.7 42.32-0.27 41.91 0.16 41.3 0.16L41.3 0.16Q40.69 0.16 40.26-0.27 39.82-0.7 39.82-1.31L39.82-1.31 39.82-2.63Q38.61-1.28 37.2-0.48 35.79 0.32 33.86 0.32L33.86 0.32ZM55.11 0.32Q51.2 0.32 49-1.91 46.81-4.13 46.81-8.17L46.81-8.17Q46.81-10.44 47.64-12.37 48.47-14.29 50.2-15.47 51.93-16.66 54.46-16.66L54.46-16.66Q56.84-16.66 58.57-15.55 60.3-14.45 61.19-12.61 62.09-10.76 62.09-8.59L62.09-8.59Q62.09-7.98 61.69-7.56 61.29-7.14 60.62-7.14L60.62-7.14 49.75-7.14Q50.01-4.9 51.42-3.65 52.83-2.4 55.36-2.4L55.36-2.4Q56.71-2.4 57.72-2.66 58.73-2.92 59.69-3.4L59.69-3.4Q59.94-3.52 60.26-3.52L60.26-3.52Q60.78-3.52 61.16-3.17 61.54-2.82 61.54-2.27L61.54-2.27Q61.54-1.57 60.71-1.09L60.71-1.09Q59.46-0.38 58.24-0.03 57.03 0.32 55.11 0.32L55.11 0.32ZM49.75-9.52L59.21-9.52Q59.11-11.09 58.39-12.14 57.67-13.2 56.61-13.7 55.55-14.19 54.46-14.19L54.46-14.19Q53.38-14.19 52.32-13.7 51.26-13.2 50.56-12.14 49.85-11.09 49.75-9.52L49.75-9.52ZM73.24 0.32Q69.33 0.32 67.14-1.91 64.94-4.13 64.94-8.17L64.94-8.17Q64.94-10.44 65.77-12.37 66.61-14.29 68.34-15.47 70.07-16.66 72.6-16.66L72.6-16.66Q74.97-16.66 76.7-15.55 78.43-14.45 79.33-12.61 80.22-10.76 80.22-8.59L80.22-8.59Q80.22-7.98 79.82-7.56 79.42-7.14 78.75-7.14L78.75-7.14 67.89-7.14Q68.14-4.9 69.55-3.65 70.96-2.4 73.49-2.4L73.49-2.4Q74.84-2.4 75.85-2.66 76.86-2.92 77.82-3.4L77.82-3.4Q78.08-3.52 78.4-3.52L78.4-3.52Q78.91-3.52 79.29-3.17 79.68-2.82 79.68-2.27L79.68-2.27Q79.68-1.57 78.85-1.09L78.85-1.09Q77.6-0.38 76.38-0.03 75.16 0.32 73.24 0.32L73.24 0.32ZM67.89-9.52L77.34-9.52Q77.24-11.09 76.52-12.14 75.8-13.2 74.74-13.7 73.69-14.19 72.6-14.19L72.6-14.19Q71.51-14.19 70.45-13.7 69.39-13.2 68.69-12.14 67.98-11.09 67.89-9.52L67.89-9.52ZM85.51 0.16Q84.9 0.16 84.48-0.26 84.07-0.67 84.07-1.28L84.07-1.28 84.07-15.03Q84.07-15.63 84.48-16.07 84.9-16.5 85.51-16.5L85.51-16.5Q86.12-16.5 86.55-16.07 86.98-15.63 86.98-15.03L86.98-15.03 86.98-13.71Q88.2-15.06 89.61-15.86 91.02-16.66 92.94-16.66L92.94-16.66Q94.7-16.66 96-15.83 97.3-14.99 97.99-13.55 98.68-12.11 98.68-10.38L98.68-10.38 98.68-1.28Q98.68-0.67 98.24-0.26 97.81 0.16 97.2 0.16L97.2 0.16Q96.59 0.16 96.18-0.26 95.76-0.67 95.76-1.28L95.76-1.28 95.76-10.06Q95.76-13.97 92.24-13.97L92.24-13.97Q90.64-13.97 89.37-13.14 88.1-12.3 86.98-10.89L86.98-10.89 86.98-1.28Q86.98-0.67 86.55-0.26 86.12 0.16 85.51 0.16L85.51 0.16ZM108.86 0.32Q105.66 0.32 103.03-1.12L103.03-1.12Q102.49-1.51 102.49-2.18L102.49-2.18Q102.49-2.69 102.84-3.08 103.19-3.46 103.74-3.46L103.74-3.46Q104.03-3.46 104.32-3.33L104.32-3.33Q105.34-2.88 106.37-2.63 107.39-2.37 108.67-2.37L108.67-2.37Q112.23-2.37 112.23-4.65L112.23-4.65Q112.23-5.38 111.41-5.77 110.59-6.15 108.74-6.63L108.74-6.63Q106.85-7.08 105.61-7.56 104.38-8.04 103.5-9.02 102.62-10 102.62-11.6L102.62-11.6Q102.62-13.84 104.24-15.25 105.85-16.66 108.86-16.66L108.86-16.66Q111.33-16.66 113.51-15.86L113.51-15.86Q113.96-15.73 114.2-15.38 114.44-15.03 114.44-14.64L114.44-14.64Q114.44-14.13 114.07-13.74 113.7-13.36 113.16-13.36L113.16-13.36Q113-13.36 112.74-13.42L112.74-13.42Q110.88-14 109.09-14L109.09-14Q107.36-14 106.38-13.38 105.4-12.75 105.4-11.76L105.4-11.76Q105.4-10.8 106.3-10.35 107.2-9.9 109.09-9.48L109.09-9.48Q110.98-9 112.16-8.54 113.35-8.07 114.2-7.08 115.05-6.09 115.05-4.42L115.05-4.42Q115.05-2.37 113.43-1.03 111.81 0.32 108.86 0.32L108.86 0.32ZM129.3 0.16Q128.7 0.16 128.28-0.26 127.86-0.67 127.86-1.28L127.86-1.28 127.86-21.05Q127.86-21.66 128.28-22.09 128.7-22.52 129.3-22.52L129.3-22.52Q129.91-22.52 130.35-22.09 130.78-21.66 130.78-21.05L130.78-21.05 130.78-10.86 141.74-22.01Q142.18-22.52 142.82-22.52L142.82-22.52Q143.37-22.52 143.77-22.15 144.17-21.79 144.17-21.24L144.17-21.24Q144.17-20.6 143.82-20.25L143.82-20.25 136.42-12.88 144.91-2.18Q145.26-1.73 145.26-1.25L145.26-1.25Q145.29-0.67 144.88-0.26 144.46 0.16 143.85 0.16L143.85 0.16Q143.11 0.16 142.7-0.42L142.7-0.42 134.43-10.96 130.78-7.27 130.78-1.28Q130.78-0.67 130.35-0.26 129.91 0.16 129.3 0.16L129.3 0.16ZM150.13-19.67Q149.46-19.67 148.98-20.15 148.5-20.63 148.5-21.31L148.5-21.31 148.5-21.43Q148.5-22.11 148.98-22.59 149.46-23.07 150.13-23.07L150.13-23.07 150.32-23.07Q150.99-23.07 151.48-22.59 151.96-22.11 151.96-21.43L151.96-21.43 151.96-21.31Q151.96-20.63 151.48-20.15 150.99-19.67 150.32-19.67L150.32-19.67 150.13-19.67ZM150.19 0.16Q149.58 0.16 149.17-0.26 148.75-0.67 148.75-1.28L148.75-1.28 148.75-15.03Q148.75-15.63 149.17-16.07 149.58-16.5 150.19-16.5L150.19-16.5Q150.83-16.5 151.25-16.08 151.67-15.67 151.67-15.03L151.67-15.03 151.67-1.28Q151.67-0.67 151.23-0.26 150.8 0.16 150.19 0.16L150.19 0.16ZM162.02 0.32Q158.81 0.32 156.18-1.12L156.18-1.12Q155.64-1.51 155.64-2.18L155.64-2.18Q155.64-2.69 155.99-3.08 156.34-3.46 156.89-3.46L156.89-3.46Q157.18-3.46 157.47-3.33L157.47-3.33Q158.49-2.88 159.52-2.63 160.54-2.37 161.82-2.37L161.82-2.37Q165.38-2.37 165.38-4.65L165.38-4.65Q165.38-5.38 164.56-5.77 163.75-6.15 161.89-6.63L161.89-6.63Q160-7.08 158.76-7.56 157.53-8.04 156.65-9.02 155.77-10 155.77-11.6L155.77-11.6Q155.77-13.84 157.39-15.25 159-16.66 162.02-16.66L162.02-16.66Q164.48-16.66 166.66-15.86L166.66-15.86Q167.11-15.73 167.35-15.38 167.59-15.03 167.59-14.64L167.59-14.64Q167.59-14.13 167.22-13.74 166.85-13.36 166.31-13.36L166.31-13.36Q166.15-13.36 165.89-13.42L165.89-13.42Q164.03-14 162.24-14L162.24-14Q160.51-14 159.53-13.38 158.56-12.75 158.56-11.76L158.56-11.76Q158.56-10.8 159.45-10.35 160.35-9.9 162.24-9.48L162.24-9.48Q164.13-9 165.32-8.54 166.5-8.07 167.35-7.08 168.2-6.09 168.2-4.42L168.2-4.42Q168.2-2.37 166.58-1.03 164.96 0.32 162.02 0.32L162.02 0.32ZM173.49-19.67Q172.81-19.67 172.33-20.15 171.85-20.63 171.85-21.31L171.85-21.31 171.85-21.43Q171.85-22.11 172.33-22.59 172.81-23.07 173.49-23.07L173.49-23.07 173.68-23.07Q174.35-23.07 174.83-22.59 175.31-22.11 175.31-21.43L175.31-21.43 175.31-21.31Q175.31-20.63 174.83-20.15 174.35-19.67 173.68-19.67L173.68-19.67 173.49-19.67ZM173.55 0.16Q172.94 0.16 172.52-0.26 172.11-0.67 172.11-1.28L172.11-1.28 172.11-15.03Q172.11-15.63 172.52-16.07 172.94-16.5 173.55-16.5L173.55-16.5Q174.19-16.5 174.61-16.08 175.02-15.67 175.02-15.03L175.02-15.03 175.02-1.28Q175.02-0.67 174.59-0.26 174.16 0.16 173.55 0.16L173.55 0.16ZM185.88 0.16Q185.31 0.16 184.83-0.18 184.35-0.51 184.12-1.03L184.12-1.03 178.55-14.35Q178.39-14.74 178.39-15.03L178.39-15.03Q178.39-15.63 178.8-16.07 179.22-16.5 179.83-16.5L179.83-16.5Q180.25-16.5 180.61-16.26 180.98-16.02 181.14-15.67L181.14-15.67 186.04-3.24 190.95-15.67Q191.11-16.02 191.47-16.26 191.84-16.5 192.26-16.5L192.26-16.5Q192.87-16.5 193.28-16.07 193.7-15.63 193.7-15.03L193.7-15.03Q193.7-14.74 193.54-14.35L193.54-14.35 187.97-1.03Q187.74-0.51 187.26-0.18 186.78 0.16 186.2 0.16L186.2 0.16 185.88 0.16ZM202.64 0.32Q200.88 0.32 199.58-0.51 198.28-1.35 197.59-2.79 196.9-4.23 196.9-5.96L196.9-5.96 196.9-15.06Q196.9-15.67 197.34-16.08 197.77-16.5 198.38-16.5L198.38-16.5Q198.99-16.5 199.4-16.08 199.82-15.67 199.82-15.06L199.82-15.06 199.82-6.28Q199.82-2.37 203.34-2.37L203.34-2.37Q204.95-2.37 206.21-3.2 207.48-4.04 208.6-5.45L208.6-5.45 208.6-15.06Q208.6-15.67 209.03-16.08 209.46-16.5 210.07-16.5L210.07-16.5Q210.68-16.5 211.1-16.08 211.51-15.67 211.51-15.06L211.51-15.06 211.51-1.31Q211.51-0.7 211.1-0.27 210.68 0.16 210.07 0.16L210.07 0.16Q209.46 0.16 209.03-0.27 208.6-0.7 208.6-1.31L208.6-1.31 208.6-2.63Q207.38-1.28 205.97-0.48 204.56 0.32 202.64 0.32L202.64 0.32ZM218.02 0.16Q217.41 0.16 216.99-0.26 216.58-0.67 216.58-1.28L216.58-1.28 216.58-22.07Q216.58-22.68 216.99-23.12 217.41-23.55 218.02-23.55L218.02-23.55Q218.66-23.55 219.08-23.13 219.49-22.71 219.49-22.07L219.49-22.07 219.49-1.28Q219.49-0.67 219.06-0.26 218.63 0.16 218.02 0.16L218.02 0.16ZM225.93-19.67Q225.26-19.67 224.78-20.15 224.3-20.63 224.3-21.31L224.3-21.31 224.3-21.43Q224.3-22.11 224.78-22.59 225.26-23.07 225.93-23.07L225.93-23.07 226.12-23.07Q226.8-23.07 227.28-22.59 227.76-22.11 227.76-21.43L227.76-21.43 227.76-21.31Q227.76-20.63 227.28-20.15 226.8-19.67 226.12-19.67L226.12-19.67 225.93-19.67ZM226 0.16Q225.39 0.16 224.97-0.26 224.55-0.67 224.55-1.28L224.55-1.28 224.55-15.03Q224.55-15.63 224.97-16.07 225.39-16.5 226-16.5L226-16.5Q226.64-16.5 227.05-16.08 227.47-15.67 227.47-15.03L227.47-15.03 227.47-1.28Q227.47-0.67 227.04-0.26 226.6 0.16 226 0.16L226 0.16Z" transform="translate(-1.7599999904632568, 23.549999237060547)"></path></g><!----><!----><!----><!----><!----><!----><!----></g></g></g><!----></g></g><clipPath id="fd662bab-6f39-4a2c-a7cf-6e8a7295aaf5"><rect x="0" y="0" width="226" height="21.314998626708984" stroke-miterlimit="0" transform="translate(0, 0)"></rect></clipPath><defs v-gra="od"></defs></svg>