<svg xmlns="http://www.w3.org/2000/svg" x="0" y="0" filtersec="colorsb4003530839" class="image-svg-svg primary" style="overflow: visible;"><svg version="1.1" xmlns="http://www.w3.org/2000/svg" xmlns:xlink="http://www.w3.org/1999/xlink" x="0px" y="0px" viewBox="9 4.739999771118164 774 764.4500122070312" enable-background="new 0 0 791.67 778" xml:space="preserve"><g id="Layer_2" display="none"></g><g id="Layer_1"><path fill="#0B6986" d="M243.12,300.96C113.82,300.96,9,405.78,9,535.08c0,129.3,104.82,234.11,234.12,234.11
		c129.29,0,234.11-104.81,234.11-234.11C477.23,405.78,372.41,300.96,243.12,300.96z M322.86,576.35
		c-59.36,0-107.49-48.13-107.49-107.49c0-59.37,48.13-107.51,107.49-107.51c59.37,0,107.5,48.13,107.5,107.51
		C430.36,528.22,382.24,576.35,322.86,576.35z"></path><path fill="#E3B921" d="M603.83,81.19c-98.94,0-179.17,80.22-179.17,179.17s80.22,179.17,179.17,179.17
		c98.96,0,179.17-80.23,179.17-179.17S702.79,81.19,603.83,81.19z M527.29,371.83c-38.26,0-69.28-31.02-69.28-69.28
		c0-38.26,31.02-69.28,69.28-69.28c38.26,0,69.28,31.02,69.28,69.28C596.57,340.81,565.55,371.83,527.29,371.83z"></path><path fill="#0B6986" d="M233.55,4.74c-60.68,0-109.88,49.2-109.88,109.89c0,60.69,49.2,109.9,109.88,109.9
		c60.7,0,109.89-49.21,109.89-109.9C343.45,53.95,294.25,4.74,233.55,4.74z M267,181.53c-18.47,0-33.45-14.98-33.45-33.45
		c0-18.47,14.98-33.44,33.45-33.44c18.47,0,33.45,14.97,33.45,33.44C300.45,166.55,285.47,181.53,267,181.53z"></path></g></svg></svg>