<svg data-v-70b83f88="" version="1.0" xmlns="http://www.w3.org/2000/svg" xmlns:xlink="http://www.w3.org/1999/xlink" viewBox="0 0 340.000000 250.000000" preserveAspectRatio="xMidYMid meet" color-interpolation-filters="sRGB" style="margin: auto;"><rect data-v-70b83f88="" x="0" y="0" width="100%" height="100%" fill="#fff" fill-opacity="1" class="background"></rect><rect data-v-70b83f88="" x="0" y="0" width="100%" height="100%" fill="url(#watermark)" fill-opacity="1" class="watermarklayer"></rect><g data-v-70b83f88="" fill="#e3b921" class="icon-text-wrapper icon-svg-group iconsvg" transform="translate(72.96499633789062,95.37007713317871)"><g class="iconsvg-imagesvg" transform="translate(0,0)"><g><rect fill="#e3b921" fill-opacity="0" stroke-width="2" x="0" y="0" width="60" height="59.25984454167449" class="image-rect"></rect><svg x="0" y="0" width="60" height="59.25984454167449" filtersec="colorsb9581355471" class="image-svg-svg primary" style="overflow: visible;"><svg version="1.1" xmlns="http://www.w3.org/2000/svg" xmlns:xlink="http://www.w3.org/1999/xlink" x="0px" y="0px" viewBox="9 4.739999771118164 774 764.4500122070312" enable-background="new 0 0 791.67 778" xml:space="preserve"><g id="Layer_2" display="none"></g><g id="Layer_1"><path fill="#0B6986" d="M243.12,300.96C113.82,300.96,9,405.78,9,535.08c0,129.3,104.82,234.11,234.12,234.11
		c129.29,0,234.11-104.81,234.11-234.11C477.23,405.78,372.41,300.96,243.12,300.96z M322.86,576.35
		c-59.36,0-107.49-48.13-107.49-107.49c0-59.37,48.13-107.51,107.49-107.51c59.37,0,107.5,48.13,107.5,107.51
		C430.36,528.22,382.24,576.35,322.86,576.35z"></path><path fill="#E3B921" d="M603.83,81.19c-98.94,0-179.17,80.22-179.17,179.17s80.22,179.17,179.17,179.17
		c98.96,0,179.17-80.23,179.17-179.17S702.79,81.19,603.83,81.19z M527.29,371.83c-38.26,0-69.28-31.02-69.28-69.28
		c0-38.26,31.02-69.28,69.28-69.28c38.26,0,69.28,31.02,69.28,69.28C596.57,340.81,565.55,371.83,527.29,371.83z"></path><path fill="#0B6986" d="M233.55,4.74c-60.68,0-109.88,49.2-109.88,109.89c0,60.69,49.2,109.9,109.88,109.9
		c60.7,0,109.89-49.21,109.89-109.9C343.45,53.95,294.25,4.74,233.55,4.74z M267,181.53c-18.47,0-33.45-14.98-33.45-33.45
		c0-18.47,14.98-33.44,33.45-33.44c18.47,0,33.45,14.97,33.45,33.44C300.45,166.55,285.47,181.53,267,181.53z"></path></g></svg></svg><!----></g></g><g transform="translate(67.00000381469727,2.9110374450683594)"><g data-gra="path-name" fill-rule="" class="tp-name iconsvg-namesvg"><g transform="scale(1)"><g><path d="M23.27-10.89L23.27-10.89Q23.27-6.96 21.72-4.37 20.17-1.78 17.56-0.54L17.56-0.54Q19.6 0.5 21.18 1.09 22.77 1.68 24.34 2.21L24.34 2.21Q24.38 2.43 24.38 2.59 24.38 2.75 24.38 2.89L24.38 2.89Q24.38 4.28 23.65 4.96 22.92 5.64 21.67 5.64L21.67 5.64Q20.24 5.64 18.45 4.71 16.67 3.78 14.6 2.11L14.6 2.11 12.64 0.54 12.42 0.54Q10.1 0.54 8.1-0.2 6.1-0.93 4.66-2.37 3.21-3.82 2.39-5.96 1.57-8.1 1.57-10.89L1.57-10.89Q1.57-13.67 2.41-15.78 3.25-17.88 4.71-19.33 6.18-20.77 8.16-21.51 10.14-22.24 12.42-22.24L12.42-22.24Q14.71-22.24 16.69-21.51 18.67-20.77 20.13-19.33 21.6-17.88 22.43-15.78 23.27-13.67 23.27-10.89ZM18.53-10.89L18.53-10.89Q18.53-14.6 16.87-16.53 15.21-18.45 12.42-18.45L12.42-18.45Q9.67-18.45 8.01-16.53 6.35-14.6 6.35-10.89L6.35-10.89Q6.35-7.1 8-5.19 9.64-3.28 12.42-3.28L12.42-3.28Q15.21-3.28 16.87-5.19 18.53-7.1 18.53-10.89ZM36.62 0.57L36.62 0.57Q34.48 0.57 32.8-0.02 31.13-0.61 29.97-1.7 28.81-2.78 28.2-4.3 27.59-5.82 27.59-7.71L27.59-7.71 27.59-21.67Q27.88-21.74 28.5-21.85 29.13-21.95 29.73-21.95L29.73-21.95Q31.02-21.95 31.61-21.49 32.2-21.02 32.2-19.77L32.2-19.77 32.2-7.89Q32.2-5.64 33.45-4.44 34.7-3.25 36.62-3.25L36.62-3.25Q38.55-3.25 39.8-4.44 41.05-5.64 41.05-7.89L41.05-7.89 41.05-21.67Q41.37-21.74 41.98-21.85 42.58-21.95 43.19-21.95L43.19-21.95Q44.48-21.95 45.08-21.49 45.69-21.02 45.69-19.77L45.69-19.77 45.69-7.71Q45.69-5.82 45.08-4.3 44.48-2.78 43.3-1.7 42.12-0.61 40.44-0.02 38.76 0.57 36.62 0.57ZM53.58 0.07L53.58 0.07Q52.44 0.07 51.78-0.61 51.11-1.29 51.11-2.43L51.11-2.43 51.11-19.2Q51.11-20.35 51.78-21.01 52.44-21.67 53.58-21.67L53.58-21.67 65.39-21.67Q65.57-21.38 65.71-20.92 65.86-20.45 65.86-19.88L65.86-19.88Q65.86-18.95 65.43-18.45 65-17.95 64.25-17.95L64.25-17.95 55.61-17.95 55.61-12.89 64.32-12.89Q64.5-12.6 64.66-12.15 64.82-11.71 64.82-11.14L64.82-11.14Q64.82-9.21 63.18-9.21L63.18-9.21 55.61-9.21 55.61-3.68 65.54-3.68Q65.71-3.39 65.87-2.91 66.04-2.43 66.04-1.86L66.04-1.86Q66.04 0.07 64.39 0.07L64.39 0.07 53.58 0.07ZM72.85 0.07L72.85 0.07Q71.71 0.07 71.05-0.61 70.39-1.29 70.39-2.43L70.39-2.43 70.39-19.2Q70.39-20.35 71.05-21.01 71.71-21.67 72.85-21.67L72.85-21.67 84.67-21.67Q84.85-21.38 84.99-20.92 85.13-20.45 85.13-19.88L85.13-19.88Q85.13-18.95 84.7-18.45 84.28-17.95 83.53-17.95L83.53-17.95 74.89-17.95 74.89-12.89 83.6-12.89Q83.78-12.6 83.94-12.15 84.1-11.71 84.1-11.14L84.1-11.14Q84.1-9.21 82.45-9.21L82.45-9.21 74.89-9.21 74.89-3.68 84.81-3.68Q84.99-3.39 85.15-2.91 85.31-2.43 85.31-1.86L85.31-1.86Q85.31 0.07 83.67 0.07L83.67 0.07 72.85 0.07ZM92.06 0.25L92.06 0.25Q90.74 0.25 90.2-0.23 89.67-0.71 89.67-1.86L89.67-1.86 89.67-20.88Q90.06-21.38 90.83-21.67 91.59-21.95 92.52-21.95L92.52-21.95Q93.63-21.95 94.5-21.56 95.38-21.17 96.05-19.99L96.05-19.99 101.19-10.74Q101.91-9.46 102.57-8.08 103.23-6.71 103.73-5.57L103.73-5.57 103.87-5.6Q103.69-7.71 103.64-9.69 103.59-11.67 103.59-13.6L103.59-13.6 103.59-21.7Q103.87-21.77 104.46-21.86 105.05-21.95 105.66-21.95L105.66-21.95Q106.98-21.95 107.53-21.47 108.08-20.99 108.08-19.85L108.08-19.85 108.08-0.57Q107.69-0.18 106.96 0.04 106.23 0.25 105.23 0.25L105.23 0.25Q104.16 0.25 103.28-0.12 102.41-0.5 101.73-1.68L101.73-1.68 96.59-10.92Q95.88-12.17 95.22-13.58 94.56-14.99 94.06-16.13L94.06-16.13 93.84-16.1Q94.02-14.14 94.07-12.06 94.13-9.99 94.13-8.14L94.13-8.14 94.13-0.04Q93.84 0.04 93.27 0.14 92.7 0.25 92.06 0.25ZM119.9-3.25L119.9-3.25Q121.97-3.25 122.93-4.05 123.9-4.85 123.9-6.07L123.9-6.07Q123.9-7.17 123.15-7.83 122.4-8.5 120.86-8.96L120.86-8.96 118.58-9.67Q117.22-10.1 116.11-10.64 115.01-11.17 114.22-11.9 113.44-12.64 113.01-13.62 112.58-14.6 112.58-15.96L112.58-15.96Q112.58-18.85 114.76-20.54 116.94-22.24 120.72-22.24L120.72-22.24Q122.22-22.24 123.49-22.01 124.75-21.77 125.68-21.36 126.61-20.95 127.13-20.35 127.64-19.74 127.64-18.99L127.64-18.99Q127.64-18.28 127.31-17.76 126.97-17.24 126.47-16.92L126.47-16.92Q125.61-17.53 124.2-17.97 122.79-18.42 121.11-18.42L121.11-18.42Q119.26-18.42 118.29-17.76 117.33-17.1 117.33-15.96L117.33-15.96Q117.33-15.03 117.99-14.53 118.65-14.03 120.08-13.56L120.08-13.56 122.11-12.92Q125.22-11.99 126.93-10.39 128.64-8.78 128.64-6.03L128.64-6.03Q128.64-4.57 128.07-3.36 127.5-2.14 126.41-1.27 125.32-0.39 123.7 0.09 122.08 0.57 120.01 0.57L120.01 0.57Q118.36 0.57 116.99 0.29 115.62 0 114.62-0.48 113.62-0.96 113.06-1.62 112.51-2.28 112.51-3.07L112.51-3.07Q112.51-3.89 112.99-4.48 113.47-5.07 114.12-5.35L114.12-5.35Q115.01-4.57 116.47-3.91 117.94-3.25 119.9-3.25Z" transform="translate(-1.5699999332427979, 22.239999771118164)"></path></g><!----><!----><!----><!----><!----><!----><g data-gra="path-name-1" fill="#e3b921" transform="translate(0,30.8799991607666)"><g transform="scale(1.01933)"><path d="M14.03-1.45L7.17-9.01 7.17-0.03Q6.86 0.07 6.29 0.16 5.72 0.24 5.06 0.24L5.06 0.24Q3.74 0.24 3.2-0.23 2.67-0.69 2.67-1.87L2.67-1.87 2.67-21.03Q2.94-21.1 3.55-21.2 4.16-21.3 4.75-21.3L4.75-21.3Q5.99-21.3 6.58-20.85 7.17-20.4 7.17-19.19L7.17-19.19 7.17-12.05 15.48-21.2Q17.15-21.2 17.89-20.54 18.64-19.88 18.64-18.98L18.64-18.98Q18.64-18.25 18.27-17.68 17.91-17.11 17.18-16.38L17.18-16.38 11.33-10.56Q14.03-7.79 16.07-5.61 18.12-3.43 19.54-2.11L19.54-2.11Q19.5-0.97 18.79-0.33 18.08 0.31 17.08 0.31L17.08 0.31Q16.07 0.31 15.38-0.23 14.69-0.76 14.03-1.45L14.03-1.45ZM25.56 0.24L25.56 0.24Q24.25 0.24 23.69-0.24 23.14-0.73 23.14-1.87L23.14-1.87 23.14-21.03Q23.45-21.1 24.04-21.2 24.63-21.3 25.22-21.3L25.22-21.3Q26.46-21.3 27.05-20.85 27.64-20.4 27.64-19.19L27.64-19.19 27.64-0.03Q27.33 0.03 26.76 0.14 26.19 0.24 25.56 0.24ZM39.11-3.15L39.11-3.15Q41.12-3.15 42.05-3.93 42.99-4.71 42.99-5.89L42.99-5.89Q42.99-6.96 42.26-7.6 41.53-8.24 40.04-8.69L40.04-8.69 37.83-9.39Q36.51-9.8 35.44-10.32 34.36-10.84 33.6-11.55 32.84-12.26 32.42-13.21 32.01-14.17 32.01-15.48L32.01-15.48Q32.01-18.29 34.12-19.93 36.23-21.58 39.9-21.58L39.9-21.58Q41.36-21.58 42.59-21.35 43.82-21.13 44.72-20.73 45.62-20.33 46.12-19.74 46.62-19.16 46.62-18.43L46.62-18.43Q46.62-17.74 46.29-17.23 45.97-16.73 45.48-16.42L45.48-16.42Q44.65-17.01 43.28-17.44 41.91-17.87 40.29-17.87L40.29-17.87Q38.48-17.87 37.55-17.23 36.61-16.59 36.61-15.48L36.61-15.48Q36.61-14.58 37.25-14.1 37.9-13.61 39.28-13.16L39.28-13.16 41.25-12.54Q44.27-11.64 45.93-10.08 47.59-8.52 47.59-5.85L47.59-5.85Q47.59-4.43 47.04-3.26 46.49-2.08 45.43-1.23 44.37-0.38 42.8 0.09 41.22 0.55 39.21 0.55L39.21 0.55Q37.62 0.55 36.28 0.28 34.95 0 33.98-0.47 33.01-0.94 32.47-1.58 31.94-2.22 31.94-2.98L31.94-2.98Q31.94-3.78 32.4-4.35 32.87-4.92 33.5-5.2L33.5-5.2Q34.36-4.43 35.78-3.79 37.2-3.15 39.11-3.15ZM54 0.24L54 0.24Q52.69 0.24 52.13-0.24 51.58-0.73 51.58-1.87L51.58-1.87 51.58-21.03Q51.89-21.1 52.48-21.2 53.07-21.3 53.66-21.3L53.66-21.3Q54.9-21.3 55.49-20.85 56.08-20.4 56.08-19.19L56.08-19.19 56.08-0.03Q55.77 0.03 55.2 0.14 54.63 0.24 54 0.24ZM72.22-0.48L72.22-0.48Q71.88-0.21 71.11 0.03 70.35 0.28 69.45 0.28L69.45 0.28Q68.38 0.28 67.58-0.03 66.78-0.35 66.51-0.94L66.51-0.94Q66.09-1.77 65.52-3.12 64.95-4.47 64.31-6.11 63.67-7.76 63.01-9.61 62.35-11.47 61.71-13.32 61.07-15.17 60.51-16.92 59.96-18.67 59.58-20.16L59.58-20.16Q59.93-20.54 60.6-20.85 61.28-21.16 62.07-21.16L62.07-21.16Q63.04-21.16 63.58-20.73 64.12-20.3 64.46-19.26L64.46-19.26Q65.68-15.38 66.87-11.71 68.07-8.04 69.42-4.19L69.42-4.19 69.59-4.19Q70.21-5.96 70.85-7.97 71.49-9.98 72.12-12.11 72.74-14.24 73.35-16.4 73.95-18.57 74.47-20.68L74.47-20.68Q75.37-21.16 76.59-21.16L76.59-21.16Q77.56-21.16 78.2-20.73 78.84-20.3 78.84-19.29L78.84-19.29Q78.84-18.67 78.46-17.22 78.08-15.76 77.49-13.91 76.9-12.05 76.15-9.98 75.41-7.9 74.66-6.01 73.92-4.12 73.28-2.65 72.64-1.18 72.22-0.48ZM91.2 0.55L91.2 0.55Q89.13 0.55 87.5-0.02 85.87-0.59 84.74-1.65 83.62-2.7 83.03-4.17 82.44-5.65 82.44-7.48L82.44-7.48 82.44-21.03Q82.72-21.1 83.32-21.2 83.93-21.3 84.52-21.3L84.52-21.3Q85.77-21.3 86.34-20.85 86.91-20.4 86.91-19.19L86.91-19.19 86.91-7.66Q86.91-5.47 88.12-4.31 89.33-3.15 91.2-3.15L91.2-3.15Q93.07-3.15 94.29-4.31 95.5-5.47 95.5-7.66L95.5-7.66 95.5-21.03Q95.81-21.1 96.4-21.2 96.99-21.3 97.58-21.3L97.58-21.3Q98.82-21.3 99.41-20.85 100-20.4 100-19.19L100-19.19 100-7.48Q100-5.65 99.41-4.17 98.82-2.7 97.68-1.65 96.54-0.59 94.91-0.02 93.28 0.55 91.2 0.55ZM107.66 0.07L107.66 0.07Q106.55 0.07 105.91-0.59 105.27-1.25 105.27-2.36L105.27-2.36 105.27-21.03Q105.54-21.1 106.15-21.2 106.76-21.3 107.35-21.3L107.35-21.3Q108.59-21.3 109.18-20.85 109.77-20.4 109.77-19.19L109.77-19.19 109.77-3.64 118.67-3.64Q118.85-3.36 119.02-2.89 119.19-2.42 119.19-1.87L119.19-1.87Q119.19-0.94 118.76-0.43 118.33 0.07 117.56 0.07L117.56 0.07 107.66 0.07ZM125.25 0.24L125.25 0.24Q123.94 0.24 123.38-0.24 122.83-0.73 122.83-1.87L122.83-1.87 122.83-21.03Q123.14-21.1 123.73-21.2 124.32-21.3 124.91-21.3L124.91-21.3Q126.16-21.3 126.74-20.85 127.33-20.4 127.33-19.19L127.33-19.19 127.33-0.03Q127.02 0.03 126.45 0.14 125.88 0.24 125.25 0.24Z" transform="translate(-2.6700000762939453, 21.579999923706055)"></path></g></g></g></g><!----></g></g><defs v-gra="od"></defs></svg>