<svg data-v-70b83f88="" version="1.0" xmlns="http://www.w3.org/2000/svg" xmlns:xlink="http://www.w3.org/1999/xlink" viewBox="0 0 340.000000 250.000000" preserveAspectRatio="xMidYMid meet" color-interpolation-filters="sRGB" style="margin: auto;"><rect data-v-70b83f88="" x="0" y="0" width="100%" height="100%" fill="#ffffff" fill-opacity="1" class="background"></rect><rect data-v-70b83f88="" x="0" y="0" width="100%" height="100%" fill="url(#watermark)" fill-opacity="1" class="watermarklayer"></rect><g data-v-70b83f88="" fill="#00f2fe" class="icon-text-wrapper icon-svg-group iconsvg" transform="translate(46.5,94.7888240814209)"><g class="iconsvg-imagesvg" transform="translate(0,0)" mask="url(#c88cd0fd-34c7-469b-b0ad-ead11f39252d)"><g><rect fill="#00f2fe" fill-opacity="0" stroke-width="2" x="0" y="0" width="60" height="60.42235224217279" class="image-rect"></rect><svg filter="url(#colors7059850140)" x="0" y="0" width="60" height="60.42235224217279" filtersec="colorsf3474077292" class="image-svg-svg primary" style="overflow: visible;"><svg xmlns="http://www.w3.org/2000/svg" viewBox="0.009999990463256836 0 61.86005401611328 62.29553985595703"><defs><clipPath id="a22f59952-2dce-427c-8136-d989c1a10d64" transform="translate(.31 4.64)"><path fill="none" d="M15.31 0h30.63l15.32 26.52-15.32 26.51H15.31L0 26.52 15.31 0z"></path></clipPath></defs><title>资源 102</title><g clip-path="url(#a22f59952-2dce-427c-8136-d989c1a10d64)"><path d="M30.94 0h.68a9.74 9.74 0 0 0-.92.58 47.43 47.43 0 0 0-13.28 16.61l-.83-.18c-1.35-.27-2.69-.56-4.05-.8A38.06 38.06 0 0 0 14.21 5a30.77 30.77 0 0 1 16.74-5zm4.29.33a30.86 30.86 0 0 1 17.78 9l-.42-.1a23.37 23.37 0 0 0-4-.23 34.15 34.15 0 0 0-12.01 2.64c-4.7 1.93-8.65 4.65-10.42 7.77-2.38-.71-4.7-1.32-6.92-1.83A45.92 45.92 0 0 1 31.79 2.03 16.77 16.77 0 0 1 34.44.64l.79-.33zM12.37 6.28a36.41 36.41 0 0 1-1.66 9.65 21.49 21.49 0 0 0-3.52-.15 17.64 17.64 0 0 0-3.41.52 31.15 31.15 0 0 1 8.59-10zm37.13 4.55a21.56 21.56 0 0 1 2.71.21 25.73 25.73 0 0 1 3.18 1.09 30.85 30.85 0 0 1 5.62 26.15c-8.83-8.75-21.5-14.64-33.05-18.32 1.56-2.32 5.06-4.89 9.35-6.64a32.11 32.11 0 0 1 12.19-2.49zM8.12 17.56a19.38 19.38 0 0 1 2 .12 51.89 51.89 0 0 1-2.63 6.1C5 28.47 1.97 31.68.49 36.4a30.67 30.67 0 0 1-.48-5.24 31.35 31.35 0 0 1 2.7-12.63 15.36 15.36 0 0 1 5.41-.97zm3.85.38c1.38.24 2.78.55 4.26.84l.45.1a34.92 34.92 0 0 0-1.56 4.76c-2.8 11.3-3.54 24.37 2 35.35A31.07 31.07 0 0 1 1.5 40.64a16.23 16.23 0 0 1 .21-1.78c1.06-5.38 4.43-8.6 7.41-14.22a50.81 50.81 0 0 0 2.84-6.67zm6.51 1.33c2.23.51 4.56 1.12 7 1.83-1.57 4.64-.91 9.43.37 13.73 2.19 7.39 7.67 13.63 12.32 19a74.61 74.61 0 0 0 5.75 5.57 30.49 30.49 0 0 1-24 .83c-6.45-10.81-5.9-24.35-3-36.14a33.09 33.09 0 0 1 1.61-4.84zm8.7 2.37c11.75 3.69 24.71 9.81 33.29 18.69a31.12 31.12 0 0 1-14.82 18.23 83.46 83.46 0 0 1-6.14-5.92c-4.66-5.39-9.93-11.49-12-18.34-1.2-4.12-1.76-8.51-.33-12.66z" fill="#000000"></path></g></svg></svg><defs><filter id="colors7059850140"><feColorMatrix type="matrix" values="0 0 0 0 0  0 0 0 0 0.9453125  0 0 0 0 0.9921875  0 0 0 1 0" class="icon-fecolormatrix"></feColorMatrix></filter><filter id="colorsf3474077292"><feColorMatrix type="matrix" values="0 0 0 0 0.99609375  0 0 0 0 0.99609375  0 0 0 0 0.99609375  0 0 0 1 0" class="icon-fecolormatrix"></feColorMatrix></filter><filter id="colorsb6122799445"><feColorMatrix type="matrix" values="0 0 0 0 0  0 0 0 0 0  0 0 0 0 0  0 0 0 1 0" class="icon-fecolormatrix"></feColorMatrix></filter></defs></g><rect v-gra="id" width="72.00000381469727" height="72.4223518371582" transform="translate(-6, -6)" style="pointer-events:none;" fill="url(#AVW4yG7r5oAeTaDb7KFGJ)"></rect></g><g transform="translate(67.00000381469727,17.651175498962402)"><g data-gra="path-name" fill-rule="" class="tp-name iconsvg-namesvg" fill="url(#74e7f3cf-d7e8-44a2-b11f-a81c556dffff)"><g transform="scale(1)"><g><path d="M0-8.87C0-1.25 3.54 2.26 8.47 2.26 9.31 2.26 10.07 2.18 10.78 2.01 11.92 3.48 13.34 4.9 15.35 5.58 15.76 5.72 16.14 5.77 16.52 5.77 18.4 5.77 19.71 4.14 19.71 2.4 19.71 2.01 19.65 1.63 19.52 1.28 19.14 1.8 18.54 1.99 17.88 1.99 17.42 1.99 16.93 1.91 16.44 1.74 15.41 1.42 14.62 0.95 13.94 0.44 16.36-1.66 17.18-5.28 17.18-8.87 17.18-15.95 12.98-19.35 8.74-19.35 3.4-19.35 0-15.76 0-8.87ZM9.01-17.94C10.94-17.94 12.82-14.97 12.82-8.82 12.82-6.12 12.55-3.38 11.76-1.52 11.08-2.15 10.42-2.69 9.58-2.99 9.01-3.18 8.44-3.29 7.92-3.29 7.21-3.29 6.61-3.08 6.29-2.5L6.45-2.5C7.68-2.5 8.6-1.03 9.8 0.68 9.53 0.79 9.2 0.84 8.87 0.84 6.61 0.84 5.01-2.2 5.01-8.82 5.01-14.81 6.56-17.94 8.98-17.94ZM19.33-3.51C19.33-1.22 20.74 0.16 22.84 0.16 24.47 0.16 26.02-0.73 26.43-2.4 26.81-0.73 28.06 0.35 29.8 0.35 31.96 0.35 33.13-0.65 33.13-2.26 33.02-1.85 32.55-1.39 31.98-1.39 30.76-1.39 30.76-2.64 30.76-3.51L30.76-12.11 26.29-12.11 26.29-4.11C26.29-2.89 25.86-1.93 24.93-1.93 24.17-1.93 23.79-2.64 23.79-3.51L23.79-10.26C23.76-11.73 22.35-12.11 20.93-12.11 19.87-12.11 18.75-11.95 18.37-11.51 18.45-11.54 18.51-11.54 18.59-11.54 18.97-11.54 19.33-11.27 19.33-10.53ZM39.39 0.16C40.94 0.16 43.25-0.57 43.25-3.16 42.84-1.8 41.65-1.42 40.86-1.39L40.75-1.39C38.57-1.39 37.94-3.92 37.94-6.4L37.94-6.61C38-9.06 38.84-10.97 39.85-10.97 40.56-10.97 40.83-9.91 40.83-8.85 40.83-7.05 39.71-6.45 38.76-6.45 38.46-6.45 38.16-6.51 37.94-6.61 38.16-6.04 39.06-5.69 40.07-5.69 41.59-5.69 43.69-6.31 43.69-8.52 43.69-10.34 42.11-12.11 39.2-12.11 35.44-12.11 33.53-9.64 33.53-6.18 33.53-1.85 35.77 0.16 39.39 0.16ZM51.17 0.16C52.72 0.16 55.04-0.57 55.04-3.16 54.63-1.8 53.43-1.42 52.64-1.39L52.53-1.39C50.36-1.39 49.73-3.92 49.73-6.4L49.73-6.61C49.78-9.06 50.63-10.97 51.63-10.97 52.34-10.97 52.61-9.91 52.61-8.85 52.61-7.05 51.5-6.45 50.55-6.45 50.25-6.45 49.95-6.51 49.73-6.61 49.95-6.04 50.85-5.69 51.85-5.69 53.38-5.69 55.47-6.31 55.47-8.52 55.47-10.34 53.89-12.11 50.98-12.11 47.23-12.11 45.32-9.64 45.32-6.18 45.32-1.85 47.55 0.16 51.17 0.16ZM57.65 0L62.11 0 62.11-9.55C62.3-9.8 62.69-10.04 63.23-10.04 63.83-10.04 64.43-9.66 64.43-8.93L64.43-3.51C64.43-1.22 65.84 0.35 67.94 0.35 70.09 0.35 71.26-0.65 71.26-2.26 71.15-1.85 70.69-1.39 70.12-1.39 68.89-1.39 68.89-2.64 68.89-3.51L68.89-8.55C68.89-10.89 67.83-12.11 65.65-12.11 63.61-12.11 62.33-11.3 62.11-9.93L62.11-10.26C62.09-11.73 60.67-12.11 59.26-12.11 58.19-12.11 57.08-11.95 56.7-11.51 56.78-11.54 56.83-11.54 56.92-11.54 57.3-11.54 57.65-11.27 57.65-10.53ZM75.07-2.78C75.07-3.46 74.58-4.27 73.44-4.27 72.4-4.27 71.8-3.32 71.8-2.37 71.8-0.33 74.39 0.52 76.1 0.52 78.96 0.52 81.49-0.84 81.49-3.35 81.49-8.36 75.15-7.73 75.15-9.93 75.15-10.72 75.64-11.05 76.62-11.05 77.55-11.05 77.96-10.45 77.96-9.8 77.96-9.31 77.71-8.76 77.28-8.55 77.41-8.49 77.68-8.47 77.98-8.47 78.96-8.47 80.49-8.79 80.49-10.07 80.49-11.49 78.61-12.22 76.49-12.22 73.57-12.22 71.94-10.67 71.86-8.47L71.86-8.25C71.86-3.7 77.87-4.63 77.87-2.48 77.87-1.5 76.87-1.09 75.89-1.09 75.18-1.09 74.5-1.28 74.25-1.61 74.69-1.74 75.07-2.1 75.07-2.78ZM93.63-0.03C93.63-1.09 92.93-1.61 92.19-1.61 91.35-1.61 90.45-0.98 90.45 0.16 90.45 2.23 92 3.21 94.18 3.21 98.18 3.21 100.44 0.68 100.44-3.16L100.44-5.96 101.91-8.06C102.53-8.9 103.02-9.28 103.6-9.31L103.62-9.31C104.58-9.31 104.71-8.11 104.71-7.21L104.71-1.91C104.71 0.38 106.13 1.96 108.22 1.96 110.37 1.96 111.52 0.95 111.52-0.65 111.41-0.24 110.95 0.24 110.4 0.24 109.18 0.24 109.18-1.03 109.18-1.91L109.18-7.21C109.18-9.53 107.76-11.08 105.66-11.08 104.93-11.08 104.25-10.91 103.68-10.64L109.61-19.19 106.35-19.19 100.44-10.67 100.44-19.19 95.97-19.19 95.97-2.01C95.97-0.24 95.08 1.71 93.28 1.71 92.98 1.71 92.63 1.66 92.27 1.52 93.03 1.47 93.63 0.82 93.63-0.03ZM114.54-12.68C115.76-12.68 116.74-13.58 116.74-14.67 116.74-15.76 115.76-16.66 114.54-16.66 113.31-16.66 112.31-15.76 112.31-14.67 112.31-13.58 113.31-12.68 114.54-12.68ZM112.47-3.67C112.47-1.36 113.88 0.19 115.98 0.19 118.13 0.19 119.3-0.79 119.3-2.42 119.17-1.99 118.73-1.52 118.16-1.52 116.93-1.52 116.93-2.78 116.93-3.67L116.93-10.26C116.91-11.73 115.49-12.11 114.08-12.11 113.01-12.11 111.9-11.95 111.52-11.51 111.6-11.54 111.65-11.54 111.73-11.54 112.12-11.54 112.47-11.27 112.47-10.53ZM123.11-2.78C123.11-3.46 122.62-4.27 121.48-4.27 120.44-4.27 119.85-3.32 119.85-2.37 119.85-0.33 122.43 0.52 124.15 0.52 127 0.52 129.54-0.84 129.54-3.35 129.54-8.36 123.19-7.73 123.19-9.93 123.19-10.72 123.68-11.05 124.66-11.05 125.59-11.05 126-10.45 126-9.8 126-9.31 125.75-8.76 125.32-8.55 125.45-8.49 125.73-8.47 126.02-8.47 127-8.47 128.53-8.79 128.53-10.07 128.53-11.49 126.65-12.22 124.53-12.22 121.62-12.22 119.98-10.67 119.9-8.47L119.9-8.25C119.9-3.7 125.92-4.63 125.92-2.48 125.92-1.5 124.91-1.09 123.93-1.09 123.22-1.09 122.54-1.28 122.3-1.61 122.73-1.74 123.11-2.1 123.11-2.78ZM133.51-12.68C134.73-12.68 135.71-13.58 135.71-14.67 135.71-15.76 134.73-16.66 133.51-16.66 132.28-16.66 131.28-15.76 131.28-14.67 131.28-13.58 132.28-12.68 133.51-12.68ZM131.44-3.67C131.44-1.36 132.86 0.19 134.95 0.19 137.1 0.19 138.27-0.79 138.27-2.42 138.14-1.99 137.7-1.52 137.13-1.52 135.91-1.52 135.91-2.78 135.91-3.67L135.91-10.26C135.88-11.73 134.46-12.11 133.05-12.11 131.99-12.11 130.87-11.95 130.49-11.51 130.57-11.54 130.62-11.54 130.71-11.54 131.09-11.54 131.44-11.27 131.44-10.53ZM140.48-2.61L141.1 0 145.68 0 148.59-12.11 146.87-12.11 144.78-3.4 143.06-10.26C142.68-11.65 141.46-12.22 140.02-12.22 138.95-12.22 137.7-11.95 137.32-11.51L137.48-11.51C137.95-11.51 138.38-11.19 138.55-10.53ZM150.63-3.51C150.63-1.22 152.05 0.16 154.14 0.16 155.77 0.16 157.33-0.73 157.73-2.4 158.12-0.73 159.37 0.35 161.11 0.35 163.26 0.35 164.43-0.65 164.43-2.26 164.32-1.85 163.86-1.39 163.29-1.39 162.06-1.39 162.06-2.64 162.06-3.51L162.06-12.11 157.6-12.11 157.6-4.11C157.6-2.89 157.16-1.93 156.24-1.93 155.48-1.93 155.09-2.64 155.09-3.51L155.09-10.26C155.07-11.73 153.65-12.11 152.24-12.11 151.17-12.11 150.06-11.95 149.68-11.51 149.76-11.54 149.81-11.54 149.9-11.54 150.28-11.54 150.63-11.27 150.63-10.53ZM165.38-3.51C165.38-1.22 166.8 0.35 168.89 0.35 171.04 0.35 172.22-0.65 172.22-2.26 172.08-1.85 171.64-1.39 171.07-1.39 169.85-1.39 169.85-2.64 169.85-3.51L169.85-16.69C169.82-18.16 168.4-18.56 166.99-18.56 165.93-18.56 164.81-18.37 164.43-17.94 164.51-17.96 164.59-17.96 164.68-17.96 165.06-17.96 165.38-17.69 165.38-16.96ZM175.24-12.68C176.46-12.68 177.44-13.58 177.44-14.67 177.44-15.76 176.46-16.66 175.24-16.66 174.01-16.66 173-15.76 173-14.67 173-13.58 174.01-12.68 175.24-12.68ZM173.17-3.67C173.17-1.36 174.58 0.19 176.68 0.19 178.83 0.19 180-0.79 180-2.42 179.86-1.99 179.43-1.52 178.86-1.52 177.63-1.52 177.63-2.78 177.63-3.67L177.63-10.26C177.6-11.73 176.19-12.11 174.77-12.11 173.71-12.11 172.6-11.95 172.22-11.51 172.3-11.54 172.35-11.54 172.43-11.54 172.81-11.54 173.17-11.27 173.17-10.53Z" transform="translate(0, 19.350000381469727)"></path></g><!----><!----><!----><!----><!----><!----><!----></g></g><!----></g></g><defs v-gra="od"><linearGradient x1="0" y1="1" x2="0" y2="0" id="74e7f3cf-d7e8-44a2-b11f-a81c556dffff"><stop offset="0%" stop-color="#00f2fe"></stop><stop offset="100%" stop-color="#4facfe"></stop></linearGradient><filter id="42443b3f1de60f6b6fd3b6a9844b4764" filterUnits="userSpaceOnUse"><feColorMatrix type="matrix" values="0 0 0 0 0.99609375  0 0 0 0 0.99609375  0 0 0 0 0.99609375  0 0 0 1 0"></feColorMatrix></filter></defs><defs v-gra="id"><filter id="b28528fe-a46b-424e-b11b-b8641753d821" filterUnits="userSpaceOnUse"><feColorMatrix type="matrix" values="0 0 0 0 0.99609375  0 0 0 0 0.99609375  0 0 0 0 0.99609375  0 0 0 1 0"></feColorMatrix></filter><linearGradient x1="0" y1="1" x2="0" y2="0" id="AVW4yG7r5oAeTaDb7KFGJ"><stop offset="0%" stop-color="#00f2fe"></stop><stop offset="100%" stop-color="#4facfe"></stop></linearGradient><filter id="42443b3f1de60f6b6fd3b6a9844b4764" filterUnits="userSpaceOnUse"><feColorMatrix type="matrix" values="0 0 0 0 0.99609375  0 0 0 0 0.99609375  0 0 0 0 0.99609375  0 0 0 1 0"></feColorMatrix></filter></defs><mask v-gra="im" id="c88cd0fd-34c7-469b-b0ad-ead11f39252d"><g class="iconsvg-imagesvg" filter="url(#b28528fe-a46b-424e-b11b-b8641753d821)"><g><rect fill="#00f2fe" fill-opacity="0" stroke-width="2" x="0" y="0" width="60" height="60.42235224217279" class="image-rect"></rect><svg x="0" y="0" width="60" height="60.42235224217279" filtersec="colorsf3474077292" class="image-svg-svg primary" style="overflow: visible;"><svg xmlns="http://www.w3.org/2000/svg" viewBox="0.009999990463256836 0 61.86005401611328 62.29553985595703"><defs><clipPath id="a22f59952-2dce-427c-8136-d989c1a10d64" transform="translate(.31 4.64)"><path fill="none" d="M15.31 0h30.63l15.32 26.52-15.32 26.51H15.31L0 26.52 15.31 0z"></path></clipPath></defs><title>资源 102</title><g clip-path="url(#a22f59952-2dce-427c-8136-d989c1a10d64)"><path d="M30.94 0h.68a9.74 9.74 0 0 0-.92.58 47.43 47.43 0 0 0-13.28 16.61l-.83-.18c-1.35-.27-2.69-.56-4.05-.8A38.06 38.06 0 0 0 14.21 5a30.77 30.77 0 0 1 16.74-5zm4.29.33a30.86 30.86 0 0 1 17.78 9l-.42-.1a23.37 23.37 0 0 0-4-.23 34.15 34.15 0 0 0-12.01 2.64c-4.7 1.93-8.65 4.65-10.42 7.77-2.38-.71-4.7-1.32-6.92-1.83A45.92 45.92 0 0 1 31.79 2.03 16.77 16.77 0 0 1 34.44.64l.79-.33zM12.37 6.28a36.41 36.41 0 0 1-1.66 9.65 21.49 21.49 0 0 0-3.52-.15 17.64 17.64 0 0 0-3.41.52 31.15 31.15 0 0 1 8.59-10zm37.13 4.55a21.56 21.56 0 0 1 2.71.21 25.73 25.73 0 0 1 3.18 1.09 30.85 30.85 0 0 1 5.62 26.15c-8.83-8.75-21.5-14.64-33.05-18.32 1.56-2.32 5.06-4.89 9.35-6.64a32.11 32.11 0 0 1 12.19-2.49zM8.12 17.56a19.38 19.38 0 0 1 2 .12 51.89 51.89 0 0 1-2.63 6.1C5 28.47 1.97 31.68.49 36.4a30.67 30.67 0 0 1-.48-5.24 31.35 31.35 0 0 1 2.7-12.63 15.36 15.36 0 0 1 5.41-.97zm3.85.38c1.38.24 2.78.55 4.26.84l.45.1a34.92 34.92 0 0 0-1.56 4.76c-2.8 11.3-3.54 24.37 2 35.35A31.07 31.07 0 0 1 1.5 40.64a16.23 16.23 0 0 1 .21-1.78c1.06-5.38 4.43-8.6 7.41-14.22a50.81 50.81 0 0 0 2.84-6.67zm6.51 1.33c2.23.51 4.56 1.12 7 1.83-1.57 4.64-.91 9.43.37 13.73 2.19 7.39 7.67 13.63 12.32 19a74.61 74.61 0 0 0 5.75 5.57 30.49 30.49 0 0 1-24 .83c-6.45-10.81-5.9-24.35-3-36.14a33.09 33.09 0 0 1 1.61-4.84zm8.7 2.37c11.75 3.69 24.71 9.81 33.29 18.69a31.12 31.12 0 0 1-14.82 18.23 83.46 83.46 0 0 1-6.14-5.92c-4.66-5.39-9.93-11.49-12-18.34-1.2-4.12-1.76-8.51-.33-12.66z" fill="#000000"></path></g></svg></svg><defs><filter id="colors7059850140"><feColorMatrix type="matrix" values="0 0 0 0 0  0 0 0 0 0.9453125  0 0 0 0 0.9921875  0 0 0 1 0" class="icon-fecolormatrix"></feColorMatrix></filter><filter id="colorsf3474077292"><feColorMatrix type="matrix" values="0 0 0 0 0.99609375  0 0 0 0 0.99609375  0 0 0 0 0.99609375  0 0 0 1 0" class="icon-fecolormatrix"></feColorMatrix></filter><filter id="colorsb6122799445"><feColorMatrix type="matrix" values="0 0 0 0 0  0 0 0 0 0  0 0 0 0 0  0 0 0 1 0" class="icon-fecolormatrix"></feColorMatrix></filter></defs></g></g></mask></svg>