<svg xmlns="http://www.w3.org/2000/svg" filter="url(#colors7993103764)" x="0" y="0" filtersec="colorsf6984966059" class="image-svg-svg primary" style="overflow: visible;"><svg xmlns="http://www.w3.org/2000/svg" viewBox="0 0 110.2 110.2"><path d="M70.4 28.6c0 14.7-6.9 26.6-15.3 26.6-8.5 0-15.3-11.9-15.3-26.6S46.7 2 55.1 2c8.5 0 15.3 11.9 15.3 26.6zm-52.8-11c-6 6-2.4 19.2 8 29.6 10.4 10.4 23.6 13.9 29.6 8 6-6 2.4-19.2-8-29.6s-23.7-14-29.6-8zM2 55.1c0 8.5 11.9 15.3 26.6 15.3s26.6-6.9 26.6-15.3c0-8.5-11.9-15.3-26.6-15.3S2 46.7 2 55.1zm15.6 37.6c6 6 19.2 2.4 29.6-8s13.9-23.6 8-29.6c-6-6-19.2-2.4-29.6 8-10.5 10.3-14 23.6-8 29.6zm37.5 15.5c8.5 0 15.3-11.9 15.3-26.6S63.5 55 55.1 55c-8.5 0-15.3 11.9-15.3 26.6s6.9 26.6 15.3 26.6zm37.6-15.5c6-6 2.4-19.2-8-29.6-10.4-10.4-23.6-13.9-29.6-8-6 6-2.4 19.2 8 29.6s23.6 14 29.6 8zm15.5-37.6c0-8.5-11.9-15.3-26.6-15.3S55 46.7 55 55.1c0 8.5 11.9 15.3 26.6 15.3s26.6-6.8 26.6-15.3zM92.7 17.6c-6-6-19.2-2.4-29.6 8s-13.9 23.6-8 29.6c6 6 19.2 2.4 29.6-8 10.4-10.4 14-23.7 8-29.6z" fill="none" stroke="#333" stroke-width="4" stroke-miterlimit="10"></path></svg></svg>