<svg xmlns="http://www.w3.org/2000/svg" filter="url(#colors3839353794)" x="0" y="0" filtersec="colorsf8342534787" class="image-svg-svg primary" style="overflow: visible;"><svg xmlns="http://www.w3.org/2000/svg" viewBox="0 0 86.8 89.39999"><path d="M43.4 2c4 0 7.2 3.2 7.2 7.2 0 5.7-7.2 11.6-7.2 11.6m0-18.8c-4 0-7.2 3.2-7.2 7.2 0 5.7 7.2 11.6 7.2 11.6m0 66.6c4 0 7.2-3.2 7.2-7.2 0-5.7-7.2-11.6-7.2-11.6m0 0s-7.2 5.9-7.2 11.6c0 4 3.2 7.2 7.2 7.2M29.6 17.1C14.4 17.1 2 29.5 2 44.7s12.4 27.6 27.6 27.6c15.2 0 27.6-12.4 27.6-27.6S44.8 17.1 29.6 17.1zm27.6 0c-15.2 0-27.6 12.4-27.6 27.6S42 72.3 57.2 72.3c15.2 0 27.6-12.4 27.6-27.6S72.4 17.1 57.2 17.1z" fill="none" stroke="#333" stroke-width="4" stroke-linejoin="round" stroke-miterlimit="10"></path></svg></svg>