<svg data-v-70b83f88="" version="1.0" xmlns="http://www.w3.org/2000/svg" xmlns:xlink="http://www.w3.org/1999/xlink" viewBox="0 0 340.000000 250.000000" preserveAspectRatio="xMidYMid meet" color-interpolation-filters="sRGB" style="margin: auto;"><rect data-v-70b83f88="" x="0" y="0" width="100%" height="100%" fill="#ec7f22" fill-opacity="1" class="background"></rect><rect data-v-70b83f88="" x="0" y="0" width="100%" height="100%" fill="url(#watermark)" fill-opacity="1" class="watermarklayer"></rect><g data-v-70b83f88="" fill="#feffff" class="iconbordersvg" transform="translate(115.00000011920929,55.04020690917969)"><g data-gra="graph-icon-name"><g><rect data-gra="graph-name-bg" stroke-width="2" class="i-icon-bg" x="0" y="0" width="110" height="139.91958618164062" fill-opacity="0" stroke="rgb(254, 255, 255)"></rect><!----><!----></g><g transform="translate(0,0)"><g data-gra="graph-icon" transform="translate(0,0)"><g><rect data-gra="graph-name-bg" stroke-width="2" class="i-icon-bg" x="0" y="0" width="110" height="113.13957214355469" fill-opacity="0"></rect><!----><!----></g><g transform="translate(5,5)"><g class="iconsvg-imagesvg"><g><!----><svg filter="url(#colors2113372796)" x="0" y="0" width="100" height="103.13956846404555" filtersec="colorsf7213304770" class="image-svg-svg primary" style="overflow: visible;"><svg xmlns="http://www.w3.org/2000/svg" viewBox="0 0 86.8 89.39999"><path d="M43.4 2c4 0 7.2 3.2 7.2 7.2 0 5.7-7.2 11.6-7.2 11.6m0-18.8c-4 0-7.2 3.2-7.2 7.2 0 5.7 7.2 11.6 7.2 11.6m0 66.6c4 0 7.2-3.2 7.2-7.2 0-5.7-7.2-11.6-7.2-11.6m0 0s-7.2 5.9-7.2 11.6c0 4 3.2 7.2 7.2 7.2M29.6 17.1C14.4 17.1 2 29.5 2 44.7s12.4 27.6 27.6 27.6c15.2 0 27.6-12.4 27.6-27.6S44.8 17.1 29.6 17.1zm27.6 0c-15.2 0-27.6 12.4-27.6 27.6S42 72.3 57.2 72.3c15.2 0 27.6-12.4 27.6-27.6S72.4 17.1 57.2 17.1z" fill="none" stroke="#333" stroke-width="4" stroke-linejoin="round" stroke-miterlimit="10"></path></svg></svg><defs><filter id="colors2113372796"><feColorMatrix type="matrix" values="0 0 0 0 0.9921875  0 0 0 0 0.99609375  0 0 0 0 0.99609375  0 0 0 1 0" class="icon-fecolormatrix"></feColorMatrix></filter><filter id="colorsf7213304770"><feColorMatrix type="matrix" values="0 0 0 0 0.99609375  0 0 0 0 0.99609375  0 0 0 0 0.99609375  0 0 0 1 0" class="icon-fecolormatrix"></feColorMatrix></filter><filter id="colorsb7138402723"><feColorMatrix type="matrix" values="0 0 0 0 0  0 0 0 0 0  0 0 0 0 0  0 0 0 1 0" class="icon-fecolormatrix"></feColorMatrix></filter></defs></g></g></g></g><g data-gra="graph-name" transform="translate(0.8999977111816406,113.13957214355469)"><g><rect data-gra="graph-name-bg" stroke-width="2" class="i-icon-bg" x="-0.8999977111816406" y="0" width="110" height="2" fill-opacity="1"></rect><!----><!----></g><g transform="translate(5,5)"><g data-gra="path-name" fill-rule="" class="tp-name"><g transform="scale(1)"><g><path d="M8.28 1.1L7.81 2.76Q7.38 2.55 6.89 2.14 6.4 1.73 5.93 1.21 5.46 0.68 5.12 0.17L5.12 0.17Q5.05 0.19 4.97 0.19 4.9 0.19 4.81 0.19L4.81 0.19Q3.34 0.19 2.46-0.36 1.59-0.91 1.22-1.93 0.84-2.96 0.84-4.36L0.84-4.36 0.84-9.55Q0.84-10.96 1.22-11.96 1.59-12.96 2.46-13.49 3.34-14.02 4.81-14.02L4.81-14.02Q6.32-14.02 7.19-13.49 8.06-12.96 8.44-11.96 8.82-10.96 8.82-9.55L8.82-9.55 8.82-4.35Q8.82-3.36 8.63-2.55 8.44-1.75 8.01-1.16 7.58-0.56 6.88-0.24L6.88-0.24Q7.1 0 7.34 0.26 7.58 0.51 7.82 0.74 8.06 0.96 8.28 1.1L8.28 1.1ZM4.81-1.68L4.81-1.68Q5.44-1.68 5.75-1.95 6.06-2.23 6.16-2.7 6.26-3.18 6.26-3.75L6.26-3.75 6.26-10.13Q6.26-10.72 6.16-11.18 6.06-11.64 5.75-11.91 5.44-12.17 4.81-12.17L4.81-12.17Q4.19-12.17 3.89-11.91 3.58-11.64 3.48-11.18 3.39-10.72 3.39-10.13L3.39-10.13 3.39-3.75Q3.39-3.18 3.48-2.7 3.58-2.23 3.89-1.95 4.19-1.68 4.81-1.68ZM12.14 0.15L12.14 0.15Q11.55 0.15 11.18-0.15 10.8-0.45 10.63-0.95 10.46-1.45 10.46-2.02L10.46-2.02 10.46-9.89 12.79-9.89 12.79-2.45Q12.79-2 12.93-1.75 13.08-1.51 13.47-1.51L13.47-1.51Q13.73-1.51 13.99-1.64 14.26-1.78 14.52-1.97L14.52-1.97 14.52-9.89 16.84-9.89 16.84 0 14.52 0 14.52-0.94Q14.02-0.46 13.42-0.15 12.82 0.15 12.14 0.15ZM21.64 0.15L21.64 0.15Q20.52 0.15 19.82-0.27 19.12-0.68 18.79-1.5 18.45-2.31 18.45-3.46L18.45-3.46 18.45-6.44Q18.45-7.62 18.79-8.42 19.12-9.23 19.83-9.64 20.54-10.05 21.64-10.05L21.64-10.05Q22.82-10.05 23.48-9.6 24.14-9.16 24.42-8.31 24.7-7.46 24.7-6.25L24.7-6.25 24.7-4.84 20.76-4.84 20.76-2.89Q20.76-2.41 20.86-2.11 20.95-1.8 21.16-1.66 21.36-1.52 21.65-1.52L21.65-1.52Q21.96-1.52 22.15-1.67 22.34-1.81 22.42-2.1 22.51-2.38 22.51-2.81L22.51-2.81 22.51-3.63 24.68-3.63 24.68-2.96Q24.68-1.45 23.93-0.65 23.18 0.15 21.64 0.15ZM20.76-6.68L20.76-5.99 22.51-5.99 22.51-6.93Q22.51-7.45 22.42-7.76 22.34-8.08 22.15-8.22 21.96-8.37 21.62-8.37L21.62-8.37Q21.31-8.37 21.12-8.22 20.93-8.06 20.85-7.7 20.76-7.34 20.76-6.68L20.76-6.68ZM29.27 0.15L29.27 0.15Q28.16 0.15 27.46-0.27 26.75-0.68 26.42-1.5 26.09-2.31 26.09-3.46L26.09-3.46 26.09-6.44Q26.09-7.62 26.42-8.42 26.75-9.23 27.46-9.64 28.18-10.05 29.27-10.05L29.27-10.05Q30.45-10.05 31.11-9.6 31.77-9.16 32.05-8.31 32.33-7.46 32.33-6.25L32.33-6.25 32.33-4.84 28.4-4.84 28.4-2.89Q28.4-2.41 28.49-2.11 28.59-1.8 28.79-1.66 29-1.52 29.29-1.52L29.29-1.52Q29.6-1.52 29.78-1.67 29.97-1.81 30.06-2.1 30.14-2.38 30.14-2.81L30.14-2.81 30.14-3.63 32.32-3.63 32.32-2.96Q32.32-1.45 31.56-0.65 30.81 0.15 29.27 0.15ZM28.4-6.68L28.4-5.99 30.14-5.99 30.14-6.93Q30.14-7.45 30.06-7.76 29.97-8.08 29.78-8.22 29.6-8.37 29.25-8.37L29.25-8.37Q28.95-8.37 28.76-8.22 28.57-8.06 28.48-7.7 28.4-7.34 28.4-6.68L28.4-6.68ZM36.24 0L33.91 0 33.91-9.89 36.24-9.89 36.24-8.9Q36.77-9.41 37.36-9.73 37.95-10.05 38.63-10.05L38.63-10.05Q39.25-10.05 39.61-9.75 39.97-9.45 40.14-8.95 40.31-8.46 40.31-7.87L40.31-7.87 40.31 0 37.98 0 37.98-7.41Q37.98-7.86 37.85-8.1 37.71-8.34 37.32-8.34L37.32-8.34Q37.08-8.34 36.79-8.2 36.51-8.06 36.24-7.86L36.24-7.86 36.24 0ZM44.71 0.15L44.71 0.15Q43.46 0.15 42.66-0.51 41.85-1.18 41.51-2.46L41.51-2.46 43.24-3.13Q43.44-2.33 43.79-1.9 44.13-1.47 44.68-1.47L44.68-1.47Q45.09-1.47 45.29-1.68 45.5-1.88 45.5-2.24L45.5-2.24Q45.5-2.65 45.25-2.99 45-3.32 44.4-3.82L44.4-3.82 43.2-4.83Q42.55-5.39 42.15-5.98 41.75-6.57 41.75-7.46L41.75-7.46Q41.75-8.27 42.12-8.84 42.49-9.41 43.13-9.73 43.77-10.05 44.56-10.05L44.56-10.05Q45.75-10.05 46.48-9.34 47.21-8.63 47.42-7.48L47.42-7.48 45.89-6.83Q45.81-7.24 45.64-7.59 45.48-7.94 45.22-8.17 44.97-8.39 44.63-8.39L44.63-8.39Q44.27-8.39 44.05-8.17 43.84-7.94 43.84-7.6L43.84-7.6Q43.84-7.31 44.09-7 44.33-6.69 44.8-6.3L44.8-6.3 46.01-5.2Q46.41-4.86 46.76-4.47 47.12-4.07 47.36-3.59 47.6-3.1 47.6-2.46L47.6-2.46Q47.6-1.61 47.22-1.03 46.83-0.45 46.17-0.15 45.52 0.15 44.71 0.15ZM55.72 0L53.18 0 53.18-13.87 55.72-13.87 55.72-7.77 58.46-13.87 60.87-13.87 58.22-7.67 61.14 0 58.63 0 56.3-6.32 55.72-5.26 55.72 0ZM64.38 0L62.05 0 62.05-9.89 64.38-9.89 64.38 0ZM64.38-11.47L62.05-11.47 62.05-13.4 64.38-13.4 64.38-11.47ZM68.91 0.15L68.91 0.15Q67.67 0.15 66.86-0.51 66.06-1.18 65.71-2.46L65.71-2.46 67.44-3.13Q67.65-2.33 67.99-1.9 68.33-1.47 68.88-1.47L68.88-1.47Q69.29-1.47 69.5-1.68 69.7-1.88 69.7-2.24L69.7-2.24Q69.7-2.65 69.45-2.99 69.21-3.32 68.61-3.82L68.61-3.82 67.41-4.83Q66.76-5.39 66.36-5.98 65.95-6.57 65.95-7.46L65.95-7.46Q65.95-8.27 66.32-8.84 66.69-9.41 67.33-9.73 67.97-10.05 68.76-10.05L68.76-10.05Q69.96-10.05 70.69-9.34 71.41-8.63 71.62-7.48L71.62-7.48 70.1-6.83Q70.01-7.24 69.85-7.59 69.69-7.94 69.43-8.17 69.17-8.39 68.83-8.39L68.83-8.39Q68.47-8.39 68.26-8.17 68.04-7.94 68.04-7.6L68.04-7.6Q68.04-7.31 68.29-7 68.54-6.69 69-6.3L69-6.3 70.22-5.2Q70.61-4.86 70.97-4.47 71.33-4.07 71.57-3.59 71.81-3.1 71.81-2.46L71.81-2.46Q71.81-1.61 71.42-1.03 71.04-0.45 70.38-0.15 69.72 0.15 68.91 0.15ZM75.47 0L73.14 0 73.14-9.89 75.47-9.89 75.47 0ZM75.47-11.47L73.14-11.47 73.14-13.4 75.47-13.4 75.47-11.47ZM81.19 0L78.6 0 76.63-9.89 78.91-9.89 79.92-2.79 80.91-9.89 83.16-9.89 81.19 0ZM85.83 0.15L85.83 0.15Q85.24 0.15 84.87-0.15 84.49-0.45 84.32-0.95 84.15-1.45 84.15-2.02L84.15-2.02 84.15-9.89 86.48-9.89 86.48-2.45Q86.48-2 86.62-1.75 86.77-1.51 87.16-1.51L87.16-1.51Q87.42-1.51 87.68-1.64 87.95-1.78 88.21-1.97L88.21-1.97 88.21-9.89 90.53-9.89 90.53 0 88.21 0 88.21-0.94Q87.71-0.46 87.11-0.15 86.51 0.15 85.83 0.15ZM94.8 0L92.49 0 92.49-13.87 94.8-13.87 94.8 0ZM99.04 0L96.71 0 96.71-9.89 99.04-9.89 99.04 0ZM99.04-11.47L96.71-11.47 96.71-13.4 99.04-13.4 99.04-11.47Z" transform="translate(-0.8400000333786011, 14.020000457763672)"></path></g><!----><!----><!----><!----><!----><!----><!----></g></g><!----></g></g></g></g></g><defs v-gra="od"></defs></svg>