<svg data-v-70b83f88="" version="1.0" xmlns="http://www.w3.org/2000/svg" xmlns:xlink="http://www.w3.org/1999/xlink" viewBox="0 0 340.000000 250.000000" preserveAspectRatio="xMidYMid meet" color-interpolation-filters="sRGB" style="margin: auto;"><rect data-v-70b83f88="" x="0" y="0" width="100%" height="100%" fill="#ffffff" fill-opacity="1" class="background"></rect><rect data-v-70b83f88="" x="0" y="0" width="100%" height="100%" fill="url(#watermark)" fill-opacity="1" class="watermarklayer"></rect><g data-v-70b83f88="" class="iconmbgsvg" transform="translate(79.20500183105469,68.75056076049805)"><g fill="#000000" hollow-target="textNormalTran"><g opacity="0.55" transform="translate(34.54499816894531,0)"><g><rect fill="#000000" fill-opacity="0" stroke-width="2" x="0" y="0" width="112.5" height="112.49887501124988" class="image-rect"></rect><svg x="0" y="0" width="112.5" height="112.49887501124988" filtersec="colorsb1147871907" class="image-svg-svg primary" style="overflow: visible;"><svg version="1.1" id="图层_1" xmlns="http://www.w3.org/2000/svg" xmlns:xlink="http://www.w3.org/1999/xlink" x="0px" y="0px" viewBox="0.10500144958496094 0.00025177001953125 99.65999603271484 99.6594467163086" enable-background="new 0 0 100 100" xml:space="preserve"><g><g><ellipse transform="matrix(0.7071 -0.7071 0.7071 0.7071 -20.6061 49.9058)" fill="#07326E" cx="49.94" cy="49.83" rx="17.04" ry="17.04"></ellipse></g><path fill="#07326E" d="M72.63,72.52L72.63,72.52c7.85-7.85,10.78-18.75,8.8-28.87c-1.58-16.62-8.96-30.72-17.01-41.5
		c7.59,2.3,14.74,6.45,20.75,12.45c19.46,19.46,19.46,51.01,0,70.47l0,0c-11.6,11.6-27.5,16.28-42.57,14.05
		c-4.51-7.94-7.14-15.21-8.64-21.45C46.22,84.71,62.15,83,72.63,72.52z"></path><path fill="#2CA6E0" d="M57.27,0.54c4.51,7.94,7.14,15.21,8.64,21.45c-12.27-7.05-28.19-5.34-38.67,5.14l0,0
		C19.4,34.98,16.46,45.88,18.44,56c1.58,16.62,8.96,30.72,17.01,41.5c-7.59-2.3-14.75-6.45-20.75-12.45
		c-19.46-19.46-19.46-51.01,0-70.47l0,0C26.3,2.99,42.2-1.69,57.27,0.54z"></path></g></svg></svg><!----></g></g><g transform="translate(0,42.839439392089844)"><g data-gra="path-name" fill-rule="" class="tp-name"><g transform="scale(1)"><g><path d="M4.05-9.71C4.05-10.91 4.19-11.98 4.46-12.94 4.73-13.9 5.12-14.71 5.62-15.38 6.12-16.04 6.72-16.56 7.41-16.92 8.1-17.28 8.88-17.46 9.74-17.46 10.6-17.46 11.38-17.28 12.08-16.92 12.77-16.56 13.37-16.04 13.87-15.38 14.36-14.71 14.75-13.9 15.02-12.94 15.3-11.98 15.44-10.91 15.44-9.71 15.44-8.48 15.3-7.37 15.02-6.38 14.75-5.39 14.36-4.55 13.87-3.84 13.37-3.14 12.77-2.6 12.08-2.23 11.38-1.86 10.6-1.67 9.74-1.67 8.88-1.67 8.1-1.86 7.41-2.23 6.72-2.6 6.12-3.14 5.62-3.84 5.12-4.55 4.73-5.39 4.46-6.38 4.19-7.37 4.05-8.48 4.05-9.71ZM18.4 4.37L17.93 2.46C17.66 2.54 17.36 2.61 17.03 2.67 16.71 2.73 16.34 2.76 15.9 2.76 14.85 2.76 13.91 2.55 13.09 2.14 12.27 1.73 11.63 1.1 11.18 0.23 12.2 0.06 13.13-0.3 13.97-0.84 14.81-1.37 15.53-2.07 16.12-2.92 16.72-3.77 17.18-4.77 17.5-5.91 17.83-7.06 17.99-8.32 17.99-9.71 17.99-11.24 17.79-12.61 17.39-13.84 16.99-15.06 16.42-16.1 15.68-16.95 14.95-17.8 14.08-18.45 13.07-18.91 12.07-19.37 10.96-19.6 9.74-19.6 8.53-19.6 7.42-19.38 6.41-18.93 5.4-18.48 4.54-17.83 3.81-16.98 3.09-16.12 2.53-15.09 2.13-13.87 1.73-12.64 1.53-11.26 1.53-9.71 1.53-8.3 1.69-7.02 2.02-5.85 2.36-4.69 2.83-3.68 3.45-2.82 4.06-1.96 4.8-1.26 5.66-0.73 6.52-0.21 7.48 0.13 8.54 0.26 9.11 1.59 9.99 2.69 11.18 3.54 12.37 4.39 13.86 4.81 15.64 4.81 16.21 4.81 16.74 4.76 17.23 4.67 17.71 4.57 18.11 4.47 18.4 4.37ZM21.69-14.26L21.69-5.22C21.69-3.38 22.03-2 22.73-1.06 23.42-0.12 24.53 0.35 26.06 0.35 27.06 0.35 27.92 0.12 28.66-0.35 29.39-0.82 30.09-1.45 30.75-2.23L30.84-2.23 31.05 0 33.04 0 33.04-14.26 30.64-14.26 30.64-4.14C29.95-3.3 29.33-2.69 28.76-2.3 28.19-1.92 27.54-1.73 26.79-1.73 25.85-1.73 25.17-2.03 24.75-2.63 24.33-3.22 24.12-4.2 24.12-5.55L24.12-14.26ZM36.8-7.1C36.8-5.93 36.97-4.88 37.33-3.96 37.68-3.04 38.16-2.26 38.78-1.63 39.4-0.99 40.12-0.5 40.95-0.16 41.78 0.18 42.68 0.35 43.64 0.35 44.61 0.35 45.48 0.21 46.25-0.09 47.01-0.38 47.7-0.72 48.33-1.12L47.48-2.7C46.95-2.37 46.4-2.1 45.82-1.89 45.24-1.69 44.61-1.58 43.93-1.58 42.56-1.58 41.45-2.03 40.6-2.93 39.75-3.83 39.27-5.06 39.18-6.6L48.8-6.6C48.86-6.95 48.89-7.39 48.89-7.92 48.89-8.94 48.76-9.86 48.51-10.68 48.25-11.5 47.89-12.21 47.41-12.79 46.93-13.38 46.33-13.83 45.62-14.14 44.9-14.46 44.1-14.61 43.2-14.61 42.37-14.61 41.58-14.44 40.82-14.1 40.06-13.76 39.38-13.26 38.78-12.62 38.18-11.97 37.7-11.19 37.34-10.26 36.98-9.33 36.8-8.28 36.8-7.1ZM46.78-8.19L39.15-8.19C39.22-8.91 39.39-9.55 39.63-10.11 39.87-10.67 40.18-11.14 40.55-11.52 40.93-11.9 41.34-12.19 41.8-12.4 42.26-12.6 42.75-12.71 43.25-12.71 44.37-12.71 45.23-12.32 45.85-11.55 46.47-10.77 46.78-9.65 46.78-8.19ZM51.35-7.1C51.35-5.93 51.53-4.88 51.88-3.96 52.23-3.04 52.72-2.26 53.33-1.63 53.95-0.99 54.67-0.5 55.51-0.16 56.34 0.18 57.23 0.35 58.19 0.35 59.17 0.35 60.04 0.21 60.8-0.09 61.57-0.38 62.26-0.72 62.89-1.12L62.03-2.7C61.51-2.37 60.95-2.1 60.38-1.89 59.8-1.69 59.17-1.58 58.48-1.58 57.11-1.58 56-2.03 55.15-2.93 54.3-3.83 53.83-5.06 53.73-6.6L63.36-6.6C63.41-6.95 63.44-7.39 63.44-7.92 63.44-8.94 63.32-9.86 63.06-10.68 62.81-11.5 62.44-12.21 61.96-12.79 61.48-13.38 60.89-13.83 60.17-14.14 59.46-14.46 58.65-14.61 57.75-14.61 56.93-14.61 56.14-14.44 55.37-14.1 54.61-13.76 53.93-13.26 53.33-12.62 52.74-11.97 52.26-11.19 51.9-10.26 51.53-9.33 51.35-8.28 51.35-7.1ZM61.33-8.19L53.7-8.19C53.78-8.91 53.94-9.55 54.18-10.11 54.43-10.67 54.74-11.14 55.11-11.52 55.48-11.9 55.9-12.19 56.36-12.4 56.82-12.6 57.3-12.71 57.81-12.71 58.92-12.71 59.79-12.32 60.41-11.55 61.02-10.77 61.33-9.65 61.33-8.19ZM66.96-14.26L66.96 0 69.37 0 69.37-10.33C70.09-11.05 70.74-11.6 71.31-11.97 71.87-12.34 72.53-12.53 73.27-12.53 74.21-12.53 74.9-12.23 75.33-11.64 75.76-11.04 75.97-10.07 75.97-8.72L75.97 0 78.38 0 78.38-9.04C78.38-10.88 78.03-12.27 77.34-13.21 76.64-14.14 75.54-14.61 74.04-14.61 73.04-14.61 72.16-14.38 71.41-13.92 70.66-13.46 69.94-12.89 69.25-12.21L69.17-12.21 68.96-14.26ZM82.63-3.23L81.43-1.61C82.12-1.05 82.92-0.58 83.84-0.21 84.76 0.17 85.73 0.35 86.74 0.35 87.58 0.35 88.33 0.24 88.99 0.01 89.64-0.21 90.19-0.52 90.63-0.91 91.07-1.3 91.4-1.75 91.63-2.26 91.85-2.77 91.97-3.32 91.97-3.9 91.97-4.57 91.83-5.14 91.57-5.6 91.31-6.07 90.97-6.47 90.56-6.79 90.15-7.12 89.68-7.39 89.16-7.6 88.65-7.82 88.13-8.02 87.62-8.22 87.21-8.37 86.82-8.52 86.43-8.67 86.05-8.82 85.72-8.98 85.42-9.17 85.13-9.36 84.89-9.57 84.72-9.82 84.54-10.06 84.45-10.35 84.45-10.68 84.45-11.23 84.66-11.71 85.08-12.12 85.51-12.53 86.17-12.74 87.07-12.74 87.69-12.74 88.27-12.62 88.8-12.38 89.33-12.15 89.83-11.85 90.32-11.47L91.47-13C90.92-13.45 90.27-13.83 89.52-14.14 88.76-14.46 87.94-14.61 87.04-14.61 86.27-14.61 85.59-14.51 84.98-14.31 84.38-14.1 83.86-13.82 83.44-13.45 83.02-13.09 82.7-12.66 82.47-12.16 82.25-11.66 82.14-11.13 82.14-10.56 82.14-9.96 82.26-9.44 82.52-9.01 82.77-8.58 83.1-8.2 83.5-7.88 83.9-7.56 84.36-7.28 84.86-7.06 85.37-6.83 85.88-6.63 86.39-6.46L87.56-5.99C87.96-5.83 88.3-5.65 88.61-5.44 88.91-5.24 89.16-5 89.35-4.72 89.55-4.45 89.65-4.13 89.65-3.76 89.65-3.13 89.41-2.6 88.94-2.17 88.47-1.74 87.77-1.53 86.83-1.53 85.97-1.53 85.21-1.68 84.56-2 83.9-2.31 83.26-2.72 82.63-3.23Z" transform="translate(-1.5299999713897705, 22.010000228881836)"></path></g><!----><!----><!----><!----><!----><!----><g data-gra="path-name-1" fill="#000000" transform="translate(93.44000244140625,0)"><g transform="scale(1)"><path d="M12.79 0.5C13.56 0.5 14.53 0.32 15.7 0 15.02-0.26 14.55-1 14.55-1.94 14.55-2.35 14.61-2.79 14.73-3.29 14.94-4.23 15.61-6.57 15.82-7.63 15.93-8.25 15.99-8.8 15.99-9.36 15.99-11.65 14.73-12.5 12.35-12.5 11.86-12.5 11.86-12.47 11.33-12.47L19.48-21.86 16.4-21.86 16.2-21.6C15.73-20.98 15.26-20.34 14.79-19.72L12.68-16.9C11.8-15.76 11.09-14.79 10.56-14.06L9.74-12.97 11.65-21.95C11.3-21.98 10.92-22.01 10.48-22.01 6.93-22.01 3.52-20.16 1.76-18.11 0.94-17.17 0.18-15.93 0.18-14.38 0.18-12.32 1.2-11.53 3.32-11.53 3.32-11.59 3.29-11.68 3.26-11.74 2.99-12.18 2.91-12.74 2.91-13.53 2.91-16.87 4.58-18.93 7.01-19.95L2.76 0 6.98 0 9.33-11.06C9.6-11.15 9.92-11.18 10.3-11.18 11.56-11.18 12.06-10.45 12.06-9.18 12.06-8.69 12-8.13 11.88-7.51 11.65-6.43 10.95-4.05 10.71-2.99 10.56-2.41 10.51-1.91 10.51-1.47 10.51-0.12 11.39 0.5 12.79 0.5ZM20.22-18.58C20.22-18.25 20.28-17.96 20.39-17.67 20.72-16.9 21.48-16.26 22.54-16.26 22.86-16.26 23.15-16.32 23.45-16.43 24.24-16.76 24.88-17.49 24.88-18.58 24.88-18.9 24.83-19.19 24.71-19.48 24.39-20.28 23.62-20.92 22.54-20.92 22.21-20.92 21.92-20.86 21.63-20.75 20.86-20.42 20.22-19.66 20.22-18.58ZM20.54 0.18C21.22 0.18 21.86 0.06 22.48-0.18 23.33-0.5 24.06-1.03 24.74-1.73 25.53-2.61 26.18-3.79 26.7-5.25L25.47-5.25C25.24-4.49 24.88-3.87 24.41-3.4 24.03-3.02 23.51-2.67 22.83-2.67 22.01-2.67 21.63-2.93 21.63-3.76 21.63-4.14 21.66-4.46 21.74-4.7L23.86-14.67 19.63-14.67 17.64-5.25C17.49-4.52 17.4-3.9 17.4-3.35 17.4-1.23 18.46 0.18 20.54 0.18ZM24.53-3.58C24.53-3.11 24.62-2.67 24.8-2.23 25.38-0.76 26.76 0.18 28.82 0.18 30.78 0.18 32.43-0.53 33.42-1.58 35.18-2.58 36.59-3.73 37.91-5.25L36.68-5.25C36.15-4.78 35.45-4.31 34.57-3.79 34.66-4.02 34.69-4.4 34.69-4.9 34.69-5.46 34.66-6.1 34.6-6.84 34.3-9.6 34.22-11.83 34.04-15.58L29.7-15C28.67-11.68 27.64-9.07 26.09-6.31 25.21-5.9 24.53-4.81 24.53-3.58ZM27.88-2.14C26.56-2.14 26.09-2.85 26.09-4.2 26.23-3.9 26.47-3.81 26.88-3.81 27.61-3.81 28.17-4.49 28.17-5.25 28.17-5.69 27.94-6.04 27.5-6.28 28.49-8.22 29.23-9.77 29.87-11.83L30.02-9.83C30.11-8.83 30.2-7.98 30.28-7.22L30.37-6.34C30.43-5.75 30.43-5.25 30.43-4.87 30.43-3.2 29.55-2.14 27.88-2.14ZM39.23-18.58C39.23-18.25 39.29-17.96 39.41-17.67 39.73-16.9 40.5-16.26 41.55-16.26 41.87-16.26 42.17-16.32 42.46-16.43 43.25-16.76 43.9-17.49 43.9-18.58 43.9-18.9 43.84-19.19 43.72-19.48 43.4-20.28 42.64-20.92 41.55-20.92 41.23-20.92 40.94-20.86 40.64-20.75 39.88-20.42 39.23-19.66 39.23-18.58ZM39.56 0.18C40.23 0.18 40.88 0.06 41.49-0.18 42.34-0.5 43.08-1.03 43.75-1.73 44.55-2.61 45.19-3.79 45.72-5.25L44.49-5.25C44.25-4.49 43.9-3.87 43.43-3.4 43.05-3.02 42.52-2.67 41.85-2.67 41.02-2.67 40.64-2.93 40.64-3.76 40.64-4.14 40.67-4.46 40.76-4.7L42.87-14.67 38.65-14.67 36.65-5.25C36.5-4.52 36.42-3.9 36.42-3.35 36.42-1.23 37.47 0.18 39.56 0.18ZM47.83 0.18C49.68 0.18 51.27-0.62 52.64-2.14 54.61-4.31 56.19-8.39 56.19-12.71 56.19-14.11 55.67-15.26 54.35-15.26 53.23-15.26 52.53-14.73 52.53-13.67 52.53-12.94 52.91-12.18 53.58-12.18 53.91-12.18 54.43-12.3 54.52-12.47 54.52-11.12 54.2-9.68 53.85-8.51 53.26-6.49 52.29-4.23 50.8-3.14 50.36-2.82 49.92-2.67 49.45-2.67 48.8-2.67 48.45-2.99 48.45-3.64 48.45-3.87 48.48-4.23 48.59-4.7L50.71-14.67 46.48-14.67 44.37-4.7C44.28-4.23 44.22-3.76 44.22-3.29 44.22-1 45.54 0.18 47.83 0.18ZM59.54 0.18C60.33 0.18 61.01 0 61.62-0.32 62.47-0.79 63.21-1.56 63.88-2.61 64.09-0.91 64.97 0.18 66.79 0.18 67.43 0.18 68.05 0.06 68.64-0.18 69.43-0.5 70.16-1.03 70.78-1.73 71.51-2.61 72.16-3.76 72.69-5.25L71.45-5.25C71.22-4.43 70.93-3.84 70.54-3.4 70.1-2.91 69.63-2.67 69.08-2.67 68.26-2.67 67.87-2.93 67.87-3.76 67.87-4.11 67.9-4.4 67.99-4.7L70.1-14.67 65.88-14.67 63.88-5.25C63.62-4.43 63.33-3.81 62.97-3.4 62.53-2.91 62.06-2.67 61.54-2.67 60.95-2.67 60.66-3.08 60.66-3.87 60.66-4.14 60.68-4.4 60.74-4.7L62.86-14.67 58.63-14.67 56.64-5.25C56.49-4.52 56.4-3.9 56.4-3.35 56.4-1.23 57.46 0.18 59.54 0.18ZM74.33 0.18C75 0.18 75.65 0.06 76.27-0.18 77.12-0.5 77.85-1.03 78.53-1.73 79.32-2.61 79.96-3.79 80.49-5.25L79.26-5.25C79.03-4.49 78.67-3.87 78.2-3.4 77.82-3.02 77.29-2.67 76.62-2.67 75.8-2.67 75.42-2.93 75.42-3.76 75.42-4.14 75.45-4.46 75.53-4.7L78.91-20.54 74.56-19.95 71.42-5.25C71.28-4.52 71.19-3.9 71.19-3.35 71.19-1.23 72.25 0.18 74.33 0.18ZM81.84-18.58C81.84-18.25 81.9-17.96 82.02-17.67 82.34-16.9 83.1-16.26 84.16-16.26 84.48-16.26 84.78-16.32 85.07-16.43 85.86-16.76 86.51-17.49 86.51-18.58 86.51-18.9 86.45-19.19 86.33-19.48 86.01-20.28 85.25-20.92 84.16-20.92 83.84-20.92 83.54-20.86 83.25-20.75 82.49-20.42 81.84-19.66 81.84-18.58ZM82.16 0.18C82.84 0.18 83.49 0.06 84.1-0.18 84.95-0.5 85.69-1.03 86.36-1.73 87.15-2.61 87.8-3.79 88.33-5.25L87.09-5.25C86.86-4.49 86.51-3.87 86.04-3.4 85.66-3.02 85.13-2.67 84.45-2.67 83.63-2.67 83.25-2.93 83.25-3.76 83.25-4.14 83.28-4.46 83.37-4.7L85.48-14.67 81.26-14.67 79.26-5.25C79.11-4.52 79.03-3.9 79.03-3.35 79.03-1.23 80.08 0.18 82.16 0.18Z" transform="translate(-0.18000000715255737, 22.010000228881836)"></path></g></g></g></g><!----></g></g></g><defs v-gra="od"></defs></svg>