<svg xmlns="http://www.w3.org/2000/svg" viewBox="0.009999990463256836 0 61.86005401611328 62.29553985595703"><defs><clipPath id="a22f59952-2dce-427c-8136-d989c1a10d64" transform="translate(.31 4.64)"><path fill="currentColor" d="M15.31 0h30.63l15.32 26.52-15.32 26.51H15.31L0 26.52 15.31 0z"></path></clipPath></defs><title>资源 102</title><g clip-path="url(#a22f59952-2dce-427c-8136-d989c1a10d64)"><path d="M30.94 0h.68a9.74 9.74 0 0 0-.92.58 47.43 47.43 0 0 0-13.28 16.61l-.83-.18c-1.35-.27-2.69-.56-4.05-.8A38.06 38.06 0 0 0 14.21 5a30.77 30.77 0 0 1 16.74-5zm4.29.33a30.86 30.86 0 0 1 17.78 9l-.42-.1a23.37 23.37 0 0 0-4-.23 34.15 34.15 0 0 0-12.01 2.64c-4.7 1.93-8.65 4.65-10.42 7.77-2.38-.71-4.7-1.32-6.92-1.83A45.92 45.92 0 0 1 31.79 2.03 16.77 16.77 0 0 1 34.44.64l.79-.33zM12.37 6.28a36.41 36.41 0 0 1-1.66 9.65 21.49 21.49 0 0 0-3.52-.15 17.64 17.64 0 0 0-3.41.52 31.15 31.15 0 0 1 8.59-10zm37.13 4.55a21.56 21.56 0 0 1 2.71.21 25.73 25.73 0 0 1 3.18 1.09 30.85 30.85 0 0 1 5.62 26.15c-8.83-8.75-21.5-14.64-33.05-18.32 1.56-2.32 5.06-4.89 9.35-6.64a32.11 32.11 0 0 1 12.19-2.49zM8.12 17.56a19.38 19.38 0 0 1 2 .12 51.89 51.89 0 0 1-2.63 6.1C5 28.47 1.97 31.68.49 36.4a30.67 30.67 0 0 1-.48-5.24 31.35 31.35 0 0 1 2.7-12.63 15.36 15.36 0 0 1 5.41-.97zm3.85.38c1.38.24 2.78.55 4.26.84l.45.1a34.92 34.92 0 0 0-1.56 4.76c-2.8 11.3-3.54 24.37 2 35.35A31.07 31.07 0 0 1 1.5 40.64a16.23 16.23 0 0 1 .21-1.78c1.06-5.38 4.43-8.6 7.41-14.22a50.81 50.81 0 0 0 2.84-6.67zm6.51 1.33c2.23.51 4.56 1.12 7 1.83-1.57 4.64-.91 9.43.37 13.73 2.19 7.39 7.67 13.63 12.32 19a74.61 74.61 0 0 0 5.75 5.57 30.49 30.49 0 0 1-24 .83c-6.45-10.81-5.9-24.35-3-36.14a33.09 33.09 0 0 1 1.61-4.84zm8.7 2.37c11.75 3.69 24.71 9.81 33.29 18.69a31.12 31.12 0 0 1-14.82 18.23 83.46 83.46 0 0 1-6.14-5.92c-4.66-5.39-9.93-11.49-12-18.34-1.2-4.12-1.76-8.51-.33-12.66z" fill="currentColor"></path></g></svg>