<svg data-v-70b83f88="" version="1.0" xmlns="http://www.w3.org/2000/svg" xmlns:xlink="http://www.w3.org/1999/xlink" viewBox="0 0 340.000000 250.000000" preserveAspectRatio="xMidYMid meet" color-interpolation-filters="sRGB" style="margin: auto;"><rect data-v-70b83f88="" x="0" y="0" width="100%" height="100%" fill="#0a0619" fill-opacity="1" class="background"></rect><rect data-v-70b83f88="" x="0" y="0" width="100%" height="100%" fill="url(#watermark)" fill-opacity="1" class="watermarklayer"></rect><g data-v-70b83f88="" fill="#ffffff" class="icon-text-wrapper icon-svg-group iconsvg" transform="translate(47.39000701904297,94.99999809265137)"><g class="iconsvg-imagesvg" transform="translate(0,0)" mask="url(#4af3104a-7abc-4230-a865-0566c8a16e87)"><g><rect fill="#ffffff" fill-opacity="0" stroke-width="2" x="0" y="0" width="60" height="60" class="image-rect"></rect><svg filter="url(#colors7993103764)" x="0" y="0" width="60" height="60" filtersec="colorsf6984966059" class="image-svg-svg primary" style="overflow: visible;"><svg xmlns="http://www.w3.org/2000/svg" viewBox="0 0 110.2 110.2"><path d="M70.4 28.6c0 14.7-6.9 26.6-15.3 26.6-8.5 0-15.3-11.9-15.3-26.6S46.7 2 55.1 2c8.5 0 15.3 11.9 15.3 26.6zm-52.8-11c-6 6-2.4 19.2 8 29.6 10.4 10.4 23.6 13.9 29.6 8 6-6 2.4-19.2-8-29.6s-23.7-14-29.6-8zM2 55.1c0 8.5 11.9 15.3 26.6 15.3s26.6-6.9 26.6-15.3c0-8.5-11.9-15.3-26.6-15.3S2 46.7 2 55.1zm15.6 37.6c6 6 19.2 2.4 29.6-8s13.9-23.6 8-29.6c-6-6-19.2-2.4-29.6 8-10.5 10.3-14 23.6-8 29.6zm37.5 15.5c8.5 0 15.3-11.9 15.3-26.6S63.5 55 55.1 55c-8.5 0-15.3 11.9-15.3 26.6s6.9 26.6 15.3 26.6zm37.6-15.5c6-6 2.4-19.2-8-29.6-10.4-10.4-23.6-13.9-29.6-8-6 6-2.4 19.2 8 29.6s23.6 14 29.6 8zm15.5-37.6c0-8.5-11.9-15.3-26.6-15.3S55 46.7 55 55.1c0 8.5 11.9 15.3 26.6 15.3s26.6-6.8 26.6-15.3zM92.7 17.6c-6-6-19.2-2.4-29.6 8s-13.9 23.6-8 29.6c6 6 19.2 2.4 29.6-8 10.4-10.4 14-23.7 8-29.6z" fill="none" stroke="#333" stroke-width="4" stroke-miterlimit="10"></path></svg></svg><defs><filter id="colors7993103764"><feColorMatrix type="matrix" values="0 0 0 0 0.99609375  0 0 0 0 0.99609375  0 0 0 0 0.99609375  0 0 0 1 0" class="icon-fecolormatrix"></feColorMatrix></filter><filter id="colorsf6984966059"><feColorMatrix type="matrix" values="0 0 0 0 0.99609375  0 0 0 0 0.99609375  0 0 0 0 0.99609375  0 0 0 1 0" class="icon-fecolormatrix"></feColorMatrix></filter><filter id="colorsb2035203326"><feColorMatrix type="matrix" values="0 0 0 0 0  0 0 0 0 0  0 0 0 0 0  0 0 0 1 0" class="icon-fecolormatrix"></feColorMatrix></filter></defs></g><rect v-gra="id" width="72.00000381469727" height="72.00000381469727" transform="translate(-6, -6)" style="pointer-events:none;" fill="url(#9pLZsgOax7vJZwE1hP7ju)"></rect></g><g transform="translate(67.00000381469727,13.280000686645508)"><g data-gra="path-name" fill-rule="" class="tp-name iconsvg-namesvg"><g transform="scale(1)"><g><path d="M7.27 3.02C7.27 3.67 7.41 4.25 7.68 4.8 8.4 6.21 9.88 7.34 11.93 7.34 12.48 7.34 13 7.27 13.44 7.13 14.61 6.76 15.64 5.86 15.64 4.36 15.64 2.78 14.64 1.58 13.17 1.65 12.79 1.65 12.41 1.71 12.11 1.85 11.14 2.26 10.46 3.19 10.36 4.42 10.08 4.01 9.88 3.46 9.88 2.85 9.88 1.58 10.46 0.86 11.18 0.34 12.04-0.03 12.83-0.65 13.48-1.44 15.5-3.84 16.46-7.61 16.46-12 16.46-15.53 15.88-18.79 14.61-21.09 13.48-23.15 11.66-24.86 8.64-24.86 7.34-24.86 6.17-24.55 5.18-23.87 2.09-21.74 0.82-17.25 0.82-12 0.82-8.64 1.41-5.59 2.54-3.33 3.57-1.3 5.14 0.45 7.65 0.82 7.37 1.51 7.27 2.26 7.27 3.02ZM12.07-12C12.07-8.44 11.8-4.63 10.22-2.71 9.77-2.19 9.26-1.92 8.64-1.92 8.02-1.92 7.51-2.19 7.06-2.71 6.62-3.22 6.28-3.94 6-4.87 5.42-6.79 5.21-9.4 5.21-12 5.21-13.37 5.25-14.68 5.38-15.91 5.59-18.04 6.04-20.06 7.03-21.26 7.48-21.78 7.99-22.05 8.64-22.05 9.29-22.05 9.84-21.78 10.29-21.26 10.73-20.75 11.08-20.03 11.35-19.1 11.9-17.18 12.07-14.57 12.07-12ZM30.66-10.97C30.66-13.65 30.76-16.15 30.93-18.76L27.13-18.83C27.16-17.63 27.16-16.6 27.16-15.64L27.16-10.87C27.16-10.22 27.16-9.57 27.13-8.92 26.85-7.37 26.51-5.93 25.89-4.8 25.58-4.22 25.1-3.6 24.52-3.5 23.42-3.5 22.94-4.15 22.63-5.04 22.22-6.31 22.19-7.96 22.19-9.77 22.19-10.42 22.26-11.18 22.32-12.04 22.5-14.09 22.8-16.08 23.25-18.24L19-18.72C18.48-15.47 18.24-12.04 18.24-8.26 18.24-5.76 18.55-3.53 19.41-1.95 20.1-0.65 21.26 0.41 23.11 0.41 23.52 0.38 23.94 0.24 24.38 0.03 25.41-0.45 26.2-1.2 26.82-2.3 26.75-1.51 26.68-0.69 26.65 0.17L31 0.24C30.86-3.7 30.66-7.06 30.66-10.97ZM41.39-2.3C41.08-1.75 40.5-1.41 39.74-1.37 39.4-1.37 39.13-1.47 38.85-1.71 37.86-2.54 37.55-4.29 37.38-6 39.71-6.65 41.7-7.85 43.07-9.4 44.13-10.6 45.03-12.17 45.03-14.16 45.03-15.05 44.89-15.84 44.58-16.53 43.79-18.38 42.08-19.68 39.5-19.68 38.27-19.68 37.28-19.38 36.45-18.83 33.92-17.18 32.95-13.85 32.95-9.6 32.95-6.04 33.57-3.05 35.12-1.13 36.11 0.14 37.48 1.13 39.64 1.13 41.32 1.13 42.69 0.55 43.65-0.24 44.55-0.96 45.33-2.09 45.33-3.6 45.33-4.25 45.23-4.8 45.06-5.21 44.68-6.04 44-6.72 42.9-6.72 42.73-6.72 42.49-6.69 42.18-6.62 41.08-6.34 40.22-5.52 40.22-4.12 40.26-3.26 40.74-2.61 41.39-2.3ZM41.18-14.13C41.18-13.51 41.12-12.93 40.91-12.38 40.26-10.56 38.89-9.22 37.24-8.37L37.24-9.6C37.24-11.45 37.34-13.37 37.72-14.81 38-15.84 38.41-17.11 39.54-17.11 39.81-17.11 40.05-17.04 40.26-16.87 40.91-16.36 41.18-15.29 41.18-14.13ZM55.11-2.3C54.8-1.75 54.22-1.41 53.46-1.37 53.12-1.37 52.84-1.47 52.57-1.71 51.58-2.54 51.27-4.29 51.1-6 53.43-6.65 55.42-7.85 56.79-9.4 57.85-10.6 58.74-12.17 58.74-14.16 58.74-15.05 58.61-15.84 58.3-16.53 57.51-18.38 55.79-19.68 53.22-19.68 51.99-19.68 50.99-19.38 50.17-18.83 47.63-17.18 46.67-13.85 46.67-9.6 46.67-6.04 47.29-3.05 48.83-1.13 49.83 0.14 51.2 1.13 53.36 1.13 55.04 1.13 56.41 0.55 57.37-0.24 58.26-0.96 59.05-2.09 59.05-3.6 59.05-4.25 58.95-4.8 58.78-5.21 58.4-6.04 57.71-6.72 56.62-6.72 56.45-6.72 56.2-6.69 55.9-6.62 54.8-6.34 53.94-5.52 53.94-4.12 53.98-3.26 54.46-2.61 55.11-2.3ZM54.9-14.13C54.9-13.51 54.83-12.93 54.63-12.38 53.98-10.56 52.6-9.22 50.96-8.37L50.96-9.6C50.96-11.45 51.06-13.37 51.44-14.81 51.71-15.84 52.12-17.11 53.26-17.11 53.53-17.11 53.77-17.04 53.98-16.87 54.63-16.36 54.9-15.29 54.9-14.13ZM61.04-7.54C61.04-4.7 61.01-2.26 60.94 0.34L64.74 0.41C64.71-0.79 64.71-1.85 64.71-2.78L64.71-5.38C64.71-7.27 64.71-8.88 64.78-10.7 65.02-11.97 65.26-12.96 65.57-13.68 65.88-14.4 66.15-14.92 66.42-15.23 66.73-15.6 67.04-15.84 67.35-15.91 68.45-15.91 68.93-15.26 69.24-14.37 69.65-13.1 69.68-11.45 69.68-9.64 69.65-6.31 69.2-3.22 68.62-0.14L72.53 0.34C73.42-2.91 73.63-7 73.63-11.14 73.63-12.45 73.56-13.61 73.35-14.64 72.87-17.18 71.67-19.51 68.76-19.51 68.31-19.51 67.97-19.44 67.49-19.27 66.49-18.9 65.7-18.17 65.12-17.18L65.22-18.55 60.87-18.62C60.97-14.71 61.04-11.25 61.04-7.54ZM79.42-1.99C79.94-2.37 80.35-2.95 80.38-3.7 80.38-5.42 79.39-6.48 77.67-6.48 75.85-6.48 74.96-5.35 74.96-3.53 74.96-2.37 75.68-1.41 76.4-0.72 77.47 0.27 79.01 0.96 81.1 0.96 81.82 0.96 82.47 0.86 83.02 0.69 85.18-0.03 86.73-1.99 86.73-4.8 86.73-5.35 86.66-5.86 86.49-6.34 86.07-7.54 85.35-8.44 84.46-9.33 83.57-10.22 81.86-11.45 81-12.31 80.11-13.2 79.63-13.92 79.63-15.57 79.63-16.94 80.48-18.07 81.89-18.07 82.61-17.97 83.16-17.42 83.54-16.87 82.85-16.43 82.37-15.74 82.34-14.75 82.34-14.27 82.44-13.85 82.61-13.55 83.02-12.83 83.74-12.28 84.77-12.28 84.98-12.28 85.22-12.31 85.49-12.41 86.49-12.76 87.31-13.68 87.31-15.09 87.31-15.81 87.21-16.46 87-17.11 86.35-19.1 84.63-20.37 81.92-20.37 80-20.37 78.49-19.68 77.5-18.69 76.61-17.8 75.85-16.46 75.85-14.81 75.85-12.38 76.81-10.84 78.01-9.53 78.84-8.64 80.28-7.41 81.07-6.58 81.86-5.76 82.4-5.11 82.4-3.63 82.4-3.29 82.37-2.95 82.23-2.71 81.96-2.16 81.41-1.54 80.69-1.54 80.18-1.54 79.76-1.71 79.42-1.99ZM101.06 0.58C100.85-3.09 100.72-6.79 100.61-10.12 100.85-10.15 101.09-10.18 101.37-10.18 103.15-10.18 104.11-9.43 104.45-8.02 105.17-5.18 104.35-1.1 106.13 0.69L110.87 0.58C110.25-0.1 109.77-0.89 109.39-1.71 108.57-3.53 108.64-6.14 108.19-8.33 107.78-10.39 106.58-11.59 104.56-12.14 105.17-13.41 105.79-14.57 106.58-16.05 107.99-18.62 109.36-21.16 111-24.04L105.31-24.55 105.31-24C105.31-22.94 105.21-21.91 104.97-20.82 104.21-17.25 102.57-14.2 100.61-11.8L100.61-12.83C100.61-16.56 100.75-20.44 101.02-24.11 100.3-24.07 99.52-24.04 98.69-24.04 97.87-24.04 97.08-24.04 96.26-24.11 96.64-20.51 96.84-16.53 96.84-12.59 96.81-8.13 96.6-3.63 96.19 0.69 97.22 0.62 98.38 0.55 99.58 0.55 100.1 0.55 100.54 0.58 101.06 0.58ZM116.73-23.49C116.73-23.83 116.66-24.21 116.53-24.52 116.15-25.38 115.32-26.1 114.12-26.1 113.78-26.1 113.44-26.03 113.13-25.89 112.27-25.51 111.52-24.69 111.52-23.49 111.52-23.15 111.59-22.8 111.72-22.5 112.1-21.64 112.92-20.88 114.12-20.88 114.47-20.88 114.84-20.95 115.15-21.09 116.01-21.47 116.73-22.29 116.73-23.49ZM112.41-3.53L112.41-1.37C112.41-0.65 112.41 0.14 112.38 0.89L116.18 0.75 116.18-1.13C116.18-6.96 116.18-13.03 116.73-18.41L111.79-18.35C112.2-13.51 112.41-8.74 112.41-3.53ZM122.53-1.99C123.04-2.37 123.45-2.95 123.49-3.7 123.49-5.42 122.49-6.48 120.78-6.48 118.96-6.48 118.07-5.35 118.07-3.53 118.07-2.37 118.79-1.41 119.51-0.72 120.57 0.27 122.11 0.96 124.21 0.96 124.93 0.96 125.58 0.86 126.13 0.69 128.29-0.03 129.83-1.99 129.83-4.8 129.83-5.35 129.76-5.86 129.59-6.34 129.18-7.54 128.46-8.44 127.57-9.33 126.68-10.22 124.96-11.45 124.1-12.31 123.21-13.2 122.73-13.92 122.73-15.57 122.73-16.94 123.59-18.07 125-18.07 125.72-17.97 126.26-17.42 126.64-16.87 125.96-16.43 125.48-15.74 125.44-14.75 125.44-14.27 125.54-13.85 125.72-13.55 126.13-12.83 126.85-12.28 127.88-12.28 128.08-12.28 128.32-12.31 128.6-12.41 129.59-12.76 130.41-13.68 130.41-15.09 130.41-15.81 130.31-16.46 130.1-17.11 129.45-19.1 127.74-20.37 125.03-20.37 123.11-20.37 121.6-19.68 120.61-18.69 119.71-17.8 118.96-16.46 118.96-14.81 118.96-12.38 119.92-10.84 121.12-9.53 121.94-8.64 123.38-7.41 124.17-6.58 124.96-5.76 125.51-5.11 125.51-3.63 125.51-3.29 125.48-2.95 125.34-2.71 125.06-2.16 124.52-1.54 123.8-1.54 123.28-1.54 122.87-1.71 122.53-1.99ZM136.79-23.49C136.79-23.83 136.72-24.21 136.59-24.52 136.21-25.38 135.39-26.1 134.19-26.1 133.84-26.1 133.5-26.03 133.19-25.89 132.33-25.51 131.58-24.69 131.58-23.49 131.58-23.15 131.65-22.8 131.79-22.5 132.16-21.64 132.99-20.88 134.19-20.88 134.53-20.88 134.91-20.95 135.21-21.09 136.07-21.47 136.79-22.29 136.79-23.49ZM132.47-3.53L132.47-1.37C132.47-0.65 132.47 0.14 132.44 0.89L136.24 0.75 136.24-1.13C136.24-6.96 136.24-13.03 136.79-18.41L131.85-18.35C132.27-13.51 132.47-8.74 132.47-3.53ZM144.75-3.84C143.92-8.5 143.31-13.61 142.79-18.48L137.99-18.28C139.6-12.07 140.98-5.93 142.18 0.69L147.01 0.58C148.31-6.28 150.06-12.41 152.05-18.59L146.87-18.65C146.46-13.58 145.78-8.44 144.75-3.84ZM165.22-10.97C165.22-13.65 165.32-16.15 165.49-18.76L161.69-18.83C161.72-17.63 161.72-16.6 161.72-15.64L161.72-10.87C161.72-10.22 161.72-9.57 161.69-8.92 161.41-7.37 161.07-5.93 160.45-4.8 160.14-4.22 159.66-3.6 159.08-3.5 157.98-3.5 157.5-4.15 157.2-5.04 156.78-6.31 156.75-7.96 156.75-9.77 156.75-10.42 156.82-11.18 156.89-12.04 157.06-14.09 157.37-16.08 157.81-18.24L153.56-18.72C153.05-15.47 152.81-12.04 152.81-8.26 152.81-5.76 153.11-3.53 153.97-1.95 154.66-0.65 155.82 0.41 157.68 0.41 158.09 0.38 158.5 0.24 158.94 0.03 159.97-0.45 160.76-1.2 161.38-2.3 161.31-1.51 161.24-0.69 161.21 0.17L165.56 0.24C165.43-3.7 165.22-7.06 165.22-10.97ZM172.28-25.75L167.93-25.86C168.03-20.4 168.17-15.12 168.17-9.67 168.17-6.17 168.13-3.02 168 0.34L171.8 0.41C171.77-1.13 171.77-2.54 171.77-3.81L171.77-7.41C171.77-13.79 171.98-19.65 172.28-25.75ZM179.04-23.49C179.04-23.83 178.97-24.21 178.83-24.52 178.46-25.38 177.63-26.1 176.43-26.1 176.09-26.1 175.75-26.03 175.44-25.89 174.58-25.51 173.83-24.69 173.83-23.49 173.83-23.15 173.9-22.8 174.03-22.5 174.41-21.64 175.23-20.88 176.43-20.88 176.78-20.88 177.15-20.95 177.46-21.09 178.32-21.47 179.04-22.29 179.04-23.49ZM174.72-3.53L174.72-1.37C174.72-0.65 174.72 0.14 174.68 0.89L178.49 0.75 178.49-1.13C178.49-6.96 178.49-13.03 179.04-18.41L174.1-18.35C174.51-13.51 174.72-8.74 174.72-3.53Z" transform="translate(-0.8199999928474426, 26.100000381469727)"></path></g><!----><!----><!----><!----><!----><!----><!----></g></g><!----></g></g><defs v-gra="od"></defs><defs v-gra="id"><filter id="b858d4e2-94e0-40c7-8ff2-7fe4a284f62a" filterUnits="userSpaceOnUse"><feColorMatrix type="matrix" values="0 0 0 0 0.99609375  0 0 0 0 0.99609375  0 0 0 0 0.99609375  0 0 0 1 0"></feColorMatrix></filter><linearGradient x1="0" y1="1" x2="0" y2="0" id="9pLZsgOax7vJZwE1hP7ju"><stop offset="0%" stop-color="#ffecd2"></stop><stop offset="100%" stop-color="#fcb69f"></stop></linearGradient><filter id="42443b3f1de60f6b6fd3b6a9844b4764" filterUnits="userSpaceOnUse"><feColorMatrix type="matrix" values="0 0 0 0 0.99609375  0 0 0 0 0.99609375  0 0 0 0 0.99609375  0 0 0 1 0"></feColorMatrix></filter></defs><mask v-gra="im" id="4af3104a-7abc-4230-a865-0566c8a16e87"><g class="iconsvg-imagesvg" filter="url(#b858d4e2-94e0-40c7-8ff2-7fe4a284f62a)"><g><rect fill="#ffffff" fill-opacity="0" stroke-width="2" x="0" y="0" width="60" height="60" class="image-rect"></rect><svg x="0" y="0" width="60" height="60" filtersec="colorsf6984966059" class="image-svg-svg primary" style="overflow: visible;"><svg xmlns="http://www.w3.org/2000/svg" viewBox="0 0 110.2 110.2"><path d="M70.4 28.6c0 14.7-6.9 26.6-15.3 26.6-8.5 0-15.3-11.9-15.3-26.6S46.7 2 55.1 2c8.5 0 15.3 11.9 15.3 26.6zm-52.8-11c-6 6-2.4 19.2 8 29.6 10.4 10.4 23.6 13.9 29.6 8 6-6 2.4-19.2-8-29.6s-23.7-14-29.6-8zM2 55.1c0 8.5 11.9 15.3 26.6 15.3s26.6-6.9 26.6-15.3c0-8.5-11.9-15.3-26.6-15.3S2 46.7 2 55.1zm15.6 37.6c6 6 19.2 2.4 29.6-8s13.9-23.6 8-29.6c-6-6-19.2-2.4-29.6 8-10.5 10.3-14 23.6-8 29.6zm37.5 15.5c8.5 0 15.3-11.9 15.3-26.6S63.5 55 55.1 55c-8.5 0-15.3 11.9-15.3 26.6s6.9 26.6 15.3 26.6zm37.6-15.5c6-6 2.4-19.2-8-29.6-10.4-10.4-23.6-13.9-29.6-8-6 6-2.4 19.2 8 29.6s23.6 14 29.6 8zm15.5-37.6c0-8.5-11.9-15.3-26.6-15.3S55 46.7 55 55.1c0 8.5 11.9 15.3 26.6 15.3s26.6-6.8 26.6-15.3zM92.7 17.6c-6-6-19.2-2.4-29.6 8s-13.9 23.6-8 29.6c6 6 19.2 2.4 29.6-8 10.4-10.4 14-23.7 8-29.6z" fill="none" stroke="#333" stroke-width="4" stroke-miterlimit="10"></path></svg></svg><defs><filter id="colors7993103764"><feColorMatrix type="matrix" values="0 0 0 0 0.99609375  0 0 0 0 0.99609375  0 0 0 0 0.99609375  0 0 0 1 0" class="icon-fecolormatrix"></feColorMatrix></filter><filter id="colorsf6984966059"><feColorMatrix type="matrix" values="0 0 0 0 0.99609375  0 0 0 0 0.99609375  0 0 0 0 0.99609375  0 0 0 1 0" class="icon-fecolormatrix"></feColorMatrix></filter><filter id="colorsb2035203326"><feColorMatrix type="matrix" values="0 0 0 0 0  0 0 0 0 0  0 0 0 0 0  0 0 0 1 0" class="icon-fecolormatrix"></feColorMatrix></filter></defs></g></g></mask></svg>