<svg xmlns="http://www.w3.org/2000/svg" viewBox="0 0 42.27 60.95"><title>资源 20</title><path d="M35.71 23l6.56 6.56v22.2L33.08 61H9.19L0 51.76V39.88h6.75V49L12 54.2h18.3l5.22-5.2V32.33L26.16 23zM15.4 23l-.4-.4v-7.2l.4-.4h11.47l.4.4v5.66H34V12.6l-4.34-4.35H12.6L8.25 12.6v12.77l4.35 4.35h8.69l6 6v9.84l-.4.4H15.4l-.4-.4v-5.68H8.25v8.46l4.35 4.36h17.06L34 48.34V32.91L24.09 23zM33.08 0H9.19L0 9.19v19.6L9.19 38h16.56v-1.66l-5.11-5.12H12L6.75 26V12L12 6.75h18.3L35.52 12v9.08h6.75V9.19z" fill="currentColor"></path></svg>