<svg fill="#000000" xmlns="http://www.w3.org/2000/svg" xmlns:xlink="http://www.w3.org/1999/xlink" version="1.1" x="0px" y="0px" viewBox="0 2.3299999237060547 100 95.33499145507812" enable-background="new 0 0 100 100" xml:space="preserve"><path fill="#000000" d="M48.131,2.33v0.051l0.103-0.051h3.021l0.358,0.051l0.051-0.051l0.308,0.051c4.232,0,9.387,0.99,15.463,2.97  c3.414,1.263,6.793,2.902,10.139,4.916c2.082,1.229,4.506,3.021,7.271,5.376c3.346,3.175,5.564,5.632,6.656,7.374  c2.561,3.481,4.558,7.219,5.991,11.213c1.639,4.984,2.458,9.336,2.458,13.057L100,47.491h-0.051L100,47.542v3.225l-0.051,0.052  L100,50.871c0,2.525-0.512,6.16-1.536,10.906c-0.956,3.345-1.997,6.212-3.123,8.602c-1.229,2.424-2.901,5.035-5.019,7.834  c-1.365,1.673-3.141,3.567-5.325,5.684c-3.516,2.97-6.485,5.172-8.909,6.605c-1.058,0.546-2.014,0.819-2.867,0.819  c-2.287,0-3.823-1.127-4.608-3.38c-0.137-0.614-0.205-1.144-0.205-1.587c0-1.946,1.707-3.806,5.121-5.581  c1.058-0.512,2.747-1.81,5.068-3.892c2.97-2.936,5.035-5.376,6.196-7.322c1.331-2.048,2.44-4.182,3.328-6.4  c1.229-3.481,1.843-5.752,1.843-6.81l0.513-3.277l-0.103-0.051l0.103-0.308v-0.461l0.051-0.052l-0.051-0.051l0.051-0.205  l0.051-2.304c0-10.172-3.771-19.014-11.315-26.523c-2.799-2.492-4.864-4.113-6.195-4.864c-6.964-4.335-14.32-6.503-22.069-6.503  h-2.355l-0.307,0.051v-0.051l-0.051,0.051h-0.052c-3.447,0-7.612,0.802-12.493,2.407c-2.595,0.99-5.206,2.287-7.834,3.892  c-1.673,0.99-3.994,2.867-6.964,5.632l-1.69,1.843c-6.52,7.271-9.78,15.6-9.78,24.987l0.051,0.563H9.473l0.051,0.051v0.051  c0,6.691,2.799,14.371,8.397,23.042c4.54,6.759,7.886,11.862,10.036,15.31c0.751,1.264,1.484,2.662,2.201,4.199h-0.051  c-4.574-2.082-8.841-4.523-12.801-7.322c-3.004-2.355-5.444-4.729-7.322-7.117c-2.15-3.004-3.738-5.564-4.762-7.681  c-1.229-2.39-2.373-5.376-3.431-8.961c-0.614-2.253-1.109-4.693-1.485-7.321l-0.256-2.816h0.051l-0.051-0.052L0,49.897v-1.434  l0.051-0.051L0,48.361v-0.051l0.051-0.051L0,48.208l0.051-0.307c0-4.677,1.229-10.053,3.687-16.129  c1.536-3.379,3.533-6.725,5.991-10.036c1.297-1.775,3.431-4.079,6.4-6.913c3.072-2.594,6.025-4.676,8.858-6.247  c2.526-1.4,5.718-2.748,9.575-4.045c3.141-1.024,7.254-1.741,12.34-2.15L48.131,2.33z M48.694,15.694v0.103l0.051-0.103h2.919  l0.051,0.103l0.052-0.103c2.287,0.068,5.223,0.546,8.807,1.434c3.106,0.99,5.684,2.065,7.731,3.226  c1.912,1.058,4.097,2.663,6.555,4.813c3.072,2.97,5.052,5.206,5.939,6.708c1.673,2.424,2.97,5.001,3.892,7.732  c0.751,1.877,1.28,4.591,1.587,8.141v0.051h-0.051l0.051,0.051v1.895c0,9.25-3.823,17.512-11.47,24.782  c-3.516,3.106-5.769,4.711-6.759,4.813c-0.614,0.273-1.279,0.409-1.997,0.409H65.95c-2.151,0-3.653-1.075-4.506-3.226l-0.257-1.536  c0-2.253,1.502-4.045,4.506-5.376c0.956-0.479,2.065-1.332,3.328-2.561c2.015-2.117,3.448-4.062,4.302-5.838  c0.785-1.365,1.536-3.276,2.253-5.734c0.409-2.014,0.614-3.465,0.614-4.352h0.051l-0.051-0.104l0.051-0.256v-2.765l-0.051-0.256  h0.051l-0.051-0.205c0-2.492-0.87-5.496-2.611-9.012c-0.854-1.57-2.1-3.243-3.738-5.018c-1.74-1.775-3.208-3.004-4.403-3.687  c-4.847-3.106-9.677-4.66-14.49-4.66h-0.153l-0.052-0.103l-0.051,0.103h-0.154l-0.051-0.103l-0.051,0.103h-0.563l-0.052-0.103  l-0.051,0.103h-0.922l-0.307,0.051v-0.051c-2.15,0.205-3.823,0.478-5.019,0.819c-5.734,1.638-10.206,4.335-13.415,8.09  c-1.844,2.014-3.277,4.147-4.301,6.4c-1.331,3.106-1.997,6.025-1.997,8.756v1.075l-0.051,0.051l0.051,0.051v0.102  c0,4.506,1.707,9.268,5.12,14.286c8.671,13.79,15.344,24.731,20.021,32.821l-0.051,0.051h-0.052  c-5.974-0.546-9.968-1.109-11.981-1.689c-7.953-12.562-12.408-19.543-13.364-20.941c-4.233-6.418-6.861-11.129-7.885-14.133  c-1.127-3.379-1.69-6.879-1.69-10.497c0-7.851,2.577-15.054,7.732-21.608c0.785-1.024,2.406-2.646,4.864-4.864  c4.643-3.687,9.711-6.127,15.207-7.322C43.711,16.172,46.031,15.864,48.694,15.694z M49.514,29.314v0.103l0.051-0.103h1.588  l0.103,0.103l0.051-0.103h0.051l0.052,0.103l0.051-0.103c1.502,0,3.533,0.358,6.094,1.075c5.188,1.843,9.131,5.257,11.828,10.241  c1.502,3.106,2.253,6.145,2.253,9.114v0.307c0,5.667-2.441,10.804-7.322,15.412c-2.048,1.639-3.909,2.458-5.581,2.458  c-2.083,0-3.636-1.109-4.66-3.328c-0.17-0.478-0.272-0.973-0.307-1.485c0-1.706,1.263-3.43,3.789-5.171  c1.809-1.229,2.97-2.646,3.481-4.25c0.41-1.161,0.614-2.304,0.614-3.431v-0.205c0-3.414-1.502-6.435-4.506-9.063  c-1.979-1.468-4.438-2.202-7.373-2.202l-0.409,0.051v-0.051l-0.052,0.051h-0.103c-2.696,0-5.291,1.16-7.782,3.481  c-2.015,2.321-3.021,4.984-3.021,7.988c0,2.56,1.758,6.332,5.274,11.316c9.08,14.303,16.061,25.584,20.941,33.846  c-4.369,1.16-7.731,1.74-10.087,1.74c-4.506-6.554-9.797-14.968-15.873-25.242c-2.082-3.482-4.403-7.084-6.963-10.805  c-2.287-3.55-3.432-7.254-3.432-11.111c0-5.359,1.963-10.104,5.889-14.234c2.116-1.946,4.045-3.329,5.786-4.147  c3.106-1.297,5.172-1.946,6.195-1.946C46.715,29.587,47.841,29.45,49.514,29.314z"></path></svg>