<svg data-v-70b83f88="" version="1.0" xmlns="http://www.w3.org/2000/svg" xmlns:xlink="http://www.w3.org/1999/xlink" viewBox="0 0 340.000000 250.000000" preserveAspectRatio="xMidYMid meet" color-interpolation-filters="sRGB" style="margin: auto;"><rect data-v-70b83f88="" x="0" y="0" width="100%" height="100%" fill="#fff" fill-opacity="1" class="background"></rect><rect data-v-70b83f88="" x="0" y="0" width="100%" height="100%" fill="url(#watermark)" fill-opacity="1" class="watermarklayer"></rect><g data-v-70b83f88="" fill="#000000" class="icon-text-wrapper icon-svg-group iconsvg" transform="translate(72.92472839355469,96.3994255065918)"><g class="iconsvg-imagesvg" transform="translate(0,0)"><g><rect fill="#000000" fill-opacity="0" stroke-width="2" x="0" y="0" width="60" height="57.20114783636659" class="image-rect"></rect><svg x="0" y="0" width="60" height="57.20114783636659" filtersec="colorsb4205586564" class="image-svg-svg primary" style="overflow: visible;"><svg fill="#000000" xmlns="http://www.w3.org/2000/svg" xmlns:xlink="http://www.w3.org/1999/xlink" version="1.1" x="0px" y="0px" viewBox="0 2.3299999237060547 100 95.33499145507812" enable-background="new 0 0 100 100" xml:space="preserve"><path fill="#000000" d="M48.131,2.33v0.051l0.103-0.051h3.021l0.358,0.051l0.051-0.051l0.308,0.051c4.232,0,9.387,0.99,15.463,2.97  c3.414,1.263,6.793,2.902,10.139,4.916c2.082,1.229,4.506,3.021,7.271,5.376c3.346,3.175,5.564,5.632,6.656,7.374  c2.561,3.481,4.558,7.219,5.991,11.213c1.639,4.984,2.458,9.336,2.458,13.057L100,47.491h-0.051L100,47.542v3.225l-0.051,0.052  L100,50.871c0,2.525-0.512,6.16-1.536,10.906c-0.956,3.345-1.997,6.212-3.123,8.602c-1.229,2.424-2.901,5.035-5.019,7.834  c-1.365,1.673-3.141,3.567-5.325,5.684c-3.516,2.97-6.485,5.172-8.909,6.605c-1.058,0.546-2.014,0.819-2.867,0.819  c-2.287,0-3.823-1.127-4.608-3.38c-0.137-0.614-0.205-1.144-0.205-1.587c0-1.946,1.707-3.806,5.121-5.581  c1.058-0.512,2.747-1.81,5.068-3.892c2.97-2.936,5.035-5.376,6.196-7.322c1.331-2.048,2.44-4.182,3.328-6.4  c1.229-3.481,1.843-5.752,1.843-6.81l0.513-3.277l-0.103-0.051l0.103-0.308v-0.461l0.051-0.052l-0.051-0.051l0.051-0.205  l0.051-2.304c0-10.172-3.771-19.014-11.315-26.523c-2.799-2.492-4.864-4.113-6.195-4.864c-6.964-4.335-14.32-6.503-22.069-6.503  h-2.355l-0.307,0.051v-0.051l-0.051,0.051h-0.052c-3.447,0-7.612,0.802-12.493,2.407c-2.595,0.99-5.206,2.287-7.834,3.892  c-1.673,0.99-3.994,2.867-6.964,5.632l-1.69,1.843c-6.52,7.271-9.78,15.6-9.78,24.987l0.051,0.563H9.473l0.051,0.051v0.051  c0,6.691,2.799,14.371,8.397,23.042c4.54,6.759,7.886,11.862,10.036,15.31c0.751,1.264,1.484,2.662,2.201,4.199h-0.051  c-4.574-2.082-8.841-4.523-12.801-7.322c-3.004-2.355-5.444-4.729-7.322-7.117c-2.15-3.004-3.738-5.564-4.762-7.681  c-1.229-2.39-2.373-5.376-3.431-8.961c-0.614-2.253-1.109-4.693-1.485-7.321l-0.256-2.816h0.051l-0.051-0.052L0,49.897v-1.434  l0.051-0.051L0,48.361v-0.051l0.051-0.051L0,48.208l0.051-0.307c0-4.677,1.229-10.053,3.687-16.129  c1.536-3.379,3.533-6.725,5.991-10.036c1.297-1.775,3.431-4.079,6.4-6.913c3.072-2.594,6.025-4.676,8.858-6.247  c2.526-1.4,5.718-2.748,9.575-4.045c3.141-1.024,7.254-1.741,12.34-2.15L48.131,2.33z M48.694,15.694v0.103l0.051-0.103h2.919  l0.051,0.103l0.052-0.103c2.287,0.068,5.223,0.546,8.807,1.434c3.106,0.99,5.684,2.065,7.731,3.226  c1.912,1.058,4.097,2.663,6.555,4.813c3.072,2.97,5.052,5.206,5.939,6.708c1.673,2.424,2.97,5.001,3.892,7.732  c0.751,1.877,1.28,4.591,1.587,8.141v0.051h-0.051l0.051,0.051v1.895c0,9.25-3.823,17.512-11.47,24.782  c-3.516,3.106-5.769,4.711-6.759,4.813c-0.614,0.273-1.279,0.409-1.997,0.409H65.95c-2.151,0-3.653-1.075-4.506-3.226l-0.257-1.536  c0-2.253,1.502-4.045,4.506-5.376c0.956-0.479,2.065-1.332,3.328-2.561c2.015-2.117,3.448-4.062,4.302-5.838  c0.785-1.365,1.536-3.276,2.253-5.734c0.409-2.014,0.614-3.465,0.614-4.352h0.051l-0.051-0.104l0.051-0.256v-2.765l-0.051-0.256  h0.051l-0.051-0.205c0-2.492-0.87-5.496-2.611-9.012c-0.854-1.57-2.1-3.243-3.738-5.018c-1.74-1.775-3.208-3.004-4.403-3.687  c-4.847-3.106-9.677-4.66-14.49-4.66h-0.153l-0.052-0.103l-0.051,0.103h-0.154l-0.051-0.103l-0.051,0.103h-0.563l-0.052-0.103  l-0.051,0.103h-0.922l-0.307,0.051v-0.051c-2.15,0.205-3.823,0.478-5.019,0.819c-5.734,1.638-10.206,4.335-13.415,8.09  c-1.844,2.014-3.277,4.147-4.301,6.4c-1.331,3.106-1.997,6.025-1.997,8.756v1.075l-0.051,0.051l0.051,0.051v0.102  c0,4.506,1.707,9.268,5.12,14.286c8.671,13.79,15.344,24.731,20.021,32.821l-0.051,0.051h-0.052  c-5.974-0.546-9.968-1.109-11.981-1.689c-7.953-12.562-12.408-19.543-13.364-20.941c-4.233-6.418-6.861-11.129-7.885-14.133  c-1.127-3.379-1.69-6.879-1.69-10.497c0-7.851,2.577-15.054,7.732-21.608c0.785-1.024,2.406-2.646,4.864-4.864  c4.643-3.687,9.711-6.127,15.207-7.322C43.711,16.172,46.031,15.864,48.694,15.694z M49.514,29.314v0.103l0.051-0.103h1.588  l0.103,0.103l0.051-0.103h0.051l0.052,0.103l0.051-0.103c1.502,0,3.533,0.358,6.094,1.075c5.188,1.843,9.131,5.257,11.828,10.241  c1.502,3.106,2.253,6.145,2.253,9.114v0.307c0,5.667-2.441,10.804-7.322,15.412c-2.048,1.639-3.909,2.458-5.581,2.458  c-2.083,0-3.636-1.109-4.66-3.328c-0.17-0.478-0.272-0.973-0.307-1.485c0-1.706,1.263-3.43,3.789-5.171  c1.809-1.229,2.97-2.646,3.481-4.25c0.41-1.161,0.614-2.304,0.614-3.431v-0.205c0-3.414-1.502-6.435-4.506-9.063  c-1.979-1.468-4.438-2.202-7.373-2.202l-0.409,0.051v-0.051l-0.052,0.051h-0.103c-2.696,0-5.291,1.16-7.782,3.481  c-2.015,2.321-3.021,4.984-3.021,7.988c0,2.56,1.758,6.332,5.274,11.316c9.08,14.303,16.061,25.584,20.941,33.846  c-4.369,1.16-7.731,1.74-10.087,1.74c-4.506-6.554-9.797-14.968-15.873-25.242c-2.082-3.482-4.403-7.084-6.963-10.805  c-2.287-3.55-3.432-7.254-3.432-11.111c0-5.359,1.963-10.104,5.889-14.234c2.116-1.946,4.045-3.329,5.786-4.147  c3.106-1.297,5.172-1.946,6.195-1.946C46.715,29.587,47.841,29.45,49.514,29.314z"></path></svg></svg><!----></g></g><g transform="translate(67.00000381469727,0.29828643798828125)"><g data-gra="path-name" fill-rule="" class="tp-name iconsvg-namesvg"><g transform="scale(1)"><g><path d="M21.88-12.92L21.88-11.57Q21.88-8.1 20.78-5.56 19.68-3.02 17.7-1.53L17.7-1.53 21.89 1.74 19.14 4.22 13.95 0.12Q12.92 0.34 11.75 0.34L11.75 0.34Q8.8 0.34 6.48-1.11 4.16-2.56 2.89-5.25 1.63-7.93 1.61-11.43L1.61-11.43 1.61-12.81Q1.61-16.38 2.87-19.11 4.14-21.84 6.45-23.29 8.75-24.74 11.72-24.74L11.72-24.74Q14.74-24.74 17.04-23.31 19.34-21.88 20.6-19.19 21.86-16.5 21.88-12.92L21.88-12.92ZM17.62-11.57L17.62-12.84Q17.62-16.96 16.08-19.09 14.53-21.22 11.72-21.22L11.72-21.22Q8.99-21.22 7.43-19.07 5.88-16.91 5.85-12.99L5.85-12.99 5.85-11.57Q5.85-7.61 7.4-5.38 8.95-3.15 11.75-3.15L11.75-3.15Q14.58-3.15 16.1-5.3 17.62-7.44 17.62-11.57L17.62-11.57ZM39.81-24.41L44.04-24.41 44.04-8.1Q44.04-4.21 41.55-1.94 39.06 0.34 34.92 0.34L34.92 0.34Q30.73 0.34 28.26-1.9 25.8-4.14 25.8-8.11L25.8-8.11 25.8-24.41 30.02-24.41 30.02-8.08Q30.02-5.63 31.26-4.34 32.5-3.05 34.92-3.05L34.92-3.05Q39.81-3.05 39.81-8.21L39.81-8.21 39.81-24.41ZM62.83-14.25L62.83-10.9 52.8-10.9 52.8-3.39 64.52-3.39 64.52 0 48.56 0 48.56-24.41 64.4-24.41 64.4-20.99 52.8-20.99 52.8-14.25 62.83-14.25ZM82.24-14.25L82.24-10.9 72.22-10.9 72.22-3.39 83.93-3.39 83.93 0 67.98 0 67.98-24.41 83.82-24.41 83.82-20.99 72.22-20.99 72.22-14.25 82.24-14.25ZM106.75-24.41L106.75 0 102.51 0 91.63-17.32 91.63 0 87.39 0 87.39-24.41 91.63-24.41 102.54-7.02 102.54-24.41 106.75-24.41ZM124.52-6.29L124.52-6.29Q124.52-7.9 123.39-8.77 122.26-9.64 119.3-10.53 116.35-11.42 114.61-12.51L114.61-12.51Q111.28-14.6 111.28-17.97L111.28-17.97Q111.28-20.92 113.68-22.83 116.09-24.74 119.93-24.74L119.93-24.74Q122.47-24.74 124.47-23.8 126.46-22.87 127.6-21.13 128.74-19.4 128.74-17.28L128.74-17.28 124.52-17.28Q124.52-19.19 123.32-20.28 122.12-21.36 119.89-21.36L119.89-21.36Q117.81-21.36 116.66-20.47 115.52-19.58 115.52-17.99L115.52-17.99Q115.52-16.65 116.76-15.75 118-14.85 120.85-14.01 123.7-13.16 125.42-12.08 127.15-11 127.95-9.6 128.76-8.2 128.76-6.32L128.76-6.32Q128.76-3.27 126.42-1.47 124.08 0.34 120.08 0.34L120.08 0.34Q117.43 0.34 115.21-0.65 112.99-1.63 111.75-3.35 110.52-5.08 110.52-7.38L110.52-7.38 114.76-7.38Q114.76-5.3 116.14-4.16 117.51-3.02 120.08-3.02L120.08-3.02Q122.29-3.02 123.4-3.91 124.52-4.81 124.52-6.29Z" transform="translate(-1.6100000143051147, 24.739999771118164)"></path></g><!----><!----><!----><!----><!----><!----><g data-gra="path-name-1" fill="#000000" transform="translate(0,31.959999084472656)"><g transform="scale(1.01753)"><path d="M16.26 0L9.16-10.18 6.49-7.35 6.49 0 2.4 0 2.4-23.57 6.49-23.57 6.49-12.52 8.76-15.32 15.66-23.57 20.61-23.57 11.85-13.13 21.11 0 16.26 0ZM27.62-23.57L27.62 0 23.54 0 23.54-23.57 27.62-23.57ZM44.98-6.07L44.98-6.07Q44.98-7.63 43.89-8.47 42.79-9.31 39.94-10.17 37.09-11.03 35.41-12.08L35.41-12.08Q32.19-14.1 32.19-17.36L32.19-17.36Q32.19-20.21 34.51-22.05 36.84-23.9 40.54-23.9L40.54-23.9Q43-23.9 44.93-22.99 46.86-22.08 47.96-20.41 49.06-18.73 49.06-16.69L49.06-16.69 44.98-16.69Q44.98-18.54 43.82-19.58 42.66-20.63 40.51-20.63L40.51-20.63Q38.5-20.63 37.39-19.77 36.28-18.91 36.28-17.37L36.28-17.37Q36.28-16.08 37.48-15.21 38.68-14.35 41.43-13.53 44.19-12.71 45.85-11.67 47.52-10.62 48.3-9.27 49.08-7.92 49.08-6.1L49.08-6.1Q49.08-3.16 46.82-1.42 44.56 0.32 40.69 0.32L40.69 0.32Q38.13 0.32 35.99-0.62 33.84-1.57 32.65-3.24 31.46-4.91 31.46-7.12L31.46-7.12 35.56-7.12Q35.56-5.12 36.88-4.02 38.21-2.91 40.69-2.91L40.69-2.91Q42.83-2.91 43.9-3.78 44.98-4.65 44.98-6.07ZM56.99-23.57L56.99 0 52.91 0 52.91-23.57 56.99-23.57ZM64.41-23.57L70.34-5.13 76.33-23.57 80.83-23.57 72.34 0 68.38 0 59.92-23.57 64.41-23.57ZM96.65-23.57L100.73-23.57 100.73-7.82Q100.73-4.06 98.32-1.87 95.92 0.32 91.92 0.32L91.92 0.32Q87.87 0.32 85.49-1.84 83.11-4 83.11-7.84L83.11-7.84 83.11-23.57 87.19-23.57 87.19-7.8Q87.19-5.44 88.39-4.19 89.59-2.95 91.92-2.95L91.92-2.95Q96.65-2.95 96.65-7.93L96.65-7.93 96.65-23.57ZM109.19-23.57L109.19-3.27 119.9-3.27 119.9 0 105.1 0 105.1-23.57 109.19-23.57ZM127.36-23.57L127.36 0 123.28 0 123.28-23.57 127.36-23.57Z" transform="translate(-2.4000000953674316, 23.899999618530273)"></path></g></g></g></g><!----></g></g><defs v-gra="od"></defs></svg>